<svg width="327" height="108" viewBox="0 0 327 108" fill="none" xmlns="http://www.w3.org/2000/svg">
<mask id="path-1-outside-1_273_3" maskUnits="userSpaceOnUse" x="5" y="18" width="319" height="71" fill="black">
<rect fill="white" x="5" y="18" width="319" height="71"/>
<path d="M28.4 86.8849C24.186 86.8849 20.4144 86.0948 17.0854 84.5146C13.7563 82.9132 11.112 80.7219 9.15248 77.9407C7.21403 75.1594 6.1816 71.9779 6.05518 68.396H17.433C17.6437 71.0508 18.792 73.221 20.878 74.9066C22.9639 76.5711 25.4713 77.4034 28.4 77.4034C30.6966 77.4034 32.7404 76.8767 34.5314 75.8232C36.3223 74.7696 37.734 73.3053 38.7665 71.43C39.7989 69.5548 40.3046 67.4162 40.2835 65.0142C40.3046 62.5701 39.7884 60.3999 38.7349 58.5036C37.6814 56.6072 36.2381 55.1218 34.405 54.0472C32.5719 52.9516 30.4649 52.4038 28.0839 52.4038C26.1455 52.3827 24.2387 52.7409 22.3634 53.4783C20.4882 54.2158 19.0027 55.185 17.9071 56.386L7.31938 54.6477L10.7011 21.2727H48.248V31.0703H20.4039L18.5392 48.2319H18.9185C20.1195 46.8202 21.8156 45.6508 24.0069 44.7237C26.1982 43.7756 28.6002 43.3015 31.2128 43.3015C35.1319 43.3015 38.6295 44.2286 41.7057 46.0827C44.782 47.9158 47.205 50.4442 48.9749 53.668C50.7448 56.8917 51.6298 60.579 51.6298 64.7298C51.6298 69.007 50.6395 72.8207 48.6589 76.1708C46.6994 79.4999 43.9708 82.1231 40.4731 84.0405C36.9966 85.9368 32.9722 86.8849 28.4 86.8849ZM96.8251 73.8636V70.4503C96.8251 67.9429 97.3518 65.6358 98.4053 63.5288C99.4799 61.4218 101.039 59.7256 103.083 58.4403C105.127 57.1551 107.602 56.5124 110.51 56.5124C113.502 56.5124 116.009 57.1551 118.032 58.4403C120.055 59.7045 121.582 61.3902 122.615 63.4972C123.668 65.6042 124.195 67.9219 124.195 70.4503V73.8636C124.195 76.371 123.668 78.6781 122.615 80.7852C121.561 82.8922 120.013 84.5883 117.969 85.8736C115.946 87.1589 113.46 87.8015 110.51 87.8015C107.56 87.8015 105.063 87.1589 103.02 85.8736C100.976 84.5883 99.4272 82.8922 98.3737 80.7852C97.3413 78.6781 96.8251 76.371 96.8251 73.8636ZM105.074 70.4503V73.8636C105.074 75.5282 105.474 77.0558 106.275 78.4464C107.076 79.837 108.487 80.5323 110.51 80.5323C112.554 80.5323 113.955 79.8475 114.714 78.478C115.493 77.0874 115.883 75.5492 115.883 73.8636V70.4503C115.883 68.7647 115.514 67.2266 114.777 65.8359C114.039 64.4242 112.617 63.7184 110.51 63.7184C108.529 63.7184 107.128 64.4242 106.307 65.8359C105.485 67.2266 105.074 68.7647 105.074 70.4503ZM63.9241 36.8224V33.4091C63.9241 30.8807 64.4614 28.563 65.536 26.456C66.6106 24.349 68.1698 22.6633 70.2136 21.3991C72.2574 20.1139 74.7331 19.4712 77.6408 19.4712C80.6116 19.4712 83.1084 20.1139 85.1312 21.3991C87.175 22.6633 88.7131 24.349 89.7455 26.456C90.778 28.563 91.2942 30.8807 91.2942 33.4091V36.8224C91.2942 39.3509 90.7674 41.6686 89.7139 43.7756C88.6815 45.8615 87.1434 47.5366 85.0996 48.8008C83.0558 50.065 80.5695 50.6971 77.6408 50.6971C74.6699 50.6971 72.1625 50.065 70.1187 48.8008C68.096 47.5366 66.5579 45.851 65.5044 43.744C64.4509 41.637 63.9241 39.3298 63.9241 36.8224ZM72.2363 33.4091V36.8224C72.2363 38.508 72.6261 40.0462 73.4057 41.4368C74.2063 42.8063 75.618 43.4911 77.6408 43.4911C79.6635 43.4911 81.0541 42.8063 81.8126 41.4368C82.5922 40.0462 82.982 38.508 82.982 36.8224V33.4091C82.982 31.7235 82.6133 30.1854 81.8758 28.7947C81.1384 27.383 79.7267 26.6772 77.6408 26.6772C75.6391 26.6772 74.2379 27.383 73.4373 28.7947C72.6366 30.2064 72.2363 31.7446 72.2363 33.4091ZM67.5271 86L112.027 21.2727H119.928L75.4284 86H67.5271ZM217.857 53.6364C217.857 60.6106 216.551 66.5839 213.938 71.5565C211.346 76.5079 207.806 80.3005 203.318 82.9343C198.852 85.5681 193.784 86.8849 188.116 86.8849C182.449 86.8849 177.371 85.5681 172.883 82.9343C168.416 80.2795 164.876 76.4763 162.263 71.5249C159.672 66.5523 158.376 60.5895 158.376 53.6364C158.376 46.6622 159.672 40.6993 162.263 35.7479C164.876 30.7753 168.416 26.9722 172.883 24.3384C177.371 21.7047 182.449 20.3878 188.116 20.3878C193.784 20.3878 198.852 21.7047 203.318 24.3384C207.806 26.9722 211.346 30.7753 213.938 35.7479C216.551 40.6993 217.857 46.6622 217.857 53.6364ZM206.068 53.6364C206.068 48.727 205.299 44.5868 203.761 41.2156C202.244 37.8233 200.137 35.2633 197.44 33.5355C194.743 31.7867 191.635 30.9123 188.116 30.9123C184.598 30.9123 181.49 31.7867 178.793 33.5355C176.096 35.2633 173.978 37.8233 172.44 41.2156C170.923 44.5868 170.165 48.727 170.165 53.6364C170.165 58.5457 170.923 62.6965 172.44 66.0888C173.978 69.46 176.096 72.02 178.793 73.7688C181.49 75.4966 184.598 76.3604 188.116 76.3604C191.635 76.3604 194.743 75.4966 197.44 73.7688C200.137 72.02 202.244 69.46 203.761 66.0888C205.299 62.6965 206.068 58.5457 206.068 53.6364ZM228.942 86V21.2727H270.408V31.1019H240.668V48.6744H267.564V58.5036H240.668V86H228.942ZM281.091 86V21.2727H322.557V31.1019H292.816V48.6744H319.712V58.5036H292.816V86H281.091Z"/>
</mask>
<path d="M17.0854 84.5146L16.6519 85.4157L16.6565 85.4179L17.0854 84.5146ZM9.15248 77.9407L8.33207 78.5125L8.33499 78.5166L9.15248 77.9407ZM6.05518 68.396V67.396H5.01926L5.0558 68.4312L6.05518 68.396ZM17.433 68.396L18.4299 68.3168L18.3568 67.396H17.433V68.396ZM20.878 74.9066L20.2494 75.6844L20.2542 75.6882L20.878 74.9066ZM34.5314 75.8232L35.0384 76.6851L35.0384 76.6851L34.5314 75.8232ZM40.2835 65.0142L39.2836 65.0056L39.2835 65.0143L39.2836 65.023L40.2835 65.0142ZM38.7349 58.5036L37.8607 58.9892L37.8607 58.9892L38.7349 58.5036ZM34.405 54.0472L33.8919 54.9056L33.8992 54.9099L34.405 54.0472ZM28.0839 52.4038L28.0731 53.4038H28.0839V52.4038ZM22.3634 53.4783L21.9974 52.5477L22.3634 53.4783ZM17.9071 56.386L17.7451 57.3728L18.2803 57.4607L18.6459 57.06L17.9071 56.386ZM7.31938 54.6477L6.32447 54.5469L6.22971 55.4822L7.15737 55.6345L7.31938 54.6477ZM10.7011 21.2727V20.2727H9.79733L9.70622 21.1719L10.7011 21.2727ZM48.248 21.2727H49.248V20.2727H48.248V21.2727ZM48.248 31.0703V32.0703H49.248V31.0703H48.248ZM20.4039 31.0703V30.0703H19.5067L19.4097 30.9623L20.4039 31.0703ZM18.5392 48.2319L17.545 48.1239L17.4247 49.2319H18.5392V48.2319ZM18.9185 48.2319V49.2319H19.3806L19.6801 48.8799L18.9185 48.2319ZM24.0069 44.7237L24.3965 45.6447L24.404 45.6415L24.0069 44.7237ZM41.7057 46.0827L41.1895 46.9392L41.1938 46.9418L41.7057 46.0827ZM48.9749 53.668L48.0983 54.1492L48.0983 54.1492L48.9749 53.668ZM48.6589 76.1708L47.798 75.6619L47.7971 75.6636L48.6589 76.1708ZM40.4731 84.0405L40.952 84.9184L40.9538 84.9174L40.4731 84.0405ZM28.4 85.8849C24.313 85.8849 20.6912 85.1193 17.5142 83.6112L16.6565 85.4179C20.1376 87.0704 24.0589 87.8849 28.4 87.8849V85.8849ZM17.5188 83.6134C14.3298 82.0794 11.823 79.9948 9.96996 77.3647L8.33499 78.5166C10.401 81.4491 13.1827 83.747 16.6519 85.4157L17.5188 83.6134ZM9.97288 77.3689C8.1509 74.7548 7.17459 71.7618 7.05455 68.3607L5.0558 68.4312C5.1886 72.1939 6.27716 75.5641 8.33208 78.5125L9.97288 77.3689ZM6.05518 69.396H17.433V67.396H6.05518V69.396ZM16.4362 68.4751C16.6687 71.4056 17.9518 73.8277 20.2495 75.6844L21.5065 74.1288C19.6323 72.6143 18.6187 70.6959 18.4299 68.3168L16.4362 68.4751ZM20.2542 75.6882C22.5349 77.5081 25.2681 78.4034 28.4 78.4034V76.4034C25.6744 76.4034 23.3929 75.6341 21.5017 74.125L20.2542 75.6882ZM28.4 78.4034C30.8556 78.4034 33.078 77.8383 35.0384 76.6851L34.0244 74.9612C32.4029 75.915 30.5376 76.4034 28.4 76.4034V78.4034ZM35.0384 76.6851C36.9891 75.5376 38.5261 73.94 39.6425 71.9123L37.8905 70.9477C36.9419 72.6706 35.6556 74.0017 34.0244 74.9612L35.0384 76.6851ZM39.6425 71.9123C40.7674 69.8691 41.3059 67.5577 41.2835 65.0054L39.2836 65.023C39.3033 67.2747 38.8304 69.2405 37.8905 70.9477L39.6425 71.9123ZM41.2835 65.0228C41.3058 62.4281 40.7567 60.0837 39.609 58.0179L37.8607 58.9892C38.82 60.716 39.3033 62.712 39.2836 65.0056L41.2835 65.0228ZM39.609 58.0179C38.4706 55.9687 36.9015 54.3515 34.9107 53.1845L33.8992 54.9099C35.5747 55.8921 36.8922 57.2458 37.8607 58.9892L39.609 58.0179ZM34.918 53.1889C32.9125 51.9902 30.6242 51.4038 28.0839 51.4038V53.4038C30.3055 53.4038 32.2312 53.913 33.8919 54.9056L34.918 53.1889ZM28.0948 51.4038C26.0224 51.3813 23.9878 51.765 21.9974 52.5477L22.7294 54.409C24.4895 53.7168 26.2686 53.3841 28.0731 53.4037L28.0948 51.4038ZM21.9974 52.5477C20.0133 53.328 18.3887 54.3744 17.1683 55.712L18.6459 57.06C19.6168 55.9957 20.9631 55.1036 22.7294 54.409L21.9974 52.5477ZM18.0691 55.3992L7.48139 53.6609L7.15737 55.6345L17.7451 57.3728L18.0691 55.3992ZM8.31429 54.7485L11.696 21.3735L9.70622 21.1719L6.32447 54.5469L8.31429 54.7485ZM10.7011 22.2727H48.248V20.2727H10.7011V22.2727ZM47.248 21.2727V31.0703H49.248V21.2727H47.248ZM48.248 30.0703H20.4039V32.0703H48.248V30.0703ZM19.4097 30.9623L17.545 48.1239L19.5333 48.3399L21.398 31.1783L19.4097 30.9623ZM18.5392 49.2319H18.9185V47.2319H18.5392V49.2319ZM19.6801 48.8799C20.7556 47.6157 22.3094 46.5277 24.3965 45.6447L23.6172 43.8028C21.3218 44.7739 19.4833 46.0246 18.1568 47.5839L19.6801 48.8799ZM24.404 45.6415C26.4585 44.7525 28.7238 44.3015 31.2128 44.3015V42.3015C28.4765 42.3015 25.9378 42.7986 23.6098 43.8059L24.404 45.6415ZM31.2128 44.3015C34.9671 44.3015 38.2832 45.1874 41.1895 46.9392L42.222 45.2263C38.9759 43.2697 35.2967 42.3015 31.2128 42.3015V44.3015ZM41.1938 46.9418C44.1128 48.6811 46.4118 51.0773 48.0983 54.1492L49.8515 53.1867C47.9983 49.8112 45.4512 47.1505 42.2176 45.2237L41.1938 46.9418ZM48.0983 54.1492C49.7773 57.2073 50.6298 60.7252 50.6298 64.7298H52.6298C52.6298 60.4327 51.7123 56.576 49.8515 53.1867L48.0983 54.1492ZM50.6298 64.7298C50.6298 68.8462 49.6787 72.4809 47.7981 75.6619L49.5197 76.6797C51.6003 73.1605 52.6298 69.1678 52.6298 64.7298H50.6298ZM47.7971 75.6636C45.932 78.8321 43.3375 81.3299 39.9924 83.1636L40.9538 84.9174C44.6041 82.9163 47.4667 80.1676 49.5207 76.6781L47.7971 75.6636ZM39.9943 83.1626C36.6859 84.9672 32.8309 85.8849 28.4 85.8849V87.8849C33.1134 87.8849 37.3072 86.9064 40.952 84.9184L39.9943 83.1626ZM98.4053 63.5288L97.5145 63.0744L97.5109 63.0815L98.4053 63.5288ZM103.083 58.4403L103.615 59.2869L103.615 59.2869L103.083 58.4403ZM118.032 58.4403L117.496 59.2844L117.502 59.2883L118.032 58.4403ZM122.615 63.4972L121.717 63.9372L121.72 63.9444L122.615 63.4972ZM122.615 80.7852L123.509 81.2324L123.509 81.2324L122.615 80.7852ZM117.969 85.8736L117.437 85.027L117.433 85.0296L117.969 85.8736ZM103.02 85.8736L102.487 86.7201L102.487 86.7201L103.02 85.8736ZM98.3737 80.7852L97.4757 81.2252L97.4793 81.2324L98.3737 80.7852ZM106.275 78.4464L107.142 77.9474L107.142 77.9474L106.275 78.4464ZM114.714 78.478L113.841 77.989L113.839 77.9935L114.714 78.478ZM114.777 65.8359L113.89 66.299L113.893 66.3044L114.777 65.8359ZM106.307 65.8359L107.168 66.3447L107.171 66.339L106.307 65.8359ZM70.2136 21.3991L70.7396 22.2496L70.7459 22.2457L70.2136 21.3991ZM85.1312 21.3991L84.5948 22.2432L84.6051 22.2496L85.1312 21.3991ZM89.7455 26.456L88.8475 26.896L88.8475 26.896L89.7455 26.456ZM89.7139 43.7756L88.8195 43.3283L88.8177 43.332L89.7139 43.7756ZM85.0996 48.8008L85.6256 49.6512L85.6256 49.6512L85.0996 48.8008ZM70.1187 48.8008L69.5887 49.6488L69.5927 49.6512L70.1187 48.8008ZM65.5044 43.744L64.61 44.1912L64.61 44.1912L65.5044 43.744ZM73.4057 41.4368L72.5334 41.9258L72.5378 41.9337L72.5424 41.9415L73.4057 41.4368ZM81.8126 41.4368L80.9403 40.9478L80.9378 40.9523L81.8126 41.4368ZM81.8758 28.7947L80.9895 29.2578L80.9924 29.2632L81.8758 28.7947ZM73.4373 28.7947L74.3071 29.2881L74.3071 29.2881L73.4373 28.7947ZM67.5271 86L66.7031 85.4335L65.6261 87H67.5271V86ZM112.027 21.2727V20.2727H111.501L111.203 20.7062L112.027 21.2727ZM119.928 21.2727L120.752 21.8393L121.829 20.2727H119.928V21.2727ZM75.4284 86V87H75.9544L76.2524 86.5665L75.4284 86ZM97.8251 73.8636V70.4503H95.8251V73.8636H97.8251ZM97.8251 70.4503C97.8251 68.0879 98.3201 65.9353 99.2997 63.976L97.5109 63.0815C96.3835 65.3363 95.8251 67.7979 95.8251 70.4503H97.8251ZM99.2962 63.9831C100.287 62.0402 101.721 60.4782 103.615 59.2869L102.551 57.5938C100.357 58.973 98.6728 60.8033 97.5145 63.0744L99.2962 63.9831ZM103.615 59.2869C105.47 58.1207 107.752 57.5124 110.51 57.5124V55.5124C107.453 55.5124 104.784 56.1894 102.551 57.5938L103.615 59.2869ZM110.51 57.5124C113.359 57.5124 115.669 58.1236 117.496 59.2844L118.568 57.5963C116.35 56.1866 113.645 55.5124 110.51 55.5124V57.5124ZM117.502 59.2883C119.369 60.4553 120.768 62.0008 121.717 63.9372L123.513 63.0571C122.397 60.7795 120.74 58.9538 118.562 57.5923L117.502 59.2883ZM121.72 63.9444C122.699 65.9025 123.195 68.0655 123.195 70.4503H125.195C125.195 67.7783 124.637 65.3059 123.509 63.0499L121.72 63.9444ZM123.195 70.4503V73.8636H125.195V70.4503H123.195ZM123.195 73.8636C123.195 76.226 122.7 78.3787 121.72 80.3379L123.509 81.2324C124.637 78.9776 125.195 76.516 125.195 73.8636H123.195ZM121.72 80.3379C120.751 82.277 119.329 83.8367 117.437 85.0271L118.501 86.7201C120.696 85.3399 122.372 83.5073 123.509 81.2324L121.72 80.3379ZM117.433 85.0296C115.604 86.1917 113.314 86.8015 110.51 86.8015V88.8015C113.606 88.8015 116.289 88.126 118.505 86.7176L117.433 85.0296ZM110.51 86.8015C107.707 86.8015 105.404 86.1919 103.552 85.0271L102.487 86.7201C104.723 88.1258 107.414 88.8015 110.51 88.8015V86.8015ZM103.552 85.0271C101.659 83.8367 100.238 82.277 99.2681 80.3379L97.4793 81.2324C98.6168 83.5073 100.293 85.3399 102.487 86.7201L103.552 85.0271ZM99.2717 80.3451C98.3109 78.3844 97.8251 76.2291 97.8251 73.8636H95.8251C95.8251 76.5128 96.3716 78.9719 97.4757 81.2252L99.2717 80.3451ZM104.074 70.4503V73.8636H106.074V70.4503H104.074ZM104.074 73.8636C104.074 75.6965 104.517 77.3971 105.408 78.9453L107.142 77.9474C106.432 76.7144 106.074 75.3599 106.074 73.8636H104.074ZM105.408 78.9453C106.436 80.7296 108.238 81.5323 110.51 81.5323V79.5323C108.737 79.5323 107.716 78.9444 107.142 77.9474L105.408 78.9453ZM110.51 81.5323C112.789 81.5323 114.599 80.7486 115.588 78.9625L113.839 77.9935C113.311 78.9465 112.319 79.5323 110.51 79.5323V81.5323ZM115.586 78.967C116.454 77.4184 116.883 75.7103 116.883 73.8636H114.883C114.883 75.3882 114.532 76.7564 113.841 77.989L115.586 78.967ZM116.883 73.8636V70.4503H114.883V73.8636H116.883ZM116.883 70.4503C116.883 68.6132 116.48 66.9125 115.66 65.3674L113.893 66.3044C114.549 67.5406 114.883 68.9161 114.883 70.4503H116.883ZM115.663 65.3729C114.697 63.5232 112.85 62.7184 110.51 62.7184V64.7184C112.385 64.7184 113.382 65.3252 113.89 66.299L115.663 65.3729ZM110.51 62.7184C108.262 62.7184 106.484 63.5437 105.442 65.3329L107.171 66.339C107.773 65.3048 108.797 64.7184 110.51 64.7184V62.7184ZM105.446 65.3272C104.529 66.8788 104.074 68.5938 104.074 70.4503H106.074C106.074 68.9355 106.441 67.5744 107.168 66.3447L105.446 65.3272ZM64.9241 36.8224V33.4091H62.9241V36.8224H64.9241ZM64.9241 33.4091C64.9241 31.0274 65.4289 28.867 66.4268 26.9103L64.6452 26.0016C63.4939 28.259 62.9241 30.7339 62.9241 33.4091H64.9241ZM66.4268 26.9103C67.4169 24.9689 68.8487 23.4192 70.7396 22.2496L69.6875 20.5487C67.4908 21.9075 65.8042 23.729 64.6452 26.0016L66.4268 26.9103ZM70.7459 22.2457C72.6003 21.0795 74.8827 20.4712 77.6408 20.4712V18.4712C74.5835 18.4712 71.9144 19.1483 69.6812 20.5526L70.7459 22.2457ZM77.6408 20.4712C80.4672 20.4712 82.767 21.0817 84.5949 22.2432L85.6675 20.5551C83.4499 19.146 80.7561 18.4712 77.6408 18.4712V20.4712ZM84.6051 22.2496C86.4929 23.4173 87.9 24.9623 88.8475 26.896L90.6435 26.0159C89.5261 23.7356 87.8571 21.9094 85.6572 20.5487L84.6051 22.2496ZM88.8475 26.896C89.8077 28.8556 90.2942 31.0211 90.2942 33.4091H92.2942C92.2942 30.7402 91.7482 28.2704 90.6435 26.0159L88.8475 26.896ZM90.2942 33.4091V36.8224H92.2942V33.4091H90.2942ZM90.2942 36.8224C90.2942 39.2072 89.7985 41.3702 88.8195 43.3284L90.6083 44.2228C91.7363 41.9669 92.2942 39.4945 92.2942 36.8224H90.2942ZM88.8177 43.332C87.871 45.2447 86.4638 46.7811 84.5735 47.9503L85.6256 49.6512C87.823 48.292 89.492 46.4783 90.6101 44.2192L88.8177 43.332ZM84.5735 47.9503C82.7192 49.0974 80.4244 49.6971 77.6408 49.6971V51.6971C80.7146 51.6971 83.3924 51.0326 85.6256 49.6512L84.5735 47.9503ZM77.6408 49.6971C74.8119 49.6971 72.497 49.096 70.6448 47.9503L69.5927 49.6512C71.8281 51.0339 74.5278 51.6971 77.6408 51.6971V49.6971ZM70.6487 47.9528C68.78 46.7848 67.369 45.237 66.3988 43.2967L64.61 44.1912C65.7468 46.4649 67.412 48.2883 69.5887 49.6488L70.6487 47.9528ZM66.3988 43.2967C65.4192 41.3375 64.9241 39.1848 64.9241 36.8224H62.9241C62.9241 39.4748 63.4826 41.9364 64.61 44.1912L66.3988 43.2967ZM71.2363 33.4091V36.8224H73.2363V33.4091H71.2363ZM71.2363 36.8224C71.2363 38.6691 71.6652 40.3772 72.5334 41.9258L74.278 40.9478C73.5869 39.7152 73.2363 38.347 73.2363 36.8224H71.2363ZM72.5424 41.9415C73.5728 43.7041 75.3755 44.4911 77.6408 44.4911V42.4911C75.8606 42.4911 74.8399 41.9086 74.269 40.9321L72.5424 41.9415ZM77.6408 44.4911C79.9039 44.4911 81.7002 43.7039 82.6874 41.9213L80.9378 40.9523C80.4081 41.9088 79.4231 42.4911 77.6408 42.4911V44.4911ZM82.6849 41.9258C83.5531 40.3772 83.982 38.6691 83.982 36.8224H81.982C81.982 38.347 81.6314 39.7152 80.9404 40.9478L82.6849 41.9258ZM83.982 36.8224V33.4091H81.982V36.8224H83.982ZM83.982 33.4091C83.982 31.572 83.5787 29.8713 82.7593 28.3262L80.9924 29.2632C81.6479 30.4994 81.982 31.8749 81.982 33.4091H83.982ZM82.7622 28.3317C81.7978 26.4856 79.9644 25.6772 77.6408 25.6772V27.6772C79.489 27.6772 80.479 28.2805 80.9895 29.2578L82.7622 28.3317ZM77.6408 25.6772C75.3777 25.6772 73.5895 26.4993 72.5674 28.3014L74.3071 29.2881C74.8863 28.2668 75.9005 27.6772 77.6408 27.6772V25.6772ZM72.5674 28.3014C71.6792 29.8675 71.2363 31.5763 71.2363 33.4091H73.2363C73.2363 31.9129 73.594 30.5454 74.3071 29.2881L72.5674 28.3014ZM68.3512 86.5665L112.851 21.8393L111.203 20.7062L66.7031 85.4335L68.3512 86.5665ZM112.027 22.2727H119.928V20.2727H112.027V22.2727ZM119.104 20.7062L74.6044 85.4335L76.2524 86.5665L120.752 21.8393L119.104 20.7062ZM75.4284 85H67.5271V87H75.4284V85ZM213.938 71.5565L213.053 71.0913L213.052 71.0927L213.938 71.5565ZM203.318 82.9343L202.812 82.0718L202.811 82.0729L203.318 82.9343ZM172.883 82.9343L172.372 83.7939L172.377 83.7968L172.883 82.9343ZM162.263 71.5249L161.377 71.987L161.379 71.9915L162.263 71.5249ZM162.263 35.7479L161.378 35.2827L161.377 35.2841L162.263 35.7479ZM172.883 24.3384L172.377 23.476L172.375 23.477L172.883 24.3384ZM203.318 24.3384L202.811 25.1998L202.812 25.2009L203.318 24.3384ZM213.938 35.7479L213.051 36.2101L213.053 36.2145L213.938 35.7479ZM203.761 41.2156L202.848 41.6238L202.851 41.6306L203.761 41.2156ZM197.44 33.5355L196.896 34.3746L196.901 34.3775L197.44 33.5355ZM178.793 33.5355L179.332 34.3776L179.337 34.3746L178.793 33.5355ZM172.44 41.2156L171.53 40.8026L171.528 40.8052L172.44 41.2156ZM172.44 66.0888L171.527 66.497L171.531 66.5039L172.44 66.0888ZM178.793 73.7688L178.249 74.6079L178.253 74.6109L178.793 73.7688ZM197.44 73.7688L197.979 74.6109L197.984 74.6079L197.44 73.7688ZM203.761 66.0888L202.85 65.6758L202.849 65.6784L203.761 66.0888ZM216.857 53.6364C216.857 60.487 215.574 66.2928 213.053 71.0913L214.823 72.0216C217.527 66.875 218.857 60.7341 218.857 53.6364H216.857ZM213.052 71.0927C210.54 75.8911 207.127 79.5399 202.812 82.0718L203.825 83.7968C208.486 81.0612 212.152 77.1247 214.824 72.0202L213.052 71.0927ZM202.811 82.0729C198.512 84.6076 193.623 85.8849 188.116 85.8849V87.8849C193.946 87.8849 199.192 86.5285 203.826 83.7957L202.811 82.0729ZM188.116 85.8849C182.61 85.8849 177.71 84.6076 173.389 82.0718L172.377 83.7968C177.032 86.5285 182.287 87.8849 188.116 87.8849V85.8849ZM173.394 82.0747C169.097 79.5212 165.682 75.8599 163.148 71.0582L161.379 71.9915C164.071 77.0928 167.734 81.0377 172.372 83.7939L173.394 82.0747ZM163.15 71.0627C160.649 66.2631 159.376 60.4665 159.376 53.6364H157.376C157.376 60.7125 158.695 66.8416 161.377 71.987L163.15 71.0627ZM159.376 53.6364C159.376 46.7844 160.649 40.9888 163.149 36.2116L161.377 35.2841C158.695 40.4099 157.376 46.5399 157.376 53.6364H159.376ZM163.149 36.213C165.682 31.3908 169.097 27.7313 173.391 25.1998L172.375 23.477C167.735 26.2131 164.07 30.1598 161.378 35.2827L163.149 36.213ZM173.389 25.2009C177.71 22.6651 182.61 21.3878 188.116 21.3878V19.3878C182.287 19.3878 177.032 20.7442 172.377 23.476L173.389 25.2009ZM188.116 21.3878C193.623 21.3878 198.512 22.6651 202.811 25.1998L203.826 23.477C199.192 20.7442 193.946 19.3878 188.116 19.3878V21.3878ZM202.812 25.2009C207.126 27.7322 210.539 31.3906 213.051 36.21L214.825 35.2857C212.153 30.1601 208.487 26.2122 203.825 23.476L202.812 25.2009ZM213.053 36.2145C215.574 40.9911 216.857 46.7856 216.857 53.6364H218.857C218.857 46.5388 217.527 40.4076 214.822 35.2812L213.053 36.2145ZM207.068 53.6364C207.068 48.6281 206.284 44.337 204.671 40.8005L202.851 41.6306C204.314 44.8365 205.068 48.8259 205.068 53.6364H207.068ZM204.674 40.8073C203.09 37.2663 200.865 34.5424 197.979 32.6935L196.901 34.3775C199.408 35.9842 201.398 38.3802 202.848 41.6238L204.674 40.8073ZM197.984 32.6965C195.11 30.8327 191.809 29.9123 188.116 29.9123V31.9123C191.461 31.9123 194.376 32.7407 196.896 34.3746L197.984 32.6965ZM188.116 29.9123C184.424 29.9123 181.123 30.8327 178.249 32.6965L179.337 34.3746C181.857 32.7407 184.772 31.9123 188.116 31.9123V29.9123ZM178.253 32.6935C175.369 34.5415 173.134 37.2637 171.53 40.8026L173.351 41.6285C174.823 38.3828 176.823 35.985 179.332 34.3775L178.253 32.6935ZM171.528 40.8052C169.938 44.3404 169.165 48.6297 169.165 53.6364H171.165C171.165 48.8244 171.909 44.8332 173.352 41.6259L171.528 40.8052ZM169.165 53.6364C169.165 58.6434 169.938 62.9421 171.527 66.497L173.353 65.6805C171.909 62.4509 171.165 58.448 171.165 53.6364H169.165ZM171.531 66.5039C173.135 70.0213 175.369 72.7404 178.249 74.6079L179.337 72.9298C176.823 71.2997 174.821 68.8987 173.35 65.6737L171.531 66.5039ZM178.253 74.6109C181.127 76.4518 184.426 77.3604 188.116 77.3604V75.3604C184.769 75.3604 181.853 74.5413 179.332 72.9268L178.253 74.6109ZM188.116 77.3604C191.807 77.3604 195.106 76.4518 197.979 74.6109L196.901 72.9268C194.38 74.5413 191.463 75.3604 188.116 75.3604V77.3604ZM197.984 74.6079C200.865 72.7395 203.089 70.0187 204.673 66.4991L202.849 65.6784C201.399 68.9013 199.408 71.3005 196.896 72.9298L197.984 74.6079ZM204.672 66.5017C206.284 62.9454 207.068 58.6449 207.068 53.6364H205.068C205.068 58.4465 204.314 62.4476 202.85 65.6758L204.672 66.5017ZM228.942 86H227.942V87H228.942V86ZM228.942 21.2727V20.2727H227.942V21.2727H228.942ZM270.408 21.2727H271.408V20.2727H270.408V21.2727ZM270.408 31.1019V32.1019H271.408V31.1019H270.408ZM240.668 31.1019V30.1019H239.668V31.1019H240.668ZM240.668 48.6744H239.668V49.6744H240.668V48.6744ZM267.564 48.6744H268.564V47.6744H267.564V48.6744ZM267.564 58.5036V59.5036H268.564V58.5036H267.564ZM240.668 58.5036V57.5036H239.668V58.5036H240.668ZM240.668 86V87H241.668V86H240.668ZM229.942 86V21.2727H227.942V86H229.942ZM228.942 22.2727H270.408V20.2727H228.942V22.2727ZM269.408 21.2727V31.1019H271.408V21.2727H269.408ZM270.408 30.1019H240.668V32.1019H270.408V30.1019ZM239.668 31.1019V48.6744H241.668V31.1019H239.668ZM240.668 49.6744H267.564V47.6744H240.668V49.6744ZM266.564 48.6744V58.5036H268.564V48.6744H266.564ZM267.564 57.5036H240.668V59.5036H267.564V57.5036ZM239.668 58.5036V86H241.668V58.5036H239.668ZM240.668 85H228.942V87H240.668V85ZM281.091 86H280.091V87H281.091V86ZM281.091 21.2727V20.2727H280.091V21.2727H281.091ZM322.557 21.2727H323.557V20.2727H322.557V21.2727ZM322.557 31.1019V32.1019H323.557V31.1019H322.557ZM292.816 31.1019V30.1019H291.816V31.1019H292.816ZM292.816 48.6744H291.816V49.6744H292.816V48.6744ZM319.712 48.6744H320.712V47.6744H319.712V48.6744ZM319.712 58.5036V59.5036H320.712V58.5036H319.712ZM292.816 58.5036V57.5036H291.816V58.5036H292.816ZM292.816 86V87H293.816V86H292.816ZM282.091 86V21.2727H280.091V86H282.091ZM281.091 22.2727H322.557V20.2727H281.091V22.2727ZM321.557 21.2727V31.1019H323.557V21.2727H321.557ZM322.557 30.1019H292.816V32.1019H322.557V30.1019ZM291.816 31.1019V48.6744H293.816V31.1019H291.816ZM292.816 49.6744H319.712V47.6744H292.816V49.6744ZM318.712 48.6744V58.5036H320.712V48.6744H318.712ZM319.712 57.5036H292.816V59.5036H319.712V57.5036ZM291.816 58.5036V86H293.816V58.5036H291.816ZM292.816 85H281.091V87H292.816V85Z" fill="white" mask="url(#path-1-outside-1_273_3)"/>
</svg>
