<svg width="85" height="22" viewBox="0 0 85 22" fill="none" xmlns="http://www.w3.org/2000/svg">
<path d="M1.79331 8.49644H10.0547V10.8164L6.94778 11.0552C1.92901 11.4298 0.359375 12.7619 0.359375 16.4807V17.2317C0.359375 19.9626 2.27129 21.6004 5.20802 21.6004C7.52905 21.6004 8.86173 21.0538 10.5002 19.3816H10.7737V21.1549H14.085V4.88086H1.79331V8.49846V8.49644ZM10.0547 16.345C9.02984 17.3693 7.49462 18.0515 6.23081 18.0515C4.86574 18.0515 4.28447 17.5394 4.3189 16.4138C4.35333 14.845 4.93257 14.4684 7.56145 14.2295L10.0547 13.9907V16.345Z" fill="#FF8801"/>
<path d="M79.3922 11.4324L76.9337 11.1935C75.5686 11.0579 75.2263 10.7158 75.2263 9.62463C75.2263 8.39582 75.7043 8.08807 77.6162 8.08807C79.3238 8.08807 79.8016 8.36142 80.0406 9.52134H83.8645C83.761 5.63048 82.5662 4.64258 77.8207 4.64258C72.6318 4.64258 71.3336 5.63251 71.3336 9.62463C71.3336 13.2767 72.2896 14.2645 76.1478 14.641L78.163 14.8455C79.9713 15.0156 80.4173 15.3577 80.4173 16.4488C80.4173 17.7788 79.8701 18.121 77.6527 18.121C75.7064 18.121 75.1939 17.8133 75.0927 16.5521H71.2344C71.3377 20.5786 72.5651 21.6029 77.4826 21.6029C82.9445 21.6029 84.3097 20.5098 84.3097 16.0743C84.3097 12.7644 83.3196 11.8089 79.3946 11.4345L79.3922 11.4324Z" fill="#044ADB"/>
<path d="M58.9083 11.7401C58.9083 6.48477 57.0996 4.64258 51.9087 4.64258C46.7178 4.64258 44.7734 7.03136 44.7734 12.9689C44.7734 19.4531 46.5496 21.6029 52.2834 21.6029C56.4151 21.6029 58.1548 20.3397 58.7361 16.791H54.811C54.3675 17.8841 53.8894 18.121 52.2165 18.121C49.6909 18.121 49.0408 17.4044 48.9051 14.3678H58.6348C58.8049 13.4811 58.9083 12.4223 58.9083 11.7401ZM48.9395 11.1591C48.9739 8.87355 49.8955 8.01927 52.0808 8.01927C54.2661 8.01927 55.0176 8.87153 55.0844 11.1591H48.9395Z" fill="#044ADB"/>
<path d="M27.5365 4.88081H21.1527V0H17.0898V21.157H21.1527V8.53076H26.9552V21.157H31.018V8.19071H27.5365V4.88081Z" fill="#044ADB"/>
<path d="M61.1973 5.59535V21.1569H65.2602V8.3607H70.1412V4.88075H65.2602V4.4374C65.2946 3.48189 65.5336 3.20859 66.3174 3.20859H70.7549V0.00195312H65.9751C62.7326 0.00195312 61.1953 0.991885 61.1953 5.59738L61.1973 5.59535Z" fill="#044ADB"/>
<path d="M34.0234 21.157H38.0842V8.7009H44.1278V4.88086H34.0234V21.157Z" fill="#044ADB"/>
</svg>
