<svg width="54" height="22" viewBox="0 0 54 22" fill="none" xmlns="http://www.w3.org/2000/svg">
<path d="M0.0273976 0L4.34263 1.51806V16.7077L10.4208 13.1989L7.44081 11.8007L5.56076 7.1213L15.1377 10.4859V15.3774L4.34504 21.6024L0.0273438 19.2007L0.0273976 0Z" fill="#1C6DE3"/>
<path d="M21.6133 17.2834V4.3125H25.3038C26.4254 4.31255 27.3148 4.58693 27.9721 5.13568C28.6294 5.68443 28.958 6.39902 28.958 7.27941C28.958 8.01507 28.7591 8.65433 28.3611 9.19701C27.9631 9.73974 27.4143 10.1257 26.7148 10.3548V10.3909C27.5892 10.4934 28.2887 10.8236 28.8133 11.3814C29.3379 11.9392 29.6003 12.6643 29.6003 13.5568C29.6003 14.6663 29.2023 15.5648 28.4063 16.2523C27.6103 16.9397 26.6063 17.2834 25.3942 17.2834L21.6133 17.2834ZM23.1329 5.68744V9.8754H24.6887C25.5208 9.8754 26.1751 9.67485 26.6515 9.27384C27.1279 8.87287 27.3661 8.30754 27.3661 7.57785C27.3661 6.31756 26.5369 5.68744 24.8786 5.68744H23.1329ZM23.1329 11.2412V15.9086H25.1952C26.0877 15.9086 26.7796 15.6976 27.2711 15.2754C27.7626 14.8533 28.0083 14.2745 28.0083 13.5387C28.0083 12.0071 26.9651 11.2412 24.8786 11.2412H23.1329Z" fill="#717171"/>
<path d="M32.2947 5.95985C32.0294 5.95985 31.8033 5.86938 31.6163 5.68849C31.4294 5.5076 31.3359 5.27846 31.3359 5.00105C31.3359 4.72369 31.4294 4.49299 31.6163 4.30908C31.8033 4.12518 32.0294 4.0332 32.2947 4.0332C32.5661 4.0332 32.7967 4.12518 32.9867 4.30908C33.1766 4.49299 33.2716 4.72369 33.2716 5.00105C33.2716 5.26642 33.1766 5.49248 32.9867 5.67944C32.7967 5.86636 32.5661 5.95985 32.2947 5.95985ZM33.0183 17.2819H31.5349V8.09018H33.0183V17.2819Z" fill="#717171"/>
<path d="M43.098 17.2829H41.6146V12.0681C41.6146 10.1023 40.9523 9.11934 39.5171 9.11934C38.7754 9.11934 38.1618 9.39825 37.6764 9.95603C37.191 10.5139 36.9483 11.2179 36.9483 12.0681V17.2829H35.4648V8.09123H36.9483V9.59739H36.9844C37.6839 8.4275 38.6808 7.87109 39.9683 7.87109C40.9814 7.87109 41.7562 8.19826 42.2929 8.85251C42.8296 9.5068 43.098 10.4521 43.098 11.6883L43.098 17.2829Z" fill="#717171"/>
<path d="M53.4906 16.4952C53.4906 19.8962 51.8625 21.5967 48.6062 21.5967C47.4604 21.5967 46.516 21.3927 45.6597 20.9585L46.0488 19.6866C46.0488 19.6866 47.0544 20.3549 48.5881 20.3549C50.8675 20.3549 52.0072 19.1646 52.0072 16.7405V15.7376H51.971C51.2655 16.9196 50.2718 17.4953 48.8547 17.4953C47.703 17.4953 46.7758 17.1483 46.0733 16.3252C45.3708 15.5021 45.0195 14.397 45.0195 13.0101C45.0195 11.4362 45.3979 10.1849 46.1547 9.25625C46.9115 8.32761 47.9472 7.86328 49.2618 7.86328C50.51 7.86328 51.368 8.36377 51.971 9.3648H52.0072V8.08653H53.4906V16.4952ZM52.0072 13.0903V11.7982C52.0072 11.0625 51.7585 10.4324 51.261 9.90768C50.7635 9.38306 50.1869 9.12074 49.4452 9.12074C48.5286 9.12074 47.811 9.45391 47.2924 10.1202C46.7738 10.7866 46.5145 11.7198 46.5145 12.9198C46.5145 13.9509 46.7633 14.7018 47.2608 15.3199C47.7583 15.938 48.4171 16.2471 49.2372 16.2471C50.0693 16.2471 50.7032 15.9516 51.2248 15.3606C51.7464 14.7696 52.0072 14.0129 52.0072 13.0903Z" fill="#717171"/>
</svg>
