<svg width="100" height="41" viewBox="0 0 100 41" fill="none" xmlns="http://www.w3.org/2000/svg">
<path d="M0.938576 0.125L8.92886 2.93592V31.0617L20.1835 24.5646L14.6656 21.9756L11.1844 13.3111L28.9175 19.5411V28.5985L8.93332 40.125L0.938477 35.6778L0.938576 0.125Z" fill="#546881"/>
<path d="M40.9111 32.1289V8.11133H47.7446C49.8214 8.11141 51.4684 8.61947 52.6854 9.63556C53.9025 10.6516 54.511 11.9748 54.511 13.605C54.511 14.9672 54.1426 16.1509 53.4057 17.1557C52.6687 18.1607 51.6526 18.8752 50.3574 19.2995V19.3663C51.9764 19.5562 53.2716 20.1676 54.2431 21.2004C55.2145 22.2332 55.7002 23.5759 55.7002 25.2285C55.7002 27.2829 54.9632 28.9466 53.4894 30.2196C52.0155 31.4925 50.1564 32.1288 47.9121 32.1288L40.9111 32.1289ZM43.7249 10.6572V18.4119H46.6057C48.1465 18.4119 49.358 18.0405 50.2401 17.298C51.1222 16.5555 51.5633 15.5087 51.5633 14.1576C51.5633 11.824 50.028 10.6572 46.9574 10.6572H43.7249ZM43.7249 20.9409V29.5832H47.5436C49.1961 29.5832 50.4774 29.1924 51.3874 28.4108C52.2974 27.6293 52.7524 26.5573 52.7524 25.1951C52.7524 22.359 50.8208 20.9409 46.9574 20.9409H43.7249Z" fill="#546881"/>
<path d="M60.6894 11.1622C60.1981 11.1622 59.7794 10.9947 59.4333 10.6597C59.0871 10.3248 58.9141 9.90049 58.9141 9.38683C58.9141 8.87326 59.0871 8.44609 59.4333 8.10556C59.7794 7.76503 60.1981 7.59473 60.6894 7.59473C61.1918 7.59473 61.6189 7.76503 61.9707 8.10556C62.3224 8.44609 62.4983 8.87326 62.4983 9.38683C62.4983 9.8782 62.3224 10.2968 61.9707 10.643C61.6189 10.9891 61.1918 11.1622 60.6894 11.1622ZM62.0293 32.1266H59.2825V15.1068H62.0293V32.1266Z" fill="#546881"/>
<path d="M80.6915 32.1294H77.9447V22.4735C77.9447 18.8335 76.7185 17.0135 74.061 17.0135C72.6876 17.0135 71.5515 17.5299 70.6527 18.5627C69.7538 19.5956 69.3044 20.8992 69.3044 22.4735V32.1294H66.5576V15.1098H69.3044V17.8986H69.3714C70.6666 15.7324 72.5124 14.7021 74.8964 14.7021C76.7723 14.7021 78.2071 15.3079 79.2008 16.5194C80.1946 17.7309 80.6915 19.4812 80.6915 21.7702L80.6915 32.1294Z" fill="#546881"/>
<path d="M99.9404 30.6707C99.9404 36.9682 96.9256 40.117 90.8961 40.117C88.7746 40.117 87.0257 39.7392 85.4402 38.9353L86.1607 36.5802C86.1607 36.5802 88.0227 37.8176 90.8626 37.8176C95.0832 37.8176 97.1936 35.6135 97.1936 31.1249V29.268H97.1266C95.8202 31.4566 93.9803 32.5225 91.3563 32.5225C89.2236 32.5225 87.5069 31.8801 86.2061 30.356C84.9053 28.8318 84.2549 26.7857 84.2549 24.2176C84.2549 21.3034 84.9555 18.9863 86.3568 17.2668C87.7581 15.5473 89.6759 14.6875 92.11 14.6875C94.4213 14.6875 96.01 15.6142 97.1266 17.4678H97.1936V15.1009H99.9404V30.6707ZM97.1936 24.366V21.9736C97.1936 20.6113 96.733 19.4445 95.8118 18.473C94.8906 17.5016 93.8231 17.0159 92.4497 17.0159C90.7525 17.0159 89.4238 17.6328 88.4635 18.8666C87.5032 20.1004 87.0231 21.8284 87.0231 24.0503C87.0231 25.9597 87.4837 27.35 88.4049 28.4945C89.3261 29.639 90.5459 30.2113 92.0645 30.2113C93.6053 30.2113 94.779 29.6641 95.7448 28.5698C96.7107 27.4756 97.1936 26.0744 97.1936 24.366Z" fill="#546881"/>
</svg>
