<svg width="156" height="41" viewBox="0 0 156 41" fill="none" xmlns="http://www.w3.org/2000/svg">
<path d="M2.73131 15.8247H18.0284V20.1204L12.2756 20.5626C2.98258 21.2561 0.0761719 23.7227 0.0761719 30.6086V31.9992C0.0761719 37.056 3.61636 40.0885 9.05415 40.0885C13.3519 40.0885 15.8195 39.0764 18.8535 35.9802H19.3598V39.2637H25.4912V9.12988H2.73131V15.8284V15.8247ZM18.0284 30.3574C16.1308 32.2541 13.2881 33.5173 10.948 33.5173C8.42036 33.5173 7.34405 32.569 7.40781 30.4848C7.47157 27.5799 8.54412 26.8826 13.4119 26.4403L18.0284 25.998V30.3574Z" fill="#546881"/>
<path d="M146.42 21.2609L141.868 20.8184C139.34 20.5674 138.706 19.9338 138.706 17.9135C138.706 15.6381 139.591 15.0683 143.131 15.0683C146.293 15.0683 147.178 15.5744 147.62 17.7222H154.701C154.509 10.5177 152.297 8.68848 143.51 8.68848C133.902 8.68848 131.498 10.5215 131.498 17.9135C131.498 24.6757 133.268 26.5049 140.412 27.2021L144.144 27.5807C147.492 27.8956 148.318 28.5291 148.318 30.5495C148.318 33.0122 147.305 33.6457 143.199 33.6457C139.595 33.6457 138.646 33.076 138.459 30.7406H131.314C131.506 38.1964 133.778 40.0931 142.884 40.0931C152.997 40.0931 155.525 38.069 155.525 29.856C155.525 23.7273 153.692 21.958 146.424 21.2646L146.42 21.2609Z" fill="#546881"/>
<path d="M108.491 21.8306C108.491 12.0996 105.142 8.68848 95.5303 8.68848C85.9186 8.68848 82.3184 13.1117 82.3184 24.1059C82.3184 36.1123 85.6073 40.0931 96.2241 40.0931C103.875 40.0931 107.096 37.7541 108.172 31.183H100.904C100.083 33.2072 99.1979 33.6457 96.1003 33.6457C91.4238 33.6457 90.22 32.3188 89.9688 26.6961H107.985C108.3 25.0543 108.491 23.0938 108.491 21.8306ZM90.0325 20.7547C90.0962 16.5227 91.8026 14.9409 95.8491 14.9409C99.8955 14.9409 101.287 16.519 101.411 20.7547H90.0325Z" fill="#546881"/>
<path d="M50.3963 9.13031H38.5756V0.0927734H31.0527V39.268H38.5756V15.8887H49.3199V39.268H56.8428V15.2591H50.3963V9.13031Z" fill="#546881"/>
<path d="M112.725 10.4547V39.2691H120.248V15.5751H129.286V9.13146H120.248V8.31054C120.312 6.54127 120.755 6.03521 122.206 6.03521H130.423V0.0976562H121.572C115.568 0.0976562 112.722 1.93066 112.722 10.4584L112.725 10.4547Z" fill="#546881"/>
<path d="M62.4082 39.2675H69.9274V16.2033H81.1179V9.12988H62.4082V39.2675Z" fill="#546881"/>
</svg>
