<svg width="301" height="41" viewBox="0 0 301 41" fill="none" xmlns="http://www.w3.org/2000/svg">
<path d="M207.228 15.8131C207.228 10.89 204.151 7.35156 198.459 7.35156H179.689V32.89H185.843V24.1208H193.074L200.151 32.89H207.074V32.2746L200.151 23.9669C204.613 23.0439 207.228 19.8131 207.228 15.8131ZM197.689 18.89H185.843V12.5823H197.689C199.843 12.5823 201.228 13.8131 201.228 15.8131C201.382 17.8131 199.997 18.89 197.689 18.89Z" fill="#546881"/>
<path d="M300.154 7.20215H294.462V16.8945H278.923V7.20215H272.77V32.7406H278.923V22.7406H294.462V32.7406H300.154V7.20215Z" fill="#546881"/>
<path d="M163.231 7.20215L156.461 28.5868H156.154L149.231 7.20215H138.308V32.7406H144.154V11.8175H144.461L151.231 32.7406H160.615L167.538 11.8175H167.846V32.7406H173.846V7.20215H163.231Z" fill="#546881"/>
<path d="M96.3051 17.6599C94.1513 17.5061 90.1513 17.0445 87.8436 16.8907C85.6898 16.7369 84.459 15.9676 84.459 14.583C84.459 13.1984 85.8436 12.1215 91.0744 12.1215C95.6898 12.1215 99.9974 13.1984 103.844 14.8907V9.19839C100.151 7.35224 95.9974 6.58301 90.7667 6.58301C83.5359 6.58301 78.459 9.65993 78.459 14.7369C78.459 19.0445 81.3821 21.5061 87.3821 22.1215C89.5359 22.4292 93.2282 22.7369 95.6898 22.8907C98.459 23.0445 99.2282 23.9676 99.2282 25.1984C99.2282 26.8907 97.2282 27.9676 92.459 27.9676C87.5359 27.9676 82.459 26.2753 78.7667 24.1215V29.9676C81.6898 31.9676 86.6128 33.5061 92.3051 33.5061C100.151 33.5061 105.228 30.4292 105.228 25.0445C105.228 20.8907 102.613 18.2753 96.3051 17.6599Z" fill="#546881"/>
<path d="M109.385 7.20215V32.7406H133.077V27.5098H115.231V22.2791H132.769V17.0483H115.231V12.4329H133.077V7.20215H109.385Z" fill="#546881"/>
<path d="M259.998 17.6599C257.844 17.5061 253.844 17.0445 251.536 16.8907C249.382 16.7369 248.151 15.9676 248.151 14.583C248.151 13.1984 249.536 12.1215 254.767 12.1215C259.382 12.1215 263.69 13.0445 267.536 14.8907V9.19839C263.844 7.35224 259.69 6.58301 254.459 6.58301C247.228 6.58301 242.151 9.65993 242.151 14.7369C242.151 19.0445 245.074 21.5061 251.074 22.1215C253.228 22.4292 256.921 22.7369 259.382 22.8907C262.151 23.0445 262.921 23.9676 262.921 25.1984C262.921 26.8907 260.921 27.9676 256.151 27.9676C251.228 27.9676 246.151 26.2753 242.459 24.1215V29.9676C245.382 31.9676 250.305 33.5061 255.998 33.5061C263.844 33.5061 268.921 30.4292 268.921 25.0445C268.921 20.8907 266.151 18.2753 259.998 17.6599Z" fill="#546881"/>
<path d="M231.846 7.20215V20.2791C231.846 25.2021 228.769 27.9714 224.308 27.9714C219.692 27.9714 216.769 25.356 216.769 20.2791V7.20215H210.615V19.6637C210.615 28.8945 216.461 33.5098 224.308 33.5098C232 33.5098 237.846 29.0483 237.846 19.9714V7.20215H231.846Z" fill="#546881"/>
<path d="M57.5385 19.8173C57.5385 21.0481 56.9231 21.2019 55.3846 21.2019C53.6923 21.2019 53.3846 20.8942 53.2308 19.6635C52.9231 16.4327 50.7692 13.6635 47.0769 13.5096C46 13.3558 45.6923 13.0481 45.6923 11.5096C45.6923 10.125 45.8461 9.50961 46.9231 9.50961C53.0769 9.66346 57.5385 14.7404 57.5385 19.8173ZM66.6154 19.8173C66.6154 10.2788 60.1538 0.125 45.0769 0.125H15.3846C14.7692 0.125 14.3077 0.432692 14.3077 1.04808C14.3077 1.35577 14.4615 1.66346 14.7692 1.81731C15.8462 2.74038 17.3846 3.66346 19.5385 4.74038C21.5385 5.81731 23.2308 6.43269 24.7692 7.04808C25.3846 7.35577 25.6923 7.66346 25.6923 7.97115C25.6923 8.43269 25.3846 8.89423 24.6154 8.89423H1.07692C0.307692 8.74038 0 9.20192 0 9.66346C0 10.125 0.153846 10.4327 0.461538 10.7404C2.30769 12.7404 5.38461 15.2019 9.84615 17.9712C13.6923 20.4327 18.6154 23.0481 22.4615 24.8942C23.0769 25.2019 23.3846 25.5096 23.3846 25.9712C23.3846 26.4327 23.0769 26.7404 22.3077 26.7404H11.3846C10.7692 26.7404 10.4615 27.0481 10.4615 27.5096C10.4615 27.8173 10.6154 28.125 10.9231 28.4327C13.3846 30.7404 17.3846 33.0481 22.6154 35.3558C29.6923 38.2788 36.7692 40.125 44.7692 40.125C60 40.125 66.6154 28.7404 66.6154 19.8173ZM46.7692 33.5096C39.3846 33.5096 33.0769 27.5096 33.0769 19.8173C33.0769 12.4327 39.2308 6.43269 46.7692 6.43269C54.4615 6.43269 60.4615 12.4327 60.4615 19.8173C60.4615 27.3558 54.4615 33.5096 46.7692 33.5096Z" fill="#546881"/>
</svg>
