<svg width="145" height="40" viewBox="0 0 145 40" fill="none" xmlns="http://www.w3.org/2000/svg">
<path d="M0.443359 9.74545H9.02518L14.007 22.5091L19.0615 9.74545H27.4252L14.8434 40H6.44336L9.89791 32L0.443359 9.74545ZM36.1161 9.23636C29.6797 9.23636 25.607 15.0182 25.607 20.7636C25.607 27.2364 30.0797 32.3636 36.007 32.3636C40.4434 32.3636 42.1161 29.6727 42.1161 29.6727V31.7818H49.607V9.74545H42.1161V11.7455C42.0797 11.7455 40.2252 9.23636 36.1161 9.23636ZM37.7161 16.3273C40.6979 16.3273 42.2252 18.6909 42.2252 20.8C42.2252 23.0909 40.5888 25.3455 37.7161 25.3455C35.3525 25.3455 33.207 23.4182 33.207 20.9091C33.207 18.3636 34.9161 16.3273 37.7161 16.3273ZM52.1525 31.7818V0H59.9706V11.8182C59.9706 11.8182 61.8252 9.23636 65.7161 9.23636C70.4797 9.23636 73.2797 12.8 73.2797 17.8545V31.7818H65.4979V19.7455C65.4979 18.0364 64.6979 16.3636 62.8434 16.3636C60.9524 16.3636 59.9706 18.0364 59.9706 19.7455V31.7818H52.1525ZM86.6252 9.23636C79.2434 9.23636 74.8434 14.8364 74.8434 20.8727C74.8434 27.7091 80.1525 32.4 86.6615 32.4C92.9525 32.4 98.4434 27.9273 98.4434 20.9818C98.4434 13.3818 92.6616 9.23636 86.6252 9.23636ZM86.6979 16.3636C89.3161 16.3636 91.0979 18.5455 91.0979 20.8364C91.0979 22.8 89.4252 25.2364 86.6979 25.2364C84.1888 25.2364 82.3343 23.2364 82.3343 20.8C82.3343 18.5091 83.8615 16.3636 86.6979 16.3636ZM111.462 9.23636C104.08 9.23636 99.6797 14.8364 99.6797 20.8727C99.6797 27.7091 104.989 32.4 111.498 32.4C117.789 32.4 123.28 27.9273 123.28 20.9818C123.28 13.3818 117.534 9.23636 111.462 9.23636ZM111.534 16.3636C114.152 16.3636 115.934 18.5455 115.934 20.8364C115.934 22.8 114.262 25.2364 111.534 25.2364C109.025 25.2364 107.171 23.2364 107.171 20.8C107.171 18.5091 108.734 16.3636 111.534 16.3636ZM129.462 21.8545C132.334 21.8545 134.662 24.1818 134.662 27.0545C134.662 29.9273 132.334 32.2545 129.462 32.2545C126.589 32.2545 124.262 29.9273 124.262 27.0545C124.262 24.1818 126.589 21.8545 129.462 21.8545ZM136.371 19.9636H127.025L135.316 0H144.625L136.371 19.9636Z" fill="#546881"/>
</svg>
