<svg width="51" height="41" viewBox="0 0 51 41" fill="none" xmlns="http://www.w3.org/2000/svg">
<path d="M32.1129 14.3933L39.2262 24.3413H49.432L32.1129 0.125L14.7939 24.3413H24.998L32.1129 14.3933Z" fill="#546881"/>
<path d="M17.4725 0.125L0.154297 24.3415H10.2795L22.5354 7.2027L17.4725 0.125Z" fill="#546881"/>
<path d="M10.7038 27.9677C10.5744 27.6013 10.2145 27.3405 9.79074 27.3405C9.6183 27.3405 9.45666 27.3844 9.31872 27.4564C9.18448 27.5192 9.07107 27.6191 8.99195 27.7444L5.56443 31.9543L2.13562 27.7444C2.0494 27.6077 1.93517 27.5133 1.80498 27.4534C1.66093 27.3786 1.50088 27.3398 1.33855 27.3405C0.936356 27.3405 0.591928 27.5776 0.449241 27.9151C0.398411 28.014 0.371948 28.1237 0.372071 28.235V36.7716L2.37272 36.7768V31.3922L4.78202 34.4097C4.93506 34.6141 5.2575 34.765 5.56443 34.765C5.87093 34.765 6.19425 34.6141 6.34728 34.4102L8.75745 31.3922V36.7764L10.7546 36.7716V28.235C10.7546 28.1393 10.737 28.0505 10.7038 27.9677ZM17.8489 38.258C19.0732 37.9778 19.418 37.2463 19.418 35.9892V30.1696H21.4765V35.9616C21.4765 38.0653 20.2755 39.9457 17.8485 40.125L17.8489 38.258ZM20.4289 27.5974C21.0945 27.5974 21.6148 28.0625 21.6148 28.6794C21.6148 29.298 21.0945 29.7545 20.4294 29.7545C19.7638 29.7545 19.2413 29.2976 19.2413 28.6794C19.2413 28.0625 19.7638 27.5974 20.4289 27.5974ZM40.1426 30.1696H42.1989V36.7897H40.1426V30.1696ZM41.1686 27.5978C41.8333 27.5978 42.3562 28.0625 42.3562 28.6794C42.3562 29.2976 41.8333 29.7541 41.1686 29.7541C40.5035 29.7541 39.9818 29.2976 39.9818 28.6794C39.9818 28.0625 40.5035 27.5978 41.1686 27.5978ZM39.4969 31.9155V30.2059H38.2519V28.4255H36.1155V30.2059H35.3443V31.9155H36.1159V34.1929C36.1159 37.1312 39.1585 36.7294 39.4452 36.7294V34.7175C39.287 34.7305 39.321 34.7451 39.1611 34.7451C38.6033 34.7283 38.2377 34.3184 38.2377 33.5997V31.9155H39.4969ZM34.705 31.1435C34.3481 30.4632 33.6855 29.8054 32.3914 29.8054C31.096 29.8054 30.0455 30.7598 30.0455 31.9341C30.0455 33.1096 31.1189 34.0058 32.4522 34.0912C32.7341 34.1076 33.0268 34.324 33.0268 34.5817C33.0268 34.8425 32.7104 35.0533 32.4233 35.0533C31.9793 35.0533 31.6008 34.8615 31.4396 34.5817L29.6816 35.4594C30.0347 36.2345 31.0507 36.9066 32.4724 36.9066C34.5503 36.9066 35.2973 35.4887 35.2973 34.4904C35.2973 33.1993 33.9566 32.3186 32.494 32.2444C32.2112 32.2306 31.9978 32.0936 31.9978 31.8375C31.9978 31.5788 32.2289 31.3668 32.5125 31.3668C32.7966 31.3668 33.1514 31.6392 33.2755 31.9703L34.705 31.1435Z" fill="#546881"/>
<path d="M15.1559 29.7595C14.2075 29.7595 13.2501 30.0039 12.491 30.4911L13.3398 31.8145C13.7976 31.5489 14.3985 31.345 14.9779 31.345C15.7426 31.345 16.3897 31.6787 16.3897 32.4279C14.552 32.4279 11.5508 32.4701 11.5508 34.8424C11.5508 36.2236 12.7578 36.959 14.0963 36.959C14.9925 36.959 15.9413 36.7146 16.3612 36.3106H16.3897V36.7891H18.42V33.303C18.42 31.0157 17.7277 29.7595 15.1559 29.7595ZM16.3897 34.2359C16.3897 35.079 15.5827 35.5205 14.7136 35.5205C14.2278 35.5205 13.67 35.2795 13.67 34.7721C13.67 33.8393 15.1693 33.7824 15.8465 33.7824H16.3897V34.2359ZM48.0314 33.9475C47.7581 34.551 47.1356 34.9734 46.4057 34.9734C45.4272 34.9734 44.6336 34.2121 44.6336 33.2715C44.6336 32.3339 45.4276 31.5688 46.4053 31.5688C47.1356 31.5688 47.7581 31.9912 48.0314 32.5956H50.0126C49.6841 30.9687 48.1964 29.7414 46.4057 29.7414C44.3749 29.7414 42.7299 31.323 42.7299 33.2715C42.7299 35.223 44.3749 36.8034 46.4057 36.8034C48.1964 36.8034 49.6841 35.5774 50.0126 33.9475H48.0314ZM27.0429 34.4656C26.706 34.7909 26.2555 34.9718 25.7872 34.97C25.0475 34.97 24.4168 34.5372 24.1504 33.9173H25.7355V33.9138H29.4005C29.441 33.7043 29.4656 33.4897 29.4656 33.2681C29.4656 31.3179 27.8197 29.7375 25.7872 29.7375C23.7568 29.7375 22.1101 31.3179 22.1101 33.2681C22.1101 35.2187 23.7568 36.7999 25.7872 36.7999C27.3813 36.7999 28.7336 35.8239 29.244 34.4656H27.0429ZM25.7872 31.5666C26.0843 31.5647 26.3771 31.637 26.6391 31.7771C26.901 31.9171 27.1239 32.1204 27.2874 32.3684H24.2866C24.4505 32.1207 24.6735 31.9177 24.9355 31.7777C25.1975 31.6377 25.4902 31.5652 25.7872 31.5666Z" fill="#546881"/>
</svg>
