<svg width="69" height="68" viewBox="0 0 69 68" fill="none" xmlns="http://www.w3.org/2000/svg">
<rect width="69" height="68" rx="15" fill="#FAF9F6"/>
<path fill-rule="evenodd" clip-rule="evenodd" d="M34.695 16.139C34.2367 16.0805 33.447 16.022 32.94 16.0025C32.433 15.9927 31.5555 16.0122 30.99 16.0512C30.4245 16.0902 29.6152 16.1975 29.1862 16.2852C28.7572 16.373 28.0357 16.5387 27.5775 16.6655C27.1192 16.7922 26.31 17.0847 25.7737 17.2992C25.2375 17.5235 24.516 17.8647 24.165 18.0597C23.814 18.245 23.1997 18.6252 22.8 18.8885C22.4002 19.1517 21.786 19.6002 21.435 19.883C21.084 20.1657 20.3625 20.858 19.8262 21.4137C19.29 21.9695 18.5588 22.8372 18.198 23.3442C17.8373 23.8512 17.2327 24.8847 16.8622 25.6355C16.4917 26.3862 16.0725 27.3515 15.9262 27.7805C15.7897 28.2095 15.5947 28.892 15.4875 29.2917C15.3802 29.6915 15.234 30.5397 15.1462 31.1637C15.0682 31.7975 15 32.7822 15 33.3575C15 33.9425 15.0487 34.8102 15.0975 35.288C15.156 35.7657 15.2925 36.5847 15.3997 37.0917C15.507 37.5987 15.7507 38.4762 15.936 39.0417C16.131 39.6072 16.5307 40.5432 16.8232 41.138C17.1157 41.7327 17.6325 42.6297 17.9737 43.1367C18.3247 43.6437 18.939 44.453 19.3582 44.9307C19.7775 45.4085 20.2162 45.8375 20.343 45.8765C20.46 45.9252 20.616 45.9642 20.6745 45.9642C20.7427 45.9642 21.5325 45.2232 22.4392 44.3262C23.814 42.9515 24.0675 42.6492 24.0675 42.4055C24.0772 42.2495 23.9993 42.035 23.9017 41.9472C23.8042 41.8497 23.5995 41.7717 23.4338 41.7717C23.19 41.762 22.9462 41.957 21.903 42.9905C21.2108 43.6632 20.6355 44.2092 20.6062 44.2092C20.577 44.2092 20.4113 44.0532 20.2455 43.8582C20.07 43.6632 19.6508 43.127 19.3193 42.659C18.9878 42.2007 18.471 41.3622 18.1785 40.7967C17.886 40.2312 17.4862 39.3147 17.2912 38.7492C17.0962 38.1837 16.872 37.4427 16.794 37.0917C16.716 36.7407 16.5795 35.9997 16.5112 35.4342C16.4332 34.8687 16.365 34.3325 16.365 34.235C16.365 34.079 16.5112 34.0692 18.1687 34.0692C19.914 34.0692 19.9822 34.0595 20.1675 33.845C20.2747 33.728 20.3625 33.533 20.3625 33.4062C20.3625 33.2892 20.2552 33.0845 20.1187 32.948C19.875 32.7042 19.8652 32.7042 18.12 32.7042H16.365C16.4527 31.7585 16.5405 31.115 16.6185 30.6567C16.6867 30.1985 16.8622 29.4282 16.9987 28.9505C17.145 28.4727 17.4082 27.7025 17.6032 27.2442C17.7885 26.786 18.1005 26.1327 18.2857 25.7817C18.4807 25.4307 18.8415 24.836 19.095 24.4655C19.3485 24.095 19.7873 23.5002 20.0798 23.1687L20.6062 22.5447C22.6245 24.5727 23.2192 25.0992 23.3362 25.0992C23.4435 25.0992 23.6482 25.0212 23.7945 24.9042C23.9992 24.758 24.0675 24.6312 24.0675 24.3972C24.0577 24.1145 23.892 23.9097 22.8195 22.8275L21.5812 21.5697C22.332 20.9067 22.995 20.4192 23.5312 20.0585C24.0675 19.6977 24.945 19.2005 25.4812 18.947C26.0175 18.6837 26.856 18.3425 27.3337 18.1865C27.8115 18.0207 28.6305 17.8062 29.1375 17.699C29.6445 17.5917 30.444 17.465 30.9217 17.426L31.77 17.348C31.7603 20.7605 31.7798 20.975 31.9358 21.1212C32.0333 21.209 32.1795 21.2967 32.2575 21.3065C32.3355 21.326 32.511 21.3065 32.6475 21.2772C32.784 21.2382 32.9498 21.1017 33.0083 20.9652C33.096 20.7897 33.135 20.1852 33.135 19.0542V17.3967C33.7005 17.3967 34.305 17.465 34.8412 17.543C35.3775 17.621 36.2355 17.8062 36.7425 17.9525C37.2495 18.089 38.0392 18.362 38.4975 18.5375C38.9557 18.7227 39.7455 19.103 40.2525 19.3955C40.7595 19.6782 41.4907 20.1462 41.871 20.4387C42.2512 20.7215 42.729 21.092 42.9435 21.2675L43.3237 21.5795C41.6565 23.2175 41.0813 23.822 40.9545 23.978C40.8375 24.1437 40.7302 24.3485 40.74 24.4362C40.74 24.5337 40.8472 24.719 40.9837 24.8555C41.1202 24.992 41.325 25.0992 41.442 25.0992C41.598 25.0992 42.0758 24.68 42.9533 23.8025C43.743 23.0225 44.2792 22.5545 44.328 22.613C44.3431 22.6311 44.3758 22.6706 44.4211 22.7252C44.5223 22.8472 44.6861 23.0446 44.8545 23.2467C45.0982 23.5392 45.5175 24.1145 45.7905 24.5142C46.0537 24.914 46.5022 25.7037 46.785 26.2692C47.0677 26.8347 47.448 27.7512 47.643 28.3167C47.8282 28.8822 48.0817 29.8475 48.2085 30.4617C48.3353 31.0955 48.501 31.6512 48.5887 31.7292C48.6765 31.8072 48.8812 31.8657 49.0567 31.8657C49.2615 31.856 49.4272 31.7682 49.554 31.622C49.6905 31.4367 49.7197 31.2905 49.6612 30.9005C49.632 30.6372 49.5345 30.0815 49.4467 29.6817C49.3687 29.282 49.1542 28.4922 48.969 27.9267C48.7837 27.3612 48.3937 26.4252 48.111 25.8305C47.8185 25.2357 47.3212 24.3582 47.0092 23.8805C46.6875 23.4027 46.083 22.5837 45.654 22.0865C45.2347 21.5795 44.484 20.819 44.0062 20.39C43.5285 19.9707 42.6705 19.3175 42.105 18.9372C41.5395 18.557 40.7107 18.0597 40.2525 17.8355C39.7942 17.6112 38.985 17.2602 38.4487 17.0555C37.9125 16.8605 37.035 16.5875 36.4987 16.4607C35.9625 16.334 35.1532 16.1877 34.695 16.139ZM42.9825 30.2667C42.846 30.1302 42.6705 30.0717 42.4267 30.0815C42.222 30.0912 40.4572 30.53 38.4975 31.0565C35.9625 31.739 34.929 31.9827 34.8997 31.895C34.8802 31.8365 34.6658 31.583 34.4123 31.3392C34.1392 31.0565 33.7785 30.8322 33.4762 30.725C33.2032 30.6275 32.706 30.5592 32.355 30.5592C31.8967 30.5592 31.5847 30.6275 31.2337 30.7932C30.9705 30.92 30.5902 31.1735 30.405 31.349C30.2197 31.5342 29.9662 31.8852 29.8492 32.1192C29.7225 32.363 29.5957 32.7725 29.5567 33.026C29.4788 33.4647 29.4592 33.494 29.0887 33.5915C29.02 33.6102 28.9313 33.634 28.8334 33.6602C28.6258 33.7157 28.3773 33.7822 28.1917 33.8352C27.87 33.9132 27.6165 34.0595 27.5287 34.1862C27.4507 34.313 27.3825 34.4787 27.3825 34.5567C27.3727 34.6347 27.4605 34.82 27.5775 34.9662C27.6847 35.1222 27.87 35.2392 27.9967 35.2392C28.1137 35.2392 28.572 35.1417 29.0107 35.0247L29.8102 34.8005C30.5415 35.5902 30.9607 35.912 31.2337 36.0387C31.614 36.2142 31.887 36.263 32.4525 36.2532C32.901 36.2435 33.33 36.185 33.5542 36.0777C33.7492 35.99 34.1003 35.756 34.3148 35.5512C34.539 35.3562 34.8218 35.015 34.9485 34.8005C35.0753 34.586 35.2118 34.1667 35.2507 33.8742L35.3287 33.3477C42.105 31.5245 42.8655 31.2905 43.0117 31.115C43.1092 30.998 43.1872 30.803 43.1775 30.6762C43.1775 30.5592 43.0897 30.374 42.9825 30.2667ZM53.7562 34.0205C53.6197 33.884 53.4345 33.7767 53.3467 33.7865C53.2492 33.7865 53.0347 33.8352 52.8787 33.884C52.7227 33.9327 50.8507 34.4397 48.735 35.0052C46.6192 35.5805 44.0062 36.2825 42.9337 36.5652C41.8222 36.8675 40.9058 37.1697 40.8083 37.2672C40.7108 37.355 40.6327 37.5695 40.6425 37.7255C40.6425 37.9692 40.8375 38.213 41.7637 39.1392C42.378 39.7535 42.885 40.2995 42.885 40.358C42.885 40.4165 42.0757 41.2647 41.0812 42.2592L39.2775 44.063C34.2855 39.0515 34.149 38.9247 33.8662 38.993C33.6517 39.032 32.1405 40.4847 27.8993 44.726C24.3795 48.2457 22.1955 50.4882 22.1662 50.6442C22.1272 50.8002 22.176 50.9757 22.293 51.1317C22.41 51.2877 22.5953 51.3852 22.8098 51.4047C23.1315 51.434 23.3362 51.239 28.5232 46.0422C31.4872 43.0782 33.9345 40.67 33.954 40.6992C33.9832 40.7285 35.1143 41.8595 36.4695 43.205C38.7607 45.4962 38.9557 45.6717 39.2775 45.662C39.5895 45.662 39.804 45.4767 41.988 43.3025C43.2945 42.0057 44.4255 40.826 44.5035 40.67C44.5815 40.5237 44.6107 40.3092 44.5815 40.1825C44.5425 40.0655 44.094 39.539 43.5772 39.0222C42.924 38.3592 42.69 38.057 42.7875 38.018C42.8318 38.0069 43.5166 37.8231 44.5462 37.5469C45.3309 37.3363 46.3158 37.072 47.37 36.7895C49.8075 36.1362 51.9232 35.5805 52.0792 35.561L52.3425 35.5317C52.0597 36.5555 51.4845 38.6907 50.88 40.943C50.2755 43.1952 49.7685 45.0575 49.749 45.0867C49.7295 45.116 49.281 44.7065 48.7545 44.1897C47.9258 43.361 47.7697 43.244 47.4675 43.2342C47.1555 43.2342 46.8825 43.478 43.2067 47.1537L39.2775 51.083C34.5877 46.403 34.2172 46.0617 33.9637 46.0617C33.7005 46.0617 33.3885 46.3445 31.5555 48.1775C30.405 49.3475 29.43 50.381 29.391 50.4687C29.3617 50.5662 29.3715 50.7515 29.43 50.888C29.4885 51.0245 29.625 51.1805 29.7517 51.239C29.9078 51.3267 30.0442 51.3267 30.2587 51.239C30.4147 51.1805 31.3215 50.3615 32.2575 49.4255L33.9637 47.7192C38.7315 52.4967 38.9655 52.7015 39.2775 52.7015C39.5992 52.7112 39.8333 52.4967 43.5382 48.782L47.4675 44.843C49.359 46.7247 49.9342 47.2317 50.0513 47.2317C50.1585 47.2415 50.3437 47.1635 50.4705 47.066C50.6655 46.9197 50.9385 45.9935 52.3522 40.748C53.259 37.3745 54 34.5275 54 34.43C54 34.3422 53.8927 34.157 53.7562 34.0205ZM31.0776 32.7531C31.1848 32.5386 31.4091 32.2656 31.5943 32.1486C31.8186 31.9926 32.0623 31.9243 32.4036 31.9243C32.7253 31.9243 32.9983 31.9926 33.2128 32.1194C33.3786 32.2266 33.6126 32.4606 33.7296 32.6264C33.8758 32.8799 33.9148 33.0749 33.8953 33.5039C33.8661 33.9816 33.8173 34.0986 33.5248 34.4106C33.3396 34.5958 33.0276 34.8006 32.8423 34.8591C32.6571 34.9176 32.3451 34.9371 32.1598 34.8981C31.9746 34.8591 31.6821 34.7323 31.5261 34.6154C31.3701 34.4984 31.1556 34.2351 31.0678 34.0401C30.9703 33.8451 30.8923 33.5624 30.8923 33.4064C30.8923 33.2601 30.9801 32.9676 31.0776 32.7531Z" fill="#595959"/>
<path d="M32.94 16.0025L32.9515 15.7027L32.9458 15.7025L32.94 16.0025ZM34.695 16.139L34.657 16.4366L34.6633 16.4373L34.695 16.139ZM30.99 16.0512L31.0106 16.3505L30.99 16.0512ZM29.1862 16.2852L29.2464 16.5791L29.2464 16.5791L29.1862 16.2852ZM25.7737 17.2992L25.6623 17.0207L25.658 17.0225L25.7737 17.2992ZM24.165 18.0597L24.3051 18.3251L24.3107 18.322L24.165 18.0597ZM22.8 18.8885L22.635 18.6379L22.635 18.6379L22.8 18.8885ZM21.435 19.883L21.6232 20.1166L21.6232 20.1166L21.435 19.883ZM19.8262 21.4137L19.6104 21.2054L19.6104 21.2054L19.8262 21.4137ZM16.8622 25.6355L17.1313 25.7682L17.1313 25.7682L16.8622 25.6355ZM15.9262 27.7805L15.6422 27.6837L15.6404 27.6895L15.9262 27.7805ZM15.4875 29.2917L15.7773 29.3695L15.7773 29.3695L15.4875 29.2917ZM15.1462 31.1637L14.8491 31.122L14.8485 31.1271L15.1462 31.1637ZM15.0975 35.288L14.799 35.3184L14.7997 35.3244L15.0975 35.288ZM15.936 39.0417L15.6509 39.1351L15.6524 39.1395L15.936 39.0417ZM16.8232 41.138L16.554 41.2704L16.554 41.2704L16.8232 41.138ZM17.9737 43.1367L17.7249 43.3043L17.7271 43.3075L17.9737 43.1367ZM20.343 45.8765L20.4584 45.5996L20.445 45.594L20.4312 45.5898L20.343 45.8765ZM22.4392 44.3262L22.6502 44.5395L22.6514 44.5384L22.4392 44.3262ZM24.0675 42.4055L23.7681 42.3868L23.7675 42.3961V42.4055H24.0675ZM23.9017 41.9472L23.6896 42.1594L23.6952 42.1649L23.7011 42.1702L23.9017 41.9472ZM23.4338 41.7717L23.4217 42.0717H23.4338V41.7717ZM21.903 42.9905L22.1121 43.2056L22.1141 43.2036L21.903 42.9905ZM20.2455 43.8582L20.4742 43.6639L20.4685 43.6575L20.2455 43.8582ZM19.3193 42.659L19.5641 42.4856L19.5623 42.4831L19.3193 42.659ZM17.2912 38.7492L17.5749 38.6514L17.5749 38.6514L17.2912 38.7492ZM16.794 37.0917L16.5011 37.1568L16.5011 37.1568L16.794 37.0917ZM16.5112 35.4342L16.8091 35.3983L16.8084 35.3932L16.5112 35.4342ZM20.1675 33.845L19.9463 33.6422L19.9405 33.6489L20.1675 33.845ZM20.1187 32.948L19.9066 33.1601L19.9066 33.1601L20.1187 32.948ZM16.365 32.7042L16.0663 32.6765L16.0359 33.0042H16.365V32.7042ZM16.6185 30.6567L16.9143 30.7071L16.9152 30.7009L16.6185 30.6567ZM16.9987 28.9505L16.7118 28.8627L16.7103 28.8681L16.9987 28.9505ZM17.6032 27.2442L17.8793 27.3617L17.8814 27.3567L17.6032 27.2442ZM18.2857 25.7817L18.0234 25.636L18.0204 25.6417L18.2857 25.7817ZM19.095 24.4655L19.3426 24.6349L19.3426 24.6349L19.095 24.4655ZM20.0798 23.1687L20.3048 23.3673L20.309 23.3622L20.0798 23.1687ZM20.6062 22.5447L20.8189 22.3331L20.588 22.1011L20.377 22.3513L20.6062 22.5447ZM23.7945 24.9042L23.6201 24.6601L23.6135 24.6649L23.6071 24.67L23.7945 24.9042ZM24.0675 24.3972H24.3677L24.3673 24.3869L24.0675 24.3972ZM22.8195 22.8275L22.6057 23.038L22.6064 23.0387L22.8195 22.8275ZM21.5812 21.5697L21.3827 21.3449L21.1453 21.5545L21.3675 21.7802L21.5812 21.5697ZM23.5312 20.0585L23.6987 20.3074L23.6987 20.3074L23.5312 20.0585ZM25.4812 18.947L25.6095 19.2182L25.6135 19.2163L25.4812 18.947ZM27.3337 18.1865L27.4269 18.4717L27.4321 18.4699L27.3337 18.1865ZM29.1375 17.699L29.1996 17.9925L29.1996 17.9925L29.1375 17.699ZM30.9217 17.426L30.9462 17.725L30.9492 17.7247L30.9217 17.426ZM31.77 17.348L32.07 17.3488L32.0709 17.019L31.7425 17.0492L31.77 17.348ZM31.9358 21.1212L31.7305 21.3401L31.7351 21.3442L31.9358 21.1212ZM32.2575 21.3065L32.3303 21.0154L32.3127 21.011L32.2947 21.0088L32.2575 21.3065ZM32.6475 21.2772L32.7104 21.5706L32.7202 21.5685L32.7299 21.5657L32.6475 21.2772ZM33.0083 20.9652L32.7399 20.8311L32.736 20.839L32.7325 20.8471L33.0083 20.9652ZM33.135 17.3967V17.0967H32.835V17.3967H33.135ZM34.8412 17.543L34.8844 17.2461L34.8844 17.2461L34.8412 17.543ZM36.7425 17.9525L36.6593 18.2408L36.6645 18.2422L36.7425 17.9525ZM38.4975 18.5375L38.61 18.2593L38.6048 18.2573L38.4975 18.5375ZM40.2525 19.3955L40.1026 19.6554L40.1064 19.6575L40.2525 19.3955ZM41.871 20.4387L41.6881 20.6766L41.692 20.6795L41.871 20.4387ZM42.9435 21.2675L43.1338 21.0356L43.1335 21.0353L42.9435 21.2675ZM43.3237 21.5795L43.534 21.7935L43.7722 21.5594L43.514 21.3476L43.3237 21.5795ZM40.9545 23.978L40.7217 23.7888L40.7153 23.7967L40.7094 23.805L40.9545 23.978ZM40.74 24.4362H41.04V24.4196L41.0382 24.4031L40.74 24.4362ZM40.9837 24.8555L41.1959 24.6434L41.1959 24.6434L40.9837 24.8555ZM42.9533 23.8025L42.7424 23.589L42.7411 23.5904L42.9533 23.8025ZM44.328 22.613L44.0975 22.805L44.0975 22.805L44.328 22.613ZM44.4211 22.7252L44.1902 22.9167L44.1902 22.9167L44.4211 22.7252ZM44.8545 23.2467L45.085 23.0547L45.085 23.0547L44.8545 23.2467ZM45.7905 24.5142L46.0411 24.3492L46.0382 24.345L45.7905 24.5142ZM46.785 26.2692L46.5167 26.4034L46.5167 26.4034L46.785 26.2692ZM47.643 28.3167L47.9281 28.2233L47.9266 28.2189L47.643 28.3167ZM48.2085 30.4617L48.5027 30.4029L48.5023 30.4011L48.2085 30.4617ZM48.5887 31.7292L48.3894 31.9535L48.3894 31.9535L48.5887 31.7292ZM49.0567 31.8657V32.1657H49.0639L49.071 32.1654L49.0567 31.8657ZM49.554 31.622L49.7807 31.8185L49.7885 31.8095L49.7955 31.7999L49.554 31.622ZM49.6612 30.9005L49.3629 30.9336L49.3646 30.945L49.6612 30.9005ZM49.4467 29.6817L49.1522 29.7392L49.1537 29.7461L49.4467 29.6817ZM48.969 27.9267L49.2541 27.8333L49.2541 27.8333L48.969 27.9267ZM48.111 25.8305L48.382 25.7017L48.3802 25.6981L48.111 25.8305ZM47.0092 23.8805L47.2605 23.7164L47.2581 23.7129L47.0092 23.8805ZM45.654 22.0865L45.4228 22.2777L45.4269 22.2825L45.654 22.0865ZM44.0062 20.39L44.2067 20.1668L44.2041 20.1645L44.0062 20.39ZM40.2525 17.8355L40.1206 18.1049L40.1206 18.105L40.2525 17.8355ZM38.4487 17.0555L38.5558 16.7752L38.5513 16.7735L38.4487 17.0555ZM36.4987 16.4607L36.4297 16.7527L36.4297 16.7527L36.4987 16.4607ZM42.4267 30.0815L42.4148 29.7817L42.4125 29.7818L42.4267 30.0815ZM38.4975 31.0565L38.4197 30.7668L38.4195 30.7668L38.4975 31.0565ZM34.8997 31.895L35.1844 31.8001L35.1844 31.8001L34.8997 31.895ZM34.4123 31.3392L34.1963 31.5478L34.2043 31.5555L34.4123 31.3392ZM33.4762 30.725L33.3753 31.0075L33.3759 31.0077L33.4762 30.725ZM31.2337 30.7932L31.1056 30.522L31.1036 30.5229L31.2337 30.7932ZM30.405 31.349L30.1986 31.1311L30.1929 31.1369L30.405 31.349ZM29.8492 32.1192L30.1154 32.2577L30.1176 32.2534L29.8492 32.1192ZM29.5567 33.026L29.8522 33.0785L29.8533 33.0716L29.5567 33.026ZM29.0887 33.5915L29.0124 33.3014L29.0098 33.3021L29.0887 33.5915ZM28.8334 33.6602L28.9109 33.95L28.9109 33.95L28.8334 33.6602ZM28.1917 33.8352L28.2625 34.127L28.2742 34.1237L28.1917 33.8352ZM27.5287 34.1862L27.2821 34.0155L27.2775 34.0221L27.2733 34.029L27.5287 34.1862ZM27.3825 34.5567L27.6802 34.5939L27.6825 34.5754V34.5567H27.3825ZM27.5775 34.9662L27.8247 34.7963L27.8186 34.7873L27.8118 34.7788L27.5775 34.9662ZM29.0107 35.0247L29.0881 35.3146L29.0918 35.3136L29.0107 35.0247ZM29.8102 34.8005L30.0304 34.5967L29.9058 34.4621L29.7292 34.5116L29.8102 34.8005ZM31.2337 36.0387L31.1074 36.3108L31.108 36.3111L31.2337 36.0387ZM32.4525 36.2532L32.4577 36.5532L32.459 36.5532L32.4525 36.2532ZM33.5542 36.0777L33.4311 35.8041L33.4248 35.8071L33.5542 36.0777ZM34.3148 35.5512L34.1177 35.3246L34.1076 35.3342L34.3148 35.5512ZM34.9485 34.8005L34.6902 34.6479L34.6902 34.6479L34.9485 34.8005ZM35.2507 33.8742L34.954 33.8303L34.9534 33.8346L35.2507 33.8742ZM35.3287 33.3477L35.2508 33.058L35.0608 33.1092L35.032 33.3038L35.3287 33.3477ZM43.0117 31.115L42.7813 30.9229L42.7813 30.9229L43.0117 31.115ZM43.1775 30.6762H42.8775V30.6878L42.8784 30.6992L43.1775 30.6762ZM53.3467 33.7865V34.0865H53.3634L53.3799 34.0847L53.3467 33.7865ZM53.7562 34.0205L53.5441 34.2326L53.5441 34.2326L53.7562 34.0205ZM52.8787 33.884L52.9682 34.1703L52.9682 34.1703L52.8787 33.884ZM48.735 35.0052L48.6575 34.7154L48.6563 34.7157L48.735 35.0052ZM42.9337 36.5652L42.8573 36.2751L42.855 36.2757L42.9337 36.5652ZM40.8083 37.2672L41.0089 37.4902L41.0148 37.4849L41.0204 37.4794L40.8083 37.2672ZM40.6425 37.7255H40.9425V37.7161L40.9419 37.7068L40.6425 37.7255ZM41.7637 39.1392L41.5516 39.3514L41.5516 39.3514L41.7637 39.1392ZM41.0812 42.2592L41.2934 42.4714L41.2934 42.4714L41.0812 42.2592ZM39.2775 44.063L39.065 44.2747L39.2771 44.4877L39.4896 44.2751L39.2775 44.063ZM33.8662 38.993L33.9199 39.2881L33.9283 39.2866L33.9366 39.2846L33.8662 38.993ZM27.8993 44.726L28.1114 44.9381L28.1114 44.9381L27.8993 44.726ZM22.1662 50.6442L22.4573 50.717L22.4595 50.7083L22.4611 50.6995L22.1662 50.6442ZM22.293 51.1317L22.053 51.3117L22.053 51.3117L22.293 51.1317ZM22.8098 51.4047L22.7826 51.7035L22.7826 51.7035L22.8098 51.4047ZM28.5232 46.0422L28.3111 45.8301L28.3109 45.8303L28.5232 46.0422ZM33.954 40.6992L33.7044 40.8657L33.7209 40.8904L33.7419 40.9114L33.954 40.6992ZM36.4695 43.205L36.6816 42.9929L36.6809 42.9921L36.4695 43.205ZM39.2775 45.662V45.3618L39.2684 45.3621L39.2775 45.662ZM41.988 43.3025L41.7767 43.0896L41.7763 43.0899L41.988 43.3025ZM44.5035 40.67L44.2387 40.5288L44.2352 40.5358L44.5035 40.67ZM44.5815 40.1825L44.8738 40.115L44.8706 40.1011L44.8661 40.0876L44.5815 40.1825ZM43.5772 39.0222L43.3635 39.2328L43.3651 39.2344L43.5772 39.0222ZM42.7875 38.018L42.7147 37.7269L42.695 37.7319L42.6761 37.7394L42.7875 38.018ZM44.5462 37.5469L44.4685 37.2571L44.4685 37.2571L44.5462 37.5469ZM47.37 36.7895L47.2923 36.4997L47.2923 36.4997L47.37 36.7895ZM52.0792 35.561L52.0461 35.2628L52.042 35.2633L52.0792 35.561ZM52.3425 35.5317L52.6317 35.6116L52.7496 35.1847L52.3094 35.2336L52.3425 35.5317ZM50.88 40.943L50.5903 40.8652L50.5903 40.8652L50.88 40.943ZM49.749 45.0867L49.4994 44.9203L49.4994 44.9203L49.749 45.0867ZM48.7545 44.1897L48.5424 44.4019L48.5444 44.4038L48.7545 44.1897ZM47.4675 43.2342L47.4772 42.9342H47.4675V43.2342ZM43.2067 47.1537L42.9946 46.9416L42.9946 46.9416L43.2067 47.1537ZM39.2775 51.083L39.0656 51.2953L39.2777 51.507L39.4896 51.2951L39.2775 51.083ZM31.5555 48.1775L31.3434 47.9653L31.3416 47.9671L31.5555 48.1775ZM29.391 50.4687L29.1169 50.3469L29.1091 50.3643L29.1037 50.3825L29.391 50.4687ZM29.7517 51.239L29.8988 50.9775L29.8884 50.9716L29.8775 50.9666L29.7517 51.239ZM30.2587 51.239L30.1534 50.958L30.1452 50.9613L30.2587 51.239ZM33.9637 47.7192L34.1761 47.5073L33.964 47.2948L33.7516 47.5071L33.9637 47.7192ZM39.2775 52.7015L39.2866 52.4015H39.2775V52.7015ZM43.5382 48.782L43.3259 48.5701L43.3258 48.5701L43.5382 48.782ZM47.4675 44.843L47.6791 44.6303L47.4667 44.419L47.2551 44.6311L47.4675 44.843ZM50.0513 47.2317L50.0784 46.933L50.0649 46.9317H50.0513V47.2317ZM50.4705 47.066L50.2905 46.826L50.2876 46.8282L50.4705 47.066ZM52.3522 40.748L52.6419 40.8261L52.642 40.8259L52.3522 40.748ZM31.5943 32.1486L31.7547 32.4025L31.7656 32.3949L31.5943 32.1486ZM31.0776 32.7531L30.809 32.6188L30.8044 32.629L31.0776 32.7531ZM33.2128 32.1194L33.3759 31.8673L33.3654 31.8611L33.2128 32.1194ZM33.7296 32.6264L33.9894 32.4764L33.9826 32.4646L33.9746 32.4533L33.7296 32.6264ZM33.8953 33.5039L34.1948 33.5222L34.195 33.5175L33.8953 33.5039ZM33.5248 34.4106L33.7371 34.6228L33.7437 34.6158L33.5248 34.4106ZM32.8423 34.8591L32.752 34.573L32.752 34.573L32.8423 34.8591ZM31.5261 34.6154L31.3461 34.8553L31.3461 34.8554L31.5261 34.6154ZM31.0678 34.0401L31.3416 33.9169L31.3361 33.9059L31.0678 34.0401ZM32.9285 16.3023C33.4293 16.3215 34.2098 16.3795 34.657 16.4366L34.733 15.8414C34.2637 15.7815 33.4647 15.7224 32.9515 15.7027L32.9285 16.3023ZM31.0106 16.3505C31.5671 16.3121 32.4358 16.2928 32.9342 16.3024L32.9458 15.7025C32.4302 15.6926 31.5439 15.7123 30.9694 15.7519L31.0106 16.3505ZM29.2464 16.5791C29.6603 16.4945 30.4561 16.3888 31.0106 16.3505L30.9694 15.7519C30.3929 15.7917 29.5702 15.9005 29.1261 15.9913L29.2464 16.5791ZM27.6575 16.9546C28.1072 16.8302 28.8216 16.666 29.2464 16.5791L29.1261 15.9913C28.6929 16.0799 27.9643 16.2472 27.4975 16.3763L27.6575 16.9546ZM25.8852 17.5778C26.4177 17.3648 27.215 17.077 27.6575 16.9546L27.4975 16.3763C27.0235 16.5075 26.2023 16.8047 25.6623 17.0207L25.8852 17.5778ZM24.3107 18.322C24.6488 18.1341 25.3595 17.7976 25.8895 17.576L25.658 17.0225C25.1155 17.2493 24.3832 17.5953 24.0193 17.7975L24.3107 18.322ZM22.965 19.139C23.3622 18.8775 23.9669 18.5035 24.305 18.3251L24.025 17.7944C23.6611 17.9865 23.0373 18.373 22.635 18.6379L22.965 19.139ZM21.6232 20.1166C21.9667 19.8399 22.5732 19.3971 22.965 19.139L22.635 18.6379C22.2273 18.9064 21.6053 19.3605 21.2468 19.6494L21.6232 20.1166ZM20.0421 21.622C20.5766 21.0682 21.2874 20.3871 21.6232 20.1166L21.2468 19.6494C20.8806 19.9444 20.1484 20.6478 19.6104 21.2054L20.0421 21.622ZM18.4424 23.5182C18.7929 23.0257 19.514 22.1693 20.0421 21.622L19.6104 21.2054C19.066 21.7696 18.3246 22.6488 17.9536 23.1703L18.4424 23.5182ZM17.1313 25.7682C17.4966 25.028 18.0932 24.009 18.4424 23.5182L17.9536 23.1703C17.5813 23.6935 16.9689 24.7415 16.5932 25.5027L17.1313 25.7682ZM16.2102 27.8773C16.3503 27.4663 16.763 26.5145 17.1313 25.7682L16.5932 25.5027C16.2205 26.258 15.7947 27.2367 15.6423 27.6837L16.2102 27.8773ZM15.7773 29.3695C15.8837 28.9725 16.0774 28.2947 16.2121 27.8714L15.6404 27.6895C15.5021 28.1242 15.3058 28.8114 15.1977 29.214L15.7773 29.3695ZM15.4433 31.2055C15.5309 30.5825 15.6752 29.75 15.7773 29.3695L15.1977 29.214C15.0853 29.6329 14.9371 30.497 14.8492 31.122L15.4433 31.2055ZM15.3 33.3575C15.3 32.7968 15.3672 31.8245 15.444 31.2004L14.8485 31.1271C14.7693 31.7704 14.7 32.7676 14.7 33.3575H15.3ZM15.396 35.2575C15.3482 34.7893 15.3 33.9318 15.3 33.3575H14.7C14.7 33.9532 14.7493 34.8311 14.799 35.3184L15.396 35.2575ZM15.6933 37.0296C15.5877 36.5309 15.4527 35.7204 15.3953 35.2515L14.7997 35.3244C14.8593 35.811 14.9973 36.6386 15.1062 37.1538L15.6933 37.0296ZM16.2211 38.9483C16.0383 38.3904 15.7977 37.5236 15.6933 37.0296L15.1062 37.1538C15.2163 37.6738 15.4632 38.562 15.6509 39.1351L16.2211 38.9483ZM17.0925 41.0056C16.8042 40.4195 16.4097 39.4952 16.2196 38.9439L15.6524 39.1395C15.8523 39.7193 16.2573 40.667 16.554 41.2704L17.0925 41.0056ZM18.2226 42.9692C17.8895 42.4742 17.3794 41.589 17.0925 41.0056L16.554 41.2704C16.8521 41.8764 17.3755 42.7852 17.7249 43.3042L18.2226 42.9692ZM19.5837 44.7329C19.1741 44.266 18.5669 43.4664 18.2204 42.966L17.7271 43.3075C18.0826 43.8211 18.7039 44.64 19.1328 45.1286L19.5837 44.7329ZM20.4312 45.5898C20.4568 45.5976 20.4646 45.6056 20.4463 45.5935C20.4326 45.5846 20.4119 45.5694 20.3837 45.5465C20.3274 45.5009 20.2545 45.4352 20.1687 45.3523C19.9979 45.1874 19.7891 44.9669 19.5837 44.7329L19.1328 45.1286C19.3466 45.3723 19.5668 45.6052 19.7519 45.7839C19.8441 45.873 19.9308 45.9517 20.0056 46.0124C20.0428 46.0426 20.0805 46.0711 20.1167 46.0949C20.1483 46.1157 20.1975 46.1456 20.2548 46.1632L20.4312 45.5898ZM20.6745 45.6642C20.6865 45.6642 20.6864 45.6655 20.6673 45.6621C20.6518 45.6593 20.6309 45.6547 20.6062 45.6483C20.5559 45.6352 20.5014 45.6175 20.4584 45.5996L20.2276 46.1534C20.3016 46.1842 20.3836 46.2104 20.4552 46.229C20.5175 46.2452 20.6036 46.2642 20.6745 46.2642V45.6642ZM22.2283 44.113C21.7761 44.5602 21.3543 44.9675 21.038 45.2621C20.8794 45.4098 20.7496 45.527 20.6568 45.6063C20.6097 45.6464 20.5761 45.6734 20.5549 45.6891C20.5437 45.6973 20.5413 45.6984 20.5453 45.6961C20.5472 45.695 20.5562 45.6898 20.5702 45.6841C20.5784 45.6808 20.6185 45.6642 20.6745 45.6642V46.2642C20.7348 46.2642 20.7806 46.2462 20.7958 46.2401C20.8169 46.2315 20.8343 46.2221 20.8459 46.2153C20.8694 46.2017 20.8919 46.186 20.9106 46.1722C20.9492 46.1438 20.9955 46.106 21.0463 46.0626C21.149 45.9749 21.2862 45.8508 21.4469 45.7012C21.7692 45.401 22.1956 44.9892 22.6502 44.5395L22.2283 44.113ZM23.7675 42.4055C23.7675 42.4077 23.776 42.4691 23.5399 42.7479C23.3143 43.0144 22.9167 43.4245 22.2271 44.1141L22.6514 44.5384C23.3365 43.8532 23.7531 43.4248 23.9979 43.1356C24.2323 42.8586 24.3675 42.647 24.3675 42.4055H23.7675ZM23.7011 42.1702C23.6969 42.1665 23.7022 42.1703 23.7127 42.1879C23.7225 42.2043 23.7332 42.2266 23.7428 42.253C23.7633 42.3097 23.7697 42.3604 23.7681 42.3868L24.3669 42.4242C24.375 42.2946 24.3473 42.16 24.3069 42.0486C24.268 41.9412 24.2025 41.8143 24.1024 41.7242L23.7011 42.1702ZM23.4338 42.0717C23.4736 42.0717 23.5301 42.082 23.5876 42.1037C23.6476 42.1263 23.6811 42.1508 23.6896 42.1594L24.1139 41.7351C24.0249 41.6461 23.9072 41.5829 23.7991 41.5422C23.6884 41.5005 23.5597 41.4717 23.4338 41.4717V42.0717ZM22.1141 43.2036C22.6387 42.684 22.9484 42.3892 23.1551 42.2245C23.3612 42.0603 23.4107 42.0711 23.4218 42.0715L23.4457 41.472C23.213 41.4627 23.0188 41.566 22.7813 41.7553C22.5443 41.944 22.2106 42.2635 21.6919 42.7774L22.1141 43.2036ZM20.6062 44.5092C20.6581 44.5092 20.6972 44.4957 20.7114 44.4905C20.7297 44.4837 20.7439 44.4765 20.7522 44.4721C20.7688 44.4632 20.782 44.4543 20.7893 44.4493C20.8048 44.4385 20.8198 44.4266 20.8318 44.4168C20.857 44.3962 20.8886 44.3686 20.9241 44.3368C20.9958 44.2726 21.0943 44.1812 21.2118 44.0704C21.4474 43.8483 21.7655 43.5425 22.1121 43.2056L21.6939 42.7753C21.3483 43.1113 21.0326 43.4148 20.8002 43.6338C20.6837 43.7436 20.5897 43.8309 20.5237 43.89C20.4902 43.9199 20.4667 43.9403 20.4522 43.9521C20.4443 43.9586 20.4433 43.9591 20.4468 43.9566C20.448 43.9557 20.4563 43.95 20.4689 43.9432C20.4752 43.9398 20.4878 43.9334 20.5046 43.9272C20.5174 43.9225 20.5553 43.9092 20.6062 43.9092V44.5092ZM20.0169 44.0525C20.1055 44.1568 20.1952 44.2519 20.269 44.323C20.3053 44.3579 20.3416 44.3907 20.3742 44.4167C20.39 44.4292 20.4106 44.4447 20.4335 44.4586C20.4448 44.4655 20.4623 44.4754 20.484 44.4844C20.5005 44.4913 20.546 44.5092 20.6062 44.5092V43.9092C20.6628 43.9092 20.7036 43.9259 20.7144 43.9304C20.7304 43.9371 20.7411 43.9435 20.7448 43.9457C20.7524 43.9503 20.754 43.9521 20.7475 43.9469C20.7357 43.9375 20.7146 43.9192 20.6852 43.8908C20.6273 43.835 20.5512 43.7547 20.4741 43.6639L20.0169 44.0525ZM19.0744 42.8324C19.4087 43.3043 19.8357 43.8514 20.0225 44.0589L20.4685 43.6575C20.3043 43.4751 19.8928 42.9496 19.5641 42.4856L19.0744 42.8324ZM17.912 40.9346C18.2111 41.5128 18.7356 42.3641 19.0762 42.8348L19.5623 42.4831C19.2399 42.0374 18.7309 41.2117 18.445 40.6589L17.912 40.9346ZM17.0076 38.847C17.208 39.4281 17.6138 40.358 17.912 40.9346L18.445 40.6589C18.1582 40.1045 17.7645 39.2014 17.5749 38.6514L17.0076 38.847ZM16.5011 37.1568C16.5829 37.5245 16.8115 38.2781 17.0076 38.847L17.5749 38.6514C17.381 38.0893 17.1611 37.361 17.0869 37.0267L16.5011 37.1568ZM16.2134 35.4702C16.283 36.0469 16.4213 36.7977 16.5011 37.1568L17.0869 37.0267C17.0107 36.6838 16.876 35.9526 16.8091 35.3983L16.2134 35.4702ZM16.065 34.235C16.065 34.3072 16.0856 34.4897 16.1111 34.6959C16.1382 34.9148 16.175 35.1917 16.2141 35.4752L16.8084 35.3932C16.7695 35.1112 16.7332 34.8373 16.7066 34.6223C16.6933 34.5147 16.6826 34.4229 16.6753 34.3528C16.6716 34.3176 16.6689 34.2891 16.6671 34.2673C16.6652 34.2431 16.665 34.2343 16.665 34.235H16.065ZM18.1687 33.7692C17.3479 33.7692 16.8792 33.7713 16.6184 33.7948C16.4989 33.8056 16.3671 33.8239 16.2638 33.8834C16.2006 33.9199 16.1413 33.9751 16.1037 34.0541C16.069 34.1269 16.065 34.1952 16.065 34.235H16.665C16.665 34.2358 16.6656 34.2696 16.6454 34.3121C16.6223 34.3606 16.5873 34.3895 16.5637 34.4031C16.5397 34.417 16.548 34.4036 16.6722 34.3924C16.8989 34.372 17.3321 34.3692 18.1687 34.3692V33.7692ZM19.9405 33.6489C19.8984 33.6976 19.8903 33.7011 19.884 33.7044C19.8722 33.7105 19.8343 33.7264 19.7194 33.7395C19.4824 33.7663 19.0515 33.7692 18.1687 33.7692V34.3692C19.0312 34.3692 19.5071 34.3673 19.7869 34.3356C19.9303 34.3194 20.0533 34.2927 20.161 34.2366C20.2741 34.1778 20.3439 34.0997 20.3945 34.0411L19.9405 33.6489ZM20.0625 33.4062C20.0625 33.4053 20.0623 33.415 20.0568 33.436C20.0516 33.456 20.0432 33.4803 20.0312 33.507C20.0064 33.5626 19.9742 33.6119 19.9464 33.6423L20.3886 34.0477C20.4681 33.9611 20.5333 33.8543 20.5792 33.7515C20.6233 33.6526 20.6625 33.5284 20.6625 33.4062H20.0625ZM19.9066 33.1601C19.9517 33.2052 19.9954 33.2657 20.0267 33.3248C20.042 33.3538 20.0522 33.3784 20.0581 33.3966C20.0647 33.4169 20.0625 33.419 20.0625 33.4062H20.6625C20.6625 33.2745 20.6087 33.1418 20.5569 33.0441C20.5005 32.9374 20.4223 32.8273 20.3309 32.7359L19.9066 33.1601ZM18.12 33.0042C19.0054 33.0042 19.4185 33.0049 19.6463 33.0325C19.7528 33.0454 19.7892 33.0615 19.8047 33.0701C19.8238 33.0805 19.8414 33.0949 19.9066 33.1601L20.3309 32.7359C20.2743 32.6792 20.1992 32.6022 20.0934 32.5441C19.984 32.484 19.8631 32.4544 19.7186 32.4369C19.4443 32.4036 18.9799 32.4042 18.12 32.4042V33.0042ZM16.365 33.0042H18.12V32.4042H16.365V33.0042ZM16.3228 30.6064C16.2432 31.0738 16.1546 31.7251 16.0663 32.6765L16.6637 32.732C16.7509 31.7919 16.8378 31.1562 16.9142 30.7071L16.3228 30.6064ZM16.7103 28.8681C16.5711 29.3552 16.3924 30.1385 16.3218 30.6125L16.9152 30.7009C16.9811 30.2585 17.1534 29.5012 17.2872 29.0329L16.7103 28.8681ZM17.3272 27.1268C17.1263 27.5988 16.8596 28.3803 16.7119 28.8627L17.2856 29.0383C17.4304 28.5652 17.6902 27.8062 17.8793 27.3617L17.3272 27.1268ZM18.0204 25.6417C17.8313 26 17.5148 26.6625 17.3251 27.1318L17.8814 27.3567C18.0622 26.9094 18.3697 26.2655 18.5511 25.9218L18.0204 25.6417ZM18.8474 24.2961C18.5878 24.6756 18.2222 25.2785 18.0235 25.636L18.548 25.9274C18.7393 25.583 19.0952 24.9964 19.3426 24.6349L18.8474 24.2961ZM19.8548 22.9702C19.5504 23.3152 19.1037 23.9216 18.8474 24.2961L19.3426 24.6349C19.5933 24.2684 20.0241 23.6852 20.3047 23.3672L19.8548 22.9702ZM20.377 22.3513L19.8505 22.9753L20.309 23.3622L20.8355 22.7382L20.377 22.3513ZM23.3362 24.7992C23.4095 24.7992 23.4492 24.831 23.4195 24.8137C23.4048 24.8051 23.3762 24.7858 23.3288 24.7489C23.2353 24.6758 23.0943 24.5535 22.8881 24.3624C22.4773 23.9818 21.8277 23.3468 20.8189 22.3331L20.3936 22.7564C21.403 23.7706 22.0599 24.413 22.4803 24.8025C22.6898 24.9966 22.8455 25.1327 22.9595 25.2217C23.0159 25.2658 23.0686 25.3035 23.1167 25.3316C23.1499 25.351 23.2337 25.3992 23.3362 25.3992V24.7992ZM23.6071 24.67C23.5598 24.7078 23.4977 24.743 23.4365 24.7682C23.4066 24.7805 23.3803 24.789 23.3598 24.7942C23.3373 24.7998 23.3302 24.7992 23.3362 24.7992V25.3992C23.4468 25.3992 23.5669 25.3634 23.665 25.323C23.7695 25.28 23.8829 25.2177 23.9819 25.1385L23.6071 24.67ZM23.7675 24.3972C23.7675 24.4852 23.7546 24.521 23.7436 24.5414C23.7315 24.564 23.7038 24.6003 23.6201 24.6601L23.9689 25.1484C24.0899 25.0619 24.1988 24.9617 24.2719 24.8259C24.3463 24.6878 24.3675 24.5433 24.3675 24.3972H23.7675ZM22.6064 23.0387C23.1465 23.5836 23.443 23.8927 23.6074 24.0991C23.7624 24.2937 23.7659 24.3549 23.7677 24.4076L24.3673 24.3869C24.3594 24.1568 24.2751 23.9743 24.0767 23.7252C23.8876 23.488 23.565 23.1536 23.0326 22.6163L22.6064 23.0387ZM21.3675 21.7802L22.6057 23.038L23.0333 22.617L21.795 21.3593L21.3675 21.7802ZM23.3638 19.8096C22.8183 20.1765 22.1446 20.6719 21.3827 21.3449L21.7798 21.7946C22.5194 21.1415 23.1717 20.6619 23.6987 20.3074L23.3638 19.8096ZM25.353 18.6758C24.803 18.9358 23.9124 19.4405 23.3638 19.8096L23.6987 20.3074C24.2226 19.955 25.087 19.4652 25.6095 19.2182L25.353 18.6758ZM27.2406 17.9013C26.7485 18.062 25.897 18.4087 25.349 18.6777L25.6135 19.2163C26.138 18.9588 26.9635 18.623 27.4269 18.4717L27.2406 17.9013ZM29.0754 17.4055C28.5602 17.5145 27.7284 17.732 27.2354 17.9031L27.4321 18.4699C27.8946 18.3095 28.7008 18.098 29.1996 17.9925L29.0754 17.4055ZM30.8973 17.127C30.4037 17.1673 29.5913 17.2964 29.0754 17.4055L29.1996 17.9925C29.6977 17.8871 30.4843 17.7627 30.9462 17.725L30.8973 17.127ZM31.7425 17.0492L30.8943 17.1272L30.9492 17.7247L31.7975 17.6467L31.7425 17.0492ZM32.1409 20.9024C32.1354 20.8971 32.1392 20.9001 32.1427 20.9061C32.145 20.9101 32.1406 20.9044 32.1336 20.8768C32.118 20.8144 32.1019 20.6935 32.0904 20.4455C32.0677 19.9563 32.0651 19.0587 32.07 17.3488L31.47 17.3471C31.4651 19.0498 31.4675 19.9657 31.491 20.4734C31.5027 20.7239 31.5202 20.8973 31.5517 21.0229C31.5889 21.1708 31.6482 21.2629 31.7306 21.3401L32.1409 20.9024ZM32.2947 21.0088C32.3135 21.0111 32.3181 21.015 32.3039 21.009C32.2925 21.0043 32.2759 20.9961 32.2551 20.984C32.2128 20.9593 32.1687 20.9273 32.1364 20.8982L31.7351 21.3442C31.8003 21.4029 31.8781 21.4587 31.9528 21.5022C32.0173 21.5399 32.1175 21.5913 32.2203 21.6042L32.2947 21.0088ZM32.5846 20.9839C32.5274 20.9962 32.4618 21.0063 32.4048 21.0112C32.3764 21.0137 32.3534 21.0145 32.3368 21.0143C32.3172 21.014 32.3176 21.0123 32.3303 21.0154L32.1847 21.5975C32.2763 21.6204 32.3834 21.6153 32.4563 21.609C32.5407 21.6018 32.6311 21.5875 32.7104 21.5706L32.5846 20.9839ZM32.7325 20.8471C32.7269 20.8602 32.7054 20.8929 32.6626 20.9294C32.6201 20.9656 32.5817 20.984 32.5651 20.9888L32.7299 21.5657C32.8498 21.5315 32.9625 21.4621 33.0517 21.3862C33.1405 21.3105 33.2311 21.2068 33.284 21.0834L32.7325 20.8471ZM32.835 19.0542C32.835 19.6177 32.8252 20.0438 32.8052 20.3483C32.7951 20.5008 32.7828 20.6178 32.7689 20.7038C32.762 20.7467 32.7552 20.7788 32.749 20.8019C32.7425 20.8263 32.7385 20.8338 32.7399 20.8311L33.2766 21.0994C33.3199 21.0128 33.3443 20.9045 33.3612 20.7995C33.3793 20.6875 33.3932 20.5498 33.4039 20.3878C33.4253 20.0634 33.435 19.6218 33.435 19.0542H32.835ZM32.835 17.3967V19.0542H33.435V17.3967H32.835ZM34.8844 17.2461C34.3431 17.1674 33.722 17.0967 33.135 17.0967V17.6967C33.679 17.6967 34.2669 17.7626 34.7981 17.8399L34.8844 17.2461ZM36.8256 17.6642C36.3054 17.5142 35.434 17.3261 34.8844 17.2461L34.7981 17.8399C35.3209 17.9159 36.1656 18.0983 36.6594 18.2407L36.8256 17.6642ZM38.6048 18.2573C38.1414 18.0799 37.3412 17.803 36.8205 17.6628L36.6645 18.2422C37.1578 18.375 37.9371 18.6441 38.3902 18.8176L38.6048 18.2573ZM40.4024 19.1356C39.8831 18.836 39.0808 18.4497 38.6099 18.2594L38.3851 18.8156C38.8307 18.9958 39.6079 19.37 40.1026 19.6553L40.4024 19.1356ZM42.0539 20.2009C41.6589 19.8971 40.9145 19.4212 40.3986 19.1335L40.1064 19.6575C40.6045 19.9353 41.3226 20.3954 41.6881 20.6765L42.0539 20.2009ZM43.1335 21.0353C42.9142 20.8559 42.4325 20.4824 42.05 20.198L41.692 20.6795C42.07 20.9605 42.5438 21.3281 42.7535 21.4997L43.1335 21.0353ZM43.514 21.3476L43.1338 21.0356L42.7532 21.4994L43.1335 21.8114L43.514 21.3476ZM41.1873 24.1672C41.3007 24.0276 41.8605 23.4376 43.534 21.7935L43.1135 21.3655C41.4525 22.9974 40.8618 23.6164 40.7217 23.7888L41.1873 24.1672ZM41.0382 24.4031C41.0426 24.4429 41.0329 24.461 41.0397 24.4392C41.0442 24.4245 41.0536 24.4003 41.0696 24.3673C41.1014 24.3018 41.1486 24.2232 41.1996 24.151L40.7094 23.805C40.6434 23.8985 40.5784 24.0052 40.5298 24.1054C40.5056 24.1553 40.4827 24.2091 40.4662 24.2626C40.4519 24.3091 40.4325 24.3857 40.4418 24.4694L41.0382 24.4031ZM41.1959 24.6434C41.1462 24.5937 41.1011 24.534 41.0701 24.4806C41.0548 24.4541 41.0454 24.4335 41.0405 24.4203C41.0344 24.4037 41.04 24.4113 41.04 24.4362H40.44C40.44 24.5685 40.5023 24.6975 40.5513 24.7819C40.608 24.8796 40.6848 24.9808 40.7716 25.0676L41.1959 24.6434ZM41.442 24.7992C41.4548 24.7992 41.4527 24.8014 41.4323 24.7948C41.4142 24.789 41.3896 24.7788 41.3606 24.7634C41.3014 24.7321 41.2409 24.6884 41.1959 24.6434L40.7716 25.0676C40.8631 25.1591 40.9732 25.2372 41.0798 25.2937C41.1775 25.3454 41.3102 25.3992 41.442 25.3992V24.7992ZM42.7411 23.5904C42.3032 24.0282 41.9709 24.3459 41.7311 24.5528C41.6106 24.6567 41.5201 24.7269 41.4555 24.7695C41.4231 24.7909 41.4033 24.8012 41.3941 24.8053C41.3806 24.8113 41.4008 24.7992 41.442 24.7992V25.3992C41.5222 25.3992 41.5914 25.3741 41.6374 25.3537C41.6875 25.3315 41.7376 25.3022 41.7856 25.2705C41.8819 25.2071 41.9949 25.1176 42.123 25.0071C42.3805 24.785 42.7258 24.4542 43.1654 24.0146L42.7411 23.5904ZM44.5585 22.4209C44.4703 22.3152 44.3522 22.3053 44.2954 22.3087C44.2397 22.312 44.195 22.3287 44.1717 22.3385C44.1215 22.3595 44.073 22.3902 44.0335 22.4174C43.95 22.4749 43.8436 22.5611 43.7219 22.6667C43.4759 22.88 43.1392 23.1972 42.7424 23.589L43.1641 24.0159C43.5571 23.6277 43.8833 23.3209 44.1151 23.1199C44.2323 23.0183 44.3184 22.9497 44.3738 22.9116C44.4039 22.8909 44.4114 22.8886 44.403 22.8921C44.4005 22.8932 44.3731 22.9051 44.331 22.9076C44.2878 22.9102 44.1796 22.9035 44.0975 22.805L44.5585 22.4209ZM44.652 22.5336C44.6069 22.4793 44.5738 22.4394 44.5585 22.4209L44.0975 22.805C44.1123 22.8228 44.1448 22.8619 44.1902 22.9167L44.652 22.5336ZM45.085 23.0547C44.9168 22.8529 44.7533 22.6557 44.652 22.5336L44.1902 22.9167C44.2914 23.0387 44.4554 23.2364 44.624 23.4388L45.085 23.0547ZM46.0382 24.345C45.7631 23.9422 45.3377 23.3579 45.085 23.0547L44.624 23.4388C44.8588 23.7205 45.2719 24.2868 45.5428 24.6834L46.0382 24.345ZM47.0533 26.1351C46.7666 25.5617 46.3123 24.7612 46.041 24.3492L45.5399 24.6792C45.7952 25.0668 46.2379 25.8458 46.5167 26.4034L47.0533 26.1351ZM47.9266 28.2189C47.7276 27.6418 47.3423 26.7131 47.0533 26.1351L46.5167 26.4034C46.7932 26.9564 47.1684 27.8607 47.3594 28.4145L47.9266 28.2189ZM48.5023 30.4011C48.3735 29.7768 48.1172 28.8005 47.9281 28.2233L47.3579 28.4101C47.5393 28.9639 47.79 29.9182 47.9147 30.5224L48.5023 30.4011ZM48.7881 31.505C48.8165 31.5303 48.8243 31.5501 48.8151 31.5335C48.8095 31.5233 48.8003 31.5042 48.7878 31.4738C48.7631 31.4133 48.7333 31.327 48.7006 31.2178C48.6356 31.0007 48.5646 30.7127 48.5027 30.4029L47.9143 30.5206C47.9791 30.8446 48.0544 31.1513 48.1259 31.39C48.1614 31.5087 48.1975 31.6155 48.2325 31.701C48.2499 31.7435 48.269 31.7856 48.2897 31.8232C48.3069 31.8544 48.339 31.9086 48.3894 31.9535L48.7881 31.505ZM49.0567 31.5657C48.9996 31.5657 48.9327 31.5558 48.8734 31.5386C48.8443 31.5302 48.8209 31.5211 48.804 31.513C48.7857 31.5042 48.7826 31.5002 48.7881 31.505L48.3894 31.9535C48.4819 32.0356 48.6046 32.0854 48.7063 32.1149C48.8152 32.1464 48.9384 32.1657 49.0567 32.1657V31.5657ZM49.3273 31.4255C49.2509 31.5136 49.1604 31.5605 49.0425 31.5661L49.071 32.1654C49.3626 32.1515 49.6036 32.0229 49.7807 31.8185L49.3273 31.4255ZM49.3646 30.945C49.3928 31.1333 49.3941 31.23 49.3844 31.2914C49.3769 31.3393 49.3612 31.378 49.3125 31.444L49.7955 31.7999C49.8833 31.6808 49.9505 31.5536 49.9771 31.3846C50.0016 31.2291 49.9882 31.0577 49.9579 30.856L49.3646 30.945ZM49.1537 29.7461C49.2402 30.1401 49.3354 30.6847 49.3631 30.9336L49.9594 30.8674C49.9286 30.5898 49.8288 30.0229 49.7398 29.6174L49.1537 29.7461ZM48.6839 28.0201C48.8668 28.5784 49.0774 29.3555 49.1523 29.7392L49.7412 29.6243C49.6601 29.2084 49.4417 28.4061 49.2541 27.8333L48.6839 28.0201ZM47.8401 25.9593C48.1193 26.5466 48.5038 27.4703 48.6839 28.0201L49.2541 27.8333C49.0637 27.2522 48.6682 26.3039 48.3819 25.7017L47.8401 25.9593ZM46.7581 24.0445C47.0628 24.5111 47.5541 25.3779 47.8418 25.9629L48.3802 25.6981C48.0829 25.0936 47.5797 24.2054 47.2604 23.7164L46.7581 24.0445ZM45.4269 22.2825C45.8459 22.7682 46.4432 23.5771 46.7604 24.0481L47.2581 23.7129C46.9318 23.2284 46.3201 22.3993 45.8811 21.8905L45.4269 22.2825ZM43.8058 20.6132C44.2752 21.0347 45.015 21.7845 45.4228 22.2777L45.8852 21.8953C45.4545 21.3745 44.6928 20.6033 44.2067 20.1668L43.8058 20.6132ZM41.9376 19.1862C42.4939 19.5602 43.3415 20.2058 43.8084 20.6155L44.2041 20.1645C43.7155 19.7357 42.8471 19.0747 42.2724 18.6883L41.9376 19.1862ZM40.1206 18.105C40.562 18.3209 41.3782 18.8101 41.9376 19.1862L42.2724 18.6883C41.7008 18.3039 40.8595 17.7985 40.3844 17.566L40.1206 18.105ZM38.3417 17.3358C38.8701 17.5375 39.671 17.8849 40.1206 18.1049L40.3844 17.566C39.9175 17.3375 39.0999 16.983 38.5558 16.7752L38.3417 17.3358ZM36.4297 16.7527C36.952 16.8761 37.818 17.1453 38.3462 17.3374L38.5513 16.7735C38.007 16.5756 37.118 16.2988 36.5678 16.1688L36.4297 16.7527ZM34.6633 16.4373C35.1059 16.4844 35.9024 16.628 36.4297 16.7527L36.5678 16.1688C36.0226 16.0399 35.2006 15.8911 34.7267 15.8407L34.6633 16.4373ZM42.4387 30.3812C42.6223 30.3739 42.7079 30.4164 42.7704 30.4789L43.1946 30.0546C42.9841 29.8441 42.7187 29.7696 42.4148 29.7817L42.4387 30.3812ZM38.5753 31.3462C39.5538 31.0833 40.483 30.8425 41.1925 30.6664C41.5475 30.5782 41.8462 30.5066 42.068 30.4565C42.1791 30.4315 42.2693 30.4122 42.3369 30.3991C42.3707 30.3925 42.3972 30.3877 42.417 30.3846C42.4393 30.3811 42.4451 30.381 42.441 30.3811L42.4125 29.7818C42.3616 29.7842 42.2903 29.7968 42.2222 29.8101C42.1464 29.8249 42.0497 29.8456 41.936 29.8713C41.7081 29.9227 41.4048 29.9955 41.048 30.084C40.334 30.2613 39.4009 30.5031 38.4197 30.7668L38.5753 31.3462ZM34.6151 31.9899C34.6654 32.1406 34.7975 32.1851 34.8328 32.1954C34.8814 32.2097 34.9271 32.2118 34.9554 32.2121C35.0162 32.2128 35.0881 32.2048 35.1624 32.1936C35.3156 32.1706 35.5364 32.1247 35.8272 32.0567C36.4115 31.9202 37.308 31.6874 38.5755 31.3462L38.4195 30.7668C37.152 31.1081 36.2642 31.3384 35.6907 31.4724C35.4026 31.5398 35.2012 31.581 35.0731 31.6003C35.0068 31.6103 34.9733 31.6123 34.9621 31.6122C34.9544 31.6121 34.9724 31.6111 35.0014 31.6196C35.0171 31.6242 35.1378 31.6604 35.1844 31.8001L34.6151 31.9899ZM34.2043 31.5555C34.3247 31.6712 34.4354 31.789 34.5171 31.8832C34.5582 31.9305 34.5898 31.9694 34.6109 31.9976C34.6215 32.0118 34.6275 32.0206 34.6301 32.0247C34.636 32.0341 34.6248 32.0189 34.6151 31.9899L35.1844 31.8001C35.1698 31.7564 35.1477 31.7206 35.1371 31.7039C35.1232 31.682 35.1073 31.6595 35.0911 31.6379C35.0586 31.5945 35.0171 31.5438 34.9704 31.49C34.8766 31.3819 34.7533 31.251 34.6202 31.123L34.2043 31.5555ZM33.3759 31.0077C33.6337 31.0992 33.9551 31.2976 34.1964 31.5476L34.6281 31.1309C34.3234 30.8153 33.9233 30.5653 33.5766 30.4423L33.3759 31.0077ZM32.355 30.8592C32.6839 30.8592 33.1445 30.9251 33.3753 31.0075L33.5772 30.4425C33.262 30.3299 32.7281 30.2592 32.355 30.2592V30.8592ZM31.3619 31.0645C31.6682 30.9198 31.9357 30.8592 32.355 30.8592V30.2592C31.8578 30.2592 31.5013 30.3351 31.1056 30.522L31.3619 31.0645ZM30.6113 31.5668C30.7702 31.4163 31.1234 31.1793 31.3639 31.0635L31.1036 30.5229C30.8176 30.6606 30.4103 30.9307 30.1987 31.1312L30.6113 31.5668ZM30.1176 32.2534C30.22 32.0485 30.4545 31.7238 30.6171 31.5611L30.1929 31.1369C29.985 31.3447 29.7125 31.722 29.5809 31.9851L30.1176 32.2534ZM29.8533 33.0716C29.8878 32.8473 30.0052 32.4696 30.1154 32.2576L29.5831 31.9808C29.4398 32.2564 29.3037 32.6977 29.2602 32.9804L29.8533 33.0716ZM29.1651 33.8816C29.3241 33.8398 29.5301 33.7908 29.6645 33.6269C29.7322 33.5442 29.7678 33.4516 29.7916 33.3671C29.8149 33.2844 29.8331 33.1855 29.8521 33.0785L29.2614 32.9735C29.2414 33.0858 29.2279 33.1551 29.2141 33.2044C29.2007 33.2518 29.1936 33.2549 29.2004 33.2465C29.2102 33.2346 29.2167 33.2362 29.1904 33.2474C29.1579 33.2611 29.1073 33.2764 29.0124 33.3014L29.1651 33.8816ZM28.9109 33.95C29.0085 33.9239 29.0981 33.8999 29.1677 33.8809L29.0098 33.3021C28.9419 33.3206 28.854 33.3441 28.7558 33.3704L28.9109 33.95ZM28.2742 34.1237C28.4567 34.0715 28.7026 34.0057 28.9109 33.95L28.7558 33.3704C28.5491 33.4257 28.2978 33.4929 28.1093 33.5468L28.2742 34.1237ZM27.7754 34.357C27.7751 34.3575 27.7772 34.3544 27.7835 34.348C27.7897 34.3417 27.7986 34.3334 27.811 34.3236C27.836 34.3037 27.8707 34.2805 27.9156 34.2561C28.0054 34.2074 28.1246 34.1602 28.2624 34.1268L28.1211 33.5437C27.9371 33.5883 27.7687 33.6532 27.6294 33.7288C27.4974 33.8004 27.3648 33.896 27.2821 34.0155L27.7754 34.357ZM27.6825 34.5567C27.6825 34.575 27.6795 34.5788 27.6842 34.5613C27.688 34.5471 27.6947 34.5267 27.7049 34.5012C27.7255 34.4498 27.7544 34.392 27.7842 34.3435L27.2733 34.029C27.2251 34.1072 27.1809 34.1957 27.1478 34.2783C27.1196 34.349 27.0825 34.456 27.0825 34.5567H27.6825ZM27.8118 34.7788C27.7676 34.7236 27.7288 34.6604 27.7034 34.6071C27.6907 34.5804 27.6839 34.5615 27.681 34.5512C27.6796 34.5463 27.6801 34.5466 27.6807 34.5514C27.6812 34.5552 27.6831 34.5708 27.6802 34.5939L27.0848 34.5195C27.075 34.5983 27.0912 34.6704 27.1038 34.7149C27.1182 34.7659 27.1388 34.817 27.1615 34.8647C27.2069 34.9601 27.2704 35.0626 27.3432 35.1536L27.8118 34.7788ZM27.9967 34.9392C28.0092 34.9392 28.0093 34.9416 27.9954 34.9366C27.9827 34.932 27.9643 34.9233 27.9424 34.9091C27.8975 34.8801 27.8541 34.839 27.8247 34.7963L27.3303 35.1362C27.4082 35.2495 27.511 35.3449 27.6172 35.4133C27.7171 35.4778 27.8525 35.5392 27.9967 35.5392V34.9392ZM28.9334 34.7349C28.7186 34.7922 28.4994 34.8445 28.3209 34.8824C28.2315 34.9013 28.1542 34.9162 28.0939 34.9262C28.0636 34.9312 28.0393 34.9347 28.0208 34.9369C28.0005 34.9393 27.994 34.9392 27.9967 34.9392V35.5392C28.0535 35.5392 28.1263 35.529 28.1918 35.5181C28.264 35.5062 28.3507 35.4894 28.4453 35.4693C28.6348 35.4292 28.8641 35.3743 29.088 35.3146L28.9334 34.7349ZM29.7292 34.5116L28.9297 34.7359L29.0918 35.3136L29.8913 35.0893L29.7292 34.5116ZM31.3601 35.7666C31.1445 35.6666 30.7591 35.3837 30.0304 34.5967L29.5901 35.0043C30.3239 35.7967 30.777 36.1574 31.1074 36.3108L31.3601 35.7666ZM32.4473 35.9533C31.9125 35.9625 31.6873 35.9177 31.3595 35.7663L31.108 36.3111C31.5407 36.5108 31.8615 36.5635 32.4577 36.5532L32.4473 35.9533ZM33.4248 35.8071C33.3524 35.8417 33.2233 35.8778 33.0421 35.9055C32.8663 35.9324 32.6602 35.9486 32.446 35.9533L32.459 36.5532C32.6933 36.5481 32.926 36.5302 33.1328 36.4986C33.3343 36.4678 33.5319 36.421 33.6837 36.3484L33.4248 35.8071ZM34.1076 35.3342C33.9154 35.5177 33.5924 35.7316 33.4311 35.8042L33.6774 36.3513C33.9061 36.2484 34.2851 35.9943 34.5219 35.7682L34.1076 35.3342ZM34.6902 34.6479C34.5806 34.8333 34.319 35.1499 34.1179 35.3249L34.5116 35.7776C34.759 35.5625 35.0629 35.1967 35.2068 34.9531L34.6902 34.6479ZM34.9534 33.8346C34.9187 34.0948 34.7929 34.474 34.6902 34.6479L35.2068 34.9531C35.3576 34.6979 35.5048 34.2387 35.5481 33.9139L34.9534 33.8346ZM35.032 33.3038L34.954 33.8303L35.5475 33.9182L35.6255 33.3917L35.032 33.3038ZM42.7813 30.9229C42.8009 30.8994 42.7975 30.9245 42.596 31.001C42.4103 31.0716 42.0997 31.1714 41.5724 31.3255C40.5207 31.6327 38.64 32.1461 35.2508 33.058L35.4067 33.6374C38.7938 32.7261 40.6814 32.2109 41.7406 31.9014C42.2687 31.7471 42.5992 31.6416 42.809 31.5619C43.003 31.4883 43.1495 31.4183 43.2422 31.307L42.7813 30.9229ZM42.8784 30.6992C42.8782 30.6965 42.8789 30.7042 42.8751 30.7239C42.8714 30.7424 42.8648 30.7656 42.8548 30.7916C42.834 30.8457 42.8055 30.8938 42.7813 30.9229L43.2422 31.307C43.3155 31.2191 43.3747 31.1113 43.4148 31.007C43.4533 30.907 43.4863 30.7789 43.4766 30.6532L42.8784 30.6992ZM42.7704 30.4789C42.795 30.5035 42.8254 30.5465 42.8493 30.5966C42.8606 30.6205 42.8685 30.6419 42.8731 30.6586C42.8782 30.6767 42.8775 30.6821 42.8775 30.6762H43.4775C43.4775 30.5549 43.4358 30.433 43.3912 30.339C43.3443 30.2405 43.2772 30.1372 43.1946 30.0546L42.7704 30.4789ZM53.3799 34.0847C53.3384 34.0893 53.3178 34.079 53.3321 34.0838C53.3408 34.0868 53.3585 34.0943 53.3839 34.1089C53.4349 34.1381 53.4943 34.1828 53.5441 34.2326L53.9684 33.8084C53.8817 33.7217 53.7802 33.6445 53.6825 33.5884C53.6336 33.5604 53.58 33.5343 53.5251 33.5157C53.4756 33.4989 53.3989 33.4788 53.3136 33.4883L53.3799 34.0847ZM52.9682 34.1703C53.0373 34.1488 53.121 34.1267 53.1975 34.1103C53.2357 34.1021 53.2699 34.0958 53.2981 34.0917C53.3121 34.0896 53.3236 34.0882 53.3326 34.0874C53.337 34.087 53.3405 34.0868 53.343 34.0866C53.3456 34.0865 53.3468 34.0865 53.3467 34.0865V33.4865C53.2637 33.4865 53.1588 33.505 53.0718 33.5236C52.9777 33.5438 52.8762 33.5705 52.7893 33.5976L52.9682 34.1703ZM48.8125 35.2951C50.9225 34.7311 52.8044 34.2215 52.9682 34.1703L52.7893 33.5976C52.6411 33.6439 50.779 34.1484 48.6575 34.7154L48.8125 35.2951ZM43.0102 36.8553C44.0838 36.5723 46.6977 35.8701 48.8137 35.2947L48.6563 34.7157C46.5408 35.2909 43.9287 35.9927 42.8573 36.2751L43.0102 36.8553ZM41.0204 37.4794C40.9941 37.5057 40.9778 37.5089 41.0156 37.4901C41.0419 37.477 41.0818 37.4594 41.1365 37.4375C41.2454 37.394 41.3974 37.3398 41.5848 37.2779C41.9587 37.1545 42.4604 37.0049 43.0125 36.8547L42.855 36.2757C42.2956 36.4279 41.7833 36.5805 41.3967 36.7081C41.2039 36.7718 41.039 36.8303 40.9138 36.8803C40.8516 36.9052 40.7952 36.9296 40.7484 36.9529C40.713 36.9705 40.6468 37.0044 40.5961 37.0551L41.0204 37.4794ZM40.9419 37.7068C40.9403 37.6804 40.9467 37.6297 40.9672 37.573C40.9768 37.5466 40.9875 37.5243 40.9973 37.5079C41.0079 37.4903 41.0131 37.4865 41.0089 37.4902L40.6076 37.0442C40.5075 37.1343 40.442 37.2612 40.4031 37.3686C40.3627 37.48 40.335 37.6146 40.3431 37.7442L40.9419 37.7068ZM41.9759 38.9271C41.5102 38.4615 41.2427 38.1812 41.0907 37.9899C40.9404 37.8006 40.9425 37.7454 40.9425 37.7255H40.3425C40.3425 37.9493 40.4421 38.1379 40.6208 38.363C40.798 38.586 41.091 38.8908 41.5516 39.3514L41.9759 38.9271ZM43.185 40.358C43.185 40.2735 43.1488 40.2095 43.1448 40.202C43.1328 40.1792 43.1193 40.1587 43.1086 40.1431C43.0863 40.111 43.0579 40.0749 43.0273 40.038C42.9651 39.9628 42.8783 39.8653 42.7752 39.7536C42.5681 39.5291 42.2848 39.2361 41.9759 38.9271L41.5516 39.3514C41.8569 39.6567 42.1343 39.9437 42.3342 40.1604C42.4347 40.2693 42.513 40.3577 42.5651 40.4206C42.5916 40.4526 42.6076 40.4736 42.6155 40.4849C42.6197 40.4911 42.6178 40.4889 42.6135 40.4808C42.6114 40.4767 42.606 40.4662 42.6007 40.451C42.5965 40.4392 42.585 40.4048 42.585 40.358H43.185ZM41.2934 42.4714C41.7917 41.973 42.2446 41.5104 42.5735 41.1643C42.7377 40.9916 42.8728 40.846 42.9677 40.7387C43.0147 40.6856 43.0548 40.6385 43.0845 40.6007C43.0988 40.5824 43.1148 40.561 43.1286 40.5394C43.1352 40.529 43.1452 40.5125 43.1546 40.4925C43.1592 40.4825 43.185 40.4294 43.185 40.358H42.585C42.585 40.2903 42.6092 40.2424 42.6107 40.239C42.6169 40.2257 42.6223 40.2175 42.6228 40.2167C42.6242 40.2144 42.6218 40.2183 42.6121 40.2307C42.5936 40.2543 42.5628 40.2909 42.5184 40.3411C42.4305 40.4404 42.3011 40.58 42.1386 40.7509C41.8143 41.0922 41.3653 41.551 40.8691 42.0471L41.2934 42.4714ZM39.4896 44.2751L41.2934 42.4714L40.8691 42.0471L39.0654 43.8509L39.4896 44.2751ZM33.9366 39.2846C33.9569 39.2797 33.944 39.2846 33.9261 39.2817C33.914 39.2796 33.9244 39.2778 33.9715 39.3069C34.0728 39.3695 34.2518 39.5151 34.6008 39.842C35.2894 40.487 36.5664 41.7664 39.065 44.2747L39.49 43.8513C36.9966 41.348 35.7093 40.0583 35.011 39.4041C34.6665 39.0815 34.4464 38.895 34.2866 38.7964C34.2032 38.7448 34.1175 38.7052 34.0243 38.6897C33.9253 38.6733 33.8463 38.6892 33.7959 38.7014L33.9366 39.2846ZM28.1114 44.9381C30.2321 42.8174 31.6683 41.3958 32.6006 40.5C33.0673 40.0516 33.4046 39.7378 33.6372 39.5348C33.7539 39.4328 33.84 39.3625 33.9003 39.318C33.9307 39.2956 33.9501 39.283 33.9607 39.2769C33.9779 39.2669 33.9595 39.281 33.9199 39.2881L33.8126 38.6978C33.7462 38.7099 33.6908 38.7398 33.6603 38.7575C33.6231 38.779 33.5839 38.8058 33.5441 38.8351C33.4642 38.8941 33.3639 38.9768 33.2425 39.0828C32.9988 39.2957 32.6531 39.6175 32.1849 40.0673C31.2477 40.9679 29.8076 42.3933 27.6871 44.5139L28.1114 44.9381ZM22.4611 50.6995C22.4558 50.7277 22.4475 50.7476 22.4442 50.7553C22.4401 50.7646 22.4368 50.7706 22.4358 50.7723C22.4339 50.7756 22.4347 50.7737 22.4409 50.7651C22.453 50.7482 22.4741 50.721 22.5069 50.6818C22.5717 50.6041 22.6694 50.4941 22.8003 50.3516C23.0614 50.0675 23.4449 49.6649 23.9391 49.1554C24.9272 48.137 26.3518 46.6977 28.1114 44.9381L27.6871 44.5139C25.9269 46.2741 24.4997 47.7159 23.5085 48.7376C23.0131 49.2482 22.6252 49.6555 22.3585 49.9457C22.2255 50.0904 22.1203 50.2086 22.0463 50.2973C22.0097 50.3411 21.9775 50.3816 21.9526 50.4164C21.9404 50.4336 21.9268 50.4536 21.9148 50.4747C21.9071 50.4882 21.8821 50.5318 21.8714 50.5889L22.4611 50.6995ZM22.533 50.9517C22.4534 50.8456 22.4462 50.7614 22.4573 50.717L21.8752 50.5715C21.8083 50.8391 21.8986 51.1059 22.053 51.3117L22.533 50.9517ZM22.8369 51.106C22.6965 51.0932 22.5931 51.0318 22.533 50.9517L22.053 51.3117C22.2269 51.5436 22.494 51.6773 22.7826 51.7035L22.8369 51.106ZM28.3109 45.8303C25.7151 48.431 24.3719 49.7741 23.6367 50.4645C23.2656 50.813 23.0652 50.9799 22.9443 51.0591C22.8867 51.0969 22.8614 51.1049 22.856 51.1064C22.8541 51.1069 22.854 51.1069 22.854 51.1069C22.8531 51.1069 22.849 51.1071 22.8369 51.106L22.7826 51.7035C22.8432 51.709 22.9205 51.7107 23.0138 51.6853C23.1014 51.6614 23.1854 51.6184 23.2733 51.5609C23.4434 51.4493 23.6787 51.2481 24.0474 50.9019C24.7917 50.203 26.1444 48.8502 28.7356 46.2542L28.3109 45.8303ZM34.2036 40.5328C34.103 40.382 33.942 40.3972 33.908 40.4024C33.8621 40.4094 33.8288 40.4256 33.8194 40.4302C33.7947 40.4423 33.7762 40.4555 33.7705 40.4596C33.7547 40.471 33.7393 40.4837 33.7281 40.4932C33.7035 40.5141 33.6711 40.5434 33.6331 40.5784C33.5562 40.6494 33.4456 40.7544 33.306 40.8888C33.0263 41.1579 32.625 41.5497 32.1324 42.0344C31.1469 43.0041 29.7935 44.3477 28.3111 45.8301L28.7354 46.2544C30.217 44.7727 31.5692 43.4303 32.5532 42.4621C33.0453 41.9779 33.4448 41.5879 33.722 41.3211C33.8609 41.1875 33.9679 41.0859 34.0401 41.0193C34.0767 40.9855 34.1018 40.9631 34.1166 40.9505C34.1251 40.9432 34.125 40.9438 34.1198 40.9475C34.1193 40.9478 34.1049 40.9585 34.0832 40.9691C34.0753 40.973 34.0432 40.9887 33.9982 40.9956C33.9651 41.0006 33.8046 41.016 33.7044 40.8657L34.2036 40.5328ZM36.6809 42.9921C35.326 41.647 34.1953 40.5162 34.1661 40.4871L33.7419 40.9114C33.7712 40.9407 34.9025 42.072 36.2581 43.4179L36.6809 42.9921ZM39.2684 45.3621C39.2305 45.3633 39.2095 45.3618 39.162 45.3374C39.0972 45.3042 38.994 45.2322 38.8098 45.0708C38.4438 44.7499 37.8312 44.1424 36.6816 42.9929L36.2574 43.4171C37.399 44.5588 38.0295 45.1847 38.4143 45.522C38.6055 45.6896 38.7546 45.8028 38.8884 45.8714C39.0395 45.9488 39.1636 45.9656 39.2866 45.9618L39.2684 45.3621ZM41.7763 43.0899C40.6808 44.1806 40.0899 44.7615 39.7338 45.0712C39.5549 45.2269 39.4522 45.2988 39.3864 45.3333C39.3356 45.3599 39.3122 45.362 39.2775 45.362V45.962C39.3988 45.962 39.5192 45.941 39.6646 45.8649C39.795 45.7966 39.941 45.6863 40.1277 45.5239C40.5028 45.1975 41.1112 44.5987 42.1997 43.5151L41.7763 43.0899ZM44.2352 40.5358C44.2432 40.5197 44.2402 40.5292 44.195 40.584C44.158 40.6289 44.1056 40.6892 44.0382 40.7642C43.9038 40.9137 43.7166 41.1138 43.4896 41.3511C43.0361 41.8253 42.4286 42.4425 41.7767 43.0896L42.1993 43.5154C42.8539 42.8657 43.4652 42.2447 43.9232 41.7658C44.152 41.5266 44.344 41.3215 44.4843 41.1654C44.5543 41.0875 44.6133 41.0199 44.6582 40.9654C44.6949 40.9208 44.7443 40.8593 44.7718 40.8042L44.2352 40.5358ZM44.2892 40.2499C44.2924 40.2641 44.2961 40.3086 44.2862 40.3736C44.2766 40.4361 44.2583 40.4922 44.2388 40.5288L44.7682 40.8112C44.8267 40.7015 44.862 40.5772 44.8793 40.4642C44.8962 40.3538 44.8998 40.2276 44.8738 40.115L44.2892 40.2499ZM43.3651 39.2344C43.6187 39.4879 43.8549 39.7433 44.0312 39.948C44.1196 40.0507 44.1909 40.1382 44.2411 40.2049C44.2663 40.2384 44.2842 40.264 44.2956 40.2818C44.3107 40.3055 44.3045 40.3002 44.2969 40.2774L44.8661 40.0876C44.8487 40.0355 44.82 39.9881 44.8011 39.9587C44.7785 39.9233 44.7509 39.8845 44.7205 39.8441C44.6595 39.7631 44.579 39.6647 44.4858 39.5565C44.299 39.3395 44.0526 39.0733 43.7894 38.8101L43.3651 39.2344ZM42.6761 37.7394C42.6283 37.7585 42.5768 37.7918 42.5355 37.8453C42.4943 37.8987 42.4753 37.957 42.4689 38.008C42.4576 38.099 42.4849 38.1751 42.501 38.2136C42.5361 38.2976 42.5984 38.3866 42.6647 38.4711C42.804 38.6489 43.0363 38.9007 43.3636 39.2328L43.7909 38.8117C43.4649 38.4808 43.2536 38.2499 43.137 38.1011C43.1085 38.0647 43.0878 38.0359 43.0734 38.0139C43.0583 37.9907 43.0542 37.9812 43.0548 37.9826C43.0552 37.9837 43.0587 37.992 43.0617 38.0062C43.0646 38.0197 43.0688 38.0468 43.0643 38.0822C43.0596 38.12 43.045 38.1671 43.0107 38.2116C42.9765 38.256 42.9345 38.2823 42.8989 38.2965L42.6761 37.7394ZM44.4685 37.2571C43.9536 37.3953 43.5251 37.5103 43.2197 37.5921C43.067 37.633 42.9452 37.6656 42.8588 37.6887C42.8156 37.7002 42.7814 37.7094 42.7566 37.7159C42.7443 37.7192 42.7344 37.7218 42.7271 37.7237C42.7234 37.7247 42.7204 37.7255 42.7182 37.726C42.7171 37.7263 42.7163 37.7266 42.7156 37.7267C42.7149 37.7269 42.7147 37.727 42.7147 37.7269L42.8603 38.309C42.9079 38.2971 43.5974 38.1121 44.624 37.8366L44.4685 37.2571ZM47.2923 36.4997C46.2381 36.7823 45.2531 37.0466 44.4685 37.2571L44.624 37.8366C45.4086 37.6261 46.3935 37.3618 47.4477 37.0793L47.2923 36.4997ZM52.042 35.2633C52.0027 35.2682 51.934 35.2838 51.863 35.3006C51.7834 35.3195 51.6769 35.3457 51.5471 35.3784C51.2875 35.4438 50.9312 35.5357 50.5043 35.6473C49.6504 35.8706 48.5114 36.173 47.2923 36.4997L47.4477 37.0793C48.6661 36.7527 49.8038 36.4506 50.6561 36.2278C51.0823 36.1164 51.4366 36.0249 51.6936 35.9602C51.8223 35.9278 51.9256 35.9024 52.0011 35.8845C52.0852 35.8646 52.1168 35.8586 52.1165 35.8587L52.042 35.2633ZM52.3094 35.2336L52.0461 35.2628L52.1124 35.8591L52.3756 35.8299L52.3094 35.2336ZM51.1697 41.0208C51.7743 38.7682 52.3493 36.6341 52.6317 35.6116L52.0533 35.4519C51.7702 36.4769 51.1947 38.6133 50.5903 40.8652L51.1697 41.0208ZM49.9986 45.2532C50.0112 45.2342 50.0189 45.218 50.0212 45.213C50.0246 45.2058 50.0271 45.1997 50.0286 45.1959C50.0317 45.1883 50.0341 45.1816 50.0356 45.1773C50.0387 45.1683 50.0418 45.1586 50.0446 45.1495C50.0504 45.1309 50.0578 45.1061 50.0665 45.0765C50.0838 45.0168 50.1079 44.9316 50.1379 44.8243C50.1978 44.6096 50.2821 44.303 50.3846 43.9274C50.5894 43.1761 50.8674 42.1471 51.1697 41.0208L50.5903 40.8652C50.2881 41.9911 50.0103 43.0193 49.8057 43.7695C49.7034 44.1447 49.6195 44.45 49.56 44.663C49.5302 44.7696 49.5068 44.8523 49.4903 44.9089C49.4821 44.9373 49.476 44.9577 49.4719 44.9707C49.4698 44.9775 49.4689 44.9801 49.4689 44.98C49.469 44.9798 49.4692 44.9791 49.4697 44.978C49.47 44.9769 49.4708 44.9749 49.4719 44.9721C49.4729 44.9697 49.4749 44.9647 49.4779 44.9584C49.4798 44.9544 49.4871 44.9388 49.4994 44.9203L49.9986 45.2532ZM48.5444 44.4038C48.8092 44.6638 49.0561 44.8984 49.2405 45.0654C49.332 45.1482 49.4118 45.2177 49.4722 45.266C49.5008 45.2889 49.5333 45.3136 49.5641 45.3327C49.5767 45.3405 49.6063 45.3585 49.6442 45.3713C49.6614 45.3772 49.7043 45.3905 49.76 45.3879C49.8229 45.3849 49.9288 45.3578 49.9986 45.2531L49.4994 44.9203C49.568 44.8175 49.6719 44.7913 49.7319 44.7885C49.7846 44.7861 49.8238 44.7987 49.8366 44.803C49.8535 44.8087 49.8654 44.8147 49.8703 44.8172C49.876 44.8202 49.8796 44.8223 49.8805 44.8229C49.8809 44.8232 49.871 44.8167 49.8467 44.7972C49.801 44.7607 49.7321 44.7011 49.6432 44.6206C49.4669 44.4609 49.2263 44.2324 48.9646 43.9756L48.5444 44.4038ZM47.4578 43.5341C47.5131 43.5359 47.5462 43.5419 47.5777 43.5533C47.6116 43.5655 47.6592 43.5896 47.7346 43.6456C47.8936 43.7638 48.1231 43.9826 48.5424 44.4019L48.9666 43.9776C48.5572 43.5682 48.2943 43.314 48.0925 43.1641C47.9875 43.086 47.8877 43.0273 47.7814 42.9889C47.6728 42.9497 47.573 42.9375 47.4772 42.9344L47.4578 43.5341ZM43.4189 47.3659C45.2591 45.5256 46.2407 44.5515 46.8014 44.0365C47.0841 43.777 47.2452 43.6479 47.3474 43.5833C47.4335 43.5289 47.4542 43.5342 47.4675 43.5342V42.9342C47.3248 42.9342 47.1944 42.9701 47.0266 43.0762C46.875 43.1722 46.6797 43.3338 46.3956 43.5946C45.823 44.1205 44.8301 45.1061 42.9946 46.9416L43.4189 47.3659ZM39.4896 51.2951L43.4189 47.3659L42.9946 46.9416L39.0654 50.8709L39.4896 51.2951ZM33.9637 46.3617C33.9323 46.3617 33.9394 46.3389 34.0643 46.4303C34.1912 46.5231 34.3957 46.7002 34.7512 47.0356C35.4578 47.7023 36.7192 48.9538 39.0656 51.2953L39.4894 50.8706C37.146 48.5321 35.8773 47.2731 35.1629 46.5991C34.8079 46.2642 34.5791 46.0635 34.4186 45.9461C34.2563 45.8273 34.122 45.7617 33.9637 45.7617V46.3617ZM31.7676 48.3896C32.6869 47.4703 33.2154 46.9494 33.5467 46.6573C33.8962 46.3491 33.9601 46.3617 33.9637 46.3617V45.7617C33.7042 45.7617 33.4805 45.9157 33.1499 46.2072C32.8011 46.5147 32.2571 47.0516 31.3434 47.9654L31.7676 48.3896ZM29.6651 50.5906C29.6517 50.6209 29.637 50.6374 29.6486 50.6221C29.6537 50.6152 29.6631 50.6034 29.6779 50.5858C29.7072 50.5509 29.7502 50.5018 29.8068 50.439C29.9193 50.3141 30.079 50.142 30.2746 49.9349C30.6653 49.5211 31.1952 48.9717 31.7694 48.3878L31.3416 47.9671C30.7653 48.5532 30.2324 49.1056 29.8383 49.523C29.6414 49.7315 29.4781 49.9074 29.361 50.0374C29.3026 50.1022 29.2541 50.1574 29.2181 50.2004C29.2003 50.2216 29.1836 50.2422 29.1696 50.2607C29.162 50.2708 29.1352 50.3056 29.1169 50.3469L29.6651 50.5906ZM29.7057 50.7698C29.6921 50.738 29.6807 50.6907 29.6766 50.6396C29.6747 50.6152 29.6747 50.5937 29.6758 50.5768C29.6771 50.5586 29.6792 50.552 29.6783 50.5549L29.1037 50.3825C29.0744 50.4799 29.0708 50.5915 29.0786 50.6878C29.0866 50.7879 29.1094 50.9015 29.1543 51.0062L29.7057 50.7698ZM29.8775 50.9666C29.863 50.9599 29.8287 50.9367 29.7878 50.8916C29.7485 50.848 29.7197 50.8023 29.7057 50.7698L29.1543 51.0062C29.1988 51.1102 29.2675 51.2107 29.3427 51.2939C29.4165 51.3755 29.5138 51.4596 29.626 51.5114L29.8775 50.9666ZM30.1452 50.9613C30.056 50.9978 30.0092 51.0048 29.9833 51.0048C29.9639 51.0048 29.9411 51.0013 29.8988 50.9775L29.6047 51.5005C29.7184 51.5645 29.8418 51.6048 29.9833 51.6048C30.1183 51.6048 30.247 51.5679 30.3723 51.5167L30.1452 50.9613ZM32.0454 49.2134C31.5803 49.6784 31.1232 50.1137 30.7642 50.439C30.5844 50.6019 30.4313 50.7353 30.3151 50.8305C30.2567 50.8783 30.2104 50.9143 30.1761 50.9389C30.1328 50.97 30.131 50.9665 30.1534 50.9581L30.3641 51.5199C30.4255 51.4969 30.4862 51.4549 30.526 51.4264C30.5748 51.3913 30.6322 51.3464 30.6954 51.2946C30.8224 51.1906 30.9836 51.0498 31.1671 50.8836C31.5344 50.5508 31.9987 50.1085 32.4696 49.6376L32.0454 49.2134ZM33.7516 47.5071L32.0454 49.2134L32.4696 49.6376L34.1759 47.9314L33.7516 47.5071ZM39.2775 52.4015C39.2589 52.4015 39.2548 52.4003 39.2485 52.3983C39.2376 52.3947 39.2093 52.3832 39.1529 52.3455C39.0351 52.2667 38.8436 52.1074 38.4964 51.7828C37.8077 51.1389 36.562 49.8981 34.1761 47.5073L33.7514 47.9311C36.1333 50.3179 37.3884 51.5682 38.0866 52.2211C38.433 52.5449 38.6564 52.7353 38.8193 52.8442C38.9031 52.9003 38.9816 52.9422 39.0617 52.9684C39.1466 52.9963 39.2181 53.0015 39.2775 53.0015V52.4015ZM43.3258 48.5701C41.4706 50.4302 40.4919 51.4064 39.9361 51.9176C39.6556 52.1756 39.499 52.2997 39.401 52.3599C39.3552 52.388 39.3314 52.3962 39.3216 52.3989C39.3144 52.4009 39.3071 52.4022 39.2866 52.4016L39.2684 53.0013C39.3283 53.0032 39.3988 52.9999 39.4804 52.9775C39.5594 52.9559 39.6357 52.9199 39.7149 52.8712C39.8671 52.7778 40.0609 52.618 40.3422 52.3592C40.9101 51.8369 41.9009 50.8485 43.7507 48.9938L43.3258 48.5701ZM47.2551 44.6311L43.3259 48.5701L43.7506 48.9939L47.6799 45.0549L47.2551 44.6311ZM50.0513 46.9317C50.1223 46.9317 50.1609 46.9617 50.1333 46.946C50.1197 46.9381 50.0924 46.9202 50.0472 46.8854C49.9577 46.8165 49.8233 46.7013 49.6275 46.5219C49.2375 46.1644 48.6246 45.5709 47.6791 44.6303L47.2559 45.0557C48.2019 45.9968 48.8223 46.5977 49.2221 46.9642C49.4212 47.1467 49.5708 47.2759 49.6812 47.3608C49.7359 47.4029 49.7875 47.4393 49.8351 47.4666C49.8688 47.4859 49.9509 47.5317 50.0513 47.5317V46.9317ZM50.2876 46.8282C50.2472 46.8593 50.1933 46.8899 50.1414 46.9108C50.116 46.9211 50.0952 46.9273 50.0806 46.9305C50.0641 46.9341 50.0648 46.9317 50.0784 46.933L50.0241 47.5305C50.1488 47.5418 50.2752 47.5038 50.3658 47.4673C50.465 47.4273 50.567 47.3702 50.6534 47.3038L50.2876 46.8282ZM52.0626 40.6699C51.3553 43.294 50.9348 44.8327 50.6668 45.7337C50.5324 46.1855 50.439 46.468 50.3691 46.6441C50.3342 46.7323 50.3083 46.7854 50.2902 46.8166C50.2709 46.8496 50.2695 46.8418 50.2905 46.826L50.6505 47.306C50.7203 47.2537 50.77 47.1849 50.8085 47.1187C50.8482 47.0508 50.8867 46.9666 50.9268 46.8654C51.0072 46.6628 51.1069 46.3585 51.2419 45.9047C51.5126 44.9946 51.9354 43.4474 52.6419 40.8261L52.0626 40.6699ZM53.7 34.43C53.7 34.4037 53.7041 34.3851 53.7022 34.3965C53.7016 34.3997 53.7003 34.4067 53.6978 34.4186C53.6929 34.442 53.6852 34.4765 53.6743 34.5225C53.6528 34.614 53.6208 34.7447 53.5791 34.9109C53.4958 35.2429 53.3751 35.7123 53.2259 36.2848C52.9275 37.4295 52.5158 38.9839 52.0625 40.6701L52.642 40.8259C53.0955 39.1385 53.5076 37.5827 53.8065 36.4361C53.9558 35.863 54.0771 35.3915 54.161 35.0569C54.203 34.8898 54.2359 34.7557 54.2584 34.6597C54.2697 34.612 54.2787 34.5719 54.2851 34.5413C54.2883 34.5262 54.2912 34.5112 54.2935 34.4977C54.2944 34.4925 54.3 34.4624 54.3 34.43H53.7ZM53.5441 34.2326C53.5938 34.2823 53.6394 34.3426 53.671 34.396C53.6866 34.4225 53.6961 34.4429 53.7009 34.4554C53.7076 34.4727 53.7 34.4611 53.7 34.43H54.3C54.3 34.355 54.279 34.2873 54.2613 34.2409C54.2417 34.1898 54.2159 34.1388 54.1877 34.091C54.1315 33.9958 54.0552 33.8951 53.9684 33.8084L53.5441 34.2326ZM31.4341 31.895C31.3054 31.9763 31.1802 32.099 31.0775 32.2207C30.973 32.3444 30.8757 32.486 30.8092 32.6189L31.3459 32.8873C31.3867 32.8057 31.4551 32.7035 31.5359 32.6078C31.6184 32.5102 31.698 32.4379 31.7545 32.4022L31.4341 31.895ZM32.4036 31.6243C32.0156 31.6243 31.7083 31.7039 31.423 31.9023L31.7656 32.3949C31.9289 32.2813 32.109 32.2243 32.4036 32.2243V31.6243ZM33.3654 31.8611C33.0951 31.7014 32.7667 31.6243 32.4036 31.6243V32.2243C32.6839 32.2243 32.9015 32.2838 33.0602 32.3776L33.3654 31.8611ZM33.9746 32.4533C33.8389 32.261 33.5782 31.9984 33.3758 31.8675L33.0498 32.3712C33.1789 32.4548 33.3862 32.6602 33.4845 32.7994L33.9746 32.4533ZM34.195 33.5175C34.2051 33.2946 34.2014 33.1113 34.1693 32.943C34.136 32.7686 34.0751 32.6249 33.9894 32.4764L33.4697 32.7763C33.5303 32.8813 33.562 32.9618 33.5799 33.0555C33.599 33.1554 33.605 33.2841 33.5956 33.4902L34.195 33.5175ZM33.7437 34.6158C33.893 34.4565 34.0117 34.3154 34.0864 34.1331C34.1594 33.9548 34.1801 33.7615 34.1947 33.5222L33.5959 33.4855C33.5813 33.724 33.563 33.828 33.5312 33.9057C33.501 33.9793 33.4491 34.0527 33.3059 34.2054L33.7437 34.6158ZM32.9326 35.1452C33.0638 35.1037 33.2149 35.0207 33.3483 34.9331C33.4851 34.8432 33.6265 34.7332 33.7369 34.6227L33.3127 34.1985C33.2379 34.2732 33.1306 34.3582 33.0189 34.4316C32.9036 34.5074 32.806 34.556 32.752 34.573L32.9326 35.1452ZM32.098 35.1917C32.2264 35.2187 32.3799 35.2228 32.5187 35.2146C32.6583 35.2064 32.8089 35.1843 32.9326 35.1452L32.752 34.573C32.6905 34.5924 32.5924 34.6093 32.4834 34.6157C32.3736 34.6221 32.2785 34.6165 32.2216 34.6045L32.098 35.1917ZM31.3461 34.8554C31.54 35.0008 31.8737 35.1444 32.098 35.1917L32.2216 34.6045C32.0754 34.5738 31.8241 34.4639 31.7061 34.3753L31.3461 34.8554ZM30.7942 34.1632C30.8522 34.292 30.9442 34.4286 31.0373 34.5447C31.1302 34.6605 31.2407 34.7763 31.3461 34.8553L31.7061 34.3754C31.6554 34.3374 31.5806 34.2631 31.5053 34.1692C31.4303 34.0757 31.3712 33.9832 31.3414 33.917L30.7942 34.1632ZM30.5923 33.4064C30.5923 33.5237 30.6197 33.6633 30.6544 33.7886C30.6901 33.9179 30.7404 34.0561 30.7995 34.1743L31.3361 33.9059C31.2977 33.8291 31.2603 33.7285 31.2326 33.6286C31.2039 33.5247 31.1923 33.445 31.1923 33.4064H30.5923ZM30.8044 32.629C30.7492 32.7504 30.698 32.8909 30.6601 33.0221C30.6244 33.146 30.5923 33.2892 30.5923 33.4064H31.1923C31.1923 33.3772 31.2041 33.301 31.2366 33.1885C31.267 33.0833 31.3084 32.9703 31.3507 32.8772L30.8044 32.629Z" fill="#595959"/>
</svg>
