<svg width="157" height="55" viewBox="0 0 157 55" fill="none" xmlns="http://www.w3.org/2000/svg">
<g clip-path="url(#clip0_339_12866)">
<g clip-path="url(#clip1_339_12866)">
<g clip-path="url(#clip2_339_12866)">
<g clip-path="url(#clip3_339_12866)">
<g clip-path="url(#clip4_339_12866)">
<g clip-path="url(#clip5_339_12866)">
<path d="M0.257813 27.4026C0.257813 12.4896 12.3471 0.400391 27.26 0.400391C42.173 0.400391 54.2623 12.4896 54.2628 27.4026C54.2628 42.3156 42.1735 54.4048 27.26 54.4053C12.3471 54.4053 0.257813 42.3161 0.257813 27.4026ZM27.26 51.06C40.3256 51.06 50.9174 40.4681 50.9174 27.4026C50.9174 14.3371 40.3256 3.74524 27.26 3.74524C14.1945 3.74524 3.60266 14.3371 3.60266 27.4026C3.60266 40.4681 14.1945 51.06 27.26 51.06Z" fill="black"/>
<g clip-path="url(#clip6_339_12866)">
<g clip-path="url(#clip7_339_12866)">
<path d="M26.6421 21.4369L26.6373 21.4409C26.4409 21.5936 26.252 21.7557 26.0713 21.9268L26.0654 21.9328C25.8848 22.1044 25.7127 22.2848 25.5496 22.4732L25.5476 22.4757C24.4046 23.799 23.7109 25.5205 23.7109 27.4023C23.7109 28.6015 23.9934 29.7354 24.4929 30.7433C25.5201 30.3511 26.3393 29.4947 26.6716 28.4426C26.5916 28.1016 26.5506 27.7526 26.5493 27.4023C26.5493 26.5051 26.8133 25.6641 27.26 24.9454C27.3239 24.8427 27.3915 24.7425 27.4627 24.6448C27.6641 24.3701 27.8941 24.1175 28.1487 23.8912C28.1703 23.8719 28.1907 23.8515 28.2132 23.8328C28.2736 23.7805 28.3375 23.7317 28.4005 23.6826C28.5669 23.552 28.7425 23.4335 28.9259 23.3281C28.9721 23.3014 29.0178 23.2736 29.065 23.2483C29.1839 23.1845 29.3051 23.1243 29.4297 23.0709L29.4331 23.0692C30.0099 22.8215 30.631 22.6937 31.2587 22.6937H38.5675C40.1596 22.6937 41.4502 21.4227 41.4502 19.8553H31.2587V19.8545C29.5865 19.8529 27.9617 20.4098 26.6421 21.4369Z" fill="#4E2FDA"/>
<path d="M41.4567 32.1117H31.2646C31.0353 32.1117 30.8114 32.089 30.5905 32.0566C30.0138 32.961 29.2761 33.7519 28.4141 34.3901C29.3119 34.7575 30.2724 34.9477 31.2425 34.9504H31.2385C31.6149 34.9504 31.9759 35.0999 32.242 35.366C32.5082 35.6322 32.6577 35.9932 32.6577 36.3695V37.7887L41.4567 32.1117Z" fill="#4E2FDA"/>
<path d="M23.2623 22.6936C23.4917 22.6936 23.7156 22.7163 23.9367 22.7487C24.513 21.8441 25.2507 21.0532 26.1132 20.4156C25.2153 20.048 24.2547 19.8576 23.2845 19.855H23.2885C22.9121 19.855 22.5511 19.7055 22.2849 19.4393C22.0188 19.1732 21.8693 18.8122 21.8693 18.4358V17.0166L13.0703 22.6933L23.2623 22.6936Z" fill="#4E2FDA"/>
<path d="M27.263 33.7994C27.4751 33.6659 27.6804 33.5221 27.8784 33.3685L27.8843 33.3637C28.279 33.0563 28.6426 32.7111 28.97 32.3328C28.9712 32.3314 28.9723 32.3297 28.974 32.3283C29.1371 32.1392 29.2908 31.9423 29.4347 31.7382L29.4364 31.7362C30.3312 30.4684 30.8108 28.9544 30.8096 27.4026C30.8096 26.2034 30.5274 25.0694 30.0273 24.0615C29.0001 24.4538 28.181 25.3101 27.8486 26.3626C27.9261 26.6984 27.9712 27.0455 27.9712 27.4026C27.9712 28.2989 27.7078 29.1391 27.2616 29.8572C27.0167 30.2501 26.7169 30.6059 26.3712 30.9139C26.3496 30.9329 26.3292 30.9534 26.3073 30.9718C26.2466 31.0243 26.183 31.0732 26.1197 31.1223C25.9538 31.2526 25.7785 31.3708 25.5955 31.4759C25.5487 31.5032 25.5027 31.5313 25.455 31.5568C25.3373 31.6206 25.2168 31.6791 25.0939 31.7322L25.0871 31.7356C24.5104 31.9834 23.8892 32.1111 23.2615 32.1111H15.9532C14.3609 32.1111 13.0703 33.3822 13.0703 34.9495H23.2623V34.9507C24.7309 34.9507 26.1018 34.5277 27.2625 33.7988C27.2627 33.7997 27.263 33.7994 27.263 33.7994Z" fill="#4E2FDA"/>
</g>
</g>
</g>
</g>
</g>
<mask id="mask0_339_12866" style="mask-type:luminance" maskUnits="userSpaceOnUse" x="0" y="0" width="266" height="55">
<g clip-path="url(#clip8_339_12866)">
<g clip-path="url(#clip9_339_12866)">
<g clip-path="url(#clip10_339_12866)">
<g clip-path="url(#clip11_339_12866)">
<path d="M0.257813 27.4026C0.257813 12.4896 12.3471 0.400391 27.26 0.400391C42.173 0.400391 54.2623 12.4896 54.2628 27.4026C54.2628 42.3156 42.1735 54.4048 27.26 54.4053C12.3471 54.4053 0.257813 42.3161 0.257813 27.4026ZM27.26 51.06C40.3256 51.06 50.9174 40.4681 50.9174 27.4026C50.9174 14.3371 40.3256 3.74524 27.26 3.74524C14.1945 3.74524 3.60266 14.3371 3.60266 27.4026C3.60266 40.4681 14.1945 51.06 27.26 51.06Z" fill="black"/>
<g clip-path="url(#clip12_339_12866)">
<g clip-path="url(#clip13_339_12866)">
<path d="M26.6421 21.4369L26.6373 21.4409C26.4409 21.5936 26.252 21.7557 26.0713 21.9268L26.0654 21.9328C25.8848 22.1044 25.7127 22.2848 25.5496 22.4732L25.5476 22.4757C24.4046 23.799 23.7109 25.5205 23.7109 27.4023C23.7109 28.6015 23.9934 29.7354 24.4929 30.7433C25.5201 30.3511 26.3393 29.4947 26.6716 28.4426C26.5916 28.1016 26.5506 27.7526 26.5493 27.4023C26.5493 26.5051 26.8133 25.6641 27.26 24.9454C27.3239 24.8427 27.3915 24.7425 27.4627 24.6448C27.6641 24.3701 27.8941 24.1175 28.1487 23.8912C28.1703 23.8719 28.1907 23.8515 28.2132 23.8328C28.2736 23.7805 28.3375 23.7317 28.4005 23.6826C28.5669 23.552 28.7425 23.4335 28.9259 23.3281C28.9721 23.3014 29.0178 23.2736 29.065 23.2483C29.1839 23.1845 29.3051 23.1243 29.4297 23.0709L29.4331 23.0692C30.0099 22.8215 30.631 22.6937 31.2587 22.6937H38.5675C40.1596 22.6937 41.4502 21.4227 41.4502 19.8553H31.2587V19.8545C29.5865 19.8529 27.9617 20.4098 26.6421 21.4369Z" fill="black"/>
<path d="M41.4567 32.1117H31.2646C31.0353 32.1117 30.8114 32.089 30.5905 32.0566C30.0138 32.961 29.2761 33.7519 28.4141 34.3901C29.3119 34.7575 30.2724 34.9477 31.2425 34.9504H31.2385C31.6149 34.9504 31.9759 35.0999 32.242 35.366C32.5082 35.6322 32.6577 35.9932 32.6577 36.3695V37.7887L41.4567 32.1117Z" fill="black"/>
<path d="M23.2623 22.6936C23.4917 22.6936 23.7156 22.7163 23.9367 22.7487C24.513 21.8441 25.2507 21.0532 26.1132 20.4156C25.2153 20.048 24.2547 19.8576 23.2845 19.855H23.2885C22.9121 19.855 22.5511 19.7055 22.2849 19.4393C22.0188 19.1732 21.8693 18.8122 21.8693 18.4358V17.0166L13.0703 22.6933L23.2623 22.6936Z" fill="black"/>
<path d="M27.263 33.7994C27.4751 33.6659 27.6804 33.5221 27.8784 33.3685L27.8843 33.3637C28.279 33.0563 28.6426 32.7111 28.97 32.3328C28.9712 32.3314 28.9723 32.3297 28.974 32.3283C29.1371 32.1392 29.2908 31.9423 29.4347 31.7382L29.4364 31.7362C30.3312 30.4684 30.8108 28.9544 30.8096 27.4026C30.8096 26.2034 30.5274 25.0694 30.0273 24.0615C29.0001 24.4538 28.181 25.3101 27.8486 26.3626C27.9261 26.6984 27.9712 27.0455 27.9712 27.4026C27.9712 28.2989 27.7078 29.1391 27.2616 29.8572C27.0167 30.2501 26.7169 30.6059 26.3712 30.9139C26.3496 30.9329 26.3292 30.9534 26.3073 30.9718C26.2466 31.0243 26.183 31.0732 26.1197 31.1223C25.9538 31.2526 25.7785 31.3708 25.5955 31.4759C25.5487 31.5032 25.5027 31.5313 25.455 31.5568C25.3373 31.6206 25.2168 31.6791 25.0939 31.7322L25.0871 31.7356C24.5104 31.9834 23.8892 32.1111 23.2615 32.1111H15.9532C14.3609 32.1111 13.0703 33.3822 13.0703 34.9495H23.2623V34.9507C24.7309 34.9507 26.1018 34.5277 27.2625 33.7988C27.2627 33.7997 27.263 33.7994 27.263 33.7994Z" fill="black"/>
</g>
</g>
</g>
</g>
</g>
</g>
</mask>
<g mask="url(#mask0_339_12866)">
<path d="M265.133 0H0.257812V54.8065H265.133V0Z" fill="url(#paint0_linear_339_12866)"/>
</g>
</g>
</g>
</g>
<path d="M64.1863 32L62.5629 13.3118H66.3338L66.9857 24.5605C67.0113 24.9184 67.0241 25.3147 67.0241 25.7493C67.0326 26.1839 67.0326 26.6142 67.0241 27.0403C67.0156 27.4664 66.9943 27.8456 66.9602 28.178H67.0752C67.1945 27.7945 67.3266 27.4025 67.4715 27.002C67.6164 26.6015 67.774 26.1967 67.9444 25.7876C68.1149 25.3701 68.2938 24.961 68.4813 24.5605L73.9778 13.3118H78.0172L68.4557 32H64.1863ZM82.4527 32.2557C81.3364 32.2557 80.3521 32.0554 79.5 31.6549C78.6563 31.2458 77.9959 30.6323 77.5186 29.8142C77.0414 28.9961 76.8028 27.9692 76.8028 26.7335C76.8028 25.5405 76.9732 24.3901 77.3141 23.2822C77.655 22.1659 78.162 21.1688 78.8353 20.2911C79.517 19.4134 80.3521 18.7188 81.3407 18.2075C82.3377 17.6962 83.4881 17.4406 84.792 17.4406C86.3941 17.4406 87.5914 17.807 88.3839 18.5399C89.1849 19.2642 89.5855 20.1974 89.5855 21.3393C89.5855 22.0892 89.415 22.7709 89.0742 23.3845C88.7418 23.9981 88.2348 24.5264 87.553 24.9695C86.8713 25.4042 86.0148 25.7408 84.9837 25.9794C83.9526 26.2095 82.7425 26.3245 81.3534 26.3245H80.7015C80.693 26.4268 80.6845 26.5162 80.676 26.5929C80.676 26.6696 80.676 26.7549 80.676 26.8486C80.676 27.6156 80.8975 28.2249 81.3407 28.6765C81.7838 29.1282 82.4101 29.354 83.2197 29.354C83.9696 29.354 84.6514 29.2688 85.2649 29.0983C85.8785 28.9279 86.6028 28.6467 87.438 28.2547V31.1563C86.6881 31.5228 85.9254 31.7997 85.1499 31.9872C84.3744 32.1662 83.4754 32.2557 82.4527 32.2557ZM81.1233 23.7296H81.6986C82.6871 23.7296 83.4881 23.6231 84.1017 23.4101C84.7238 23.197 85.1754 22.9158 85.4567 22.5664C85.7464 22.217 85.8913 21.8378 85.8913 21.4287C85.8913 21.0197 85.772 20.7172 85.5334 20.5212C85.3033 20.3167 84.9752 20.2144 84.5491 20.2144C84.0719 20.2144 83.5989 20.3635 83.1302 20.6618C82.6615 20.9601 82.2482 21.3734 81.8903 21.9017C81.5324 22.4301 81.2767 23.0394 81.1233 23.7296ZM89.6749 38.2891C89.2659 38.2891 88.8611 38.255 88.4606 38.1868C88.0515 38.1271 87.7149 38.0547 87.4508 37.9695V34.8761C87.7235 34.9698 87.9748 35.038 88.2049 35.0806C88.435 35.1232 88.6736 35.1445 88.9208 35.1445C89.4406 35.1445 89.8965 34.9698 90.2885 34.6204C90.6805 34.2796 90.9575 33.7299 91.1194 32.9715L93.727 20.6362H91.6435L92.0269 18.7827L94.3662 17.709L94.5963 16.6353C94.7837 15.766 95.0309 15.0332 95.3377 14.4366C95.653 13.8401 96.0279 13.3629 96.4625 13.005C96.8971 12.6385 97.3957 12.3744 97.9581 12.2125C98.5291 12.0505 99.1639 11.9696 99.8627 11.9696C100.451 11.9696 100.992 12.025 101.486 12.1358C101.989 12.2465 102.449 12.3999 102.867 12.5959L101.844 15.4593C101.597 15.3485 101.337 15.2547 101.064 15.178C100.792 15.1013 100.485 15.063 100.144 15.063C99.6582 15.063 99.2662 15.2334 98.9679 15.5743C98.6697 15.9152 98.4694 16.3626 98.3671 16.9165L98.2138 17.709H101.013L100.387 20.6362H97.5746L94.8263 33.5467C94.6474 34.4159 94.3577 35.2084 93.9571 35.9243C93.5651 36.6486 93.0197 37.2238 92.3209 37.6499C91.6307 38.076 90.7487 38.2891 89.6749 38.2891ZM106.638 32.2557C105.564 32.2557 104.614 32.0341 103.787 31.591C102.969 31.1478 102.326 30.5172 101.857 29.6991C101.397 28.8725 101.167 27.8925 101.167 26.7591C101.167 25.745 101.265 24.7778 101.461 23.8575C101.665 22.9286 101.968 22.0764 102.368 21.3009C102.777 20.5169 103.284 19.8394 103.889 19.2685C104.503 18.689 105.214 18.2416 106.024 17.9263C106.834 17.6025 107.745 17.4406 108.759 17.4406C109.867 17.4406 110.826 17.6664 111.636 18.118C112.445 18.5612 113.071 19.2046 113.515 20.0482C113.958 20.8919 114.179 21.9102 114.179 23.1033C114.179 24.0748 114.081 25.0122 113.885 25.9155C113.698 26.8102 113.408 27.6454 113.016 28.4209C112.624 29.1878 112.13 29.861 111.533 30.4405C110.937 31.0115 110.229 31.4589 109.411 31.7827C108.602 32.098 107.677 32.2557 106.638 32.2557ZM106.957 29.1239C107.383 29.1239 107.771 29.0174 108.12 28.8043C108.47 28.5828 108.781 28.2802 109.053 27.8968C109.326 27.5048 109.552 27.0574 109.731 26.5546C109.918 26.0433 110.059 25.4936 110.153 24.9056C110.255 24.3176 110.306 23.7168 110.306 23.1033C110.306 22.6175 110.246 22.1872 110.127 21.8122C110.016 21.4287 109.825 21.1305 109.552 20.9174C109.288 20.6959 108.93 20.5851 108.478 20.5851C108.01 20.5851 107.588 20.7172 107.213 20.9814C106.846 21.237 106.527 21.5821 106.254 22.0168C105.981 22.4514 105.756 22.9371 105.577 23.474C105.398 24.0108 105.261 24.5648 105.168 25.1357C105.082 25.6982 105.04 26.2393 105.04 26.7591C105.04 27.5346 105.197 28.1226 105.513 28.5231C105.828 28.9236 106.309 29.1239 106.957 29.1239ZM123.817 32.2557C121.644 32.2557 119.949 31.6378 118.73 30.4022C117.511 29.158 116.902 27.3514 116.902 24.9823C116.902 23.7126 117.051 22.4854 117.349 21.3009C117.648 20.1164 118.091 19.0256 118.679 18.0286C119.267 17.023 120 16.1453 120.877 15.3953C121.764 14.6454 122.786 14.0617 123.945 13.6441C125.104 13.2266 126.404 13.0178 127.844 13.0178C128.807 13.0178 129.71 13.12 130.554 13.3246C131.398 13.5291 132.241 13.8486 133.085 14.2832L131.615 17.4917C130.993 17.1508 130.362 16.8781 129.723 16.6736C129.092 16.4691 128.406 16.3668 127.665 16.3668C126.515 16.3668 125.513 16.614 124.661 17.1082C123.817 17.594 123.114 18.2416 122.552 19.0512C121.989 19.8522 121.568 20.7427 121.286 21.7228C121.014 22.7028 120.877 23.687 120.877 24.6755C120.877 25.5959 121.005 26.3756 121.261 27.0148C121.517 27.6454 121.921 28.1226 122.475 28.4464C123.038 28.7703 123.762 28.9322 124.648 28.9322C125.083 28.9322 125.462 28.9023 125.786 28.8427C126.11 28.783 126.455 28.7106 126.821 28.6254L127.665 24.8034H124.252L124.968 21.5054H132.164L130.094 31.2458C129.241 31.5356 128.338 31.7784 127.384 31.9744C126.429 32.1619 125.241 32.2557 123.817 32.2557ZM133.877 32L136.907 17.709H140.754L137.725 32H133.877ZM139.451 15.9322C138.905 15.9322 138.445 15.8129 138.07 15.5743C137.704 15.3357 137.52 14.9309 137.52 14.3599C137.52 13.8657 137.61 13.4524 137.789 13.12C137.976 12.7877 138.245 12.5363 138.594 12.3659C138.944 12.1954 139.361 12.1102 139.847 12.1102C140.358 12.1102 140.801 12.221 141.176 12.4425C141.56 12.6641 141.751 13.0646 141.751 13.6441C141.751 14.3259 141.564 14.8798 141.189 15.3059C140.814 15.7234 140.235 15.9322 139.451 15.9322ZM139.898 32L146.021 24.6755L143.145 17.709H147.248L148.718 21.9784L151.837 17.709H156.362L150.393 24.8801L153.511 32H149.344L147.747 27.6283L144.372 32H139.898Z" fill="#D9D9D9"/>
<path d="M64.1863 32L62.5629 13.3118H66.3338L66.9857 24.5605C67.0113 24.9184 67.0241 25.3147 67.0241 25.7493C67.0326 26.1839 67.0326 26.6142 67.0241 27.0403C67.0156 27.4664 66.9943 27.8456 66.9602 28.178H67.0752C67.1945 27.7945 67.3266 27.4025 67.4715 27.002C67.6164 26.6015 67.774 26.1967 67.9444 25.7876C68.1149 25.3701 68.2938 24.961 68.4813 24.5605L73.9778 13.3118H78.0172L68.4557 32H64.1863ZM82.4527 32.2557C81.3364 32.2557 80.3521 32.0554 79.5 31.6549C78.6563 31.2458 77.9959 30.6323 77.5186 29.8142C77.0414 28.9961 76.8028 27.9692 76.8028 26.7335C76.8028 25.5405 76.9732 24.3901 77.3141 23.2822C77.655 22.1659 78.162 21.1688 78.8353 20.2911C79.517 19.4134 80.3521 18.7188 81.3407 18.2075C82.3377 17.6962 83.4881 17.4406 84.792 17.4406C86.3941 17.4406 87.5914 17.807 88.3839 18.5399C89.1849 19.2642 89.5855 20.1974 89.5855 21.3393C89.5855 22.0892 89.415 22.7709 89.0742 23.3845C88.7418 23.9981 88.2348 24.5264 87.553 24.9695C86.8713 25.4042 86.0148 25.7408 84.9837 25.9794C83.9526 26.2095 82.7425 26.3245 81.3534 26.3245H80.7015C80.693 26.4268 80.6845 26.5162 80.676 26.5929C80.676 26.6696 80.676 26.7549 80.676 26.8486C80.676 27.6156 80.8975 28.2249 81.3407 28.6765C81.7838 29.1282 82.4101 29.354 83.2197 29.354C83.9696 29.354 84.6514 29.2688 85.2649 29.0983C85.8785 28.9279 86.6028 28.6467 87.438 28.2547V31.1563C86.6881 31.5228 85.9254 31.7997 85.1499 31.9872C84.3744 32.1662 83.4754 32.2557 82.4527 32.2557ZM81.1233 23.7296H81.6986C82.6871 23.7296 83.4881 23.6231 84.1017 23.4101C84.7238 23.197 85.1754 22.9158 85.4567 22.5664C85.7464 22.217 85.8913 21.8378 85.8913 21.4287C85.8913 21.0197 85.772 20.7172 85.5334 20.5212C85.3033 20.3167 84.9752 20.2144 84.5491 20.2144C84.0719 20.2144 83.5989 20.3635 83.1302 20.6618C82.6615 20.9601 82.2482 21.3734 81.8903 21.9017C81.5324 22.4301 81.2767 23.0394 81.1233 23.7296ZM89.6749 38.2891C89.2659 38.2891 88.8611 38.255 88.4606 38.1868C88.0515 38.1271 87.7149 38.0547 87.4508 37.9695V34.8761C87.7235 34.9698 87.9748 35.038 88.2049 35.0806C88.435 35.1232 88.6736 35.1445 88.9208 35.1445C89.4406 35.1445 89.8965 34.9698 90.2885 34.6204C90.6805 34.2796 90.9575 33.7299 91.1194 32.9715L93.727 20.6362H91.6435L92.0269 18.7827L94.3662 17.709L94.5963 16.6353C94.7837 15.766 95.0309 15.0332 95.3377 14.4366C95.653 13.8401 96.0279 13.3629 96.4625 13.005C96.8971 12.6385 97.3957 12.3744 97.9581 12.2125C98.5291 12.0505 99.1639 11.9696 99.8627 11.9696C100.451 11.9696 100.992 12.025 101.486 12.1358C101.989 12.2465 102.449 12.3999 102.867 12.5959L101.844 15.4593C101.597 15.3485 101.337 15.2547 101.064 15.178C100.792 15.1013 100.485 15.063 100.144 15.063C99.6582 15.063 99.2662 15.2334 98.9679 15.5743C98.6697 15.9152 98.4694 16.3626 98.3671 16.9165L98.2138 17.709H101.013L100.387 20.6362H97.5746L94.8263 33.5467C94.6474 34.4159 94.3577 35.2084 93.9571 35.9243C93.5651 36.6486 93.0197 37.2238 92.3209 37.6499C91.6307 38.076 90.7487 38.2891 89.6749 38.2891ZM106.638 32.2557C105.564 32.2557 104.614 32.0341 103.787 31.591C102.969 31.1478 102.326 30.5172 101.857 29.6991C101.397 28.8725 101.167 27.8925 101.167 26.7591C101.167 25.745 101.265 24.7778 101.461 23.8575C101.665 22.9286 101.968 22.0764 102.368 21.3009C102.777 20.5169 103.284 19.8394 103.889 19.2685C104.503 18.689 105.214 18.2416 106.024 17.9263C106.834 17.6025 107.745 17.4406 108.759 17.4406C109.867 17.4406 110.826 17.6664 111.636 18.118C112.445 18.5612 113.071 19.2046 113.515 20.0482C113.958 20.8919 114.179 21.9102 114.179 23.1033C114.179 24.0748 114.081 25.0122 113.885 25.9155C113.698 26.8102 113.408 27.6454 113.016 28.4209C112.624 29.1878 112.13 29.861 111.533 30.4405C110.937 31.0115 110.229 31.4589 109.411 31.7827C108.602 32.098 107.677 32.2557 106.638 32.2557ZM106.957 29.1239C107.383 29.1239 107.771 29.0174 108.12 28.8043C108.47 28.5828 108.781 28.2802 109.053 27.8968C109.326 27.5048 109.552 27.0574 109.731 26.5546C109.918 26.0433 110.059 25.4936 110.153 24.9056C110.255 24.3176 110.306 23.7168 110.306 23.1033C110.306 22.6175 110.246 22.1872 110.127 21.8122C110.016 21.4287 109.825 21.1305 109.552 20.9174C109.288 20.6959 108.93 20.5851 108.478 20.5851C108.01 20.5851 107.588 20.7172 107.213 20.9814C106.846 21.237 106.527 21.5821 106.254 22.0168C105.981 22.4514 105.756 22.9371 105.577 23.474C105.398 24.0108 105.261 24.5648 105.168 25.1357C105.082 25.6982 105.04 26.2393 105.04 26.7591C105.04 27.5346 105.197 28.1226 105.513 28.5231C105.828 28.9236 106.309 29.1239 106.957 29.1239ZM123.817 32.2557C121.644 32.2557 119.949 31.6378 118.73 30.4022C117.511 29.158 116.902 27.3514 116.902 24.9823C116.902 23.7126 117.051 22.4854 117.349 21.3009C117.648 20.1164 118.091 19.0256 118.679 18.0286C119.267 17.023 120 16.1453 120.877 15.3953C121.764 14.6454 122.786 14.0617 123.945 13.6441C125.104 13.2266 126.404 13.0178 127.844 13.0178C128.807 13.0178 129.71 13.12 130.554 13.3246C131.398 13.5291 132.241 13.8486 133.085 14.2832L131.615 17.4917C130.993 17.1508 130.362 16.8781 129.723 16.6736C129.092 16.4691 128.406 16.3668 127.665 16.3668C126.515 16.3668 125.513 16.614 124.661 17.1082C123.817 17.594 123.114 18.2416 122.552 19.0512C121.989 19.8522 121.568 20.7427 121.286 21.7228C121.014 22.7028 120.877 23.687 120.877 24.6755C120.877 25.5959 121.005 26.3756 121.261 27.0148C121.517 27.6454 121.921 28.1226 122.475 28.4464C123.038 28.7703 123.762 28.9322 124.648 28.9322C125.083 28.9322 125.462 28.9023 125.786 28.8427C126.11 28.783 126.455 28.7106 126.821 28.6254L127.665 24.8034H124.252L124.968 21.5054H132.164L130.094 31.2458C129.241 31.5356 128.338 31.7784 127.384 31.9744C126.429 32.1619 125.241 32.2557 123.817 32.2557ZM133.877 32L136.907 17.709H140.754L137.725 32H133.877ZM139.451 15.9322C138.905 15.9322 138.445 15.8129 138.07 15.5743C137.704 15.3357 137.52 14.9309 137.52 14.3599C137.52 13.8657 137.61 13.4524 137.789 13.12C137.976 12.7877 138.245 12.5363 138.594 12.3659C138.944 12.1954 139.361 12.1102 139.847 12.1102C140.358 12.1102 140.801 12.221 141.176 12.4425C141.56 12.6641 141.751 13.0646 141.751 13.6441C141.751 14.3259 141.564 14.8798 141.189 15.3059C140.814 15.7234 140.235 15.9322 139.451 15.9322ZM139.898 32L146.021 24.6755L143.145 17.709H147.248L148.718 21.9784L151.837 17.709H156.362L150.393 24.8801L153.511 32H149.344L147.747 27.6283L144.372 32H139.898Z" fill="#4E2FDA"/>
<path d="M64.0493 45.8442H66.0317V48.4351C65.7697 48.5216 65.4974 48.5911 65.2148 48.6436C64.9323 48.6937 64.6121 48.7188 64.2544 48.7188C63.7576 48.7188 63.3361 48.6208 62.9897 48.4248C62.6434 48.2288 62.3802 47.9395 62.2002 47.5566C62.0202 47.1738 61.9302 46.7033 61.9302 46.145C61.9302 45.6209 62.0304 45.1675 62.231 44.7847C62.4338 44.4019 62.7288 44.1056 63.1162 43.896C63.5059 43.6864 63.981 43.5815 64.5415 43.5815C64.8058 43.5815 65.0667 43.61 65.3242 43.667C65.5817 43.724 65.8153 43.798 66.0249 43.8892L65.6729 44.7368C65.5202 44.6593 65.3459 44.5944 65.1499 44.542C64.9539 44.4896 64.7489 44.4634 64.5347 44.4634C64.2271 44.4634 63.9593 44.534 63.7314 44.6753C63.5059 44.8166 63.3304 45.0148 63.2051 45.27C63.082 45.5229 63.0205 45.8215 63.0205 46.1655C63.0205 46.4914 63.0649 46.7808 63.1538 47.0337C63.2427 47.2843 63.3828 47.4814 63.5742 47.625C63.7656 47.7663 64.0151 47.8369 64.3228 47.8369C64.4731 47.8369 64.5996 47.8301 64.7021 47.8164C64.807 47.8005 64.9049 47.7845 64.9961 47.7686V46.7261H64.0493V45.8442ZM70.1025 48.6504H67.2246V43.6533H70.1025V44.5215H68.2842V45.6187H69.9761V46.4868H68.2842V47.7754H70.1025V48.6504ZM73.0762 48.6504H72.0166V44.5352H70.6597V43.6533H74.4331V44.5352H73.0762V48.6504ZM81.5562 46.145C81.5562 46.5164 81.5117 46.8571 81.4229 47.167C81.3363 47.4746 81.2018 47.7412 81.0195 47.9668C80.8372 48.1924 80.606 48.369 80.3257 48.4966L81.5288 49.8398H80.1719L79.2559 48.7188C79.2399 48.7188 79.2262 48.7188 79.2148 48.7188C79.2035 48.7188 79.1909 48.7188 79.1772 48.7188C78.7694 48.7188 78.4162 48.6584 78.1177 48.5376C77.8192 48.4146 77.5719 48.2391 77.376 48.0112C77.1823 47.7834 77.0376 47.5111 76.9419 47.1943C76.8462 46.8776 76.7983 46.5256 76.7983 46.1382C76.7983 45.6209 76.8826 45.1709 77.0513 44.7881C77.2222 44.403 77.4842 44.1045 77.8374 43.8926C78.1906 43.6807 78.6395 43.5747 79.1841 43.5747C79.7264 43.5747 80.1719 43.6807 80.5205 43.8926C80.8714 44.1045 81.1312 44.403 81.2998 44.7881C81.4707 45.1732 81.5562 45.6255 81.5562 46.145ZM77.9092 46.145C77.9092 46.4937 77.9525 46.7944 78.0391 47.0474C78.1279 47.298 78.2658 47.4917 78.4526 47.6284C78.6395 47.7629 78.881 47.8301 79.1772 47.8301C79.478 47.8301 79.7218 47.7629 79.9087 47.6284C80.0955 47.4917 80.2311 47.298 80.3154 47.0474C80.402 46.7944 80.4453 46.4937 80.4453 46.145C80.4453 45.6209 80.3473 45.2085 80.1514 44.9077C79.9554 44.6069 79.633 44.4565 79.1841 44.4565C78.8856 44.4565 78.6418 44.5249 78.4526 44.6616C78.2658 44.7961 78.1279 44.9897 78.0391 45.2427C77.9525 45.4933 77.9092 45.7941 77.9092 46.145ZM86.6592 43.6533V46.8867C86.6592 47.2308 86.5828 47.5418 86.4302 47.8198C86.2798 48.0955 86.0508 48.3143 85.7432 48.4761C85.4378 48.6379 85.0527 48.7188 84.5879 48.7188C83.9271 48.7188 83.4235 48.5501 83.0771 48.2129C82.7308 47.8757 82.5576 47.429 82.5576 46.873V43.6533H83.6138V46.7124C83.6138 47.1248 83.6981 47.4142 83.8667 47.5806C84.0353 47.7469 84.2848 47.8301 84.6152 47.8301C84.8477 47.8301 85.0356 47.7902 85.1792 47.7104C85.325 47.6307 85.4321 47.5076 85.5005 47.3413C85.5688 47.175 85.603 46.9631 85.603 46.7056V43.6533H86.6592ZM90.9419 48.6504L90.5796 47.4609H88.7578L88.3955 48.6504H87.2539L89.0176 43.6328H90.313L92.0835 48.6504H90.9419ZM90.3267 46.5723L89.9644 45.4102C89.9416 45.3327 89.9108 45.2336 89.8721 45.1128C89.8356 44.9897 89.798 44.8656 89.7593 44.7402C89.7228 44.6126 89.6932 44.5021 89.6704 44.4087C89.6476 44.5021 89.6157 44.6183 89.5747 44.7573C89.536 44.894 89.4984 45.0239 89.4619 45.147C89.4255 45.27 89.3993 45.3577 89.3833 45.4102L89.0244 46.5723H90.3267ZM92.7158 48.6504V43.6533H93.7754V47.7754H95.8022V48.6504H92.7158ZM96.6738 48.6504V43.6533H97.7334V48.6504H96.6738ZM100.919 48.6504H99.8594V44.5352H98.5024V43.6533H102.276V44.5352H100.919V48.6504ZM104.6 45.7109L105.643 43.6533H106.784L105.126 46.7056V48.6504H104.074V46.7397L102.416 43.6533H103.564L104.6 45.7109ZM111.128 45.8442H113.111V48.4351C112.849 48.5216 112.576 48.5911 112.294 48.6436C112.011 48.6937 111.691 48.7188 111.333 48.7188C110.837 48.7188 110.415 48.6208 110.069 48.4248C109.722 48.2288 109.459 47.9395 109.279 47.5566C109.099 47.1738 109.009 46.7033 109.009 46.145C109.009 45.6209 109.11 45.1675 109.31 44.7847C109.513 44.4019 109.808 44.1056 110.195 43.896C110.585 43.6864 111.06 43.5815 111.621 43.5815C111.885 43.5815 112.146 43.61 112.403 43.667C112.661 43.724 112.894 43.798 113.104 43.8892L112.752 44.7368C112.599 44.6593 112.425 44.5944 112.229 44.542C112.033 44.4896 111.828 44.4634 111.614 44.4634C111.306 44.4634 111.038 44.534 110.811 44.6753C110.585 44.8166 110.41 45.0148 110.284 45.27C110.161 45.5229 110.1 45.8215 110.1 46.1655C110.1 46.4914 110.144 46.7808 110.233 47.0337C110.322 47.2843 110.462 47.4814 110.653 47.625C110.845 47.7663 111.094 47.8369 111.402 47.8369C111.552 47.8369 111.679 47.8301 111.781 47.8164C111.886 47.8005 111.984 47.7845 112.075 47.7686V46.7261H111.128V45.8442ZM118.371 43.6533V46.8867C118.371 47.2308 118.295 47.5418 118.142 47.8198C117.992 48.0955 117.763 48.3143 117.455 48.4761C117.15 48.6379 116.765 48.7188 116.3 48.7188C115.639 48.7188 115.135 48.5501 114.789 48.2129C114.443 47.8757 114.27 47.429 114.27 46.873V43.6533H115.326V46.7124C115.326 47.1248 115.41 47.4142 115.579 47.5806C115.747 47.7469 115.997 47.8301 116.327 47.8301C116.56 47.8301 116.748 47.7902 116.891 47.7104C117.037 47.6307 117.144 47.5076 117.212 47.3413C117.281 47.175 117.315 46.9631 117.315 46.7056V43.6533H118.371ZM122.473 48.6504H119.595V43.6533H122.473V44.5215H120.654V45.6187H122.346V46.4868H120.654V47.7754H122.473V48.6504ZM126.468 47.2627C126.468 47.5589 126.396 47.8164 126.253 48.0352C126.109 48.2539 125.9 48.4225 125.624 48.541C125.351 48.6595 125.018 48.7188 124.626 48.7188C124.453 48.7188 124.283 48.7074 124.117 48.6846C123.953 48.6618 123.794 48.6287 123.642 48.5854C123.491 48.5399 123.348 48.484 123.211 48.418V47.4336C123.448 47.5384 123.694 47.633 123.949 47.7173C124.204 47.8016 124.457 47.8438 124.708 47.8438C124.881 47.8438 125.02 47.821 125.125 47.7754C125.232 47.7298 125.31 47.6672 125.357 47.5874C125.405 47.5076 125.429 47.4165 125.429 47.314C125.429 47.1886 125.387 47.0815 125.303 46.9927C125.218 46.9038 125.102 46.8206 124.954 46.7432C124.808 46.6657 124.643 46.5825 124.458 46.4937C124.342 46.439 124.216 46.3729 124.079 46.2954C123.942 46.2157 123.812 46.1188 123.689 46.0049C123.566 45.891 123.465 45.7531 123.385 45.5913C123.308 45.4272 123.269 45.2313 123.269 45.0034C123.269 44.7049 123.337 44.4497 123.474 44.2378C123.611 44.0259 123.806 43.8641 124.059 43.7524C124.314 43.6385 124.615 43.5815 124.961 43.5815C125.221 43.5815 125.468 43.6123 125.703 43.6738C125.94 43.7331 126.187 43.8197 126.444 43.9336L126.103 44.7573C125.872 44.6639 125.666 44.5921 125.484 44.542C125.302 44.4896 125.116 44.4634 124.927 44.4634C124.795 44.4634 124.682 44.485 124.588 44.5283C124.495 44.5693 124.424 44.6286 124.376 44.7061C124.329 44.7812 124.305 44.869 124.305 44.9692C124.305 45.0877 124.339 45.188 124.407 45.27C124.478 45.3498 124.583 45.4272 124.722 45.5024C124.863 45.5776 125.038 45.6654 125.248 45.7656C125.503 45.8864 125.721 46.0129 125.901 46.145C126.083 46.2749 126.223 46.4287 126.321 46.6064C126.419 46.7819 126.468 47.0007 126.468 47.2627ZM129.302 48.6504H128.242V44.5352H126.885V43.6533H130.659V44.5352H129.302V48.6504ZM134.842 43.6533C135.487 43.6533 135.958 43.7923 136.254 44.0703C136.55 44.346 136.698 44.7266 136.698 45.2119C136.698 45.4307 136.665 45.6403 136.599 45.8408C136.533 46.0391 136.425 46.2157 136.274 46.3706C136.126 46.5256 135.928 46.6486 135.68 46.7397C135.431 46.8286 135.125 46.873 134.76 46.873H134.306V48.6504H133.246V43.6533H134.842ZM134.788 44.5215H134.306V46.0049H134.654C134.853 46.0049 135.025 45.9787 135.17 45.9263C135.316 45.8739 135.429 45.7918 135.509 45.6802C135.589 45.5685 135.628 45.425 135.628 45.2495C135.628 45.0034 135.56 44.8211 135.423 44.7026C135.287 44.5819 135.075 44.5215 134.788 44.5215ZM142.177 46.145C142.177 46.5301 142.129 46.881 142.034 47.1978C141.938 47.5122 141.792 47.7834 141.596 48.0112C141.403 48.2391 141.156 48.4146 140.858 48.5376C140.559 48.6584 140.206 48.7188 139.798 48.7188C139.39 48.7188 139.037 48.6584 138.739 48.5376C138.44 48.4146 138.193 48.2391 137.997 48.0112C137.803 47.7834 137.659 47.5111 137.563 47.1943C137.467 46.8776 137.419 46.5256 137.419 46.1382C137.419 45.6209 137.504 45.1709 137.672 44.7881C137.843 44.403 138.105 44.1045 138.458 43.8926C138.812 43.6807 139.261 43.5747 139.805 43.5747C140.347 43.5747 140.793 43.6807 141.142 43.8926C141.493 44.1045 141.752 44.403 141.921 44.7881C142.092 45.1732 142.177 45.6255 142.177 46.145ZM138.53 46.145C138.53 46.4937 138.574 46.7944 138.66 47.0474C138.749 47.298 138.887 47.4917 139.074 47.6284C139.261 47.7629 139.502 47.8301 139.798 47.8301C140.099 47.8301 140.343 47.7629 140.53 47.6284C140.717 47.4917 140.852 47.298 140.937 47.0474C141.023 46.7944 141.066 46.4937 141.066 46.145C141.066 45.6209 140.968 45.2085 140.772 44.9077C140.576 44.6069 140.254 44.4565 139.805 44.4565C139.507 44.4565 139.263 44.5249 139.074 44.6616C138.887 44.7961 138.749 44.9897 138.66 45.2427C138.574 45.4933 138.53 45.7941 138.53 46.145ZM146.163 47.2627C146.163 47.5589 146.091 47.8164 145.947 48.0352C145.804 48.2539 145.594 48.4225 145.318 48.541C145.045 48.6595 144.712 48.7188 144.32 48.7188C144.147 48.7188 143.977 48.7074 143.811 48.6846C143.647 48.6618 143.489 48.6287 143.336 48.5854C143.186 48.5399 143.042 48.484 142.905 48.418V47.4336C143.142 47.5384 143.388 47.633 143.644 47.7173C143.899 47.8016 144.152 47.8438 144.402 47.8438C144.576 47.8438 144.715 47.821 144.819 47.7754C144.926 47.7298 145.004 47.6672 145.052 47.5874C145.1 47.5076 145.124 47.4165 145.124 47.314C145.124 47.1886 145.081 47.0815 144.997 46.9927C144.913 46.9038 144.797 46.8206 144.648 46.7432C144.503 46.6657 144.337 46.5825 144.153 46.4937C144.037 46.439 143.91 46.3729 143.773 46.2954C143.637 46.2157 143.507 46.1188 143.384 46.0049C143.261 45.891 143.159 45.7531 143.08 45.5913C143.002 45.4272 142.963 45.2313 142.963 45.0034C142.963 44.7049 143.032 44.4497 143.168 44.2378C143.305 44.0259 143.5 43.8641 143.753 43.7524C144.008 43.6385 144.309 43.5815 144.655 43.5815C144.915 43.5815 145.162 43.6123 145.397 43.6738C145.634 43.7331 145.881 43.8197 146.139 43.9336L145.797 44.7573C145.567 44.6639 145.361 44.5921 145.178 44.542C144.996 44.4896 144.81 44.4634 144.621 44.4634C144.489 44.4634 144.376 44.485 144.283 44.5283C144.189 44.5693 144.119 44.6286 144.071 44.7061C144.023 44.7812 143.999 44.869 143.999 44.9692C143.999 45.0877 144.033 45.188 144.102 45.27C144.172 45.3498 144.277 45.4272 144.416 45.5024C144.557 45.5776 144.733 45.6654 144.942 45.7656C145.198 45.8864 145.415 46.0129 145.595 46.145C145.778 46.2749 145.918 46.4287 146.016 46.6064C146.114 46.7819 146.163 47.0007 146.163 47.2627ZM148.996 48.6504H147.937V44.5352H146.58V43.6533H150.353V44.5352H148.996V48.6504ZM154.072 47.2627C154.072 47.5589 154 47.8164 153.856 48.0352C153.713 48.2539 153.503 48.4225 153.228 48.541C152.954 48.6595 152.621 48.7188 152.229 48.7188C152.056 48.7188 151.887 48.7074 151.72 48.6846C151.556 48.6618 151.398 48.6287 151.245 48.5854C151.095 48.5399 150.951 48.484 150.814 48.418V47.4336C151.051 47.5384 151.298 47.633 151.553 47.7173C151.808 47.8016 152.061 47.8438 152.312 47.8438C152.485 47.8438 152.624 47.821 152.729 47.7754C152.836 47.7298 152.913 47.6672 152.961 47.5874C153.009 47.5076 153.033 47.4165 153.033 47.314C153.033 47.1886 152.991 47.0815 152.906 46.9927C152.822 46.9038 152.706 46.8206 152.558 46.7432C152.412 46.6657 152.247 46.5825 152.062 46.4937C151.946 46.439 151.819 46.3729 151.683 46.2954C151.546 46.2157 151.416 46.1188 151.293 46.0049C151.17 45.891 151.069 45.7531 150.989 45.5913C150.911 45.4272 150.873 45.2313 150.873 45.0034C150.873 44.7049 150.941 44.4497 151.078 44.2378C151.214 44.0259 151.409 43.8641 151.662 43.7524C151.917 43.6385 152.218 43.5815 152.564 43.5815C152.824 43.5815 153.071 43.6123 153.306 43.6738C153.543 43.7331 153.79 43.8197 154.048 43.9336L153.706 44.7573C153.476 44.6639 153.27 44.5921 153.087 44.542C152.905 44.4896 152.719 44.4634 152.53 44.4634C152.398 44.4634 152.285 44.485 152.192 44.5283C152.098 44.5693 152.028 44.6286 151.98 44.7061C151.932 44.7812 151.908 44.869 151.908 44.9692C151.908 45.0877 151.942 45.188 152.011 45.27C152.081 45.3498 152.186 45.4272 152.325 45.5024C152.466 45.5776 152.642 45.6654 152.852 45.7656C153.107 45.8864 153.324 46.0129 153.504 46.145C153.687 46.2749 153.827 46.4287 153.925 46.6064C154.023 46.7819 154.072 47.0007 154.072 47.2627Z" fill="black"/>
<defs>
<linearGradient id="paint0_linear_339_12866" x1="0.257813" y1="30.034" x2="265.11" y2="32.594" gradientUnits="userSpaceOnUse">
<stop stop-color="#FF6CAB"/>
<stop offset="1" stop-color="#7366FF"/>
</linearGradient>
<clipPath id="clip0_339_12866">
<rect width="54.9756" height="54.9145" fill="white"/>
</clipPath>
<clipPath id="clip1_339_12866">
<rect width="265.715" height="54.9145" fill="white" transform="translate(-0.164062 -0.0546875)"/>
</clipPath>
<clipPath id="clip2_339_12866">
<rect width="264.876" height="54.8065" fill="white" transform="translate(0.257812)"/>
</clipPath>
<clipPath id="clip3_339_12866">
<rect width="264.876" height="54.8065" fill="white" transform="translate(0.257812)"/>
</clipPath>
<clipPath id="clip4_339_12866">
<rect width="54.0048" height="54.0048" fill="white" transform="translate(0.257812 0.400391)"/>
</clipPath>
<clipPath id="clip5_339_12866">
<rect width="54.0048" height="54.0048" fill="white" transform="translate(0.257812 0.400391)"/>
</clipPath>
<clipPath id="clip6_339_12866">
<rect width="28.3837" height="20.7723" fill="white" transform="translate(13.0703 17.0166)"/>
</clipPath>
<clipPath id="clip7_339_12866">
<rect width="28.3837" height="20.7723" fill="white" transform="translate(13.0703 17.0166)"/>
</clipPath>
<clipPath id="clip8_339_12866">
<rect width="264.876" height="54.8065" fill="white" transform="translate(0.257812)"/>
</clipPath>
<clipPath id="clip9_339_12866">
<rect width="264.876" height="54.8065" fill="white" transform="translate(0.257812)"/>
</clipPath>
<clipPath id="clip10_339_12866">
<rect width="54.0048" height="54.0048" fill="white" transform="translate(0.257812 0.400391)"/>
</clipPath>
<clipPath id="clip11_339_12866">
<rect width="54.0048" height="54.0048" fill="white" transform="translate(0.257812 0.400391)"/>
</clipPath>
<clipPath id="clip12_339_12866">
<rect width="28.3837" height="20.7723" fill="white" transform="translate(13.0703 17.0166)"/>
</clipPath>
<clipPath id="clip13_339_12866">
<rect width="28.3837" height="20.7723" fill="white" transform="translate(13.0703 17.0166)"/>
</clipPath>
</defs>
</svg>
