<svg width="69" height="68" viewBox="0 0 69 68" fill="none" xmlns="http://www.w3.org/2000/svg">
<rect width="69" height="68" rx="15" fill="#FAF9F6"/>
<path fill-rule="evenodd" clip-rule="evenodd" d="M33.1687 13.1879C33.3875 12.7815 33.7002 12.3751 33.8877 12.2501C34.0753 12.125 34.5754 12 35.0131 12C35.4507 12 35.9509 12.125 36.1385 12.2501C36.326 12.3751 36.6386 12.7815 36.8575 13.1566C37.045 13.563 37.1388 14.0319 37.045 14.1882C36.9512 14.3758 37.5765 14.5008 38.6706 14.5008C39.7959 14.4696 40.6087 14.6259 40.8275 14.876C41.0464 15.0948 41.2652 15.7513 41.5778 17.3143H45.1728C48.7364 17.3143 48.7677 17.3143 49.3929 18.1583C50.0494 19.0336 50.0494 19.315 49.9556 36.6333L49.9545 36.8291C49.8618 53.8299 49.8594 54.2659 49.2366 54.7018C48.7052 55.077 46.3294 55.1395 34.9193 55.1395C21.6649 55.1395 21.2272 55.1082 20.6333 54.5143C20.0081 53.889 20.0081 53.4514 20.0081 36.477C19.9768 19.4087 20.0081 19.0023 20.6333 18.1896C21.2585 17.3143 21.2897 17.3143 28.4484 17.3143L28.636 16.3139C28.761 15.7513 28.9173 15.0948 29.0423 14.9072C29.1674 14.6571 29.9489 14.5008 31.1993 14.5008C32.3872 14.5008 33.0749 14.3758 32.9812 14.1882C32.8874 14.0319 32.9812 13.563 33.1687 13.1879ZM34.3253 14.0946C34.2941 13.8446 34.3878 13.5632 34.5441 13.4382C34.7004 13.3444 34.9505 13.2819 35.1381 13.3444C35.3256 13.4069 35.5132 13.6883 35.5445 13.9696C35.607 14.3135 35.4194 14.501 35.013 14.501C34.6692 14.501 34.3566 14.3135 34.3253 14.0946ZM29.2299 19.5965C29.2924 19.2839 29.5112 18.3773 29.73 17.5646L30.0739 16.0641H40.0147L40.3273 17.5646C40.3938 17.8525 40.4641 18.1522 40.5301 18.4331C40.6503 18.9451 40.7559 19.3946 40.7962 19.5965C40.9525 20.0967 40.5149 20.1279 35.013 20.1279C29.5112 20.1279 29.0735 20.0967 29.2299 19.5965ZM21.6648 36.5709C21.6023 27.099 21.6648 19.1901 21.7273 18.9713C21.8524 18.6587 22.6964 18.5962 27.9794 18.7525L27.8856 19.534C27.8781 19.5833 27.87 19.6349 27.8617 19.688C27.8018 20.0728 27.7293 20.5372 27.7293 20.7844C27.6981 21.1595 28.6984 21.2533 42.3593 21.2533L42.203 18.5962L48.2987 18.7525V53.7642H21.7273L21.6648 36.5709Z" fill="#595959"/>
<path d="M33.8877 12.2501L33.7213 12.0005L33.7213 12.0005L33.8877 12.2501ZM33.1687 13.1879L32.9045 13.0456L32.9004 13.0537L33.1687 13.1879ZM36.1385 12.2501L36.3049 12.0005L36.3049 12.0005L36.1385 12.2501ZM36.8575 13.1566L37.1298 13.0309L37.1238 13.0179L37.1166 13.0055L36.8575 13.1566ZM37.045 14.1882L36.7878 14.0339L36.7818 14.0438L36.7767 14.0541L37.045 14.1882ZM38.6706 14.5008V14.801L38.6789 14.8007L38.6706 14.5008ZM40.8275 14.876L40.6018 15.0735L40.6083 15.081L40.6154 15.0881L40.8275 14.876ZM41.5778 17.3143L41.2836 17.3731L41.3319 17.6143H41.5778V17.3143ZM49.3929 18.1583L49.1518 18.3369L49.1529 18.3383L49.3929 18.1583ZM49.9556 36.6333L50.2556 36.6349L50.2556 36.6349L49.9556 36.6333ZM49.9545 36.8291L50.2545 36.8308L50.2545 36.8308L49.9545 36.8291ZM49.2366 54.7018L49.0646 54.4561L49.0636 54.4567L49.2366 54.7018ZM20.6333 54.5143L20.8454 54.3021L20.8454 54.3021L20.6333 54.5143ZM20.0081 36.477L20.3081 36.477L20.3081 36.4764L20.0081 36.477ZM20.6333 18.1896L20.8712 18.3726L20.8774 18.3639L20.6333 18.1896ZM28.4484 17.3143V17.6143H28.6974L28.7432 17.3696L28.4484 17.3143ZM28.636 16.3139L28.3429 16.2488L28.3411 16.2587L28.636 16.3139ZM29.0423 14.9072L29.292 15.0736L29.3023 15.0581L29.3107 15.0414L29.0423 14.9072ZM32.9812 14.1882L33.2495 14.0541L33.2443 14.0438L33.2384 14.0339L32.9812 14.1882ZM34.5441 13.4382L34.3898 13.1809L34.3725 13.1913L34.3567 13.2039L34.5441 13.4382ZM34.3253 14.0946L34.0276 14.1319L34.0283 14.1371L34.3253 14.0946ZM35.5445 13.9696L35.2463 14.0027L35.2474 14.0131L35.2493 14.0233L35.5445 13.9696ZM29.73 17.5646L30.0199 17.6426L30.0224 17.6316L29.73 17.5646ZM29.2299 19.5965L29.5162 19.686L29.5209 19.6709L29.524 19.6553L29.2299 19.5965ZM30.0739 16.0641V15.7641H29.8349L29.7815 15.997L30.0739 16.0641ZM40.0147 16.0641L40.3084 16.0029L40.2587 15.7641H40.0147V16.0641ZM40.3273 17.5646L40.0336 17.6258L40.035 17.632L40.3273 17.5646ZM40.5301 18.4331L40.8222 18.3645L40.8222 18.3645L40.5301 18.4331ZM40.7962 19.5965L40.5021 19.6553L40.5052 19.6709L40.5099 19.686L40.7962 19.5965ZM21.7273 18.9713L21.4488 18.8599L21.4431 18.8741L21.4389 18.8889L21.7273 18.9713ZM21.6648 36.5709L21.9648 36.5698L21.9648 36.569L21.6648 36.5709ZM27.9794 18.7525L28.2773 18.7882L28.3164 18.4623L27.9883 18.4526L27.9794 18.7525ZM27.8856 19.534L28.1823 19.5796L28.1835 19.5697L27.8856 19.534ZM27.8617 19.688L28.1582 19.7342L28.1582 19.7342L27.8617 19.688ZM27.7293 20.7844L28.0283 20.8093L28.0293 20.7969V20.7844H27.7293ZM42.3593 21.2533V21.5533H42.6774L42.6587 21.2357L42.3593 21.2533ZM42.203 18.5962L42.2106 18.2963L41.8843 18.2879L41.9035 18.6138L42.203 18.5962ZM48.2987 18.7525H48.5987V18.4601L48.3064 18.4526L48.2987 18.7525ZM48.2987 53.7642V54.0642H48.5987V53.7642H48.2987ZM21.7273 53.7642L21.4273 53.7653L21.4284 54.0642H21.7273V53.7642ZM33.7213 12.0005C33.5841 12.0919 33.4343 12.2584 33.3019 12.4308C33.1634 12.6113 33.0218 12.828 32.9046 13.0457L33.4329 13.3301C33.5345 13.1414 33.6586 12.9517 33.7779 12.7961C33.9035 12.6325 34.0037 12.5333 34.0541 12.4997L33.7213 12.0005ZM35.0131 11.7C34.7682 11.7 34.5109 11.7347 34.2892 11.7858C34.0766 11.8349 33.8614 11.9071 33.7213 12.0005L34.0541 12.4997C34.1016 12.4681 34.2303 12.4152 34.4241 12.3705C34.6087 12.3279 34.8204 12.3 35.0131 12.3V11.7ZM36.3049 12.0005C36.1648 11.9071 35.9496 11.8349 35.737 11.7858C35.5153 11.7347 35.258 11.7 35.0131 11.7V12.3C35.2058 12.3 35.4175 12.3279 35.6021 12.3705C35.7959 12.4152 35.9246 12.4681 35.9721 12.4997L36.3049 12.0005ZM37.1166 13.0055C37.0003 12.8062 36.8597 12.5994 36.7221 12.4242C36.5911 12.2575 36.4413 12.0914 36.3049 12.0005L35.9721 12.4997C36.0232 12.5338 36.1235 12.6334 36.2503 12.7949C36.3706 12.948 36.4957 13.132 36.5983 13.3078L37.1166 13.0055ZM37.3023 14.3426C37.3659 14.2366 37.3798 14.1152 37.3816 14.0243C37.3836 13.9252 37.3716 13.8177 37.3516 13.7109C37.3115 13.4968 37.233 13.2544 37.1298 13.0309L36.5851 13.2824C36.6695 13.4653 36.7317 13.6605 36.7619 13.8215C36.777 13.9023 36.7826 13.9667 36.7817 14.0122C36.7806 14.0659 36.7711 14.0617 36.7878 14.0339L37.3023 14.3426ZM38.6706 14.2008C38.1305 14.2008 37.723 14.1697 37.4696 14.1204C37.3367 14.0945 37.2768 14.0692 37.2617 14.06C37.2541 14.0554 37.2882 14.0729 37.3135 14.1257C37.347 14.1955 37.3392 14.2707 37.3134 14.3224L36.7767 14.0541C36.7274 14.1527 36.7186 14.2728 36.7726 14.3853C36.8185 14.4809 36.8946 14.5389 36.9495 14.5724C37.0594 14.6394 37.2067 14.6805 37.3551 14.7094C37.6644 14.7695 38.1165 14.8008 38.6706 14.8008V14.2008ZM41.0533 14.6784C40.9531 14.5639 40.8104 14.4854 40.6669 14.4285C40.5181 14.3696 40.3401 14.3231 40.1419 14.2876C39.7449 14.2166 39.2389 14.1849 38.6622 14.201L38.6789 14.8007C39.2276 14.7855 39.6907 14.8164 40.0362 14.8782C40.2092 14.9092 40.3457 14.9467 40.446 14.9864C40.5516 15.0282 40.5926 15.063 40.6018 15.0735L41.0533 14.6784ZM41.872 17.2554C41.7151 16.471 41.5798 15.9037 41.4538 15.5014C41.3323 15.1134 41.2058 14.8299 41.0397 14.6638L40.6154 15.0881C40.6681 15.1408 40.7604 15.295 40.8812 15.6807C40.9975 16.0521 41.1279 16.5946 41.2836 17.3731L41.872 17.2554ZM45.1728 17.0143H41.5778V17.6143H45.1728V17.0143ZM49.634 17.9797C49.4828 17.7756 49.3413 17.5843 49.1597 17.4372C48.9666 17.2808 48.7442 17.1853 48.4432 17.1255C47.8745 17.0126 46.9345 17.0143 45.1728 17.0143V17.6143C46.9747 17.6143 47.8322 17.6159 48.3263 17.714C48.5567 17.7598 48.6822 17.8226 48.7821 17.9035C48.8936 17.9938 48.9904 18.119 49.1519 18.3369L49.634 17.9797ZM50.2556 36.6349C50.3025 27.9796 50.326 23.5721 50.2555 21.2207C50.2203 20.0485 50.1615 19.3653 50.0642 18.9155C49.9614 18.4402 49.8136 18.2192 49.6329 17.9783L49.1529 18.3383C49.3005 18.5351 49.3989 18.6775 49.4778 19.0423C49.5622 19.4326 49.6206 20.0662 49.6557 21.2387C49.7259 23.5763 49.7025 27.9686 49.6556 36.6316L50.2556 36.6349ZM50.2545 36.8308L50.2556 36.6349L49.6556 36.6316L49.6545 36.8275L50.2545 36.8308ZM49.4087 54.9476C49.4974 54.8855 49.5996 54.8066 49.6895 54.6762C49.7772 54.549 49.8403 54.3918 49.89 54.1868C49.9873 53.7858 50.0492 53.1306 50.0941 51.9891C50.1844 49.6939 50.2082 45.3274 50.2545 36.8308L49.6545 36.8275C49.6082 45.3317 49.5844 49.6835 49.4946 51.9655C49.4495 53.1125 49.3882 53.7106 49.307 54.0453C49.2675 54.2081 49.2275 54.2893 49.1955 54.3357C49.1656 54.379 49.1316 54.4092 49.0646 54.4561L49.4087 54.9476ZM34.9193 55.4395C40.6229 55.4395 44.0744 55.4239 46.1664 55.3612C47.2114 55.3299 47.9263 55.2866 48.4166 55.2262C48.8908 55.1678 49.2089 55.0886 49.4096 54.9469L49.0636 54.4567C48.9986 54.5026 48.8204 54.5719 48.3432 54.6307C47.882 54.6875 47.1902 54.7302 46.1485 54.7615C44.0673 54.8238 40.6258 54.8395 34.9193 54.8395V55.4395ZM20.4211 54.7264C20.5016 54.8068 20.5931 54.8918 20.7179 54.9678C20.8429 55.044 20.989 55.104 21.1765 55.1528C21.5418 55.2481 22.0947 55.3083 23.0152 55.3493C24.8642 55.4317 28.2963 55.4395 34.9193 55.4395V54.8395C28.2879 54.8395 24.8739 54.8316 23.042 54.7499C22.122 54.7089 21.6257 54.6499 21.3278 54.5722C21.1836 54.5346 21.0945 54.4947 21.0301 54.4555C20.9655 54.4161 20.9134 54.3702 20.8454 54.3021L20.4211 54.7264ZM19.7081 36.477C19.7081 44.9604 19.708 49.3208 19.7864 51.6367C19.8254 52.79 19.8843 53.4597 19.979 53.8845C20.0274 54.1014 20.0875 54.2663 20.1663 54.4045C20.2458 54.544 20.3362 54.6414 20.4211 54.7264L20.8454 54.3021C20.7741 54.2308 20.7277 54.1778 20.6875 54.1074C20.6466 54.0356 20.6042 53.9312 20.5646 53.7539C20.4835 53.3903 20.4252 52.7725 20.386 51.6164C20.3081 49.3136 20.3081 44.9679 20.3081 36.477H19.7081ZM20.3955 18.0067C20.219 18.2361 20.0761 18.4539 19.9742 18.9264C19.8776 19.3742 19.8157 20.0585 19.7747 21.2269C19.6924 23.5708 19.6924 27.9469 19.7081 36.4775L20.3081 36.4764C20.2924 27.9388 20.2925 23.5776 20.3743 21.248C20.4153 20.0797 20.4765 19.4433 20.5607 19.0529C20.6395 18.6873 20.7349 18.5495 20.8711 18.3725L20.3955 18.0067ZM28.4484 17.0143C24.8812 17.0143 23.0598 17.0137 22.0575 17.1255C21.5539 17.1817 21.215 17.2697 20.9557 17.4271C20.6929 17.5867 20.5415 17.802 20.3891 18.0152L20.8774 18.3639C21.0377 18.1395 21.1245 18.0266 21.2672 17.94C21.4133 17.8512 21.6469 17.7751 22.124 17.7218C23.0834 17.6148 24.8569 17.6143 28.4484 17.6143V17.0143ZM28.3411 16.2587L28.1535 17.259L28.7432 17.3696L28.9308 16.3692L28.3411 16.2587ZM28.7927 14.7408C28.7395 14.8207 28.6962 14.927 28.6608 15.027C28.6232 15.1335 28.5858 15.2585 28.5497 15.391C28.4774 15.6562 28.4058 15.9669 28.3431 16.2489L28.9288 16.379C28.9912 16.0983 29.0602 15.7994 29.1286 15.5489C29.1628 15.4234 29.1958 15.314 29.2265 15.227C29.2595 15.1337 29.2827 15.0875 29.292 15.0736L28.7927 14.7408ZM31.1993 14.2008C30.5644 14.2008 30.0356 14.2403 29.6424 14.3156C29.4466 14.3531 29.2729 14.4016 29.1329 14.4648C29.0026 14.5236 28.8521 14.6168 28.774 14.7731L29.3107 15.0414C29.2951 15.0726 29.2891 15.0525 29.3797 15.0117C29.4604 14.9752 29.5837 14.9377 29.7552 14.9049C30.0966 14.8395 30.5838 14.8008 31.1993 14.8008V14.2008ZM32.7128 14.3224C32.6821 14.2609 32.6797 14.1772 32.7194 14.1072C32.7474 14.0581 32.78 14.0451 32.7657 14.0528C32.7404 14.0667 32.666 14.0933 32.5185 14.1195C32.2353 14.1697 31.7867 14.2008 31.1993 14.2008V14.8008C31.7998 14.8008 32.289 14.7695 32.6232 14.7103C32.7845 14.6817 32.9386 14.642 33.053 14.5796C33.1086 14.5493 33.1888 14.4956 33.241 14.4038C33.3051 14.2911 33.3037 14.1625 33.2495 14.0541L32.7128 14.3224ZM32.9004 13.0537C32.7945 13.2654 32.7152 13.5026 32.6748 13.7137C32.6546 13.8192 32.6426 13.926 32.6446 14.0249C32.6464 14.1154 32.6604 14.2367 32.7239 14.3426L33.2384 14.0339C33.255 14.0616 33.2455 14.0657 33.2445 14.0126C33.2435 13.9678 33.2491 13.9047 33.2641 13.8265C33.294 13.6704 33.3553 13.4855 33.437 13.3221L32.9004 13.0537ZM34.3567 13.2039C34.2199 13.3133 34.1308 13.4716 34.0798 13.6247C34.0277 13.781 34.006 13.9589 34.0276 14.1319L34.623 14.0574C34.6133 13.9803 34.6229 13.8925 34.649 13.8144C34.6761 13.7329 34.712 13.688 34.7315 13.6724L34.3567 13.2039ZM35.2329 13.0598C35.0761 13.0075 34.9121 13.0123 34.7748 13.0377C34.6357 13.0634 34.5001 13.1148 34.3898 13.1809L34.6985 13.6954C34.7445 13.6678 34.8121 13.641 34.884 13.6277C34.9577 13.614 35.0125 13.6187 35.0432 13.629L35.2329 13.0598ZM35.8426 13.9365C35.8213 13.7445 35.7484 13.5594 35.6508 13.4105C35.5577 13.2684 35.4164 13.1209 35.2329 13.0598L35.0432 13.629C35.0418 13.6285 35.0541 13.6328 35.0768 13.653C35.0987 13.6724 35.124 13.7013 35.1489 13.7393C35.1999 13.8171 35.2364 13.9133 35.2463 14.0027L35.8426 13.9365ZM35.013 14.801C35.2522 14.801 35.4958 14.7473 35.6667 14.5764C35.849 14.3941 35.8818 14.148 35.8396 13.9159L35.2493 14.0233C35.2596 14.0796 35.2565 14.1135 35.2526 14.1306C35.2493 14.145 35.2452 14.1494 35.2425 14.1521C35.2336 14.161 35.1803 14.201 35.013 14.201V14.801ZM34.0283 14.1371C34.062 14.3726 34.2337 14.5398 34.3988 14.6379C34.5721 14.7407 34.7894 14.801 35.013 14.801V14.201C34.8928 14.201 34.7819 14.1675 34.7051 14.1219C34.6201 14.0715 34.6199 14.0355 34.6223 14.0522L34.0283 14.1371ZM29.4403 17.4866C29.221 18.3013 29.0001 19.2154 28.9357 19.5377L29.524 19.6553C29.5846 19.3524 29.8014 18.4533 30.0197 17.6426L29.4403 17.4866ZM29.7815 15.997L29.4376 17.4975L30.0224 17.6316L30.3663 16.1311L29.7815 15.997ZM40.0147 15.7641H30.0739V16.3641H40.0147V15.7641ZM40.621 17.5034L40.3084 16.0029L39.721 16.1252L40.0336 17.6257L40.621 17.5034ZM40.8222 18.3645C40.7562 18.0835 40.6859 17.7844 40.6196 17.4971L40.035 17.632C40.1016 17.9206 40.1721 18.2209 40.238 18.5017L40.8222 18.3645ZM41.0904 19.5377C41.0488 19.3295 40.9416 18.8731 40.8222 18.3645L40.238 18.5017C40.3591 19.0171 40.4629 19.4598 40.5021 19.6553L41.0904 19.5377ZM35.013 20.4279C37.7557 20.4279 39.2587 20.4204 40.0535 20.3485C40.2541 20.3304 40.4193 20.3074 40.5527 20.2769C40.6821 20.2473 40.805 20.2056 40.9039 20.1366C41.0151 20.059 41.0925 19.9486 41.1145 19.8101C41.1335 19.6909 41.1057 19.5811 41.0826 19.507L40.5099 19.686C40.5258 19.737 40.5185 19.7375 40.522 19.7158C40.5244 19.7009 40.5305 19.683 40.5414 19.6663C40.5518 19.6506 40.5612 19.6441 40.5606 19.6445C40.5545 19.6488 40.5188 19.6691 40.4188 19.692C40.3228 19.714 40.1876 19.734 39.9994 19.751C39.239 19.8198 37.7722 19.8279 35.013 19.8279V20.4279ZM28.9435 19.507C28.9204 19.5811 28.8926 19.6909 28.9115 19.8101C28.9336 19.9486 29.011 20.059 29.1222 20.1366C29.2211 20.2056 29.3439 20.2473 29.4734 20.2769C29.6068 20.3074 29.772 20.3304 29.9726 20.3485C30.7674 20.4204 32.2704 20.4279 35.013 20.4279V19.8279C32.2539 19.8279 30.7871 19.8198 30.0267 19.751C29.8385 19.734 29.7033 19.714 29.6072 19.692C29.5072 19.6691 29.4716 19.6488 29.4655 19.6445C29.4649 19.6441 29.4743 19.6506 29.4846 19.6663C29.4956 19.683 29.5017 19.7009 29.5041 19.7158C29.5075 19.7375 29.5003 19.737 29.5162 19.686L28.9435 19.507ZM21.4389 18.8889C21.4278 18.9277 21.4241 18.9711 21.4227 18.9873C21.4203 19.0141 21.4181 19.0472 21.4161 19.0849C21.412 19.1607 21.4081 19.2643 21.4043 19.393C21.3966 19.6509 21.3893 20.0165 21.3824 20.4771C21.3687 21.3987 21.357 22.7049 21.3492 24.2997C21.3336 27.4895 21.3336 31.8358 21.3648 36.5729L21.9648 36.569C21.9336 31.8341 21.9336 27.49 21.9492 24.3027C21.957 22.7089 21.9687 21.4049 21.9824 20.486C21.9892 20.0264 21.9965 19.6642 22.004 19.4107C22.0078 19.2837 22.0115 19.1857 22.0152 19.117C22.0171 19.0824 22.0188 19.0575 22.0203 19.041C22.0227 19.0139 22.023 19.0285 22.0158 19.0537L21.4389 18.8889ZM27.9883 18.4526C25.3493 18.3745 23.8066 18.3506 22.9073 18.3863C22.4611 18.404 22.1507 18.4368 21.9374 18.4932C21.7244 18.5495 21.5328 18.6497 21.4488 18.8599L22.0059 19.0827C21.9844 19.1365 21.9452 19.1117 22.0907 19.0733C22.236 19.0349 22.4902 19.0033 22.931 18.9858C23.8057 18.9511 25.3265 18.9741 27.9706 19.0523L27.9883 18.4526ZM28.1835 19.5697L28.2773 18.7882L27.6816 18.7167L27.5878 19.4982L28.1835 19.5697ZM28.1582 19.7342C28.1664 19.6812 28.1745 19.6292 28.1822 19.5796L27.5891 19.4884C27.5816 19.5373 27.5736 19.5886 27.5653 19.6418L28.1582 19.7342ZM28.0293 20.7844C28.0293 20.5667 28.0961 20.1319 28.1582 19.7342L27.5653 19.6418C27.5074 20.0136 27.4293 20.5077 27.4293 20.7844H28.0293ZM42.3593 20.9533C35.5269 20.9533 31.8677 20.9298 29.9206 20.8597C28.9412 20.8245 28.4159 20.7778 28.1408 20.7219C27.9973 20.6928 27.9638 20.6685 27.9692 20.6727C27.9781 20.6794 27.9999 20.6993 28.015 20.7353C28.0297 20.7703 28.0292 20.7992 28.0283 20.8093L27.4304 20.7595C27.4256 20.8165 27.4292 20.89 27.4618 20.9677C27.4948 21.0463 27.5482 21.1067 27.6081 21.1518C27.7157 21.2329 27.8619 21.2775 28.0213 21.3099C28.3518 21.3771 28.9246 21.4242 29.899 21.4593C31.8594 21.5299 35.5308 21.5533 42.3593 21.5533V20.9533ZM41.9035 18.6138L42.0598 21.2709L42.6587 21.2357L42.5024 18.5785L41.9035 18.6138ZM48.3064 18.4526L42.2106 18.2963L42.1953 18.8961L48.2911 19.0524L48.3064 18.4526ZM48.5987 53.7642V18.7525H47.9987V53.7642H48.5987ZM21.7273 54.0642H48.2987V53.4642H21.7273V54.0642ZM21.3648 36.572L21.4273 53.7653L22.0273 53.7631L21.9648 36.5698L21.3648 36.572Z" fill="#595959"/>
<path d="M28.7002 26.6293C27.5749 27.7547 27.5123 27.7547 26.8871 27.2545C26.5433 26.9419 26.1056 26.7543 25.9493 26.8481C25.793 26.9419 25.6367 27.192 25.6367 27.4108C25.6367 27.5984 26.0118 28.1611 26.4808 28.63C26.9809 29.0989 27.5123 29.5053 27.6687 29.5053C27.825 29.5053 28.7002 28.8175 29.5443 27.9735C30.6384 26.8481 31.0448 26.2542 30.8885 25.9103C30.7322 25.6602 30.4508 25.4414 30.232 25.4414C30.0132 25.4414 29.3255 25.9728 28.7002 26.6293ZM32.3577 28.5675C32.2639 28.755 32.2639 29.0364 32.3577 29.1927C32.4515 29.3802 34.796 29.5053 38.4535 29.5053C44.1742 29.5053 44.393 29.474 44.393 28.8801C44.393 28.2861 44.1742 28.2549 38.4535 28.2549C34.8273 28.2549 32.4828 28.3799 32.3577 28.5675ZM28.9191 32.0061C27.825 33.1002 27.6061 33.194 27.1997 32.7876C26.9497 32.5375 26.4808 32.3187 26.1994 32.3187C25.8555 32.3187 25.6367 32.5375 25.6367 32.8814C25.6367 33.1627 25.9493 33.7254 26.3244 34.1006C26.7308 34.5069 27.2623 34.8196 27.5123 34.8196C27.7624 34.8196 28.7002 34.1318 29.5443 33.2878C30.6384 32.1624 31.0448 31.5685 30.8885 31.2246C30.7322 30.9745 30.5134 30.7557 30.3883 30.7557C30.2633 30.7557 29.5755 31.3184 28.9191 32.0061ZM32.3577 33.8817C32.2639 34.0693 32.2639 34.3194 32.3577 34.5069C32.4515 34.6945 34.796 34.8196 38.4535 34.8196C44.1742 34.8196 44.393 34.7883 44.393 34.1943C44.393 33.6004 44.1742 33.5691 38.4535 33.5691C34.8273 33.5691 32.4828 33.6942 32.3577 33.8817ZM28.7002 37.5705C27.6061 38.6646 27.5123 38.6959 26.9809 38.1957C26.6683 37.8831 26.2307 37.633 26.0431 37.633C25.8243 37.633 25.6367 37.8831 25.6367 38.1957C25.6367 38.477 26.0431 39.1335 26.5745 39.6649L27.5123 40.6027C30.1695 37.9456 30.951 36.9765 30.951 36.789C30.951 36.5701 30.7009 36.3826 30.3883 36.3826C30.107 36.3826 29.3255 36.914 28.7002 37.5705ZM32.5453 39.2585C32.2952 39.5711 32.2952 39.7587 32.5765 40.0401C32.8892 40.3214 34.4834 40.4152 38.6098 40.3527C44.0179 40.2901 44.2367 40.2589 44.2367 39.6649C44.2367 39.071 43.9866 39.0397 38.5786 38.9459C34.2959 38.8834 32.8266 38.9772 32.5453 39.2585Z" fill="#595959" stroke="#595959" stroke-width="0.6"/>
</svg>
