<svg width="355" height="146" viewBox="0 0 355 146" fill="none" xmlns="http://www.w3.org/2000/svg">
<rect width="355" height="146" rx="8" fill="white"/>
<path d="M334.442 118.966C335.205 118.966 335.882 119.166 336.473 119.566C337.064 119.967 337.531 120.51 337.874 121.196C338.217 121.883 338.389 122.645 338.389 123.484C338.389 124.857 337.941 126.201 337.045 127.517C336.13 128.851 334.843 129.948 333.184 130.806L329.981 129.09C331.068 128.556 331.992 127.936 332.755 127.231C333.499 126.525 334.004 125.696 334.271 124.743C333.375 124.666 332.65 124.39 332.097 123.913C331.525 123.456 331.239 122.817 331.239 121.997C331.239 121.177 331.535 120.462 332.126 119.852C332.698 119.261 333.47 118.966 334.442 118.966ZM343.994 118.966C344.757 118.966 345.434 119.166 346.025 119.566C346.616 119.967 347.083 120.51 347.426 121.196C347.769 121.883 347.941 122.645 347.941 123.484C347.941 124.857 347.493 126.201 346.597 127.517C345.682 128.851 344.395 129.948 342.736 130.806L339.533 129.09C340.62 128.556 341.544 127.936 342.307 127.231C343.051 126.525 343.556 125.696 343.823 124.743C342.927 124.666 342.202 124.39 341.649 123.913C341.077 123.456 340.791 122.817 340.791 121.997C340.791 121.177 341.087 120.462 341.678 119.852C342.25 119.261 343.022 118.966 343.994 118.966Z" fill="#344C92"/>
<path d="M22.5577 27.0343C21.7951 27.0343 21.1182 26.8341 20.5272 26.4337C19.9361 26.0333 19.469 25.49 19.1258 24.8036C18.7827 24.1172 18.6111 23.3546 18.6111 22.5157C18.6111 21.143 19.0591 19.7988 19.9552 18.4833C20.8704 17.1487 22.1573 16.0524 23.816 15.1944L27.0191 16.9104C25.9323 17.4442 25.0076 18.0638 24.245 18.7693C23.5014 19.4747 22.9962 20.3041 22.7293 21.2574C23.6254 21.3336 24.3499 21.6101 24.9028 22.0867C25.4748 22.5443 25.7607 23.183 25.7607 24.0028C25.7607 24.8227 25.4652 25.5376 24.8742 26.1477C24.3022 26.7388 23.53 27.0343 22.5577 27.0343ZM13.0057 27.0343C12.2431 27.0343 11.5663 26.8341 10.9752 26.4337C10.3842 26.0333 9.91707 25.49 9.57388 24.8036C9.2307 24.1172 9.05911 23.3546 9.05911 22.5157C9.05911 21.143 9.50715 19.7988 10.4032 18.4833C11.3184 17.1487 12.6053 16.0524 14.2641 15.1944L17.4671 16.9104C16.3804 17.4442 15.4557 18.0638 14.693 18.7693C13.9495 19.4747 13.4442 20.3041 13.1773 21.2574C14.0734 21.3336 14.7979 21.6101 15.3508 22.0867C15.9228 22.5443 16.2088 23.183 16.2088 24.0028C16.2088 24.8227 15.9133 25.5376 15.3222 26.1477C14.7502 26.7388 13.9781 27.0343 13.0057 27.0343Z" fill="#344C92"/>
</svg>
