<svg width="105" height="38" viewBox="0 0 105 38" fill="none" xmlns="http://www.w3.org/2000/svg">
<path d="M56.0117 4.44664C56.0117 4.6684 55.9876 4.87412 55.9395 5.06378C55.8928 5.25199 55.8184 5.41832 55.7162 5.56275C55.6156 5.70573 55.4835 5.82245 55.3201 5.91291L56.1014 6.81237H55.0247L54.4863 6.09455C54.4849 6.09455 54.4797 6.09455 54.471 6.09455C54.4637 6.09455 54.4586 6.09455 54.4557 6.09455C54.1872 6.09455 53.9545 6.05589 53.7576 5.97856C53.5621 5.89978 53.4008 5.78817 53.2739 5.64373C53.147 5.49783 53.0529 5.32348 52.9916 5.12068C52.9303 4.91789 52.8997 4.69175 52.8997 4.44226C52.8997 4.10961 52.9544 3.82074 53.0638 3.57563C53.1747 3.32906 53.3454 3.13867 53.5759 3.00444C53.8064 2.86876 54.1011 2.80091 54.46 2.80091C54.8248 2.80091 55.121 2.86876 55.3486 3.00444C55.5776 3.14012 55.7454 3.33125 55.8519 3.57782C55.9584 3.82438 56.0117 4.11399 56.0117 4.44664ZM53.8101 4.44664C53.8101 4.63922 53.832 4.80482 53.8757 4.94342C53.9195 5.08202 53.9888 5.18853 54.0836 5.26293C54.1785 5.33734 54.3025 5.37455 54.4557 5.37455C54.6147 5.37455 54.7409 5.33734 54.8343 5.26293C54.9291 5.18853 54.997 5.08202 55.0378 4.94342C55.0801 4.80482 55.1013 4.63922 55.1013 4.44664C55.1013 4.15776 55.0531 3.92943 54.9568 3.76165C54.8605 3.59387 54.6949 3.50998 54.46 3.50998C54.3039 3.50998 54.1777 3.54791 54.0814 3.62378C53.9866 3.69964 53.9173 3.80761 53.8735 3.94767C53.8312 4.08773 53.8101 4.25405 53.8101 4.44664ZM59.3097 2.85125V4.7771C59.3097 5.04555 59.2586 5.27898 59.1565 5.4774C59.0544 5.67437 58.9012 5.82683 58.6969 5.93479C58.4927 6.0413 58.2366 6.09455 57.9288 6.09455C57.4882 6.09455 57.1519 5.98148 56.9199 5.75534C56.6879 5.5292 56.5719 5.20968 56.5719 4.79679V2.85125H57.4407V4.72895C57.4407 4.95509 57.483 5.11923 57.5677 5.22135C57.6523 5.32348 57.777 5.37455 57.9419 5.37455C58.0601 5.37455 58.1564 5.35266 58.2308 5.30889C58.3052 5.26366 58.3592 5.1929 58.3927 5.09661C58.4277 5.00032 58.4452 4.87631 58.4452 4.72457V2.85125H59.3097ZM61.9446 6.05078L61.787 5.45114H60.7475L60.5856 6.05078H59.6358L60.6797 2.83812H61.833L62.89 6.05078H61.9446ZM61.6076 4.74208L61.4697 4.21685C61.4551 4.15995 61.434 4.07898 61.4062 3.97393C61.3785 3.86742 61.3508 3.758 61.3231 3.64566C61.2968 3.53186 61.2764 3.43849 61.2618 3.36554C61.2487 3.43849 61.2297 3.52894 61.2049 3.63691C61.1816 3.74341 61.1567 3.84919 61.1305 3.95423C61.1057 4.05928 61.0838 4.14682 61.0648 4.21685L60.927 4.74208H61.6076ZM63.238 6.05078V2.85125H64.1024V5.35266H65.3345V6.05078H63.238ZM65.8466 6.05078V2.85125H66.7154V6.05078H65.8466ZM68.8207 6.05078H67.9563V3.55812H67.175V2.85125H69.5998V3.55812H68.8207V6.05078ZM71.1996 4.03739L71.7511 2.85125H72.6878L71.6351 4.80117V6.05078H70.7641V4.82743L69.7115 2.85125H70.6525L71.1996 4.03739ZM75.4824 4.17746H76.8633V5.90197C76.6985 5.95887 76.5095 6.00555 76.2965 6.04203C76.0835 6.07704 75.8603 6.09455 75.6269 6.09455C75.319 6.09455 75.0491 6.03473 74.8171 5.9151C74.5852 5.79546 74.4042 5.61382 74.2744 5.37017C74.1445 5.12506 74.0796 4.81576 74.0796 4.44226C74.0796 4.1067 74.1438 3.81709 74.2722 3.57344C74.4006 3.32833 74.5895 3.1394 74.839 3.00663C75.09 2.8724 75.3971 2.80529 75.7604 2.80529C75.9602 2.80529 76.1499 2.82426 76.3294 2.86219C76.5088 2.90012 76.6649 2.94827 76.7977 3.00663L76.5241 3.68505C76.4089 3.62815 76.2892 3.58584 76.1652 3.55812C76.0412 3.52894 75.9077 3.51435 75.7647 3.51435C75.5736 3.51435 75.4197 3.55739 75.303 3.64347C75.1877 3.72955 75.1038 3.84481 75.0513 3.98925C74.9988 4.13223 74.9725 4.29053 74.9725 4.46415C74.9725 4.66257 75.0002 4.83035 75.0557 4.96749C75.1126 5.10318 75.195 5.20676 75.303 5.27825C75.4124 5.34828 75.5444 5.3833 75.6991 5.3833C75.7502 5.3833 75.8122 5.37965 75.8851 5.37236C75.9595 5.36506 76.0157 5.35631 76.0536 5.3461V4.84494H75.4824V4.17746ZM80.2358 2.85125V4.7771C80.2358 5.04555 80.1847 5.27898 80.0826 5.4774C79.9805 5.67437 79.8273 5.82683 79.623 5.93479C79.4187 6.0413 79.1627 6.09455 78.8549 6.09455C78.4142 6.09455 78.0779 5.98148 77.846 5.75534C77.614 5.5292 77.498 5.20968 77.498 4.79679V2.85125H78.3668V4.72895C78.3668 4.95509 78.4091 5.11923 78.4938 5.22135C78.5784 5.32348 78.7031 5.37455 78.868 5.37455C78.9862 5.37455 79.0825 5.35266 79.1569 5.30889C79.2313 5.26366 79.2852 5.1929 79.3188 5.09661C79.3538 5.00032 79.3713 4.87631 79.3713 4.72457V2.85125H80.2358ZM82.8072 6.05078H80.9076V2.85125H82.8072V3.54499H81.7721V4.04834H82.7306V4.74208H81.7721V5.3461H82.8072V6.05078ZM85.4596 5.0791C85.4596 5.25272 85.4159 5.41759 85.3283 5.5737C85.2408 5.72835 85.1044 5.85382 84.9191 5.95011C84.7353 6.0464 84.4974 6.09455 84.2056 6.09455C84.0597 6.09455 83.9314 6.08799 83.8205 6.07485C83.7111 6.06172 83.6089 6.04057 83.5141 6.01139C83.4193 5.98075 83.3208 5.94136 83.2186 5.89321V5.12287C83.3923 5.21041 83.5673 5.27752 83.7439 5.32421C83.9204 5.36944 84.0802 5.39205 84.2232 5.39205C84.3092 5.39205 84.3793 5.38184 84.4332 5.36142C84.4887 5.34099 84.5295 5.31327 84.5558 5.27825C84.5821 5.24178 84.5952 5.2002 84.5952 5.15351C84.5952 5.09807 84.5755 5.05138 84.5361 5.01345C84.4982 4.97406 84.4369 4.93321 84.3523 4.8909C84.2677 4.84859 84.156 4.79606 84.0174 4.73333C83.8993 4.67789 83.792 4.62099 83.6957 4.56263C83.6009 4.50427 83.5192 4.43788 83.4506 4.36348C83.3835 4.28761 83.3317 4.19934 83.2952 4.09867C83.2588 3.998 83.2405 3.8791 83.2405 3.74195C83.2405 3.53624 83.2909 3.36408 83.3915 3.22547C83.4937 3.08541 83.6352 2.98037 83.8161 2.91034C83.9985 2.84031 84.2086 2.80529 84.4464 2.80529C84.655 2.80529 84.8425 2.82863 85.0088 2.87532C85.1766 2.92201 85.3269 2.97526 85.4596 3.03508L85.1948 3.70256C85.0577 3.63982 84.9227 3.59022 84.79 3.55374C84.6572 3.51581 84.5339 3.49684 84.4201 3.49684C84.3457 3.49684 84.2844 3.50633 84.2363 3.52529C84.1896 3.5428 84.1546 3.56688 84.1312 3.59751C84.1094 3.62815 84.0984 3.66317 84.0984 3.70256C84.0984 3.75217 84.1174 3.79666 84.1553 3.83606C84.1947 3.87545 84.2596 3.91849 84.3501 3.96518C84.442 4.0104 84.5667 4.06949 84.7243 4.14244C84.8804 4.21247 85.0132 4.28834 85.1226 4.37004C85.232 4.45028 85.3152 4.54731 85.3721 4.66111C85.4305 4.77345 85.4596 4.91278 85.4596 5.0791ZM87.3658 6.05078H86.5013V3.55812H85.7201V2.85125H88.1449V3.55812H87.3658V6.05078ZM90.8739 2.85125C91.2795 2.85125 91.583 2.93952 91.7843 3.11605C91.9871 3.29259 92.0885 3.54353 92.0885 3.86888C92.0885 4.01478 92.0673 4.15484 92.025 4.28907C91.9842 4.42329 91.9163 4.54293 91.8215 4.64798C91.7281 4.75302 91.6034 4.83618 91.4473 4.89746C91.2926 4.95874 91.1015 4.98938 90.8739 4.98938H90.631V6.05078H89.7665V2.85125H90.8739ZM90.8542 3.54937H90.631V4.28469H90.8017C90.8761 4.28469 90.9454 4.27229 91.0096 4.24749C91.0738 4.22123 91.1248 4.17964 91.1628 4.12274C91.2022 4.06439 91.2219 3.98706 91.2219 3.89077C91.2219 3.7901 91.1919 3.7084 91.1321 3.64566C91.0723 3.58146 90.9797 3.54937 90.8542 3.54937ZM95.5922 4.44664C95.5922 4.6932 95.5623 4.91789 95.5025 5.12068C95.4441 5.32202 95.3522 5.49564 95.2267 5.64154C95.1013 5.78744 94.9401 5.89978 94.7431 5.97856C94.5461 6.05589 94.3105 6.09455 94.0362 6.09455C93.7678 6.09455 93.5351 6.05589 93.3381 5.97856C93.1426 5.89978 92.9814 5.78817 92.8545 5.64373C92.7275 5.49783 92.6334 5.32348 92.5721 5.12068C92.5109 4.91789 92.4802 4.69175 92.4802 4.44226C92.4802 4.10961 92.5349 3.82074 92.6444 3.57563C92.7552 3.32906 92.9259 3.13867 93.1565 3.00444C93.387 2.86876 93.6817 2.80091 94.0406 2.80091C94.4053 2.80091 94.7015 2.86876 94.9291 3.00444C95.1582 3.14012 95.326 3.33125 95.4325 3.57782C95.539 3.82438 95.5922 4.11399 95.5922 4.44664ZM93.3906 4.44664C93.3906 4.63922 93.4125 4.80482 93.4563 4.94342C93.5 5.08202 93.5694 5.18853 93.6642 5.26293C93.759 5.33734 93.883 5.37455 94.0362 5.37455C94.1953 5.37455 94.3215 5.33734 94.4148 5.26293C94.5097 5.18853 94.5775 5.08202 94.6184 4.94342C94.6607 4.80482 94.6818 4.63922 94.6818 4.44664C94.6818 4.15776 94.6337 3.92943 94.5374 3.76165C94.4411 3.59387 94.2755 3.50998 94.0406 3.50998C93.8845 3.50998 93.7583 3.54791 93.662 3.62378C93.5672 3.69964 93.4979 3.80761 93.4541 3.94767C93.4118 4.08773 93.3906 4.25405 93.3906 4.44664ZM98.2621 5.0791C98.2621 5.25272 98.2184 5.41759 98.1308 5.5737C98.0433 5.72835 97.9069 5.85382 97.7216 5.95011C97.5378 6.0464 97.2999 6.09455 97.0082 6.09455C96.8623 6.09455 96.7339 6.08799 96.623 6.07485C96.5136 6.06172 96.4114 6.04057 96.3166 6.01139C96.2218 5.98075 96.1233 5.94136 96.0212 5.89321V5.12287C96.1948 5.21041 96.3699 5.27752 96.5464 5.32421C96.7229 5.36944 96.8827 5.39205 97.0257 5.39205C97.1117 5.39205 97.1818 5.38184 97.2358 5.36142C97.2912 5.34099 97.332 5.31327 97.3583 5.27825C97.3846 5.24178 97.3977 5.2002 97.3977 5.15351C97.3977 5.09807 97.378 5.05138 97.3386 5.01345C97.3007 4.97406 97.2394 4.93321 97.1548 4.8909C97.0702 4.84859 96.9585 4.79606 96.8199 4.73333C96.7018 4.67789 96.5945 4.62099 96.4982 4.56263C96.4034 4.50427 96.3217 4.43788 96.2531 4.36348C96.186 4.28761 96.1342 4.19934 96.0978 4.09867C96.0613 3.998 96.043 3.8791 96.043 3.74195C96.043 3.53624 96.0934 3.36408 96.194 3.22547C96.2962 3.08541 96.4377 2.98037 96.6186 2.91034C96.801 2.84031 97.0111 2.80529 97.2489 2.80529C97.4575 2.80529 97.645 2.82863 97.8113 2.87532C97.9791 2.92201 98.1294 2.97526 98.2621 3.03508L97.9973 3.70256C97.8602 3.63982 97.7252 3.59022 97.5925 3.55374C97.4597 3.51581 97.3364 3.49684 97.2226 3.49684C97.1482 3.49684 97.0869 3.50633 97.0388 3.52529C96.9921 3.5428 96.9571 3.56688 96.9337 3.59751C96.9119 3.62815 96.9009 3.66317 96.9009 3.70256C96.9009 3.75217 96.9199 3.79666 96.9578 3.83606C96.9972 3.87545 97.0621 3.91849 97.1526 3.96518C97.2445 4.0104 97.3693 4.06949 97.5268 4.14244C97.6829 4.21247 97.8157 4.28834 97.9251 4.37004C98.0345 4.45028 98.1177 4.54731 98.1746 4.66111C98.233 4.77345 98.2621 4.91278 98.2621 5.0791ZM100.168 6.05078H99.3039V3.55812H98.5226V2.85125H100.947V3.55812H100.168V6.05078ZM103.497 5.0791C103.497 5.25272 103.453 5.41759 103.366 5.5737C103.278 5.72835 103.142 5.85382 102.956 5.95011C102.773 6.0464 102.535 6.09455 102.243 6.09455C102.097 6.09455 101.969 6.08799 101.858 6.07485C101.748 6.06172 101.646 6.04057 101.551 6.01139C101.457 5.98075 101.358 5.94136 101.256 5.89321V5.12287C101.43 5.21041 101.605 5.27752 101.781 5.32421C101.958 5.36944 102.117 5.39205 102.26 5.39205C102.347 5.39205 102.417 5.38184 102.471 5.36142C102.526 5.34099 102.567 5.31327 102.593 5.27825C102.619 5.24178 102.633 5.2002 102.633 5.15351C102.633 5.09807 102.613 5.05138 102.573 5.01345C102.535 4.97406 102.474 4.93321 102.39 4.8909C102.305 4.84859 102.193 4.79606 102.055 4.73333C101.937 4.67789 101.829 4.62099 101.733 4.56263C101.638 4.50427 101.557 4.43788 101.488 4.36348C101.421 4.28761 101.369 4.19934 101.333 4.09867C101.296 3.998 101.278 3.8791 101.278 3.74195C101.278 3.53624 101.328 3.36408 101.429 3.22547C101.531 3.08541 101.673 2.98037 101.853 2.91034C102.036 2.84031 102.246 2.80529 102.484 2.80529C102.692 2.80529 102.88 2.82863 103.046 2.87532C103.214 2.92201 103.364 2.97526 103.497 3.03508L103.232 3.70256C103.095 3.63982 102.96 3.59022 102.827 3.55374C102.695 3.51581 102.571 3.49684 102.457 3.49684C102.383 3.49684 102.322 3.50633 102.274 3.52529C102.227 3.5428 102.192 3.56688 102.169 3.59751C102.147 3.62815 102.136 3.66317 102.136 3.70256C102.136 3.75217 102.155 3.79666 102.193 3.83606C102.232 3.87545 102.297 3.91849 102.387 3.96518C102.479 4.0104 102.604 4.06949 102.762 4.14244C102.918 4.21247 103.051 4.28834 103.16 4.37004C103.269 4.45028 103.353 4.54731 103.409 4.66111C103.468 4.77345 103.497 4.91278 103.497 5.0791Z" fill="#344C92"/>
<path d="M57.1536 20.9862C57.1536 22.453 56.9545 23.7522 56.5564 24.8837C56.1687 26.0152 55.5977 26.9739 54.8434 27.7597C54.0995 28.535 53.1985 29.1217 52.1403 29.5199C51.0926 29.918 49.9086 30.117 48.5885 30.117C47.3522 30.117 46.2154 29.918 45.1782 29.5199C44.1514 29.1217 43.2556 28.535 42.4908 27.7597C41.7364 26.9739 41.1497 26.0152 40.7306 24.8837C40.322 23.7522 40.1177 22.453 40.1177 20.9862C40.1177 19.0374 40.4635 17.3873 41.155 16.0357C41.8465 14.6842 42.8313 13.6574 44.1095 12.9554C45.3877 12.2535 46.9122 11.9025 48.6828 11.9025C50.3277 11.9025 51.7841 12.2535 53.0518 12.9554C54.33 13.6574 55.3306 14.6842 56.0535 16.0357C56.7869 17.3873 57.1536 19.0374 57.1536 20.9862ZM45.0053 20.9862C45.0053 22.1387 45.1311 23.1078 45.3825 23.8936C45.634 24.6794 46.0268 25.2714 46.5612 25.6695C47.0955 26.0676 47.7923 26.2667 48.6514 26.2667C49.5 26.2667 50.1863 26.0676 50.7101 25.6695C51.2445 25.2714 51.6321 24.6794 51.8731 23.8936C52.1246 23.1078 52.2503 22.1387 52.2503 20.9862C52.2503 19.8232 52.1246 18.8593 51.8731 18.0945C51.6321 17.3192 51.2445 16.7377 50.7101 16.35C50.1758 15.9624 49.4791 15.7686 48.6199 15.7686C47.3522 15.7686 46.4302 16.2034 45.854 17.073C45.2882 17.9426 45.0053 19.247 45.0053 20.9862ZM66.253 37.5349C63.8014 37.5349 61.926 37.1053 60.6268 36.2462C59.3381 35.3975 58.6937 34.2031 58.6937 32.663C58.6937 31.6048 59.0238 30.7195 59.6838 30.007C60.3439 29.2946 61.313 28.7864 62.5913 28.4826C62.0988 28.2731 61.6693 27.9326 61.3026 27.4611C60.9359 26.9791 60.7525 26.471 60.7525 25.9367C60.7525 25.2661 60.9463 24.7108 61.334 24.2708C61.7216 23.8203 62.2822 23.3802 63.0156 22.9507C62.0936 22.5525 61.3602 21.9134 60.8154 21.0333C60.281 20.1533 60.0139 19.116 60.0139 17.9216C60.0139 16.6434 60.2915 15.559 60.8468 14.6685C61.4126 13.7674 62.2298 13.0812 63.2985 12.6097C64.3776 12.1382 65.6873 11.9025 67.2274 11.9025C67.5522 11.9025 67.9294 11.9234 68.3589 11.9654C68.7885 12.0073 69.1814 12.0544 69.5376 12.1068C69.9043 12.1592 70.1505 12.2011 70.2763 12.2325H76.4054V14.6685L73.6551 15.3757C73.9066 15.7633 74.0952 16.1772 74.2209 16.6172C74.3466 17.0573 74.4095 17.5235 74.4095 18.0159C74.4095 19.9018 73.7494 21.3739 72.4293 22.432C71.1197 23.4798 69.2966 24.0036 66.9602 24.0036C66.4049 23.9722 65.8811 23.9303 65.3887 23.8779C65.1477 24.0665 64.9643 24.2655 64.8386 24.4751C64.7129 24.6846 64.65 24.9047 64.65 25.1352C64.65 25.3657 64.7443 25.5595 64.9329 25.7166C65.132 25.8633 65.4253 25.9786 65.813 26.0624C66.2111 26.1357 66.7035 26.1724 67.2903 26.1724H70.2763C72.2041 26.1724 73.6709 26.5862 74.6767 27.4139C75.693 28.2416 76.2011 29.457 76.2011 31.06C76.2011 33.1135 75.342 34.7061 73.6237 35.8376C71.9159 36.9691 69.459 37.5349 66.253 37.5349ZM66.4573 34.4075C67.5993 34.4075 68.579 34.2974 69.3962 34.0774C70.2239 33.8679 70.8577 33.564 71.2978 33.1659C71.7378 32.7783 71.9578 32.312 71.9578 31.7672C71.9578 31.3272 71.8269 30.9762 71.565 30.7142C71.3135 30.4628 70.9258 30.2847 70.402 30.1799C69.8886 30.0751 69.2285 30.0228 68.4218 30.0228H65.9387C65.352 30.0228 64.8229 30.117 64.3514 30.3056C63.8904 30.4942 63.5237 30.7562 63.2513 31.0914C62.9789 31.4372 62.8427 31.8353 62.8427 32.2858C62.8427 32.9459 63.157 33.4645 63.7857 33.8417C64.4248 34.2189 65.3153 34.4075 66.4573 34.4075ZM67.2274 21.0805C68.1284 21.0805 68.7885 20.8028 69.2076 20.2476C69.6267 19.6923 69.8362 18.9379 69.8362 17.9845C69.8362 16.9263 69.6162 16.1353 69.1762 15.6114C68.7466 15.0771 68.097 14.8099 67.2274 14.8099C66.3473 14.8099 65.6873 15.0771 65.2472 15.6114C64.8072 16.1353 64.5872 16.9263 64.5872 17.9845C64.5872 18.9379 64.8019 19.6923 65.2315 20.2476C65.6715 20.8028 66.3368 21.0805 67.2274 21.0805ZM91.2725 20.829L85.6148 12.2325H91.0525L94.4628 17.8273L97.9046 12.2325H103.342L97.6217 20.829L103.609 29.8027H98.156L94.4628 23.7836L90.7539 29.8027H85.3162L91.2725 20.829Z" fill="#D9D9D9"/>
<path d="M57.1536 20.9862C57.1536 22.453 56.9545 23.7522 56.5564 24.8837C56.1687 26.0152 55.5977 26.9739 54.8434 27.7597C54.0995 28.535 53.1985 29.1217 52.1403 29.5199C51.0926 29.918 49.9086 30.117 48.5885 30.117C47.3522 30.117 46.2154 29.918 45.1782 29.5199C44.1514 29.1217 43.2556 28.535 42.4908 27.7597C41.7364 26.9739 41.1497 26.0152 40.7306 24.8837C40.322 23.7522 40.1177 22.453 40.1177 20.9862C40.1177 19.0374 40.4635 17.3873 41.155 16.0357C41.8465 14.6842 42.8313 13.6574 44.1095 12.9554C45.3877 12.2535 46.9122 11.9025 48.6828 11.9025C50.3277 11.9025 51.7841 12.2535 53.0518 12.9554C54.33 13.6574 55.3306 14.6842 56.0535 16.0357C56.7869 17.3873 57.1536 19.0374 57.1536 20.9862ZM45.0053 20.9862C45.0053 22.1387 45.1311 23.1078 45.3825 23.8936C45.634 24.6794 46.0268 25.2714 46.5612 25.6695C47.0955 26.0676 47.7923 26.2667 48.6514 26.2667C49.5 26.2667 50.1863 26.0676 50.7101 25.6695C51.2445 25.2714 51.6321 24.6794 51.8731 23.8936C52.1246 23.1078 52.2503 22.1387 52.2503 20.9862C52.2503 19.8232 52.1246 18.8593 51.8731 18.0945C51.6321 17.3192 51.2445 16.7377 50.7101 16.35C50.1758 15.9624 49.4791 15.7686 48.6199 15.7686C47.3522 15.7686 46.4302 16.2034 45.854 17.073C45.2882 17.9426 45.0053 19.247 45.0053 20.9862ZM66.253 37.5349C63.8014 37.5349 61.926 37.1053 60.6268 36.2462C59.3381 35.3975 58.6937 34.2031 58.6937 32.663C58.6937 31.6048 59.0238 30.7195 59.6838 30.007C60.3439 29.2946 61.313 28.7864 62.5913 28.4826C62.0988 28.2731 61.6693 27.9326 61.3026 27.4611C60.9359 26.9791 60.7525 26.471 60.7525 25.9367C60.7525 25.2661 60.9463 24.7108 61.334 24.2708C61.7216 23.8203 62.2822 23.3802 63.0156 22.9507C62.0936 22.5525 61.3602 21.9134 60.8154 21.0333C60.281 20.1533 60.0139 19.116 60.0139 17.9216C60.0139 16.6434 60.2915 15.559 60.8468 14.6685C61.4126 13.7674 62.2298 13.0812 63.2985 12.6097C64.3776 12.1382 65.6873 11.9025 67.2274 11.9025C67.5522 11.9025 67.9294 11.9234 68.3589 11.9654C68.7885 12.0073 69.1814 12.0544 69.5376 12.1068C69.9043 12.1592 70.1505 12.2011 70.2763 12.2325H76.4054V14.6685L73.6551 15.3757C73.9066 15.7633 74.0952 16.1772 74.2209 16.6172C74.3466 17.0573 74.4095 17.5235 74.4095 18.0159C74.4095 19.9018 73.7494 21.3739 72.4293 22.432C71.1197 23.4798 69.2966 24.0036 66.9602 24.0036C66.4049 23.9722 65.8811 23.9303 65.3887 23.8779C65.1477 24.0665 64.9643 24.2655 64.8386 24.4751C64.7129 24.6846 64.65 24.9047 64.65 25.1352C64.65 25.3657 64.7443 25.5595 64.9329 25.7166C65.132 25.8633 65.4253 25.9786 65.813 26.0624C66.2111 26.1357 66.7035 26.1724 67.2903 26.1724H70.2763C72.2041 26.1724 73.6709 26.5862 74.6767 27.4139C75.693 28.2416 76.2011 29.457 76.2011 31.06C76.2011 33.1135 75.342 34.7061 73.6237 35.8376C71.9159 36.9691 69.459 37.5349 66.253 37.5349ZM66.4573 34.4075C67.5993 34.4075 68.579 34.2974 69.3962 34.0774C70.2239 33.8679 70.8577 33.564 71.2978 33.1659C71.7378 32.7783 71.9578 32.312 71.9578 31.7672C71.9578 31.3272 71.8269 30.9762 71.565 30.7142C71.3135 30.4628 70.9258 30.2847 70.402 30.1799C69.8886 30.0751 69.2285 30.0228 68.4218 30.0228H65.9387C65.352 30.0228 64.8229 30.117 64.3514 30.3056C63.8904 30.4942 63.5237 30.7562 63.2513 31.0914C62.9789 31.4372 62.8427 31.8353 62.8427 32.2858C62.8427 32.9459 63.157 33.4645 63.7857 33.8417C64.4248 34.2189 65.3153 34.4075 66.4573 34.4075ZM67.2274 21.0805C68.1284 21.0805 68.7885 20.8028 69.2076 20.2476C69.6267 19.6923 69.8362 18.9379 69.8362 17.9845C69.8362 16.9263 69.6162 16.1353 69.1762 15.6114C68.7466 15.0771 68.097 14.8099 67.2274 14.8099C66.3473 14.8099 65.6873 15.0771 65.2472 15.6114C64.8072 16.1353 64.5872 16.9263 64.5872 17.9845C64.5872 18.9379 64.8019 19.6923 65.2315 20.2476C65.6715 20.8028 66.3368 21.0805 67.2274 21.0805ZM91.2725 20.829L85.6148 12.2325H91.0525L94.4628 17.8273L97.9046 12.2325H103.342L97.6217 20.829L103.609 29.8027H98.156L94.4628 23.7836L90.7539 29.8027H85.3162L91.2725 20.829Z" fill="#344C92"/>
<path d="M0 0.394701L16.937 30.1036L29.2707 8.6429C29.7376 7.83045 30.6032 7.32956 31.5403 7.32956H47.8258L52.2759 0H30.0255C23.159 0.659444 21.4889 7.43855 16.937 14.9209C11.4663 5.47378 9.47966 -1.5239 0 0.394701Z" fill="#344C92"/>
<path d="M28.5359 11.8887H40.0538L35.8655 18.6947H24.6094L28.5359 11.8887Z" fill="#344C92"/>
<path d="M21.8992 23.2539H26.6111L22.4227 30.0599H17.9727L21.8992 23.2539Z" fill="#344C92"/>
<path d="M80.9961 28.0132L80.9961 14.6152" stroke="#344C92" stroke-width="4.26298" stroke-linecap="square"/>
</svg>
