<svg width="69" height="68" viewBox="0 0 69 68" fill="none" xmlns="http://www.w3.org/2000/svg">
<rect width="69" height="68" rx="15" fill="#FAF9F6"/>
<path fill-rule="evenodd" clip-rule="evenodd" d="M30.3049 16.5794C30.8103 16.4314 31.6732 16.2465 32.2156 16.1726C32.7579 16.0863 33.8427 16.0123 34.6193 16C35.3959 16 36.2341 16.037 36.4683 16.1109C36.7025 16.1726 37.0107 16.3451 37.1463 16.4931C37.3065 16.6533 37.3928 16.9245 37.3928 17.2327C37.3928 17.5902 37.3065 17.7997 37.0476 18.0462C36.7148 18.3914 36.7025 18.3914 35.3219 18.3544C34.57 18.3298 33.4729 18.3791 32.8935 18.453C32.3142 18.5393 31.3773 18.7365 30.798 18.9091C30.2186 19.0694 29.3064 19.4145 28.7641 19.6734C28.2217 19.9199 27.3342 20.4253 26.8041 20.7951C26.2617 21.1649 25.3989 21.8922 24.8935 22.3976C24.3757 22.9153 23.6485 23.7659 23.2787 24.3082C22.9089 24.8506 22.3788 25.7998 22.083 26.4038C21.7994 27.0078 21.4173 28.0679 21.2324 28.7459C20.9612 29.7567 20.8873 30.373 20.8256 32.1234C20.7517 34.1573 20.7393 34.2806 20.4558 34.5518C20.2586 34.749 20.0244 34.8476 19.7532 34.8476C19.519 34.8476 19.2232 34.7983 19.0876 34.7243C18.952 34.6504 18.7547 34.4285 18.6561 34.2313C18.5205 33.9601 18.4712 33.4424 18.4712 32.296C18.4712 31.4208 18.5575 30.1881 18.6685 29.5471C18.7671 28.9061 19.0383 27.8214 19.2725 27.1434C19.4943 26.4654 19.8518 25.5532 20.0737 25.1095C20.2956 24.6657 20.727 23.9138 21.0352 23.4454C21.331 22.9769 21.935 22.1634 22.3665 21.658C22.7856 21.1526 23.5745 20.3637 24.1046 19.9199C24.6346 19.4638 25.5345 18.7982 26.1138 18.4284C26.6932 18.0709 27.667 17.5532 28.271 17.3066C28.875 17.0478 29.7995 16.715 30.3049 16.5794ZM42.2619 16.9368C42.6317 16.7643 43.248 16.5301 43.6178 16.4314C43.9876 16.3328 44.6039 16.2465 44.9738 16.2465C45.3436 16.2342 45.9599 16.2835 46.3297 16.3575C46.6995 16.4191 47.4268 16.6903 47.9322 16.9368C48.6225 17.2697 49.1032 17.6395 49.8428 18.3791C50.4222 18.9584 50.9892 19.6857 51.2234 20.1171C51.433 20.5239 51.7042 21.1896 51.8028 21.5963C51.9137 22.0031 52 22.6564 52 23.0509C52 23.433 51.9384 24.0494 51.8644 24.4068C51.7904 24.752 51.5562 25.4053 51.359 25.8491C51.0262 26.5517 50.5701 27.0694 47.6117 30.0402C45.171 32.5055 44.0369 33.5533 43.4699 33.8861C42.9891 34.1696 42.3358 34.4285 41.7688 34.5518C41.1401 34.6997 40.5484 34.7367 39.9198 34.6874C39.4144 34.6504 38.6871 34.5148 38.3173 34.3669C37.9475 34.2313 37.3928 33.9478 36.5299 33.3931L35.8519 34.0587C35.211 34.6874 35.1863 34.749 35.3466 35.0079C35.4452 35.1558 35.6547 35.5009 35.8026 35.7721C35.9629 36.0433 36.1724 36.598 36.2834 37.0048C36.382 37.4116 36.4683 38.1265 36.4683 38.6073C36.4683 39.088 36.382 39.7906 36.2834 40.1851C36.1848 40.5672 35.9506 41.1836 35.778 41.541C35.5315 42.0218 34.6069 43.0326 32.1046 45.5472C30.2679 47.3962 28.5175 49.0727 28.2094 49.2699C27.9012 49.4671 27.3218 49.7507 26.9151 49.8986C26.3234 50.1081 25.9043 50.1698 24.8811 50.1698C23.858 50.1698 23.4389 50.1081 22.8472 49.8986C22.4404 49.7507 21.8611 49.4671 21.5529 49.2699C21.2447 49.085 20.5544 48.4563 20.0121 47.8893C19.4327 47.2976 18.878 46.5827 18.6808 46.1882C18.4959 45.8184 18.2493 45.0665 18.1384 44.5241C17.9658 43.6859 17.9658 43.3901 18.0768 42.5518C18.1754 41.9108 18.3726 41.2452 18.6685 40.6412C19.0752 39.7906 19.3588 39.4578 22.3911 36.4131C24.2032 34.6011 25.9289 32.9493 26.2371 32.7521C26.5452 32.5548 27.1246 32.2713 27.5314 32.1234C27.9505 31.9755 28.7024 31.8276 29.2571 31.7906C29.8365 31.7659 30.5268 31.8029 30.9212 31.8892C31.2911 31.9755 31.8827 32.1727 32.2156 32.333C32.5607 32.4809 32.9798 32.7151 33.5099 33.0602L34.8042 31.7413L34.3974 31.051C34.1755 30.6688 33.892 30.0402 33.7811 29.6704C33.6331 29.202 33.5715 28.6103 33.5838 27.7597C33.5962 26.7859 33.6578 26.3668 33.8797 25.7874C34.0399 25.3807 34.3481 24.7643 34.5576 24.4315C34.7795 24.0864 36.4436 22.3483 38.268 20.5486C40.832 18.0093 41.7318 17.1957 42.2619 16.9368ZM49.5347 32.3823C49.5963 32.2097 49.8305 31.9755 50.0524 31.8645C50.2866 31.7413 50.5824 31.6796 50.7673 31.7166C50.9399 31.7536 51.2357 31.9631 51.7904 32.5672L51.7165 33.8368C51.6672 34.5271 51.5193 35.6365 51.3713 36.2898C51.2234 36.9555 50.9646 37.88 50.8043 38.3607C50.6317 38.8415 50.2989 39.6057 50.0524 40.0865C49.8182 40.5672 49.4853 41.1712 49.3004 41.4424C49.1279 41.7136 48.6471 42.3793 48.228 42.9216C47.8212 43.464 47.0693 44.2899 46.5639 44.7583C46.0585 45.2144 45.1217 45.954 44.4807 46.3855C43.8397 46.8169 42.8042 47.3839 42.2002 47.6551C41.5962 47.9263 40.5608 48.2961 39.9198 48.481C39.2788 48.6659 38.7241 48.8262 38.6871 48.8508C38.6501 48.8755 38.8597 49.1097 39.1432 49.3562C39.587 49.7507 39.6609 49.8986 39.6732 50.3177C39.6856 50.6875 39.5993 50.897 39.3527 51.1436C39.1062 51.4024 38.909 51.4887 38.5515 51.4887C38.1324 51.4887 37.8612 51.3285 36.345 50.1328C35.3959 49.3809 34.57 48.6659 34.496 48.5303C34.422 48.3947 34.3727 48.0989 34.3727 47.8893C34.3727 47.5688 34.6193 47.162 35.6177 45.8801C36.2957 45.0049 36.986 44.1543 37.1586 44.0064C37.3558 43.8092 37.6024 43.7229 37.9105 43.7229C38.2557 43.7229 38.4775 43.8215 38.7241 44.068C38.9706 44.3022 39.0569 44.5241 39.0569 44.8323C39.0569 45.1158 38.9336 45.4486 38.6871 45.7938C38.4899 46.0773 38.342 46.3485 38.3789 46.4101C38.4282 46.4594 38.8843 46.3731 39.4021 46.2129C39.9198 46.0526 40.8196 45.7075 41.399 45.4363C41.9783 45.1651 42.8042 44.6967 43.248 44.4008C43.6918 44.1173 44.456 43.4887 44.9614 43.0326C45.4545 42.5642 46.2064 41.7383 46.6132 41.1959C47.02 40.6535 47.5747 39.766 47.8459 39.2236C48.1171 38.6812 48.4746 37.8553 48.6348 37.3746C48.795 36.8939 49.0046 36.1542 49.1032 35.7105C49.1895 35.2667 49.3128 34.4038 49.3497 33.7998C49.3991 33.1958 49.4853 32.5548 49.5347 32.3823ZM43.1247 19.1557C43.3589 19.0201 43.778 18.8229 44.0492 18.7366C44.3574 18.638 44.8751 18.601 45.4052 18.638C45.9352 18.675 46.4776 18.7982 46.8227 18.9708C47.1309 19.1187 47.7473 19.5995 48.191 20.0432C48.6348 20.487 49.1278 21.128 49.3004 21.4731C49.5346 21.9662 49.5963 22.2744 49.5963 23.0756C49.5963 23.8275 49.5223 24.2097 49.3128 24.6781C49.1032 25.1712 48.3513 25.9847 45.738 28.5733C42.9521 31.3592 42.3481 31.8892 41.8304 32.0865C41.4236 32.2467 40.8936 32.3207 40.2896 32.3207C39.55 32.3207 39.2541 32.259 38.1817 31.7043L40.4621 29.4239C42.607 27.279 42.7549 27.1188 42.7549 26.675C42.7549 26.3299 42.6686 26.1327 42.3851 25.8491C42.1139 25.5779 41.9044 25.4793 41.5839 25.4793C41.1894 25.4793 40.9552 25.6766 36.5299 30.0526L36.2341 29.4609C35.9875 28.9801 35.9259 28.6843 35.9259 27.883C35.9259 27.1188 35.9875 26.7613 36.1971 26.2806C36.419 25.7998 37.1832 24.9616 39.5869 22.5456C41.3004 20.8321 42.8905 19.3036 43.1247 19.1557ZM27.593 34.6874C27.8272 34.5518 28.2463 34.3546 28.5175 34.2683C28.7887 34.182 29.3681 34.1327 29.8118 34.145C30.3049 34.1697 30.8473 34.293 31.8457 34.7244L29.7872 36.7953C27.8519 38.7183 27.7163 38.8785 27.7163 39.31C27.7163 39.5688 27.7656 39.8893 27.8395 40.0249C27.9135 40.1605 28.1231 40.3577 28.3326 40.4563C28.5545 40.5673 28.838 40.6043 29.0352 40.5673C29.2571 40.518 30.1077 39.766 33.4852 36.3885L33.781 36.9432C34.0152 37.3993 34.0646 37.6828 34.0646 38.6073C34.0646 39.5688 34.0152 39.803 33.7317 40.3331C33.5098 40.7522 32.4004 41.9479 30.2186 44.1174C27.7533 46.5827 26.9027 47.347 26.422 47.5689C25.9535 47.7661 25.5714 47.8401 24.8811 47.8401C24.2031 47.8401 23.7964 47.7661 23.3403 47.5689C22.9581 47.3963 22.3911 46.9649 21.8364 46.3978C21.3064 45.8678 20.8379 45.2638 20.6654 44.894C20.4558 44.4256 20.3942 44.0558 20.3942 43.3531C20.4065 42.6752 20.4681 42.2684 20.6777 41.8123C20.8872 41.3315 21.6269 40.518 24.0552 38.0773C25.7686 36.3639 27.3588 34.8353 27.593 34.6874Z" fill="#595959"/>
</svg>
