<svg width="175" height="156" viewBox="0 0 175 156" fill="none" xmlns="http://www.w3.org/2000/svg">
<g clip-path="url(#clip0_487_11665)">
<g clip-path="url(#clip1_487_11665)">
<g clip-path="url(#clip2_487_11665)">
<g clip-path="url(#clip3_487_11665)">
<g clip-path="url(#clip4_487_11665)">
<g clip-path="url(#clip5_487_11665)">
<path d="M51.7188 34.1549C51.7188 15.5678 66.7865 0.5 85.3737 0.5C103.961 0.5 119.029 15.5678 119.029 34.1549C119.029 52.7421 103.961 67.8099 85.3737 67.8105C66.7865 67.8105 51.7188 52.7427 51.7188 34.1549ZM85.3737 63.641C101.658 63.641 114.86 50.4395 114.86 34.1549C114.86 17.8704 101.658 4.66894 85.3737 4.66894C69.0891 4.66894 55.8877 17.8704 55.8877 34.1549C55.8877 50.4395 69.0891 63.641 85.3737 63.641Z" fill="black"/>
<g clip-path="url(#clip6_487_11665)">
<g clip-path="url(#clip7_487_11665)">
<path d="M84.6065 26.7223L84.6005 26.7272C84.3556 26.9175 84.1202 27.1197 83.8951 27.3329L83.8876 27.3403C83.6625 27.5542 83.448 27.779 83.2448 28.0139L83.2424 28.0171C81.8177 29.6663 80.9531 31.8119 80.9531 34.1574C80.9531 35.6521 81.3051 37.0654 81.9278 38.3216C83.208 37.8327 84.229 36.7654 84.6433 35.454C84.5435 35.0289 84.4924 34.594 84.4908 34.1574C84.4908 33.0391 84.8198 31.9909 85.3766 31.0952C85.4562 30.9671 85.5404 30.8422 85.6292 30.7205C85.8803 30.3782 86.1669 30.0633 86.4843 29.7813C86.5112 29.7572 86.5366 29.7318 86.5646 29.7084C86.6399 29.6433 86.7195 29.5825 86.7981 29.5213C87.0055 29.3584 87.2243 29.2108 87.4529 29.0794C87.5106 29.0462 87.5675 29.0115 87.6263 28.98C87.7745 28.9004 87.9255 28.8254 88.0808 28.7589L88.0851 28.7568C88.804 28.448 89.5782 28.2888 90.3605 28.2887H99.4701C101.454 28.2887 103.063 26.7046 103.063 24.7511H90.3605V24.75C88.2764 24.748 86.2512 25.4421 84.6065 26.7223Z" fill="#344C92"/>
<path d="M103.061 40.0257H90.3576C90.0717 40.0257 89.7926 39.9974 89.5174 39.957C88.7986 41.0842 87.8791 42.0699 86.8047 42.8654C87.9238 43.3233 89.1208 43.5604 90.33 43.5637H90.325C90.7942 43.5637 91.2441 43.7501 91.5758 44.0818C91.9075 44.4135 92.0939 44.8634 92.0939 45.3325V47.1014L103.061 40.0257Z" fill="#344C92"/>
<path d="M80.3867 28.2867C80.6725 28.2867 80.9517 28.315 81.2273 28.3553C81.9454 27.2278 82.865 26.242 83.9399 25.4473C82.8208 24.9892 81.6236 24.7519 80.4143 24.7486H80.4192C79.9501 24.7486 79.5002 24.5623 79.1685 24.2305C78.8368 23.8988 78.6504 23.4489 78.6504 22.9798V21.2109L67.6836 28.2863L80.3867 28.2867Z" fill="#344C92"/>
<path d="M85.3731 42.1293C85.6373 41.9629 85.8933 41.7837 86.14 41.5922L86.1475 41.5862C86.6394 41.2031 87.0926 40.7728 87.5006 40.3013C87.502 40.2996 87.5035 40.2975 87.5056 40.2957C87.7088 40.06 87.9005 39.8146 88.0797 39.5602L88.0819 39.5577C89.1972 37.9776 89.7949 36.0905 89.7934 34.1564C89.7934 32.6617 89.4418 31.2484 88.8184 29.9922C87.5381 30.4811 86.5172 31.5484 86.1029 32.8602C86.1995 33.2787 86.2557 33.7114 86.2557 34.1564C86.2557 35.2736 85.9274 36.3207 85.3713 37.2158C85.0661 37.7055 84.6924 38.149 84.2615 38.5329C84.2346 38.5566 84.2092 38.582 84.1819 38.605C84.1062 38.6705 84.027 38.7313 83.9481 38.7925C83.7412 38.955 83.5228 39.1024 83.2947 39.2333C83.2363 39.2673 83.179 39.3023 83.1196 39.3341C82.9729 39.4136 82.8227 39.4866 82.6696 39.5528L82.6611 39.557C81.9422 39.8658 81.168 40.025 80.3856 40.0251H71.2768C69.2922 40.0251 67.6836 41.6092 67.6836 43.5627H80.3867V43.5642C82.2171 43.5642 83.9258 43.037 85.3724 42.1286C85.3727 42.1296 85.3731 42.1293 85.3731 42.1293Z" fill="#344C92"/>
</g>
</g>
</g>
</g>
</g>
<mask id="mask0_487_11665" style="mask-type:luminance" maskUnits="userSpaceOnUse" x="51" y="0" width="331" height="69">
<g clip-path="url(#clip8_487_11665)">
<g clip-path="url(#clip9_487_11665)">
<g clip-path="url(#clip10_487_11665)">
<g clip-path="url(#clip11_487_11665)">
<path d="M51.7227 34.1569C51.7227 15.5697 66.7904 0.501953 85.3776 0.501953C103.965 0.501953 119.033 15.5697 119.033 34.1569C119.033 52.7441 103.965 67.8118 85.3776 67.8125C66.7904 67.8125 51.7227 52.7447 51.7227 34.1569ZM85.3776 63.6429C101.662 63.6429 114.864 50.4415 114.864 34.1569C114.864 17.8723 101.662 4.67089 85.3776 4.67089C69.093 4.67089 55.8916 17.8723 55.8916 34.1569C55.8916 50.4415 69.093 63.6429 85.3776 63.6429Z" fill="black"/>
<g clip-path="url(#clip12_487_11665)">
<g clip-path="url(#clip13_487_11665)">
<path d="M84.6065 26.7242L84.6005 26.7292C84.3556 26.9195 84.1202 27.1216 83.8951 27.3348L83.8876 27.3422C83.6625 27.5562 83.448 27.781 83.2448 28.0158L83.2424 28.019C81.8177 29.6683 80.9531 31.8139 80.9531 34.1594C80.9531 35.654 81.3051 37.0673 81.9278 38.3236C83.208 37.8347 84.229 36.7673 84.6433 35.4559C84.5435 35.0309 84.4924 34.5959 84.4908 34.1594C84.4908 33.0411 84.8198 31.9929 85.3766 31.0971C85.4562 30.9691 85.5404 30.8442 85.6292 30.7225C85.8803 30.3801 86.1669 30.0653 86.4843 29.7832C86.5112 29.7592 86.5366 29.7337 86.5646 29.7104C86.6399 29.6453 86.7195 29.5844 86.7981 29.5232C87.0055 29.3604 87.2243 29.2127 87.4529 29.0814C87.5106 29.0481 87.5675 29.0134 87.6263 28.982C87.7745 28.9024 87.9255 28.8274 88.0808 28.7609L88.0851 28.7587C88.804 28.45 89.5782 28.2907 90.3605 28.2907H99.4701C101.454 28.2907 103.063 26.7065 103.063 24.753H90.3605V24.752C88.2764 24.75 86.2512 25.4441 84.6065 26.7242Z" fill="black"/>
<path d="M103.061 40.0276H90.3576C90.0717 40.0276 89.7926 39.9993 89.5174 39.959C88.7986 41.0861 87.8791 42.0719 86.8047 42.8673C87.9238 43.3253 89.1208 43.5624 90.33 43.5657H90.325C90.7942 43.5657 91.2441 43.752 91.5758 44.0837C91.9075 44.4155 92.0939 44.8654 92.0939 45.3345V47.1033L103.061 40.0276Z" fill="black"/>
<path d="M80.3906 28.2886C80.6765 28.2886 80.9556 28.3169 81.2312 28.3572C81.9493 27.2297 82.8689 26.244 83.9439 25.4493C82.8247 24.9912 81.6275 24.7539 80.4182 24.7506H80.4232C79.954 24.7506 79.5041 24.5642 79.1724 24.2325C78.8407 23.9008 78.6543 23.4509 78.6543 22.9817V21.2129L67.6875 28.2883L80.3906 28.2886Z" fill="black"/>
<path d="M85.377 42.1312C85.6413 41.9649 85.8972 41.7856 86.1439 41.5942L86.1514 41.5882C86.6433 41.2051 87.0965 40.7747 87.5045 40.3033C87.5059 40.3015 87.5074 40.2994 87.5095 40.2976C87.7127 40.062 87.9044 39.8165 88.0837 39.5622L88.0858 39.5597C89.2011 37.9795 89.7988 36.0925 89.7973 34.1583C89.7973 32.6637 89.4457 31.2504 88.8223 29.9941C87.542 30.483 86.5211 31.5504 86.1068 32.8621C86.2034 33.2806 86.2596 33.7133 86.2596 34.1583C86.2596 35.2755 85.9313 36.3227 85.3752 37.2177C85.07 37.7074 84.6963 38.151 84.2654 38.5348C84.2385 38.5585 84.2131 38.584 84.1858 38.607C84.1101 38.6724 84.0309 38.7333 83.952 38.7945C83.7451 38.957 83.5267 39.1043 83.2986 39.2353C83.2402 39.2692 83.1829 39.3043 83.1235 39.3361C82.9768 39.4156 82.8266 39.4885 82.6735 39.5547L82.665 39.559C81.9461 39.8677 81.1719 40.027 80.3895 40.027H71.2807C69.2961 40.027 67.6875 41.6112 67.6875 43.5647H80.3906V43.5661C82.221 43.5661 83.9297 43.039 85.3763 42.1305C85.3766 42.1316 85.377 42.1312 85.377 42.1312Z" fill="black"/>
</g>
</g>
</g>
</g>
</g>
</g>
</mask>
<g mask="url(#mask0_487_11665)">
<path d="M381.85 0.00195312H51.7148V68.3115H381.85V0.00195312Z" fill="url(#paint0_linear_487_11665)"/>
</g>
</g>
</g>
</g>
<path d="M7.19757 123.012L4.25837 89.1762H11.0857L12.266 109.542C12.3122 110.19 12.3354 110.908 12.3354 111.695C12.3508 112.482 12.3508 113.261 12.3354 114.032C12.32 114.804 12.2814 115.49 12.2197 116.092H12.428C12.644 115.398 12.8831 114.688 13.1454 113.963C13.4077 113.238 13.6931 112.505 14.0017 111.764C14.3103 111.008 14.6343 110.267 14.9737 109.542L24.9254 89.1762H32.2386L14.9274 123.012H7.19757ZM40.2694 123.475C38.2482 123.475 36.4662 123.112 34.9233 122.387C33.3958 121.646 32.2001 120.535 31.3361 119.054C30.472 117.573 30.04 115.714 30.04 113.477C30.04 111.317 30.3486 109.234 30.9658 107.228C31.5829 105.207 32.5009 103.402 33.7198 101.812C34.9541 100.223 36.4662 98.9658 38.2559 98.0401C40.0611 97.1143 42.144 96.6515 44.5046 96.6515C47.4052 96.6515 49.573 97.3149 51.0079 98.6418C52.4582 99.9533 53.1834 101.643 53.1834 103.71C53.1834 105.068 52.8748 106.302 52.2576 107.413C51.6559 108.524 50.7379 109.481 49.5036 110.283C48.2693 111.07 46.7187 111.679 44.8518 112.111C42.9849 112.528 40.794 112.736 38.2791 112.736H37.0987C37.0833 112.921 37.0679 113.083 37.0525 113.222C37.0525 113.361 37.0525 113.515 37.0525 113.685C37.0525 115.074 37.4536 116.177 38.2559 116.994C39.0582 117.812 40.1922 118.221 41.658 118.221C43.0157 118.221 44.25 118.067 45.3609 117.758C46.4718 117.45 47.7832 116.94 49.2953 116.231V121.484C47.9375 122.148 46.5566 122.649 45.1526 122.989C43.7486 123.313 42.1208 123.475 40.2694 123.475ZM37.8625 108.038H38.9039C40.6937 108.038 42.144 107.845 43.2549 107.459C44.3812 107.074 45.1989 106.565 45.7081 105.932C46.2326 105.299 46.4949 104.613 46.4949 103.872C46.4949 103.132 46.2789 102.584 45.8469 102.229C45.4303 101.859 44.8363 101.674 44.0649 101.674C43.2009 101.674 42.3446 101.944 41.496 102.484C40.6474 103.024 39.8991 103.772 39.2511 104.728C38.6031 105.685 38.1402 106.788 37.8625 108.038ZM53.3454 134.398C52.6048 134.398 51.8719 134.337 51.1467 134.213C50.4062 134.105 49.7967 133.974 49.3184 133.82V128.219C49.8121 128.389 50.2673 128.512 50.6839 128.589C51.1005 128.666 51.5325 128.705 51.9799 128.705C52.9211 128.705 53.7465 128.389 54.4562 127.756C55.166 127.139 55.6674 126.144 55.9605 124.771L60.6818 102.437H56.9094L57.6037 99.0815L61.839 97.1375L62.2555 95.1934C62.595 93.6197 63.0424 92.2928 63.5978 91.2128C64.1687 90.1328 64.8476 89.2688 65.6345 88.6207C66.4213 87.9573 67.3239 87.479 68.3422 87.1859C69.376 86.8927 70.5254 86.7461 71.7906 86.7461C72.8552 86.7461 73.8349 86.8464 74.7298 87.047C75.6401 87.2476 76.4732 87.5253 77.2293 87.8802L75.3778 93.0643C74.9304 92.8637 74.4598 92.694 73.9661 92.5551C73.4723 92.4162 72.9169 92.3468 72.2997 92.3468C71.4203 92.3468 70.7106 92.6554 70.1705 93.2726C69.6305 93.8897 69.268 94.6997 69.0828 95.7026L68.8051 97.1375H73.8735L72.7395 102.437H67.6479L62.6721 125.812C62.3481 127.386 61.8235 128.821 61.0984 130.117C60.3886 131.428 59.4012 132.47 58.136 133.241C56.8863 134.013 55.2894 134.398 53.3454 134.398ZM84.0565 123.475C82.1125 123.475 80.3922 123.073 78.8956 122.271C77.4144 121.469 76.2495 120.327 75.4009 118.846C74.5678 117.349 74.1512 115.575 74.1512 113.523C74.1512 111.687 74.3286 109.936 74.6835 108.269C75.0538 106.588 75.6015 105.045 76.3267 103.641C77.0673 102.221 77.9853 100.995 79.0807 99.961C80.1916 98.9118 81.4799 98.1018 82.9457 97.5309C84.4114 96.9446 86.0623 96.6515 87.8983 96.6515C89.9041 96.6515 91.6398 97.0603 93.1056 97.8781C94.5713 98.6804 95.7053 99.8453 96.5076 101.373C97.3099 102.9 97.7111 104.744 97.7111 106.904C97.7111 108.663 97.5337 110.36 97.1788 111.995C96.8394 113.616 96.3148 115.128 95.6051 116.532C94.8953 117.92 94.0005 119.139 92.9204 120.188C91.8404 121.222 90.5598 122.032 89.0786 122.618C87.6129 123.189 85.9389 123.475 84.0565 123.475ZM84.6351 117.804C85.4066 117.804 86.1086 117.612 86.7412 117.226C87.3737 116.825 87.9369 116.277 88.4306 115.583C88.9244 114.873 89.3332 114.063 89.6572 113.153C89.9967 112.227 90.2512 111.232 90.421 110.167C90.6061 109.103 90.6987 108.015 90.6987 106.904C90.6987 106.025 90.5907 105.245 90.3747 104.566C90.1741 103.872 89.8269 103.332 89.3332 102.946C88.8549 102.545 88.2069 102.345 87.3892 102.345C86.5406 102.345 85.7769 102.584 85.098 103.062C84.4345 103.525 83.856 104.15 83.3622 104.937C82.8685 105.724 82.4596 106.603 82.1356 107.575C81.8116 108.547 81.5648 109.55 81.3951 110.584C81.2408 111.602 81.1636 112.582 81.1636 113.523C81.1636 114.927 81.4491 115.992 82.0199 116.717C82.5908 117.442 83.4625 117.804 84.6351 117.804ZM115.161 123.475C111.227 123.475 108.156 122.356 105.95 120.119C103.744 117.866 102.641 114.595 102.641 110.306C102.641 108.007 102.911 105.785 103.451 103.641C103.991 101.496 104.793 99.5212 105.858 97.7161C106.922 95.8955 108.249 94.3063 109.838 92.9485C111.443 91.5908 113.294 90.5339 115.393 89.7779C117.491 89.0219 119.844 88.6439 122.451 88.6439C124.195 88.6439 125.83 88.829 127.358 89.1993C128.885 89.5696 130.413 90.1482 131.94 90.9351L129.279 96.744C128.152 96.1269 127.011 95.6332 125.853 95.2629C124.712 94.8926 123.47 94.7074 122.127 94.7074C120.044 94.7074 118.232 95.1549 116.689 96.0497C115.161 96.9292 113.888 98.1018 112.87 99.5675C111.852 101.018 111.088 102.63 110.579 104.404C110.085 106.179 109.838 107.961 109.838 109.751C109.838 111.417 110.07 112.829 110.532 113.986C110.995 115.128 111.728 115.992 112.731 116.578C113.749 117.164 115.061 117.457 116.665 117.457C117.452 117.457 118.139 117.403 118.725 117.295C119.312 117.187 119.936 117.056 120.6 116.902L122.127 109.982H115.948L117.244 104.011H130.274L126.525 121.646C124.982 122.171 123.346 122.611 121.618 122.965C119.89 123.305 117.738 123.475 115.161 123.475ZM133.375 123.012L138.86 97.1375H145.826L140.341 123.012H133.375ZM143.465 93.9206C142.478 93.9206 141.645 93.7046 140.966 93.2726C140.303 92.8405 139.971 92.1077 139.971 91.0739C139.971 90.1791 140.133 89.4308 140.457 88.829C140.796 88.2273 141.282 87.7722 141.915 87.4636C142.547 87.155 143.303 87.0007 144.183 87.0007C145.109 87.0007 145.911 87.2013 146.59 87.6024C147.284 88.0036 147.631 88.7287 147.631 89.7779C147.631 91.0122 147.292 92.0151 146.613 92.7865C145.934 93.5426 144.885 93.9206 143.465 93.9206ZM144.275 123.012L155.361 109.751L150.154 97.1375H157.583L160.244 104.867L165.891 97.1375H174.084L163.276 110.121L168.923 123.012H161.378L158.485 115.097L152.376 123.012H144.275Z" fill="#D9D9D9"/>
<path d="M7.19757 123.012L4.25837 89.1762H11.0857L12.266 109.542C12.3122 110.19 12.3354 110.908 12.3354 111.695C12.3508 112.482 12.3508 113.261 12.3354 114.032C12.32 114.804 12.2814 115.49 12.2197 116.092H12.428C12.644 115.398 12.8831 114.688 13.1454 113.963C13.4077 113.238 13.6931 112.505 14.0017 111.764C14.3103 111.008 14.6343 110.267 14.9737 109.542L24.9254 89.1762H32.2386L14.9274 123.012H7.19757ZM40.2694 123.475C38.2482 123.475 36.4662 123.112 34.9233 122.387C33.3958 121.646 32.2001 120.535 31.3361 119.054C30.472 117.573 30.04 115.714 30.04 113.477C30.04 111.317 30.3486 109.234 30.9658 107.228C31.5829 105.207 32.5009 103.402 33.7198 101.812C34.9541 100.223 36.4662 98.9658 38.2559 98.0401C40.0611 97.1143 42.144 96.6515 44.5046 96.6515C47.4052 96.6515 49.573 97.3149 51.0079 98.6418C52.4582 99.9533 53.1834 101.643 53.1834 103.71C53.1834 105.068 52.8748 106.302 52.2576 107.413C51.6559 108.524 50.7379 109.481 49.5036 110.283C48.2693 111.07 46.7187 111.679 44.8518 112.111C42.9849 112.528 40.794 112.736 38.2791 112.736H37.0987C37.0833 112.921 37.0679 113.083 37.0525 113.222C37.0525 113.361 37.0525 113.515 37.0525 113.685C37.0525 115.074 37.4536 116.177 38.2559 116.994C39.0582 117.812 40.1922 118.221 41.658 118.221C43.0157 118.221 44.25 118.067 45.3609 117.758C46.4718 117.45 47.7832 116.94 49.2953 116.231V121.484C47.9375 122.148 46.5566 122.649 45.1526 122.989C43.7486 123.313 42.1208 123.475 40.2694 123.475ZM37.8625 108.038H38.9039C40.6937 108.038 42.144 107.845 43.2549 107.459C44.3812 107.074 45.1989 106.565 45.7081 105.932C46.2326 105.299 46.4949 104.613 46.4949 103.872C46.4949 103.132 46.2789 102.584 45.8469 102.229C45.4303 101.859 44.8363 101.674 44.0649 101.674C43.2009 101.674 42.3446 101.944 41.496 102.484C40.6474 103.024 39.8991 103.772 39.2511 104.728C38.6031 105.685 38.1402 106.788 37.8625 108.038ZM53.3454 134.398C52.6048 134.398 51.8719 134.337 51.1467 134.213C50.4062 134.105 49.7967 133.974 49.3184 133.82V128.219C49.8121 128.389 50.2673 128.512 50.6839 128.589C51.1005 128.666 51.5325 128.705 51.9799 128.705C52.9211 128.705 53.7465 128.389 54.4562 127.756C55.166 127.139 55.6674 126.144 55.9605 124.771L60.6818 102.437H56.9094L57.6037 99.0815L61.839 97.1375L62.2555 95.1934C62.595 93.6197 63.0424 92.2928 63.5978 91.2128C64.1687 90.1328 64.8476 89.2688 65.6345 88.6207C66.4213 87.9573 67.3239 87.479 68.3422 87.1859C69.376 86.8927 70.5254 86.7461 71.7906 86.7461C72.8552 86.7461 73.8349 86.8464 74.7298 87.047C75.6401 87.2476 76.4732 87.5253 77.2293 87.8802L75.3778 93.0643C74.9304 92.8637 74.4598 92.694 73.9661 92.5551C73.4723 92.4162 72.9169 92.3468 72.2997 92.3468C71.4203 92.3468 70.7106 92.6554 70.1705 93.2726C69.6305 93.8897 69.268 94.6997 69.0828 95.7026L68.8051 97.1375H73.8735L72.7395 102.437H67.6479L62.6721 125.812C62.3481 127.386 61.8235 128.821 61.0984 130.117C60.3886 131.428 59.4012 132.47 58.136 133.241C56.8863 134.013 55.2894 134.398 53.3454 134.398ZM84.0565 123.475C82.1125 123.475 80.3922 123.073 78.8956 122.271C77.4144 121.469 76.2495 120.327 75.4009 118.846C74.5678 117.349 74.1512 115.575 74.1512 113.523C74.1512 111.687 74.3286 109.936 74.6835 108.269C75.0538 106.588 75.6015 105.045 76.3267 103.641C77.0673 102.221 77.9853 100.995 79.0807 99.961C80.1916 98.9118 81.4799 98.1018 82.9457 97.5309C84.4114 96.9446 86.0623 96.6515 87.8983 96.6515C89.9041 96.6515 91.6398 97.0603 93.1056 97.8781C94.5713 98.6804 95.7053 99.8453 96.5076 101.373C97.3099 102.9 97.7111 104.744 97.7111 106.904C97.7111 108.663 97.5337 110.36 97.1788 111.995C96.8394 113.616 96.3148 115.128 95.6051 116.532C94.8953 117.92 94.0005 119.139 92.9204 120.188C91.8404 121.222 90.5598 122.032 89.0786 122.618C87.6129 123.189 85.9389 123.475 84.0565 123.475ZM84.6351 117.804C85.4066 117.804 86.1086 117.612 86.7412 117.226C87.3737 116.825 87.9369 116.277 88.4306 115.583C88.9244 114.873 89.3332 114.063 89.6572 113.153C89.9967 112.227 90.2512 111.232 90.421 110.167C90.6061 109.103 90.6987 108.015 90.6987 106.904C90.6987 106.025 90.5907 105.245 90.3747 104.566C90.1741 103.872 89.8269 103.332 89.3332 102.946C88.8549 102.545 88.2069 102.345 87.3892 102.345C86.5406 102.345 85.7769 102.584 85.098 103.062C84.4345 103.525 83.856 104.15 83.3622 104.937C82.8685 105.724 82.4596 106.603 82.1356 107.575C81.8116 108.547 81.5648 109.55 81.3951 110.584C81.2408 111.602 81.1636 112.582 81.1636 113.523C81.1636 114.927 81.4491 115.992 82.0199 116.717C82.5908 117.442 83.4625 117.804 84.6351 117.804ZM115.161 123.475C111.227 123.475 108.156 122.356 105.95 120.119C103.744 117.866 102.641 114.595 102.641 110.306C102.641 108.007 102.911 105.785 103.451 103.641C103.991 101.496 104.793 99.5212 105.858 97.7161C106.922 95.8955 108.249 94.3063 109.838 92.9485C111.443 91.5908 113.294 90.5339 115.393 89.7779C117.491 89.0219 119.844 88.6439 122.451 88.6439C124.195 88.6439 125.83 88.829 127.358 89.1993C128.885 89.5696 130.413 90.1482 131.94 90.9351L129.279 96.744C128.152 96.1269 127.011 95.6332 125.853 95.2629C124.712 94.8926 123.47 94.7074 122.127 94.7074C120.044 94.7074 118.232 95.1549 116.689 96.0497C115.161 96.9292 113.888 98.1018 112.87 99.5675C111.852 101.018 111.088 102.63 110.579 104.404C110.085 106.179 109.838 107.961 109.838 109.751C109.838 111.417 110.07 112.829 110.532 113.986C110.995 115.128 111.728 115.992 112.731 116.578C113.749 117.164 115.061 117.457 116.665 117.457C117.452 117.457 118.139 117.403 118.725 117.295C119.312 117.187 119.936 117.056 120.6 116.902L122.127 109.982H115.948L117.244 104.011H130.274L126.525 121.646C124.982 122.171 123.346 122.611 121.618 122.965C119.89 123.305 117.738 123.475 115.161 123.475ZM133.375 123.012L138.86 97.1375H145.826L140.341 123.012H133.375ZM143.465 93.9206C142.478 93.9206 141.645 93.7046 140.966 93.2726C140.303 92.8405 139.971 92.1077 139.971 91.0739C139.971 90.1791 140.133 89.4308 140.457 88.829C140.796 88.2273 141.282 87.7722 141.915 87.4636C142.547 87.155 143.303 87.0007 144.183 87.0007C145.109 87.0007 145.911 87.2013 146.59 87.6024C147.284 88.0036 147.631 88.7287 147.631 89.7779C147.631 91.0122 147.292 92.0151 146.613 92.7865C145.934 93.5426 144.885 93.9206 143.465 93.9206ZM144.275 123.012L155.361 109.751L150.154 97.1375H157.583L160.244 104.867L165.891 97.1375H174.084L163.276 110.121L168.923 123.012H161.378L158.485 115.097L152.376 123.012H144.275Z" fill="#344C92"/>
<path d="M6.94036 146.287H10.5296V150.977C10.0551 151.134 9.56214 151.26 9.05058 151.355C8.53901 151.446 7.95937 151.491 7.31166 151.491C6.41229 151.491 5.64906 151.314 5.02198 150.959C4.39489 150.604 3.91839 150.08 3.59248 149.387C3.26656 148.694 3.1036 147.842 3.1036 146.831C3.1036 145.882 3.28512 145.061 3.64817 144.368C4.01534 143.675 4.5496 143.139 5.25095 142.759C5.95641 142.38 6.81659 142.19 7.83148 142.19C8.31004 142.19 8.78241 142.241 9.2486 142.345C9.71479 142.448 10.1377 142.582 10.5172 142.747L9.87981 144.282C9.6034 144.141 9.28779 144.024 8.933 143.929C8.5782 143.834 8.2069 143.786 7.8191 143.786C7.26215 143.786 6.7774 143.914 6.36484 144.17C5.95641 144.426 5.63875 144.785 5.41184 145.247C5.18906 145.705 5.07767 146.245 5.07767 146.868C5.07767 147.458 5.15812 147.982 5.31902 148.44C5.47991 148.894 5.73363 149.251 6.08018 149.511C6.42673 149.766 6.87847 149.894 7.43542 149.894C7.70771 149.894 7.93668 149.882 8.12233 149.857C8.3121 149.828 8.4895 149.799 8.65452 149.771V147.883H6.94036V146.287ZM17.8999 151.367H12.6893V142.32H17.8999V143.892H14.6077V145.878H17.6709V147.45H14.6077V149.783H17.8999V151.367ZM23.2837 151.367H21.3653V143.916H18.9086V142.32H25.7405V143.916H23.2837V151.367ZM38.6369 146.831C38.6369 147.504 38.5565 148.12 38.3956 148.681C38.2388 149.238 37.9954 149.721 37.6654 150.13C37.3353 150.538 36.9166 150.858 36.4091 151.089L38.5874 153.521H36.1307L34.4722 151.491C34.4433 151.491 34.4186 151.491 34.3979 151.491C34.3773 151.491 34.3546 151.491 34.3299 151.491C33.5914 151.491 32.9519 151.382 32.4115 151.163C31.871 150.94 31.4234 150.623 31.0686 150.21C30.718 149.797 30.456 149.304 30.2827 148.731C30.1094 148.158 30.0228 147.52 30.0228 146.819C30.0228 145.882 30.1754 145.067 30.4807 144.374C30.7902 143.677 31.2646 143.137 31.9041 142.753C32.5435 142.369 33.3562 142.178 34.3422 142.178C35.3241 142.178 36.1307 142.369 36.7619 142.753C37.3972 143.137 37.8675 143.677 38.1728 144.374C38.4822 145.072 38.6369 145.891 38.6369 146.831ZM32.034 146.831C32.034 147.462 32.1124 148.007 32.2692 148.465C32.4301 148.919 32.6797 149.269 33.0179 149.517C33.3562 149.76 33.7936 149.882 34.3299 149.882C34.8744 149.882 35.3159 149.76 35.6542 149.517C35.9925 149.269 36.2379 148.919 36.3906 148.465C36.5474 148.007 36.6257 147.462 36.6257 146.831C36.6257 145.882 36.4483 145.136 36.0935 144.591C35.7387 144.046 35.155 143.774 34.3422 143.774C33.8018 143.774 33.3604 143.898 33.0179 144.145C32.6797 144.389 32.4301 144.739 32.2692 145.197C32.1124 145.651 32.034 146.196 32.034 146.831ZM47.8761 142.32V148.174C47.8761 148.797 47.7379 149.36 47.4615 149.863C47.1892 150.363 46.7746 150.759 46.2176 151.052C45.6648 151.344 44.9676 151.491 44.126 151.491C42.9296 151.491 42.0178 151.186 41.3907 150.575C40.7637 149.965 40.4501 149.156 40.4501 148.149V142.32H42.3623V147.858C42.3623 148.605 42.515 149.129 42.8203 149.43C43.1255 149.731 43.5773 149.882 44.1755 149.882C44.5963 149.882 44.9367 149.81 45.1966 149.665C45.4606 149.521 45.6545 149.298 45.7783 148.997C45.902 148.696 45.9639 148.312 45.9639 147.846V142.32H47.8761ZM55.6301 151.367L54.9741 149.214H51.6757L51.0198 151.367H48.9529L52.1461 142.283H54.4914L57.697 151.367H55.6301ZM54.5162 147.605L53.8602 145.501C53.819 145.36 53.7633 145.181 53.6931 144.962C53.6271 144.739 53.5591 144.515 53.4889 144.288C53.4229 144.057 53.3693 143.857 53.328 143.687C53.2868 143.857 53.229 144.067 53.1547 144.319C53.0846 144.566 53.0165 144.801 52.9505 145.024C52.8845 145.247 52.8371 145.406 52.8082 145.501L52.1584 147.605H54.5162ZM58.8418 151.367V142.32H60.7602V149.783H64.4299V151.367H58.8418ZM66.0079 151.367V142.32H67.9263V151.367H66.0079ZM73.6938 151.367H71.7754V143.916H69.3186V142.32H76.1506V143.916H73.6938V151.367ZM80.3586 146.045L82.2461 142.32H84.3129L81.3116 147.846V151.367H79.4056V147.908L76.4043 142.32H78.4836L80.3586 146.045ZM92.1783 146.287H95.7675V150.977C95.2931 151.134 94.8001 151.26 94.2885 151.355C93.777 151.446 93.1973 151.491 92.5496 151.491C91.6502 151.491 90.887 151.314 90.2599 150.959C89.6328 150.604 89.1563 150.08 88.8304 149.387C88.5045 148.694 88.3416 147.842 88.3416 146.831C88.3416 145.882 88.5231 145.061 88.8861 144.368C89.2533 143.675 89.7876 143.139 90.4889 142.759C91.1944 142.38 92.0545 142.19 93.0694 142.19C93.548 142.19 94.0204 142.241 94.4866 142.345C94.9527 142.448 95.3756 142.582 95.7552 142.747L95.1178 144.282C94.8414 144.141 94.5257 144.024 94.171 143.929C93.8162 143.834 93.4449 143.786 93.0571 143.786C92.5001 143.786 92.0154 143.914 91.6028 144.17C91.1944 144.426 90.8767 144.785 90.6498 145.247C90.427 145.705 90.3156 146.245 90.3156 146.868C90.3156 147.458 90.3961 147.982 90.557 148.44C90.7179 148.894 90.9716 149.251 91.3181 149.511C91.6647 149.766 92.1164 149.894 92.6734 149.894C92.9457 149.894 93.1746 149.882 93.3603 149.857C93.5501 149.828 93.7275 149.799 93.8925 149.771V147.883H92.1783V146.287ZM105.291 142.32V148.174C105.291 148.797 105.153 149.36 104.877 149.863C104.604 150.363 104.19 150.759 103.633 151.052C103.08 151.344 102.383 151.491 101.541 151.491C100.345 151.491 99.4331 151.186 98.806 150.575C98.1789 149.965 97.8654 149.156 97.8654 148.149V142.32H99.7776V147.858C99.7776 148.605 99.9302 149.129 100.236 149.43C100.541 149.731 100.993 149.882 101.591 149.882C102.012 149.882 102.352 149.81 102.612 149.665C102.876 149.521 103.07 149.298 103.194 148.997C103.317 148.696 103.379 148.312 103.379 147.846V142.32H105.291ZM112.717 151.367H107.507V142.32H112.717V143.892H109.425V145.878H112.488V147.45H109.425V149.783H112.717V151.367ZM119.952 148.855C119.952 149.391 119.822 149.857 119.562 150.253C119.302 150.649 118.922 150.955 118.423 151.169C117.928 151.384 117.326 151.491 116.616 151.491C116.302 151.491 115.995 151.47 115.694 151.429C115.397 151.388 115.11 151.328 114.834 151.25C114.561 151.167 114.302 151.066 114.054 150.946V149.164C114.483 149.354 114.929 149.525 115.391 149.678C115.853 149.83 116.311 149.907 116.765 149.907C117.078 149.907 117.33 149.865 117.519 149.783C117.713 149.7 117.854 149.587 117.94 149.443C118.027 149.298 118.07 149.133 118.07 148.948C118.07 148.721 117.994 148.527 117.841 148.366C117.689 148.205 117.478 148.054 117.21 147.914C116.946 147.774 116.647 147.623 116.313 147.462C116.102 147.363 115.873 147.244 115.626 147.103C115.378 146.959 115.143 146.784 114.92 146.577C114.698 146.371 114.514 146.122 114.37 145.829C114.229 145.532 114.159 145.177 114.159 144.764C114.159 144.224 114.283 143.762 114.531 143.378C114.778 142.994 115.131 142.701 115.589 142.499C116.051 142.293 116.595 142.19 117.222 142.19C117.693 142.19 118.14 142.246 118.565 142.357C118.994 142.464 119.442 142.621 119.908 142.827L119.289 144.319C118.873 144.15 118.499 144.02 118.169 143.929C117.839 143.834 117.503 143.786 117.161 143.786C116.921 143.786 116.717 143.826 116.548 143.904C116.379 143.978 116.251 144.086 116.164 144.226C116.078 144.362 116.034 144.521 116.034 144.702C116.034 144.917 116.096 145.098 116.22 145.247C116.348 145.391 116.538 145.532 116.789 145.668C117.045 145.804 117.363 145.963 117.742 146.144C118.204 146.363 118.598 146.592 118.924 146.831C119.254 147.066 119.508 147.345 119.685 147.667C119.863 147.984 119.952 148.38 119.952 148.855ZM125.082 151.367H123.163V143.916H120.706V142.32H127.538V143.916H125.082V151.367ZM135.113 142.32C136.28 142.32 137.132 142.572 137.669 143.075C138.205 143.574 138.473 144.263 138.473 145.142C138.473 145.538 138.413 145.917 138.294 146.28C138.174 146.639 137.978 146.959 137.706 147.24C137.438 147.52 137.079 147.743 136.629 147.908C136.179 148.069 135.624 148.149 134.964 148.149H134.141V151.367H132.223V142.32H135.113ZM135.014 143.892H134.141V146.577H134.773C135.131 146.577 135.443 146.53 135.707 146.435C135.971 146.34 136.175 146.192 136.32 145.99C136.464 145.787 136.536 145.527 136.536 145.21C136.536 144.764 136.412 144.434 136.165 144.22C135.917 144.001 135.534 143.892 135.014 143.892ZM148.393 146.831C148.393 147.528 148.306 148.164 148.133 148.737C147.96 149.306 147.696 149.797 147.341 150.21C146.99 150.623 146.545 150.94 146.004 151.163C145.464 151.382 144.824 151.491 144.086 151.491C143.347 151.491 142.708 151.382 142.168 151.163C141.627 150.94 141.18 150.623 140.825 150.21C140.474 149.797 140.212 149.304 140.039 148.731C139.866 148.158 139.779 147.52 139.779 146.819C139.779 145.882 139.932 145.067 140.237 144.374C140.546 143.677 141.021 143.137 141.66 142.753C142.3 142.369 143.112 142.178 144.098 142.178C145.08 142.178 145.887 142.369 146.518 142.753C147.153 143.137 147.624 143.677 147.929 144.374C148.238 145.072 148.393 145.891 148.393 146.831ZM141.79 146.831C141.79 147.462 141.868 148.007 142.025 148.465C142.186 148.919 142.436 149.269 142.774 149.517C143.112 149.76 143.55 149.882 144.086 149.882C144.631 149.882 145.072 149.76 145.41 149.517C145.749 149.269 145.994 148.919 146.147 148.465C146.303 148.007 146.382 147.462 146.382 146.831C146.382 145.882 146.204 145.136 145.85 144.591C145.495 144.046 144.911 143.774 144.098 143.774C143.558 143.774 143.116 143.898 142.774 144.145C142.436 144.389 142.186 144.739 142.025 145.197C141.868 145.651 141.79 146.196 141.79 146.831ZM155.609 148.855C155.609 149.391 155.479 149.857 155.219 150.253C154.959 150.649 154.579 150.955 154.08 151.169C153.585 151.384 152.983 151.491 152.273 151.491C151.96 151.491 151.652 151.47 151.351 151.429C151.054 151.388 150.767 151.328 150.491 151.25C150.219 151.167 149.959 151.066 149.711 150.946V149.164C150.14 149.354 150.586 149.525 151.048 149.678C151.51 149.83 151.968 149.907 152.422 149.907C152.735 149.907 152.987 149.865 153.177 149.783C153.371 149.7 153.511 149.587 153.597 149.443C153.684 149.298 153.727 149.133 153.727 148.948C153.727 148.721 153.651 148.527 153.498 148.366C153.346 148.205 153.135 148.054 152.867 147.914C152.603 147.774 152.304 147.623 151.97 147.462C151.759 147.363 151.531 147.244 151.283 147.103C151.035 146.959 150.8 146.784 150.578 146.577C150.355 146.371 150.171 146.122 150.027 145.829C149.886 145.532 149.816 145.177 149.816 144.764C149.816 144.224 149.94 143.762 150.188 143.378C150.435 142.994 150.788 142.701 151.246 142.499C151.708 142.293 152.252 142.19 152.88 142.19C153.35 142.19 153.797 142.246 154.222 142.357C154.651 142.464 155.099 142.621 155.565 142.827L154.946 144.319C154.53 144.15 154.156 144.02 153.826 143.929C153.496 143.834 153.16 143.786 152.818 143.786C152.578 143.786 152.374 143.826 152.205 143.904C152.036 143.978 151.908 144.086 151.821 144.226C151.735 144.362 151.691 144.521 151.691 144.702C151.691 144.917 151.753 145.098 151.877 145.247C152.005 145.391 152.195 145.532 152.446 145.668C152.702 145.804 153.02 145.963 153.399 146.144C153.861 146.363 154.255 146.592 154.581 146.831C154.911 147.066 155.165 147.345 155.343 147.667C155.52 147.984 155.609 148.38 155.609 148.855ZM160.739 151.367H158.82V143.916H156.364V142.32H163.195V143.916H160.739V151.367ZM169.928 148.855C169.928 149.391 169.798 149.857 169.539 150.253C169.279 150.649 168.899 150.955 168.4 151.169C167.905 151.384 167.302 151.491 166.593 151.491C166.279 151.491 165.972 151.47 165.671 151.429C165.374 151.388 165.087 151.328 164.811 151.25C164.538 151.167 164.278 151.066 164.031 150.946V149.164C164.46 149.354 164.906 149.525 165.368 149.678C165.83 149.83 166.288 149.907 166.741 149.907C167.055 149.907 167.307 149.865 167.496 149.783C167.69 149.7 167.831 149.587 167.917 149.443C168.004 149.298 168.047 149.133 168.047 148.948C168.047 148.721 167.971 148.527 167.818 148.366C167.666 148.205 167.455 148.054 167.187 147.914C166.923 147.774 166.624 147.623 166.29 147.462C166.079 147.363 165.85 147.244 165.603 147.103C165.355 146.959 165.12 146.784 164.897 146.577C164.675 146.371 164.491 146.122 164.347 145.829C164.206 145.532 164.136 145.177 164.136 144.764C164.136 144.224 164.26 143.762 164.507 143.378C164.755 142.994 165.108 142.701 165.566 142.499C166.028 142.293 166.572 142.19 167.199 142.19C167.67 142.19 168.117 142.246 168.542 142.357C168.971 142.464 169.419 142.621 169.885 142.827L169.266 144.319C168.85 144.15 168.476 144.02 168.146 143.929C167.816 143.834 167.48 143.786 167.137 143.786C166.898 143.786 166.694 143.826 166.525 143.904C166.356 143.978 166.228 144.086 166.141 144.226C166.055 144.362 166.011 144.521 166.011 144.702C166.011 144.917 166.073 145.098 166.197 145.247C166.325 145.391 166.515 145.532 166.766 145.668C167.022 145.804 167.34 145.963 167.719 146.144C168.181 146.363 168.575 146.592 168.901 146.831C169.231 147.066 169.485 147.345 169.662 147.667C169.84 147.984 169.928 148.38 169.928 148.855Z" fill="black"/>
<defs>
<linearGradient id="paint0_linear_487_11665" x1="51.7148" y1="37.4356" x2="381.82" y2="40.6263" gradientUnits="userSpaceOnUse">
<stop stop-color="#FF6CAB"/>
<stop offset="1" stop-color="#7366FF"/>
</linearGradient>
<clipPath id="clip0_487_11665">
<rect width="68.5203" height="68.4442" fill="white" transform="translate(51.3867)"/>
</clipPath>
<clipPath id="clip1_487_11665">
<rect width="331.182" height="68.4442" fill="white" transform="translate(51.1875 -0.0683594)"/>
</clipPath>
<clipPath id="clip2_487_11665">
<rect width="330.135" height="68.3096" fill="white" transform="translate(51.7148)"/>
</clipPath>
<clipPath id="clip3_487_11665">
<rect width="330.135" height="68.3096" fill="white" transform="translate(51.7148)"/>
</clipPath>
<clipPath id="clip4_487_11665">
<rect width="67.3103" height="67.3103" fill="white" transform="translate(51.7148 0.5)"/>
</clipPath>
<clipPath id="clip5_487_11665">
<rect width="67.3103" height="67.3103" fill="white" transform="translate(51.7188 0.5)"/>
</clipPath>
<clipPath id="clip6_487_11665">
<rect width="35.3768" height="25.8902" fill="white" transform="translate(67.6836 21.2109)"/>
</clipPath>
<clipPath id="clip7_487_11665">
<rect width="35.3768" height="25.8902" fill="white" transform="translate(67.6836 21.2109)"/>
</clipPath>
<clipPath id="clip8_487_11665">
<rect width="330.135" height="68.3096" fill="white" transform="translate(51.7188 0.00195312)"/>
</clipPath>
<clipPath id="clip9_487_11665">
<rect width="330.135" height="68.3096" fill="white" transform="translate(51.7227 0.00195312)"/>
</clipPath>
<clipPath id="clip10_487_11665">
<rect width="67.3103" height="67.3103" fill="white" transform="translate(51.7227 0.501953)"/>
</clipPath>
<clipPath id="clip11_487_11665">
<rect width="67.3103" height="67.3103" fill="white" transform="translate(51.7227 0.501953)"/>
</clipPath>
<clipPath id="clip12_487_11665">
<rect width="35.3768" height="25.8902" fill="white" transform="translate(67.6875 21.2129)"/>
</clipPath>
<clipPath id="clip13_487_11665">
<rect width="35.3768" height="25.8902" fill="white" transform="translate(67.6875 21.2129)"/>
</clipPath>
</defs>
</svg>
