<svg width="468" height="298" viewBox="0 0 468 298" fill="none" xmlns="http://www.w3.org/2000/svg">
<path d="M0 11.747C0 5.2593 5.25931 0 11.747 0H456.253C462.741 0 468 5.25931 468 11.747V298H0V11.747Z" fill="#FAF9F6"/>
<path d="M132 110.65H160.564C163.933 110.65 166.664 113.382 166.664 116.751V145.592C166.664 148.962 169.396 151.693 172.765 151.693H189.959" stroke="#989898" stroke-width="1.69003" stroke-dasharray="3.38 3.38"/>
<path d="M191 151.691H161.395C158.026 151.691 155.295 154.423 155.295 157.792V186.633C155.295 190.003 152.563 192.734 149.194 192.734H132" stroke="#989898" stroke-width="1.69003" stroke-dasharray="3.38 3.38"/>
<g filter="url(#filter0_d_386_10960)">
<rect x="82" y="84" width="50.3868" height="50.3868" rx="25.1934" fill="white"/>
</g>
<path d="M276 152.211L311 152.211" stroke="#989898" stroke-width="2"/>
<g filter="url(#filter1_d_386_10960)">
<rect x="82" y="163" width="50.3868" height="50.3868" rx="25.1934" fill="white"/>
</g>
<g filter="url(#filter2_d_386_10960)">
<rect x="310" y="114" width="76.3867" height="76.3867" rx="38.1934" fill="white"/>
</g>
<g filter="url(#filter3_d_386_10960)">
<rect x="191" y="111" width="85.3848" height="85.3848" rx="13.9214" fill="#344C92"/>
</g>
<path fill-rule="evenodd" clip-rule="evenodd" d="M116.573 96.9328C116.7 96.8817 117.467 96.6517 118.272 96.4345C119.077 96.2045 119.831 96.0128 119.933 96C120.035 96 120.189 96.0639 120.265 96.1533C120.355 96.2428 120.623 97.0734 120.866 97.9806C121.16 99.0923 121.275 99.7184 121.198 99.8718C121.134 99.9868 120.955 100.089 120.789 100.089C120.636 100.102 120.444 100.025 120.368 99.9357C120.291 99.8462 120.112 99.3862 119.984 98.9006C119.857 98.4278 119.716 98.0445 119.678 98.0445C119.639 98.0445 118.86 99.2968 117.94 100.83C117.167 102.108 115.96 104.118 113.986 107.405C113.612 108.028 113.209 108.698 112.777 109.417L113.059 109.903C113.276 110.286 113.314 110.503 113.25 111.014C113.212 111.372 113.071 111.794 112.931 111.973C112.803 112.152 112.496 112.407 112.254 112.535C112.011 112.675 111.589 112.79 111.308 112.79C111.027 112.79 110.592 112.675 110.35 112.535C110.107 112.394 109.775 112.075 109.609 111.832C109.404 111.525 109.327 111.219 109.34 110.12L105.047 107.219L104.497 107.424C104.203 107.539 103.794 107.628 103.577 107.628C103.36 107.628 103.002 107.526 102.312 107.181L100.677 108.523C99.7821 109.251 98.7982 110.056 98.5043 110.312C98.006 110.72 97.9676 110.797 98.0315 111.206C98.0826 111.525 98.0188 111.819 97.8015 112.228C97.6099 112.599 97.3287 112.905 96.9965 113.084C96.7154 113.25 96.2937 113.378 96.0637 113.378C95.8465 113.378 95.4376 113.276 95.182 113.161C94.9264 113.033 94.5687 112.727 94.3898 112.484C94.2109 112.228 94.0448 111.807 94.0192 111.525C93.9936 111.168 94.0703 110.835 94.2748 110.439C94.4537 110.107 94.7476 109.762 95.0159 109.621C95.2715 109.468 95.7059 109.366 96.0381 109.366C96.3704 109.366 96.7665 109.455 96.9582 109.583C97.1754 109.711 97.3799 109.762 97.4693 109.698C97.5587 109.634 98.5427 108.855 101.661 106.35V105.75C101.661 105.405 101.763 104.932 101.891 104.689C102.006 104.446 102.312 104.114 102.555 103.948C102.874 103.744 103.181 103.667 103.641 103.667C104.05 103.667 104.433 103.756 104.689 103.922C104.919 104.063 105.226 104.37 105.366 104.6C105.532 104.868 105.622 105.226 105.622 106.286L109.902 109.2L110.35 109.034C110.592 108.931 111.052 108.829 111.909 108.714L115.359 103.028C117.531 99.4501 118.719 97.3673 118.579 97.4184C118.438 97.4695 117.978 97.61 117.544 97.7378C116.841 97.9551 116.739 97.9551 116.547 97.7889C116.432 97.6867 116.343 97.4695 116.355 97.3161C116.355 97.15 116.458 96.9839 116.573 96.9328ZM116.215 114.413C116.215 108.063 116.228 107.373 116.419 107.194C116.598 107.028 117.007 106.989 118.86 106.989C120.087 106.989 121.198 107.04 121.339 107.117C121.594 107.245 121.594 107.373 121.594 121.428H122.131C122.438 121.428 122.757 121.492 122.847 121.582C122.936 121.671 123 121.825 123 121.914C123 121.991 122.911 122.157 122.796 122.259C122.629 122.425 120.738 122.451 107.436 122.451C93.9042 122.464 92.2558 122.438 92.1025 122.259C92.0258 122.157 91.9747 121.927 92.013 121.748C92.0769 121.454 92.1408 121.428 93.3547 121.428V118.208C93.3547 115.844 93.3931 114.937 93.5081 114.822C93.6231 114.694 94.3003 114.656 96.0254 114.656C97.776 114.656 98.4404 114.694 98.5682 114.809C98.6832 114.937 98.7216 115.768 98.7216 121.428L100.958 121.365L100.996 116.253C101.022 112.471 101.073 111.104 101.188 110.976C101.303 110.848 101.916 110.81 103.641 110.823C104.906 110.823 106.031 110.887 106.133 110.95C106.299 111.053 106.325 111.807 106.388 121.428H108.561V118.298C108.561 116.471 108.612 115.065 108.688 114.912C108.803 114.669 108.944 114.656 111.206 114.656C113.02 114.643 113.646 114.682 113.761 114.809C113.876 114.924 113.928 115.896 113.991 121.365L116.228 121.428L116.215 114.413ZM102.682 105.52C102.695 105.405 102.835 105.175 103.002 105.009C103.193 104.804 103.449 104.689 103.704 104.689C103.973 104.689 104.164 104.791 104.343 105.034C104.497 105.239 104.612 105.494 104.599 105.609C104.599 105.737 104.535 105.954 104.471 106.095C104.407 106.235 104.19 106.414 103.998 106.478C103.756 106.58 103.538 106.58 103.321 106.491C103.142 106.414 102.925 106.21 102.848 106.031C102.759 105.852 102.682 105.622 102.682 105.52ZM117.351 114.733C117.326 109.085 117.351 108.152 117.518 108.101C117.607 108.063 118.348 108.024 120.572 108.011V121.301H117.377L117.351 114.733ZM110.451 110.35C110.502 110.235 110.707 110.069 110.898 109.979C111.103 109.903 111.384 109.864 111.525 109.915C111.678 109.954 111.908 110.133 112.036 110.312C112.164 110.49 112.279 110.733 112.266 110.861C112.266 110.976 112.125 111.219 111.946 111.398C111.767 111.589 111.499 111.717 111.282 111.717C111.09 111.717 110.796 111.589 110.63 111.423C110.477 111.27 110.349 111.014 110.349 110.861C110.349 110.695 110.387 110.465 110.451 110.35ZM95.143 111.372C95.143 111.129 95.2453 110.848 95.3986 110.695C95.5392 110.554 95.8203 110.439 96.0375 110.439C96.2547 110.439 96.5359 110.554 96.6764 110.695C96.817 110.835 96.932 111.104 96.932 111.308C96.932 111.5 96.8425 111.781 96.7403 111.947C96.5998 112.152 96.4209 112.228 96.0631 112.228C95.7947 112.228 95.4881 112.126 95.3603 111.998C95.2325 111.87 95.1303 111.602 95.143 111.372ZM102.043 121.301V116.573V111.845H105.238V114.95C105.238 116.649 105.276 118.771 105.429 121.301H102.043ZM94.3508 118.579C94.338 117.071 94.3764 115.806 94.4402 115.768C94.5041 115.717 95.2069 115.678 97.507 115.678L97.5964 116.534C97.6603 117.02 97.6987 118.285 97.6987 121.301H94.3764L94.3508 118.579ZM109.71 121.301V118.49V115.678H112.905V121.301H109.71Z" fill="#6A6A6A"/>
<path opacity="0.9" fill-rule="evenodd" clip-rule="evenodd" d="M255.011 127.034L255.689 127.825C256.339 128.559 256.367 128.729 256.367 137.628H210.599V133.164C210.599 129.548 210.684 128.616 211.052 128.079C211.306 127.712 211.786 127.316 212.125 127.175C212.436 127.034 222.239 126.949 255.011 127.034ZM212.577 130.17C212.86 130.424 213.199 130.509 213.509 130.368C213.82 130.226 213.99 129.915 213.933 129.576C213.877 129.237 213.594 128.983 213.227 128.927C212.86 128.87 212.521 129.011 212.379 129.294C212.238 129.576 212.323 129.887 212.577 130.17ZM215.148 130.057C215.289 130.339 215.6 130.565 215.826 130.565C216.052 130.565 216.363 130.339 216.504 130.057C216.617 129.802 216.702 129.407 216.645 129.209C216.589 129.04 216.222 128.87 215.854 128.87C215.459 128.87 215.091 129.04 215.035 129.209C214.978 129.407 215.035 129.802 215.148 130.057ZM217.606 129.774C217.634 130.057 217.888 130.339 218.143 130.424C218.425 130.509 218.849 130.396 219.075 130.17C219.329 129.915 219.414 129.576 219.273 129.294C219.16 129.068 218.849 128.87 218.566 128.87C218.284 128.87 217.945 128.955 217.804 129.068C217.662 129.153 217.578 129.492 217.606 129.774ZM212.295 135.651H249.304V132.26H212.295V135.651ZM251.254 133.984C251.254 134.436 251.48 135.001 251.706 135.227C251.932 135.453 252.497 135.651 252.977 135.651C253.542 135.651 253.966 135.434 254.248 135.001C254.474 134.662 254.672 134.153 254.672 133.871C254.672 133.616 254.418 133.136 254.107 132.825C253.796 132.515 253.316 132.26 253.033 132.26C252.779 132.26 252.242 132.458 251.875 132.684C251.395 133.023 251.225 133.39 251.254 133.984ZM208.65 139.323H258.345L259.136 140.001C259.899 140.679 259.899 140.679 259.983 145.03C260.04 148.138 259.955 149.579 259.701 150.172C259.503 150.624 258.994 151.161 258.571 151.358C257.921 151.697 253.429 151.754 233.483 151.754C213.538 151.754 209.046 151.697 208.424 151.358C207.972 151.161 207.464 150.624 207.266 150.172C207.012 149.579 206.927 148.138 207.068 140.679L208.65 139.323ZM208.848 145.567L208.904 149.776H258.062C258.062 142.035 257.977 141.273 257.638 141.16C257.412 141.075 246.507 141.047 233.399 141.047C220.318 141.047 209.413 141.131 209.187 141.216C208.848 141.329 208.791 142.092 208.848 145.567ZM210.599 153.449H212.295L212.436 177.887H254.531L254.644 153.449H256.367V178.31L255.011 179.864H211.956L210.599 178.31V153.449ZM213.99 153.449H236.026V155.144H213.99V153.449ZM251.141 156.98L251.282 158.817H213.99L213.933 158.026C213.905 157.574 213.99 157.15 214.131 157.037C214.244 156.924 222.635 156.867 251.141 156.98ZM223.849 163.902C229.076 163.902 233.935 163.987 234.67 164.128C235.913 164.326 236.026 164.411 236.026 165.88H213.99L213.933 165.089C213.905 164.637 213.99 164.213 214.131 164.1C214.244 163.987 218.623 163.902 223.849 163.902ZM213.99 167.575H251.282V169.27H213.99V167.575ZM223.849 142.713C229.076 142.713 233.935 142.798 234.67 142.939C235.913 143.137 236.026 143.222 236.026 144.691H213.99L213.933 143.9C213.905 143.448 213.99 143.024 214.131 142.911C214.244 142.798 218.623 142.713 223.849 142.713ZM213.99 146.386H251.282V148.081H213.99V146.386Z" fill="white"/>
<path fill-rule="evenodd" clip-rule="evenodd" d="M348.947 139.362V134C348.232 134 348.035 134.125 347.982 134.357C347.91 134.554 347.606 134.804 347.249 134.929C346.856 135.072 346.623 135.269 346.623 135.466C346.623 135.716 346.766 135.787 347.249 135.787H347.874V139.362H348.947ZM354.488 141.597L353.952 141.15C343.173 141.15 343.102 141.15 342.601 141.543C342.315 141.775 341.994 142.222 341.851 142.526C341.69 142.937 341.618 144.028 341.618 146.012V148.925C332.824 148.836 331.859 148.889 331.341 149.104C331.001 149.247 330.554 149.64 330.357 149.944C330.018 150.516 330 150.856 330 159.292C330 167.747 330.018 168.069 330.357 168.587C330.554 168.891 330.894 169.213 331.126 169.338C331.43 169.499 335.523 169.552 348.446 169.57C364.265 169.57 365.427 169.552 365.928 169.248C366.231 169.087 366.589 168.676 366.732 168.355C366.946 167.89 367 166.746 367 162.099C367 156.754 366.982 156.397 366.643 155.843C366.446 155.539 365.999 155.145 365.659 155.002C365.141 154.788 364.176 154.734 360.208 154.77L355.382 154.824C355.382 145.886 355.31 143.098 355.203 142.723C355.096 142.347 354.792 141.847 354.488 141.597ZM337.65 142.294C337.346 141.972 337.007 141.811 336.435 141.757C335.934 141.704 335.487 141.775 335.237 141.918C335.041 142.061 334.737 142.365 334.576 142.598C334.433 142.83 334.308 143.205 334.29 143.42C334.29 143.742 334.397 143.831 334.737 143.831C335.058 143.831 335.237 143.688 335.38 143.33C335.487 143.062 335.666 142.794 335.773 142.723C335.899 142.651 336.095 142.58 336.22 142.58C336.328 142.58 336.542 142.705 336.685 142.866C336.81 143.009 336.935 143.33 336.953 143.581C336.971 143.92 336.721 144.188 335.863 144.832C335.237 145.279 334.594 145.851 334.433 146.119C334.254 146.387 334.111 146.744 334.111 146.905C334.111 147.191 334.326 147.227 336.077 147.227H338.043C338.043 146.351 338.008 146.333 336.757 146.315H335.452C336.399 145.565 336.989 145.064 337.364 144.725C337.9 144.224 338.026 143.974 338.043 143.42C338.043 142.979 337.912 142.604 337.65 142.294ZM362.228 147.316C361.852 146.977 361.53 146.852 360.958 146.87C360.333 146.87 360.083 146.977 359.671 147.388C359.386 147.674 359.153 148.085 359.153 148.282C359.135 148.55 359.243 148.657 359.546 148.657C359.797 148.657 360.029 148.496 360.172 148.21C360.351 147.853 360.494 147.763 360.976 147.799C361.441 147.853 361.566 147.942 361.602 148.3C361.62 148.55 361.548 148.854 361.423 148.979C361.298 149.104 361.048 149.211 360.887 149.193C360.69 149.193 360.565 149.318 360.565 149.497C360.565 149.712 360.78 149.89 361.137 149.998C361.566 150.123 361.745 150.301 361.781 150.623C361.816 150.873 361.691 151.213 361.513 151.392C361.334 151.571 361.066 151.714 360.923 151.714C360.78 151.714 360.512 151.571 360.351 151.392C360.172 151.213 360.029 150.963 360.029 150.838C360.029 150.713 359.797 150.623 359.493 150.623C359.1 150.623 358.957 150.713 358.957 150.927C358.939 151.106 359.1 151.463 359.314 151.731C359.529 152.035 359.957 152.303 360.351 152.393C360.762 152.5 361.209 152.5 361.548 152.393C361.852 152.303 362.263 152.053 362.496 151.821C362.764 151.553 362.889 151.231 362.889 150.802C362.889 150.427 362.746 150.033 362.514 149.819C362.192 149.497 362.192 149.443 362.442 149.193C362.603 149.05 362.728 148.657 362.71 148.335C362.71 147.942 362.549 147.62 362.228 147.316ZM343.548 155.467C343.512 144.85 343.548 143.134 343.763 143.062C343.906 143.009 346.015 142.955 348.446 142.955C350.894 142.937 353.004 142.973 353.147 143.027C353.379 143.098 353.415 144.653 353.415 167.783H343.584L343.548 155.467ZM332.001 159.471C331.983 154.949 332.001 151.142 332.055 151.016C332.126 150.838 333.181 150.802 341.528 150.891L341.618 167.783L332.055 167.693L332.001 159.471ZM355.381 167.783V162.242V156.7L364.944 156.79V167.693L355.381 167.783Z" fill="#344C92"/>
<path fill-rule="evenodd" clip-rule="evenodd" d="M101.199 175.612C101.83 175.396 102.738 175.15 103.199 175.089C103.661 175.012 104.6 174.981 105.277 175.012C105.954 175.043 106.954 175.181 107.508 175.32C108.062 175.458 109.001 175.812 109.585 176.089C110.17 176.381 111.109 176.997 111.663 177.443C112.217 177.889 112.971 178.674 113.34 179.182C113.725 179.674 114.263 180.567 114.54 181.167C114.817 181.752 115.156 182.69 115.294 183.244C115.448 183.845 115.556 184.845 115.556 185.783C115.556 186.907 115.464 187.661 115.217 188.553C115.033 189.23 114.633 190.231 114.34 190.785C114.063 191.338 113.448 192.231 113.001 192.785C112.555 193.339 112.047 193.847 111.878 193.908C111.632 194.016 112.001 194.447 114.509 196.94C116.602 199.048 117.526 199.863 117.787 199.863C117.987 199.863 118.31 199.694 118.51 199.479C118.726 199.263 118.895 198.94 118.895 198.74C118.895 198.509 118.126 197.632 116.448 195.939C115.11 194.585 113.925 193.324 113.832 193.123C113.74 192.939 113.663 192.677 113.663 192.554C113.663 192.431 113.802 192.185 113.971 192.016C114.156 191.831 114.494 191.708 114.786 191.708C115.217 191.708 115.571 192 117.987 194.431C120.465 196.94 120.711 197.232 120.88 197.94C120.988 198.371 121.034 198.956 120.972 199.248C120.911 199.54 120.695 200.079 120.495 200.433C120.28 200.833 119.864 201.248 119.48 201.464C119.11 201.679 118.541 201.895 118.203 201.941C117.864 202.002 117.279 201.972 116.895 201.864C116.294 201.71 115.802 201.295 109.893 195.37L108.893 195.755C108.339 195.97 107.539 196.232 107.123 196.34C106.708 196.432 105.661 196.524 104.815 196.524C103.846 196.524 102.907 196.432 102.276 196.263C101.722 196.124 100.783 195.786 100.199 195.509C99.5985 195.232 98.706 194.693 98.2136 194.308C97.7058 193.939 96.921 193.185 96.4747 192.631C96.0285 192.077 95.4129 191.138 95.136 190.554C94.8436 189.969 94.5051 189.061 94.3666 188.553C94.2435 188.045 94.0896 187.138 94.028 186.553C93.9665 185.937 94.0126 184.983 94.105 184.322C94.2127 183.691 94.4589 182.675 94.6743 182.09C94.8744 181.506 95.2745 180.628 95.5514 180.167C95.813 179.705 96.567 178.813 97.198 178.166C97.8443 177.535 98.7368 176.781 99.1984 176.52C99.66 176.243 100.568 175.827 101.199 175.612ZM100.969 178.012C101.553 177.735 102.461 177.412 102.969 177.305C103.477 177.197 104.277 177.105 104.739 177.105C105.2 177.105 106.077 177.197 106.662 177.32C107.247 177.458 108.186 177.782 108.74 178.059C109.37 178.366 110.155 178.951 110.848 179.628C111.663 180.428 112.079 180.998 112.494 181.859C112.802 182.49 113.156 183.506 113.279 184.091C113.402 184.675 113.51 185.445 113.51 185.783C113.51 186.122 113.402 186.891 113.279 187.476C113.156 188.061 112.802 189.076 112.479 189.707C112.094 190.492 111.586 191.185 110.909 191.877C110.217 192.554 109.524 193.062 108.74 193.447C108.109 193.77 107.093 194.124 106.508 194.247C105.924 194.37 105.154 194.478 104.816 194.478C104.477 194.478 103.708 194.37 103.123 194.247C102.538 194.124 101.523 193.77 100.892 193.462C100.076 193.062 99.4452 192.616 98.722 191.892C98.0449 191.205 97.5115 190.477 97.1216 189.707C96.8139 189.076 96.4446 188.107 96.3368 187.553C96.2137 186.999 96.1214 186.214 96.1214 185.783C96.1214 185.368 96.2137 184.568 96.3368 184.014C96.4446 183.46 96.7677 182.521 97.0447 181.936C97.414 181.152 97.8756 180.551 98.722 179.69C99.5683 178.843 100.184 178.382 100.969 178.012Z" fill="#6A6A6A"/>
<path d="M103.199 175.089L103.232 175.337L103.24 175.335L103.199 175.089ZM101.199 175.612L101.28 175.849L101.28 175.849L101.199 175.612ZM105.277 175.012L105.288 174.762L105.288 174.762L105.277 175.012ZM107.508 175.32L107.447 175.562L107.447 175.562L107.508 175.32ZM109.585 176.089L109.697 175.865L109.692 175.863L109.585 176.089ZM111.663 177.443L111.82 177.248L111.82 177.248L111.663 177.443ZM113.34 179.182L113.138 179.329L113.143 179.336L113.34 179.182ZM114.54 181.167L114.313 181.272L114.314 181.274L114.54 181.167ZM115.294 183.244L115.052 183.305L115.052 183.306L115.294 183.244ZM115.217 188.553L114.976 188.487L114.976 188.487L115.217 188.553ZM114.34 190.785L114.119 190.668L114.117 190.673L114.34 190.785ZM113.001 192.785L113.196 192.942L113.196 192.942L113.001 192.785ZM111.878 193.908L111.793 193.673L111.785 193.676L111.778 193.679L111.878 193.908ZM114.509 196.94L114.687 196.764L114.686 196.762L114.509 196.94ZM118.51 199.479L118.333 199.302L118.327 199.309L118.51 199.479ZM116.448 195.939L116.271 196.115L116.271 196.115L116.448 195.939ZM113.832 193.123L114.059 193.019L114.056 193.012L113.832 193.123ZM117.987 194.431L118.165 194.256L118.164 194.255L117.987 194.431ZM120.88 197.94L120.637 197.998L120.638 198.001L120.88 197.94ZM120.972 199.248L121.217 199.299L121.217 199.299L120.972 199.248ZM120.495 200.433L120.278 200.31L120.275 200.314L120.495 200.433ZM119.48 201.464L119.358 201.246L119.354 201.248L119.48 201.464ZM118.203 201.941L118.169 201.693L118.158 201.695L118.203 201.941ZM116.895 201.864L116.962 201.623L116.957 201.622L116.895 201.864ZM109.893 195.37L110.07 195.194L109.955 195.078L109.803 195.137L109.893 195.37ZM108.893 195.755L108.803 195.521L108.802 195.522L108.893 195.755ZM107.123 196.34L107.177 196.584L107.186 196.582L107.123 196.34ZM102.276 196.263L102.341 196.021L102.337 196.02L102.276 196.263ZM100.199 195.509L100.306 195.283L100.303 195.282L100.199 195.509ZM98.2136 194.308L98.3676 194.111L98.3606 194.106L98.2136 194.308ZM95.136 190.554L95.3619 190.447L95.3596 190.442L95.136 190.554ZM94.3666 188.553L94.1235 188.612L94.1254 188.619L94.3666 188.553ZM94.028 186.553L93.7793 186.578L93.7794 186.579L94.028 186.553ZM94.105 184.322L93.8584 184.279L93.8574 184.287L94.105 184.322ZM94.6743 182.09L94.909 182.177L94.9109 182.171L94.6743 182.09ZM95.5514 180.167L95.7659 180.295L95.7689 180.29L95.5514 180.167ZM97.198 178.166L97.0233 177.987L97.0191 177.992L97.198 178.166ZM99.1984 176.52L99.3217 176.737L99.327 176.734L99.1984 176.52ZM102.969 177.305L102.917 177.06L102.917 177.06L102.969 177.305ZM100.969 178.012L101.075 178.239L101.076 178.238L100.969 178.012ZM106.662 177.32L106.72 177.077L106.714 177.075L106.662 177.32ZM108.74 178.059L108.628 178.282L108.63 178.283L108.74 178.059ZM110.848 179.628L111.023 179.45L111.023 179.449L110.848 179.628ZM112.494 181.859L112.269 181.968L112.27 181.969L112.494 181.859ZM112.479 189.707L112.256 189.593L112.254 189.597L112.479 189.707ZM110.909 191.877L111.084 192.056L111.088 192.052L110.909 191.877ZM108.74 193.447L108.63 193.222L108.626 193.224L108.74 193.447ZM100.892 193.462L100.782 193.686L100.782 193.687L100.892 193.462ZM98.722 191.892L98.5439 192.068L98.5452 192.069L98.722 191.892ZM97.1216 189.707L96.8969 189.817L96.8986 189.82L97.1216 189.707ZM96.3368 187.553L96.5823 187.505L96.5809 187.499L96.3368 187.553ZM96.3368 184.014L96.581 184.068L96.5822 184.061L96.3368 184.014ZM97.0447 181.936L97.2706 182.043L97.2709 182.043L97.0447 181.936ZM98.722 179.69L98.5452 179.513L98.5436 179.515L98.722 179.69ZM103.166 174.841C102.68 174.906 101.754 175.158 101.118 175.375L101.28 175.849C101.905 175.635 102.795 175.395 103.232 175.337L103.166 174.841ZM105.288 174.762C104.602 174.731 103.644 174.761 103.158 174.842L103.24 175.335C103.678 175.262 104.597 175.231 105.265 175.262L105.288 174.762ZM107.569 175.077C106.996 174.934 105.979 174.793 105.288 174.762L105.265 175.262C105.929 175.292 106.912 175.428 107.447 175.562L107.569 175.077ZM109.692 175.863C109.097 175.581 108.142 175.22 107.569 175.077L107.447 175.562C107.981 175.696 108.904 176.043 109.478 176.315L109.692 175.863ZM111.82 177.248C111.254 176.793 110.3 176.167 109.697 175.865L109.474 176.313C110.04 176.596 110.964 177.201 111.506 177.638L111.82 177.248ZM113.542 179.035C113.159 178.508 112.389 177.707 111.82 177.248L111.506 177.638C112.044 178.072 112.783 178.841 113.138 179.329L113.542 179.035ZM114.767 181.062C114.483 180.446 113.934 179.537 113.537 179.028L113.143 179.336C113.515 179.812 114.044 180.688 114.313 181.272L114.767 181.062ZM115.537 183.184C115.394 182.613 115.05 181.658 114.766 181.06L114.314 181.274C114.585 181.845 114.918 182.768 115.052 183.305L115.537 183.184ZM115.806 185.783C115.806 184.832 115.697 183.809 115.536 183.182L115.052 183.306C115.199 183.88 115.306 184.858 115.306 185.783H115.806ZM115.458 188.62C115.712 187.702 115.806 186.925 115.806 185.783H115.306C115.306 186.889 115.215 187.62 114.976 188.487L115.458 188.62ZM114.561 190.901C114.862 190.331 115.269 189.314 115.459 188.619L114.976 188.487C114.796 189.147 114.403 190.13 114.119 190.668L114.561 190.901ZM113.196 192.942C113.648 192.381 114.276 191.472 114.564 190.896L114.117 190.673C113.851 191.204 113.247 192.081 112.807 192.628L113.196 192.942ZM111.964 194.143C112.051 194.111 112.144 194.041 112.222 193.977C112.308 193.906 112.407 193.813 112.513 193.708C112.723 193.497 112.968 193.225 113.196 192.942L112.807 192.628C112.589 192.899 112.356 193.158 112.159 193.354C112.06 193.453 111.973 193.534 111.903 193.592C111.824 193.658 111.79 193.674 111.793 193.673L111.964 194.143ZM114.686 196.762C113.429 195.513 112.717 194.79 112.35 194.366C112.16 194.147 112.085 194.033 112.064 193.981C112.053 193.956 112.073 193.987 112.056 194.043C112.035 194.11 111.985 194.134 111.978 194.137L111.778 193.679C111.71 193.709 111.618 193.771 111.579 193.892C111.545 194.001 111.573 194.103 111.602 194.173C111.658 194.309 111.786 194.479 111.972 194.693C112.355 195.135 113.082 195.873 114.333 197.117L114.686 196.762ZM117.787 199.613C117.811 199.613 117.809 199.62 117.766 199.599C117.728 199.581 117.675 199.549 117.602 199.498C117.458 199.397 117.261 199.237 117.001 199.005C116.482 198.543 115.733 197.817 114.687 196.764L114.332 197.116C115.379 198.17 116.137 198.906 116.669 199.379C116.934 199.615 117.148 199.79 117.315 199.908C117.399 199.966 117.477 200.015 117.548 200.049C117.613 200.081 117.697 200.113 117.787 200.113V199.613ZM118.327 199.309C118.249 199.393 118.141 199.473 118.032 199.531C117.917 199.592 117.828 199.613 117.787 199.613V200.113C117.946 200.113 118.119 200.05 118.266 199.973C118.418 199.892 118.572 199.78 118.694 199.649L118.327 199.309ZM118.645 198.74C118.645 198.781 118.623 198.87 118.562 198.988C118.503 199.1 118.422 199.214 118.334 199.302L118.687 199.656C118.814 199.528 118.925 199.373 119.005 199.219C119.082 199.072 119.145 198.899 119.145 198.74H118.645ZM116.271 196.115C117.109 196.961 117.716 197.599 118.112 198.053C118.311 198.28 118.453 198.456 118.544 198.586C118.589 198.651 118.618 198.7 118.634 198.733C118.654 198.774 118.645 198.77 118.645 198.74H119.145C119.145 198.652 119.112 198.571 119.083 198.512C119.051 198.447 119.007 198.376 118.954 198.3C118.848 198.148 118.692 197.956 118.489 197.723C118.082 197.258 117.465 196.611 116.626 195.764L116.271 196.115ZM113.605 193.228C113.631 193.283 113.677 193.346 113.719 193.4C113.767 193.461 113.829 193.536 113.903 193.621C114.051 193.792 114.252 194.013 114.49 194.269C114.967 194.781 115.6 195.437 116.271 196.115L116.626 195.764C115.958 195.088 115.329 194.436 114.856 193.928C114.619 193.674 114.423 193.458 114.281 193.294C114.21 193.212 114.154 193.144 114.114 193.093C114.068 193.034 114.057 193.014 114.059 193.019L113.605 193.228ZM113.413 192.554C113.413 192.653 113.441 192.778 113.473 192.887C113.508 193.002 113.555 193.128 113.609 193.235L114.056 193.012C114.018 192.935 113.98 192.837 113.953 192.745C113.924 192.646 113.913 192.578 113.913 192.554H113.413ZM113.794 191.839C113.692 191.94 113.602 192.063 113.536 192.179C113.477 192.283 113.413 192.424 113.413 192.554H113.913C113.913 192.565 113.911 192.557 113.922 192.527C113.932 192.5 113.948 192.466 113.971 192.426C114.016 192.345 114.08 192.26 114.148 192.192L113.794 191.839ZM114.786 191.458C114.441 191.458 114.034 191.599 113.794 191.839L114.148 192.192C114.277 192.063 114.547 191.958 114.786 191.958V191.458ZM118.164 194.255C116.959 193.042 116.258 192.353 115.804 191.967C115.349 191.581 115.094 191.458 114.786 191.458V191.958C114.91 191.958 115.047 191.981 115.481 192.349C115.915 192.717 116.599 193.389 117.81 194.608L118.164 194.255ZM121.123 197.882C121.078 197.694 121.025 197.522 120.927 197.331C120.83 197.143 120.694 196.947 120.492 196.702C120.091 196.216 119.4 195.506 118.165 194.256L117.809 194.607C119.052 195.865 119.723 196.556 120.106 197.02C120.296 197.25 120.408 197.416 120.483 197.56C120.556 197.702 120.597 197.832 120.637 197.998L121.123 197.882ZM121.217 199.299C121.255 199.119 121.257 198.872 121.239 198.628C121.221 198.379 121.18 198.11 121.123 197.879L120.638 198.001C120.687 198.2 120.724 198.44 120.74 198.664C120.757 198.893 120.751 199.085 120.728 199.196L121.217 199.299ZM120.713 200.556C120.922 200.186 121.149 199.623 121.217 199.299L120.728 199.196C120.673 199.457 120.469 199.972 120.278 200.31L120.713 200.556ZM119.602 201.682C120.027 201.444 120.477 200.994 120.716 200.551L120.275 200.314C120.083 200.672 119.702 201.053 119.358 201.246L119.602 201.682ZM118.236 202.189C118.616 202.137 119.217 201.907 119.606 201.68L119.354 201.248C119.004 201.452 118.466 201.653 118.169 201.693L118.236 202.189ZM116.827 202.105C117.245 202.222 117.868 202.256 118.247 202.187L118.158 201.695C117.86 201.749 117.314 201.722 116.962 201.623L116.827 202.105ZM109.716 195.547C112.669 198.507 114.274 200.097 115.215 200.965C116.151 201.827 116.465 202.012 116.833 202.106L116.957 201.622C116.724 201.562 116.492 201.462 115.554 200.597C114.622 199.738 113.026 198.157 110.07 195.194L109.716 195.547ZM108.983 195.988L109.983 195.603L109.803 195.137L108.803 195.521L108.983 195.988ZM107.186 196.582C107.613 196.471 108.422 196.206 108.983 195.988L108.802 195.522C108.255 195.734 107.465 195.993 107.06 196.098L107.186 196.582ZM104.815 196.774C105.669 196.774 106.736 196.682 107.177 196.584L107.069 196.096C106.679 196.182 105.653 196.274 104.815 196.274V196.774ZM102.211 196.504C102.872 196.681 103.835 196.774 104.815 196.774V196.274C103.856 196.274 102.942 196.182 102.341 196.021L102.211 196.504ZM100.092 195.735C100.69 196.018 101.644 196.362 102.215 196.505L102.337 196.02C101.8 195.886 100.877 195.553 100.306 195.283L100.092 195.735ZM98.0597 194.505C98.5683 194.903 99.4776 195.451 100.094 195.736L100.303 195.282C99.7194 195.012 98.8436 194.483 98.3675 194.111L98.0597 194.505ZM96.28 192.788C96.7388 193.357 97.5393 194.127 98.0665 194.511L98.3606 194.106C97.8722 193.751 97.1031 193.013 96.6694 192.474L96.28 192.788ZM94.91 190.661C95.1974 191.267 95.8247 192.223 96.28 192.788L96.6694 192.474C96.2322 191.932 95.6285 191.009 95.3619 190.447L94.91 190.661ZM94.1254 188.619C94.2681 189.142 94.6125 190.066 94.9124 190.665L95.3596 190.442C95.0747 189.872 94.742 188.98 94.6078 188.487L94.1254 188.619ZM93.7794 186.579C93.842 187.173 93.9976 188.092 94.1236 188.612L94.6095 188.494C94.4893 187.998 94.3372 187.102 94.2767 186.527L93.7794 186.579ZM93.8574 184.287C93.7632 184.961 93.7151 185.936 93.7793 186.578L94.2768 186.528C94.2178 185.938 94.262 185.005 94.3526 184.356L93.8574 184.287ZM94.4397 182.004C94.2174 182.607 93.9679 183.639 93.8585 184.279L94.3514 184.364C94.4574 183.742 94.7004 182.743 94.9089 182.177L94.4397 182.004ZM95.3371 180.038C95.0498 180.517 94.6427 181.41 94.4378 182.009L94.9109 182.171C95.106 181.601 95.4991 180.74 95.7658 180.295L95.3371 180.038ZM97.0191 177.992C96.3865 178.64 95.6126 179.552 95.3339 180.044L95.7689 180.29C96.0134 179.859 96.7476 178.986 97.3769 178.341L97.0191 177.992ZM99.0751 176.302C98.5833 176.581 97.6713 177.355 97.0233 177.987L97.3726 178.345C98.0172 177.716 98.8902 176.982 99.3217 176.737L99.0751 176.302ZM101.118 175.375C100.473 175.596 99.5487 176.018 99.0698 176.305L99.327 176.734C99.7714 176.468 100.663 176.059 101.28 175.849L101.118 175.375ZM102.917 177.06C102.386 177.173 101.459 177.503 100.862 177.787L101.076 178.238C101.648 177.967 102.537 177.652 103.021 177.549L102.917 177.06ZM104.739 176.855C104.257 176.855 103.439 176.949 102.917 177.06L103.021 177.549C103.515 177.444 104.297 177.355 104.739 177.355V176.855ZM106.714 177.075C106.114 176.949 105.219 176.855 104.739 176.855V177.355C105.181 177.355 106.041 177.445 106.611 177.565L106.714 177.075ZM108.851 177.835C108.277 177.548 107.32 177.219 106.72 177.077L106.605 177.563C107.174 177.698 108.094 178.015 108.628 178.282L108.851 177.835ZM111.023 179.449C110.318 178.76 109.511 178.157 108.849 177.834L108.63 178.283C109.23 178.576 109.993 179.142 110.673 179.807L111.023 179.449ZM112.719 181.751C112.29 180.859 111.856 180.267 111.023 179.45L110.673 179.807C111.471 180.59 111.868 181.136 112.269 181.968L112.719 181.751ZM113.524 184.039C113.396 183.432 113.035 182.397 112.719 181.75L112.27 181.969C112.569 182.584 112.916 183.58 113.034 184.142L113.524 184.039ZM113.76 185.783C113.76 185.418 113.648 184.628 113.524 184.039L113.034 184.142C113.157 184.723 113.26 185.471 113.26 185.783H113.76ZM113.524 187.528C113.648 186.938 113.76 186.149 113.76 185.783H113.26C113.26 186.095 113.157 186.844 113.034 187.425L113.524 187.528ZM112.701 189.821C113.034 189.171 113.396 188.134 113.524 187.528L113.034 187.425C112.916 187.987 112.57 188.982 112.256 189.593L112.701 189.821ZM111.088 192.052C111.781 191.344 112.305 190.63 112.703 189.817L112.254 189.597C111.883 190.354 111.392 191.026 110.731 191.702L111.088 192.052ZM108.85 193.671C109.662 193.273 110.376 192.748 111.084 192.056L110.735 191.698C110.058 192.36 109.387 192.851 108.63 193.222L108.85 193.671ZM106.56 194.491C107.167 194.364 108.203 194.002 108.854 193.669L108.626 193.224C108.014 193.537 107.019 193.884 106.457 194.002L106.56 194.491ZM104.816 194.728C105.181 194.728 105.971 194.615 106.56 194.491L106.457 194.002C105.877 194.124 105.128 194.228 104.816 194.228V194.728ZM103.071 194.491C103.661 194.615 104.451 194.728 104.816 194.728V194.228C104.504 194.228 103.755 194.124 103.174 194.002L103.071 194.491ZM100.782 193.687C101.429 194.002 102.464 194.364 103.071 194.491L103.174 194.002C102.612 193.884 101.616 193.537 101.001 193.237L100.782 193.687ZM98.5452 192.069C99.2871 192.811 99.9404 193.274 100.782 193.686L101.002 193.238C100.212 192.85 99.6033 192.42 98.8988 191.716L98.5452 192.069ZM96.8986 189.82C97.3014 190.615 97.8508 191.364 98.5439 192.068L98.9001 191.717C98.239 191.046 97.7215 190.338 97.3446 189.594L96.8986 189.82ZM96.0914 187.601C96.2051 188.185 96.5847 189.177 96.8969 189.817L97.3463 189.598C97.043 188.976 96.684 188.029 96.5822 187.505L96.0914 187.601ZM95.8714 185.783C95.8714 186.236 95.9665 187.039 96.0928 187.607L96.5809 187.499C96.4609 186.959 96.3714 186.193 96.3714 185.783H95.8714ZM96.0928 183.96C95.9665 184.528 95.8714 185.347 95.8714 185.783H96.3714C96.3714 185.389 96.461 184.608 96.5809 184.068L96.0928 183.96ZM96.8188 181.829C96.5347 182.429 96.2039 183.388 96.0914 183.966L96.5822 184.061C96.6852 183.532 97.0007 182.613 97.2706 182.043L96.8188 181.829ZM98.5436 179.515C97.6871 180.387 97.2044 181.01 96.8185 181.83L97.2709 182.043C97.6236 181.293 98.0642 180.716 98.9003 179.865L98.5436 179.515ZM100.862 177.786C100.043 178.172 99.4044 178.654 98.5452 179.513L98.8988 179.867C99.7322 179.033 100.325 178.592 101.075 178.239L100.862 177.786Z" fill="white"/>
<path d="M104.353 179.444C104.183 179.537 103.999 179.69 103.937 179.783C103.876 179.86 103.814 182.322 103.814 185.245C103.799 190.139 103.829 190.57 104.076 190.816C104.23 190.97 104.553 191.093 104.814 191.093C105.076 191.093 105.399 190.985 105.538 190.831C105.784 190.585 105.815 190.062 105.815 185.215V179.86C105.153 179.367 104.891 179.244 104.814 179.244C104.737 179.244 104.522 179.336 104.353 179.444ZM108.523 181.722L108.092 182.029C108.107 190.17 108.138 190.585 108.384 190.816C108.538 190.97 108.861 191.093 109.123 191.093C109.385 191.093 109.708 190.985 109.846 190.831C110.092 190.585 110.123 190.123 110.123 186.323C110.123 183.999 110.062 182.014 110 181.922C109.939 181.829 109.738 181.675 109.538 181.568C109.354 181.475 109.138 181.398 109.077 181.398C109 181.398 108.754 181.537 108.523 181.722ZM100.106 183.722C99.9055 183.799 99.6439 184.03 99.5516 184.245C99.4131 184.507 99.3516 185.492 99.3516 187.4C99.3516 189.185 99.4131 190.293 99.5208 190.508C99.6285 190.708 99.7824 190.908 99.8748 190.97C99.9671 191.031 100.259 191.093 100.506 191.093C100.767 191.093 101.09 190.985 101.229 190.831C101.46 190.585 101.506 190.17 101.506 187.4C101.521 184.568 101.49 184.214 101.244 183.999C101.09 183.861 100.86 183.722 100.721 183.676C100.583 183.63 100.306 183.66 100.106 183.722Z" fill="#6A6A6A" stroke="white" stroke-width="0.5"/>
<defs>
<filter id="filter0_d_386_10960" x="77.7828" y="80.8782" width="58.821" height="58.821" filterUnits="userSpaceOnUse" color-interpolation-filters="sRGB">
<feFlood flood-opacity="0" result="BackgroundImageFix"/>
<feColorMatrix in="SourceAlpha" type="matrix" values="0 0 0 0 0 0 0 0 0 0 0 0 0 0 0 0 0 0 127 0" result="hardAlpha"/>
<feOffset dy="1.09536"/>
<feGaussianBlur stdDeviation="2.10858"/>
<feComposite in2="hardAlpha" operator="out"/>
<feColorMatrix type="matrix" values="0 0 0 0 0 0 0 0 0 0 0 0 0 0 0 0 0 0 0.15 0"/>
<feBlend mode="normal" in2="BackgroundImageFix" result="effect1_dropShadow_386_10960"/>
<feBlend mode="normal" in="SourceGraphic" in2="effect1_dropShadow_386_10960" result="shape"/>
</filter>
<filter id="filter1_d_386_10960" x="77.7828" y="159.878" width="58.821" height="58.821" filterUnits="userSpaceOnUse" color-interpolation-filters="sRGB">
<feFlood flood-opacity="0" result="BackgroundImageFix"/>
<feColorMatrix in="SourceAlpha" type="matrix" values="0 0 0 0 0 0 0 0 0 0 0 0 0 0 0 0 0 0 127 0" result="hardAlpha"/>
<feOffset dy="1.09536"/>
<feGaussianBlur stdDeviation="2.10858"/>
<feComposite in2="hardAlpha" operator="out"/>
<feColorMatrix type="matrix" values="0 0 0 0 0 0 0 0 0 0 0 0 0 0 0 0 0 0 0.15 0"/>
<feBlend mode="normal" in2="BackgroundImageFix" result="effect1_dropShadow_386_10960"/>
<feBlend mode="normal" in="SourceGraphic" in2="effect1_dropShadow_386_10960" result="shape"/>
</filter>
<filter id="filter2_d_386_10960" x="303.607" y="109.267" width="89.1732" height="89.1732" filterUnits="userSpaceOnUse" color-interpolation-filters="sRGB">
<feFlood flood-opacity="0" result="BackgroundImageFix"/>
<feColorMatrix in="SourceAlpha" type="matrix" values="0 0 0 0 0 0 0 0 0 0 0 0 0 0 0 0 0 0 127 0" result="hardAlpha"/>
<feOffset dy="1.66058"/>
<feGaussianBlur stdDeviation="3.19662"/>
<feComposite in2="hardAlpha" operator="out"/>
<feColorMatrix type="matrix" values="0 0 0 0 0 0 0 0 0 0 0 0 0 0 0 0 0 0 0.15 0"/>
<feBlend mode="normal" in2="BackgroundImageFix" result="effect1_dropShadow_386_10960"/>
<feBlend mode="normal" in="SourceGraphic" in2="effect1_dropShadow_386_10960" result="shape"/>
</filter>
<filter id="filter3_d_386_10960" x="183.854" y="105.71" width="99.6755" height="99.6774" filterUnits="userSpaceOnUse" color-interpolation-filters="sRGB">
<feFlood flood-opacity="0" result="BackgroundImageFix"/>
<feColorMatrix in="SourceAlpha" type="matrix" values="0 0 0 0 0 0 0 0 0 0 0 0 0 0 0 0 0 0 127 0" result="hardAlpha"/>
<feOffset dy="1.85619"/>
<feGaussianBlur stdDeviation="3.57317"/>
<feComposite in2="hardAlpha" operator="out"/>
<feColorMatrix type="matrix" values="0 0 0 0 0 0 0 0 0 0 0 0 0 0 0 0 0 0 0.15 0"/>
<feBlend mode="normal" in2="BackgroundImageFix" result="effect1_dropShadow_386_10960"/>
<feBlend mode="normal" in="SourceGraphic" in2="effect1_dropShadow_386_10960" result="shape"/>
</filter>
</defs>
</svg>
