<svg width="468" height="298" viewBox="0 0 468 298" fill="none" xmlns="http://www.w3.org/2000/svg">
<path d="M0 11.747C0 5.2593 5.25931 0 11.747 0H456.253C462.741 0 468 5.25931 468 11.747V298H0V11.747Z" fill="#FAF9F6"/>
<g filter="url(#filter0_d_386_10573)">
<rect x="197" y="104.211" width="85.3848" height="85.3848" rx="13.9214" fill="#344C92"/>
</g>
<path fill-rule="evenodd" clip-rule="evenodd" d="M234.225 126.48C234.082 126.336 233.652 126.211 233.294 126.211H233.276C232.918 126.211 232.452 126.3 232.273 126.408C232.076 126.498 231.933 126.712 231.951 126.838C231.968 126.981 231.7 127.232 231.359 127.375C230.858 127.59 230.661 127.608 230.374 127.411C230.052 127.214 229.927 127.286 229.264 127.948C228.583 128.611 228.511 128.754 228.691 129.113C228.834 129.417 228.834 129.668 228.691 130.026C228.583 130.295 228.297 130.617 228.046 130.743C227.652 130.94 227.598 131.083 227.598 131.943C227.598 132.803 227.652 132.946 228.046 133.143C228.297 133.268 228.583 133.591 228.691 133.859C228.834 134.218 228.834 134.468 228.691 134.791C228.511 135.167 228.583 135.274 229.246 135.901C229.909 136.51 230.07 136.582 230.41 136.403C230.715 136.26 230.947 136.277 231.342 136.457C231.628 136.582 231.933 136.869 232.004 137.083C232.148 137.46 232.273 137.495 233.186 137.442C234.046 137.406 234.261 137.334 234.405 137.012C234.494 136.815 234.852 136.546 235.157 136.439C235.569 136.313 235.855 136.295 236.106 136.421C236.393 136.564 236.59 136.492 237.109 136.027C237.664 135.525 237.736 135.346 237.664 134.898C237.611 134.594 237.647 134.128 237.754 133.824C237.844 133.519 238.112 133.197 238.327 133.107C238.65 132.946 238.703 132.785 238.703 131.853C238.703 130.922 238.65 130.778 238.345 130.725C238.106 130.701 237.915 130.462 237.772 130.008C237.629 129.578 237.611 129.238 237.736 129.041C237.862 128.79 237.754 128.557 237.199 127.966C236.572 127.286 236.464 127.214 236.088 127.393C235.766 127.536 235.515 127.536 235.067 127.339C234.763 127.214 234.494 127.017 234.494 126.927C234.494 126.838 234.369 126.623 234.225 126.48ZM256.275 129.005C255.684 128.862 254.52 128.701 253.678 128.647C252.836 128.611 251.743 128.629 251.26 128.701C250.758 128.772 249.916 128.987 249.379 129.166C248.842 129.346 247.874 129.74 247.229 130.062C246.585 130.384 245.599 131.047 245.008 131.513C244.435 131.997 243.593 132.874 243.146 133.465C242.716 134.056 242.071 135.113 241.748 135.794C241.408 136.474 241.014 137.657 240.853 138.391C240.638 139.376 240.584 140.272 240.638 141.705C240.71 143.227 240.835 144.015 241.247 145.198C241.516 146.039 242.125 147.293 242.59 147.974C243.056 148.655 243.969 149.747 244.65 150.356C245.474 151.109 246.423 151.771 247.498 152.291C248.376 152.721 249.666 153.204 250.364 153.348C251.063 153.491 252.263 153.616 253.051 153.616C253.839 153.616 255.039 153.491 255.738 153.348C256.436 153.204 257.636 152.756 258.424 152.38L259.857 151.682C265.822 157.629 267.345 158.99 267.56 158.99C267.775 158.99 268.527 158.363 269.476 157.378C270.354 156.5 271.034 155.694 270.999 155.604C270.981 155.515 269.333 153.777 267.327 151.753L263.708 148.064C264.676 145.842 265.088 144.66 265.249 143.98C265.464 143.084 265.518 142.224 265.446 140.541C265.392 138.946 265.249 138.015 264.998 137.316C264.819 136.779 264.425 135.883 264.156 135.346C263.888 134.809 263.332 133.931 262.92 133.394C262.508 132.856 261.667 131.979 261.022 131.459C260.377 130.922 259.302 130.223 258.604 129.883C257.905 129.56 256.866 129.166 256.275 129.005ZM218.893 130.546C218.749 130.402 218.158 130.331 217.299 130.331C216.51 130.331 215.848 130.42 215.704 130.546C215.561 130.671 215.472 130.94 215.489 131.173C215.525 131.513 215.328 131.674 214.307 132.122C213.197 132.623 213.071 132.641 212.695 132.391C212.48 132.247 212.158 132.122 211.979 132.122C211.8 132.122 211.244 132.552 210.725 133.053C210.223 133.573 209.793 134.128 209.793 134.271C209.793 134.415 209.919 134.719 210.062 134.934C210.313 135.31 210.295 135.454 209.901 136.457C209.543 137.37 209.364 137.603 208.952 137.728C208.683 137.8 208.343 137.961 208.217 138.087C208.074 138.23 207.984 138.749 208.002 139.555C208.002 140.236 208.074 140.899 208.146 141.024C208.217 141.132 208.54 141.293 208.862 141.382C209.381 141.508 209.507 141.669 209.901 142.636C210.295 143.675 210.313 143.8 210.062 144.212C209.919 144.463 209.793 144.768 209.793 144.875C209.793 145.001 210.205 145.538 210.725 146.039C211.244 146.559 211.818 146.989 211.979 146.989C212.158 146.989 212.48 146.863 212.695 146.72C213.071 146.487 213.179 146.487 213.824 146.81C214.218 147.007 214.845 147.222 215.221 147.311C215.83 147.419 215.884 147.401 215.884 147.025C215.884 146.81 215.776 146.631 215.651 146.631C215.543 146.631 214.916 146.38 214.271 146.075C213.54 145.726 213.268 145.597 213.02 145.633C212.874 145.654 212.736 145.734 212.516 145.86L211.925 146.183L210.6 144.875L211.406 143.765C210.743 142.582 210.456 141.902 210.349 141.472C210.17 140.791 210.08 140.702 209.525 140.63L208.898 140.541V138.57C210.08 138.409 210.17 138.319 210.349 137.621C210.456 137.209 210.743 136.528 210.976 136.098L211.406 135.346L210.6 134.235L211.925 132.928C213.107 133.591 213.107 133.591 214.003 133.143C214.486 132.91 215.167 132.659 215.472 132.588C215.937 132.498 216.081 132.373 216.17 131.979C216.224 131.71 216.313 131.387 216.349 131.262C216.397 131.119 216.731 131.059 217.352 131.083C218.284 131.137 218.302 131.155 218.391 131.746C218.463 132.247 218.588 132.391 219.018 132.516C219.305 132.606 220.021 132.892 220.576 133.161C221.58 133.644 221.597 133.644 222.099 133.322L222.601 132.982L223.926 134.361L223.227 135.346C224.051 137.083 224.302 137.693 224.302 137.8C224.302 137.925 224.428 138.087 224.589 138.158C224.768 138.248 224.929 138.194 225.019 138.033C225.108 137.872 225.019 137.37 224.822 136.779C224.625 136.242 224.392 135.704 224.302 135.615C224.213 135.507 224.284 135.256 224.481 134.988C224.678 134.737 224.84 134.415 224.84 134.271C224.84 134.128 224.428 133.573 223.908 133.071C223.389 132.552 222.798 132.122 222.601 132.122C222.403 132.122 222.063 132.247 221.83 132.391C221.472 132.641 221.365 132.623 220.487 132.211C219.985 131.961 219.448 131.764 219.323 131.764C219.215 131.764 219.108 131.549 219.108 131.262C219.108 130.993 219.018 130.671 218.893 130.546ZM219.555 134.88C218.839 134.54 218.391 134.45 217.316 134.45C216.421 134.45 215.734 134.558 215.257 134.773C214.863 134.952 214.218 135.382 213.824 135.74C213.43 136.098 212.91 136.779 212.677 137.245C212.444 137.728 212.212 138.516 212.158 139.018C212.104 139.502 212.158 140.308 212.283 140.809C212.391 141.293 212.713 142.045 213.018 142.457C213.304 142.887 213.895 143.478 214.307 143.765C214.737 144.069 215.257 144.302 215.472 144.302C215.722 144.302 215.884 144.195 215.884 144.033C215.884 143.89 215.525 143.568 215.077 143.317C214.594 143.048 214.039 142.529 213.698 142.009C213.394 141.544 213.089 140.809 213.018 140.361C212.964 139.914 212.982 139.197 213.053 138.749C213.143 138.302 213.394 137.621 213.627 137.227C213.859 136.833 214.433 136.242 214.916 135.919C215.418 135.597 216.134 135.292 216.6 135.239C217.048 135.167 217.836 135.221 218.391 135.346C219.197 135.543 219.538 135.758 220.272 136.51C220.756 137.012 221.293 137.621 221.472 137.872C221.705 138.212 221.812 138.266 222.009 138.087C222.206 137.89 222.189 137.746 221.92 137.227C221.759 136.886 221.347 136.313 221.024 135.955C220.72 135.597 220.039 135.113 219.555 134.88ZM239.474 139.322C239.312 139.143 236.912 139.108 228.314 139.108C220.075 139.108 217.334 139.161 217.137 139.322C216.922 139.502 216.887 141.382 216.922 151.144L216.958 162.751C214.182 162.733 213.77 162.805 213.591 163.02C213.448 163.199 213.412 163.522 213.501 163.951C213.573 164.328 213.859 164.937 214.128 165.295L214.63 165.975C209.668 165.975 209.238 166.011 209.113 166.262C209.041 166.441 209.095 166.602 209.256 166.71C209.417 166.799 220.594 166.871 235.766 166.871C250.937 166.871 262.114 166.799 262.276 166.71C262.437 166.602 262.49 166.441 262.401 166.262C262.293 166.029 261.881 165.975 259.857 165.975C258.532 165.975 257.439 165.94 257.439 165.886C257.439 165.832 257.636 165.564 257.887 165.259C258.138 164.955 258.389 164.453 258.442 164.131C258.496 163.826 258.514 163.396 258.478 163.199C258.424 162.877 258.263 162.841 256.759 162.787L255.111 162.751C255.111 155.21 255.075 154.673 254.824 154.548C254.645 154.476 254.484 154.53 254.376 154.691C254.287 154.834 254.215 156.715 254.215 158.847V162.751L240.333 162.841L240.244 163.826C232.148 163.826 231.825 163.808 231.825 163.504C231.825 163.342 231.736 163.092 231.61 162.966C231.431 162.805 229.819 162.751 224.517 162.751H217.675V140.003C237.073 140.021 239.294 139.967 239.474 139.788C239.653 139.609 239.653 139.502 239.474 139.322ZM239.474 141.651C239.438 141.364 238.793 141.347 229.3 141.293C223.729 141.275 219.108 141.311 219.018 141.382C218.929 141.436 218.875 145.735 218.893 150.912C218.911 158.363 218.964 160.387 219.144 160.548C219.323 160.727 223.138 160.763 236.124 160.727L252.872 160.691C252.961 154.798 252.943 154.691 252.603 154.691C252.263 154.691 252.245 154.816 252.191 157.234L252.155 159.796L219.824 159.885V141.973C238.954 141.973 239.527 141.956 239.474 141.651ZM241.086 149.944L241.05 148.153C237.951 148.064 237.181 148.117 237.127 148.243C237.073 148.332 237.055 148.493 237.109 148.601C237.163 148.708 237.718 148.78 238.363 148.78C239.008 148.78 239.527 148.834 239.527 148.905C239.527 148.995 238.417 150.159 237.073 151.521L234.602 153.974C231.127 150.5 229.998 149.496 229.855 149.496C229.712 149.496 227.562 151.503 225.108 153.974C220.845 158.238 220.648 158.47 220.935 158.757C221.239 159.061 221.454 158.882 225.556 154.781L229.855 150.482L234.512 155.139L240.244 149.407C240.226 151.306 240.315 151.825 240.459 151.968C240.638 152.147 240.727 152.147 240.907 151.968C241.068 151.807 241.121 151.18 241.086 149.944ZM238.811 155.622C238.811 152.667 238.793 152.542 238.453 152.542C238.112 152.542 238.094 152.667 238.094 155.676C238.094 158.023 238.148 158.829 238.309 158.882C238.435 158.936 238.614 158.918 238.685 158.847C238.757 158.775 238.811 157.324 238.811 155.622ZM231.951 155.945C231.915 153.76 231.879 153.348 231.628 153.294C231.485 153.276 231.288 153.294 231.198 153.365C231.127 153.437 231.055 154.691 231.073 156.16C231.109 158.345 231.162 158.829 231.377 158.9C231.521 158.954 231.718 158.882 231.825 158.757C231.933 158.632 231.986 157.449 231.951 155.945ZM228.386 156.16C228.422 153.527 228.422 153.437 228.064 153.437C227.705 153.437 227.705 153.527 227.741 156.16C227.795 158.452 227.831 158.9 228.064 158.9C228.297 158.9 228.332 158.452 228.386 156.16ZM235.372 157.217C235.336 156.267 235.246 155.676 235.103 155.622C234.996 155.587 234.852 155.658 234.816 155.802C234.763 155.927 234.673 156.554 234.619 157.199C234.566 158.023 234.602 158.47 234.781 158.721C234.942 158.972 235.085 159.026 235.211 158.9C235.336 158.793 235.39 158.13 235.372 157.217ZM224.983 157.826C224.947 157.163 224.857 156.912 224.625 156.876C224.445 156.84 224.32 156.948 224.284 157.145C224.273 157.26 224.261 157.442 224.25 157.624C224.243 157.725 224.237 157.826 224.231 157.915C224.213 158.166 224.266 158.506 224.338 158.667C224.434 158.882 224.577 158.942 224.768 158.847C224.983 158.757 225.037 158.506 224.983 157.826ZM267.542 166.19C267.488 166.047 267.022 165.975 266.037 165.975C264.909 165.975 264.568 166.029 264.515 166.244C264.461 166.387 264.461 166.585 264.515 166.692C264.568 166.799 265.195 166.871 265.912 166.871C266.736 166.871 267.291 166.782 267.416 166.638C267.542 166.531 267.595 166.316 267.542 166.19ZM232.291 127.931C232.542 127.859 232.703 127.68 232.703 127.465C232.703 127.196 232.828 127.107 233.151 127.107C233.437 127.107 233.652 127.232 233.724 127.465C233.814 127.68 234.154 127.931 234.494 128.038C234.834 128.146 235.229 128.325 235.354 128.432C235.533 128.575 235.694 128.575 236.017 128.396C236.375 128.217 236.5 128.217 236.608 128.396C236.679 128.522 236.733 128.916 236.751 129.256C236.769 129.596 236.894 130.205 237.056 130.599C237.235 131.083 237.45 131.334 237.7 131.352C237.951 131.388 238.077 131.531 238.077 131.8C238.077 132.05 237.933 132.283 237.682 132.409C237.414 132.534 237.145 132.964 236.966 133.537C236.787 134.039 236.679 134.612 236.733 134.809C236.787 135.006 236.715 135.221 236.608 135.292C236.482 135.364 236.142 135.436 235.838 135.454C235.533 135.472 234.978 135.597 234.584 135.758C234.19 135.901 233.814 136.206 233.742 136.403C233.652 136.654 233.437 136.779 233.151 136.779C232.846 136.779 232.703 136.69 232.703 136.457C232.703 136.26 232.381 136.009 231.682 135.722C230.858 135.382 230.571 135.328 230.321 135.507C230.07 135.669 229.962 135.633 229.694 135.346C229.443 135.06 229.425 134.952 229.604 134.719C229.801 134.504 229.765 134.307 229.479 133.698C229.282 133.268 229.121 132.821 229.121 132.713C229.121 132.588 228.959 132.444 228.762 132.391C228.524 132.331 228.404 132.152 228.404 131.853C228.404 131.567 228.512 131.406 228.673 131.406C228.816 131.406 229.138 130.976 229.389 130.42C229.712 129.704 229.783 129.346 229.658 129.113C229.533 128.898 229.568 128.719 229.801 128.504C230.034 128.253 230.159 128.235 230.321 128.414C230.5 128.575 230.679 128.575 231.216 128.325C231.592 128.163 232.076 127.984 232.291 127.931ZM247.839 130.671C248.627 130.277 249.791 129.847 250.436 129.704C251.188 129.543 252.281 129.471 253.481 129.507C254.932 129.543 255.684 129.668 256.741 130.044C257.511 130.295 258.675 130.85 259.338 131.262C260.001 131.692 261.04 132.606 261.685 133.286C262.419 134.092 263.082 135.06 263.529 135.973C263.906 136.761 264.353 138.051 264.515 138.839C264.712 139.842 264.783 140.738 264.712 141.794C264.658 142.744 264.443 143.854 264.138 144.75C263.888 145.538 263.422 146.559 263.135 147.025C262.849 147.508 262.616 147.938 262.616 148.01C262.616 148.099 264.318 149.837 270.139 155.676L267.631 158.184L260.646 151.198L261.38 150.482C261.792 150.07 262.079 149.676 262.007 149.55C261.953 149.425 261.828 149.317 261.72 149.317C261.613 149.317 261.04 149.712 260.431 150.195C259.804 150.679 258.693 151.359 257.959 151.7C257.224 152.04 256.132 152.416 255.541 152.542C254.95 152.667 253.821 152.774 253.033 152.774C252.245 152.774 251.116 152.667 250.525 152.542C249.934 152.416 248.842 152.04 248.107 151.7C247.373 151.359 246.298 150.697 245.725 150.249C245.152 149.783 244.328 148.959 243.916 148.422C243.486 147.885 242.895 146.953 242.59 146.362C242.304 145.771 241.91 144.804 241.731 144.213C241.498 143.46 241.408 142.547 241.408 141.168C241.408 139.609 241.48 138.929 241.82 137.854C242.053 137.119 242.393 136.188 242.608 135.794C242.805 135.4 243.271 134.665 243.629 134.182C243.988 133.68 244.758 132.856 245.349 132.337C245.922 131.817 247.05 131.065 247.839 130.671ZM214.648 164.525C214.433 164.184 214.254 163.808 214.254 163.701V163.683C214.254 163.522 216.027 163.468 230.822 163.468L231.091 164.543L240.835 164.453L241.05 163.557L249.397 163.504C254 163.486 257.762 163.522 257.762 163.593C257.762 163.683 257.583 164.059 257.368 164.453C257.135 164.847 256.651 165.349 255.541 165.976L235.802 165.922L235.792 165.922C216.099 165.886 216.063 165.886 215.561 165.51C215.293 165.313 214.881 164.865 214.648 164.525Z" fill="white"/>
<path fill-rule="evenodd" clip-rule="evenodd" d="M234.493 129.47C234.045 129.255 233.562 129.076 233.4 129.076C233.239 129.076 233.06 129.13 232.971 129.202C232.881 129.255 232.827 129.416 232.845 129.56C232.863 129.685 233.203 129.882 233.597 129.972C234.045 130.079 234.493 130.366 234.78 130.724C235.192 131.226 235.245 131.441 235.156 132.121C235.084 132.623 234.887 133.088 234.636 133.339C234.386 133.59 233.92 133.787 233.418 133.859C232.702 133.948 232.541 133.894 231.932 133.393C231.448 132.999 231.251 132.676 231.215 132.247C231.179 131.781 231.09 131.655 230.732 131.602C230.302 131.548 230.284 131.584 230.391 132.229C230.445 132.623 230.678 133.196 230.929 133.536C231.161 133.877 231.681 134.306 232.075 134.486C232.469 134.665 232.988 134.808 233.239 134.808C233.49 134.808 234.045 134.629 234.475 134.396C234.923 134.181 235.407 133.733 235.622 133.375C235.854 132.981 235.998 132.444 235.998 131.942C235.998 131.476 235.854 130.885 235.639 130.509C235.424 130.133 234.977 129.721 234.493 129.47ZM255.808 131.333C255.271 131.172 254.268 131.011 253.569 130.975C252.871 130.921 251.868 130.975 251.33 131.064C250.793 131.154 249.897 131.423 249.36 131.638C248.823 131.853 247.945 132.3 247.443 132.623C246.811 133.005 246.494 133.315 246.494 133.554C246.494 133.751 246.619 133.912 246.763 133.912C246.906 133.912 247.408 133.644 247.873 133.321C248.357 132.999 249.217 132.551 249.808 132.318C250.488 132.05 251.438 131.87 252.405 131.817C253.265 131.763 254.393 131.817 255.002 131.924C255.575 132.05 256.632 132.444 257.331 132.802C258.137 133.214 258.979 133.859 259.731 134.629C260.465 135.381 261.074 136.241 261.468 137.047C261.845 137.835 262.149 138.838 262.292 139.734C262.454 140.826 262.454 141.489 262.292 142.51C262.167 143.334 261.863 144.337 261.468 145.107C261.128 145.788 260.465 146.791 259.982 147.328C259.516 147.866 258.638 148.618 258.047 148.994C257.456 149.388 256.453 149.854 255.808 150.051C255.02 150.284 254.125 150.391 253.032 150.391C251.939 150.391 251.044 150.284 250.256 150.051C249.611 149.854 248.608 149.37 248.017 148.994C247.425 148.6 246.655 147.973 246.279 147.597C245.921 147.203 245.384 146.505 245.079 146.003C244.775 145.519 244.345 144.588 244.13 143.943C243.825 143.065 243.718 142.367 243.718 141.077C243.718 139.788 243.825 139.089 244.13 138.211C244.345 137.566 244.81 136.599 245.151 136.062C245.509 135.524 245.76 134.969 245.706 134.844C245.634 134.736 245.473 134.647 245.312 134.665C245.151 134.701 244.703 135.238 244.309 135.883C243.933 136.528 243.485 137.441 243.342 137.943C243.18 138.426 243.019 139.644 242.965 140.629C242.894 141.973 242.948 142.707 243.18 143.585C243.342 144.23 243.771 145.304 244.13 146.003C244.524 146.719 245.258 147.723 245.921 148.367C246.673 149.138 247.443 149.693 248.339 150.123C249.038 150.463 250.112 150.875 250.703 151.018C251.294 151.162 252.333 151.287 253.032 151.287C253.731 151.287 254.805 151.162 255.45 151C256.095 150.839 257.17 150.409 257.868 150.051C258.603 149.675 259.57 148.958 260.197 148.332C260.788 147.74 261.522 146.809 261.827 146.272C262.149 145.734 262.561 144.713 262.776 144.033C263.045 143.137 263.152 142.331 263.152 141.167C263.152 140.271 263.027 139.071 262.866 138.48C262.704 137.889 262.328 136.922 262.042 136.331C261.701 135.686 260.985 134.736 260.215 133.984C259.444 133.214 258.513 132.497 257.868 132.175C257.277 131.87 256.346 131.494 255.808 131.333ZM253.39 133.375C253.39 133.178 253.139 133.088 252.405 133.071C251.796 133.035 251.08 133.142 250.524 133.357C250.041 133.536 249.36 133.805 249.055 133.966C248.733 134.145 248.178 134.503 247.837 134.808C247.497 135.113 247.211 135.471 247.211 135.614C247.211 135.757 247.282 135.919 247.39 135.972C247.497 136.026 247.999 135.739 248.518 135.363C249.02 134.969 249.772 134.521 250.166 134.342C250.56 134.181 251.438 133.948 252.136 133.841C253.032 133.697 253.39 133.554 253.39 133.375ZM249.897 137.656C249.754 137.566 249.109 137.495 248.464 137.495C247.82 137.495 247.103 137.602 246.852 137.728C246.44 137.943 246.405 138.05 246.351 139.465C246.315 140.558 246.351 141.059 246.53 141.22C246.655 141.346 247.3 141.507 247.981 141.579L249.181 141.704V143.764C246.494 143.854 246.405 143.889 246.369 144.266C246.315 144.642 246.369 144.66 247.802 144.66C248.823 144.66 249.396 144.57 249.682 144.391C250.041 144.158 250.076 143.961 250.076 142.743C250.094 141.65 250.023 141.292 249.79 141.077C249.611 140.916 248.984 140.773 248.303 140.719L247.121 140.629V138.48C249.575 138.408 249.933 138.319 250.041 138.104C250.112 137.925 250.059 137.763 249.897 137.656ZM254.859 137.71C254.716 137.566 254.089 137.495 252.924 137.495C251.689 137.495 251.133 137.566 250.954 137.746C250.775 137.943 250.739 138.731 250.811 141.274L250.883 144.57C254.286 144.642 254.859 144.606 254.949 144.445C255.02 144.319 254.966 144.104 254.859 143.979C254.716 143.818 254.16 143.746 253.175 143.764H251.689V141.615C253.766 141.615 254.537 141.543 254.734 141.435C254.931 141.328 255.056 141.149 255.002 140.988C254.931 140.773 254.572 140.719 253.301 140.719H251.689V138.39C254.429 138.39 254.931 138.319 254.984 138.175C255.038 138.05 254.966 137.835 254.859 137.71ZM259.427 137.71C259.247 137.584 258.585 137.495 257.743 137.495C256.579 137.495 256.292 137.549 255.987 137.853C255.665 138.175 255.629 138.444 255.629 141.041C255.629 143.245 255.683 143.943 255.898 144.248C256.149 144.624 256.31 144.66 257.743 144.66C258.782 144.677 259.373 144.606 259.534 144.445C259.713 144.266 259.767 143.406 259.749 141.077C259.749 138.319 259.695 137.907 259.427 137.71ZM256.525 143.764V141.077V138.391H259.032V143.764H256.525Z" fill="white"/>
<g filter="url(#filter1_d_386_10573)">
<rect x="88" y="77.2109" width="50.3868" height="50.3868" rx="25.1934" fill="white"/>
</g>
<g filter="url(#filter2_d_386_10573)">
<rect x="316" y="107.211" width="76.3867" height="76.3867" rx="38.1934" fill="white"/>
</g>
<path d="M107.999 104.925C107.81 104.925 107.628 104.849 107.494 104.715C107.36 104.582 107.285 104.4 107.285 104.21C107.285 104.021 107.36 103.839 107.494 103.705C107.628 103.571 107.81 103.496 107.999 103.496H117.999C118.189 103.496 118.371 103.571 118.505 103.705C118.638 103.839 118.714 104.021 118.714 104.21C118.714 104.4 118.638 104.582 118.505 104.715C118.371 104.849 118.189 104.925 117.999 104.925H107.999ZM107.999 109.21C107.81 109.21 107.628 109.135 107.494 109.001C107.36 108.867 107.285 108.686 107.285 108.496C107.285 108.307 107.36 108.125 107.494 107.991C107.628 107.857 107.81 107.782 107.999 107.782H117.999C118.189 107.782 118.371 107.857 118.505 107.991C118.638 108.125 118.714 108.307 118.714 108.496C118.714 108.686 118.638 108.867 118.505 109.001C118.371 109.135 118.189 109.21 117.999 109.21H107.999Z" fill="#595959"/>
<path fill-rule="evenodd" clip-rule="evenodd" d="M114.693 89.2109H105.143C104.575 89.2109 104.029 89.4367 103.628 89.8386C103.226 90.2404 103 90.7855 103 91.3538V112.782C103 113.351 103.226 113.896 103.628 114.298C104.029 114.699 104.575 114.925 105.143 114.925H120.857C121.425 114.925 121.971 114.699 122.372 114.298C122.774 113.896 123 113.351 123 112.782V98.0709C123 97.5345 122.799 97.0176 122.436 96.6224L116.273 89.9052C116.072 89.6863 115.828 89.5115 115.556 89.392C115.284 89.2725 114.99 89.2108 114.693 89.2109ZM104.429 91.3538C104.429 91.1644 104.504 90.9827 104.638 90.8487C104.772 90.7148 104.953 90.6395 105.143 90.6395H114.693C114.792 90.6394 114.89 90.6599 114.981 90.6998C115.072 90.7396 115.153 90.7979 115.22 90.8709L121.383 97.5881C121.504 97.7197 121.571 97.8921 121.571 98.0709V112.782C121.571 112.972 121.496 113.153 121.362 113.287C121.228 113.421 121.047 113.497 120.857 113.497H105.143C104.953 113.497 104.772 113.421 104.638 113.287C104.504 113.153 104.429 112.972 104.429 112.782V91.3538Z" fill="#595959"/>
<path d="M114.429 97.7824H122.286C122.475 97.7824 122.657 97.8576 122.791 97.9916C122.925 98.1255 123 98.3072 123 98.4967C123 98.6861 122.925 98.8678 122.791 99.0017C122.657 99.1357 122.475 99.2109 122.286 99.2109H113.714C113.525 99.2109 113.343 99.1357 113.209 99.0017C113.075 98.8678 113 98.6861 113 98.4967V89.9252C113 89.7358 113.075 89.5541 113.209 89.4201C113.343 89.2862 113.525 89.2109 113.714 89.2109C113.904 89.2109 114.085 89.2862 114.219 89.4201C114.353 89.5541 114.429 89.7358 114.429 89.9252V97.7824Z" fill="#595959"/>
<g filter="url(#filter3_d_386_10573)">
<rect x="88" y="156.211" width="50.3868" height="50.3868" rx="25.1934" fill="white"/>
</g>
<path d="M107.999 184.925C107.81 184.925 107.628 184.849 107.494 184.715C107.36 184.582 107.285 184.4 107.285 184.21C107.285 184.021 107.36 183.839 107.494 183.705C107.628 183.571 107.81 183.496 107.999 183.496H117.999C118.189 183.496 118.371 183.571 118.505 183.705C118.638 183.839 118.714 184.021 118.714 184.21C118.714 184.4 118.638 184.582 118.505 184.715C118.371 184.849 118.189 184.925 117.999 184.925H107.999ZM107.999 189.21C107.81 189.21 107.628 189.135 107.494 189.001C107.36 188.867 107.285 188.686 107.285 188.496C107.285 188.307 107.36 188.125 107.494 187.991C107.628 187.857 107.81 187.782 107.999 187.782H117.999C118.189 187.782 118.371 187.857 118.505 187.991C118.638 188.125 118.714 188.307 118.714 188.496C118.714 188.686 118.638 188.867 118.505 189.001C118.371 189.135 118.189 189.21 117.999 189.21H107.999Z" fill="#595959"/>
<path fill-rule="evenodd" clip-rule="evenodd" d="M114.693 169.211H105.143C104.575 169.211 104.029 169.437 103.628 169.839C103.226 170.24 103 170.785 103 171.354V192.782C103 193.351 103.226 193.896 103.628 194.298C104.029 194.699 104.575 194.925 105.143 194.925H120.857C121.425 194.925 121.971 194.699 122.372 194.298C122.774 193.896 123 193.351 123 192.782V178.071C123 177.534 122.799 177.018 122.436 176.622L116.273 169.905C116.072 169.686 115.828 169.512 115.556 169.392C115.284 169.272 114.99 169.211 114.693 169.211ZM104.429 171.354C104.429 171.164 104.504 170.983 104.638 170.849C104.772 170.715 104.953 170.64 105.143 170.64H114.693C114.792 170.639 114.89 170.66 114.981 170.7C115.072 170.74 115.153 170.798 115.22 170.871L121.383 177.588C121.504 177.72 121.571 177.892 121.571 178.071V192.782C121.571 192.972 121.496 193.153 121.362 193.287C121.228 193.421 121.047 193.497 120.857 193.497H105.143C104.953 193.497 104.772 193.421 104.638 193.287C104.504 193.153 104.429 192.972 104.429 192.782V171.354Z" fill="#595959"/>
<path d="M114.429 177.782H122.286C122.475 177.782 122.657 177.858 122.791 177.992C122.925 178.126 123 178.307 123 178.497C123 178.686 122.925 178.868 122.791 179.002C122.657 179.136 122.475 179.211 122.286 179.211H113.714C113.525 179.211 113.343 179.136 113.209 179.002C113.075 178.868 113 178.686 113 178.497V169.925C113 169.736 113.075 169.554 113.209 169.42C113.343 169.286 113.525 169.211 113.714 169.211C113.904 169.211 114.085 169.286 114.219 169.42C114.353 169.554 114.429 169.736 114.429 169.925V177.782Z" fill="#595959"/>
<path d="M362.239 129.336C362.108 129.404 361.926 129.575 361.824 129.717C361.682 129.927 361.648 130.035 361.648 130.274C361.648 130.439 361.682 130.661 361.722 130.757C361.767 130.86 361.892 131.03 362.006 131.127C362.125 131.229 362.313 131.337 362.432 131.371C362.552 131.405 363.569 131.428 364.849 131.428C366.258 131.428 367.06 131.451 367.077 131.485C367.094 131.513 366.924 131.741 366.696 131.98C366.469 132.224 365.861 132.861 365.343 133.395C364.826 133.924 364.098 134.68 363.723 135.072C363.348 135.459 362.694 136.136 362.273 136.573C361.852 137.011 360.829 138.074 359.993 138.933C359.163 139.791 358.271 140.724 358.003 140.996C357.742 141.269 357.486 141.491 357.441 141.491C357.395 141.491 357.191 141.332 356.986 141.139C356.781 140.945 355.94 140.132 355.11 139.331C354.28 138.529 352.927 137.227 352.097 136.431C351.266 135.635 350.402 134.805 350.175 134.584C349.947 134.367 349.64 134.129 349.493 134.06C349.299 133.975 349.163 133.947 348.998 133.969C348.873 133.987 348.691 134.043 348.589 134.095C348.492 134.146 345.883 136.704 342.795 139.786C339.708 142.867 337.156 145.437 337.116 145.499C337.076 145.562 337.025 145.71 337.008 145.829C336.991 145.943 337.002 146.147 337.036 146.284C337.07 146.415 337.167 146.608 337.247 146.716C337.332 146.824 337.502 146.96 337.628 147.017C337.753 147.074 337.957 147.12 338.082 147.12C338.207 147.12 338.412 147.08 338.537 147.029C338.708 146.96 340.061 145.641 343.87 141.838C346.678 139.035 349.015 136.727 349.061 136.704C349.117 136.67 349.572 137.074 350.635 138.091C351.454 138.876 352.472 139.859 352.892 140.269C353.313 140.678 354.285 141.616 355.053 142.355C355.82 143.089 356.559 143.788 356.702 143.907C356.844 144.027 357.014 144.14 357.088 144.169C357.156 144.197 357.35 144.22 357.515 144.22C357.725 144.22 357.873 144.18 358.015 144.089C358.123 144.021 358.97 143.185 359.885 142.23C360.801 141.275 361.926 140.115 362.387 139.643C362.842 139.177 363.865 138.114 364.661 137.284C365.457 136.454 366.509 135.368 366.992 134.868C367.475 134.367 368.044 133.782 368.26 133.56C368.567 133.236 368.658 133.174 368.715 133.236C368.766 133.293 368.788 133.873 368.811 135.516L368.84 137.722C369.09 138.097 369.255 138.245 369.397 138.313C369.533 138.387 369.744 138.438 369.891 138.432C370.034 138.432 370.238 138.393 370.346 138.347C370.454 138.296 370.585 138.222 370.63 138.182C370.682 138.142 370.784 138.006 370.858 137.881L371 137.654C371 131.167 370.983 130.206 370.932 130.018C370.892 129.887 370.79 129.7 370.704 129.598C370.613 129.501 370.443 129.37 370.318 129.319C370.107 129.222 369.829 129.211 366.281 129.211C362.483 129.211 362.472 129.211 362.239 129.336ZM350.505 144.436C350.363 144.493 350.175 144.595 350.078 144.663C349.987 144.732 349.857 144.868 349.794 144.97C349.68 145.158 349.68 145.26 349.68 152.52C349.68 156.568 349.697 159.951 349.726 160.042C349.749 160.127 349.851 160.275 349.953 160.378C350.05 160.474 350.249 160.605 350.391 160.667C350.59 160.758 350.766 160.787 351.187 160.787C351.568 160.787 351.79 160.758 351.943 160.69C352.057 160.639 352.256 160.497 352.386 160.378C352.517 160.258 352.637 160.082 352.671 159.968C352.699 159.849 352.722 156.819 352.722 152.52C352.722 145.42 352.716 145.266 352.608 145.027C352.54 144.891 352.404 144.726 352.284 144.646C352.165 144.567 351.943 144.464 351.784 144.419C351.63 144.374 351.335 144.334 351.13 144.334C350.92 144.339 350.647 144.385 350.505 144.436ZM367.02 144.43C366.861 144.487 366.656 144.595 366.565 144.663C366.469 144.737 366.349 144.868 366.298 144.948C366.202 145.09 366.196 145.562 366.196 152.606L366.202 160.11C366.662 160.565 366.821 160.662 367.049 160.73C367.219 160.781 367.504 160.821 367.674 160.821C367.845 160.821 368.118 160.787 368.271 160.741C368.43 160.696 368.663 160.577 368.8 160.486C368.942 160.383 369.073 160.224 369.124 160.093C369.203 159.906 369.209 159.019 369.198 152.486L369.181 145.09C368.936 144.771 368.732 144.607 368.572 144.521C368.334 144.402 368.174 144.368 367.788 144.351C367.43 144.334 367.231 144.356 367.02 144.43ZM359.089 148.484C358.947 148.507 358.76 148.558 358.663 148.598C358.572 148.632 358.407 148.723 358.31 148.802C358.208 148.876 358.083 149.018 358.038 149.109C357.964 149.257 357.952 149.991 357.952 154.67C357.952 159.343 357.964 160.071 358.038 160.184C358.083 160.252 358.191 160.372 358.282 160.451C358.367 160.531 358.572 160.645 358.737 160.707C358.913 160.775 359.175 160.821 359.391 160.821C359.584 160.821 359.874 160.781 360.027 160.736C360.187 160.69 360.414 160.582 360.533 160.491C360.659 160.406 360.801 160.235 360.857 160.11C360.96 159.894 360.966 159.587 360.966 154.681C360.966 151.526 360.943 149.399 360.909 149.28C360.88 149.172 360.772 149.001 360.67 148.899C360.568 148.797 360.369 148.666 360.226 148.603C360.084 148.547 359.828 148.478 359.658 148.467C359.487 148.45 359.232 148.456 359.089 148.484ZM342.238 150.633C342.079 150.684 341.852 150.832 341.721 150.957C341.573 151.099 341.471 151.258 341.448 151.383C341.425 151.491 341.408 153.436 341.408 155.704C341.414 159.178 341.425 159.86 341.499 160.053C341.545 160.179 341.624 160.326 341.681 160.383C341.732 160.44 341.909 160.548 342.062 160.628C342.227 160.707 342.505 160.781 342.716 160.798C342.921 160.821 343.228 160.804 343.398 160.77C343.569 160.736 343.813 160.645 343.938 160.565C344.063 160.48 344.228 160.326 344.308 160.213L344.45 160.002C344.478 153.697 344.473 151.742 344.456 151.582C344.438 151.429 344.365 151.213 344.296 151.105C344.222 150.997 344.023 150.832 343.853 150.735C343.58 150.582 343.478 150.559 343.029 150.548C342.653 150.536 342.443 150.559 342.238 150.633Z" fill="#344C92"/>
<path d="M282.5 141.561L316 141.561" stroke="#989898" stroke-width="2"/>
<path d="M178.5 141.043H167.395C164.026 141.043 161.295 143.774 161.295 147.144V175.985C161.295 179.354 158.563 182.086 155.194 182.086H138" stroke="#989898" stroke-width="1.69003" stroke-dasharray="3.38 3.38"/>
<path d="M138 100H166.564C169.933 100 172.664 102.731 172.664 106.101V134.942C172.664 138.311 175.396 141.043 178.765 141.043H195.959" stroke="#989898" stroke-width="1.69003" stroke-dasharray="3.38 3.38"/>
<defs>
<filter id="filter0_d_386_10573" x="189.854" y="98.9208" width="99.6755" height="99.6774" filterUnits="userSpaceOnUse" color-interpolation-filters="sRGB">
<feFlood flood-opacity="0" result="BackgroundImageFix"/>
<feColorMatrix in="SourceAlpha" type="matrix" values="0 0 0 0 0 0 0 0 0 0 0 0 0 0 0 0 0 0 127 0" result="hardAlpha"/>
<feOffset dy="1.85619"/>
<feGaussianBlur stdDeviation="3.57317"/>
<feComposite in2="hardAlpha" operator="out"/>
<feColorMatrix type="matrix" values="0 0 0 0 0 0 0 0 0 0 0 0 0 0 0 0 0 0 0.15 0"/>
<feBlend mode="normal" in2="BackgroundImageFix" result="effect1_dropShadow_386_10573"/>
<feBlend mode="normal" in="SourceGraphic" in2="effect1_dropShadow_386_10573" result="shape"/>
</filter>
<filter id="filter1_d_386_10573" x="83.7828" y="74.0891" width="58.821" height="58.821" filterUnits="userSpaceOnUse" color-interpolation-filters="sRGB">
<feFlood flood-opacity="0" result="BackgroundImageFix"/>
<feColorMatrix in="SourceAlpha" type="matrix" values="0 0 0 0 0 0 0 0 0 0 0 0 0 0 0 0 0 0 127 0" result="hardAlpha"/>
<feOffset dy="1.09536"/>
<feGaussianBlur stdDeviation="2.10858"/>
<feComposite in2="hardAlpha" operator="out"/>
<feColorMatrix type="matrix" values="0 0 0 0 0 0 0 0 0 0 0 0 0 0 0 0 0 0 0.15 0"/>
<feBlend mode="normal" in2="BackgroundImageFix" result="effect1_dropShadow_386_10573"/>
<feBlend mode="normal" in="SourceGraphic" in2="effect1_dropShadow_386_10573" result="shape"/>
</filter>
<filter id="filter2_d_386_10573" x="309.607" y="102.478" width="89.1732" height="89.1732" filterUnits="userSpaceOnUse" color-interpolation-filters="sRGB">
<feFlood flood-opacity="0" result="BackgroundImageFix"/>
<feColorMatrix in="SourceAlpha" type="matrix" values="0 0 0 0 0 0 0 0 0 0 0 0 0 0 0 0 0 0 127 0" result="hardAlpha"/>
<feOffset dy="1.66058"/>
<feGaussianBlur stdDeviation="3.19662"/>
<feComposite in2="hardAlpha" operator="out"/>
<feColorMatrix type="matrix" values="0 0 0 0 0 0 0 0 0 0 0 0 0 0 0 0 0 0 0.15 0"/>
<feBlend mode="normal" in2="BackgroundImageFix" result="effect1_dropShadow_386_10573"/>
<feBlend mode="normal" in="SourceGraphic" in2="effect1_dropShadow_386_10573" result="shape"/>
</filter>
<filter id="filter3_d_386_10573" x="83.7828" y="153.089" width="58.821" height="58.821" filterUnits="userSpaceOnUse" color-interpolation-filters="sRGB">
<feFlood flood-opacity="0" result="BackgroundImageFix"/>
<feColorMatrix in="SourceAlpha" type="matrix" values="0 0 0 0 0 0 0 0 0 0 0 0 0 0 0 0 0 0 127 0" result="hardAlpha"/>
<feOffset dy="1.09536"/>
<feGaussianBlur stdDeviation="2.10858"/>
<feComposite in2="hardAlpha" operator="out"/>
<feColorMatrix type="matrix" values="0 0 0 0 0 0 0 0 0 0 0 0 0 0 0 0 0 0 0.15 0"/>
<feBlend mode="normal" in2="BackgroundImageFix" result="effect1_dropShadow_386_10573"/>
<feBlend mode="normal" in="SourceGraphic" in2="effect1_dropShadow_386_10573" result="shape"/>
</filter>
</defs>
</svg>
