<svg width="69" height="68" viewBox="0 0 69 68" fill="none" xmlns="http://www.w3.org/2000/svg">
<rect width="69" height="68" rx="15" fill="#FAF9F6"/>
<path fill-rule="evenodd" clip-rule="evenodd" d="M30.2877 11.8774C30.9663 11.5478 31.8969 11.1988 32.3816 11.1019C32.8662 11.0243 33.9907 10.9856 34.9019 11.0049C35.8713 11.0437 36.9764 11.2182 37.6161 11.4508C38.1978 11.6641 39.0896 12.11 39.613 12.4396C40.1171 12.7886 40.7375 13.06 41.0089 13.06C41.2803 13.06 41.8038 13.2151 42.1916 13.3896C42.6181 13.6028 43.0834 14.0487 43.3548 14.514C43.6068 14.9406 43.917 15.7742 44.0333 16.3558C44.2078 17.2089 44.1884 17.8487 43.9558 19.6517C43.7813 20.8731 43.5874 22.0363 43.5293 22.2108C43.4711 22.4435 43.5487 22.5986 43.8201 22.6567C44.0333 22.7149 44.2854 23.0057 44.4017 23.3353C44.5374 23.7424 44.518 24.1883 44.3629 24.8669C44.2272 25.3903 43.8976 26.0495 43.6262 26.3209C43.3548 26.6117 42.9864 26.8832 42.8119 26.9219C42.6181 26.9801 42.463 27.174 42.463 27.3484C42.463 27.5423 42.2109 28.2209 41.9007 28.8607C41.6099 29.5004 41.0671 30.3729 40.7375 30.7994C40.1559 31.5167 40.1171 31.6718 40.1365 34.6769L41.6293 35.3942C42.463 35.8013 44.6343 36.7125 46.4374 37.4105C48.2598 38.1084 50.1791 38.9808 50.7026 39.3298C51.2454 39.6788 52.0791 40.3961 52.5638 40.9196C53.0484 41.4236 53.6688 42.2379 53.9596 42.7226C54.2311 43.2073 54.5994 44.1185 54.7545 44.7583C54.9096 45.398 55.278 48.6939 55.5882 52.0867C56.0729 57.5345 56.0923 58.2712 55.8402 58.4263C55.6657 58.5426 47.5812 58.6202 35.1927 58.6202C23.9869 58.6202 14.6228 58.5426 14.3901 58.4651C14.0024 58.3488 13.9442 58.2324 14.0412 57.7478C14.0993 57.4182 14.2738 55.7703 14.4289 54.0642C14.6034 52.3581 14.8167 49.8377 14.933 48.4418C15.0493 47.046 15.282 45.4368 15.4371 44.8552C15.6115 44.2736 15.9411 43.4011 16.1932 42.9165C16.4258 42.4318 17.0268 41.5981 17.4921 41.0747C17.9768 40.5318 18.8298 39.7951 19.4115 39.4074C19.9931 39.0196 21.641 38.2441 23.0757 37.6819C24.5103 37.139 26.6817 36.2084 30.0551 34.5799V33.0871C30.0357 31.6524 29.9969 31.5167 29.3184 30.6055C28.9306 30.0627 28.3878 29.0933 28.1164 28.4341C27.7674 27.5617 27.4572 27.1158 27.0113 26.825C26.6623 26.6117 26.2358 26.127 26.0807 25.7587C25.9256 25.3903 25.7317 24.7505 25.6736 24.3628C25.596 23.9363 25.6348 23.4322 25.7705 23.1996C25.8868 22.9475 26.1389 22.7149 26.3327 22.6567C26.6235 22.5598 26.6429 22.4435 26.4297 21.4353C26.2939 20.8343 26.1389 19.8068 26.0613 19.167C25.9838 18.3527 26.0419 17.616 26.2552 16.7436C26.449 16.0456 26.8562 15.0569 27.2052 14.5334C27.5541 14.01 28.1164 13.3314 28.4653 13.0212C28.7949 12.7304 29.6286 12.207 30.2877 11.8774ZM30.0549 12.6723C30.3263 12.5366 31.0242 12.2457 31.6059 12.0713C32.2844 11.8386 33.3119 11.7223 34.4558 11.7223C35.6578 11.7094 36.6336 11.8192 37.3833 12.0519C37.9843 12.2457 38.8567 12.6723 39.3026 13.0212C39.8455 13.4284 40.3495 13.6416 40.7567 13.6416C41.1056 13.6416 41.6873 13.8161 42.0168 14.0294C42.3658 14.2426 42.7923 14.7079 42.9862 15.0375C43.1607 15.3865 43.3352 16.2783 43.3933 17.0344C43.4515 17.7905 43.374 19.1282 43.2576 20.0394C43.1219 20.9506 42.9668 21.9006 42.9087 22.172C42.8117 22.521 42.6954 22.1527 42.424 20.8149C42.2107 19.8068 41.8617 18.5854 41.6097 18.1007C41.3383 17.5385 40.9312 17.0926 39.7679 16.4528L37.9649 16.8987C36.9761 17.1313 35.6384 17.3252 34.9986 17.3252C34.3589 17.3252 33.1762 17.1313 32.3813 16.9181C31.5477 16.6854 30.6947 16.5497 30.4038 16.6273C30.0936 16.6854 29.6284 16.9569 29.3375 17.1895C29.0273 17.4415 28.6008 18.1007 28.3682 18.6436C28.1161 19.2058 27.8059 20.3303 27.6702 21.1445C27.4957 22.1139 27.36 22.521 27.2825 22.269C27.2243 22.0557 27.0692 21.3578 26.9335 20.718C26.8172 20.0782 26.759 18.8568 26.7978 18.0038C26.8754 16.8405 27.0111 16.2008 27.3794 15.4834C27.6508 14.9406 28.2519 14.1651 28.7171 13.7192C29.1824 13.2927 29.7835 12.8274 30.0549 12.6723ZM28.8916 19.1089C29.1049 18.6629 29.4926 18.0813 29.7641 17.8099C30.0743 17.4997 30.4426 17.3252 30.8691 17.3252C31.2181 17.3252 31.8579 17.4415 32.2844 17.5966C32.7109 17.7324 33.6803 17.9262 34.417 18.0038C35.4058 18.1007 36.1619 18.0425 37.2282 17.8099C38.0231 17.616 39.0312 17.4222 39.4577 17.364C40.1557 17.2864 40.272 17.3446 40.7179 17.9262C40.9699 18.2946 41.3383 19.0701 41.5128 19.6517C41.6873 20.2333 41.9393 21.5517 42.075 22.5598C42.2495 23.9557 42.2495 24.7506 42.0944 25.8556C41.9587 26.7668 41.6291 27.8138 41.2026 28.6668C40.8342 29.4035 40.1169 30.4892 39.6128 31.0708C39.0506 31.6912 38.2751 32.2922 37.6159 32.6024C36.7435 33.0289 36.2782 33.1065 34.9986 33.1065C33.8354 33.1065 33.2344 32.9902 32.5752 32.6994C32.0905 32.4667 31.2375 31.7688 30.6559 31.1484C30.0936 30.528 29.3182 29.4035 28.9498 28.6668C28.4651 27.6974 28.2131 26.8444 28.058 25.6618C27.8835 24.2853 27.9029 23.6843 28.1937 21.9782C28.3682 20.8537 28.6978 19.5741 28.8916 19.1089ZM26.3325 24.0526C26.3131 23.6843 26.3907 23.3353 26.4876 23.2577C26.5845 23.1802 26.8172 23.3159 27.0111 23.5679C27.2631 23.8781 27.36 24.3434 27.3406 25.1189C27.3406 25.7975 27.2631 26.2046 27.1468 26.1464C27.0305 26.0883 26.8172 25.7393 26.6621 25.371C26.507 25.0026 26.3519 24.4016 26.3325 24.0526ZM42.9668 24.2077C43.025 23.8781 43.1607 23.5098 43.2576 23.3934C43.374 23.2577 43.5484 23.1996 43.6648 23.2577C43.7811 23.3159 43.8393 23.6455 43.8393 23.9751C43.8199 24.324 43.6454 24.9638 43.4321 25.4097C43.2189 25.875 42.9668 26.2434 42.8505 26.2434C42.7342 26.2434 42.6954 25.9332 42.7536 25.5067C42.8006 25.2714 42.8477 24.9649 42.8904 24.6865C42.9181 24.506 42.9439 24.3374 42.9668 24.2077ZM36.6466 33.63C37.267 33.5136 38.0231 33.184 38.4496 32.8545L39.1863 32.2922L39.3414 33.6881C39.4383 34.4442 39.4771 35.1228 39.4383 35.2003C39.3996 35.2973 38.5077 35.9952 37.4608 36.7707C36.4333 37.5462 35.4639 38.2441 35.3282 38.3217C35.1925 38.3992 34.3589 37.8952 33.2926 37.1197C32.9236 36.8319 32.549 36.5441 32.2147 36.2873C31.6709 35.8694 31.2339 35.5337 31.1018 35.4136C30.7334 35.1034 30.6947 34.9095 30.8885 32.5443L31.9742 33.0871C32.6915 33.4555 33.4864 33.6687 34.3201 33.7463C35.018 33.8044 36.0649 33.7463 36.6466 33.63ZM28.6978 36.1309L29.2212 35.8401C29.5314 35.685 29.8222 35.5687 29.8998 35.5493C29.9967 35.5493 31.063 36.3054 34.5333 38.9421L31.5865 41.8502L31.1018 41.2686C30.8498 40.9584 30.4232 40.2604 30.1518 39.7176C29.8998 39.1941 29.4539 38.1666 28.6978 36.1309ZM35.8711 38.9421C35.8905 38.8451 36.821 38.0309 37.9649 37.1584C39.1088 36.3054 40.0975 35.5881 40.1751 35.5687C40.272 35.5493 40.5822 35.685 40.9118 35.8401C41.222 35.9952 41.4934 36.1503 41.4934 36.1891C41.4934 36.2056 41.2543 36.8268 40.9439 37.6335C40.8898 37.774 40.8336 37.9201 40.7761 38.0696C40.3689 39.0778 39.7291 40.3767 38.6822 41.9665L37.267 40.5512C36.4915 39.7757 35.8711 39.0584 35.8711 38.9421ZM26.0223 38.7094C26.4876 37.8758 27.0305 37.0615 27.2243 36.8676C27.4376 36.6738 27.709 36.5187 27.8059 36.5187C27.9223 36.5187 28.3488 37.2748 28.7365 38.2054C29.1437 39.1553 29.8028 40.4349 30.21 41.0747C30.6171 41.7145 31.1018 42.3542 31.2763 42.49C31.5477 42.6838 31.7222 42.6063 32.4007 42.0053L32.4059 42.0005C33.1763 41.2879 33.1963 41.2694 33.4864 41.6563C33.6803 41.9277 33.7385 42.3349 33.6609 43.1103C33.6028 43.692 33.467 46.0184 33.3507 48.248L33.3239 48.7668C33.2108 50.9535 33.0633 53.8058 32.866 57.5539L30.714 53.4826C29.5314 51.253 27.9223 48.2092 25.7897 44.0797L26.4101 43.8083C26.759 43.6532 27.2243 43.4012 27.4376 43.2267C27.8059 42.9359 27.7866 42.8971 26.5264 41.7145C25.8091 41.0359 25.2274 40.4349 25.208 40.3574C25.208 40.2604 25.5764 39.5237 26.0223 38.7094ZM39.9424 41.3267C40.3689 40.6482 41.0281 39.291 41.4158 38.3217C41.8036 37.3329 42.2301 36.5187 42.3464 36.5187C42.4628 36.5187 42.7923 36.7513 43.0831 37.0421C43.3546 37.3523 43.9168 38.186 45.08 40.2216L43.7811 41.5206C43.0444 42.2379 42.4628 42.8777 42.4628 42.9746C42.4628 43.0522 42.8505 43.3236 43.3352 43.595C43.8199 43.8665 44.2076 44.1767 44.2076 44.2736C44.2076 44.3899 42.7148 47.3174 40.8924 50.8265C39.07 54.3162 37.4996 57.2631 37.4027 57.36C37.2863 57.4763 37.2282 57.0111 37.2282 56.1968C37.2282 55.4601 37.0925 52.4356 36.9374 49.5082C36.7823 46.5807 36.6078 43.692 36.5496 43.1103C36.4527 42.3349 36.5108 41.9471 36.7241 41.6563C36.995 41.2693 37.0148 41.2879 37.6512 41.8857L37.6547 41.8889C38.0037 42.2379 38.4884 42.5287 38.721 42.5287C39.0506 42.5287 39.3608 42.2185 39.9424 41.3267ZM19.7796 39.9502C20.2643 39.6012 21.8153 38.8839 23.2499 38.3217C24.6846 37.7788 25.8866 37.3329 25.9254 37.3523C25.9641 37.3717 25.6346 38.0503 25.208 38.8451C24.7815 39.64 24.4326 40.338 24.4326 40.3961C24.4326 40.4543 24.9754 41.0359 26.856 42.8777L26.0223 43.2848C25.5764 43.5175 25.1693 43.7889 25.1111 43.8858C25.0529 44.0022 26.6233 47.1623 28.6008 50.9234C30.5783 54.6652 32.1875 57.7672 32.1875 57.8059C32.1875 57.8253 29.7059 57.8447 21.1367 57.8447L21.0785 53.9285C21.0592 51.001 20.9816 50.0122 20.7877 49.9541C20.6132 49.9153 20.5551 50.4194 20.5551 52.0867C20.5551 53.2693 20.4969 55.0723 20.2643 57.8447H14.7389L14.8358 56.7396C14.8465 56.6257 14.8644 56.4378 14.888 56.1895C14.993 55.0858 15.2117 52.7881 15.4174 50.4775C15.6695 47.647 15.9991 44.9909 16.1542 44.5644C16.3093 44.1379 16.5807 43.4787 16.7746 43.1103C16.9684 42.742 17.5307 42.0053 18.0153 41.4818C18.5 40.9777 19.2949 40.2798 19.7796 39.9502ZM44.3372 37.6578C44.2773 37.5451 44.238 37.4713 44.227 37.4493C44.1882 37.3523 44.2076 37.2942 44.2852 37.2942C44.3433 37.2942 45.429 37.7013 46.6698 38.186C47.93 38.6707 49.384 39.3104 49.9269 39.6206C50.4503 39.9308 51.3421 40.6288 51.8656 41.2104C52.4085 41.7726 53.0288 42.5481 53.2615 42.9165C53.4941 43.2848 53.8431 44.2154 54.0758 44.9521C54.3472 45.9021 54.5798 47.8215 54.8706 51.4469C55.0839 54.2774 55.2972 56.8753 55.4523 57.8447H49.6361V53.8703C49.6361 50.7877 49.5779 49.9153 49.384 49.9541C49.2095 50.0122 49.132 51.001 49.0544 57.8447H43.5291C40.4853 57.8447 38.0037 57.8253 38.0037 57.8059C37.9843 57.7672 39.6128 54.6652 41.5903 50.9234C43.5678 47.1623 45.1382 44.0022 45.08 43.8858C45.0219 43.7889 44.6341 43.5175 44.2076 43.3042C43.7811 43.091 43.4321 42.8583 43.4321 42.7808C43.4515 42.6838 43.975 42.141 45.8168 40.4931L45.0607 39.039C44.7693 38.4702 44.4879 37.9412 44.3372 37.6578ZM33.7385 40.8808C33.7385 40.7839 34.0293 40.3767 34.3782 39.9696C34.7272 39.5819 35.0374 39.2523 35.0956 39.2329C35.1537 39.2329 35.5221 39.5625 36.6466 40.7839L36.1037 41.3655C35.8129 41.6951 35.4058 42.0053 35.1925 42.0634C34.9211 42.141 34.6303 41.9859 34.2619 41.6175C33.9711 41.3267 33.7385 40.9971 33.7385 40.8808ZM34.0293 47.9572C34.1844 45.243 34.3007 42.9165 34.2813 42.8195C34.2619 42.7032 34.5721 42.6063 35.8323 42.6257L35.9486 44.0797C36.0068 44.8746 36.1425 47.3756 36.2588 49.6051C36.3558 51.854 36.4721 54.607 36.5496 57.8447H33.7385V55.3825C33.7385 54.006 33.8742 50.6714 34.0293 47.9572Z" fill="#595959"/>
<path d="M32.3816 11.1019L32.3341 10.8054L32.3227 10.8077L32.3816 11.1019ZM30.2877 11.8774L30.1567 11.6075L30.1536 11.609L30.2877 11.8774ZM34.9019 11.0049L34.9139 10.7051L34.9083 10.705L34.9019 11.0049ZM37.6161 11.4508L37.7194 11.1692L37.7187 11.1689L37.6161 11.4508ZM39.613 12.4396L39.784 12.1927L39.7729 12.1857L39.613 12.4396ZM42.1916 13.3896L42.3258 13.121L42.3147 13.116L42.1916 13.3896ZM43.3548 14.514L43.0957 14.6652L43.0965 14.6667L43.3548 14.514ZM44.0333 16.3558L43.7392 16.4147L43.7394 16.416L44.0333 16.3558ZM43.9558 19.6517L44.2528 19.6941L44.2533 19.6901L43.9558 19.6517ZM43.5293 22.2108L43.2447 22.1159L43.241 22.1269L43.2382 22.138L43.5293 22.2108ZM43.8201 22.6567L43.899 22.3673L43.891 22.3651L43.8829 22.3634L43.8201 22.6567ZM44.4017 23.3353L44.6864 23.2404L44.6846 23.2354L44.4017 23.3353ZM44.3629 24.8669L44.6534 24.9422L44.6554 24.9337L44.3629 24.8669ZM43.6262 26.3209L43.414 26.1087L43.4069 26.1162L43.6262 26.3209ZM42.8119 26.9219L42.7469 26.6291L42.7362 26.6314L42.7257 26.6346L42.8119 26.9219ZM41.9007 28.8607L41.6307 28.7297L41.6276 28.7365L41.9007 28.8607ZM40.7375 30.7994L40.9706 30.9884L40.9749 30.9828L40.7375 30.7994ZM40.1365 34.6769L39.8365 34.6788L39.8377 34.8661L40.0066 34.9473L40.1365 34.6769ZM41.6293 35.3942L41.761 35.1246L41.7592 35.1238L41.6293 35.3942ZM46.4374 37.4105L46.3291 37.6902L46.3301 37.6906L46.4374 37.4105ZM50.7026 39.3298L50.5361 39.5795L50.5404 39.5822L50.7026 39.3298ZM52.5638 40.9196L52.3436 41.1234L52.3475 41.1275L52.5638 40.9196ZM53.9596 42.7226L54.2215 42.5759L54.2169 42.5682L53.9596 42.7226ZM54.7545 44.7583L54.463 44.8289L54.463 44.8289L54.7545 44.7583ZM55.5882 52.0867L55.887 52.0601L55.8869 52.0594L55.5882 52.0867ZM55.8402 58.4263L55.6829 58.1706L55.6738 58.1767L55.8402 58.4263ZM14.3901 58.4651L14.485 58.1804L14.4763 58.1777L14.3901 58.4651ZM14.0412 57.7478L14.3354 57.8066L14.3366 57.7999L14.0412 57.7478ZM14.4289 54.0642L14.1304 54.0336L14.1301 54.037L14.4289 54.0642ZM14.933 48.4418L15.2319 48.4668L15.2319 48.4668L14.933 48.4418ZM15.4371 44.8552L15.1496 44.7689L15.1472 44.7779L15.4371 44.8552ZM16.1932 42.9165L16.4595 43.0549L16.4636 43.0463L16.1932 42.9165ZM17.4921 41.0747L17.2683 40.8749L17.2679 40.8754L17.4921 41.0747ZM19.4115 39.4074L19.5779 39.657L19.5779 39.657L19.4115 39.4074ZM23.0757 37.6819L22.9695 37.4013L22.9662 37.4026L23.0757 37.6819ZM30.0551 34.5799L30.1855 34.8501L30.3551 34.7682V34.5799H30.0551ZM30.0551 33.0871H30.3551L30.3551 33.083L30.0551 33.0871ZM29.3184 30.6055L29.0742 30.7799L29.0778 30.7847L29.3184 30.6055ZM28.1164 28.4341L27.8378 28.5456L27.839 28.5484L28.1164 28.4341ZM27.0113 26.825L27.1752 26.5736L27.1677 26.569L27.0113 26.825ZM26.0807 25.7587L25.8042 25.8751L25.8042 25.8751L26.0807 25.7587ZM25.6736 24.3628L25.9704 24.3183L25.9687 24.3091L25.6736 24.3628ZM25.7705 23.1996L26.0296 23.3507L26.0369 23.3383L26.0429 23.3253L25.7705 23.1996ZM26.3327 22.6567L26.419 22.9442L26.4276 22.9413L26.3327 22.6567ZM26.4297 21.4353L26.7232 21.3732L26.7223 21.3692L26.4297 21.4353ZM26.0613 19.167L25.7626 19.1955L25.7635 19.2031L26.0613 19.167ZM26.2552 16.7436L25.966 16.6633L25.9638 16.6724L26.2552 16.7436ZM28.4653 13.0212L28.2668 12.7963L28.266 12.797L28.4653 13.0212ZM31.6059 12.0713L31.6921 12.3588L31.7032 12.355L31.6059 12.0713ZM30.0549 12.6723L29.9207 12.4039L29.9133 12.4077L29.906 12.4118L30.0549 12.6723ZM34.4558 11.7223V12.0223L34.459 12.0223L34.4558 11.7223ZM37.3833 12.0519L37.4754 11.7663L37.4722 11.7653L37.3833 12.0519ZM39.3026 13.0212L39.1177 13.2575L39.1226 13.2612L39.3026 13.0212ZM42.0168 14.0294L41.8538 14.2813L41.8604 14.2854L42.0168 14.0294ZM42.9862 15.0375L43.2545 14.9033L43.25 14.8942L43.2448 14.8854L42.9862 15.0375ZM43.3933 17.0344L43.6925 17.0114L43.6925 17.0114L43.3933 17.0344ZM43.2576 20.0394L43.5544 20.0836L43.5552 20.0774L43.2576 20.0394ZM42.9087 22.172L43.1977 22.2523L43.2001 22.2437L43.202 22.2349L42.9087 22.172ZM42.424 20.8149L42.718 20.7553L42.7175 20.7528L42.424 20.8149ZM41.6097 18.1007L41.3394 18.2312L41.3435 18.2391L41.6097 18.1007ZM39.7679 16.4528L39.9125 16.1899L39.8097 16.1334L39.6959 16.1616L39.7679 16.4528ZM37.9649 16.8987L38.0336 17.1907L38.0369 17.1899L37.9649 16.8987ZM32.3813 16.9181L32.3007 17.2071L32.3036 17.2078L32.3813 16.9181ZM30.4038 16.6273L30.4591 16.9221L30.4702 16.9201L30.4811 16.9171L30.4038 16.6273ZM29.3375 17.1895L29.1501 16.9552L29.1484 16.9567L29.3375 17.1895ZM28.3682 18.6436L28.642 18.7663L28.6439 18.7617L28.3682 18.6436ZM27.6702 21.1445L27.9655 21.1977L27.9661 21.1938L27.6702 21.1445ZM27.2825 22.269L26.9929 22.348L26.9958 22.3572L27.2825 22.269ZM26.9335 20.718L26.6382 20.7717L26.64 20.7802L26.9335 20.718ZM26.7978 18.0038L26.4984 17.9838L26.4981 17.9902L26.7978 18.0038ZM27.3794 15.4834L27.6463 15.6205L27.6478 15.6176L27.3794 15.4834ZM28.7171 13.7192L28.5144 13.498L28.5096 13.5026L28.7171 13.7192ZM29.7641 17.8099L29.9762 18.022L29.9762 18.022L29.7641 17.8099ZM28.8916 19.1089L28.621 18.9794L28.6177 18.9864L28.6147 18.9935L28.8916 19.1089ZM32.2844 17.5966L32.1818 17.8788L32.1935 17.8825L32.2844 17.5966ZM34.417 18.0038L34.3856 18.3021L34.3877 18.3023L34.417 18.0038ZM37.2282 17.8099L37.2921 18.1031L37.2993 18.1014L37.2282 17.8099ZM39.4577 17.364L39.4246 17.0657L39.4172 17.0667L39.4577 17.364ZM40.7179 17.9262L40.9655 17.7568L40.9609 17.7501L40.956 17.7437L40.7179 17.9262ZM41.5128 19.6517L41.8001 19.5655L41.8001 19.5655L41.5128 19.6517ZM42.075 22.5598L42.3727 22.5226L42.3723 22.5198L42.075 22.5598ZM42.0944 25.8556L42.3911 25.8998L42.3915 25.8973L42.0944 25.8556ZM39.6128 31.0708L39.8352 31.2723L39.8395 31.2673L39.6128 31.0708ZM37.6159 32.6024L37.4882 32.3309L37.4842 32.3329L37.6159 32.6024ZM32.5752 32.6994L32.4453 32.97L32.4541 32.9738L32.5752 32.6994ZM30.6559 31.1484L30.4336 31.3499L30.437 31.3536L30.6559 31.1484ZM28.9498 28.6668L28.6815 28.801L28.6815 28.801L28.9498 28.6668ZM28.058 25.6618L27.7604 25.6995L27.7605 25.7008L28.058 25.6618ZM28.1937 21.9782L28.4895 22.0286L28.4901 22.0242L28.1937 21.9782ZM26.4876 23.2577L26.675 23.492L26.675 23.492L26.4876 23.2577ZM26.3325 24.0526L26.0329 24.0684L26.033 24.0693L26.3325 24.0526ZM27.0111 23.5679L26.7732 23.7509L26.7782 23.7571L27.0111 23.5679ZM27.3406 25.1189L27.0406 25.1114V25.1189H27.3406ZM27.1468 26.1464L27.2809 25.8781L27.2809 25.8781L27.1468 26.1464ZM26.6621 25.371L26.3856 25.4874L26.3856 25.4874L26.6621 25.371ZM43.2576 23.3934L43.0298 23.1982L43.0272 23.2014L43.2576 23.3934ZM42.9668 24.2077L43.2623 24.2599L43.2623 24.2599L42.9668 24.2077ZM43.6648 23.2577L43.5306 23.5261L43.5306 23.5261L43.6648 23.2577ZM43.8393 23.9751L44.1388 23.9917L44.1393 23.9834V23.9751H43.8393ZM43.4321 25.4097L43.1614 25.2803L43.1594 25.2847L43.4321 25.4097ZM42.7536 25.5067L42.4594 25.4478L42.4576 25.4569L42.4563 25.4661L42.7536 25.5067ZM42.8904 24.6865L42.5938 24.641L42.5938 24.641L42.8904 24.6865ZM38.4496 32.8545L38.2676 32.616L38.2661 32.6171L38.4496 32.8545ZM36.6466 33.63L36.5913 33.3351L36.5877 33.3358L36.6466 33.63ZM39.1863 32.2922L39.4845 32.2591L39.4259 31.732L39.0043 32.0537L39.1863 32.2922ZM39.3414 33.6881L39.0432 33.7212L39.0438 33.7263L39.3414 33.6881ZM39.4383 35.2003L39.17 35.0662L39.1644 35.0773L39.1598 35.0889L39.4383 35.2003ZM37.4608 36.7707L37.2823 36.5296L37.2801 36.5312L37.4608 36.7707ZM35.3282 38.3217L35.1794 38.0612L35.1794 38.0612L35.3282 38.3217ZM33.2926 37.1197L33.1079 37.3564L33.1161 37.3623L33.2926 37.1197ZM32.2147 36.2873L32.032 36.5252L32.032 36.5252L32.2147 36.2873ZM31.1018 35.4136L31.3037 35.1914L31.295 35.1841L31.1018 35.4136ZM30.8885 32.5443L31.0227 32.2759L30.6258 32.0775L30.5895 32.5198L30.8885 32.5443ZM31.9742 33.0871L32.1113 32.8202L32.1084 32.8188L31.9742 33.0871ZM34.3201 33.7463L34.2923 34.045L34.2952 34.0452L34.3201 33.7463ZM29.2212 35.8401L29.0869 35.5715L29.0755 35.5779L29.2212 35.8401ZM28.6978 36.1309L28.5521 35.8687L28.3268 35.9938L28.4165 36.2354L28.6978 36.1309ZM29.8998 35.5493V35.2493H29.8628L29.827 35.2583L29.8998 35.5493ZM34.5333 38.9421L34.7441 39.1556L34.9904 38.9125L34.7148 38.7032L34.5333 38.9421ZM31.5865 41.8502L31.356 42.0422L31.5649 42.2929L31.7972 42.0637L31.5865 41.8502ZM31.1018 41.2686L30.8689 41.4577L30.8713 41.4606L31.1018 41.2686ZM30.1518 39.7176L29.8815 39.8477L29.8835 39.8517L30.1518 39.7176ZM37.9649 37.1584L37.7855 36.9179L37.783 36.9199L37.9649 37.1584ZM35.8711 38.9421L35.5769 38.8832L35.5711 38.9124V38.9421H35.8711ZM40.1751 35.5687L40.1162 35.2745L40.1092 35.2759L40.1023 35.2776L40.1751 35.5687ZM40.9118 35.8401L41.046 35.5717L41.0395 35.5687L40.9118 35.8401ZM40.9439 37.6335L41.2239 37.7412L41.2239 37.7412L40.9439 37.6335ZM40.7761 38.0696L41.0543 38.182L41.0561 38.1773L40.7761 38.0696ZM38.6822 41.9665L38.4701 42.1786L38.7304 42.4389L38.9328 42.1315L38.6822 41.9665ZM27.2243 36.8676L27.0225 36.6457L27.0172 36.6505L27.0122 36.6555L27.2243 36.8676ZM26.0223 38.7094L25.7603 38.5632L25.7592 38.5653L26.0223 38.7094ZM28.7365 38.2054L28.4596 38.3207L28.4608 38.3235L28.7365 38.2054ZM30.21 41.0747L29.9569 41.2357L29.9569 41.2357L30.21 41.0747ZM31.2763 42.49L31.0919 42.727L31.1019 42.7341L31.2763 42.49ZM32.4007 42.0053L32.5997 42.2299L32.6045 42.2255L32.4007 42.0053ZM32.4059 42.0005L32.2022 41.7803L32.2021 41.7803L32.4059 42.0005ZM33.4864 41.6563L33.7306 41.4819L33.7264 41.4763L33.4864 41.6563ZM33.6609 43.1103L33.9594 43.1402L33.9594 43.1402L33.6609 43.1103ZM33.3507 48.248L33.0511 48.2324L33.0511 48.2325L33.3507 48.248ZM33.3239 48.7668L33.0243 48.7513L33.0243 48.7513L33.3239 48.7668ZM32.866 57.5539L32.6008 57.6941L33.1085 58.6546L33.1656 57.5697L32.866 57.5539ZM30.714 53.4826L30.9793 53.3424L30.9791 53.342L30.714 53.4826ZM25.7897 44.0797L25.6694 43.8049L25.3763 43.9331L25.5231 44.2174L25.7897 44.0797ZM26.4101 43.8083L26.5303 44.0831L26.5319 44.0824L26.4101 43.8083ZM27.4376 43.2267L27.2517 42.9912L27.2476 42.9945L27.4376 43.2267ZM26.5264 41.7145L26.3202 41.9324L26.3211 41.9332L26.5264 41.7145ZM25.208 40.3574H24.908V40.3943L24.917 40.4301L25.208 40.3574ZM41.4158 38.3217L41.6944 38.4331L41.6951 38.4312L41.4158 38.3217ZM39.9424 41.3267L40.1937 41.4906L40.1964 41.4864L39.9424 41.3267ZM43.0831 37.0421L43.3089 36.8446L43.3023 36.837L43.2953 36.83L43.0831 37.0421ZM45.08 40.2216L45.2922 40.4338L45.4542 40.2717L45.3405 40.0728L45.08 40.2216ZM43.7811 41.5206L43.9904 41.7356L43.9932 41.7327L43.7811 41.5206ZM43.3352 43.595L43.4818 43.3333L43.4818 43.3333L43.3352 43.595ZM40.8924 50.8265L41.1583 50.9654L41.1586 50.9648L40.8924 50.8265ZM37.4027 57.36L37.6148 57.5722L37.6148 57.5722L37.4027 57.36ZM36.9374 49.5082L37.237 49.4923L37.237 49.4923L36.9374 49.5082ZM36.5496 43.1103L36.8482 43.0805L36.8473 43.0731L36.5496 43.1103ZM36.7241 41.6563L36.9661 41.8338L36.9699 41.8283L36.7241 41.6563ZM37.6512 41.8857L37.4458 42.1043L37.4458 42.1043L37.6512 41.8857ZM37.6547 41.8889L37.8669 41.6767L37.8601 41.6703L37.6547 41.8889ZM23.2499 38.3217L23.1437 38.0411L23.1405 38.0424L23.2499 38.3217ZM19.7796 39.9502L19.9483 40.1984L19.9549 40.1937L19.7796 39.9502ZM25.9254 37.3523L26.0595 37.084L26.0595 37.084L25.9254 37.3523ZM25.208 38.8451L24.9437 38.7033L24.9437 38.7033L25.208 38.8451ZM26.856 42.8777L26.9876 43.1473L27.3695 42.9608L27.0659 42.6634L26.856 42.8777ZM26.0223 43.2848L25.8906 43.0152L25.8835 43.0189L26.0223 43.2848ZM25.1111 43.8858L24.8539 43.7315L24.8479 43.7414L24.8428 43.7517L25.1111 43.8858ZM28.6008 50.9234L28.3353 51.063L28.3356 51.0636L28.6008 50.9234ZM21.1367 57.8447L20.8367 57.8492L20.8411 58.1447H21.1367V57.8447ZM21.0785 53.9285L20.7785 53.9305L20.7786 53.9329L21.0785 53.9285ZM20.7877 49.9541L20.8739 49.6667L20.8635 49.6636L20.8528 49.6612L20.7877 49.9541ZM20.2643 57.8447V58.1447H20.5402L20.5632 57.8698L20.2643 57.8447ZM14.7389 57.8447L14.44 57.8185L14.4114 58.1447H14.7389V57.8447ZM14.8358 56.7396L14.5371 56.7116L14.537 56.7134L14.8358 56.7396ZM14.888 56.1895L14.5894 56.161L14.5894 56.161L14.888 56.1895ZM15.4174 50.4775L15.1186 50.4509L15.1186 50.4509L15.4174 50.4775ZM16.1542 44.5644L16.4361 44.6669L16.4361 44.6669L16.1542 44.5644ZM18.0153 41.4818L17.7991 41.2738L17.7952 41.278L18.0153 41.4818ZM44.227 37.4493L43.9485 37.5607L43.9531 37.5723L43.9587 37.5834L44.227 37.4493ZM44.3372 37.6578L44.6021 37.5169L44.6021 37.5169L44.3372 37.6578ZM46.6698 38.186L46.5606 38.4654L46.5621 38.466L46.6698 38.186ZM49.9269 39.6206L50.0798 39.3625L50.0757 39.3602L49.9269 39.6206ZM51.8656 41.2104L51.6425 41.4112L51.6498 41.4188L51.8656 41.2104ZM53.2615 42.9165L53.5151 42.7563L53.5151 42.7563L53.2615 42.9165ZM54.0758 44.9521L54.3643 44.8697L54.3618 44.8618L54.0758 44.9521ZM54.8706 51.4469L55.1698 51.4244L55.1697 51.4229L54.8706 51.4469ZM55.4523 57.8447V58.1447H55.8041L55.7485 57.7973L55.4523 57.8447ZM49.6361 57.8447H49.3361V58.1447H49.6361V57.8447ZM49.384 49.9541L49.3252 49.6599L49.3069 49.6636L49.2892 49.6695L49.384 49.9541ZM49.0544 57.8447V58.1447H49.3511L49.3544 57.8481L49.0544 57.8447ZM38.0037 57.8059H38.3037V57.7351L38.272 57.6718L38.0037 57.8059ZM41.5903 50.9234L41.8556 51.0636L41.8559 51.063L41.5903 50.9234ZM45.08 43.8858L45.3484 43.7517L45.3432 43.7414L45.3373 43.7315L45.08 43.8858ZM44.2076 43.3042L44.3418 43.0359L44.3418 43.0359L44.2076 43.3042ZM43.4321 42.7808L43.1379 42.7219L43.1321 42.7511V42.7808H43.4321ZM45.8168 40.4931L46.0168 40.7166L46.1904 40.5613L46.0829 40.3547L45.8168 40.4931ZM45.0607 39.039L44.7936 39.1758L44.7945 39.1774L45.0607 39.039ZM34.3782 39.9696L34.1552 39.7689L34.1505 39.7744L34.3782 39.9696ZM35.0956 39.2329V38.9329H35.0469L35.0007 38.9483L35.0956 39.2329ZM36.6466 40.7839L36.8659 40.9886L37.0556 40.7853L36.8673 40.5807L36.6466 40.7839ZM36.1037 41.3655L35.8843 41.1607L35.8788 41.167L36.1037 41.3655ZM35.1925 42.0634L35.1136 41.774L35.1101 41.775L35.1925 42.0634ZM34.2813 42.8195L33.9852 42.8689L33.9871 42.8784L34.2813 42.8195ZM34.0293 47.9572L34.3288 47.9743L34.3288 47.9743L34.0293 47.9572ZM35.8323 42.6257L36.1313 42.6017L36.1096 42.3299L35.8369 42.3257L35.8323 42.6257ZM35.9486 44.0797L36.2478 44.0578L36.2477 44.0558L35.9486 44.0797ZM36.2588 49.6051L36.5585 49.5922L36.5584 49.5895L36.2588 49.6051ZM36.5496 57.8447V58.1447H36.8569L36.8495 57.8375L36.5496 57.8447ZM33.7385 57.8447H33.4385V58.1447H33.7385V57.8447ZM32.3227 10.8077C31.8022 10.9118 30.8455 11.2729 30.1567 11.6075L30.4188 12.1472C31.0871 11.8226 31.9916 11.4858 32.4404 11.3961L32.3227 10.8077ZM34.9083 10.705C33.9939 10.6856 32.8469 10.7236 32.3342 10.8056L32.429 11.3981C32.8856 11.3251 33.9875 11.2856 34.8955 11.3049L34.9083 10.705ZM37.7187 11.1689C37.0385 10.9216 35.8993 10.7446 34.9139 10.7052L34.8899 11.3047C35.8433 11.3428 36.9142 11.5148 37.5136 11.7328L37.7187 11.1689ZM39.7729 12.1857C39.2331 11.8459 38.3224 11.3903 37.7194 11.1692L37.5129 11.7325C38.0731 11.9379 38.9461 12.3742 39.4532 12.6935L39.7729 12.1857ZM41.0089 12.76C40.9415 12.76 40.7689 12.7166 40.5196 12.6063C40.2844 12.5023 40.0199 12.3564 39.7838 12.1929L39.4423 12.6863C39.7103 12.8718 40.008 13.0361 40.2769 13.155C40.5316 13.2677 40.8049 13.36 41.0089 13.36V12.76ZM42.3147 13.116C42.1067 13.0224 41.8651 12.9351 41.6386 12.8708C41.4188 12.8083 41.1875 12.76 41.0089 12.76V13.36C41.1018 13.36 41.2679 13.3892 41.4746 13.4479C41.6747 13.5048 41.8887 13.5823 42.0684 13.6632L42.3147 13.116ZM43.6139 14.3629C43.3161 13.8524 42.8095 13.3632 42.3257 13.1213L42.0574 13.6579C42.4266 13.8425 42.8506 14.2451 43.0957 14.6652L43.6139 14.3629ZM44.3275 16.297C44.2055 15.6871 43.8846 14.8209 43.6131 14.3614L43.0965 14.6667C43.3291 15.0603 43.6285 15.8614 43.7392 16.4147L44.3275 16.297ZM44.2533 19.6901C44.4864 17.8834 44.5124 17.201 44.3273 16.2957L43.7394 16.416C43.9032 17.2167 43.8904 17.8139 43.6583 19.6133L44.2533 19.6901ZM43.8139 22.3057C43.8361 22.239 43.8627 22.1117 43.8906 21.9652C43.9203 21.8094 43.9559 21.607 43.9948 21.3732C44.0728 20.9052 44.1653 20.3068 44.2528 19.6941L43.6588 19.6093C43.5718 20.218 43.4801 20.8118 43.403 21.2745C43.3644 21.506 43.3297 21.7034 43.3012 21.853C43.287 21.9278 43.2745 21.9893 43.2642 22.0363C43.259 22.0598 43.2546 22.0787 43.2509 22.0931C43.2491 22.1003 43.2476 22.1059 43.2464 22.11C43.2452 22.1143 43.2446 22.1161 43.2447 22.1159L43.8139 22.3057ZM43.8829 22.3634C43.7895 22.3434 43.7932 22.3202 43.8069 22.3424C43.8199 22.3637 43.8011 22.3603 43.8203 22.2836L43.2382 22.138C43.1992 22.294 43.1902 22.4844 43.2953 22.656C43.401 22.8285 43.5792 22.9119 43.7572 22.9501L43.8829 22.3634ZM44.6846 23.2354C44.6138 23.0349 44.5027 22.8474 44.3747 22.6986C44.2523 22.5562 44.088 22.4188 43.899 22.3673L43.7411 22.9461C43.7654 22.9528 43.8338 22.9898 43.9198 23.0898C44.0002 23.1833 44.0733 23.3061 44.1188 23.4351L44.6846 23.2354ZM44.6554 24.9337C44.8145 24.2375 44.8482 23.7261 44.6863 23.2404L44.1171 23.4301C44.2266 23.7587 44.2215 24.1392 44.0705 24.8L44.6554 24.9337ZM43.8383 26.5331C44.0075 26.3639 44.1748 26.098 44.3133 25.8236C44.4543 25.544 44.5792 25.2283 44.6533 24.9422L44.0725 24.7916C44.011 25.0289 43.9032 25.3045 43.7776 25.5533C43.6495 25.8071 43.5163 26.0065 43.4141 26.1088L43.8383 26.5331ZM42.877 27.2148C42.9629 27.1957 43.0486 27.155 43.1212 27.1143C43.1981 27.0713 43.2797 27.0172 43.3608 26.9574C43.5229 26.8378 43.6967 26.685 43.8455 26.5256L43.4069 26.1162C43.2843 26.2476 43.1382 26.376 43.0046 26.4745C42.938 26.5237 42.8778 26.563 42.8281 26.5908C42.8033 26.6046 42.7832 26.6145 42.7677 26.6212C42.7515 26.6281 42.745 26.6295 42.7469 26.6291L42.877 27.2148ZM42.763 27.3484C42.763 27.3489 42.763 27.3421 42.7685 27.3285C42.774 27.3149 42.7834 27.2982 42.7976 27.2807C42.8275 27.2439 42.8658 27.219 42.8981 27.2093L42.7257 26.6346C42.5642 26.683 42.428 26.7841 42.3319 26.9024C42.2373 27.0189 42.163 27.1756 42.163 27.3484H42.763ZM42.1707 28.9915C42.3296 28.6638 42.474 28.3254 42.5794 28.0419C42.632 27.9003 42.6761 27.7692 42.7075 27.658C42.7361 27.5565 42.763 27.4424 42.763 27.3484H42.163C42.163 27.3447 42.163 27.3549 42.1571 27.3853C42.1517 27.4132 42.1428 27.4497 42.13 27.4951C42.1045 27.5856 42.0661 27.7005 42.017 27.8328C41.9188 28.097 41.7821 28.4178 41.6308 28.7298L42.1707 28.9915ZM40.9749 30.9828C41.3178 30.539 41.8729 29.6468 42.1739 28.9848L41.6276 28.7365C41.3469 29.3541 40.8163 30.2067 40.5001 30.616L40.9749 30.9828ZM40.4365 34.6749C40.4267 33.1606 40.4328 32.4009 40.5079 31.9272C40.5439 31.7003 40.5942 31.5523 40.6612 31.4246C40.7309 31.2915 40.8248 31.168 40.9705 30.9883L40.5045 30.6104C40.3593 30.7894 40.2303 30.9543 40.1298 31.146C40.0265 31.343 39.9593 31.5561 39.9153 31.8332C39.8305 32.3677 39.8269 33.1881 39.8365 34.6788L40.4365 34.6749ZM41.7592 35.1238L40.2664 34.4065L40.0066 34.9473L41.4994 35.6646L41.7592 35.1238ZM46.5457 37.1307C44.7442 36.4333 42.5826 35.5259 41.761 35.1246L41.4977 35.6638C42.3433 36.0767 44.5245 36.9917 46.3291 37.6902L46.5457 37.1307ZM50.869 39.0802C50.5835 38.8898 49.9502 38.575 49.1805 38.2276C48.4023 37.8763 47.4614 37.4814 46.5447 37.1303L46.3301 37.6906C47.2357 38.0375 48.1658 38.4278 48.9337 38.7744C49.7101 39.1249 50.2982 39.4208 50.5362 39.5794L50.869 39.0802ZM52.7839 40.7157C52.285 40.177 51.4323 39.4423 50.8648 39.0775L50.5404 39.5822C51.0585 39.9153 51.8731 40.6153 52.3436 41.1234L52.7839 40.7157ZM54.2169 42.5682C53.9138 42.0631 53.2794 41.231 52.78 40.7116L52.3475 41.1275C52.8175 41.6163 53.4239 42.4127 53.7024 42.8769L54.2169 42.5682ZM55.0461 44.6876C54.8844 44.0206 54.5058 43.0839 54.2214 42.576L53.6979 42.8692C53.9563 43.3307 54.3145 44.2164 54.463 44.8289L55.0461 44.6876ZM55.8869 52.0594C55.7317 50.3613 55.5618 48.6869 55.4113 47.3564C55.2621 46.0373 55.1292 45.0303 55.0461 44.6876L54.463 44.8289C54.535 45.126 54.6638 46.0868 54.8151 47.4238C54.9651 48.7493 55.1345 50.4193 55.2894 52.114L55.8869 52.0594ZM55.9974 58.6818C56.1758 58.5721 56.242 58.3837 56.2721 58.1803C56.3026 57.9744 56.3073 57.6732 56.2902 57.2298C56.256 56.336 56.1291 54.7812 55.887 52.0601L55.2894 52.1133C55.532 54.84 55.6571 56.3775 55.6907 57.2528C55.7076 57.6939 55.7002 57.9464 55.6786 58.0925C55.6566 58.2411 55.6307 58.203 55.683 58.1708L55.9974 58.6818ZM35.1927 58.9202C41.3874 58.9202 46.5067 58.9008 50.0996 58.8669C51.8958 58.8499 53.3116 58.8293 54.2898 58.8056C54.7786 58.7938 55.1602 58.7811 55.4262 58.7677C55.5587 58.761 55.6659 58.7539 55.7446 58.7463C55.7834 58.7425 55.8201 58.7382 55.8514 58.7328C55.8668 58.7302 55.8858 58.7265 55.9054 58.7211C55.9168 58.718 55.9613 58.7061 56.0066 58.6759L55.6738 58.1767C55.6974 58.161 55.7175 58.1527 55.726 58.1494C55.7361 58.1455 55.7438 58.1433 55.7471 58.1424C55.7536 58.1406 55.7556 58.1405 55.7502 58.1414C55.7399 58.1432 55.7198 58.1459 55.6868 58.1491C55.6218 58.1554 55.5254 58.1619 55.3959 58.1684C55.1379 58.1815 54.7626 58.194 54.2753 58.2058C53.3015 58.2293 51.8892 58.2499 50.0939 58.2669C46.5037 58.3008 41.3865 58.3202 35.1927 58.3202V58.9202ZM14.2953 58.7497C14.3407 58.7649 14.3927 58.7693 14.4094 58.7709C14.44 58.7739 14.4781 58.7766 14.5218 58.7791C14.6097 58.7842 14.7307 58.7891 14.8816 58.7939C15.1841 58.8035 15.6145 58.8129 16.1578 58.822C17.2449 58.8402 18.7884 58.8572 20.6742 58.8717C24.4459 58.9008 29.5892 58.9202 35.1927 58.9202V58.3202C29.5904 58.3202 24.4487 58.3008 20.6788 58.2717C18.7937 58.2572 17.2523 58.2402 16.1679 58.2221C15.6255 58.213 15.1986 58.2036 14.9007 58.1942C14.7515 58.1894 14.6365 58.1847 14.5562 58.1801C14.5158 58.1778 14.4867 58.1756 14.4675 58.1738C14.4344 58.1705 14.4541 58.1702 14.485 58.1805L14.2953 58.7497ZM13.747 57.6889C13.7218 57.8149 13.7032 57.9331 13.7004 58.0401C13.6975 58.1481 13.71 58.2651 13.7643 58.3762C13.8777 58.6083 14.1125 58.695 14.3039 58.7524L14.4763 58.1777C14.28 58.1188 14.2919 58.0893 14.3035 58.1129C14.3069 58.1199 14.2988 58.1095 14.3002 58.0558C14.3016 58.001 14.3121 57.923 14.3353 57.8066L13.747 57.6889ZM14.1301 54.037C13.9745 55.7493 13.8011 57.3816 13.7457 57.6956L14.3366 57.7999C14.3975 57.4547 14.5731 55.7912 14.7277 54.0913L14.1301 54.037ZM14.634 48.4169C14.5177 49.8133 14.3046 52.3308 14.1305 54.0336L14.7274 54.0947C14.9022 52.3853 15.1157 49.8622 15.2319 48.4668L14.634 48.4169ZM15.1472 44.7779C14.9849 45.3866 14.7506 47.0179 14.634 48.4169L15.2319 48.4668C15.348 47.074 15.579 45.487 15.7269 44.9325L15.1472 44.7779ZM15.927 42.7781C15.6634 43.2849 15.3275 44.1764 15.1497 44.769L15.7244 44.9414C15.8956 44.3707 16.2188 43.5174 16.4593 43.0549L15.927 42.7781ZM17.2679 40.8754C16.7931 41.4095 16.1722 42.2669 15.9227 42.7866L16.4636 43.0463C16.6794 42.5967 17.2606 41.7867 17.7163 41.274L17.2679 40.8754ZM19.245 39.1577C18.6425 39.5595 17.7701 40.3129 17.2683 40.8749L17.7159 41.2745C18.1835 40.7508 19.0172 40.0308 19.5779 39.657L19.245 39.1577ZM22.9662 37.4026C21.5297 37.9655 19.8556 38.7507 19.245 39.1577L19.5779 39.657C20.1306 39.2885 21.7523 38.5227 23.1851 37.9612L22.9662 37.4026ZM29.9247 34.3097C26.5555 35.9363 24.3928 36.8628 22.9695 37.4013L23.1818 37.9625C24.6278 37.4153 26.8079 36.4806 30.1855 34.8501L29.9247 34.3097ZM29.7551 33.0871V34.5799H30.3551V33.0871H29.7551ZM29.0778 30.7847C29.4206 31.2451 29.5667 31.4666 29.6463 31.7352C29.7291 32.0146 29.7453 32.3617 29.7551 33.0911L30.3551 33.083C30.3455 32.3778 30.3327 31.9397 30.2216 31.5648C30.1073 31.1791 29.8947 30.8771 29.559 30.4263L29.0778 30.7847ZM27.839 28.5484C28.1194 29.2294 28.6735 30.2189 29.0742 30.7799L29.5625 30.4311C29.1877 29.9065 28.6562 28.9572 28.3938 28.3199L27.839 28.5484ZM26.8474 27.0763C27.2161 27.3168 27.497 27.6936 27.8378 28.5456L28.3949 28.3227C28.0377 27.4298 27.6982 26.9148 27.1752 26.5737L26.8474 27.0763ZM25.8042 25.8751C25.8986 26.0992 26.0657 26.3398 26.2475 26.5476C26.4298 26.7559 26.6463 26.9535 26.8548 27.081L27.1677 26.569C27.0273 26.4832 26.8561 26.3319 26.6991 26.1524C26.5416 25.9725 26.4179 25.7865 26.3572 25.6423L25.8042 25.8751ZM25.3769 24.4073C25.4395 24.8248 25.6416 25.4889 25.8042 25.8751L26.3572 25.6423C26.2096 25.2917 26.0239 24.6763 25.9702 24.3183L25.3769 24.4073ZM25.5114 23.0484C25.4099 23.2223 25.3613 23.4594 25.343 23.6841C25.324 23.9174 25.3347 24.1763 25.3784 24.4165L25.9687 24.3091C25.9348 24.1227 25.9261 23.9164 25.9411 23.7328C25.9567 23.5407 25.9953 23.4095 26.0296 23.3507L25.5114 23.0484ZM26.2465 22.3694C26.0881 22.4169 25.9367 22.5229 25.8156 22.6382C25.6913 22.7566 25.5747 22.9079 25.4981 23.0738L26.0429 23.3253C26.0826 23.2392 26.1502 23.1481 26.2294 23.0727C26.3119 22.9941 26.3834 22.9547 26.4189 22.9441L26.2465 22.3694ZM26.1362 21.4974C26.1894 21.7489 26.2266 21.9381 26.2488 22.0833C26.2716 22.2321 26.2754 22.3151 26.2713 22.3617C26.268 22.4005 26.2622 22.3814 26.286 22.357C26.2997 22.343 26.303 22.3504 26.2379 22.3721L26.4276 22.9413C26.5078 22.9146 26.6226 22.871 26.7151 22.7764C26.8177 22.6715 26.8579 22.5422 26.8691 22.4137C26.8796 22.2931 26.8664 22.152 26.8419 21.9924C26.8169 21.8292 26.7766 21.6258 26.7232 21.3732L26.1362 21.4974ZM25.7635 19.2031C25.8415 19.8467 25.998 20.8858 26.137 21.5014L26.7223 21.3692C26.5899 20.7828 26.4362 19.7669 26.3591 19.1309L25.7635 19.2031ZM25.9638 16.6724C25.7432 17.5745 25.6817 18.3449 25.7627 19.1954L26.3599 19.1386C26.2859 18.3605 26.3406 17.6576 26.5466 16.8148L25.9638 16.6724ZM26.9555 14.367C26.5832 14.9256 26.1652 15.9467 25.9661 16.6633L26.5442 16.8239C26.7329 16.1446 27.1292 15.1882 27.4548 14.6998L26.9555 14.367ZM28.266 12.797C27.8918 13.1297 27.3133 13.8303 26.9555 14.367L27.4548 14.6998C27.7949 14.1896 28.341 13.5332 28.6646 13.2454L28.266 12.797ZM30.1536 11.609C29.4845 11.9436 28.6246 12.4806 28.2668 12.7963L28.6638 13.2462C28.9653 12.9802 29.7727 12.4703 30.4219 12.1457L30.1536 11.609ZM31.5197 11.7839C30.9215 11.9633 30.2075 12.2605 29.9207 12.4039L30.189 12.9406C30.445 12.8126 31.1269 12.5281 31.6921 12.3586L31.5197 11.7839ZM34.4558 11.4223C33.2999 11.4223 32.2336 11.5389 31.5086 11.7875L31.7032 12.355C32.3353 12.1383 33.324 12.0223 34.4558 12.0223V11.4223ZM37.4722 11.7653C36.6813 11.5199 35.6711 11.4092 34.4526 11.4223L34.459 12.0223C35.6446 12.0095 36.586 12.1185 37.2944 12.3384L37.4722 11.7653ZM39.4875 12.785C39.0065 12.4086 38.0999 11.9678 37.4754 11.7664L37.2912 12.3374C37.8687 12.5237 38.7069 12.936 39.1177 13.2575L39.4875 12.785ZM40.7567 13.3416C40.4443 13.3416 40.004 13.1723 39.4826 12.7812L39.1226 13.2612C39.6869 13.6844 40.2547 13.9416 40.7567 13.9416V13.3416ZM42.1798 13.7775C41.9841 13.6509 41.7283 13.5439 41.4816 13.4686C41.2362 13.3937 40.9721 13.3416 40.7567 13.3416V13.9416C40.8902 13.9416 41.0914 13.9768 41.3064 14.0425C41.5202 14.1077 41.72 14.1946 41.8539 14.2812L42.1798 13.7775ZM43.2448 14.8854C43.03 14.5202 42.5706 14.0162 42.1733 13.7734L41.8604 14.2854C42.161 14.4691 42.5547 14.8957 42.7276 15.1896L43.2448 14.8854ZM43.6925 17.0114C43.6624 16.6208 43.6025 16.1968 43.5275 15.8241C43.4542 15.4602 43.3609 15.1161 43.2545 14.9033L42.7179 15.1717C42.786 15.3079 42.8672 15.5842 42.9393 15.9425C43.0097 16.292 43.0661 16.6919 43.0942 17.0574L43.6925 17.0114ZM43.5552 20.0774C43.6728 19.1567 43.7528 17.7963 43.6925 17.0114L43.0942 17.0574C43.1502 17.7847 43.0752 19.0998 42.9601 20.0015L43.5552 20.0774ZM43.202 22.2349C43.2625 21.9524 43.419 20.9923 43.5544 20.0836L42.9609 19.9952C42.8248 20.909 42.6711 21.8489 42.6153 22.1092L43.202 22.2349ZM42.13 20.8746C42.2644 21.537 42.3652 21.9858 42.4484 22.2247C42.4695 22.2852 42.4943 22.3469 42.525 22.3996C42.5403 22.4259 42.5627 22.4599 42.5944 22.4921C42.6248 22.5228 42.6812 22.5696 42.7655 22.5883C42.9788 22.6354 43.0979 22.4718 43.1253 22.4282C43.1621 22.3695 43.1837 22.3029 43.1977 22.2523L42.6196 22.0918C42.6094 22.1285 42.6062 22.1266 42.617 22.1094C42.6184 22.1072 42.7103 21.9616 42.895 22.0024C42.9649 22.0179 43.0064 22.0554 43.0215 22.0707C43.0304 22.0797 43.0361 22.0871 43.0391 22.0912C43.0421 22.0954 43.0436 22.0979 43.0436 22.0979C43.0437 22.098 43.0428 22.0966 43.0412 22.0932C43.0396 22.0899 43.0374 22.0853 43.0348 22.0791C43.0294 22.0665 43.0228 22.0495 43.0151 22.0273C42.948 21.8349 42.855 21.4305 42.718 20.7553L42.13 20.8746ZM41.3435 18.2391C41.4551 18.4536 41.5986 18.8557 41.7437 19.3466C41.8868 19.8307 42.0254 20.3805 42.1305 20.877L42.7175 20.7528C42.6093 20.2413 42.4668 19.6762 42.3191 19.1765C42.1734 18.6834 42.0164 18.2325 41.8759 17.9623L41.3435 18.2391ZM39.6233 16.7157C40.7571 17.3392 41.1055 17.7462 41.3395 18.2311L41.8799 17.9703C41.5711 17.3307 41.1052 16.8459 39.9125 16.1899L39.6233 16.7157ZM38.0369 17.1899L39.8399 16.744L39.6959 16.1616L37.8929 16.6075L38.0369 17.1899ZM34.9986 17.6252C35.6714 17.6252 37.0344 17.4258 38.0336 17.1907L37.8962 16.6067C36.9178 16.8369 35.6055 17.0252 34.9986 17.0252V17.6252ZM32.3036 17.2078C33.1128 17.4249 34.3232 17.6252 34.9986 17.6252V17.0252C34.3945 17.0252 33.2397 16.8378 32.4591 16.6283L32.3036 17.2078ZM30.4811 16.9171C30.5088 16.9098 30.5797 16.9019 30.7061 16.907C30.8257 16.9119 30.9742 16.9274 31.1443 16.953C31.4841 17.0042 31.8937 17.0935 32.3007 17.207L32.462 16.6291C32.0353 16.5101 31.6016 16.4151 31.2337 16.3597C31.05 16.332 30.8786 16.3136 30.7305 16.3075C30.5891 16.3018 30.4443 16.306 30.3265 16.3374L30.4811 16.9171ZM29.525 17.4238C29.6558 17.3191 29.83 17.2027 30.0068 17.1065C30.1884 17.0076 30.3499 16.9426 30.4591 16.9221L30.3486 16.3324C30.1476 16.3701 29.9213 16.4699 29.72 16.5795C29.514 16.6916 29.3101 16.8273 29.1501 16.9552L29.525 17.4238ZM28.6439 18.7617C28.7524 18.5087 28.9083 18.2239 29.0741 17.9728C29.2436 17.7162 29.4076 17.5191 29.5267 17.4223L29.1484 16.9567C28.9572 17.112 28.7529 17.3704 28.5735 17.6421C28.3903 17.9194 28.2166 18.2356 28.0924 18.5254L28.6439 18.7617ZM27.9661 21.1938C28.0992 20.3954 28.4037 19.2977 28.6419 18.7663L28.0944 18.5208C27.8286 19.1139 27.5127 20.2651 27.3743 21.0952L27.9661 21.1938ZM26.9958 22.3572C27.0078 22.3965 27.0362 22.4813 27.1057 22.5484C27.1469 22.5882 27.2144 22.6331 27.3071 22.6408C27.3994 22.6486 27.4731 22.6158 27.5196 22.5842C27.5986 22.5306 27.641 22.4534 27.6596 22.4175C27.684 22.3704 27.7051 22.3167 27.7239 22.2618C27.7975 22.0465 27.8783 21.682 27.9655 21.1977L27.375 21.0914C27.2877 21.5764 27.2134 21.9002 27.1561 22.0678C27.1422 22.1086 27.1321 22.1315 27.1268 22.1416C27.1158 22.1629 27.1302 22.1233 27.1829 22.0876C27.2162 22.065 27.2771 22.0362 27.3571 22.0429C27.4374 22.0496 27.4931 22.0884 27.5228 22.1171C27.5693 22.1621 27.5765 22.2045 27.5692 22.1808L26.9958 22.3572ZM26.64 20.7802C26.7751 21.4169 26.9321 22.1245 26.9931 22.3479L27.5719 22.19C27.5165 21.9869 27.3634 21.2987 27.227 20.6557L26.64 20.7802ZM26.4981 17.9902C26.4587 18.8579 26.5168 20.1031 26.6384 20.7717L27.2287 20.6643C27.1176 20.0533 27.0594 18.8557 27.0975 18.0174L26.4981 17.9902ZM27.1126 15.3464C26.7177 16.1153 26.5773 16.8012 26.4985 17.9838L27.0971 18.0237C27.1734 16.8799 27.3044 16.2862 27.6463 15.6205L27.1126 15.3464ZM28.5096 13.5026C28.0246 13.9673 27.4008 14.7698 27.1111 15.3493L27.6478 15.6176C27.9009 15.1113 28.4791 14.3628 28.9247 13.9358L28.5096 13.5026ZM29.906 12.4118C29.6057 12.5834 28.9854 13.0663 28.5144 13.498L28.9199 13.9403C29.3795 13.519 29.9612 13.0713 30.2037 12.9327L29.906 12.4118ZM29.5519 17.5978C29.2497 17.9 28.8442 18.5128 28.621 18.9794L29.1623 19.2383C29.3656 18.8131 29.7356 18.2627 29.9762 18.022L29.5519 17.5978ZM30.8691 17.0252C30.3514 17.0252 29.9095 17.2402 29.5519 17.5978L29.9762 18.022C30.239 17.7592 30.5339 17.6252 30.8691 17.6252V17.0252ZM32.3869 17.3147C31.9323 17.1494 31.2578 17.0252 30.8691 17.0252V17.6252C31.1784 17.6252 31.7835 17.7337 32.1819 17.8786L32.3869 17.3147ZM34.4484 17.7054C33.7255 17.6293 32.7772 17.4386 32.3754 17.3108L32.1935 17.8825C32.6447 18.0261 33.6351 18.2231 34.3856 18.3021L34.4484 17.7054ZM37.1642 17.5168C36.1236 17.7438 35.3992 17.7986 34.4463 17.7052L34.3877 18.3023C35.4123 18.4028 36.2002 18.3413 37.2921 18.103L37.1642 17.5168ZM39.4172 17.0667C38.9776 17.1267 37.9588 17.3229 37.1571 17.5184L37.2993 18.1014C38.0873 17.9092 39.0848 17.7176 39.4983 17.6612L39.4172 17.0667ZM40.956 17.7437C40.7416 17.4641 40.5579 17.2381 40.3056 17.1244C40.0482 17.0084 39.7638 17.0281 39.4246 17.0658L39.4909 17.6622C39.8496 17.6223 39.9723 17.6323 40.0591 17.6714C40.1508 17.7128 40.2483 17.8067 40.4798 18.1088L40.956 17.7437ZM41.8001 19.5655C41.618 18.9584 41.2373 18.1541 40.9655 17.7568L40.4703 18.0956C40.7026 18.4351 41.0586 19.1817 41.2254 19.7379L41.8001 19.5655ZM42.3723 22.5198C42.2359 21.5061 41.9814 20.1696 41.8001 19.5655L41.2254 19.7379C41.3932 20.2971 41.6427 21.5972 41.7777 22.5998L42.3723 22.5198ZM42.3915 25.8973C42.5509 24.7614 42.5498 23.9395 42.3727 22.5226L41.7773 22.597C41.9492 23.9718 41.9481 24.7397 41.7973 25.8139L42.3915 25.8973ZM41.4709 28.801C41.9114 27.9199 42.2507 26.8427 42.3911 25.8998L41.7977 25.8114C41.6667 26.691 41.3468 27.7076 40.9343 28.5326L41.4709 28.801ZM39.8395 31.2673C40.3612 30.6653 41.0922 29.5584 41.4709 28.801L40.9343 28.5326C40.5762 29.2487 39.8725 30.3131 39.3861 30.8743L39.8395 31.2673ZM37.7437 32.8739C38.4452 32.5437 39.2516 31.9162 39.8351 31.2723L39.3905 30.8694C38.8496 31.4663 38.105 32.0407 37.4882 32.331L37.7437 32.8739ZM34.9986 33.4065C35.6406 33.4065 36.1008 33.3875 36.5156 33.3092C36.9366 33.2298 37.2976 33.092 37.7477 32.8719L37.4842 32.3329C37.0618 32.5394 36.754 32.6536 36.4043 32.7196C36.0485 32.7868 35.6362 32.8065 34.9986 32.8065V33.4065ZM32.4541 32.9738C33.1639 33.287 33.8098 33.4065 34.9986 33.4065V32.8065C33.861 32.8065 33.3049 32.6934 32.6963 32.4249L32.4541 32.9738ZM30.437 31.3536C30.7382 31.6749 31.1071 32.0136 31.4629 32.3023C31.8144 32.5874 32.1707 32.838 32.4454 32.9698L32.705 32.4289C32.4951 32.3281 32.1825 32.1134 31.8409 31.8363C31.5036 31.5627 31.1551 31.2423 30.8747 30.9432L30.437 31.3536ZM28.6815 28.801C29.0625 29.5631 29.8538 30.7101 30.4336 31.3498L30.8782 30.9469C30.3335 30.3459 29.5738 29.2439 29.2181 28.5326L28.6815 28.801ZM27.7605 25.7008C27.9195 26.9129 28.1803 27.7986 28.6815 28.801L29.2181 28.5326C28.7499 27.5963 28.5067 26.7759 28.3554 25.6228L27.7605 25.7008ZM27.898 21.9278C27.6032 23.6568 27.5814 24.288 27.7604 25.6995L28.3556 25.624C28.1855 24.2825 28.2025 23.7117 28.4894 22.0286L27.898 21.9278ZM28.6147 18.9935C28.4073 19.4912 28.0732 20.7981 27.8972 21.9322L28.4901 22.0242C28.6631 20.9093 28.9882 19.6571 29.1686 19.2242L28.6147 18.9935ZM26.3002 23.0235C26.2161 23.0907 26.1693 23.1841 26.1429 23.2473C26.1127 23.3198 26.0896 23.402 26.0725 23.4863C26.038 23.6555 26.022 23.8603 26.0329 24.0684L26.6321 24.0368C26.6237 23.8766 26.6367 23.7227 26.6604 23.6059C26.6723 23.5473 26.6856 23.5047 26.6966 23.4784C26.7114 23.4429 26.7106 23.4635 26.675 23.492L26.3002 23.0235ZM27.2489 23.385C27.1349 23.2369 27.0009 23.1107 26.8654 23.0308C26.7984 22.9914 26.717 22.9547 26.6274 22.9413C26.5364 22.9277 26.4101 22.9356 26.3002 23.0235L26.675 23.492C26.6136 23.5411 26.5527 23.5369 26.5386 23.5347C26.526 23.5329 26.533 23.5314 26.5606 23.5477C26.6141 23.5792 26.6933 23.6469 26.7733 23.7508L27.2489 23.385ZM27.6406 25.1264C27.6602 24.3389 27.568 23.7776 27.2439 23.3788L26.7782 23.7571C26.9582 23.9786 27.0598 24.3479 27.0407 25.1114L27.6406 25.1264ZM27.0126 26.4148C27.1071 26.462 27.2226 26.4672 27.3269 26.413C27.4124 26.3685 27.4607 26.2992 27.4854 26.2568C27.5358 26.1702 27.5637 26.0619 27.5821 25.9647C27.6211 25.7584 27.6406 25.4655 27.6406 25.1189H27.0406C27.0406 25.4509 27.0214 25.7008 26.9926 25.8532C26.977 25.9354 26.9638 25.9603 26.9669 25.9549C26.968 25.9531 26.9911 25.9114 27.0501 25.8807C27.1279 25.8402 27.2155 25.8454 27.2809 25.8781L27.0126 26.4148ZM26.3856 25.4874C26.4685 25.6842 26.5676 25.8777 26.6641 26.0332C26.7122 26.1107 26.7626 26.1836 26.8131 26.2443C26.8566 26.2966 26.9247 26.3708 27.0126 26.4148L27.2809 25.8781C27.3106 25.893 27.3086 25.9018 27.2745 25.8608C27.2474 25.8282 27.213 25.7799 27.1739 25.7168C27.0959 25.5912 27.0108 25.4261 26.9386 25.2545L26.3856 25.4874ZM26.033 24.0693C26.0547 24.4603 26.2206 25.0954 26.3856 25.4874L26.9386 25.2545C26.7934 24.9098 26.6491 24.3429 26.632 24.036L26.033 24.0693ZM43.0272 23.2014C42.9421 23.3034 42.8695 23.4689 42.8155 23.6188C42.7569 23.7811 42.7037 23.9722 42.6714 24.1556L43.2623 24.2599C43.2881 24.1136 43.3318 23.9557 43.3799 23.8224C43.4039 23.756 43.4277 23.6989 43.4493 23.6546C43.46 23.6326 43.4693 23.6153 43.477 23.6026C43.485 23.5892 43.4889 23.5845 43.4881 23.5855L43.0272 23.2014ZM43.7989 22.9894C43.6503 22.9151 43.4912 22.9267 43.3663 22.9683C43.2389 23.0108 43.1212 23.0917 43.0299 23.1982L43.4854 23.5887C43.5104 23.5595 43.5381 23.5435 43.5561 23.5375C43.5766 23.5306 43.5629 23.5422 43.5306 23.5261L43.7989 22.9894ZM44.1393 23.9751C44.1393 23.7956 44.1237 23.6078 44.0885 23.4495C44.0711 23.3711 44.0464 23.2889 44.0102 23.2153C43.9776 23.1493 43.915 23.0474 43.7989 22.9894L43.5306 23.5261C43.4727 23.4971 43.461 23.4583 43.472 23.4807C43.4794 23.4956 43.4911 23.5273 43.5028 23.5797C43.5258 23.6832 43.5393 23.825 43.5393 23.9751H44.1393ZM43.7028 25.5392C43.9287 25.0667 44.1168 24.3885 44.1388 23.9917L43.5397 23.9584C43.523 24.2596 43.362 24.861 43.1615 25.2803L43.7028 25.5392ZM42.8505 26.5434C42.9408 26.5434 43.0118 26.5093 43.0536 26.4844C43.0986 26.4576 43.1373 26.4248 43.1688 26.3944C43.232 26.3335 43.2938 26.2552 43.3515 26.172C43.4683 26.0036 43.5929 25.7789 43.7048 25.5347L43.1594 25.2847C43.058 25.5059 42.9501 25.698 42.8584 25.8301C42.8119 25.8972 42.7756 25.9401 42.7521 25.9627C42.7403 25.9741 42.7386 25.9737 42.7467 25.9689C42.7516 25.966 42.7893 25.9434 42.8505 25.9434V26.5434ZM42.4563 25.4661C42.4253 25.6936 42.4175 25.9066 42.4391 26.0735C42.4495 26.154 42.4696 26.2474 42.5135 26.3295C42.5566 26.4104 42.6617 26.5434 42.8505 26.5434V25.9434C42.9812 25.9434 43.0377 26.0376 43.0427 26.047C43.0484 26.0576 43.0406 26.0468 43.0341 25.9964C43.0218 25.9016 43.0237 25.7463 43.0508 25.5472L42.4563 25.4661ZM42.5938 24.641C42.5508 24.9216 42.5048 25.2207 42.4594 25.4478L43.0477 25.5655C43.0964 25.3222 43.1445 25.0081 43.1869 24.732L42.5938 24.641ZM42.6714 24.1556C42.6478 24.2893 42.6214 24.4617 42.5938 24.641L43.1869 24.732C43.2148 24.5503 43.2401 24.3854 43.2623 24.2599L42.6714 24.1556ZM38.2661 32.6171C37.8816 32.9142 37.1708 33.2264 36.5913 33.3351L36.7018 33.9248C37.3631 33.8008 38.1645 33.4539 38.633 33.0918L38.2661 32.6171ZM39.0043 32.0537L38.2676 32.616L38.6316 33.0929L39.3683 32.5307L39.0043 32.0537ZM39.6396 33.655L39.4845 32.2591L38.8881 32.3254L39.0432 33.7212L39.6396 33.655ZM39.7067 35.3345C39.7274 35.293 39.7357 35.2542 39.7392 35.2359C39.7437 35.2131 39.7463 35.1906 39.7481 35.1709C39.7516 35.1313 39.753 35.086 39.7532 35.0387C39.7535 34.9432 39.7489 34.8203 39.7402 34.6801C39.7228 34.3988 39.6881 34.0336 39.639 33.65L39.0438 33.7263C39.0916 34.0988 39.1248 34.4508 39.1413 34.7172C39.1496 34.8509 39.1534 34.9594 39.1532 35.0366C39.153 35.0757 39.1519 35.1019 39.1505 35.1173C39.1498 35.1251 39.1494 35.1259 39.1502 35.1219C39.1506 35.1197 39.1517 35.1141 39.1541 35.1061C39.1562 35.0989 39.161 35.0842 39.17 35.0662L39.7067 35.3345ZM37.6394 37.0118C38.1643 36.623 38.6517 36.2526 39.0137 35.9664C39.1943 35.8236 39.3461 35.6999 39.4565 35.6044C39.5112 35.5571 39.5592 35.5137 39.5964 35.4769C39.6147 35.4587 39.6339 35.4387 39.651 35.4183C39.6621 35.4051 39.6954 35.3655 39.7169 35.3117L39.1598 35.0889C39.1699 35.0636 39.1811 35.0469 39.1844 35.0421C39.1868 35.0386 39.1886 35.0361 39.1897 35.0348C39.1908 35.0334 39.1914 35.0326 39.1914 35.0326C39.1915 35.0325 39.1911 35.0329 39.1903 35.0338C39.1895 35.0347 39.1884 35.036 39.1868 35.0376C39.1837 35.0409 39.1795 35.0453 39.174 35.0508C39.1509 35.0737 39.1146 35.1068 39.064 35.1506C38.9635 35.2375 38.8196 35.3549 38.6416 35.4957C38.2863 35.7766 37.8043 36.1429 37.2823 36.5296L37.6394 37.0118ZM35.4771 38.5822C35.563 38.5331 35.8568 38.3259 36.2362 38.0508C36.6255 37.7686 37.1263 37.3991 37.6415 37.0102L37.2801 36.5312C36.7679 36.9178 36.2702 37.2851 35.884 37.565C35.6908 37.7051 35.5262 37.8229 35.4018 37.9101C35.3396 37.9538 35.2882 37.9893 35.2488 38.0159C35.2291 38.0293 35.213 38.0399 35.2005 38.048C35.1943 38.052 35.1893 38.0552 35.1855 38.0575C35.1836 38.0587 35.1821 38.0596 35.181 38.0602C35.1805 38.0606 35.1801 38.0608 35.1798 38.061C35.1795 38.0611 35.1794 38.0612 35.1794 38.0612L35.4771 38.5822ZM33.1161 37.3623C33.653 37.7528 34.1363 38.0786 34.506 38.2984C34.6897 38.4076 34.8533 38.4955 34.9854 38.5517C35.0504 38.5794 35.1189 38.6042 35.1844 38.6178C35.2306 38.6274 35.3567 38.6509 35.4771 38.5822L35.1794 38.0612C35.2658 38.0118 35.3362 38.0365 35.3066 38.0304C35.2964 38.0283 35.2692 38.0204 35.2203 37.9996C35.1246 37.9589 34.9877 37.8868 34.8127 37.7827C34.4651 37.576 33.9984 37.262 33.469 36.877L33.1161 37.3623ZM32.032 36.5252C32.3663 36.7821 32.7401 37.0692 33.108 37.3562L33.4771 36.8831C33.1071 36.5945 32.7316 36.3061 32.3975 36.0494L32.032 36.5252ZM30.9 35.6356C31.0441 35.7666 31.4967 36.1139 32.032 36.5252L32.3975 36.0494C31.8451 35.6249 31.4236 35.3007 31.3036 35.1916L30.9 35.6356ZM30.5895 32.5198C30.4934 33.6924 30.4513 34.361 30.4853 34.7742C30.5029 34.9872 30.542 35.1592 30.6208 35.3076C30.7006 35.4579 30.8076 35.5581 30.9085 35.6431L31.295 35.1841C31.2118 35.114 31.1759 35.0736 31.1508 35.0264C31.1248 34.9773 31.0973 34.8949 31.0833 34.725C31.0543 34.3724 31.0898 33.7614 31.1875 32.5688L30.5895 32.5198ZM32.1084 32.8188L31.0227 32.2759L30.7544 32.8126L31.8401 33.3554L32.1084 32.8188ZM34.3479 33.4476C33.547 33.3731 32.7901 33.1688 32.1113 32.8202L31.8372 33.354C32.593 33.7421 33.4258 33.9644 34.2923 34.045L34.3479 33.4476ZM36.5877 33.3358C36.0358 33.4462 35.0172 33.5033 34.345 33.4473L34.2952 34.0452C35.0189 34.1055 36.0941 34.0464 36.7054 33.9241L36.5877 33.3358ZM29.0755 35.5779L28.5521 35.8687L28.8435 36.3932L29.3669 36.1024L29.0755 35.5779ZM29.827 35.2583C29.7627 35.2743 29.6504 35.3173 29.5316 35.3672C29.4047 35.4205 29.2485 35.4911 29.0871 35.5718L29.3554 36.1084C29.5042 36.034 29.6484 35.9689 29.7639 35.9204C29.8217 35.8961 29.8712 35.8765 29.9096 35.8622C29.9288 35.855 29.9443 35.8495 29.9561 35.8455C29.969 35.8412 29.9737 35.84 29.9725 35.8403L29.827 35.2583ZM34.7148 38.7032C32.9794 37.3846 31.8432 36.5349 31.1281 36.0144C30.771 35.7545 30.5162 35.5747 30.3433 35.4592C30.2573 35.4018 30.1874 35.3574 30.1332 35.3264C30.1065 35.3112 30.0783 35.2961 30.051 35.2841C30.0381 35.2784 29.9759 35.2493 29.8998 35.2493V35.8493C29.86 35.8493 29.8314 35.8407 29.8244 35.8386C29.8188 35.8368 29.8147 35.8353 29.8124 35.8344C29.81 35.8335 29.8086 35.8329 29.8084 35.8328C29.808 35.8327 29.8102 35.8336 29.8152 35.8363C29.8202 35.8388 29.8269 35.8425 29.8356 35.8474C29.8717 35.8681 29.9281 35.9034 30.01 35.9581C30.1727 36.0668 30.4196 36.2408 30.775 36.4995C31.4849 37.0162 32.617 37.8628 34.3519 39.181L34.7148 38.7032ZM31.7972 42.0637L34.7441 39.1556L34.3226 38.7285L31.3757 41.6366L31.7972 42.0637ZM30.8713 41.4606L31.356 42.0422L31.8169 41.6581L31.3323 41.0765L30.8713 41.4606ZM29.8835 39.8517C30.16 40.4047 30.5977 41.1239 30.869 41.4577L31.3346 41.0794C31.1018 40.7928 30.6865 40.1161 30.4201 39.5834L29.8835 39.8517ZM28.4165 36.2354C29.1741 38.2749 29.6237 39.3122 29.8815 39.8477L30.4221 39.5874C30.1759 39.076 29.7337 38.0583 28.979 36.0265L28.4165 36.2354ZM37.783 36.9199C37.2069 37.3593 36.6837 37.7846 36.3008 38.1135C36.1098 38.2776 35.9512 38.4198 35.8377 38.5288C35.7815 38.5829 35.7326 38.6323 35.6954 38.6741C35.6771 38.6947 35.6576 38.718 35.6405 38.7421C35.6321 38.754 35.5918 38.8087 35.5769 38.8832L36.1652 39.0009C36.1576 39.0393 36.1438 39.0654 36.1399 39.0726C36.1345 39.0828 36.1303 39.0887 36.1299 39.0892C36.1291 39.0903 36.1327 39.0853 36.144 39.0726C36.1659 39.048 36.2018 39.0111 36.2534 38.9615C36.3556 38.8634 36.5048 38.7293 36.6918 38.5686C37.065 38.2481 37.5791 37.83 38.1468 37.397L37.783 36.9199ZM40.1023 35.2776C40.0537 35.2898 40.0125 35.3136 40.0046 35.3179C39.9858 35.3284 39.9652 35.3409 39.9447 35.3538C39.9032 35.38 39.8501 35.4155 39.7882 35.4579C39.6638 35.5432 39.4949 35.663 39.2944 35.8076C38.8927 36.0973 38.3582 36.4909 37.7856 36.918L38.1442 37.3989C38.7155 36.9729 39.2472 36.5814 39.6453 36.2943C39.8446 36.1505 40.009 36.034 40.1275 35.9527C40.1871 35.9119 40.2329 35.8814 40.2647 35.8613C40.2809 35.8511 40.2907 35.8454 40.2954 35.8428C40.311 35.8341 40.2867 35.85 40.2478 35.8597L40.1023 35.2776ZM41.0395 35.5687C40.8742 35.4909 40.7062 35.4143 40.5649 35.3594C40.4946 35.332 40.4242 35.3074 40.3601 35.2907C40.3102 35.2778 40.2136 35.255 40.1162 35.2745L40.2339 35.8629C40.185 35.8726 40.1635 35.8596 40.2094 35.8715C40.241 35.8797 40.2868 35.895 40.3474 35.9186C40.4679 35.9654 40.6198 36.0343 40.784 36.1116L41.0395 35.5687ZM41.7934 36.1891C41.7934 36.1048 41.7592 36.0447 41.7447 36.0215C41.7271 35.9934 41.7083 35.9726 41.6962 35.9602C41.6716 35.9349 41.6449 35.9139 41.6246 35.8989C41.5819 35.8673 41.5279 35.8333 41.4715 35.7999C41.3566 35.732 41.2044 35.651 41.0459 35.5718L40.7776 36.1084C40.9293 36.1843 41.068 36.2584 41.1663 36.3165C41.2165 36.3462 41.2498 36.3679 41.2677 36.3812C41.2777 36.3885 41.2746 36.3872 41.266 36.3785C41.262 36.3743 41.2493 36.3609 41.2358 36.3394C41.2255 36.3229 41.1934 36.2685 41.1934 36.1891H41.7934ZM41.2239 37.7412C41.379 37.338 41.5166 36.9806 41.6153 36.7219C41.6647 36.5927 41.7046 36.4874 41.7323 36.413C41.7461 36.3761 41.7573 36.3455 41.7653 36.3231C41.7691 36.3122 41.773 36.3011 41.7761 36.2914C41.7776 36.2869 41.7798 36.2797 41.782 36.2717C41.7831 36.2679 41.7849 36.2608 41.7868 36.2521C41.7873 36.2494 41.7934 36.2228 41.7934 36.1891H41.1934C41.1934 36.1558 41.1993 36.1301 41.1996 36.1285C41.2013 36.1209 41.2028 36.1152 41.2034 36.1131C41.2046 36.1084 41.2055 36.1058 41.2052 36.1069C41.2046 36.1085 41.203 36.1133 41.1998 36.1225C41.1934 36.1404 41.1836 36.1673 41.1701 36.2035C41.1432 36.2755 41.104 36.379 41.0548 36.508C40.9564 36.7657 40.8192 37.1222 40.6639 37.5257L41.2239 37.7412ZM41.0561 38.1773C41.1136 38.0278 41.1698 37.8817 41.2239 37.7412L40.6639 37.5257C40.6098 37.6662 40.5536 37.8124 40.4961 37.962L41.0561 38.1773ZM38.9328 42.1315C39.9903 40.5256 40.6395 39.209 41.0542 38.182L40.4979 37.9573C40.0984 38.9466 39.4679 40.2279 38.4317 41.8015L38.9328 42.1315ZM37.0548 40.7634L38.4701 42.1786L38.8944 41.7544L37.4791 40.3391L37.0548 40.7634ZM35.5711 38.9421C35.5711 39.0066 35.5902 39.0585 35.5997 39.0822C35.6114 39.1116 35.6257 39.1389 35.6389 39.1619C35.6654 39.2082 35.7002 39.2591 35.7383 39.3111C35.8154 39.4161 35.9231 39.5478 36.0515 39.6959C36.3092 39.9933 36.6633 40.3718 37.0548 40.7634L37.4791 40.3391C37.0952 39.9552 36.7513 39.5872 36.5049 39.303C36.3812 39.1603 36.2854 39.0424 36.2219 38.956C36.1898 38.9122 36.17 38.8819 36.1596 38.8637C36.1543 38.8545 36.1545 38.8536 36.1568 38.8594C36.1568 38.8594 36.1711 38.8921 36.1711 38.9421H35.5711ZM27.0122 36.6555C26.8899 36.7778 26.6896 37.0563 26.4744 37.3839C26.2524 37.7218 25.9966 38.1399 25.7604 38.5632L26.2843 38.8556C26.5133 38.4453 26.7616 38.0395 26.9758 37.7133C27.1968 37.3769 27.3649 37.1513 27.4365 37.0798L27.0122 36.6555ZM27.8059 36.2187C27.7195 36.2187 27.6386 36.2484 27.5893 36.2688C27.5304 36.2932 27.4678 36.3257 27.4061 36.3622C27.2828 36.435 27.145 36.5343 27.0225 36.6457L27.4261 37.0896C27.5169 37.0071 27.6214 36.9319 27.7114 36.8787C27.7564 36.8521 27.7931 36.8338 27.819 36.8231C27.8546 36.8083 27.8439 36.8187 27.8059 36.8187V36.2187ZM29.0135 38.09C28.8161 37.6164 28.6078 37.1843 28.4317 36.8673C28.3443 36.7099 28.2611 36.5742 28.1881 36.4744C28.1524 36.4255 28.1127 36.3762 28.0706 36.336C28.0497 36.316 28.0211 36.2914 27.9857 36.2701C27.9539 36.2511 27.8904 36.2187 27.8059 36.2187V36.8187C27.736 36.8187 27.6895 36.7922 27.677 36.7846C27.6608 36.7749 27.6536 36.7674 27.6562 36.7699C27.6613 36.7747 27.677 36.7918 27.7036 36.8283C27.7555 36.8994 27.825 37.0108 27.9072 37.1587C28.0704 37.4524 28.2692 37.8637 28.4596 38.3207L29.0135 38.09ZM30.4631 40.9136C30.0668 40.291 29.4149 39.0266 29.0123 38.0872L28.4608 38.3235C28.8724 39.2841 29.5388 40.5788 29.9569 41.2357L30.4631 40.9136ZM31.4605 42.2532C31.4428 42.2394 31.3967 42.1945 31.3211 42.1063C31.25 42.0234 31.1644 41.9159 31.0698 41.7906C30.8809 41.5403 30.6625 41.2269 30.4631 40.9136L29.9569 41.2357C30.1646 41.5622 30.3921 41.8887 30.5909 42.1521C30.6902 42.2837 30.7839 42.4016 30.8655 42.4968C30.9426 42.5867 31.0225 42.6726 31.0921 42.7268L31.4605 42.2532ZM32.2018 41.7807C31.853 42.0896 31.6766 42.2228 31.5667 42.2704C31.5443 42.2801 31.5312 42.2831 31.5252 42.284C31.5223 42.2845 31.5207 42.2845 31.5203 42.2845C31.5198 42.2845 31.5196 42.2845 31.5193 42.2844C31.5187 42.2843 31.5008 42.2817 31.4506 42.2458L31.1019 42.7341C31.1874 42.7952 31.2931 42.8555 31.4229 42.8766C31.558 42.8986 31.6851 42.8729 31.805 42.821C32.0198 42.728 32.2699 42.5219 32.5996 42.2298L32.2018 41.7807ZM32.2021 41.7803L32.197 41.7851L32.6045 42.2255L32.6096 42.2207L32.2021 41.7803ZM33.7264 41.4763C33.6616 41.3898 33.58 41.2799 33.4849 41.2077C33.4304 41.1663 33.3606 41.128 33.2741 41.1122C33.1867 41.0962 33.1047 41.1073 33.0324 41.1312C32.9036 41.1736 32.7811 41.2657 32.6665 41.3615C32.5446 41.4634 32.3923 41.6044 32.2022 41.7803L32.6096 42.2208C32.8046 42.0403 32.9438 41.9118 33.0513 41.8219C33.1045 41.7774 33.1446 41.747 33.1755 41.7265C33.2072 41.7055 33.2205 41.7009 33.2202 41.701C33.2166 41.7022 33.1958 41.7078 33.1662 41.7024C33.1375 41.6971 33.1219 41.6854 33.1221 41.6856C33.1365 41.6965 33.1662 41.7293 33.2464 41.8363L33.7264 41.4763ZM33.9594 43.1402C34.0374 42.3603 33.9943 41.8512 33.7305 41.4819L33.2423 41.8307C33.3663 42.0043 33.4395 42.3094 33.3624 43.0805L33.9594 43.1402ZM33.6503 48.2636C33.7668 46.0301 33.9022 43.7128 33.9594 43.1402L33.3624 43.0805C33.3033 43.6711 33.1672 46.0068 33.0511 48.2324L33.6503 48.2636ZM33.6235 48.7822L33.6503 48.2635L33.0511 48.2325L33.0243 48.7513L33.6235 48.7822ZM33.1656 57.5697C33.3629 53.8214 33.5104 50.969 33.6235 48.7822L33.0243 48.7513C32.9112 50.9379 32.7637 53.7902 32.5664 57.5381L33.1656 57.5697ZM30.4488 53.6228L32.6008 57.6941L33.1313 57.4137L30.9793 53.3424L30.4488 53.6228ZM25.5231 44.2174C27.6564 48.3482 29.2661 51.3931 30.449 53.6231L30.9791 53.342C29.7967 51.113 28.1881 48.0702 26.0562 43.9421L25.5231 44.2174ZM26.2898 43.5334L25.6694 43.8049L25.9099 44.3546L26.5303 44.0831L26.2898 43.5334ZM27.2476 42.9945C27.0663 43.1428 26.6309 43.3818 26.2882 43.5342L26.5319 44.0824C26.8871 43.9246 27.3823 43.6595 27.6276 43.4589L27.2476 42.9945ZM26.3211 41.9332C26.6372 42.2298 26.8705 42.4502 27.0393 42.6202C27.213 42.795 27.298 42.897 27.3354 42.9593C27.3659 43.0101 27.327 42.9675 27.3574 42.904C27.3641 42.8902 27.3675 42.8915 27.3473 42.9111C27.3272 42.9305 27.2983 42.9544 27.2517 42.9912L27.6235 43.4621C27.669 43.4262 27.72 43.3853 27.7644 43.3424C27.8088 43.2995 27.8612 43.2409 27.8982 43.164C27.9893 42.9746 27.9358 42.7938 27.8499 42.6507C27.771 42.5191 27.638 42.3715 27.4651 42.1974C27.2873 42.0184 27.0457 41.7904 26.7317 41.4957L26.3211 41.9332ZM24.917 40.4301C24.9304 40.4836 24.9558 40.5242 24.9635 40.5366C24.9759 40.5564 24.9896 40.5753 25.0021 40.5918C25.0275 40.6251 25.0598 40.6636 25.0961 40.7048C25.1692 40.788 25.27 40.8955 25.3902 41.0194C25.6313 41.268 25.9592 41.5909 26.3202 41.9324L26.7325 41.4965C26.3762 41.1595 26.0546 40.8426 25.8208 40.6016C25.7035 40.4808 25.6104 40.3811 25.5466 40.3086C25.5144 40.2719 25.4925 40.2455 25.4796 40.2284C25.4729 40.2197 25.4715 40.2171 25.4728 40.2193C25.4735 40.2204 25.4766 40.2255 25.4806 40.2336C25.4838 40.24 25.4925 40.2583 25.4991 40.2846L24.917 40.4301ZM25.7592 38.5653C25.5349 38.9749 25.3293 39.3664 25.1792 39.6691C25.1043 39.82 25.0419 39.9517 24.9975 40.0538C24.9754 40.1045 24.9562 40.1517 24.9418 40.1923C24.9347 40.2125 24.9275 40.2347 24.9217 40.2571C24.9172 40.2747 24.908 40.3127 24.908 40.3574H25.508C25.508 40.3763 25.506 40.3902 25.505 40.3957C25.504 40.4022 25.503 40.4061 25.5028 40.4065C25.5027 40.4071 25.5038 40.4028 25.5076 40.3919C25.5152 40.3705 25.5282 40.3379 25.5477 40.2931C25.5863 40.2044 25.6437 40.0828 25.7167 39.9357C25.8622 39.6422 26.0638 39.2582 26.2854 38.8535L25.7592 38.5653ZM41.1373 38.2103C40.7537 39.1694 40.1022 40.5088 39.6884 41.1671L40.1964 41.4864C40.6357 40.7875 41.3025 39.4127 41.6944 38.4331L41.1373 38.2103ZM42.3464 36.2187C42.2561 36.2187 42.1895 36.2559 42.1583 36.276C42.1228 36.299 42.0944 36.3253 42.074 36.3463C42.0327 36.3887 41.9937 36.4408 41.9584 36.4927C41.8863 36.5987 41.8037 36.7433 41.7166 36.9113C41.5412 37.2496 41.3334 37.7102 41.1366 38.2122L41.6951 38.4312C41.886 37.9444 42.0854 37.5035 42.2492 37.1875C42.3318 37.0284 42.4018 36.9076 42.4546 36.83C42.4817 36.7901 42.4981 36.7708 42.5039 36.7648C42.507 36.7616 42.5001 36.7695 42.4838 36.7801C42.4718 36.7878 42.4222 36.8187 42.3464 36.8187V36.2187ZM43.2953 36.83C43.1392 36.674 42.9714 36.5319 42.8229 36.4266C42.749 36.3742 42.6749 36.3273 42.6058 36.2922C42.5497 36.2637 42.4522 36.2187 42.3464 36.2187V36.8187C42.2988 36.8187 42.2861 36.8027 42.3337 36.8269C42.3682 36.8445 42.4164 36.8739 42.4758 36.9161C42.5939 36.9998 42.7362 37.1195 42.871 37.2543L43.2953 36.83ZM45.3405 40.0728C44.1802 38.0423 43.6036 37.1813 43.3089 36.8446L42.8574 37.2397C43.1055 37.5233 43.6534 38.3297 44.8196 40.3705L45.3405 40.0728ZM43.9932 41.7327L45.2922 40.4338L44.8679 40.0095L43.569 41.3085L43.9932 41.7327ZM42.7628 42.9746C42.7628 43.0318 42.7446 43.0698 42.7445 43.0701C42.7412 43.0776 42.74 43.0786 42.7447 43.071C42.7537 43.0563 42.7717 43.0304 42.8019 42.9917C42.8612 42.9155 42.9512 42.8104 43.0678 42.6819C43.3001 42.4259 43.6251 42.0912 43.9904 41.7355L43.5718 41.3056C43.2004 41.6673 42.8662 42.0112 42.6235 42.2787C42.5026 42.4118 42.4012 42.5297 42.3284 42.6231C42.2925 42.6692 42.2594 42.7148 42.2337 42.7565C42.221 42.7771 42.2066 42.8025 42.1945 42.8303C42.1854 42.851 42.1628 42.9054 42.1628 42.9746H42.7628ZM43.4818 43.3333C43.2456 43.201 43.037 43.0709 42.8905 42.9673C42.8162 42.9147 42.7646 42.8736 42.7345 42.8458C42.7188 42.8313 42.7164 42.8272 42.7202 42.8322C42.7222 42.8349 42.7304 42.8459 42.7389 42.8641C42.7465 42.8804 42.7628 42.9198 42.7628 42.9746H42.1628C42.1628 43.0896 42.2243 43.1711 42.2405 43.1926C42.2674 43.2285 42.2991 43.2604 42.3273 43.2864C42.3851 43.3398 42.4607 43.3981 42.5439 43.457C42.7125 43.5763 42.9401 43.7176 43.1886 43.8568L43.4818 43.3333ZM44.5076 44.2736C44.5076 44.1741 44.4633 44.0987 44.4437 44.0676C44.4182 44.0273 44.3874 43.9908 44.3585 43.9599C44.3 43.8973 44.2232 43.8303 44.1383 43.7637C43.9668 43.6292 43.7355 43.4754 43.4818 43.3333L43.1886 43.8568C43.4196 43.9861 43.6244 44.1231 43.768 44.2358C43.8406 44.2927 43.8911 44.3385 43.9204 44.3698C43.9354 44.3859 43.9387 44.3916 43.9363 44.3879C43.935 44.3858 43.9292 44.3765 43.9233 44.361C43.9177 44.3466 43.9076 44.3157 43.9076 44.2736H44.5076ZM41.1586 50.9648C42.07 49.2098 42.8993 47.5997 43.501 46.4134C43.8017 45.8205 44.0461 45.3323 44.2156 44.9845C44.3002 44.8109 44.3671 44.6703 44.4132 44.5683C44.4361 44.5178 44.4553 44.4736 44.4693 44.4384C44.4761 44.4211 44.4833 44.4021 44.4892 44.3836C44.4909 44.3782 44.5076 44.33 44.5076 44.2736H43.9076C43.9076 44.2419 43.9131 44.2187 43.914 44.2145C43.9158 44.2067 43.9173 44.2019 43.9174 44.2018C43.9175 44.2013 43.9161 44.2058 43.9115 44.2172C43.9028 44.2393 43.8881 44.2734 43.8666 44.3209C43.824 44.415 43.76 44.5496 43.6762 44.7217C43.5088 45.0651 43.2661 45.5499 42.9658 46.1421C42.3655 47.3259 41.5372 48.9341 40.6261 50.6882L41.1586 50.9648ZM37.6148 57.5722C37.6393 57.5476 37.6575 57.521 37.6631 57.5128C37.6727 57.4989 37.6827 57.4833 37.6925 57.4675C37.7124 57.4356 37.737 57.394 37.7655 57.3445C37.8229 57.2452 37.9005 57.1063 37.9955 56.9335C38.1857 56.5875 38.4487 56.0997 38.7651 55.5068C39.3982 54.3207 40.2468 52.7107 41.1583 50.9654L40.6265 50.6876C39.7155 52.432 38.8678 54.0403 38.2358 55.2243C37.9198 55.8164 37.6581 56.3017 37.4697 56.6445C37.3753 56.8161 37.3001 56.9507 37.2458 57.0447C37.2186 57.0919 37.1978 57.1269 37.1831 57.1505C37.1756 57.1625 37.1711 57.1694 37.1689 57.1725C37.1629 57.1814 37.172 57.1664 37.1905 57.1479L37.6148 57.5722ZM36.9282 56.1968C36.9282 56.6066 36.9426 56.9441 36.9748 57.1698C36.9894 57.272 37.0127 57.3934 37.063 57.4855C37.0849 57.5258 37.1505 57.6332 37.289 57.6679C37.4508 57.7083 37.5678 57.6192 37.6148 57.5722L37.1905 57.1479C37.2085 57.13 37.2982 57.0517 37.4345 57.0858C37.5476 57.1141 37.5895 57.1979 37.5897 57.1982C37.5963 57.2104 37.5833 57.1863 37.5688 57.085C37.5429 56.9035 37.5282 56.6012 37.5282 56.1968H36.9282ZM36.6378 49.524C36.7931 52.4555 36.9282 55.47 36.9282 56.1968H37.5282C37.5282 55.4501 37.3918 52.4158 37.237 49.4923L36.6378 49.524ZM36.2511 43.1402C36.3084 43.713 36.4825 46.5928 36.6378 49.524L37.237 49.4923C37.0821 46.5686 36.9072 43.6709 36.8481 43.0805L36.2511 43.1402ZM36.4822 41.4789C36.1963 41.8688 36.1535 42.3596 36.2519 43.1476L36.8473 43.0731C36.7519 42.3101 36.8254 42.0254 36.966 41.8337L36.4822 41.4789ZM37.8566 41.667C37.7003 41.5202 37.5722 41.3997 37.4682 41.3129C37.3726 41.2331 37.2568 41.1456 37.1266 41.1115C37.0517 41.0918 36.9699 41.0889 36.8864 41.1127C36.8063 41.1356 36.7439 41.1776 36.6971 41.2183C36.6136 41.2908 36.5399 41.3963 36.4783 41.4843L36.9699 41.8283C37.0438 41.7228 37.0741 41.6855 37.0905 41.6713C37.0936 41.6686 37.08 41.6814 37.0511 41.6896C37.0187 41.6989 36.9904 41.696 36.9746 41.6919C36.9628 41.6888 36.9882 41.6938 37.0838 41.7735C37.1709 41.8463 37.2839 41.9522 37.4458 42.1043L37.8566 41.667ZM37.8601 41.6703L37.8566 41.667L37.4458 42.1043L37.4493 42.1076L37.8601 41.6703ZM38.721 42.2287C38.7217 42.2287 38.7129 42.2286 38.6923 42.2237C38.6725 42.219 38.6466 42.211 38.6146 42.1985C38.5504 42.1733 38.4724 42.1344 38.3858 42.0825C38.2123 41.9784 38.0234 41.8334 37.8668 41.6768L37.4426 42.1011C37.6349 42.2934 37.8629 42.4684 38.0771 42.597C38.1844 42.6613 38.293 42.7169 38.396 42.7572C38.4941 42.7956 38.6085 42.8287 38.721 42.8287V42.2287ZM39.6911 41.1628C39.4014 41.6071 39.1932 41.884 39.0264 42.0487C38.8637 42.2094 38.7753 42.2287 38.721 42.2287V42.8287C38.9963 42.8287 39.2278 42.693 39.448 42.4756C39.6641 42.2622 39.9018 41.9381 40.1937 41.4906L39.6911 41.1628ZM23.1405 38.0424C22.4176 38.3257 21.6653 38.648 21.0315 38.9441C20.4062 39.2363 19.8726 39.5136 19.6043 39.7068L19.9549 40.1937C20.1712 40.0379 20.6555 39.782 21.2855 39.4877C21.907 39.1973 22.6476 38.8799 23.3594 38.601L23.1405 38.0424ZM26.0595 37.084C26.006 37.0572 25.9582 37.0534 25.9424 37.0524C25.921 37.051 25.9033 37.0521 25.8931 37.0529C25.8724 37.0547 25.8546 37.0581 25.8439 37.0603C25.8212 37.065 25.7969 37.0716 25.7747 37.078C25.7288 37.0913 25.668 37.1109 25.5966 37.1351C25.4525 37.1838 25.2511 37.2557 25.0082 37.3443C24.5218 37.5219 23.8613 37.7696 23.1438 38.0411L23.3561 38.6023C24.0732 38.3309 24.731 38.0842 25.214 37.908C25.4558 37.8197 25.6518 37.7498 25.7889 37.7034C25.858 37.68 25.9087 37.6638 25.9415 37.6543C25.9588 37.6493 25.9656 37.6478 25.9655 37.6478C25.965 37.6479 25.963 37.6483 25.9599 37.6488C25.9571 37.6493 25.9514 37.6501 25.9436 37.6508C25.9368 37.6514 25.9221 37.6524 25.903 37.6511C25.8895 37.6502 25.8435 37.6468 25.7912 37.6206L26.0595 37.084ZM25.4724 38.987C25.6869 38.5872 25.8781 38.2148 26.0114 37.9382C26.0777 37.8008 26.1318 37.6827 26.1674 37.5952C26.1846 37.5531 26.2012 37.5091 26.2121 37.4701C26.2169 37.4531 26.2254 37.4203 26.2278 37.3822C26.2289 37.3644 26.2302 37.3253 26.2178 37.2787C26.2054 37.2321 26.1671 37.1378 26.0595 37.084L25.7912 37.6206C25.6861 37.5681 25.6495 37.4762 25.6381 37.4334C25.6267 37.3906 25.6282 37.3565 25.629 37.3449C25.6306 37.3192 25.6356 37.3038 25.6342 37.3087C25.6329 37.3137 25.6268 37.332 25.6118 37.3687C25.5833 37.4388 25.5356 37.5436 25.471 37.6776C25.3426 37.9439 25.1557 38.3082 24.9437 38.7033L25.4724 38.987ZM24.7326 40.3961C24.7326 40.4263 24.7276 40.4484 24.7265 40.4535C24.7247 40.4616 24.7231 40.4667 24.7229 40.4674C24.7224 40.4689 24.7234 40.4657 24.7273 40.4558C24.7349 40.4368 24.7477 40.4071 24.7665 40.3659C24.8038 40.2844 24.859 40.1704 24.9287 40.0311C25.0677 39.7531 25.2601 39.3825 25.4724 38.987L24.9437 38.7033C24.7294 39.1026 24.5342 39.4784 24.392 39.7627C24.3211 39.9045 24.2624 40.0256 24.221 40.1162C24.2004 40.161 24.1826 40.2016 24.1694 40.2349C24.163 40.2513 24.156 40.2698 24.1503 40.2883C24.1482 40.295 24.1326 40.3413 24.1326 40.3961H24.7326ZM27.0659 42.6634C26.1261 41.7429 25.5225 41.1393 25.1546 40.7594C24.9701 40.5689 24.8476 40.4374 24.7722 40.3515C24.734 40.308 24.7119 40.2807 24.7009 40.2657C24.6949 40.2577 24.6964 40.2589 24.7007 40.2665C24.7029 40.2704 24.7087 40.2811 24.7147 40.2968C24.7193 40.3089 24.7326 40.3457 24.7326 40.3961H24.1326C24.1326 40.4502 24.1469 40.4917 24.1536 40.5094C24.1618 40.5309 24.1709 40.5484 24.1775 40.5601C24.1907 40.5836 24.2056 40.6051 24.2182 40.6222C24.2442 40.6573 24.2792 40.6994 24.3213 40.7473C24.4065 40.8444 24.5372 40.9843 24.7235 41.1767C25.0972 41.5626 25.7053 42.1707 26.6461 43.092L27.0659 42.6634ZM26.154 43.5544L26.9876 43.1473L26.7243 42.6081L25.8907 43.0153L26.154 43.5544ZM25.3684 44.0402C25.3517 44.068 25.3466 44.063 25.4029 44.0179C25.4467 43.9828 25.5089 43.938 25.5869 43.8864C25.7422 43.7836 25.9464 43.6628 26.1611 43.5508L25.8835 43.0189C25.6523 43.1395 25.43 43.2707 25.2557 43.3861C25.1689 43.4435 25.0906 43.4993 25.0277 43.5496C24.9774 43.5899 24.8996 43.6552 24.8539 43.7315L25.3684 44.0402ZM28.8664 50.7838C27.8783 48.9046 26.9925 47.1765 26.3613 45.9045C26.0455 45.2681 25.7945 44.7479 25.6265 44.3808C25.5422 44.1966 25.4807 44.0548 25.4424 43.9576C25.423 43.9081 25.4121 43.8765 25.4072 43.8595C25.4045 43.8502 25.406 43.8533 25.4075 43.8641C25.4083 43.8695 25.4101 43.8841 25.4094 43.9043C25.4088 43.92 25.4061 43.9666 25.3794 44.02L24.8428 43.7517C24.8143 43.8087 24.8106 43.8604 24.8098 43.8828C24.8088 43.9095 24.8112 43.9322 24.8133 43.947C24.8174 43.9769 24.8246 44.0048 24.8308 44.0259C24.8434 44.0698 24.8623 44.1218 24.884 44.1771C24.9283 44.2897 24.9953 44.4433 25.081 44.6305C25.2529 45.0061 25.5071 45.5329 25.8239 46.1712C26.4577 47.4486 27.3458 49.1811 28.3353 51.063L28.8664 50.7838ZM32.4875 57.8059C32.4875 57.7591 32.4758 57.7224 32.4753 57.721C32.4722 57.7101 32.469 57.7015 32.4674 57.697C32.4638 57.6874 32.4602 57.6789 32.4578 57.6735C32.4527 57.6618 32.4464 57.6482 32.4398 57.6344C32.4263 57.606 32.407 57.5669 32.3829 57.5185C32.3343 57.4213 32.2632 57.2812 32.1721 57.1036C31.99 56.748 31.7267 56.2391 31.4018 55.6148C30.752 54.3661 29.8551 52.6546 28.8661 50.7833L28.3356 51.0636C29.3241 52.934 30.2204 54.6443 30.8696 55.8918C31.1942 56.5156 31.4568 57.0233 31.6382 57.3772C31.7289 57.5543 31.7989 57.6921 31.8461 57.7866C31.8698 57.834 31.887 57.8692 31.8981 57.8923C31.9038 57.9043 31.9067 57.9108 31.9078 57.9133C31.9085 57.915 31.9072 57.9121 31.9052 57.9068C31.9043 57.9044 31.9018 57.8974 31.899 57.888C31.899 57.8879 31.8875 57.8522 31.8875 57.8059H32.4875ZM21.1367 58.1447C25.4214 58.1447 28.1846 58.1399 29.8768 58.1326C30.7228 58.129 31.3018 58.1247 31.6696 58.1202C31.8532 58.1179 31.9855 58.1155 32.0726 58.113C32.1156 58.1118 32.1502 58.1105 32.1754 58.109C32.1869 58.1083 32.2019 58.1073 32.2165 58.1055C32.2219 58.1049 32.2383 58.1029 32.2576 58.0981C32.2649 58.0963 32.2906 58.0899 32.3206 58.075C32.3349 58.0679 32.3669 58.0508 32.3992 58.0186C32.4322 57.9857 32.4875 57.9137 32.4875 57.8059H31.8875C31.8875 57.6983 31.9427 57.6265 31.9755 57.5937C32.0077 57.5617 32.0394 57.5447 32.0535 57.5378C32.0828 57.5232 32.1076 57.5171 32.1137 57.5156C32.1305 57.5114 32.1432 57.51 32.1437 57.51C32.1483 57.5094 32.1484 57.5096 32.1397 57.5101C32.1243 57.511 32.0972 57.5121 32.0557 57.5133C31.9735 57.5156 31.845 57.5179 31.6621 57.5202C31.2968 57.5247 30.7198 57.529 29.8743 57.5326C28.1834 57.5399 25.4212 57.5447 21.1367 57.5447V58.1447ZM20.7786 53.9329L20.8367 57.8492L21.4367 57.8403L21.3785 53.924L20.7786 53.9329ZM20.7015 50.2414C20.6137 50.2151 20.5855 50.1536 20.5912 50.1641C20.5939 50.1691 20.6056 50.195 20.6204 50.2573C20.6495 50.3798 20.6766 50.5808 20.6994 50.8875C20.7446 51.4966 20.7689 52.4664 20.7786 53.9305L21.3785 53.9265C21.3688 52.4631 21.3446 51.4748 21.2977 50.8431C21.2745 50.5294 21.2447 50.2893 21.2041 50.1186C21.1841 50.0343 21.1577 49.9505 21.119 49.8788C21.0833 49.8127 21.0102 49.7076 20.8739 49.6667L20.7015 50.2414ZM20.8551 52.0867C20.8551 51.2512 20.8699 50.7243 20.9042 50.4135C20.9219 50.2523 20.9421 50.1804 20.9522 50.1577C20.9569 50.147 20.9465 50.1779 20.9043 50.2086C20.849 50.2489 20.78 50.2597 20.7227 50.2469L20.8528 49.6612C20.7518 49.6388 20.6428 49.6568 20.551 49.7237C20.4723 49.7811 20.4286 49.8581 20.4034 49.9152C20.3534 50.0282 20.3264 50.1793 20.3078 50.3477C20.2694 50.6961 20.2551 51.2548 20.2551 52.0867H20.8551ZM20.5632 57.8698C20.7964 55.0909 20.8551 53.2793 20.8551 52.0867H20.2551C20.2551 53.2593 20.1974 55.0538 19.9653 57.8196L20.5632 57.8698ZM14.7389 58.1447H20.2643V57.5447H14.7389V58.1447ZM14.537 56.7134L14.44 57.8185L15.0377 57.8709L15.1347 56.7659L14.537 56.7134ZM14.5894 56.161C14.5658 56.4093 14.5478 56.5974 14.5371 56.7116L15.1345 56.7676C15.1452 56.6539 15.163 56.4663 15.1867 56.2179L14.5894 56.161ZM15.1186 50.4509C14.913 52.7605 14.6944 55.0574 14.5894 56.161L15.1867 56.2179C15.2917 55.1143 15.5104 52.8158 15.7163 50.5041L15.1186 50.4509ZM15.8722 44.4619C15.8218 44.6006 15.7683 44.877 15.7128 45.2227C15.6554 45.5808 15.5913 46.045 15.5245 46.5824C15.3907 47.6576 15.2449 49.0328 15.1186 50.4509L15.7163 50.5041C15.842 49.0917 15.9871 47.7236 16.1199 46.6565C16.1863 46.1227 16.2494 45.6661 16.3053 45.3177C16.3631 44.957 16.409 44.7414 16.4361 44.6669L15.8722 44.4619ZM16.5091 42.9706C16.3061 43.3563 16.0293 44.0299 15.8722 44.4619L16.4361 44.6669C16.5892 44.2458 16.8553 43.6011 17.04 43.2501L16.5091 42.9706ZM17.7952 41.278C17.3038 41.8088 16.721 42.568 16.5091 42.9706L17.04 43.2501C17.2159 42.916 17.7576 42.2018 18.2355 41.6856L17.7952 41.278ZM19.6109 39.7021C19.1042 40.0467 18.2935 40.7597 17.7991 41.2739L18.2316 41.6897C18.7065 41.1958 19.4856 40.5129 19.9483 40.1983L19.6109 39.7021ZM43.9587 37.5834C43.9719 37.6099 44.0141 37.6891 44.0723 37.7987L44.6021 37.5169C44.5405 37.4011 44.5041 37.3327 44.4953 37.3151L43.9587 37.5834ZM44.2852 36.9942C44.2305 36.9942 44.1589 37.0042 44.0884 37.0447C44.0126 37.0882 43.9586 37.1556 43.9305 37.2328C43.8818 37.3667 43.9217 37.4939 43.9485 37.5607L44.5055 37.3378C44.5023 37.3298 44.5048 37.3333 44.5064 37.3463C44.508 37.3584 44.5107 37.3931 44.4944 37.4379C44.476 37.4885 44.439 37.5352 44.3875 37.5648C44.3412 37.5914 44.3011 37.5942 44.2852 37.5942V36.9942ZM46.779 37.9065C46.1576 37.6638 45.5746 37.4403 45.1392 37.2773C44.9216 37.1959 44.7397 37.1291 44.6078 37.0825C44.5422 37.0593 44.4869 37.0403 44.445 37.0269C44.4244 37.0203 44.4042 37.0141 44.3863 37.0093C44.3775 37.0069 44.3663 37.004 44.3543 37.0015C44.348 37.0002 44.3197 36.9942 44.2852 36.9942V37.5942C44.2666 37.5942 44.2525 37.5923 44.2469 37.5915C44.2401 37.5906 44.2351 37.5896 44.2329 37.5891C44.2285 37.5882 44.2268 37.5877 44.2295 37.5884C44.2345 37.5898 44.2448 37.5928 44.2618 37.5983C44.2953 37.609 44.3441 37.6256 44.4078 37.6482C44.5346 37.693 44.7126 37.7583 44.9288 37.8393C45.3609 38.001 45.9412 38.2234 46.5606 38.4654L46.779 37.9065ZM50.0757 39.3602C49.5116 39.0378 48.0393 38.3913 46.7775 37.906L46.5621 38.466C47.8207 38.95 49.2564 39.583 49.778 39.8811L50.0757 39.3602ZM52.0886 41.0097C51.543 40.4035 50.627 39.6868 50.0798 39.3625L49.7739 39.8787C50.2737 40.1749 51.1413 40.854 51.6426 41.4111L52.0886 41.0097ZM53.5151 42.7563C53.2683 42.3654 52.6334 41.5737 52.0814 41.002L51.6498 41.4188C52.1835 41.9715 52.7894 42.7308 53.0078 43.0767L53.5151 42.7563ZM54.3618 44.8618C54.2437 44.4877 54.0961 44.0645 53.9479 43.6867C53.8024 43.3155 53.6482 42.9669 53.5151 42.7563L53.0078 43.0767C53.1075 43.2344 53.2441 43.5353 53.3893 43.9057C53.532 44.2695 53.6752 44.6798 53.7897 45.0425L54.3618 44.8618ZM55.1697 51.4229C54.8797 47.8075 54.6456 45.8546 54.3642 44.8697L53.7873 45.0346C54.0488 45.9496 54.28 47.8354 54.5716 51.4709L55.1697 51.4229ZM55.7485 57.7973C55.5959 56.8436 55.3836 54.262 55.1698 51.4244L54.5715 51.4694C54.7842 54.2928 54.9984 56.907 55.156 57.8921L55.7485 57.7973ZM49.6361 58.1447H55.4523V57.5447H49.6361V58.1447ZM49.3361 53.8703V57.8447H49.9361V53.8703H49.3361ZM49.4429 50.2482C49.3974 50.2574 49.3447 50.2536 49.2951 50.2311C49.2495 50.2105 49.2237 50.1819 49.2128 50.1678C49.1957 50.1456 49.2016 50.1414 49.215 50.1924C49.2398 50.2867 49.2641 50.4633 49.2834 50.7611C49.3214 51.3484 49.3361 52.3276 49.3361 53.8703H49.9361C49.9361 52.3305 49.9216 51.3321 49.8821 50.7223C49.8626 50.4215 49.836 50.1946 49.7953 50.0399C49.776 49.9664 49.7456 49.8763 49.6882 49.8018C49.6572 49.7615 49.6102 49.7151 49.5425 49.6845C49.4707 49.652 49.3949 49.646 49.3252 49.6599L49.4429 50.2482ZM49.3544 57.8481C49.3932 54.4253 49.432 52.4724 49.4826 51.3685C49.508 50.8141 49.536 50.4859 49.5661 50.2962C49.5815 50.1993 49.5948 50.1568 49.6003 50.1436C49.609 50.1223 49.5836 50.2038 49.4789 50.2387L49.2892 49.6695C49.1409 49.7189 49.0748 49.844 49.0456 49.9147C49.0131 49.9934 48.9912 50.0911 48.9735 50.202C48.9376 50.4279 48.9087 50.7856 48.8832 51.3411C48.832 52.4571 48.7932 54.4204 48.7545 57.8413L49.3544 57.8481ZM43.5291 58.1447H49.0544V57.5447H43.5291V58.1447ZM37.7037 57.8059C37.7037 57.9136 37.7588 57.9854 37.7915 58.0181C37.8236 58.0503 37.8554 58.0674 37.8696 58.0746C37.8994 58.0895 37.9251 58.096 37.9323 58.0978C37.9516 58.1026 37.9679 58.1047 37.9733 58.1054C37.9876 58.1072 38.0023 58.1083 38.0132 58.109C38.037 58.1105 38.0689 58.1118 38.1066 58.113C38.1828 58.1155 38.2936 58.1179 38.4341 58.1201C38.7157 58.1247 39.122 58.1289 39.6228 58.1326C40.6245 58.1399 42.0066 58.1447 43.5291 58.1447V57.5447C42.0077 57.5447 40.6271 57.5399 39.6271 57.5326C39.127 57.529 38.7227 57.5247 38.4438 57.5202C38.3041 57.5179 38.1973 57.5156 38.1259 57.5133C38.0898 57.5122 38.0654 57.5111 38.0514 57.5102C38.0434 57.5097 38.0437 57.5095 38.0485 57.5101C38.0491 57.5102 38.0618 57.5117 38.0787 57.5159C38.0847 57.5174 38.1094 57.5236 38.1386 57.5382C38.1526 57.5452 38.1842 57.5622 38.2161 57.5942C38.2486 57.6268 38.3037 57.6985 38.3037 57.8059H37.7037ZM41.3251 50.7833C40.3363 52.6542 39.4345 54.3657 38.7823 55.6144C38.4562 56.2386 38.1921 56.748 38.0106 57.1041C37.9199 57.2819 37.8491 57.423 37.8012 57.5215C37.7776 57.5703 37.7581 57.6114 37.7445 57.6424C37.738 57.6572 37.7306 57.6746 37.7245 57.6914C37.7218 57.6989 37.7165 57.7141 37.7121 57.7326C37.71 57.7413 37.706 57.7595 37.7043 57.7827C37.7036 57.793 37.6969 57.8632 37.7353 57.9401L38.272 57.6718C38.3101 57.748 38.3034 57.8173 38.3027 57.8262C38.3011 57.8481 38.2974 57.8646 38.2959 57.8712C38.2925 57.8855 38.2889 57.895 38.2888 57.8954C38.2878 57.898 38.2887 57.8953 38.2936 57.8843C38.3026 57.8637 38.3181 57.8306 38.341 57.7836C38.3862 57.6904 38.4549 57.5536 38.5451 57.3766C38.7252 57.0233 38.9882 56.516 39.3141 55.8922C39.9656 54.6448 40.8668 52.9344 41.8556 51.0636L41.3251 50.7833ZM44.8117 44.02C44.785 43.9666 44.7823 43.92 44.7818 43.9043C44.7811 43.8841 44.7829 43.8695 44.7836 43.8641C44.7851 43.8533 44.7866 43.8502 44.7839 43.8595C44.779 43.8765 44.7682 43.9081 44.7487 43.9576C44.7105 44.0548 44.6489 44.1966 44.5646 44.3808C44.3966 44.7479 44.1456 45.2681 43.8298 45.9045C43.1987 47.1765 42.3128 48.9046 41.3248 50.7838L41.8559 51.063C42.8453 49.1811 43.7334 47.4486 44.3673 46.1712C44.684 45.5329 44.9383 45.0061 45.1102 44.6305C45.1958 44.4433 45.2628 44.2897 45.3071 44.1771C45.3289 44.1218 45.3477 44.0698 45.3604 44.0259C45.3665 44.0048 45.3737 43.9769 45.3779 43.947C45.38 43.9322 45.3823 43.9095 45.3814 43.8828C45.3806 43.8604 45.3769 43.8087 45.3484 43.7517L44.8117 44.02ZM44.0735 43.5726C44.2748 43.6732 44.467 43.7877 44.6138 43.8871C44.6874 43.9369 44.7463 43.9807 44.7878 44.0151C44.8402 44.0585 44.8376 44.0649 44.8228 44.0402L45.3373 43.7315C45.2934 43.6583 45.2205 43.5944 45.1706 43.553C45.1097 43.5026 45.0341 43.447 44.9501 43.3902C44.7819 43.2763 44.567 43.1485 44.3418 43.0359L44.0735 43.5726ZM43.1321 42.7808C43.1321 42.8899 43.1867 42.9677 43.2057 42.9938C43.2325 43.0304 43.2637 43.0618 43.2907 43.0866C43.3459 43.1371 43.4167 43.1896 43.4925 43.2406C43.6463 43.344 43.8519 43.4618 44.0735 43.5726L44.3418 43.0359C44.1368 42.9334 43.9546 42.8283 43.8273 42.7426C43.7626 42.6991 43.7195 42.6656 43.6959 42.644C43.6835 42.6327 43.6841 42.6315 43.6902 42.6398C43.6934 42.6442 43.702 42.6565 43.7105 42.6758C43.7186 42.694 43.7321 42.7309 43.7321 42.7808H43.1321ZM45.6167 40.2695C44.6949 41.0943 44.0999 41.6453 43.7318 42.0036C43.5482 42.1822 43.4176 42.3163 43.3301 42.4144C43.2867 42.463 43.2498 42.5072 43.2215 42.5465C43.2032 42.5717 43.1546 42.6385 43.1379 42.7219L43.7263 42.8396C43.7145 42.8988 43.6864 42.9274 43.7077 42.898C43.7189 42.8825 43.7405 42.8556 43.7777 42.8139C43.8513 42.7314 43.9703 42.6087 44.1503 42.4335C44.5092 42.0841 45.0968 41.5398 46.0168 40.7166L45.6167 40.2695ZM44.7945 39.1774L45.5506 40.6315L46.0829 40.3547L45.3268 38.9006L44.7945 39.1774ZM44.0723 37.7987C44.2231 38.082 44.5035 38.6093 44.7936 39.1758L45.3277 38.9022C45.0352 38.3312 44.7528 37.8003 44.6021 37.5169L44.0723 37.7987ZM34.1505 39.7744C33.9714 39.9833 33.8053 40.1944 33.6824 40.3685C33.6213 40.455 33.5676 40.537 33.5279 40.6077C33.5082 40.6428 33.4889 40.6802 33.4738 40.7174C33.462 40.7463 33.4385 40.808 33.4385 40.8808H34.0385C34.0385 40.9294 34.024 40.9572 34.0295 40.9436C34.0316 40.9384 34.0378 40.925 34.0508 40.9019C34.0765 40.8562 34.1173 40.7928 34.1726 40.7145C34.2823 40.5591 34.4362 40.363 34.606 40.1648L34.1505 39.7744ZM35.0007 38.9483C34.9374 38.9694 34.8886 39.0092 34.8765 39.0187C34.8528 39.0374 34.8279 39.0595 34.8038 39.0819C34.7551 39.1271 34.6956 39.1869 34.6299 39.2549C34.498 39.3919 34.3305 39.5742 34.1553 39.7689L34.6012 40.1703C34.7749 39.9773 34.9371 39.8009 35.062 39.6713C35.1248 39.6061 35.1755 39.5555 35.2122 39.5214C35.2309 39.5041 35.2425 39.4942 35.2482 39.4897C35.2656 39.476 35.2392 39.5012 35.1904 39.5175L35.0007 38.9483ZM36.8673 40.5807C36.3038 39.9687 35.9266 39.5765 35.6812 39.3361C35.5591 39.2164 35.4655 39.1304 35.3958 39.0725C35.3615 39.0441 35.3272 39.0176 35.2943 38.9966C35.2781 38.9862 35.2563 38.9734 35.231 38.9623C35.2113 38.9536 35.1611 38.9329 35.0956 38.9329V39.5329C35.0373 39.5329 34.9968 39.5147 34.9895 39.5115C34.9765 39.5058 34.9697 39.5012 34.9712 39.5022C34.9741 39.504 34.9868 39.5128 35.0128 39.5344C35.0637 39.5766 35.1434 39.6492 35.2612 39.7646C35.4957 39.9943 35.8648 40.3777 36.4259 40.9871L36.8673 40.5807ZM36.323 41.5702L36.8659 40.9886L36.4272 40.5792L35.8844 41.1608L36.323 41.5702ZM35.2714 42.3529C35.4377 42.3075 35.6317 42.1842 35.8013 42.0546C35.9806 41.9174 36.1695 41.7443 36.3287 41.564L35.8788 41.167C35.7471 41.3163 35.5871 41.463 35.4368 41.5779C35.2768 41.7003 35.1606 41.7612 35.1136 41.774L35.2714 42.3529ZM34.0498 41.8297C34.4173 42.1971 34.8241 42.4807 35.2749 42.3519L35.1101 41.775C35.018 41.8013 34.8433 41.7746 34.4741 41.4054L34.0498 41.8297ZM33.4385 40.8808C33.4385 40.9866 33.4835 41.0841 33.512 41.1401C33.5471 41.2093 33.594 41.2834 33.6464 41.3573C33.7517 41.5057 33.8938 41.6736 34.0498 41.8297L34.4741 41.4054C34.3393 41.2706 34.2196 41.1283 34.1359 41.0102C34.0937 40.9508 34.0643 40.9025 34.0467 40.8681C34.0225 40.8205 34.0385 40.8332 34.0385 40.8808H33.4385ZM33.9871 42.8784C33.9815 42.8503 33.9831 42.8328 33.9834 42.8657C33.9835 42.8845 33.9833 42.9126 33.9825 42.9506C33.9809 43.0261 33.9774 43.1334 33.9721 43.2699C33.9616 43.5425 33.9441 43.926 33.9211 44.3921C33.8751 45.3241 33.8073 46.5834 33.7298 47.9401L34.3288 47.9743C34.4064 46.6167 34.4743 45.3557 34.5204 44.4217C34.5434 43.9548 34.561 43.5688 34.5717 43.2931C34.577 43.1554 34.5807 43.0439 34.5823 42.963C34.5832 42.9228 34.5836 42.8883 34.5834 42.8611C34.5833 42.848 34.5835 42.8009 34.5755 42.7607L33.9871 42.8784ZM35.8369 42.3257C35.204 42.316 34.79 42.3348 34.5307 42.3753C34.4055 42.3949 34.2873 42.4235 34.1945 42.4741C34.1465 42.5003 34.0859 42.5428 34.0405 42.6116C33.9897 42.6883 33.9704 42.7792 33.9854 42.8689L34.5772 42.7702C34.5873 42.8308 34.5735 42.8933 34.5409 42.9425C34.5137 42.9837 34.484 42.9997 34.482 43.0007C34.4814 43.0011 34.5158 42.9849 34.6233 42.9681C34.8292 42.9359 35.2004 42.916 35.8277 42.9256L35.8369 42.3257ZM36.2477 44.0558L36.1313 42.6017L35.5332 42.6496L35.6496 44.1036L36.2477 44.0558ZM36.5584 49.5895C36.4422 47.3616 36.3063 44.8567 36.2478 44.0578L35.6494 44.1016C35.7073 44.8925 35.8428 47.3895 35.9592 49.6207L36.5584 49.5895ZM36.8495 57.8375C36.7719 54.5968 36.6555 51.8414 36.5585 49.5922L35.9591 49.618C36.056 51.8667 36.1722 54.6173 36.2497 57.8519L36.8495 57.8375ZM33.7385 58.1447H36.5496V57.5447H33.7385V58.1447ZM33.4385 55.3825V57.8447H34.0385V55.3825H33.4385ZM33.7298 47.9401C33.5746 50.6547 33.4385 53.9967 33.4385 55.3825H34.0385C34.0385 54.0153 34.1737 50.6881 34.3288 47.9743L33.7298 47.9401Z" fill="#595959"/>
</svg>
