<svg width="69" height="68" viewBox="0 0 69 68" fill="none" xmlns="http://www.w3.org/2000/svg">
<rect width="69" height="68" rx="15" fill="#FAF9F6"/>
<path fill-rule="evenodd" clip-rule="evenodd" d="M46.9714 17.0039C50.378 16.9826 51.5277 17.0465 51.7193 17.2594C51.911 17.4723 51.9748 18.7072 51.9323 22.0925C51.8897 26.1592 51.8471 26.6702 51.5064 26.8831C51.2509 27.0534 51.038 27.0534 50.7612 26.8831C50.4419 26.6702 50.3993 26.223 50.3354 23.4126C50.3141 21.6454 50.2289 20.1976 50.1225 20.1976C50.0373 20.1976 44.1822 25.9888 37.0922 33.0789C30.0021 40.1689 24.0618 45.9602 23.8915 45.9602C23.7212 45.9602 23.4444 45.8537 23.2953 45.7047C23.1463 45.5556 23.0398 45.2788 23.0398 45.1085C23.0398 44.9382 28.8311 38.9979 35.8998 31.9078C42.9899 24.8178 48.7385 18.9627 48.6747 18.8562C48.6321 18.7711 47.2269 18.7072 45.5448 18.7072C43.3944 18.7072 42.4363 18.6433 42.2447 18.4517C42.0956 18.3026 41.9679 18.0259 41.9466 17.8555C41.9253 17.6639 42.0318 17.4084 42.2021 17.2594C42.415 17.089 43.8202 17.0039 46.9714 17.0039ZM34.0262 17.0039C39.0084 17.0039 39.2213 17.0252 39.4342 17.4297C39.5762 17.7136 39.5762 17.9975 39.4342 18.2814C39.2213 18.6859 39.0084 18.7072 30.066 18.7072L30.0021 27.0321C29.9595 34.7183 29.9383 35.3996 29.5763 35.6125C29.3208 35.7829 29.1079 35.7829 28.8311 35.6125C28.4904 35.3996 28.4691 34.6544 28.384 26.4785C28.2988 19.4098 28.3414 17.5362 28.5543 17.302C28.7885 17.0677 29.917 17.0039 34.0262 17.0039ZM51.0806 29.3529C51.1232 29.3529 51.3361 29.4593 51.5703 29.5658C51.9748 29.7787 51.9961 29.9916 51.9961 34.9525C52.0174 38.8914 51.9535 40.1689 51.7406 40.3605C51.5277 40.5734 49.356 40.616 42.5428 40.5734C34.303 40.5309 33.6004 40.5096 33.3875 40.1476C33.2171 39.8921 33.2171 39.6792 33.3875 39.4024C33.6004 39.0617 34.2817 39.0405 50.2928 38.934L50.2502 34.3564C50.2289 30.0555 50.2502 29.7787 50.6335 29.5871C50.8464 29.4593 51.0593 29.3529 51.1019 29.3529H51.0806ZM21.5069 34.037C24.4877 34.0157 25.5309 34.0796 25.7439 34.2925C25.8929 34.4415 25.9781 34.8035 25.8929 35.6338L18.7603 35.7403V50.2184H33.2384L33.3449 43.0858L33.8772 43.0219C34.1752 43.0007 34.5372 43.0858 34.6862 43.2349C34.8991 43.4478 34.963 44.5123 34.963 47.4505C34.9417 50.2397 34.8779 51.4746 34.6862 51.645C34.4946 51.8579 32.4719 51.9217 25.9993 51.9217C19.4842 51.9217 17.5254 51.8579 17.3125 51.6662C17.1208 51.4533 17.0357 49.4306 17.0144 42.9581C16.9718 35.9745 17.0144 34.5054 17.2699 34.2925C17.4828 34.1221 18.7603 34.037 21.5069 34.037Z" fill="#595959" stroke="#595959" stroke-width="0.6"/>
</svg>
