<svg width="302" height="210" viewBox="0 0 302 210" fill="none" xmlns="http://www.w3.org/2000/svg">
<path d="M140.599 146.264C140.599 152.256 139.434 157.31 137.104 161.427C134.774 165.527 131.629 168.636 127.67 170.756C123.71 172.858 119.295 173.91 114.425 173.91C109.519 173.91 105.087 172.85 101.128 170.73C97.1857 168.592 94.0497 165.474 91.7197 161.374C89.4071 157.257 88.2508 152.221 88.2508 146.264C88.2508 140.272 89.4071 135.227 91.7197 131.127C94.0497 127.01 97.1857 123.9 101.128 121.798C105.087 119.678 109.519 118.618 114.425 118.618C119.295 118.618 123.71 119.678 127.67 121.798C131.629 123.9 134.774 127.01 137.104 131.127C139.434 135.227 140.599 140.272 140.599 146.264ZM125.567 146.264C125.567 143.04 125.138 140.325 124.28 138.117C123.439 135.892 122.186 134.211 120.522 133.072C118.875 131.916 116.843 131.337 114.425 131.337C112.007 131.337 109.966 131.916 108.302 133.072C106.655 134.211 105.402 135.892 104.544 138.117C103.703 140.325 103.282 143.04 103.282 146.264C103.282 149.488 103.703 152.212 104.544 154.437C105.402 156.644 106.655 158.326 108.302 159.482C109.966 160.621 112.007 161.191 114.425 161.191C116.843 161.191 118.875 160.621 120.522 159.482C122.186 158.326 123.439 156.644 124.28 154.437C125.138 152.212 125.567 149.488 125.567 146.264ZM147.359 173.174V119.354H185.201V131.127H161.97V140.377H182.889V152.151H161.97V173.174H147.359ZM190.575 173.174V119.354H228.417V131.127H205.186V140.377H226.105V152.151H205.186V173.174H190.575Z" fill="white"/>
<path d="M109.27 93.5406C105.516 93.5406 102.169 92.85 99.2293 91.4688C96.3075 90.0876 93.9878 88.184 92.2701 85.758C90.5524 83.332 89.6582 80.5519 89.5874 77.4176H100.743C100.867 79.5249 101.753 81.2337 103.399 82.544C105.046 83.8544 107.003 84.5096 109.27 84.5096C111.076 84.5096 112.67 84.1112 114.051 83.3143C115.45 82.4998 116.539 81.3753 117.318 79.941C118.115 78.489 118.513 76.8244 118.513 74.9474C118.513 73.035 118.106 71.3527 117.291 69.9007C116.494 68.4486 115.388 67.3153 113.971 66.5008C112.554 65.6862 110.934 65.2701 109.11 65.2524C107.517 65.2524 105.967 65.58 104.462 66.2352C102.974 66.8903 101.815 67.7846 100.982 68.9179L90.7561 67.0851L93.3326 38.3985H126.588V47.8013H102.815L101.407 61.4275H101.726C102.682 60.0817 104.125 58.9661 106.056 58.0807C107.986 57.1953 110.146 56.7526 112.537 56.7526C115.813 56.7526 118.734 57.5229 121.302 59.0635C123.87 60.6041 125.897 62.7202 127.385 65.4117C128.872 68.0856 129.607 71.1668 129.589 74.6552C129.607 78.3207 128.757 81.579 127.039 84.4299C125.339 87.2632 122.958 89.4944 119.894 91.1235C116.849 92.7349 113.307 93.5406 109.27 93.5406ZM167.387 82.5972V79.7285C167.387 77.5504 167.847 75.5495 168.768 73.7256C169.706 71.8839 171.061 70.4142 172.832 69.3163C174.62 68.2007 176.798 67.6429 179.366 67.6429C181.969 67.6429 184.156 68.1919 185.927 69.2898C187.715 70.3876 189.061 71.8574 189.964 73.699C190.885 75.5229 191.345 77.5327 191.345 79.7285V82.5972C191.345 84.7752 190.885 86.7851 189.964 88.6267C189.043 90.4506 187.689 91.9115 185.9 93.0094C184.112 94.125 181.934 94.6828 179.366 94.6828C176.763 94.6828 174.576 94.125 172.805 93.0094C171.034 91.9115 169.689 90.4506 168.768 88.6267C167.847 86.7851 167.387 84.7752 167.387 82.5972ZM175.116 79.7285V82.5972C175.116 83.8544 175.417 85.0409 176.019 86.1564C176.639 87.272 177.755 87.8298 179.366 87.8298C180.977 87.8298 182.075 87.2809 182.66 86.183C183.262 85.0851 183.563 83.8898 183.563 82.5972V79.7285C183.563 78.4358 183.279 77.2317 182.713 76.1161C182.146 75.0005 181.031 74.4427 179.366 74.4427C177.772 74.4427 176.666 75.0005 176.046 76.1161C175.426 77.2317 175.116 78.4358 175.116 79.7285ZM139.47 51.4668V48.5982C139.47 46.4024 139.94 44.3926 140.878 42.5687C141.817 40.727 143.171 39.2573 144.942 38.1594C146.73 37.0615 148.891 36.5126 151.423 36.5126C154.044 36.5126 156.24 37.0615 158.01 38.1594C159.781 39.2573 161.127 40.727 162.048 42.5687C162.969 44.3926 163.429 46.4024 163.429 48.5982V51.4668C163.429 53.6626 162.96 55.6724 162.021 57.4963C161.1 59.3203 159.746 60.7811 157.957 61.879C156.186 62.9592 154.008 63.4993 151.423 63.4993C148.838 63.4993 146.651 62.9504 144.862 61.8525C143.092 60.7369 141.746 59.276 140.825 57.4698C139.922 55.6459 139.47 53.6449 139.47 51.4668ZM147.253 48.5982V51.4668C147.253 52.7595 147.554 53.9548 148.156 55.0527C148.776 56.1506 149.865 56.6995 151.423 56.6995C153.052 56.6995 154.159 56.1506 154.743 55.0527C155.345 53.9548 155.646 52.7595 155.646 51.4668V48.5982C155.646 47.3055 155.363 46.1014 154.796 44.9858C154.23 43.8702 153.105 43.3124 151.423 43.3124C149.847 43.3124 148.758 43.879 148.156 45.0123C147.554 46.1456 147.253 47.3409 147.253 48.5982ZM142.976 92.7969L180.375 38.3985H187.334L149.936 92.7969H142.976Z" fill="white"/>
<path fill-rule="evenodd" clip-rule="evenodd" d="M124.751 0.625917C93.1122 1.39324 66.3723 3.16411 48.0145 5.64336C23.5176 9.00796 34.2608 14.9698 58.8757 12.7857C160.346 3.75439 261.166 7.70929 272.677 21.1678L274.684 23.4699C274.684 23.4699 273.208 116.794 273.208 127.95C273.208 144.419 272.854 155.576 271.673 163.426C267.541 190.58 248.652 186.211 240.742 186.625C175.339 189.694 144.054 185.444 39.8095 190.639C23.9899 191.406 15.3127 183.142 11.4759 158.763C6.87158 129.249 7.57998 75.7101 13.1877 36.5742C15.4307 20.6956 19.0315 13.9663 25.9968 12.5497C30.8372 11.6052 27.1774 8.29957 22.1009 9.06698C11.889 10.6607 7.57998 19.6921 4.62854 45.4285C0.673652 80.5505 -4.5209 143.829 7.22582 177.003C11.889 190.166 27.3545 199.021 44.0006 198.076C47.6603 197.84 50.6117 197.84 50.6117 198.017C50.6117 198.194 48.7228 200.496 46.4797 203.153C41.9346 208.406 41.8164 208.642 43.4693 209.528C45.4762 210.59 46.0665 210.236 53.0319 203.979L59.8792 197.84L80.8933 196.482L76.4072 201.323C71.7439 206.34 71.3897 206.989 72.5703 208.229C74.3412 210 76.23 208.937 83.5496 202.444L90.8101 195.951L105.803 195.184L102.38 199.198C97.4803 204.982 97.0081 205.809 97.8935 206.871C99.3692 208.642 101.022 207.757 107.338 201.677C114.599 194.652 114.244 194.771 125.165 194.771H132.838L128.943 199.021C124.574 203.861 122.686 206.812 123.571 207.639C125.46 209.41 126.463 208.878 133.901 201.795L141.279 194.771H148.422C157.276 194.771 157.099 194.475 152.141 200.26C146.769 206.458 146.592 206.871 148.245 207.993C150.488 209.528 151.137 209.114 158.162 202.149L164.95 195.361H184.429C183.603 196.305 179.707 200.024 176.815 203.861C173.804 207.226 175.457 211.476 181.714 206.222C183.072 205.101 184.783 203.507 187.086 201.382L194.228 194.771H202.846C211.051 194.771 211.464 194.83 210.638 195.833C202.61 205.396 201.252 207.757 203.377 208.583C205.207 209.292 205.916 208.878 208.985 205.278C210.697 203.271 213.589 199.965 215.419 197.958L218.843 194.357L228.701 193.944C240.506 193.413 240.034 193.118 235.725 198.489C229.822 205.809 229.291 206.871 231.357 207.403C232.242 207.639 234.308 205.868 239.857 200.201L247.236 192.705L251.84 192.055C273.326 188.986 279.347 180.191 281.236 149.142L281.649 142.648L289.795 134.798C301.306 123.7 304.021 119.804 300.656 118.978C298.413 118.388 296.76 119.509 288.969 127.006L281.885 133.794L282.771 109.415L290.267 101.86C296.524 95.4847 299.712 91.1755 299.712 88.8735C299.83 81.9671 289.146 93.0054 285.191 97.7277L282.83 100.62L283.361 78.8976L290.444 72.1094C299.771 63.1961 301.365 60.7168 298.354 59.9495C296.583 59.4773 294.694 60.7759 288.437 66.6197C285.899 68.9808 283.597 70.9288 283.361 70.9288C282.889 70.9288 282.121 62.0155 282.121 56.0536V52.689L289.264 45.7236C293.219 41.8868 297.469 37.2826 298.708 35.3937C298.708 35.3347 303.254 27.1297 295.462 32.2651C293.691 33.4457 291.33 35.5117 287.965 38.8173L282.357 44.307V37.1055C282.357 30.6714 282.121 29.4908 280.705 25.8311L279.111 21.7581C280.055 20.8726 276.809 24.2963 288.319 13.199C292.038 9.59824 288.614 7.8864 285.25 9.53916C283.479 10.4246 281.413 12.0774 279.111 14.4976L276.041 17.7442L272.972 14.8517C259.631 2.21966 218.843 -1.67622 124.751 0.625917ZM293.278 164.312C289.559 166.319 262.878 195.479 260.517 200.142C258.746 203.625 260.93 205.219 263.941 202.739C271.968 196.128 296.937 170.156 297.705 167.617C299.24 162.482 294.694 163.544 293.278 164.312Z" fill="white"/>
</svg>
