<svg width="468" height="298" viewBox="0 0 468 298" fill="none" xmlns="http://www.w3.org/2000/svg">
<path d="M0 11.747C0 5.2593 5.25931 0 11.747 0H456.253C462.741 0 468 5.25931 468 11.747V298H0V11.747Z" fill="#FAF9F6"/>
<path d="M132 192.734H160.564C163.933 192.734 166.664 190.003 166.664 186.633V157.793C166.664 154.423 169.396 151.692 172.765 151.692H189.959" stroke="#989898" stroke-width="1.69003" stroke-dasharray="3.38 3.38"/>
<path d="M191 151.693H161.395C158.026 151.693 155.295 148.962 155.295 145.592V116.752C155.295 113.382 152.563 110.651 149.194 110.651H132" stroke="#989898" stroke-width="1.69003" stroke-dasharray="3.38 3.38"/>
<g filter="url(#filter0_d_386_10961)">
<rect x="82" y="84" width="50.3868" height="50.3868" rx="25.1934" fill="white"/>
</g>
<path d="M276 152.211L311 152.211" stroke="#989898" stroke-width="2"/>
<g filter="url(#filter1_d_386_10961)">
<rect x="82" y="163" width="50.3868" height="50.3868" rx="25.1934" fill="white"/>
</g>
<g filter="url(#filter2_d_386_10961)">
<rect x="310" y="114" width="76.3867" height="76.3867" rx="38.1934" fill="white"/>
</g>
<path opacity="0.9" fill-rule="evenodd" clip-rule="evenodd" d="M355.96 132C356.176 132 356.438 132.093 356.547 132.201C356.639 132.324 357.319 133.297 359.357 136.323L365.95 136.401C366.582 136.583 366.843 136.796 367 137.559L366.923 166.001C366.708 166.717 366.338 166.933 365.765 167.051H359.202C354.03 167.051 352.655 167.097 352.702 167.252C352.733 167.344 353.011 168.085 353.319 168.873C353.752 169.969 353.952 170.309 354.215 170.386C354.416 170.448 354.694 170.448 354.833 170.386C355.002 170.34 355.249 170.401 355.435 170.571C355.713 170.787 355.744 170.896 355.419 171.529L347.992 171.498C341.106 171.451 340.534 171.436 340.38 171.189C340.256 170.988 340.256 170.834 340.38 170.649C340.488 170.463 340.812 170.34 342.017 170.216L342.542 168.904C342.835 168.178 343.113 167.468 343.144 167.329C343.221 167.066 342.85 167.051 336.967 167.051C332.134 167.051 330.606 167.004 330.204 166.85C329.717 166.569 329.233 166.206 329 165.738L329.015 137.559C329.209 136.785 329.48 136.593 330.065 136.401L352.408 136.308L353.644 134.501C354.323 133.513 355.033 132.556 355.219 132.355C355.404 132.154 355.744 132 355.96 132ZM353.366 137.173C354.539 137.25 354.972 137.358 355.08 137.451C355.234 137.605 355.28 139.535 355.265 147.024V156.397H356.655C356.655 141.913 356.685 137.605 356.732 137.482C356.794 137.312 357.041 137.25 357.658 137.25C358.121 137.25 358.508 137.204 358.508 137.142C358.508 137.065 357.921 136.2 357.21 135.212L355.913 133.405L353.366 137.173ZM330.22 149.942L330.251 161.955H365.61C365.61 140.462 365.564 137.898 365.41 137.744C365.271 137.605 364.483 137.559 362.476 137.559C360.144 137.559 359.743 137.59 359.743 137.79C359.743 137.914 359.573 138.13 359.388 138.254C359.202 138.377 358.739 138.485 358.384 138.485H357.735C357.735 155.161 357.689 157.447 357.55 157.586C357.427 157.724 356.84 157.786 355.774 157.786C354.338 157.786 354.169 157.755 354.03 157.477C353.922 157.277 353.875 153.741 353.875 147.827V138.485C352.856 138.485 352.393 138.377 352.208 138.254C352.022 138.13 351.868 137.914 351.868 137.79C351.868 137.59 350.571 137.559 341.245 137.559C333.2 137.559 330.56 137.605 330.405 137.744C330.22 137.898 330.189 139.813 330.22 149.942ZM330.251 164.271C330.251 165.028 330.312 165.414 330.482 165.584C330.683 165.785 332.845 165.816 348.085 165.816H365.456C365.826 165.244 365.919 164.766 365.919 164.148V163.191H330.251V164.271ZM343.375 170.293H352.64L351.328 167.051H344.672L343.375 170.293ZM350.169 140.956C350.972 140.956 351.729 141.017 351.822 141.079C351.976 141.156 352.007 143.009 351.945 157.555L350.247 157.586C349.305 157.616 348.502 157.586 348.44 157.508C348.378 157.447 348.301 153.756 348.286 149.309C348.255 142.315 348.286 141.203 348.471 141.095C348.594 141.017 349.367 140.956 350.169 140.956ZM349.552 156.551H350.941V142.191H349.552V156.551ZM344.333 144.183C345.445 144.183 345.985 144.245 346.108 144.384C346.263 144.538 346.294 146.128 346.232 157.555H342.681L342.665 151.069C342.65 147.503 342.665 144.492 342.696 144.384C342.727 144.26 343.206 144.198 344.333 144.183ZM343.839 156.551H345.228V145.434H343.839V156.551ZM338.728 145.897C339.839 145.897 340.426 145.959 340.565 146.082C340.704 146.236 340.751 147.549 340.751 151.764C340.751 155.856 340.704 157.292 340.565 157.431C340.442 157.57 339.839 157.632 338.712 157.632C337.369 157.632 337.029 157.586 336.967 157.4C336.921 157.277 336.875 154.683 336.859 151.641C336.844 148.599 336.89 146.051 336.967 146.005C337.045 145.943 337.832 145.897 338.728 145.897ZM338.126 150.869C338.126 152.938 338.079 155.053 338.002 155.594L337.894 156.551H339.361V147.132H338.126V150.869ZM356.732 163.947C357.735 163.947 357.905 163.993 358.044 164.256C358.152 164.488 358.137 164.642 357.998 164.812C357.859 164.982 357.519 165.043 356.685 165.043C355.79 165.043 355.543 164.982 355.435 164.766C355.342 164.596 355.342 164.395 355.435 164.225C355.558 164.009 355.79 163.947 356.732 163.947ZM360.052 163.947C360.777 163.947 361.102 164.009 361.241 164.179C361.349 164.302 361.426 164.534 361.395 164.688C361.364 164.92 361.179 164.951 360.052 164.951C358.77 164.951 358.739 164.951 358.693 164.565C358.662 164.364 358.739 164.132 358.847 164.071C358.955 164.009 359.496 163.947 360.052 163.947ZM364.607 164.024V164.951L363.325 164.997C362.167 165.028 362.043 165.013 361.982 164.719C361.935 164.549 361.982 164.302 362.074 164.179C362.213 163.993 362.522 163.947 364.607 164.024Z" fill="#344C92"/>
<path fill-rule="evenodd" clip-rule="evenodd" d="M96.1562 175.239C96.2554 175.185 96.4589 175.115 96.6028 175.076H96.5978C96.8211 175.011 98.1659 175.001 105.57 175.001C113.326 174.996 114.313 175.006 114.576 175.076C114.74 175.115 114.983 175.21 115.117 175.284C115.246 175.358 115.464 175.532 115.593 175.666C115.722 175.805 115.876 176.008 115.931 176.128C115.99 176.242 116.075 176.465 116.114 176.619C116.154 176.778 116.189 177.046 116.189 177.527H115.37L115.34 177.145C115.325 176.926 115.276 176.683 115.226 176.584C115.177 176.49 115.067 176.336 114.978 176.247C114.894 176.152 114.735 176.033 114.427 175.865H96.7616L96.5631 175.969C96.4539 176.028 96.2803 176.172 96.1761 176.291C96.0718 176.415 95.9577 176.619 95.9131 176.758C95.8535 176.971 95.8436 177.988 95.8535 183.978C95.8684 190.563 95.8734 190.96 95.9577 191.148C96.0073 191.257 96.1413 191.441 96.2554 191.56C96.3696 191.674 96.5383 191.793 96.6276 191.818C96.7269 191.848 96.7864 191.898 96.7864 191.952C96.7814 192.002 96.7417 192.185 96.6921 192.364C96.6177 192.627 96.583 192.682 96.5085 192.672C96.4539 192.662 96.3051 192.602 96.1661 192.538C96.0321 192.473 95.7989 192.309 95.66 192.17C95.5012 192.022 95.3374 191.793 95.2481 191.605C95.1687 191.436 95.0794 191.173 95.0496 191.024C95.0149 190.846 95 188.305 95 183.829C95 177.745 95.0099 176.872 95.0744 176.609C95.1191 176.445 95.2233 176.192 95.3126 176.043C95.4019 175.899 95.5855 175.681 95.7195 175.557C95.8585 175.433 96.052 175.289 96.1562 175.239ZM111.976 185.715V183.754V181.794H112.819L112.824 185.988L113.202 186.161C113.333 186.222 113.46 186.279 113.539 186.314C113.582 186.333 113.611 186.346 113.618 186.35C113.643 186.355 113.663 185.715 113.663 183.482H114.507L114.512 186.98L115.35 187.848V185.169H116.194V189.312L116.338 189.759C116.417 190.007 116.511 190.394 116.541 190.627C116.576 190.86 116.596 191.342 116.566 192.364H117.037V193.208H116.69C116.353 193.208 116.343 193.213 116.313 193.347C116.298 193.421 116.194 193.689 115.871 194.408L117.916 196.448C119.107 197.639 119.975 198.542 119.99 198.616C120.01 198.686 120 198.795 119.965 198.865C119.93 198.934 119.623 199.276 119.275 199.624C118.933 199.976 118.591 200.294 118.516 200.333C118.437 200.373 118.328 200.403 118.268 200.403C118.184 200.403 117.593 199.837 114.11 196.359L113.926 196.473C113.822 196.537 113.514 196.696 113.241 196.83C112.968 196.964 112.601 197.118 112.422 197.172C112.244 197.227 111.896 197.306 111.653 197.351C111.41 197.391 110.964 197.425 110.661 197.425C110.358 197.425 109.912 197.391 109.668 197.351C109.425 197.306 109.018 197.202 108.775 197.118C108.532 197.033 108.219 196.909 108.08 196.845C107.947 196.775 107.644 196.597 107.411 196.448C107.172 196.289 106.78 195.967 106.512 195.694C106.23 195.416 105.917 195.034 105.743 194.771C105.584 194.528 105.386 194.17 105.297 193.977C105.207 193.783 105.108 193.535 105.004 193.208H99.2725V192.364H104.805L104.786 191.704C104.776 191.342 104.795 190.86 104.83 190.627C104.86 190.394 104.954 190.002 105.178 189.312V184.722H106.021L106.026 187.824L106.865 186.98V183.879H107.708V185.119C107.708 185.804 107.728 186.355 107.748 186.35C107.773 186.34 107.961 186.255 108.552 185.988V184.325H109.395V185.715L109.559 185.69C109.621 185.682 109.743 185.664 109.964 185.631C110.042 185.62 110.134 185.606 110.239 185.591L110.249 184.499C110.254 183.898 110.264 183.238 110.274 182.663H111.098L111.107 183.035C111.107 183.125 111.109 183.305 111.113 183.626C111.117 184.027 111.124 184.649 111.132 185.591L111.39 185.63C111.457 185.639 111.535 185.651 111.625 185.664C111.727 185.679 111.843 185.696 111.976 185.715ZM109.366 186.603C109.584 186.548 109.942 186.479 110.16 186.459C110.378 186.439 110.567 186.419 110.582 186.414C110.597 186.414 110.84 186.429 111.127 186.459C111.415 186.484 111.842 186.563 112.085 186.633C112.323 186.702 112.701 186.846 112.924 186.96C113.152 187.074 113.49 187.283 113.683 187.422C113.877 187.566 114.159 187.814 114.318 187.977C114.477 188.136 114.715 188.424 114.849 188.617C114.978 188.811 115.167 189.134 115.266 189.337C115.36 189.54 115.499 189.913 115.574 190.156C115.703 190.568 115.713 190.667 115.713 191.496C115.713 192.25 115.698 192.448 115.608 192.761C115.554 192.964 115.435 193.302 115.35 193.505C115.266 193.709 115.082 194.056 114.938 194.274C114.8 194.493 114.502 194.855 114.283 195.073C114.06 195.297 113.693 195.599 113.46 195.753C113.227 195.902 112.884 196.096 112.691 196.175C112.497 196.259 112.165 196.373 111.946 196.433C111.713 196.498 111.316 196.552 110.979 196.567C110.626 196.587 110.244 196.572 109.986 196.537C109.753 196.503 109.386 196.418 109.167 196.349C108.949 196.279 108.617 196.145 108.423 196.046C108.23 195.952 107.942 195.783 107.778 195.669C107.614 195.56 107.336 195.331 107.163 195.168C106.989 195.004 106.741 194.726 106.612 194.547C106.478 194.369 106.279 194.046 106.17 193.828C106.056 193.61 105.912 193.262 105.848 193.059C105.783 192.855 105.699 192.508 105.664 192.29C105.624 192.036 105.614 191.659 105.634 191.247C105.654 190.756 105.689 190.498 105.793 190.156C105.868 189.913 105.997 189.555 106.086 189.362C106.175 189.168 106.344 188.871 106.463 188.692C106.587 188.513 106.786 188.255 106.905 188.121C107.029 187.982 107.297 187.729 107.5 187.561C107.743 187.357 108.076 187.149 108.423 186.975C108.726 186.831 109.148 186.662 109.366 186.603ZM114.76 195.813L115.063 195.48V195.475C115.226 195.292 115.375 195.143 115.39 195.143C115.405 195.143 116.224 195.947 118.993 198.716L118.313 199.386L114.76 195.813Z" fill="#6A6A6A"/>
<path fill-rule="evenodd" clip-rule="evenodd" d="M97.5311 177.527H96.6875V176.684H97.5311V177.527ZM99.2679 177.527H98.4243V176.684H99.2679V177.527ZM100.955 177.527H100.111V176.684H100.955V177.527ZM98.7468 178.609C98.9106 178.535 99.1438 178.45 99.2679 178.425C99.3919 178.401 103.258 178.381 108.101 178.376C113.743 178.371 116.804 178.386 116.983 178.42C117.132 178.45 117.39 178.535 117.554 178.614C117.737 178.703 117.956 178.867 118.11 179.036C118.253 179.19 118.447 179.462 118.695 179.983V194.572L118.556 194.87C118.477 195.034 118.373 195.228 118.318 195.307C118.239 195.421 118.209 195.431 118.134 195.381C118.085 195.347 117.936 195.223 117.579 194.895L117.851 194.424V180.132L117.747 179.934C117.688 179.825 117.544 179.651 117.425 179.547C117.301 179.443 117.097 179.328 116.958 179.284C116.745 179.224 115.509 179.214 99.3423 179.239L99.0793 179.388C98.9304 179.472 98.7518 179.616 98.6823 179.711C98.6129 179.805 98.5235 179.959 98.4888 180.048C98.4392 180.177 98.4243 181.571 98.4243 187.288C98.4243 194.086 98.4292 194.384 98.5186 194.572C98.5682 194.682 98.6873 194.845 98.7766 194.94C98.8709 195.034 99.0446 195.158 99.1686 195.213C99.387 195.312 99.4664 195.317 105.173 195.342V196.185L102.21 196.17L102.2 196.17C99.2777 196.16 99.2378 196.16 98.9701 196.051C98.8213 195.992 98.5732 195.853 98.4243 195.749C98.2556 195.629 98.067 195.431 97.938 195.237C97.8189 195.064 97.6849 194.806 97.6403 194.672C97.5609 194.443 97.5559 193.843 97.541 187.476C97.5311 182.698 97.546 180.43 97.5807 180.207C97.6105 180.028 97.7048 179.74 97.7891 179.562C97.8834 179.373 98.0521 179.135 98.196 178.996C98.335 178.862 98.5831 178.688 98.7468 178.609ZM100.111 180.902H99.2679L99.2728 180.053L100.087 180.083L100.111 180.902ZM101.799 180.902H100.955V180.058H101.799V180.902ZM103.486 180.902H102.642V180.058H103.486V180.902ZM102.642 191.521H101.799V186.41H102.642V191.521ZM104.329 191.521H103.486V187.7H104.329V191.521ZM100.955 191.521H100.111V188.99H100.955V191.521ZM108.895 187.68C109.098 187.586 109.445 187.462 109.664 187.412C109.942 187.343 110.239 187.308 110.656 187.308C111.128 187.303 111.346 187.328 111.723 187.422C111.981 187.486 112.338 187.61 112.517 187.7C112.696 187.789 112.974 187.958 113.137 188.072C113.301 188.186 113.589 188.449 113.782 188.653C113.971 188.856 114.224 189.188 114.338 189.392C114.452 189.595 114.596 189.893 114.656 190.057C114.71 190.221 114.79 190.498 114.829 190.677C114.864 190.856 114.899 191.228 114.899 191.511C114.899 191.789 114.864 192.181 114.82 192.379C114.78 192.578 114.671 192.915 114.581 193.133C114.492 193.352 114.323 193.674 114.204 193.853C114.085 194.032 113.872 194.295 113.733 194.443C113.599 194.587 113.351 194.806 113.187 194.925C113.023 195.039 112.701 195.228 112.467 195.337C112.234 195.446 111.902 195.575 111.723 195.62C111.48 195.689 111.217 195.709 110.681 195.709C110.14 195.709 109.877 195.689 109.639 195.62C109.46 195.575 109.128 195.446 108.895 195.337C108.661 195.228 108.339 195.039 108.175 194.925C108.011 194.806 107.763 194.587 107.624 194.443C107.485 194.295 107.277 194.032 107.158 193.853C107.039 193.674 106.865 193.352 106.776 193.133C106.686 192.915 106.577 192.558 106.533 192.339C106.468 192.042 106.458 191.794 106.478 191.322C106.493 190.9 106.538 190.593 106.607 190.355C106.667 190.166 106.776 189.873 106.85 189.709C106.925 189.546 107.064 189.303 107.158 189.164C107.247 189.03 107.461 188.777 107.624 188.603C107.793 188.429 108.061 188.186 108.225 188.072C108.388 187.953 108.691 187.779 108.895 187.68ZM109.49 188.345C109.544 188.315 109.718 188.265 109.877 188.226H109.872C110.031 188.186 110.174 188.151 110.194 188.151C110.214 188.146 110.239 188.901 110.259 191.496H111.102L111.127 188.146L111.286 188.176C111.375 188.196 111.559 188.246 111.946 188.37L111.971 191.521H112.814L112.819 188.866L113.127 189.193C113.296 189.372 113.509 189.64 113.593 189.789C113.683 189.938 113.817 190.226 113.891 190.429C114.005 190.757 114.02 190.881 114.025 191.446C114.03 191.799 114.015 192.151 113.956 192.364H107.406L107.366 192.225C107.346 192.151 107.331 191.799 107.336 191.446C107.341 190.881 107.356 190.757 107.47 190.429C107.544 190.226 107.678 189.938 107.768 189.789C107.852 189.64 108.066 189.372 108.542 188.866L108.547 191.521H109.39V189.958C109.39 188.444 109.395 188.395 109.49 188.345ZM108.502 194.086C108.324 193.942 108.08 193.684 107.961 193.516L107.748 193.208H113.613L113.4 193.516C113.286 193.684 113.048 193.942 112.869 194.086C112.69 194.235 112.368 194.443 112.149 194.548C111.931 194.652 111.579 194.776 111.365 194.816C111.157 194.86 110.849 194.895 110.686 194.895C110.522 194.895 110.214 194.86 110.001 194.816C109.792 194.776 109.44 194.652 109.222 194.548C109.003 194.443 108.681 194.235 108.502 194.086Z" fill="#6A6A6A"/>
<path d="M104.18 108.023L104.169 109.868C107.022 110.004 107.86 110.026 107.882 110.004C107.905 109.992 107.86 109.698 107.792 109.358C107.724 109.019 107.577 108.532 107.452 108.283C107.339 108.034 107.022 107.604 106.75 107.332C106.478 107.06 106.014 106.721 105.697 106.574C105.392 106.438 104.916 106.291 104.667 106.245L104.192 106.166L104.18 108.023ZM102.188 107.275C101.939 107.366 101.509 107.626 101.237 107.864C100.965 108.102 100.614 108.543 100.445 108.86C100.207 109.324 100.15 109.574 100.162 110.332C100.162 111.113 100.195 111.306 100.49 111.838C100.682 112.177 100.988 112.585 101.169 112.732C101.362 112.89 101.712 113.117 101.961 113.241C102.211 113.366 102.697 113.49 103.037 113.524C103.433 113.558 103.897 113.513 104.316 113.4C104.667 113.298 104.961 113.185 104.961 113.162C104.961 113.128 104.599 112.472 104.146 111.713L103.331 110.332L103.207 107.162C102.765 107.128 102.437 107.185 102.188 107.275ZM104.418 110.751C104.452 110.83 104.792 111.419 105.177 112.053L105.867 113.219C106.614 112.37 106.897 111.928 106.965 111.679C107.044 111.43 107.112 111.113 107.112 110.977C107.112 110.841 107.033 110.694 106.943 110.672C106.852 110.638 106.229 110.615 105.573 110.615C104.644 110.615 104.373 110.649 104.418 110.751Z" fill="#6A6A6A"/>
<path fill-rule="evenodd" clip-rule="evenodd" d="M95.1245 97.0528C95.1811 96.8717 95.3962 96.566 95.6 96.3736L95.9509 96H104.192C112.241 96 112.445 96 112.773 96.2264C112.955 96.3509 113.192 96.6 113.283 96.7924C113.407 97.0415 113.453 97.5056 113.453 99.849L116.192 99.9056C116.664 100.03 116.832 100.201 116.962 100.755V109.472L116.668 109.607C116.43 109.732 116.328 109.721 115.773 109.404L115.717 101.094H113.453V109.472L113.158 109.607C112.921 109.732 112.819 109.721 112.264 109.404L112.207 104.83H96.2453L96.3019 115.302L101.113 115.336C105.54 115.358 105.936 115.37 106.072 115.562C106.151 115.664 106.207 115.856 106.207 115.981C106.207 116.105 106.117 116.298 106.004 116.411C105.834 116.592 105.54 116.615 99.7547 116.604V117.758C99.7547 118.551 99.8 118.97 99.8905 119.072C100.004 119.173 100.762 119.207 105.981 119.207L106.049 119.456C106.083 119.604 106.094 119.841 106.038 120.283L102.789 120.305C99.8452 120.339 99.4943 120.317 99.2339 120.136C99.0641 120.034 98.8603 119.807 98.7811 119.626C98.6679 119.422 98.6226 118.879 98.6226 116.604H97.4113C96.3245 116.615 96.1434 116.581 95.7924 116.355C95.5774 116.207 95.3057 115.913 95.2038 115.698C95.0113 115.336 95 114.645 95 106.336C95 100.279 95.034 97.2566 95.1245 97.0528ZM110.623 111.939C110.906 111.804 111.392 111.634 111.698 111.555C112.015 111.487 112.479 111.419 112.751 111.407C113.011 111.407 113.498 111.464 113.826 111.532C114.155 111.6 114.721 111.815 115.094 111.996C115.468 112.189 116.011 112.573 116.294 112.868C116.577 113.151 116.973 113.683 117.166 114.056C117.358 114.441 117.573 115.098 117.653 115.528C117.766 116.151 117.777 116.49 117.675 117.056C117.607 117.464 117.426 118.053 117.29 118.358C117.248 118.45 117.207 118.54 117.17 118.621C117.079 118.818 117.012 118.965 116.996 118.981C116.973 119.015 117.415 119.547 117.981 120.17C118.547 120.792 119.011 121.347 119 121.392C119 121.438 118.683 121.754 117.585 122.694L116.566 121.573C116.011 120.951 115.524 120.453 115.49 120.453C115.468 120.464 115.332 120.543 115.207 120.634C115.083 120.736 114.653 120.905 114.245 121.03C113.849 121.155 113.204 121.256 112.83 121.256C112.456 121.245 111.902 121.177 111.585 121.098C111.279 121.019 110.747 120.804 110.419 120.622C110.079 120.441 109.558 120.022 109.253 119.694C108.947 119.366 108.54 118.755 108.347 118.336C108.064 117.736 107.973 117.373 107.94 116.66C107.894 116.004 107.94 115.562 108.087 115.019C108.2 114.622 108.483 114.011 108.709 113.66C108.924 113.321 109.332 112.845 109.615 112.619C109.887 112.381 110.351 112.075 110.623 111.939ZM96.2221 100.551C96.2108 98.8189 96.2447 97.3585 96.3013 97.3245C96.3579 97.2793 99.9466 97.2566 112.15 97.3019L112.207 103.698H96.2447L96.2221 100.551ZM110.35 113.57C110.656 113.298 111.154 112.981 111.471 112.856C111.901 112.687 112.252 112.653 112.943 112.675C113.622 112.698 113.996 112.777 114.414 112.981C114.72 113.128 115.184 113.456 115.433 113.717C115.694 113.966 116.022 114.419 116.169 114.736C116.362 115.132 116.452 115.562 116.486 116.151C116.52 116.807 116.475 117.136 116.294 117.622C116.169 117.962 115.863 118.472 115.626 118.755C115.377 119.038 114.935 119.4 114.629 119.57C114.324 119.728 113.78 119.921 113.429 119.988C112.977 120.079 112.592 120.079 112.207 120C111.901 119.932 111.403 119.762 111.109 119.615C110.803 119.468 110.316 119.072 110.022 118.743C109.694 118.381 109.399 117.905 109.297 117.566C109.196 117.249 109.105 116.672 109.105 116.264C109.105 115.675 109.173 115.381 109.456 114.792C109.682 114.317 109.999 113.887 110.35 113.57Z" fill="#6A6A6A"/>
<path d="M100.942 98.796C100.885 98.83 100.851 99.8262 100.862 101.004L100.885 103.132H102.017V98.7168C101.259 98.7168 100.998 98.7508 100.942 98.796ZM105.979 100.924V103.132H107.111V98.7168H105.979V100.924ZM98.3945 101.321V103.132H99.5266V99.5092H98.3945V101.321ZM103.432 100.709C103.387 100.755 103.342 101.321 103.353 101.966L103.376 103.132H104.621L104.564 100.698C103.772 100.641 103.489 100.664 103.432 100.709ZM108.527 100.709C108.481 100.755 108.436 101.321 108.447 101.966L108.47 103.132H109.602C109.602 101.377 109.613 100.834 109.625 100.777C109.647 100.732 109.432 100.687 109.149 100.664C108.866 100.641 108.583 100.664 108.527 100.709Z" fill="#6A6A6A"/>
<g filter="url(#filter3_d_386_10961)">
<rect x="191" y="111" width="85.3848" height="85.3848" rx="13.9214" fill="#344C92"/>
</g>
<path fill-rule="evenodd" clip-rule="evenodd" d="M206.5 127.166C206.647 127.119 206.878 127.063 207.016 127.041C207.213 127.013 213.031 127.004 261.172 127.013L261.438 127.104C261.584 127.151 261.838 127.257 262 127.335C262.162 127.416 262.419 127.572 262.566 127.685C262.712 127.797 262.931 127.994 263.05 128.122C263.169 128.251 263.316 128.429 263.378 128.513C263.441 128.601 263.544 128.76 263.603 128.872C263.663 128.985 263.744 129.154 263.778 129.247C263.816 129.341 263.881 129.554 264 130.013L263.994 153.079C263.984 174.997 263.981 176.151 263.931 176.213C263.897 176.251 263.888 176.285 263.906 176.294C263.925 176.304 263.928 176.347 263.916 176.397C263.906 176.444 263.859 176.601 263.812 176.747C263.766 176.894 263.681 177.104 263.625 177.216C263.569 177.329 263.484 177.476 263.441 177.544C263.397 177.613 263.312 177.732 263.25 177.81C263.191 177.888 263.062 178.032 262.969 178.132C262.875 178.232 262.684 178.401 262.547 178.504C262.409 178.607 262.156 178.76 261.984 178.844C261.812 178.929 261.547 179.032 261.391 179.076C261.2 179.129 261.097 179.144 261.072 179.122C261.044 179.101 261.022 179.107 261.003 179.147C260.975 179.197 259.653 179.201 234.041 179.21C209.144 179.216 207.088 179.213 206.828 179.166C206.672 179.138 206.456 179.082 206.344 179.038C206.231 178.997 206.022 178.897 205.875 178.819C205.728 178.741 205.525 178.61 205.422 178.532C205.319 178.454 205.128 178.282 204.997 178.154C204.869 178.026 204.681 177.801 204.587 177.654C204.494 177.507 204.378 177.319 204.338 177.232C204.294 177.147 204.219 176.969 204.175 176.841C204.128 176.713 204.069 176.513 204.044 176.397C204.006 176.213 204 173.035 204 153.241C204 132.747 204.003 130.263 204.047 130.013C204.075 129.857 204.131 129.619 204.178 129.482C204.222 129.344 204.319 129.113 204.391 128.966C204.466 128.819 204.609 128.588 204.712 128.451C204.816 128.313 204.997 128.107 205.112 127.994C205.231 127.879 205.425 127.719 205.547 127.638C205.669 127.557 205.872 127.438 206 127.372C206.128 127.307 206.353 127.216 206.5 127.166ZM211.109 128.381C213.556 128.375 214.993 128.359 215.012 128.341C215.031 128.325 215.249 128.309 215.506 128.309C215.784 128.309 215.974 128.325 215.984 128.341C215.993 128.362 216.946 128.372 218.749 128.372C220.553 128.372 221.506 128.362 221.515 128.341C221.524 128.322 221.865 128.309 222.437 128.309C223.287 128.309 223.349 128.316 223.453 128.372C223.562 128.434 223.618 128.434 240.281 128.434C251.396 128.434 257.006 128.425 257.015 128.403C257.024 128.384 257.64 128.372 258.765 128.372C259.89 128.372 260.506 128.384 260.515 128.403C260.524 128.422 260.578 128.437 260.634 128.437C260.687 128.437 260.818 128.459 260.921 128.481C261.024 128.506 261.256 128.6 261.434 128.691C261.703 128.828 261.793 128.897 261.965 129.078C262.106 129.228 262.221 129.397 262.321 129.594C262.406 129.762 262.49 129.981 262.515 130.106C262.553 130.291 262.562 130.819 262.562 136.187H239.796C224.649 136.187 217.024 136.197 217.015 136.219C217.006 136.234 216.943 136.25 216.874 136.25C216.806 136.25 216.743 136.234 216.734 136.219C216.724 136.197 216.49 136.187 216.124 136.187C215.759 136.187 215.524 136.197 215.515 136.219C215.506 136.237 213.781 136.25 205.374 136.25V133.35C205.374 131.447 205.387 130.381 205.409 130.25C205.428 130.137 205.471 129.959 205.509 129.859C205.543 129.756 205.615 129.6 205.665 129.516C205.715 129.428 205.793 129.309 205.84 129.25C205.884 129.187 205.949 129.109 205.984 129.075C206.018 129.037 206.131 128.941 206.234 128.856C206.337 128.775 206.534 128.653 206.671 128.591C206.809 128.525 206.993 128.456 207.078 128.434C207.199 128.4 208.065 128.391 211.109 128.381ZM205.343 144.766C205.365 144.753 205.378 143.522 205.381 141.181L205.384 137.612L213.184 137.634C217.474 137.644 230.34 137.653 262.562 137.653V137.819C262.562 137.909 262.574 137.997 262.59 138.012C262.612 138.034 262.628 141.947 262.64 148.75C262.649 154.634 262.665 161.7 262.671 164.45C262.684 167.85 262.678 169.462 262.656 169.481C262.634 169.503 262.624 169.869 262.624 170.506C262.624 171.134 262.637 171.503 262.656 171.512C262.674 171.522 262.687 171.572 262.687 171.622C262.687 171.675 262.674 171.725 262.656 171.731C262.637 171.744 262.624 172.441 262.624 173.725C262.624 174.812 262.615 175.744 262.606 175.797C262.593 175.85 262.599 175.9 262.621 175.912C262.646 175.928 262.646 175.95 262.615 175.991C262.593 176.022 262.556 176.116 262.537 176.203C262.515 176.287 262.465 176.428 262.424 176.516C262.387 176.6 262.303 176.747 262.24 176.844C262.178 176.937 262.128 177.031 262.124 177.053C262.124 177.075 262.103 177.094 262.078 177.094C262.053 177.094 262.031 177.106 262.031 177.125C262.031 177.141 261.928 177.234 261.806 177.331C261.681 177.428 261.499 177.544 261.406 177.591C261.312 177.641 261.137 177.709 261.015 177.747C260.896 177.781 260.756 177.812 260.703 177.812C260.653 177.812 260.574 177.834 260.531 177.859C260.465 177.894 260.134 177.903 258.493 177.903C257.215 177.903 256.524 177.894 256.515 177.875C256.506 177.856 256.443 177.844 256.374 177.844C256.306 177.844 256.243 177.856 256.234 177.875C256.224 177.894 255.865 177.906 255.249 177.906C254.634 177.906 254.274 177.894 254.265 177.875C254.256 177.853 254.053 177.844 253.749 177.844C253.446 177.844 253.243 177.853 253.234 177.875C253.224 177.894 252.99 177.906 252.624 177.906C252.259 177.906 252.024 177.894 252.015 177.875C252.006 177.853 251.593 177.844 250.874 177.844C250.156 177.844 249.743 177.853 249.734 177.875C249.724 177.894 248.546 177.906 246.296 177.906C244.037 177.906 242.874 177.894 242.874 177.875C242.874 177.853 242.284 177.837 241.196 177.828C240.271 177.819 239.29 177.806 239.015 177.797C238.693 177.784 238.506 177.791 238.487 177.809C238.465 177.831 237.703 177.844 236.243 177.844C234.799 177.844 234.024 177.831 234.015 177.812C234.006 177.791 233.593 177.781 232.874 177.781C232.156 177.781 231.743 177.791 231.734 177.812C231.724 177.831 230.949 177.844 229.509 177.844C228.084 177.844 227.287 177.831 227.265 177.812C227.246 177.791 223.787 177.778 207.109 177.766L206.921 177.694C206.818 177.656 206.671 177.591 206.593 177.55C206.515 177.512 206.396 177.444 206.328 177.4C206.259 177.356 206.14 177.25 206.062 177.166C205.984 177.081 205.881 176.966 205.837 176.906C205.79 176.844 205.706 176.697 205.646 176.578C205.587 176.456 205.521 176.303 205.496 176.234C205.459 176.128 205.449 174.056 205.431 163.231C205.418 156.15 205.399 149.437 205.39 148.312C205.381 147.031 205.362 146.253 205.343 146.234C205.324 146.216 205.312 145.916 205.312 145.491C205.312 145.05 205.324 144.775 205.343 144.766Z" fill="white"/>
<path fill-rule="evenodd" clip-rule="evenodd" d="M239.829 129.757C239.932 129.732 240.11 129.7 240.226 129.688C240.341 129.679 240.545 129.682 240.679 129.694C240.813 129.707 241.001 129.741 241.095 129.766C241.188 129.794 241.345 129.847 241.438 129.885C241.532 129.922 241.729 130.032 241.876 130.129C242.023 130.225 242.226 130.394 242.329 130.504C242.432 130.616 242.56 130.769 242.616 130.844C242.67 130.919 242.757 131.072 242.81 131.185C242.863 131.297 242.941 131.529 242.988 131.7C243.06 131.982 243.066 132.054 243.054 132.404C243.041 132.716 243.023 132.847 242.954 133.06C242.907 133.207 242.829 133.404 242.782 133.497C242.735 133.591 242.645 133.741 242.579 133.825C242.513 133.913 242.391 134.057 242.301 134.147C242.213 134.241 242.063 134.369 241.97 134.435C241.876 134.5 241.698 134.604 241.579 134.663C241.46 134.722 241.26 134.8 241.141 134.838C241.02 134.872 240.77 134.91 240.579 134.922C240.391 134.935 240.213 134.932 240.188 134.916C240.163 134.9 240.079 134.885 240.001 134.882C239.923 134.875 239.804 134.857 239.735 134.838C239.666 134.819 239.498 134.754 239.36 134.691C239.223 134.629 239.073 134.55 239.026 134.516C238.982 134.479 238.885 134.41 238.81 134.357C238.738 134.307 238.601 134.169 238.504 134.054C238.407 133.938 238.298 133.804 238.263 133.757C238.226 133.71 238.16 133.607 238.12 133.529C238.079 133.45 237.998 133.241 237.938 133.06C237.845 132.763 237.835 132.697 237.835 132.372C237.838 132.175 237.854 131.919 237.873 131.804C237.891 131.685 237.951 131.482 238.004 131.35C238.057 131.216 238.163 131.013 238.238 130.897C238.313 130.779 238.479 130.582 238.604 130.46C238.729 130.335 238.916 130.175 239.02 130.107C239.12 130.041 239.304 129.944 239.423 129.894C239.541 129.847 239.726 129.785 239.829 129.757ZM248.016 129.763C248.12 129.732 248.295 129.697 248.407 129.685C248.52 129.672 248.645 129.666 248.688 129.672C248.72 129.675 248.792 129.684 248.868 129.693C248.897 129.697 248.926 129.7 248.954 129.704C249.057 129.713 249.226 129.747 249.329 129.779C249.432 129.81 249.595 129.866 249.688 129.904C249.782 129.941 249.938 130.022 250.032 130.082C250.126 130.144 250.345 130.335 250.516 130.51C250.785 130.779 250.851 130.869 250.976 131.122C251.057 131.285 251.154 131.538 251.191 131.685C251.245 131.885 251.263 132.041 251.263 132.31C251.263 132.585 251.248 132.732 251.195 132.929C251.157 133.069 251.076 133.294 251.013 133.429C250.951 133.56 250.863 133.719 250.816 133.779C250.773 133.838 250.676 133.96 250.598 134.044C250.52 134.132 250.388 134.26 250.301 134.335C250.213 134.407 250.057 134.516 249.954 134.575C249.851 134.632 249.673 134.716 249.554 134.76C249.438 134.804 249.251 134.86 249.132 134.885C249.016 134.907 248.782 134.922 248.61 134.919C248.438 134.916 248.257 134.904 248.204 134.894C248.151 134.885 248.038 134.86 247.954 134.838C247.866 134.816 247.679 134.744 247.532 134.675C247.385 134.61 247.182 134.485 247.079 134.404C246.976 134.319 246.82 134.179 246.729 134.085C246.641 133.994 246.504 133.822 246.423 133.7C246.345 133.582 246.288 133.463 246.298 133.444C246.307 133.422 246.298 133.41 246.282 133.419C246.263 133.429 246.21 133.304 246.16 133.147C246.11 132.988 246.051 132.738 246.032 132.591C246.004 132.391 246.004 132.263 246.032 132.075C246.051 131.938 246.088 131.741 246.113 131.638C246.141 131.535 246.204 131.354 246.257 131.232C246.31 131.113 246.413 130.929 246.485 130.825C246.56 130.722 246.726 130.535 246.857 130.413C246.988 130.288 247.173 130.135 247.266 130.075C247.363 130.016 247.451 129.966 247.463 129.966C247.476 129.966 247.563 129.932 247.657 129.891C247.751 129.85 247.913 129.794 248.016 129.763ZM256.697 129.679C256.706 129.677 256.714 129.676 256.72 129.675C256.763 129.669 256.882 129.672 256.985 129.679C257.088 129.685 257.307 129.725 257.47 129.766C257.632 129.807 257.885 129.9 258.029 129.975C258.173 130.047 258.391 130.194 258.52 130.304C258.648 130.41 258.813 130.579 258.891 130.679C258.97 130.775 259.085 130.947 259.148 131.06C259.21 131.172 259.295 131.363 259.335 131.482C259.373 131.604 259.401 131.707 259.391 131.716C259.382 131.725 259.388 131.744 259.404 131.763C259.423 131.782 259.445 131.963 259.454 132.169C259.47 132.447 259.463 132.607 259.429 132.779C259.401 132.907 259.338 133.125 259.285 133.263C259.232 133.4 259.135 133.597 259.07 133.7C259.001 133.804 258.863 133.979 258.763 134.088C258.66 134.197 258.501 134.344 258.407 134.416C258.313 134.485 258.163 134.579 258.079 134.625C257.991 134.672 257.816 134.744 257.688 134.788C257.56 134.832 257.335 134.885 257.188 134.907C257.041 134.925 256.81 134.935 256.673 134.925C256.535 134.916 256.31 134.879 256.173 134.844C256.035 134.807 255.81 134.722 255.673 134.654C255.535 134.585 255.323 134.447 255.204 134.347C255.085 134.247 254.907 134.066 254.81 133.947C254.713 133.829 254.591 133.647 254.538 133.544C254.485 133.441 254.413 133.282 254.376 133.194C254.341 133.104 254.298 132.963 254.279 132.882C254.26 132.797 254.238 132.585 254.229 132.404C254.216 132.154 254.226 132.016 254.266 131.825C254.298 131.688 254.357 131.479 254.404 131.357C254.451 131.238 254.52 131.091 254.557 131.038C254.595 130.982 254.626 130.925 254.626 130.913C254.629 130.897 254.666 130.841 254.713 130.785C254.76 130.729 254.866 130.604 254.954 130.507C255.038 130.41 255.179 130.282 255.266 130.216C255.351 130.154 255.501 130.057 255.595 130.004C255.688 129.95 255.866 129.872 255.985 129.832C256.104 129.791 256.304 129.741 256.423 129.719C256.525 129.703 256.64 129.687 256.697 129.679ZM233.095 145.144C233.12 145.132 233.22 145.119 233.313 145.11C233.407 145.104 233.795 145.1 234.173 145.107C234.551 145.11 234.882 145.125 234.907 145.141C234.932 145.157 235.032 145.163 235.126 145.16C235.22 145.154 235.488 145.179 235.72 145.216C235.951 145.25 236.276 145.31 236.438 145.341C236.511 145.357 236.599 145.375 236.684 145.393C236.788 145.415 236.889 145.437 236.954 145.45C237.073 145.479 237.382 145.563 237.641 145.641C237.898 145.719 238.307 145.86 238.548 145.957C238.788 146.05 239.088 146.179 239.21 146.235C239.335 146.294 239.445 146.341 239.454 146.341C239.463 146.341 239.632 146.429 239.832 146.538C240.032 146.644 240.245 146.763 240.307 146.8C240.373 146.838 240.463 146.891 240.516 146.922C240.57 146.95 240.751 147.066 240.923 147.179C241.095 147.291 241.376 147.488 241.548 147.616C241.72 147.744 241.96 147.938 242.079 148.041C242.198 148.144 242.463 148.385 242.666 148.575C242.87 148.763 243.035 148.935 243.035 148.95C243.035 148.966 243.11 149.044 243.198 149.122C243.288 149.2 243.479 149.404 243.626 149.572C243.773 149.744 243.976 149.997 244.082 150.135C244.185 150.275 244.351 150.504 244.448 150.647C244.545 150.788 244.626 150.913 244.626 150.929C244.629 150.941 244.691 151.041 244.766 151.154C244.841 151.266 244.904 151.366 244.907 151.382C244.907 151.394 244.948 151.463 244.998 151.538C245.048 151.61 245.207 151.916 245.354 152.216C245.501 152.516 245.682 152.932 245.76 153.138C245.835 153.344 245.951 153.669 246.01 153.857C246.073 154.044 246.157 154.325 246.201 154.482C246.245 154.638 246.32 154.975 246.373 155.232C246.426 155.491 246.488 155.869 246.513 156.075C246.538 156.282 246.576 156.613 246.595 156.81C246.62 157.047 246.626 157.416 246.613 157.888C246.604 158.285 246.588 158.719 246.579 158.857C246.57 158.994 246.548 159.144 246.532 159.194C246.513 159.241 246.507 159.288 246.513 159.304C246.523 159.316 246.507 159.46 246.485 159.622C246.46 159.785 246.42 160.025 246.391 160.154C246.363 160.282 246.313 160.507 246.279 160.654C246.245 160.8 246.173 161.072 246.116 161.257C246.06 161.441 246.007 161.591 245.991 161.591C245.979 161.591 245.976 161.607 245.985 161.622C245.995 161.638 245.945 161.813 245.873 162.007C245.804 162.197 245.729 162.385 245.71 162.419C245.691 162.454 245.67 162.51 245.666 162.544C245.66 162.579 245.623 162.663 245.582 162.732C245.545 162.8 245.495 162.913 245.47 162.982C245.448 163.05 245.366 163.225 245.291 163.372C245.216 163.519 245.113 163.71 245.063 163.794C245.01 163.882 244.941 164.007 244.91 164.075C244.876 164.144 244.807 164.26 244.76 164.332C244.743 164.356 244.715 164.398 244.68 164.45C244.617 164.544 244.532 164.67 244.454 164.785C244.335 164.96 244.229 165.113 244.22 165.122C244.21 165.132 244.16 165.2 244.11 165.275C244.057 165.35 243.998 165.422 243.973 165.432C243.948 165.441 243.91 165.488 243.888 165.538C243.863 165.585 243.82 165.654 243.788 165.691C243.769 165.715 243.705 165.789 243.63 165.877C243.597 165.914 243.563 165.955 243.529 165.994C243.413 166.125 243.182 166.372 243.013 166.547C242.841 166.719 242.573 166.982 242.41 167.125C242.251 167.269 242.104 167.394 242.082 167.4C242.063 167.41 242.023 167.438 241.991 167.463C241.971 167.482 241.936 167.514 241.901 167.547C241.884 167.563 241.866 167.58 241.851 167.594C241.804 167.641 241.688 167.732 241.595 167.794C241.501 167.86 241.407 167.932 241.391 167.95C241.373 167.969 241.257 168.054 241.132 168.141L241.132 168.141C241.004 168.226 240.876 168.31 240.845 168.325C240.816 168.341 240.763 168.382 240.732 168.41C240.698 168.438 240.616 168.488 240.548 168.519C240.479 168.55 240.345 168.625 240.251 168.685C240.157 168.747 239.898 168.885 239.673 168.994C239.448 169.104 239.238 169.207 239.204 169.225C239.17 169.241 239.023 169.307 238.876 169.366C238.8 169.397 238.712 169.432 238.633 169.463C238.56 169.492 238.494 169.518 238.454 169.535C238.366 169.569 238.135 169.65 237.938 169.719C237.741 169.788 237.495 169.866 237.391 169.891C237.288 169.919 237.176 169.944 237.141 169.95C237.107 169.954 237.038 169.975 236.985 169.997C236.932 170.016 236.841 170.041 236.782 170.05C236.723 170.057 236.56 170.091 236.423 170.122C236.285 170.157 236.016 170.204 235.829 170.229C235.724 170.242 235.608 170.257 235.508 170.269C235.426 170.28 235.356 170.289 235.313 170.294C235.258 170.3 235.168 170.308 235.076 170.316C235.013 170.321 234.948 170.327 234.891 170.332C234.754 170.344 234.373 170.354 234.048 170.354C233.72 170.357 233.298 170.344 233.11 170.332C232.92 170.319 232.666 170.294 232.548 170.275C232.426 170.26 232.195 170.229 232.032 170.204C231.87 170.182 231.588 170.132 231.407 170.094C231.226 170.057 230.951 169.991 230.798 169.947C230.641 169.904 230.348 169.813 230.141 169.747C229.935 169.682 229.62 169.572 229.438 169.504C229.257 169.438 228.991 169.325 228.845 169.26C228.698 169.194 228.416 169.054 228.22 168.954C228.023 168.85 227.704 168.679 227.516 168.566C227.326 168.457 227.145 168.341 227.11 168.313C227.076 168.282 226.963 168.204 226.86 168.138C226.757 168.069 226.51 167.891 226.313 167.738C226.116 167.585 225.766 167.291 225.535 167.082C225.304 166.872 224.951 166.525 224.754 166.31C224.554 166.094 224.263 165.76 224.11 165.566C223.954 165.369 223.754 165.104 223.663 164.972C223.57 164.838 223.445 164.654 223.385 164.56L223.385 164.56C223.323 164.466 223.248 164.354 223.22 164.31C223.191 164.266 223.129 164.154 223.079 164.06C223.032 163.966 222.976 163.866 222.954 163.841C222.932 163.816 222.857 163.675 222.785 163.529C222.734 163.429 222.679 163.316 222.638 163.233C222.619 163.193 222.602 163.16 222.591 163.138C222.583 163.119 222.569 163.09 222.553 163.052C222.508 162.954 222.439 162.802 222.376 162.663C222.291 162.469 222.216 162.279 222.21 162.241C222.207 162.2 222.195 162.163 222.185 162.154C222.173 162.144 222.101 161.957 222.023 161.732C221.945 161.507 221.832 161.116 221.77 160.857C221.74 160.734 221.708 160.601 221.679 160.483C221.648 160.354 221.622 160.244 221.607 160.185C221.582 160.072 221.557 159.913 221.551 159.825C221.545 159.741 221.532 159.654 221.523 159.638C221.513 159.622 221.476 159.354 221.441 159.044C221.398 158.635 221.379 158.279 221.379 157.732C221.379 157.197 221.398 156.819 221.441 156.419C221.473 156.11 221.516 155.772 221.535 155.669C221.551 155.566 221.591 155.357 221.626 155.2C221.657 155.044 221.729 154.75 221.782 154.544C221.835 154.338 221.948 153.96 222.035 153.7C222.123 153.444 222.235 153.141 222.285 153.029C222.335 152.916 222.376 152.816 222.376 152.804C222.376 152.788 222.441 152.641 222.52 152.475C222.598 152.307 222.726 152.044 222.804 151.888C222.882 151.732 222.963 151.585 222.985 151.56C223.007 151.535 223.032 151.485 223.041 151.45C223.054 151.416 223.088 151.36 223.126 151.325C223.16 151.291 223.191 151.247 223.188 151.232C223.188 151.216 223.223 151.15 223.26 151.091C223.301 151.032 223.388 150.897 223.454 150.794C223.523 150.691 223.648 150.51 223.735 150.388C223.82 150.269 223.979 150.057 224.088 149.919C224.198 149.782 224.454 149.488 224.654 149.269C224.854 149.047 225.163 148.729 225.345 148.563C225.526 148.394 225.788 148.16 225.926 148.041C226.066 147.922 226.241 147.779 226.316 147.722C226.391 147.666 226.51 147.575 226.579 147.522C226.648 147.469 226.845 147.335 227.016 147.219C227.188 147.104 227.351 147 227.376 146.988C227.401 146.975 227.463 146.938 227.516 146.904C227.566 146.869 227.651 146.819 227.704 146.791C227.754 146.766 227.91 146.682 228.048 146.607C228.185 146.532 228.432 146.404 228.595 146.325C228.757 146.244 229.038 146.116 229.22 146.044C229.401 145.969 229.757 145.841 230.016 145.754C230.273 145.669 230.62 145.56 230.782 145.516C230.945 145.469 231.298 145.391 231.563 145.341C231.829 145.291 232.195 145.229 232.376 145.2C232.557 145.172 232.782 145.15 232.876 145.157C232.97 145.16 233.07 145.154 233.095 145.144ZM239.812 131.335C239.89 131.282 240.022 131.222 240.109 131.2C240.197 131.175 240.328 131.157 240.406 131.157C240.484 131.157 240.634 131.175 240.744 131.2C240.85 131.225 240.997 131.288 241.069 131.338C241.144 131.385 241.25 131.482 241.309 131.547C241.369 131.613 241.456 131.757 241.506 131.866C241.575 132.016 241.594 132.107 241.594 132.269C241.594 132.388 241.572 132.56 241.544 132.654C241.515 132.747 241.459 132.875 241.422 132.935C241.381 132.994 241.303 133.091 241.247 133.147C241.187 133.207 241.05 133.294 240.937 133.347C240.815 133.407 240.665 133.45 240.562 133.46C240.469 133.466 240.312 133.457 240.219 133.441C240.125 133.422 240.012 133.391 239.969 133.372C239.925 133.354 239.856 133.319 239.812 133.294C239.769 133.269 239.681 133.194 239.615 133.132C239.55 133.066 239.456 132.929 239.406 132.825C239.356 132.722 239.303 132.547 239.287 132.435C239.269 132.288 239.272 132.185 239.303 132.06C239.328 131.966 239.375 131.832 239.412 131.763C239.447 131.694 239.522 131.591 239.575 131.535C239.628 131.475 239.734 131.388 239.812 131.335ZM248.1 131.294C248.184 131.25 248.303 131.204 248.369 131.185H248.365C248.431 131.169 248.597 131.163 248.734 131.169C248.928 131.182 249.022 131.204 249.15 131.269C249.244 131.319 249.375 131.413 249.444 131.482C249.512 131.55 249.609 131.679 249.659 131.763C249.709 131.85 249.759 131.985 249.772 132.069C249.787 132.15 249.806 132.216 249.819 132.216C249.834 132.216 249.844 132.257 249.844 132.31C249.844 132.363 249.834 132.41 249.819 132.416C249.806 132.422 249.787 132.482 249.775 132.547C249.762 132.616 249.709 132.754 249.653 132.857C249.6 132.96 249.519 133.085 249.472 133.132C249.428 133.182 249.284 133.272 249.159 133.335C248.94 133.441 248.906 133.45 248.64 133.45C248.369 133.45 248.34 133.444 248.109 133.325C247.969 133.254 247.828 133.154 247.775 133.091C247.728 133.032 247.647 132.897 247.594 132.794C247.519 132.641 247.5 132.563 247.497 132.357C247.49 132.182 247.506 132.054 247.544 131.935C247.575 131.841 247.653 131.7 247.715 131.622C247.778 131.544 247.856 131.457 247.89 131.425C247.925 131.394 248.019 131.335 248.1 131.294ZM256.269 131.31C256.353 131.26 256.481 131.204 256.55 131.188C256.619 131.169 256.781 131.16 256.909 131.169C257.037 131.175 257.212 131.207 257.294 131.238C257.378 131.269 257.525 131.366 257.619 131.45C257.733 131.555 257.824 131.674 257.89 131.81C257.978 131.994 257.987 132.041 257.987 132.31C257.987 132.579 257.978 132.625 257.894 132.791C257.84 132.891 257.75 133.032 257.69 133.1C257.631 133.169 257.525 133.257 257.456 133.297C257.387 133.338 257.247 133.394 257.144 133.422C257.003 133.46 256.897 133.466 256.722 133.447C256.565 133.433 256.43 133.396 256.315 133.338C256.222 133.291 256.084 133.185 256.009 133.1C255.934 133.019 255.837 132.882 255.797 132.794C255.75 132.7 255.712 132.557 255.7 132.435C255.69 132.322 255.7 132.157 255.719 132.06C255.74 131.966 255.806 131.804 255.869 131.7C255.931 131.597 256.009 131.488 256.047 131.457C256.084 131.429 256.181 131.363 256.269 131.31ZM232.987 146.797C233.072 146.757 233.165 146.716 233.19 146.707C233.215 146.697 233.24 146.688 233.244 146.688C233.25 146.685 233.253 147.997 233.253 152.513L232.994 152.51C232.853 152.51 232.715 152.5 232.69 152.491C232.665 152.479 232.509 152.457 232.347 152.438C232.184 152.422 231.881 152.385 231.675 152.357C231.469 152.332 231.187 152.288 231.05 152.266C231.007 152.258 230.956 152.249 230.901 152.239C230.777 152.217 230.636 152.192 230.534 152.172C230.387 152.147 230.197 152.104 230.112 152.079C230.025 152.05 229.903 152.025 229.84 152.022C229.775 152.016 229.722 152.004 229.722 151.988C229.722 151.975 229.694 151.966 229.659 151.966C229.625 151.966 229.597 151.947 229.597 151.925C229.597 151.907 229.653 151.704 229.725 151.482C229.797 151.26 229.915 150.916 229.99 150.722C230.065 150.532 230.184 150.254 230.253 150.107C230.322 149.96 230.372 149.825 230.362 149.81C230.353 149.794 230.359 149.775 230.375 149.769C230.387 149.766 230.506 149.569 230.631 149.332C230.759 149.094 230.89 148.854 230.925 148.797C230.959 148.738 231.075 148.569 231.181 148.416C231.287 148.263 231.484 148.013 231.619 147.857C231.756 147.7 231.984 147.475 232.128 147.357C232.275 147.235 232.481 147.075 232.587 147.004C232.697 146.932 232.794 146.872 232.806 146.872C232.822 146.872 232.9 146.838 232.987 146.797ZM234.737 152.491L234.747 149.588L234.756 146.685L234.856 146.729L234.856 146.729C234.913 146.754 235.025 146.804 235.112 146.841C235.197 146.882 235.365 146.975 235.487 147.057C235.609 147.135 235.812 147.291 235.94 147.404C236.069 147.519 236.294 147.75 236.434 147.922C236.578 148.091 236.803 148.394 236.934 148.591C237.062 148.788 237.278 149.154 237.409 149.404C237.54 149.654 237.706 149.991 237.775 150.154C237.847 150.316 237.975 150.635 238.059 150.857C238.144 151.079 238.256 151.41 238.312 151.591C238.369 151.772 238.4 151.929 238.387 151.938C238.375 151.947 238.237 151.988 238.081 152.025C237.925 152.066 237.665 152.122 237.503 152.157C237.34 152.191 237.094 152.241 236.956 152.266C236.819 152.294 236.644 152.322 236.565 152.329C236.509 152.333 236.389 152.349 236.261 152.365C236.211 152.372 236.161 152.379 236.112 152.385C235.94 152.41 235.681 152.441 235.534 152.45C235.387 152.463 235.253 152.485 235.237 152.497C235.222 152.51 235.1 152.513 234.737 152.491ZM229.956 147.332C230.04 147.304 230.147 147.254 230.187 147.219C230.228 147.185 230.265 147.172 230.272 147.188C230.278 147.204 230.265 147.235 230.24 147.257C230.219 147.275 230.122 147.4 230.028 147.529C229.934 147.657 229.803 147.847 229.737 147.95C229.672 148.054 229.553 148.25 229.472 148.388C229.39 148.525 229.231 148.829 229.119 149.06C229.006 149.291 228.853 149.622 228.781 149.794C228.709 149.966 228.597 150.263 228.528 150.45C228.459 150.641 228.356 150.944 228.297 151.132C228.237 151.316 228.187 151.466 228.181 151.466C228.178 151.466 228.075 151.429 227.956 151.379C227.834 151.329 227.497 151.169 227.206 151.029C226.912 150.885 226.669 150.76 226.659 150.75C226.65 150.738 226.609 150.713 226.565 150.691C226.522 150.669 226.415 150.607 226.325 150.55C226.237 150.497 226.084 150.397 225.981 150.329C225.881 150.263 225.797 150.204 225.79 150.197C225.787 150.191 225.815 150.141 225.853 150.088C225.894 150.035 225.994 149.922 226.081 149.841C226.165 149.757 226.294 149.644 226.362 149.585C226.431 149.529 226.49 149.472 226.494 149.46C226.5 149.444 226.712 149.269 226.969 149.069C227.225 148.866 227.494 148.66 227.569 148.607C227.64 148.557 227.722 148.5 227.75 148.482C227.768 148.471 227.853 148.419 227.964 148.35C228.024 148.313 228.091 148.271 228.159 148.229C228.356 148.107 228.622 147.95 228.747 147.885C228.872 147.819 228.972 147.757 228.972 147.747C228.972 147.738 228.997 147.729 229.025 147.725C229.056 147.722 229.244 147.644 229.44 147.55C229.637 147.457 229.869 147.36 229.956 147.332ZM238.069 147.675C237.937 147.491 237.812 147.307 237.787 147.269C237.75 147.21 237.753 147.207 237.803 147.229C237.837 147.244 237.953 147.291 238.065 147.332C238.178 147.375 238.415 147.479 238.597 147.566C238.778 147.65 238.95 147.722 238.978 147.725C239.009 147.729 239.034 147.741 239.034 147.757C239.034 147.769 239.172 147.847 239.337 147.935C239.506 148.019 239.722 148.138 239.815 148.197C239.909 148.257 240.05 148.344 240.128 148.391C240.206 148.441 240.319 148.516 240.378 148.566C240.437 148.613 240.612 148.744 240.769 148.86C240.922 148.975 241.184 149.188 241.347 149.329C241.509 149.469 241.778 149.722 241.94 149.888C242.209 150.163 242.231 150.194 242.178 150.225C242.147 150.247 241.997 150.341 241.844 150.435L241.843 150.435C241.693 150.529 241.494 150.654 241.403 150.707C241.312 150.763 241.034 150.91 240.784 151.032C240.534 151.154 240.219 151.304 240.081 151.36C239.944 151.419 239.819 151.466 239.803 151.466C239.787 151.466 239.781 151.46 239.794 151.45C239.806 151.441 239.74 151.213 239.647 150.944C239.553 150.672 239.412 150.282 239.331 150.075C239.25 149.869 239.09 149.5 238.975 149.257C238.856 148.997 238.756 148.822 238.737 148.835C238.719 148.847 238.715 148.841 238.728 148.819C238.744 148.794 238.662 148.625 238.531 148.397C238.406 148.185 238.2 147.86 238.069 147.675ZM224.715 151.516C224.712 151.5 224.744 151.454 224.784 151.413C224.825 151.372 224.865 151.341 224.875 151.341C224.884 151.341 224.934 151.372 224.984 151.41C225.034 151.45 225.19 151.554 225.328 151.644C225.465 151.735 225.728 151.891 225.909 151.991C226.09 152.094 226.378 152.247 226.55 152.335C226.722 152.419 227.059 152.575 227.3 152.682C227.54 152.785 227.753 152.872 227.775 152.872C227.8 152.872 227.809 152.904 227.803 152.96C227.797 153.007 227.769 153.172 227.74 153.325C227.726 153.413 227.706 153.531 227.687 153.645C227.672 153.734 227.658 153.821 227.647 153.888C227.624 154.016 227.596 154.19 227.577 154.314C227.573 154.342 227.569 154.367 227.565 154.388C227.562 154.411 227.559 154.441 227.554 154.476C227.536 154.619 227.507 154.842 227.484 155.029C227.456 155.26 227.44 155.497 227.444 155.554C227.45 155.607 227.444 155.654 227.431 155.654C227.419 155.654 227.412 155.76 227.415 155.888C227.422 156.016 227.412 156.122 227.4 156.122C227.387 156.122 227.372 156.319 227.347 156.997H222.862L222.884 156.816C222.897 156.719 222.912 156.547 222.919 156.435C222.928 156.322 222.965 156.057 223 155.841C223.037 155.625 223.109 155.282 223.162 155.075C223.215 154.869 223.3 154.56 223.353 154.388C223.406 154.216 223.515 153.907 223.597 153.7C223.678 153.494 223.784 153.241 223.828 153.138C223.839 153.114 223.85 153.089 223.861 153.064C223.898 152.983 223.933 152.906 223.95 152.872C223.969 152.829 224.081 152.619 224.2 152.404C224.319 152.188 224.45 151.96 224.49 151.897C224.531 151.832 224.569 151.763 224.572 151.744C224.578 151.722 224.612 151.672 224.653 151.625C224.69 151.582 224.719 151.532 224.715 151.516ZM242.722 151.613C242.834 151.541 242.965 151.454 243.012 151.413C243.062 151.372 243.119 151.341 243.137 151.341C243.159 151.341 243.203 151.388 243.24 151.444C243.278 151.497 243.359 151.635 243.425 151.747C243.446 151.784 243.475 151.834 243.507 151.889C243.571 152.001 243.65 152.138 243.715 152.247C243.809 152.41 243.969 152.719 244.072 152.935C244.175 153.15 244.322 153.482 244.397 153.669C244.469 153.86 244.581 154.169 244.64 154.357C244.7 154.547 244.79 154.875 244.844 155.091C244.894 155.307 244.972 155.7 245.012 155.966C245.056 156.232 245.1 156.572 245.128 156.997H240.659L240.634 156.635C240.622 156.435 240.6 156.266 240.587 156.26C240.575 156.254 240.572 156.144 240.581 156.022C240.59 155.897 240.584 155.669 240.569 155.513C240.559 155.433 240.545 155.305 240.529 155.167C240.515 155.042 240.501 154.909 240.487 154.794C240.459 154.554 240.387 154.069 240.325 153.716C240.311 153.633 240.297 153.551 240.284 153.474C240.242 153.223 240.208 153.022 240.203 152.982C240.187 152.891 240.19 152.888 240.462 152.782C240.612 152.725 240.984 152.557 241.284 152.413C241.584 152.266 241.984 152.057 242.175 151.944C242.208 151.924 242.243 151.903 242.279 151.882C242.446 151.782 242.629 151.672 242.722 151.613ZM229.184 153.608C229.195 153.543 229.203 153.495 229.206 153.475C229.215 153.419 229.24 153.372 229.262 153.372C229.281 153.372 229.35 153.388 229.409 153.404C229.469 153.419 229.659 153.469 229.831 153.51C230.003 153.55 230.375 153.629 230.659 153.682C230.944 153.735 231.281 153.791 231.409 153.81C231.537 153.825 231.825 153.86 232.05 153.885C232.272 153.91 232.49 153.929 232.534 153.929C232.578 153.929 232.756 153.941 233.253 153.982V157.013L228.831 156.997L228.806 156.772C228.794 156.647 228.797 156.532 228.812 156.513C228.825 156.497 228.856 156.272 228.878 156.013C228.889 155.88 228.9 155.746 228.908 155.638C228.916 155.539 228.922 155.463 228.925 155.435C228.928 155.375 228.953 155.144 228.984 154.919C229.012 154.697 229.069 154.304 229.112 154.044C229.14 153.882 229.166 153.719 229.184 153.608ZM238.362 153.466C238.515 153.429 238.65 153.394 238.656 153.385C238.662 153.379 238.694 153.372 238.725 153.372C238.759 153.372 238.784 153.391 238.784 153.413C238.784 153.432 238.819 153.647 238.859 153.888C238.903 154.129 238.956 154.488 238.981 154.685C239.009 154.882 239.04 155.129 239.053 155.232C239.065 155.335 239.078 155.463 239.081 155.513C239.087 155.566 239.109 155.832 239.128 156.107C239.15 156.382 239.181 156.613 239.197 156.622C239.212 156.632 239.222 156.71 239.215 156.8C239.209 156.888 239.2 156.969 239.19 156.979C239.181 156.988 238.175 156.997 236.956 156.997C235.734 156.997 234.74 156.991 234.744 156.982C234.75 156.972 234.753 156.294 234.753 153.982L235.181 153.957C235.419 153.941 235.775 153.91 235.972 153.885C236.083 153.872 236.219 153.855 236.342 153.839C236.436 153.828 236.521 153.817 236.581 153.81C236.719 153.791 236.978 153.75 237.159 153.716C237.34 153.685 237.622 153.629 237.784 153.594C237.888 153.572 238.03 153.54 238.161 153.511C238.235 153.494 238.306 153.479 238.362 153.466ZM223.019 159.716C222.99 159.554 222.944 159.204 222.915 158.944L222.862 158.466H227.331L227.356 158.847C227.372 159.06 227.39 159.247 227.403 159.263C227.415 159.282 227.425 159.469 227.428 159.685C227.431 159.9 227.459 160.244 227.484 160.45C227.493 160.513 227.502 160.58 227.511 160.647C227.533 160.8 227.554 160.95 227.562 161.029C227.578 161.141 227.619 161.416 227.656 161.638C227.69 161.863 227.737 162.122 227.756 162.216C227.775 162.31 227.794 162.429 227.797 162.479C227.8 162.566 227.784 162.575 227.472 162.707C227.29 162.782 227.062 162.879 226.962 162.929C226.862 162.975 226.781 163.022 226.784 163.038C226.784 163.05 226.772 163.057 226.759 163.054C226.747 163.047 226.669 163.069 226.587 163.1C226.506 163.129 226.447 163.169 226.456 163.185C226.465 163.204 226.453 163.21 226.431 163.2C226.409 163.191 226.365 163.207 226.328 163.238C226.294 163.269 226.25 163.297 226.228 163.304C226.206 163.307 226.025 163.404 225.822 163.519C225.622 163.632 225.353 163.797 225.225 163.885C225.097 163.972 224.965 164.066 224.931 164.091C224.875 164.135 224.865 164.132 224.809 164.06C224.775 164.016 224.675 163.869 224.587 163.732C224.5 163.594 224.347 163.329 224.24 163.138C224.137 162.95 223.978 162.635 223.887 162.444C223.797 162.25 223.669 161.96 223.606 161.804C223.544 161.644 223.44 161.344 223.375 161.138C223.312 160.932 223.215 160.594 223.165 160.388C223.112 160.182 223.047 159.879 223.019 159.716ZM228.8 158.797C228.812 158.763 228.819 158.672 228.815 158.6L228.809 158.469H233.253V161.485L233.134 161.488C233.069 161.491 232.828 161.51 232.597 161.529C232.362 161.547 231.984 161.585 231.753 161.61C231.519 161.638 231.14 161.694 230.909 161.738C230.675 161.782 230.45 161.822 230.409 161.829C230.365 161.835 230.259 161.854 230.175 161.872C230.087 161.891 229.84 161.95 229.628 162.004C229.412 162.054 229.234 162.091 229.231 162.088C229.228 162.082 229.19 161.872 229.147 161.625C229.103 161.375 229.047 161.01 229.019 160.813C229.002 160.684 228.981 160.531 228.964 160.407C228.954 160.338 228.946 160.277 228.94 160.235C228.925 160.113 228.912 159.994 228.912 159.969C228.912 159.941 228.897 159.71 228.878 159.454C228.856 159.194 228.825 158.957 228.809 158.922C228.79 158.888 228.787 158.832 228.8 158.797ZM234.775 161.485C234.762 161.491 234.753 160.816 234.753 159.982V158.466H239.19L239.209 158.616C239.219 158.697 239.212 158.791 239.194 158.825C239.178 158.86 239.147 159.113 239.128 159.388C239.109 159.663 239.059 160.169 239.015 160.513C238.972 160.857 238.9 161.354 238.853 161.616C238.806 161.879 238.756 162.091 238.744 162.091C238.731 162.091 238.462 162.029 238.15 161.954C237.837 161.879 237.312 161.772 236.987 161.716C236.659 161.663 236.34 161.622 236.275 161.629C236.209 161.635 236.159 161.629 236.159 161.616C236.159 161.6 236 161.579 235.806 161.56C235.67 161.549 235.479 161.532 235.316 161.517C235.246 161.511 235.181 161.505 235.128 161.5C234.947 161.485 234.787 161.475 234.775 161.485ZM240.594 159.435C240.594 159.307 240.609 159.035 240.628 158.835L240.665 158.466H245.159L245.14 158.538C245.134 158.575 245.112 158.754 245.097 158.935C245.078 159.116 245.05 159.335 245.034 159.419C245.025 159.464 245.009 159.545 244.991 159.639C244.975 159.728 244.956 159.828 244.937 159.919C244.903 160.11 244.837 160.397 244.794 160.56C244.753 160.722 244.669 161.004 244.612 161.185C244.553 161.366 244.462 161.616 244.409 161.741C244.356 161.863 244.322 161.982 244.331 161.997C244.337 162.016 244.331 162.029 244.315 162.029C244.297 162.029 244.284 162.044 244.284 162.06C244.284 162.079 244.159 162.341 244.012 162.647C243.862 162.95 243.712 163.244 243.675 163.294C243.64 163.347 243.578 163.45 243.537 163.529C243.497 163.607 243.4 163.763 243.325 163.882C243.25 163.997 243.175 164.097 243.159 164.107C243.14 164.116 243.103 164.104 243.075 164.085C243.054 164.069 243.021 164.047 242.994 164.03C242.985 164.024 242.976 164.018 242.969 164.013C242.937 163.997 242.844 163.941 242.762 163.891C242.678 163.841 242.584 163.779 242.55 163.747C242.515 163.719 242.375 163.632 242.237 163.554C242.198 163.531 242.157 163.508 242.116 163.484C242.012 163.425 241.912 163.368 241.862 163.341C241.794 163.304 241.722 163.26 241.706 163.247C241.687 163.235 241.647 163.216 241.612 163.213C241.578 163.207 241.54 163.191 241.534 163.182C241.525 163.169 241.378 163.094 241.206 163.01C241.034 162.925 240.737 162.794 240.55 162.716C240.219 162.579 240.206 162.572 240.206 162.482C240.209 162.432 240.253 162.141 240.306 161.841C240.359 161.541 240.412 161.216 240.422 161.122C240.434 161.029 240.45 160.9 240.456 160.841C240.459 160.817 240.463 160.777 240.47 160.727C240.479 160.651 240.49 160.555 240.5 160.466C240.519 160.319 240.544 160.097 240.556 159.975C240.572 159.829 240.569 159.747 240.55 159.75C240.531 159.75 240.534 159.732 240.556 159.71C240.581 159.685 240.597 159.585 240.594 159.435ZM231.64 163.104C231.831 163.079 232.175 163.038 232.406 163.016C232.64 162.994 232.925 162.975 233.25 162.969V165.875C233.25 168.629 233.247 168.779 233.197 168.76C233.165 168.747 233.028 168.688 232.89 168.625C232.753 168.563 232.622 168.494 232.594 168.475C232.569 168.454 232.422 168.338 232.265 168.222C232.112 168.104 231.906 167.925 231.806 167.822C231.709 167.722 231.619 167.647 231.609 167.657C231.6 167.663 231.594 167.657 231.6 167.638C231.606 167.619 231.547 167.529 231.469 167.435C231.39 167.341 231.256 167.16 231.169 167.032C231.081 166.9 230.95 166.697 230.875 166.579C230.8 166.457 230.675 166.232 230.594 166.079C230.509 165.922 230.362 165.619 230.265 165.407C230.169 165.191 230.047 164.904 229.994 164.766C229.944 164.629 229.825 164.294 229.562 163.532L229.712 163.485C229.794 163.46 230.022 163.404 230.219 163.363C230.419 163.319 230.74 163.254 230.937 163.216C231.137 163.179 231.453 163.129 231.64 163.104ZM234.75 168.782L234.753 165.872L234.759 162.963L235.09 162.979C235.272 162.988 235.562 163.013 235.734 163.029C235.906 163.047 236.197 163.082 236.375 163.107C236.556 163.132 236.894 163.185 237.125 163.229C237.359 163.269 237.737 163.354 237.965 163.41C238.197 163.466 238.39 163.529 238.4 163.547C238.406 163.563 238.337 163.794 238.25 164.063C238.159 164.329 237.994 164.772 237.884 165.047C237.775 165.322 237.59 165.722 237.478 165.938C237.365 166.15 237.256 166.357 237.237 166.391C237.215 166.425 237.115 166.585 237.015 166.75C236.915 166.913 236.797 167.091 236.753 167.144C236.709 167.197 236.631 167.294 236.578 167.363C236.528 167.429 236.49 167.497 236.497 167.516C236.503 167.532 236.497 167.535 236.487 167.522C236.478 167.51 236.397 167.588 236.306 167.694C236.215 167.8 236.1 167.925 236.05 167.966C235.997 168.01 235.909 168.091 235.853 168.147C235.797 168.204 235.75 168.241 235.75 168.235C235.75 168.225 235.678 168.269 235.587 168.335C235.494 168.4 235.394 168.469 235.359 168.491C235.325 168.513 235.222 168.566 235.125 168.613C235.031 168.657 234.909 168.713 234.75 168.782ZM227.106 164.488C227.415 164.332 227.775 164.16 227.903 164.104L227.917 164.098C228.042 164.047 228.15 164.003 228.162 164C228.175 164 228.222 164.122 228.269 164.272C228.315 164.422 228.412 164.716 228.487 164.922C228.565 165.129 228.684 165.438 228.753 165.61C228.822 165.782 228.997 166.16 229.14 166.454C229.284 166.744 229.45 167.057 229.506 167.144C229.562 167.232 229.647 167.366 229.694 167.441C229.723 167.488 229.764 167.549 229.8 167.603C229.821 167.635 229.841 167.665 229.856 167.688C229.897 167.747 229.984 167.872 230.05 167.966C230.115 168.06 230.197 168.16 230.231 168.191C230.265 168.225 230.281 168.25 230.262 168.25C230.247 168.25 230.05 168.175 229.825 168.082C229.603 167.988 229.322 167.866 229.2 167.807C229.081 167.747 228.862 167.638 228.715 167.563C228.572 167.488 228.431 167.41 228.403 167.388C228.378 167.369 228.294 167.319 228.219 167.279C228.14 167.235 227.994 167.144 227.89 167.075C227.813 167.022 227.688 166.935 227.574 166.857C227.536 166.83 227.499 166.805 227.465 166.782C227.337 166.688 227.128 166.529 226.997 166.425C226.869 166.319 226.665 166.15 226.547 166.047C226.428 165.944 226.206 165.732 226.053 165.579C225.903 165.422 225.781 165.288 225.781 165.282C225.781 165.272 225.834 165.229 225.897 165.188C225.931 165.165 225.996 165.123 226.07 165.075C226.137 165.033 226.21 164.985 226.278 164.941C226.425 164.847 226.797 164.644 227.106 164.488ZM239.687 164.375C239.744 164.194 239.794 164.035 239.8 164.022C239.809 164.01 239.819 164 239.828 164C239.834 164 239.95 164.041 240.084 164.094C240.219 164.147 240.347 164.204 240.372 164.219C240.4 164.235 240.644 164.363 240.919 164.5C241.194 164.638 241.44 164.772 241.465 164.794C241.494 164.816 241.569 164.863 241.637 164.897C241.706 164.935 241.862 165.029 241.981 165.11C242.103 165.188 242.206 165.269 242.209 165.285C242.212 165.297 242.081 165.45 241.912 165.616C241.744 165.785 241.403 166.091 241.153 166.297C240.906 166.504 240.662 166.7 240.612 166.735C240.593 166.748 240.568 166.765 240.54 166.784C240.496 166.814 240.445 166.848 240.406 166.875C240.359 166.905 240.279 166.958 240.203 167.009C240.174 167.029 240.145 167.049 240.119 167.066C240.028 167.125 239.875 167.225 239.778 167.288C239.684 167.347 239.325 167.538 238.981 167.71C238.637 167.882 238.231 168.069 238.075 168.125C237.922 168.182 237.778 168.244 237.753 168.263C237.725 168.288 237.715 168.285 237.715 168.257C237.715 168.235 237.731 168.21 237.747 168.204C237.765 168.194 237.815 168.135 237.856 168.069C237.9 168.004 237.984 167.888 238.044 167.813C238.1 167.735 238.14 167.657 238.128 167.641C238.119 167.622 238.122 167.619 238.14 167.632C238.156 167.641 238.225 167.56 238.294 167.447C238.362 167.332 238.45 167.188 238.487 167.129C238.515 167.083 238.566 166.989 238.618 166.895C238.636 166.862 238.654 166.829 238.672 166.797C238.683 166.776 238.695 166.751 238.709 166.724C238.776 166.595 238.87 166.412 238.937 166.272C239.022 166.104 239.119 165.9 239.15 165.819C239.168 165.775 239.199 165.7 239.232 165.618C239.261 165.548 239.291 165.473 239.319 165.407C239.378 165.26 239.444 165.085 239.465 165.016C239.487 164.947 239.522 164.847 239.544 164.797C239.569 164.744 239.631 164.554 239.687 164.375Z" fill="white"/>
<path fill-rule="evenodd" clip-rule="evenodd" d="M245.924 161.326C245.748 161.34 245.52 161.381 245.418 161.423C245.315 161.464 245.173 161.532 245.107 161.58C245.041 161.628 244.908 161.737 244.811 161.828C244.715 161.918 244.574 162.11 244.494 162.257C244.419 162.402 244.342 162.652 244.327 162.811C244.31 162.977 244.312 163.206 244.333 163.319C244.354 163.472 244.734 164.229 245.589 165.85C246.379 167.348 246.8 168.195 246.777 168.227C246.759 168.256 246.621 168.316 246.469 168.363C246.303 168.411 246.114 168.511 245.971 168.626C245.841 168.727 245.678 168.892 245.608 168.994C245.535 169.092 245.421 169.336 245.36 169.532C245.287 169.767 245.266 170.001 245.297 170.221C245.343 170.531 245.432 170.713 246.417 172.581C247.199 174.063 247.561 174.699 247.761 174.954C247.908 175.145 248.205 175.474 248.423 175.687C248.64 175.9 248.971 176.178 249.16 176.314C249.35 176.45 249.692 176.663 249.931 176.793C250.17 176.923 250.644 177.112 250.983 177.222C251.328 177.328 251.857 177.449 252.159 177.487C252.461 177.524 252.967 177.539 253.289 177.527C253.607 177.51 254.127 177.439 254.45 177.367C254.868 177.265 255.221 177.138 255.714 176.904C256.212 176.667 256.517 176.487 256.841 176.244C257.084 176.057 257.437 175.745 257.623 175.549C257.808 175.353 258.088 175.015 258.245 174.802C258.398 174.583 258.626 174.207 258.75 173.958C258.877 173.714 259.057 173.258 259.151 172.94C259.251 172.619 259.356 172.11 259.386 171.806C259.416 171.502 259.44 171.076 259.433 170.863C259.431 170.648 259.394 170.267 259.355 170.019C259.311 169.774 259.224 169.373 259.16 169.139C259.064 168.783 258.851 168.331 257.933 166.54C257.161 165.039 256.753 164.29 256.603 164.093C256.478 163.943 256.311 163.763 256.226 163.702C256.142 163.642 255.932 163.529 255.759 163.463C255.587 163.397 255.293 163.349 255.096 163.361C254.826 163.372 254.666 163.417 254.41 163.552C254.225 163.65 254 163.807 253.906 163.903C253.741 164.075 253.736 164.078 253.558 163.988C253.458 163.936 253.275 163.862 253.144 163.826C253.022 163.792 252.795 163.761 252.653 163.764C252.476 163.765 252.254 163.83 251.969 163.961C251.563 164.148 251.535 164.17 251.297 164.525L251.05 164.891C250.179 164.892 250.15 164.9 249.702 165.157L249.238 165.421C247.31 161.841 247.278 161.792 247.054 161.641C246.928 161.551 246.692 161.439 246.53 161.393C246.373 161.345 246.095 161.314 245.924 161.326ZM245.381 162.956C245.389 162.873 245.464 162.729 245.543 162.642C245.621 162.554 245.697 162.475 245.72 162.456C245.741 162.445 245.849 162.427 245.961 162.415C246.07 162.41 246.244 162.442 246.344 162.494C246.517 162.587 246.582 162.697 249.948 168.954L250.127 168.984C250.229 169.003 250.392 168.976 250.505 168.916C250.653 168.838 250.704 168.772 250.742 168.595C250.786 168.381 250.775 168.347 250.396 167.629C250.137 167.137 249.995 166.818 249.984 166.686C249.971 166.575 249.996 166.411 250.041 166.322C250.086 166.232 250.21 166.121 250.339 166.053C250.508 165.964 250.601 165.954 251.024 166.085L251.43 166.854C251.728 167.419 251.881 167.659 252.002 167.753C252.089 167.818 252.239 167.877 252.329 167.875C252.417 167.868 252.536 167.845 252.593 167.815C252.649 167.785 252.733 167.708 252.786 167.647C252.832 167.584 252.878 167.461 252.887 167.378C252.9 167.266 252.793 167.001 252.478 166.354C252.093 165.574 252.054 165.463 252.098 165.322C252.124 165.236 252.22 165.107 252.307 165.035C252.409 164.955 252.55 164.9 252.677 164.892C252.796 164.881 252.955 164.909 253.039 164.957C253.16 165.024 253.294 165.216 253.674 165.887L253.681 165.899C254.146 166.72 254.158 166.741 254.334 166.765C254.436 166.784 254.578 166.768 254.66 166.725C254.737 166.684 254.836 166.599 254.884 166.528C254.93 166.464 254.974 166.362 254.986 166.297C254.997 166.232 254.92 166.011 254.793 165.77C254.641 165.482 254.572 165.289 254.574 165.131C254.568 165.009 254.627 164.821 254.694 164.713C254.805 164.55 254.854 164.518 255.047 164.475C255.169 164.456 255.348 164.473 255.453 164.523C255.629 164.607 255.648 164.643 256.885 167.027C258.079 169.341 258.139 169.467 258.221 169.883C258.265 170.115 258.312 170.49 258.33 170.711C258.34 170.928 258.337 171.284 258.321 171.502C258.297 171.718 258.208 172.158 258.122 172.479C258.03 172.803 257.891 173.198 257.811 173.358C257.732 173.518 257.572 173.799 257.454 173.986C257.336 174.172 257.137 174.441 257.015 174.584C256.891 174.722 256.663 174.96 256.505 175.109C256.294 175.306 256.023 175.475 255.448 175.778C254.812 176.113 254.591 176.204 254.183 176.301C253.907 176.361 253.451 176.418 253.169 176.429C252.884 176.435 252.473 176.416 252.26 176.384C252.044 176.347 251.658 176.262 251.41 176.19C251.162 176.117 250.806 175.99 250.628 175.901C250.447 175.819 250.142 175.639 249.942 175.508C249.742 175.378 249.468 175.168 249.33 175.044C249.192 174.92 248.954 174.679 248.802 174.503C248.581 174.246 248.328 173.815 247.463 172.226C246.479 170.41 246.398 170.243 246.398 170.033C246.396 169.903 246.451 169.723 246.527 169.618C246.64 169.459 246.689 169.427 246.893 169.392C247.025 169.368 247.199 169.388 247.293 169.43C247.438 169.504 247.526 169.648 249.219 172.795L249.418 172.86C249.53 172.899 249.696 172.903 249.786 172.876C249.879 172.853 249.994 172.772 250.045 172.707C250.09 172.643 250.136 172.507 250.147 172.403C250.161 172.232 250.002 171.916 247.761 167.668C245.623 163.615 245.366 163.102 245.381 162.956Z" fill="white"/>
<defs>
<filter id="filter0_d_386_10961" x="77.7828" y="80.8782" width="58.821" height="58.821" filterUnits="userSpaceOnUse" color-interpolation-filters="sRGB">
<feFlood flood-opacity="0" result="BackgroundImageFix"/>
<feColorMatrix in="SourceAlpha" type="matrix" values="0 0 0 0 0 0 0 0 0 0 0 0 0 0 0 0 0 0 127 0" result="hardAlpha"/>
<feOffset dy="1.09536"/>
<feGaussianBlur stdDeviation="2.10858"/>
<feComposite in2="hardAlpha" operator="out"/>
<feColorMatrix type="matrix" values="0 0 0 0 0 0 0 0 0 0 0 0 0 0 0 0 0 0 0.15 0"/>
<feBlend mode="normal" in2="BackgroundImageFix" result="effect1_dropShadow_386_10961"/>
<feBlend mode="normal" in="SourceGraphic" in2="effect1_dropShadow_386_10961" result="shape"/>
</filter>
<filter id="filter1_d_386_10961" x="77.7828" y="159.878" width="58.821" height="58.821" filterUnits="userSpaceOnUse" color-interpolation-filters="sRGB">
<feFlood flood-opacity="0" result="BackgroundImageFix"/>
<feColorMatrix in="SourceAlpha" type="matrix" values="0 0 0 0 0 0 0 0 0 0 0 0 0 0 0 0 0 0 127 0" result="hardAlpha"/>
<feOffset dy="1.09536"/>
<feGaussianBlur stdDeviation="2.10858"/>
<feComposite in2="hardAlpha" operator="out"/>
<feColorMatrix type="matrix" values="0 0 0 0 0 0 0 0 0 0 0 0 0 0 0 0 0 0 0.15 0"/>
<feBlend mode="normal" in2="BackgroundImageFix" result="effect1_dropShadow_386_10961"/>
<feBlend mode="normal" in="SourceGraphic" in2="effect1_dropShadow_386_10961" result="shape"/>
</filter>
<filter id="filter2_d_386_10961" x="303.607" y="109.267" width="89.1732" height="89.1732" filterUnits="userSpaceOnUse" color-interpolation-filters="sRGB">
<feFlood flood-opacity="0" result="BackgroundImageFix"/>
<feColorMatrix in="SourceAlpha" type="matrix" values="0 0 0 0 0 0 0 0 0 0 0 0 0 0 0 0 0 0 127 0" result="hardAlpha"/>
<feOffset dy="1.66058"/>
<feGaussianBlur stdDeviation="3.19662"/>
<feComposite in2="hardAlpha" operator="out"/>
<feColorMatrix type="matrix" values="0 0 0 0 0 0 0 0 0 0 0 0 0 0 0 0 0 0 0.15 0"/>
<feBlend mode="normal" in2="BackgroundImageFix" result="effect1_dropShadow_386_10961"/>
<feBlend mode="normal" in="SourceGraphic" in2="effect1_dropShadow_386_10961" result="shape"/>
</filter>
<filter id="filter3_d_386_10961" x="183.854" y="105.71" width="99.6755" height="99.6774" filterUnits="userSpaceOnUse" color-interpolation-filters="sRGB">
<feFlood flood-opacity="0" result="BackgroundImageFix"/>
<feColorMatrix in="SourceAlpha" type="matrix" values="0 0 0 0 0 0 0 0 0 0 0 0 0 0 0 0 0 0 127 0" result="hardAlpha"/>
<feOffset dy="1.85619"/>
<feGaussianBlur stdDeviation="3.57317"/>
<feComposite in2="hardAlpha" operator="out"/>
<feColorMatrix type="matrix" values="0 0 0 0 0 0 0 0 0 0 0 0 0 0 0 0 0 0 0.15 0"/>
<feBlend mode="normal" in2="BackgroundImageFix" result="effect1_dropShadow_386_10961"/>
<feBlend mode="normal" in="SourceGraphic" in2="effect1_dropShadow_386_10961" result="shape"/>
</filter>
</defs>
</svg>
