<svg width="28" height="22" viewBox="0 0 28 22" fill="none" xmlns="http://www.w3.org/2000/svg">
<path d="M17.3611 7.70574L21.2027 13.0783H26.7145L17.3611 0L8.00781 13.0783H13.5186L17.3611 7.70574Z" fill="#00275D"/>
<path d="M9.45443 0L0.101562 13.0784H5.56976L12.1887 3.82238L9.45443 0Z" fill="#CD1041"/>
<path d="M5.79849 15.0359C5.72864 14.838 5.53425 14.6971 5.30539 14.6971C5.21227 14.6971 5.12497 14.7209 5.05047 14.7598C4.97798 14.7937 4.91673 14.8476 4.874 14.9153L3.02294 17.1889L1.17117 14.9153C1.12461 14.8415 1.06292 14.7905 0.992608 14.7581C0.914811 14.7177 0.828373 14.6968 0.740709 14.6971C0.523498 14.6971 0.337487 14.8252 0.260427 15.0075C0.232975 15.0609 0.218684 15.1201 0.21875 15.1802V19.7905L1.29922 19.7933V16.8853L2.60039 18.515C2.68304 18.6253 2.85718 18.7068 3.02294 18.7068C3.18846 18.7068 3.36307 18.6253 3.44572 18.5152L4.74736 16.8853V19.7931L5.82596 19.7905V15.1802C5.82596 15.1285 5.81641 15.0806 5.79849 15.0359ZM9.65729 20.5933C10.3185 20.4419 10.5047 20.0469 10.5047 19.368V16.2251H11.6164V19.3531C11.6164 20.4892 10.9678 21.5047 9.65706 21.6016L9.65729 20.5933ZM11.0507 14.8359C11.4101 14.8359 11.6911 15.0871 11.6911 15.4203C11.6911 15.7543 11.4101 16.0009 11.0509 16.0009C10.6914 16.0009 10.4093 15.7541 10.4093 15.4203C10.4093 15.0871 10.6914 14.8359 11.0507 14.8359ZM21.6972 16.2251H22.8077V19.8003H21.6972V16.2251ZM22.2513 14.8361C22.6103 14.8361 22.8927 15.0871 22.8927 15.4203C22.8927 15.7541 22.6103 16.0006 22.2513 16.0006C21.8921 16.0006 21.6104 15.7541 21.6104 15.4203C21.6104 15.0871 21.8921 14.8361 22.2513 14.8361ZM21.3485 17.1679V16.2446H20.6761V15.2831H19.5223V16.2446H19.1058V17.1679H19.5226V18.3979C19.5226 19.9847 21.1657 19.7677 21.3206 19.7677V18.6812C21.2351 18.6882 21.2535 18.6961 21.1671 18.6961C20.8659 18.687 20.6685 18.4656 20.6685 18.0775V17.1679H21.3485ZM18.7606 16.751C18.5678 16.3836 18.21 16.0283 17.5111 16.0283C16.8115 16.0283 16.2442 16.5438 16.2442 17.178C16.2442 17.8128 16.8239 18.2968 17.5439 18.3429C17.6962 18.3518 17.8543 18.4687 17.8543 18.6079C17.8543 18.7487 17.6834 18.8626 17.5283 18.8626C17.2885 18.8626 17.0841 18.759 16.9971 18.6079L16.0477 19.0819C16.2383 19.5005 16.7871 19.8634 17.5549 19.8634C18.677 19.8634 19.0805 19.0977 19.0805 18.5585C19.0805 17.8613 18.3564 17.3856 17.5665 17.3456C17.4138 17.3381 17.2986 17.2641 17.2986 17.1258C17.2986 16.9861 17.4233 16.8716 17.5765 16.8716C17.73 16.8716 17.9215 17.0187 17.9886 17.1975L18.7606 16.751Z" fill="#00275D"/>
<path d="M8.2009 16.0044C7.68872 16.0044 7.17164 16.1364 6.76166 16.3995L7.22007 17.1142C7.46731 16.9708 7.79185 16.8607 8.10474 16.8607C8.51774 16.8607 8.8672 17.0409 8.8672 17.4455C7.87473 17.4455 6.25391 17.4683 6.25391 18.7495C6.25391 19.4954 6.90578 19.8926 7.62865 19.8926C8.11266 19.8926 8.62507 19.7606 8.85182 19.5424H8.8672V19.8009H9.96372V17.9181C9.96372 16.6828 9.58984 16.0044 8.2009 16.0044ZM8.8672 18.4219C8.8672 18.8773 8.43138 19.1157 7.96203 19.1157C7.69966 19.1157 7.3984 18.9856 7.3984 18.7115C7.3984 18.2077 8.20811 18.177 8.57385 18.177H8.8672V18.4219ZM25.9556 18.2662C25.808 18.5921 25.4718 18.8203 25.0777 18.8203C24.5492 18.8203 24.1206 18.4091 24.1206 17.9011C24.1206 17.3948 24.5494 16.9815 25.0774 16.9815C25.4718 16.9815 25.808 17.2097 25.9556 17.5361H27.0256C26.8482 16.6575 26.0448 15.9947 25.0777 15.9947C23.9809 15.9947 23.0925 16.8488 23.0925 17.9011C23.0925 18.9551 23.9809 19.8085 25.0777 19.8085C26.0448 19.8085 26.8482 19.1464 27.0256 18.2662H25.9556ZM14.6206 18.546C14.4386 18.7217 14.1953 18.8194 13.9424 18.8184C13.5429 18.8184 13.2023 18.5847 13.0585 18.2499H13.9145V18.248H15.8938C15.9157 18.1349 15.929 18.0189 15.929 17.8993C15.929 16.846 15.0401 15.9926 13.9424 15.9926C12.8459 15.9926 11.9566 16.846 11.9566 17.8993C11.9566 18.9527 12.8459 19.8067 13.9424 19.8067C14.8034 19.8067 15.5337 19.2796 15.8093 18.546H14.6206ZM13.9424 16.9804C14.1029 16.9793 14.261 17.0184 14.4025 17.094C14.544 17.1697 14.6643 17.2794 14.7526 17.4134H13.132C13.2205 17.2796 13.341 17.17 13.4825 17.0944C13.6239 17.0188 13.782 16.9796 13.9424 16.9804Z" fill="#00275D"/>
</svg>
