<svg width="18847" height="11491" viewBox="0 0 18847 11491" fill="none" xmlns="http://www.w3.org/2000/svg">
<path d="M18729.9 2287.84C18729.9 2287.84 18502.9 2149.37 18252.1 2689.15C18001.2 3228.93 17909.7 3538.73 17909.7 3538.73C17909.7 3538.73 17842.1 3652.23 17763.3 3582.45C17684.6 3512.67 17573.3 3310.93 17444 3352.2C17311 3395.37 17272.1 3547.15 17305.8 3766.81C17339.5 3986.47 17395.1 4470.32 17400.3 4514.03C17405.5 4557.75 17382.7 4622.64 17321.3 4582.46C17259.9 4542.27 16901.5 4172.19 16735.4 4352.75C16569.2 4533.31 16762.5 5129.84 16783.7 5194.46C16804.9 5259.08 16791.6 5288.68 16760.6 5306.33C16729.6 5323.97 16621 5187.67 16516.2 5086.12C16411.4 4984.58 16268.9 4885.74 16182 4997.88C16095.1 5110.02 16082.1 5563.45 16539 6282.44L16772.6 6601.75L17168.2 6565.36C18009.9 6436.12 18342.7 6128.21 18369.9 5988.93C18397.1 5849.64 18229.8 5808.37 18083.7 5795.33C17937.6 5782.3 17763.3 5789.63 17756.3 5754.88C17749.2 5720.12 17762.8 5692.15 17825.5 5664.19C17888.2 5636.22 18464.7 5389.68 18491.5 5145.59C18518.4 4901.49 18002.8 4876.51 17933 4855.87C17863.2 4835.24 17896.9 4776.05 17933 4751.34C17969.1 4726.63 18370.4 4449.95 18557.5 4330.76C18744.6 4211.56 18830.9 4083.13 18776.6 3954.43C18722.3 3830.35 18497.8 3879.22 18393.2 3865.64C18288.7 3852.07 18330 3726.63 18330 3726.63C18330 3726.63 18502.9 3455.11 18744.1 2910.17C18985.2 2365.23 18724.8 2285.67 18724.8 2285.67" fill="#F5F5F5"/>
<path d="M18505.1 2770.88C18505.1 2770.88 18503.8 2774.95 18500.5 2782.55C18497.2 2790.15 18492.4 2802.1 18486.4 2816.49L18430.4 2945.46C18381.6 3057.6 18309.9 3219.43 18220.6 3418.99C18041.9 3818.13 17790.5 4367.14 17510.8 4972.63C17231.1 5578.12 16977.5 6127.13 16796.7 6525.45L16583 6997.08L16524.9 7125.23C16518.1 7139.35 16513 7150.49 16509.4 7158.36C16507.7 7162.17 16505.8 7165.88 16503.7 7169.49C16504.9 7165.51 16506.4 7161.61 16508.1 7157.82C16511.6 7149.67 16516.2 7138.54 16522.2 7124.15C16535.2 7094.01 16554.2 7050.57 16578.1 6994.9C16627 6882.77 16698.7 6721.21 16788 6521.65C16966.7 6122.51 17218.1 5573.5 17497.8 4967.74C17777.4 4361.98 18030.2 3813.51 18211.1 3415.46C18301.2 3216.98 18374 3055.97 18424.7 2944.11L18483.1 2815.95C18489.6 2801.56 18494.8 2790.7 18498.6 2782.55C18502.4 2774.41 18505.1 2770.88 18505.1 2770.88Z" fill="#E0E0E0"/>
<path d="M17589.3 3641.1C17594.2 3649.62 17597.9 3658.75 17600.4 3668.25C17606.9 3685.36 17615.3 3710.61 17625.7 3741.83C17645.8 3804.55 17671.5 3891.44 17698.2 3988.1L17765.2 4235.73C17773.4 4265.32 17780.2 4290.03 17785.9 4310.66C17789.1 4319.39 17791.2 4328.53 17792.1 4337.82C17787.2 4329.29 17783.5 4320.16 17781 4310.66C17774.5 4293.56 17766 4268.31 17756 4236.81C17736.4 4174.09 17711.7 4086.66 17685.1 3990L17616.4 3742.92L17595.5 3668.25C17592.4 3659.47 17590.3 3650.36 17589.3 3641.1Z" fill="#E0E0E0"/>
<path d="M17828.8 4343.52C17828.8 4339.99 18004.7 4278.9 18224.4 4207.76C18444 4136.62 18623.2 4080.41 18624.3 4083.94C18625.4 4087.47 18448.4 4148.57 18228.7 4219.7C18009 4290.84 17829.8 4347.05 17828.8 4343.52Z" fill="#E0E0E0"/>
<path d="M17357.1 5254.19C17366.8 5252.38 17376.6 5251.56 17386.5 5251.75L17465.7 5249.03C17532.5 5246.59 17625.1 5243.06 17726.9 5235.19C17828.8 5227.31 17920.8 5218.08 17987.6 5210.48L18066.3 5201.52C18076 5199.72 18085.9 5199.17 18095.7 5199.89C18086.9 5203.08 18077.8 5205.36 18068.5 5206.68C18050 5210.21 18023.2 5214.82 17990 5219.71C17923.8 5229.76 17831.5 5241.16 17729.4 5248.76C17627.3 5256.37 17534.4 5258.54 17467.1 5258.27C17433.7 5258.27 17406.5 5258.27 17387.8 5256.91C17377.5 5257.41 17367.2 5256.5 17357.1 5254.19Z" fill="#E0E0E0"/>
<path d="M17000.9 4666.62C17007.2 4673.08 17012.7 4680.29 17017.2 4688.08C17027 4702.19 17041.1 4723.1 17057.9 4749.17C17091.9 4801.03 17137.7 4873.25 17187.7 4953.35C17237.7 5033.45 17282.5 5106.49 17314.2 5159.7C17330.2 5186.86 17342.7 5208.03 17351.2 5223.24C17356.3 5230.71 17360.4 5238.84 17363.4 5247.41C17356.8 5241.1 17351.3 5233.87 17346.8 5225.96C17337 5211.56 17323.2 5190.93 17306.1 5164.86C17272.4 5113 17226.5 5040.78 17176.3 4960.41C17126.1 4880.04 17081.5 4807.27 17049.8 4754.05C17034 4726.9 17022.6 4705.72 17012.8 4690.79C17007.9 4683.24 17003.9 4675.13 17000.9 4666.62Z" fill="#E0E0E0"/>
<path d="M16482.3 5417.65C16490.2 5425.93 16497.2 5435.03 16503.2 5444.8L16555.6 5523C16599 5589.25 16658.8 5681.29 16723.9 5783.39C16789.1 5885.48 16847.5 5978.61 16889 6046.22L16937.9 6127.67C16944.2 6137.31 16949.7 6147.48 16954.2 6158.08C16946.3 6149.78 16939.3 6140.68 16933.3 6130.93L16881.2 6052.73C16837.4 5986.21 16777.7 5894.17 16712.5 5792.07C16647.4 5689.98 16589.3 5596.85 16547.5 5529.24C16527.9 5497.2 16511.6 5470.05 16498.9 5447.79C16492.3 5438.35 16486.7 5428.25 16482.3 5417.65Z" fill="#E0E0E0"/>
<path d="M16947.9 6136.9C16960 6134.16 16972.3 6132.71 16984.6 6132.56L17085.1 6125.5C17169.8 6119.53 17287.1 6110.84 17416 6098.35C17545 6085.86 17660.4 6071.2 17745.9 6059.52L17845.6 6046.22C17857.8 6044.02 17870.1 6042.93 17882.5 6042.96C17870.8 6046.98 17858.7 6049.8 17846.4 6051.37C17823.1 6055.99 17789.1 6061.96 17747.3 6068.75C17663.1 6082.6 17546.6 6098.89 17417.4 6111.92C17288.2 6124.96 17170.6 6132.29 17085.6 6135.82C17043 6137.45 17008.8 6138.53 16984.9 6138.53C16972.5 6139.04 16960.2 6138.49 16947.9 6136.9Z" fill="#E0E0E0"/>
<path d="M2561.22 4962.31C3194.68 4539.55 3348.63 3740.47 3335.87 3018.5C3333.42 2897.95 3348.9 2771.42 3292.42 2665.53C3235.95 2559.63 3102.36 2484.7 2991.85 2533.84C2900.89 2574.57 2859.62 2678.02 2807.76 2763.27C2737.82 2877.19 2637.23 2969.11 2517.51 3028.55C2439.31 3067.1 2342.92 3089.91 2266.89 3047.01C2162.63 2988.36 2152.31 2844.73 2155.03 2724.99L2169.69 2055.97C2172.13 1936.23 2174.58 1814.04 2138.46 1699.73C2102.35 1585.42 2020.9 1478.99 1906.04 1445.32C1791.19 1411.65 1647.56 1475.19 1621.22 1591.94C1610.36 1640.54 1619.59 1691.32 1615.52 1741C1611.45 1790.69 1588.37 1845.27 1538.95 1858.3C1489.53 1871.33 1442.56 1836.85 1406.72 1801.55C1283.45 1678.55 1200.91 1521.89 1124.07 1367.12C1047.23 1212.36 972.288 1051.34 860.966 918.029C749.643 784.713 593.79 677.734 420.29 665.244C246.789 652.754 60.2548 756.203 13.0104 923.731C-34.234 1091.26 63.5131 1264.49 169.949 1402.69C328.437 1607.42 515.631 1788.21 725.749 1939.48C763.762 1966.64 804.49 1996.23 818.609 2040.76C843.588 2122.22 765.934 2199.06 685.564 2224.31C594.605 2251.46 495.5 2241.96 402.098 2251.46C308.695 2260.96 204.16 2300.61 166.962 2387.22C115.645 2508.86 217.193 2638.65 317.927 2724.18C519.734 2895.49 749.295 3031.12 996.725 3125.21C1085.51 3158.88 1178.91 3188.47 1249.78 3251.47C1320.65 3314.46 1362.73 3422.52 1317.93 3506.15C1273.13 3589.78 1160.99 3614.76 1067.86 3596.84C974.732 3578.92 891.919 3527.06 803.403 3492.58C637.505 3427.95 423.276 3436.1 313.311 3576.75C241.63 3669.06 233.484 3799.12 267.153 3910.99C300.821 4022.85 371.416 4119.79 446.355 4209.66C708.643 4522.99 1046.96 4777.13 1431.43 4915.61C1815.9 5054.08 2173.49 5094.81 2559.86 4961.77" fill="#EBEBEB"/>
<path d="M2512.62 4976.16C2410.8 4610.96 2132.49 3751.61 1965.51 3347.04L1841.42 3048.37C1800.42 2950.35 1759.97 2853.42 1714.08 2760.83C1625.91 2583.6 1528.01 2411.37 1420.84 2244.94C1319.29 2084.75 1217.2 1936.5 1122.17 1798.29C1027.14 1660.09 932.103 1533.83 843.045 1421.7C702.604 1244.01 548.257 1077.77 381.462 924.545C322.542 870.241 275.569 829.513 243.259 802.361L204.703 769.236C196.286 762.448 191.67 759.189 191.67 759.189C191.67 759.189 195.471 763.262 203.345 770.593L239.186 802.633C270.411 829.785 316.84 872.142 374.946 927.26C539.235 1082.29 691.71 1249.38 831.098 1427.13C919.613 1539.54 1011.39 1666.61 1107.78 1804.54C1204.17 1942.47 1305.17 2091.26 1406.45 2251.19C1512.95 2417.68 1610.21 2589.9 1697.79 2767.08C1743.13 2859.39 1783.59 2957.14 1824.59 3054.07C1865.59 3151 1906.04 3252.01 1948.67 3352.74C2114.57 3756.76 2393.69 4615.31 2496.33 4979.42" fill="#E0E0E0"/>
<path d="M1708.38 2758.93C1714 2742.34 1718 2725.24 1720.32 2707.88C1726.84 2674.76 1734.99 2626.43 1744.22 2567.24C1762.95 2448.31 1783.32 2283.23 1805.31 2101.04C1827.3 1918.85 1850.38 1754.58 1871.56 1636.2C1881.88 1577.01 1890.84 1529.22 1898.71 1496.36C1902.96 1479.43 1905.77 1462.18 1907.13 1444.78C1900.48 1460.91 1895.39 1477.64 1891.93 1494.74C1882.96 1527.32 1872.1 1576.19 1860.16 1634.02C1833.82 1751.86 1809.38 1916.68 1787.39 2099.68C1765.4 2282.68 1746.39 2443.7 1731.73 2566.42C1724.4 2623.44 1718.15 2670.96 1713.27 2707.61C1710.19 2724.55 1708.55 2741.72 1708.38 2758.93Z" fill="#E0E0E0"/>
<path d="M153.657 2448.04C158.843 2449.7 164.236 2450.61 169.677 2450.76L215.835 2455.37C256.02 2459.45 313.854 2464.88 384.992 2473.84C527.54 2490.67 723.848 2521.35 938.892 2564.52C1153.93 2607.69 1346.17 2656.3 1484.65 2695.12C1553.88 2714.13 1609.54 2730.96 1647.56 2742.37L1692.09 2755.4C1697.13 2757.36 1702.44 2758.55 1707.83 2758.93C1703.31 2755.95 1698.37 2753.66 1693.17 2752.14C1681.23 2747.53 1666.02 2742.1 1649.73 2735.85C1611.99 2722.28 1556.6 2703.27 1486.82 2681.55C1349.16 2639.46 1156.38 2589.23 941.064 2545.79C725.749 2502.35 530.526 2474.92 386.349 2461.07C314.94 2453.74 256.563 2450.21 216.378 2448.58H169.948C164.562 2447.73 159.089 2447.54 153.657 2448.04Z" fill="#E0E0E0"/>
<path d="M2361.11 4479.01C2365.25 4473.13 2368.8 4466.85 2371.7 4460.27L2398.85 4405.97C2422.2 4357.64 2453.16 4287.04 2493.34 4199.34C2570.99 4024.21 2670.64 3778.76 2777.35 3506.7C2884.06 3234.63 2981.53 2987.55 3055.66 2811.06L3144.72 2602.54C3154.49 2579.18 3162.64 2560.45 3168.88 2545.79C3171.96 2539.25 3174.41 2532.43 3176.21 2525.42C3171.82 2531.14 3168.26 2537.45 3165.62 2544.16L3138.47 2598.46C3115.12 2646.79 3082.81 2717.39 3044.25 2804.82C2966.6 2980.22 2866.68 3225.67 2760.24 3497.74C2653.81 3769.8 2555.79 4015.79 2481.12 4192.28L2392.06 4400.81L2368.17 4457.56C2364.95 4464.39 2362.58 4471.59 2361.11 4479.01Z" fill="#E0E0E0"/>
<path d="M299.464 3789.07C305.96 3792.47 312.782 3795.2 319.828 3797.22L379.834 3817.58L600.85 3891.71C787.384 3954.16 1043.97 4043.49 1327.16 4142.86C1610.36 4242.24 1868.03 4329.67 2055.65 4389.13C2149.33 4418.73 2225.62 4442.08 2278.3 4457.28L2339.39 4474.39C2346.44 4476.78 2353.72 4478.42 2361.11 4479.28C2354.52 4475.81 2347.61 4473 2340.48 4470.86L2280.47 4450.5L2059.45 4376.91C1872.92 4314.46 1616.33 4225.13 1333.14 4125.76C1049.94 4026.38 792.543 3938.68 604.923 3879.49C510.978 3849.89 434.952 3826.54 382.006 3811.34L321.185 3793.96C314.122 3791.63 306.847 3789.99 299.464 3789.07Z" fill="#E0E0E0"/>
<path d="M12986.8 779.282H16409.8L15740.2 1255.26V1652.76C15738.7 1849.16 15659.3 2036.92 15519.4 2174.76C15379.4 2312.59 15190.5 2389.21 14994.1 2387.76H12846.1C12649.7 2389.21 12460.8 2312.59 12320.8 2174.76C12180.9 2036.92 12101.5 1849.16 12100 1652.76C12100.8 1537.17 12124.4 1422.89 12169.5 1316.43C12214.5 1209.97 12280.1 1113.43 12362.4 1032.31C12444.8 951.201 12542.3 887.105 12649.4 843.689C12756.5 800.273 12871.2 778.387 12986.8 779.282Z" fill="#F5F5F5"/>
<path d="M15162.7 1310.65C15162.7 1314.45 14592.5 1317.7 13886.6 1317.7C13180.6 1317.7 12610.4 1314.45 12610.4 1310.65C12610.4 1306.84 13180.6 1303.59 13886.6 1303.59C14592.5 1303.59 15162.7 1306.57 15162.7 1310.65Z" fill="#E0E0E0"/>
<path d="M15162.7 1575.11C15162.7 1578.91 14592.5 1582.17 13886.6 1582.17C13180.6 1582.17 12610.4 1578.91 12610.4 1575.11C12610.4 1571.31 13180.6 1568.05 13886.6 1568.05C14592.5 1568.05 15162.7 1571.03 15162.7 1575.11Z" fill="#E0E0E0"/>
<path d="M7793.4 8926.22H3742.87L4402.67 9403.55V10340.3C4402.67 10366 4407.73 10391.4 4417.57 10415.2C4427.41 10438.9 4441.84 10460.5 4460.02 10478.6C4478.2 10496.8 4499.79 10511.2 4523.54 10521C4547.29 10530.8 4572.74 10535.8 4598.43 10535.8H7793.4C7819.1 10535.8 7844.55 10530.8 7868.3 10521C7892.05 10511.2 7913.63 10496.8 7931.81 10478.6C7949.99 10460.5 7964.42 10438.9 7974.26 10415.2C7984.1 10391.4 7989.17 10366 7989.17 10340.3V9121.72C7989.09 9069.84 7968.44 9020.12 7931.73 8983.46C7895.03 8946.81 7845.27 8926.22 7793.4 8926.22Z" fill="#F5F5F5"/>
<path d="M7624.51 9588.19C7624.51 9592.26 7013.6 9595.25 6260.13 9595.25C5506.66 9595.25 4895.74 9592.26 4895.74 9588.19C4895.74 9584.12 5506.39 9581.13 6260.13 9581.13C7013.87 9581.13 7624.51 9584.39 7624.51 9588.19Z" fill="#E0E0E0"/>
<path d="M7624.51 9947.95C7624.51 9951.75 7013.6 9955.01 6260.13 9955.01C5506.66 9955.01 4895.74 9951.75 4895.74 9947.95C4895.74 9944.15 5506.39 9940.89 6260.13 9940.89C7013.87 9940.89 7624.51 9944.15 7624.51 9947.95Z" fill="#E0E0E0"/>
<path d="M16063.6 4309.85H11323.2C10741.5 4309.85 10269.9 4781.39 10269.9 5363.07V9221.36C10269.9 9803.04 10741.5 10274.6 11323.2 10274.6H16063.6C16645.3 10274.6 17116.8 9803.04 17116.8 9221.36V5363.07C17116.8 4781.39 16645.3 4309.85 16063.6 4309.85Z" fill="#5750F1" fill-opacity="0.5"/>
<path d="M17114.9 6389.14H18140.5L17091.9 7438.02L17114.9 6389.14Z" fill="#5750F1" fill-opacity="0.5"/>
<path d="M10105.9 7034L9676.11 6545.27C9559.9 6429.06 9519.99 6373.13 9543.34 6352.76C9574.29 6325.61 9560.99 6334.57 9802.37 6515.67C9802.37 6515.67 9460.26 6254.2 9578.91 6252.57C9599.82 6252.57 9657.92 6286.24 9720.1 6326.97C9635.39 6255.01 9611.49 6206.41 9628.06 6183.33C9655.21 6143.15 9864.82 6288.41 9961.21 6358.19C9882.47 6299.54 9732.32 6185.78 9705.98 6149.94C9669.6 6101.06 9743.18 6105.14 9802.91 6125.5C9869.98 6148.31 10240.6 6337.56 10350.3 6386.43C10359.1 6391.68 10368.9 6394.96 10379.1 6396.04C10389.3 6397.13 10399.6 6395.99 10409.3 6392.72C10419 6389.44 10427.9 6384.1 10435.3 6377.06C10442.8 6370.02 10448.6 6361.45 10452.4 6351.95C10492.8 6181.98 10615.3 6071.47 10662 6057.08C10708.7 6042.69 10744.8 6102.42 10711.4 6145.86C10680 6196.41 10655.7 6251.05 10639.2 6308.23C10624.1 6353.09 10616.6 6400.18 10617.2 6447.52C10617.2 6501.83 10621 6548.8 10624.5 6588.17L11017.4 7127.14L10360.3 7507.26L10105.9 7034Z" fill="#B78876"/>
<path d="M9952.25 6591.7C9947.91 6597.67 9870.79 6545.27 9781.74 6474.4C9692.68 6403.53 9623.17 6341.09 9628.33 6335.38C9633.49 6329.68 9709.78 6382.36 9798.84 6452.68C9887.9 6523 9956.05 6585.45 9952.25 6591.7Z" fill="#AA6550"/>
<path d="M10035.3 6505.9C10031 6512.14 9946.55 6460.55 9846.63 6391.05C9746.71 6321.54 9669.05 6259.9 9673.4 6253.93C9677.74 6247.95 9762.18 6299 9862.1 6368.51C9962.02 6438.02 10039.7 6499.65 10035.3 6505.9Z" fill="#AA6550"/>
<path d="M10096.2 6414.67C10091.8 6420.91 10010.9 6373.67 9915.59 6309.05C9820.29 6244.42 9746.44 6187.13 9750.51 6180.62C9754.58 6174.1 9835.5 6221.62 9931.07 6286.24C10026.6 6350.86 10100.2 6408.42 10096.2 6414.67Z" fill="#AA6550"/>
<path d="M10661.2 6661.21L12227.3 8647.1L11868.6 9482.02C11868.6 9482.02 11439.1 9386.99 11308.8 9206.16C11178.4 9025.33 10105.9 7034 10105.9 7034L10661.2 6661.21Z" fill="#B78876"/>
<path d="M14636.8 3883.02C14749.5 3980.77 14749.2 4152.91 14736.2 4301.43C14723.1 4449.95 14713.1 4619.11 14816 4727.18C14901 4816.23 15054.9 4855.06 15074.5 4976.43C15079.1 5004.95 15074.8 5034.2 15062.1 5060.16C15049.4 5086.13 15029 5107.53 15003.7 5121.43C14978.4 5135.33 14949.4 5141.04 14920.7 5137.78C14892 5134.52 14865 5122.45 14843.4 5103.23C14876.5 5199.08 14853.7 5318.82 14770.6 5376.92C14687.5 5435.03 14548.3 5399.19 14522.5 5301.17C14526.7 5317.53 14527.5 5334.59 14524.8 5351.28C14522.2 5367.97 14516.1 5383.93 14507 5398.16C14497.9 5412.4 14485.9 5424.61 14471.9 5434.03C14457.9 5443.44 14442 5449.87 14425.4 5452.89C14408.8 5455.92 14391.7 5455.5 14375.3 5451.63C14358.8 5447.77 14343.3 5440.56 14329.8 5430.45C14316.2 5420.34 14304.9 5407.55 14296.6 5392.88C14288.2 5378.2 14282.9 5361.96 14281.1 5345.15" fill="#263238"/>
<path d="M13023.1 4885.47C13008 4921.84 12979 4950.69 12942.6 4965.69C12906.1 4980.68 12865.2 4980.59 12828.9 4965.43C12792.5 4950.28 12763.6 4921.29 12748.6 4884.86C12733.7 4848.43 12733.7 4807.53 12748.9 4771.16C12774.7 4714.69 12835.8 4673.96 12841.8 4612.05C12848.8 4537.38 12772.5 4483.89 12706 4451.31C12639.5 4418.73 12559.1 4376.37 12551.8 4301.43C12544.4 4226.49 12609.3 4173 12663.4 4124.67C12717.4 4076.34 12772 4001.4 12737.5 3937.05C12720.4 3903.93 12684.8 3885.19 12661.7 3855.6C12611 3790.98 12637.6 3688.07 12702.5 3638.38C12767.4 3588.69 12857 3580.82 12937.9 3595.21C13018.8 3609.6 13094.8 3643.27 13173.6 3666.89C13304.1 3704.85 13441.1 3715.32 13575.8 3697.66C13710.6 3679.99 13840.3 3634.57 13956.6 3564.26" fill="#263238"/>
<path d="M13504 6636.5C13644.3 6664.81 13790.1 6636.83 13909.9 6558.6C14029.7 6480.37 14114 6358.17 14144.5 6218.36L14529.8 4451.85C14553.8 4349.85 14557.2 4244.06 14539.6 4140.74C14522.1 4037.42 14484 3938.66 14427.6 3850.32C14371.3 3761.97 14297.7 3685.82 14211.4 3626.38C14125.1 3566.94 14027.8 3525.41 13925.1 3504.25L13884.9 3498.28C13688.7 3469.42 13488.7 3515.57 13324.9 3627.53C13161.1 3739.49 13045.5 3909.04 13001.1 4102.41C12915.3 4475.2 12825.5 4888.19 12798.3 5091.01C12742.1 5511.05 13151.3 5637.58 13151.3 5637.58L13077.7 5990.55C13063.1 6060.88 13062.6 6133.4 13076.1 6203.94C13089.6 6274.48 13116.9 6341.65 13156.5 6401.6C13196.1 6461.55 13247.1 6513.09 13306.6 6553.26C13366.2 6593.43 13433.1 6621.44 13503.5 6635.68L13504 6636.5Z" fill="#B78876"/>
<path d="M13076.6 4380.45C13074.2 4396.03 13078 4411.94 13087.1 4424.81C13096.2 4437.67 13110 4446.49 13125.5 4449.41C13133 4451.12 13140.8 4451.32 13148.4 4449.98C13156 4448.65 13163.2 4445.81 13169.7 4441.63C13176.2 4437.46 13181.7 4432.04 13186.1 4425.68C13190.4 4419.32 13193.5 4412.16 13195 4404.61C13197.5 4389.04 13193.9 4373.1 13184.8 4360.21C13175.7 4347.31 13161.9 4338.5 13146.4 4335.64C13138.9 4333.93 13131.1 4333.73 13123.5 4335.07C13115.9 4336.4 13108.6 4339.23 13102.1 4343.4C13095.6 4347.58 13090 4353 13085.6 4359.36C13081.3 4365.72 13078.2 4372.89 13076.6 4380.45Z" fill="#263238"/>
<path d="M13061.1 4320.71C13067.4 4329.67 13117.6 4302.52 13182.2 4312.29C13246.9 4322.07 13289 4360.9 13297.1 4354.11C13301.2 4351.12 13295.5 4335.92 13277.3 4318C13252.2 4294.59 13220.5 4279.52 13186.6 4274.82C13153.1 4269.77 13118.9 4275.47 13088.8 4291.12C13066.9 4303.6 13058.2 4316.64 13061.1 4320.71Z" fill="#263238"/>
<path d="M13706.3 4483.62C13703.8 4499.22 13707.6 4515.16 13716.7 4528.04C13725.8 4540.93 13739.6 4549.73 13755.2 4552.59C13762.7 4554.3 13770.5 4554.48 13778.1 4553.13C13785.7 4551.77 13792.9 4548.91 13799.4 4544.71C13805.9 4540.51 13811.5 4535.06 13815.8 4528.67C13820.1 4522.28 13823.1 4515.09 13824.7 4507.52C13827.1 4491.95 13823.4 4476.04 13814.2 4463.2C13805.1 4450.36 13791.3 4441.61 13775.8 4438.82C13768.3 4437.07 13760.5 4436.85 13752.9 4438.17C13745.3 4439.49 13738 4442.32 13731.5 4446.5C13725.1 4450.68 13719.5 4456.12 13715.1 4462.5C13710.8 4468.87 13707.8 4476.06 13706.3 4483.62Z" fill="#263238"/>
<path d="M13692.7 4425.52C13698.9 4434.2 13749.2 4407.32 13813.5 4417.1C13877.9 4426.87 13920.5 4465.7 13928.7 4458.91C13932.5 4455.93 13927 4440.72 13908.6 4422.8C13883.5 4399.4 13851.8 4384.32 13817.9 4379.63C13784.4 4374.57 13750.2 4380.28 13720.1 4395.92C13699.2 4407.6 13689.4 4421.44 13692.7 4425.52Z" fill="#263238"/>
<path d="M13388.9 4869.18C13388.9 4865.38 13350.6 4852.62 13287.1 4834.97C13270.8 4830.9 13255.8 4825.19 13254.7 4813.52C13255.9 4796.42 13262.1 4780.05 13272.7 4766.55C13294.2 4729.08 13316.6 4689.71 13339.7 4648.44C13433.4 4479.82 13502.6 4340.53 13496.9 4336.73C13491.2 4332.93 13408.7 4466.52 13315 4635.4L13249.9 4754.33C13236.7 4772.79 13230.4 4795.25 13231.9 4817.86C13233.6 4823.86 13236.6 4829.41 13240.7 4834.11C13244.8 4838.81 13249.8 4842.53 13255.6 4845.02C13264.2 4848.74 13273.4 4851.39 13282.7 4852.89C13317.3 4862.71 13352.9 4868.18 13388.9 4869.18Z" fill="#263238"/>
<path d="M13712.8 4170.56C13716.6 4189.02 13782.3 4190.11 13856.4 4210.2C13930.6 4230.29 13988.7 4259.89 14001.1 4245.77C14006.6 4238.98 13998.4 4220.79 13976.4 4200.43C13946.6 4174.79 13911.3 4156.31 13873.2 4146.38C13835.2 4136.45 13795.3 4135.34 13756.8 4143.14C13726.4 4150.2 13711.4 4163.23 13712.8 4170.56Z" fill="#263238"/>
<path d="M13112.2 4137.71C13121.4 4154 13166.5 4145.31 13220.8 4152.37C13275.1 4159.43 13318 4176.8 13329.4 4162.96C13335.1 4156.17 13329.4 4140.42 13312.6 4123.59C13288.5 4103.1 13258.8 4090.25 13227.4 4086.68C13196 4083.1 13164.2 4088.95 13136.1 4103.49C13116.5 4115.71 13108.1 4129.83 13112.2 4137.71Z" fill="#263238"/>
<path d="M14142.1 3925.38L14144 3927.55C14203.1 3989.98 14235.8 4072.88 14235.2 4158.89V4167.3C14235.2 4289.49 14213.2 4411.67 14213.5 4532.5C14213.7 4653.32 14237.1 4782.02 14313.4 4877.05C14344.6 4916.42 14405.4 4949.01 14441 4913.71C14453.5 4898.69 14461.5 4880.43 14464.1 4861.03C14528.7 4575.67 14644.9 4331.3 14688.6 4029.37C14694.7 3988.95 14691 3947.67 14678 3908.95C14664.9 3870.23 14642.8 3835.19 14613.4 3806.72C14556.9 3752.42 14486.6 3693.77 14411.4 3716.85C14336.2 3739.93 14226.2 3858.04 14163.5 3906.92" fill="#263238"/>
<path d="M14360.6 4620.74C14368.2 4618.57 14661.2 4577.57 14609.9 4862.94C14558.6 5148.3 14284.1 5038.07 14284.1 5029.65C14284.1 5021.23 14360.6 4620.74 14360.6 4620.74Z" fill="#B78876"/>
<path d="M14390.5 4937.33C14390.5 4937.33 14394.9 4941.68 14402.5 4946.84C14413.4 4954.08 14426.7 4956.81 14439.7 4954.44C14471.7 4948.74 14505.6 4905.56 14516.2 4854.25C14521.7 4830.02 14521.7 4804.89 14516.2 4780.67C14515.1 4771.28 14511.7 4762.3 14506.4 4754.5C14501 4746.7 14493.9 4740.31 14485.5 4735.86C14480.1 4733.3 14473.9 4732.74 14468.1 4734.28C14462.3 4735.82 14457.2 4739.36 14453.8 4744.28C14448.6 4751.34 14449.4 4757.59 14447.8 4757.59C14446.2 4757.59 14442.6 4751.88 14447.8 4740.48C14450.6 4733.72 14455.7 4728.15 14462.2 4724.73C14471.1 4720.19 14481.4 4719.31 14491 4722.29C14502.3 4726.81 14512.4 4734.18 14520.1 4743.69C14527.8 4753.2 14532.9 4764.53 14535 4776.59C14542.5 4803.11 14543.5 4831.05 14537.9 4858.05C14525.7 4915.34 14486.6 4963.67 14443.5 4968.29C14435.4 4969.14 14427.2 4968.17 14419.5 4965.44C14411.9 4962.72 14404.9 4958.31 14399.2 4952.54C14389.7 4944.12 14389.4 4937.6 14390.5 4937.33Z" fill="#AA6550"/>
<path d="M14414.7 3762.74C14502.1 3658.2 14333.2 3465.42 14197.5 3399.99C14061.7 3334.55 13866.2 3376.37 13718.5 3402.43C13625.4 3418.99 13530.9 3447.23 13438 3429.58C13376.4 3414.16 13317.4 3389.54 13263.2 3356.54C13208.7 3324.14 13148.3 3303 13085.6 3294.37C13054 3290.48 13022 3295.28 12992.9 3308.25C12963.9 3321.21 12939 3341.86 12920.8 3367.95C12888.5 3422.25 12911 3507.24 12971.8 3524.89C12953.5 3510.97 12932.1 3501.71 12909.4 3497.9C12886.7 3494.09 12863.4 3495.84 12841.5 3503C12819.6 3510.16 12799.8 3522.52 12783.8 3539.02C12767.7 3555.52 12755.9 3575.66 12749.4 3597.73C12742.8 3619.79 12741.7 3643.11 12746.2 3665.69C12750.6 3688.27 12760.5 3709.44 12774.9 3727.37C12789.3 3745.3 12807.9 3759.47 12829 3768.66C12850.1 3777.85 12873.1 3781.78 12896.1 3780.12C12860 3743.19 12789.9 3785.27 12787.5 3836.86C12785 3888.45 12825.7 3932.17 12868.9 3959.59C12980.5 4029.64 13122.2 4033.17 13252 4009.82C13381.8 3986.47 13506.2 3938.14 13635.4 3911.53C13764.7 3884.92 13981.6 3834.42 14098.4 3896.05C14184.2 3941.13 14231.4 4058.97 14286 4042.95C14311.8 4033.43 14335.1 4018.02 14353.9 3997.94C14372.8 3977.86 14386.7 3953.67 14394.6 3927.28C14409.3 3874.29 14415.4 3819.29 14412.8 3764.37" fill="#263238"/>
<path d="M14973.2 5086.39C14978.5 5085.17 14983.6 5082.96 14988.1 5079.88C15001.5 5071.25 15012.3 5059.02 15019.1 5044.58C15029.6 5021.48 15032.8 4995.71 15028.3 4970.73C15021.3 4937.87 15003.3 4908.38 14977.3 4887.1C14946.4 4861.7 14911.7 4841.44 14874.4 4827.09C14832.4 4811.79 14792.1 4792.33 14754.1 4768.99C14714.2 4740.97 14683.8 4701.48 14666.9 4655.76C14648.4 4606.54 14639.8 4554.11 14641.7 4501.54C14644.4 4392.93 14674.5 4291.11 14681.8 4195.27C14689.2 4099.42 14677 4009.55 14636.2 3947.37C14605.6 3897.37 14557.1 3860.94 14500.5 3845.55C14485.3 3841.73 14469.7 3840.18 14454 3840.94C14448.6 3841.02 14443.2 3841.84 14438 3843.38C14458.6 3843.24 14479.2 3845.8 14499.1 3850.98C14552.9 3867.99 14598.5 3904.24 14627.3 3952.8C14665 4013.08 14678 4100.51 14668.5 4194.18C14659 4287.86 14630 4389.68 14626.7 4501.27C14625 4555.77 14634.2 4610.06 14653.9 4660.92C14672 4709.22 14704.5 4750.81 14747 4780.12C14786 4803.52 14827.2 4822.98 14870 4838.23C14906.3 4851.69 14940.3 4870.75 14970.7 4894.7C14995.6 4914.33 15013.1 4941.65 15020.7 4972.36C15025.7 4995.74 15023.4 5020.08 15014.2 5042.14C15005.8 5061.02 14991.4 5076.58 14973.2 5086.39Z" fill="#455A64"/>
<path d="M12962.6 3518.1C12958.8 3515.24 12954.6 3512.96 12950.1 3511.31C12945 3508.81 12939.8 3506.72 12934.3 3505.06C12926.8 3502.49 12919.1 3500.59 12911.3 3499.36C12885.5 3495.3 12859.2 3497.15 12834.2 3504.77C12809.3 3512.39 12786.4 3525.58 12767.4 3543.35C12748 3566.9 12733.6 3594.04 12724.8 3623.22C12716 3652.4 12713.2 3683.02 12716.3 3713.32C12720 3750.96 12731.1 3787.48 12749.1 3820.73C12767.1 3853.98 12791.6 3883.29 12821.1 3906.91C12889 3961.58 12971.6 3994.77 13058.4 4002.22C13152.7 4010.33 13247.7 4004.56 13340.3 3985.11C13487.1 3956.34 13627.7 3901.93 13755.7 3824.37C13810.5 3790.44 13867.9 3760.76 13927.3 3735.59C13979.1 3714.56 14034.3 3703.24 14090.2 3702.19C14171.5 3700.43 14252 3719.1 14324.3 3756.49C14350.4 3771.11 14375.7 3787.15 14400 3804.55C14378.3 3783.19 14353.7 3764.92 14327 3750.25C14254.5 3709.88 14172.9 3689.02 14089.9 3689.7C14032.7 3690.14 13976 3701.09 13922.7 3722.01C13862.7 3747.15 13804.7 3776.84 13749.2 3810.8C13622.1 3886.75 13482.8 3940.12 13337.6 3968.55C13246.3 3987.87 13152.7 3993.82 13059.8 3986.2C12975.6 3979.22 12895.4 3947.47 12829.3 3894.97C12800.8 3872.48 12777.1 3844.54 12759.6 3812.79C12742.1 3781.04 12731.1 3746.12 12727.2 3710.06C12723.9 3681.17 12726.3 3651.91 12734.3 3623.95C12742.3 3596 12755.8 3569.9 12773.9 3547.15C12792 3529.87 12813.7 3516.84 12837.5 3508.99C12861.2 3501.15 12886.4 3498.7 12911.3 3501.81C12928.8 3505.65 12946 3511.11 12962.6 3518.1Z" fill="#455A64"/>
<path d="M13121.4 3280.52C13120.4 3302.34 13123.9 3324.13 13131.5 3344.6C13152.7 3401.18 13192.2 3448.99 13243.9 3480.36C13278.6 3502.96 13317.1 3518.98 13357.6 3527.6C13404.1 3536.96 13451.7 3539.43 13498.8 3534.93C13598.5 3527.6 13702.7 3493.39 13812.2 3465.15C13921.6 3436.91 14031 3421.98 14125.5 3447.23C14209.4 3469.45 14283.9 3517.87 14338.4 3585.44C14375.8 3630.31 14403.5 3682.45 14419.8 3738.57C14430.7 3778.49 14432 3801.84 14433.9 3801.56C14434.3 3795.96 14434.3 3790.34 14433.9 3784.73C14432.5 3768.72 14429.8 3752.85 14426.1 3737.22C14411.6 3679.32 14384.6 3625.3 14347.1 3578.92C14292.1 3508.58 14215.9 3457.83 14129.8 3434.2C14032.1 3407.05 13919.7 3422.52 13809.7 3451.03C13699.8 3479.54 13596.3 3513.75 13498.8 3521.63C13452.9 3526.38 13406.5 3524.46 13361.2 3515.93C13321.9 3507.94 13284.4 3493.05 13250.4 3471.94C13200.1 3442.26 13160.6 3397.12 13138 3343.24C13130.7 3322.83 13125.2 3301.85 13121.4 3280.52Z" fill="#455A64"/>
<path d="M13260.2 5082.32C13263.7 5110.35 13271.1 5137.76 13282.2 5163.78C13287.9 5176.63 13296.4 5188.12 13306.9 5197.48C13317.4 5206.84 13329.8 5213.86 13343.3 5218.08C13357.8 5221.09 13372.9 5220.41 13387.1 5216.09C13401.4 5211.77 13414.3 5203.96 13424.7 5193.37C13445.5 5171.44 13458.9 5143.51 13463 5113.55C13467.3 5086.39 13463 5052.45 13435.8 5043.77C13424.9 5041.05 13413.4 5041.05 13402.4 5043.77L13252 5070.92" fill="#AA6550"/>
<path d="M13286.5 5196.36C13310.4 5205.56 13335.8 5210.34 13361.4 5210.48C13388 5208.92 13413 5197.49 13431.5 5178.44C13442.4 5166.79 13450.8 5152.94 13456 5137.82C13461.2 5122.71 13463.1 5106.66 13461.6 5090.74C13460.8 5082.58 13459 5074.55 13456.2 5066.84C13452.7 5059.51 13453.8 5060.06 13447.5 5059.24C13441.3 5058.43 13431.5 5059.24 13423.4 5060.6L13398.1 5062.5C13365.5 5064.94 13336.2 5066.84 13311.5 5068.2C13284.4 5071.97 13256.9 5071.42 13230 5066.57C13255.4 5057.3 13282.1 5051.81 13309 5050.28C13333.5 5046.75 13363.3 5043.22 13395.1 5039.42L13420.1 5036.71C13429.1 5035.39 13438.2 5034.57 13447.2 5034.26C13454.4 5034.46 13461.4 5036.93 13467.1 5041.32C13472.1 5045.8 13476 5051.5 13478.2 5057.88C13481.9 5067.66 13484.3 5077.89 13485.3 5088.29C13487 5107.84 13484.5 5127.54 13477.8 5145.99C13471.1 5164.43 13460.4 5181.17 13446.4 5195C13423.3 5217.04 13392.3 5229.04 13360.4 5228.4C13339.5 5228.48 13319 5222.75 13301.2 5211.84C13291.9 5204.23 13285.7 5197.44 13286.5 5196.36Z" fill="#263238"/>
<path d="M13151.8 5637.58C13151.8 5637.58 13425.5 5741.3 13691.9 5664.73C13691.9 5664.73 13491 5833.34 13124.4 5768.72L13151.8 5637.58Z" fill="#AA6550"/>
<path d="M13569.4 9530.35C13556.2 9521.71 13543.7 9512.09 13532 9501.57C13520.3 9492.07 13504.8 9480.39 13488.2 9467.9C13471.7 9455.41 13451.6 9440.75 13428.5 9425.82C13405.4 9410.89 13381.5 9394.59 13353.6 9379.12C13325.6 9363.64 13296 9347.35 13264.2 9331.06C13124.9 9262.52 12975.2 9217.73 12821.1 9198.56C12785.6 9194.76 12751.9 9190.41 12720.1 9189.6C12688.4 9188.78 12658.8 9187.42 12631.9 9187.7C12605 9187.97 12580.3 9189.33 12558.8 9190.14C12537.4 9190.95 12518.9 9192.58 12504.5 9194.21C12489 9196.59 12473.3 9197.68 12457.6 9197.47C12472.8 9193.55 12488.3 9190.65 12504 9188.78C12522 9185.7 12540.1 9183.52 12558.3 9182.27C12579.7 9180.64 12604.2 9177.65 12631.6 9177.65C12659 9177.65 12688.6 9176.02 12720.7 9177.65C12752.7 9179.28 12786.9 9181.99 12822.8 9185.25C12900.4 9194.92 12977.3 9210.72 13052.5 9232.5C13127.1 9255.43 13199.7 9284.4 13269.7 9319.11C13301.4 9335.95 13332.1 9351.42 13359 9368.8C13385.9 9386.18 13411.4 9401.65 13433.7 9417.4C13455.9 9433.15 13475.5 9448.36 13492.6 9461.39C13509.7 9474.42 13523.8 9486.91 13534.9 9497.23C13547.3 9507.29 13558.9 9518.37 13569.4 9530.35Z" fill="#FAFAFA"/>
<path d="M11973.7 8135.83L12196.4 7171.12C12281.6 6808.37 12382.6 6459.74 12552.3 6418.47V6530.61L12479.6 9286.8C12479.6 9286.8 12025.8 9802.69 11447.8 9516.51C11266.9 9426.63 10937 8795.35 10937 8795.35C10937 8795.35 10169.5 7425.81 10201.5 7363.63C10233.5 7301.45 10702.5 6697.05 10750.2 6666.91L11973.7 8135.83Z" fill="#BFDBFE"/>
<path d="M14264.8 6145.32C14707.4 6230.04 15205.6 6488.25 15435 7149.94C15518.7 7391.6 16128 9173.03 16128 9173.03L15088.9 9151.31L14921.1 8784.49L15002.5 9380.47L15072.8 10230.3L12448.9 10274.6L12467.3 8994.1L12492.6 6447.25C12492.6 6447.25 12521.9 6408.7 12974.5 6159.17C13255.3 6004.13 14264.8 6145.32 14264.8 6145.32Z" fill="#BFDBFE"/>
<g opacity="0.2">
<path d="M14526.5 7848.83C14569.7 8386.44 14619.1 8552.61 14662.3 9090.22C14663.3 9141.13 14672.5 9191.54 14689.4 9239.55C14698.5 9263.43 14713.1 9284.84 14731.9 9302.06C14750.8 9319.27 14773.5 9331.81 14798.1 9338.66C14874.6 9354.14 14974 9409.53 14995.5 9334.59L14923 8816.8C14907.4 8741.47 14883.3 8668.15 14851.3 8598.23C14690.3 8240.63 14630.8 8219.73 14525.5 7848.83" fill="#BFDBFE"/>
</g>
<path d="M12974.3 6434.76L12983 6378.83L13066.8 5842.3C13069.3 5826.71 13077.5 5812.61 13089.9 5802.84C13102.3 5793.06 13117.9 5788.34 13133.6 5789.63L14166.8 5875.97C14198 5878.54 14226.9 5893.33 14247.3 5917.14C14267.6 5940.94 14277.7 5971.82 14275.4 6003.04L14252.3 6314.75L13929.7 6735.6L13465.2 6808.1" fill="#BFDBFE"/>
<path d="M12455.4 7443.45C12459.5 7443.45 12462.4 7863.77 12462.4 8382.1C12462.4 8900.43 12459.5 9320.74 12455.4 9320.74C12451.3 9320.74 12448.3 8900.43 12448.3 8382.1C12448.3 7863.77 12451.6 7443.45 12455.4 7443.45Z" fill="#263238"/>
<path d="M15111.1 9237.66C15111.1 9237.66 15111.1 9235.75 15107.9 9231.68C15104.6 9227.61 15102.7 9220.82 15099.2 9213.22L15067.7 9141.81L14954.5 8878.16L14585.5 8006.31C14513.8 7835.8 14445.6 7673.43 14383.7 7525.45C14352.4 7456.14 14330 7383.16 14316.9 7308.24C14305.5 7242.78 14299.5 7176.48 14299 7110.03C14295.6 7013.73 14309.5 6917.61 14340.3 6826.29L14348.7 6803.75L14358.2 6784.75C14362.7 6774.64 14368.1 6765 14374.5 6755.97L14385.9 6739.13C14387.2 6737.22 14388.7 6735.4 14390.2 6733.7C14372.4 6763.73 14357.4 6795.36 14345.4 6828.19C14317 6919.31 14304.7 7014.68 14309.1 7110.03C14309.5 7251.62 14339 7391.62 14395.7 7521.38L14598.5 8001.7L14963.7 8875.18L15072.3 9140.45L15101.3 9212.95L15108.7 9231.95C15109.7 9233.77 15110.5 9235.68 15111.1 9237.66Z" fill="#263238"/>
<path d="M14586.8 6240.08C14577.3 6249.72 14567.3 6258.79 14556.7 6267.23C14526.1 6290.51 14492.9 6309.94 14457.6 6325.07C14401.7 6348.39 14343.1 6364.81 14283.3 6373.94C14204.1 6386.24 14124.3 6394.12 14044.3 6397.56C13955.3 6401.37 13858.1 6399.74 13753.8 6401.64C13643 6401.45 13532.7 6414.95 13425.3 6441.82C13306.2 6469.95 13198.5 6533.47 13116.3 6624.01C13075.3 6673.32 13046 6731.23 13030.5 6793.44C13013.9 6857.24 13015 6924.36 13033.7 6987.57C13044.1 7018.77 13059.4 7048.1 13079.1 7074.46C13098.9 7100.04 13123.8 7121.14 13152.4 7136.37C13180.1 7151.53 13211.6 7158.14 13243.1 7155.37C13273.8 7152.22 13302.3 7137.69 13322.9 7114.65C13341.2 7090.41 13354.3 7062.58 13361.2 7032.98C13368.2 7003.37 13368.8 6972.64 13363.1 6942.77C13358.6 6913.28 13349.4 6884.68 13335.9 6858.06C13322.5 6832.09 13306.4 6807.6 13287.9 6785.02C13215.3 6701.38 13117.5 6643.55 13009.3 6620.21C12915.5 6598.08 12817.7 6599.2 12724.5 6623.47C12647.8 6643.31 12574.5 6674.71 12507.2 6716.6C12456 6748.53 12407.7 6784.87 12362.8 6825.21C12325.6 6857.79 12299.3 6886.03 12281.3 6904.49L12261.3 6926.21C12259.1 6928.81 12256.6 6931.17 12253.9 6933.27C12285.9 6892.88 12321.3 6855.36 12359.8 6821.13C12404.3 6780.01 12452.4 6743.11 12503.7 6710.9C12571.6 6667.7 12645.8 6635.27 12723.6 6614.78C12818.4 6589.35 12918 6587.67 13013.6 6609.89C13124.7 6633.32 13225.1 6692.32 13299.5 6777.96C13318.5 6800.62 13335.1 6825.19 13349 6851.27C13362.7 6879.24 13371.8 6909.21 13376.1 6940.06C13380.9 6971.52 13380.3 7003.55 13374.5 7034.82C13368.6 7067.37 13354.3 7097.81 13332.9 7123.06C13310.1 7148.68 13278.5 7164.85 13244.4 7168.41C13210.2 7171.66 13175.8 7164.57 13145.6 7148.04C13115.3 7131.86 13088.7 7109.47 13067.7 7082.34C13046.9 7054.69 13030.8 7023.88 13019.9 6991.1C13000.4 6925.42 12999.2 6855.65 13016.6 6789.37C13032.5 6724.98 13062.8 6665.07 13105.4 6614.24C13189.6 6521.85 13299.8 6457.03 13421.5 6428.25C13530.1 6401.68 13641.7 6388.73 13753.5 6389.69C13858.1 6388.06 13955.3 6389.69 14043.8 6387.25C14123.5 6384.47 14203 6377.31 14281.9 6365.8C14341.4 6357.25 14399.7 6341.76 14455.7 6319.64C14490.8 6305.39 14524.1 6287.17 14555 6265.33C14565.9 6258 14573.2 6251.21 14578.7 6247.41C14581.1 6244.71 14583.9 6242.26 14586.8 6240.08Z" fill="#FAFAFA"/>
<path d="M15484.7 7370.14C15480.9 7371.22 15477 7371.85 15473.1 7372.04C15465.5 7372.04 15454.3 7373.94 15439.7 7374.49C15398.6 7375.84 15357.6 7374.84 15316.7 7371.5C15264.8 7367.7 15203.4 7359.83 15135.6 7350.32C15067.7 7340.82 14993.3 7330.77 14914.5 7326.7C14840.9 7322.69 14767.1 7328.26 14694.9 7343.26C14635.8 7355.27 14579.2 7376.82 14527.1 7407.07C14479.9 7435.92 14438 7472.65 14403.3 7515.68C14404.7 7512.05 14406.8 7508.66 14409.2 7505.63C14415 7496.04 14421.5 7486.96 14428.8 7478.48C14455.1 7446.35 14486.6 7418.82 14521.9 7397.02C14574.4 7364.99 14631.8 7342.04 14691.9 7329.14C14765.2 7313.13 14840.4 7307.11 14915.4 7311.22C14994.9 7315.3 15069.6 7326.16 15137.5 7336.2C15205.3 7346.25 15266.2 7355.21 15317.5 7360.1C15368.8 7364.98 15410.9 7367.16 15439.7 7367.43C15454.7 7367.41 15469.8 7368.31 15484.7 7370.14Z" fill="#FAFAFA"/>
<path d="M14832.3 8587.37C14781.2 8575.49 14728.7 8571.01 14676.4 8574.06C14615.1 8578.21 14554.3 8589.05 14495.3 8606.37C14426.1 8625.11 14348.7 8652.53 14261.8 8679.41C14167.5 8711.4 14068.7 8728.53 13969.1 8730.19C13854.4 8730.16 13740.9 8706.59 13635.7 8660.95C13518.7 8611.52 13414.7 8535.91 13331.6 8439.93C13286.6 8389.78 13250 8332.77 13223 8271.05C13194.3 8207.17 13183.5 8136.68 13191.7 8067.14C13201.2 7997.03 13235.4 7932.62 13288.1 7885.49C13314.3 7862.64 13345.8 7846.6 13379.6 7838.79C13412.8 7831.77 13447.1 7832.71 13479.8 7841.54C13512.5 7850.36 13542.7 7866.82 13567.8 7889.56C13592.3 7912.06 13609.4 7941.53 13616.7 7974C13623.7 8005.8 13621.2 8038.96 13609.3 8069.31C13597.9 8098.48 13580.6 8125 13558.6 8147.23C13516.5 8189.41 13465.6 8221.76 13409.5 8241.99C13383.1 8252.02 13355.8 8259.56 13328.1 8264.53C13314.5 8266.97 13300.9 8269.96 13287.6 8271.86L13247.1 8276.75C13147.9 8286.58 13047.8 8279.51 12950.9 8255.84C12871 8236.83 12794.1 8207.24 12722 8167.87C12667.5 8138.44 12616.5 8103.11 12569.7 8062.52L12542.5 8038.9L12520.3 8016.36C12508.3 8004.99 12497 7992.83 12486.6 7979.98L12467.1 7956.63C12464.8 7954.1 12462.8 7951.37 12461.1 7948.48C12463.7 7950.73 12466.2 7953.18 12468.4 7955.81L12488.8 7978.08C12499.6 7990.53 12511.1 8002.32 12523.3 8013.37L12545.8 8035.37L12573 8058.45C12619.9 8097.92 12671 8132.24 12725.3 8160.81C12796.9 8199.11 12873.4 8227.77 12952.5 8246.07C13048.4 8268.91 13147.5 8275.33 13245.5 8265.07L13285.2 8260.19C13298.5 8258.01 13312.3 8255.03 13325.3 8252.58C13352.5 8247.68 13379.1 8240.22 13404.9 8230.32C13459.1 8210.57 13508.3 8179.14 13549.1 8138.27C13569.8 8117.25 13586.1 8092.21 13596.9 8064.69C13607.5 8036.72 13609.9 8006.27 13603.6 7976.99C13595.6 7947.09 13579.5 7919.95 13557.2 7898.51C13534.8 7877.08 13507.1 7862.15 13476.8 7855.35C13445.9 7846.42 13413.2 7845.5 13381.8 7852.67C13350.4 7859.84 13321.4 7874.87 13297.4 7896.35C13247.1 7941.15 13214.6 8002.54 13205.9 8069.31C13198.1 8136.24 13208.4 8204.03 13235.7 8265.62C13262 8325.89 13297.6 8381.68 13341.1 8430.97C13422.8 8525.19 13524.9 8599.48 13639.8 8648.19C13743.3 8693.39 13855 8717.04 13968 8717.7C14066.6 8716.48 14164.4 8699.99 14258 8668.82C14344.6 8641.67 14420.9 8616.15 14492.3 8597.96C14551.9 8581.2 14613.2 8571.09 14675.1 8567.82C14697.6 8566.41 14720.2 8566.41 14742.7 8567.82C14761.9 8570.8 14778.5 8572.16 14791.5 8575.15L14821.1 8582.48C14825.1 8583.59 14828.8 8585.23 14832.3 8587.37Z" fill="#FAFAFA"/>
<path d="M12446.4 8297.65C12444 8297.65 12431.5 8270.5 12405.2 8224.89C12336.2 8109.12 12235.7 8015.41 12115.4 7954.73C12069.3 7931.38 12038.9 7921.06 12039.7 7918.61C12047.3 7919.28 12054.8 7921.01 12062 7923.77C12081.7 7929.66 12101 7936.91 12119.8 7945.49C12182 7973.86 12239.2 8012.1 12289.2 8058.72C12339.3 8105.29 12381.4 8159.78 12413.8 8220C12424.1 8238.03 12433.2 8256.71 12441 8275.93C12443.8 8282.9 12445.6 8290.2 12446.4 8297.65Z" fill="#FAFAFA"/>
<path d="M11392.9 9459.76C11392.9 9459.76 11391 9457.59 11388.6 9452.97C11386.1 9448.35 11382.1 9441.02 11377.5 9432.61C11367.7 9414.69 11353.6 9387.81 11336.2 9353.05C11285.7 9254.94 11244.1 9152.53 11211.8 9047.05C11190.2 8973.77 11177.2 8898.24 11173 8821.96C11170.8 8779.35 11172.6 8736.64 11178.2 8694.35C11184.9 8649.58 11195.6 8605.51 11210.2 8562.66C11241.9 8470.01 11296.8 8387.01 11369.6 8321.55C11408.5 8285.86 11454.2 8258.44 11504 8240.94C11553.8 8223.44 11606.6 8216.22 11659.3 8219.73C11714 8223.82 11765.1 8248.69 11802.1 8289.24C11819.7 8309.29 11832.5 8333.09 11839.5 8358.82C11846.5 8384.56 11847.6 8411.56 11842.6 8437.76C11836.7 8463.46 11823.3 8486.82 11804 8504.82C11785.2 8522.06 11762.4 8534.46 11737.8 8540.94C11690 8553.38 11639.2 8547.27 11595.8 8523.83C11555.4 8502.06 11520.2 8471.98 11492.3 8435.59C11465.6 8401.88 11443.6 8364.7 11426.9 8325.08C11397.5 8253.98 11385.3 8176.95 11391.3 8100.26C11396.8 8036.98 11415.3 7975.51 11445.6 7919.7C11468.1 7877.59 11496.8 7839.14 11530.9 7805.66C11552.1 7784.43 11575.5 7765.41 11600.6 7748.91C11609.1 7743.21 11616.1 7739.68 11620.7 7736.97L11627.8 7733.44C11627.8 7733.44 11619.1 7739.68 11602.3 7751.36C11578 7768.65 11555.4 7788.1 11534.7 7809.46C11502.1 7843.23 11474.7 7881.56 11453.2 7923.23C11424.4 7978.34 11407.1 8038.77 11402.4 8100.8C11397.2 8176 11409.8 8251.37 11439.4 8320.73C11455.8 8359.18 11477.4 8395.25 11503.4 8427.98C11530.5 8462.83 11564.5 8491.6 11603.4 8512.43C11643.9 8534.27 11691.3 8539.9 11735.9 8528.18C11758.7 8522.83 11779.7 8511.28 11796.4 8494.8C11813.1 8478.32 11824.9 8457.55 11830.6 8434.77C11834.9 8410.78 11833.8 8386.13 11827.3 8362.63C11820.8 8339.14 11809.2 8317.4 11793.2 8299.01C11758.5 8261.22 11710.7 8238.1 11659.6 8234.39C11608.8 8231.04 11557.9 8238 11510 8254.85C11462 8271.69 11417.9 8298.08 11380.4 8332.41C11309.4 8396.33 11255.7 8477.23 11224.3 8567.55C11209.7 8609.47 11198.9 8652.64 11192 8696.52C11186.4 8738.08 11184.5 8780.06 11186.3 8821.96C11190.1 8897.43 11202.5 8972.21 11223.2 9044.88C11254.5 9150.1 11294.5 9252.54 11342.7 9351.15L11381.5 9432.61C11385.6 9441.3 11388.9 9448.35 11391.6 9453.79C11394.3 9459.22 11392.9 9459.76 11392.9 9459.76Z" fill="#FAFAFA"/>
<path d="M11057.6 7062.79C11057.6 7062.79 11059 7066.59 11060 7073.92C11062 7084.88 11063.3 7095.94 11064.1 7107.04C11067.7 7147.6 11067.7 7188.4 11064.1 7228.95C11053.2 7364 11007 7493.82 10930.2 7605.44C10853.4 7717.07 10748.6 7806.61 10626.4 7865.12C10589.9 7882.99 10551.8 7897.61 10512.7 7908.84C10499.1 7913.18 10488 7915.08 10480.6 7916.99C10473.3 7918.89 10469.2 7919.16 10469.2 7918.61C10482.8 7912.75 10496.8 7907.76 10511 7903.68C10549.1 7890.47 10586.2 7874.6 10622.1 7856.16C10741 7796.08 10843 7707.04 10918.5 7597.25C10994 7487.46 11040.8 7360.44 11054.3 7227.87C11058.6 7187.84 11060.2 7147.56 11059 7107.31C11057.6 7092.52 11057.1 7077.64 11057.6 7062.79Z" fill="#FAFAFA"/>
<path d="M15722.3 8240.09C15681.9 8265.4 15646.4 8297.78 15617.5 8335.67C15590.4 8370.7 15563.2 8417.13 15532.5 8466C15498.9 8520.72 15460 8572.1 15416.6 8619.41C15337.1 8705.28 15242.8 8776.19 15138.3 8828.75C15106.8 8844.68 15074.3 8858.56 15041.1 8870.29C15028.9 8875.05 15016.4 8878.69 15003.6 8881.15C15014.8 8874.73 15026.7 8869.36 15038.9 8865.13C15061.7 8855.09 15094.8 8840.97 15133.7 8819.79C15235.1 8765.26 15326.8 8694.35 15405.2 8609.9C15448.2 8563.32 15486.8 8512.88 15520.6 8459.21C15547.6 8414.35 15577 8371.02 15608.8 8329.42C15630.9 8301.54 15657.2 8277.27 15686.7 8257.47C15694.8 8252.15 15703.2 8247.52 15712 8243.62C15719.1 8240.91 15722.3 8239.55 15722.3 8240.09Z" fill="#FAFAFA"/>
<path d="M14255 6177.91C14251 6179.61 14246.8 6180.71 14242.5 6181.16L14206.4 6187.68C14174.9 6192.84 14129.3 6199.63 14073.1 6207.23C13960.1 6222.43 13803.8 6240.35 13630.3 6253.12C13549 6260.54 13467.4 6263.44 13385.9 6261.8C13318.6 6260.16 13251.9 6248.73 13187.9 6227.87C13144.8 6213.86 13104 6193.25 13067.1 6166.77C13057.1 6159.68 13047.4 6151.98 13038.3 6143.69C13032.4 6137.72 13029.4 6134.73 13029.6 6134.19C13029.9 6133.65 13043.8 6145.05 13070.1 6161.34C13107.6 6185.46 13148.3 6204.28 13190.9 6217.28C13254.3 6236.57 13320.2 6246.81 13386.4 6247.69C13468 6248.55 13549.6 6245.29 13630.8 6237.91C13803.8 6225.15 13960.1 6209.13 14073.1 6196.37L14207 6181.16C14222.9 6178.95 14238.9 6177.87 14255 6177.91Z" fill="#263238"/>
<path d="M16115.7 9365.27C16136.2 9470.31 16133.3 9578.56 16107.2 9682.35C16081.1 9786.14 16032.5 9882.92 15964.9 9965.83C15897.2 10048.7 15812.2 10115.8 15715.7 10162.1C15619.3 10208.5 15513.8 10233.1 15406.8 10234.1L13350 10211.3L13404.3 9545.29L15165.4 9280.83" fill="#B78876"/>
<path d="M13530.3 9574.34C13520.8 9577.33 13402.2 9524.11 13295.7 9474.96C13182.8 9422.66 13058.9 9398.62 12934.6 9404.91L12444.3 9429.89C12444.3 9429.89 12474.4 9511.35 12525.7 9538.5C12577 9565.65 12884.7 9574.34 12884.7 9574.34L12868.9 9590.36C12804.6 9656.61 12716.9 9695.02 12624.5 9697.34H12577.6C12542.8 9694.58 12508.4 9687.84 12475.2 9677.25L12354.4 9628.37C12317.7 9612.08 12279.2 9614.53 12263.2 9651.45C12247.1 9688.38 12259.4 9730.74 12359.3 9780.97C12414.9 9808.12 12621.8 9880.61 12621.8 9880.61C12623.2 9910.07 12627.3 9939.33 12634 9968.04C12643 9998.18 12724.2 10028.3 12724.2 10028.3C12745.3 10073 12769.4 10116.2 12796.4 10157.6C12805.9 10168.4 12879.5 10191.5 12958 10213.5C13084.5 10248.9 13218.4 10247.9 13344.3 10210.5L13531.1 10154.6V9584.39" fill="#B78876"/>
<path d="M12859.7 9946.59C12773.3 9944.4 12688.6 9922.09 12612.3 9881.43C12612.3 9878.17 12666.6 9898.81 12735.3 9916.45C12804 9934.1 12860 9942.52 12859.7 9946.59Z" fill="#AA6550"/>
<path d="M12842.3 10060.9C12819.3 10065.7 12795.4 10063.9 12773.3 10055.7C12750.3 10051.5 12728.9 10041 12711.4 10025.3C12733.6 10029.8 12755.4 10036 12776.6 10044.1C12798.9 10048 12820.9 10053.6 12842.3 10060.9Z" fill="#AA6550"/>
<path d="M12931.9 9530.08C12921.2 9545.18 12908.5 9558.79 12894.2 9570.54C12861.6 9601.58 12825.8 9628.91 12787.2 9651.99C12748.3 9674.69 12706 9691 12662 9700.32C12644.3 9705.06 12626 9707.07 12607.7 9706.3C12668.4 9692.35 12727 9670.53 12782 9641.41C12819.7 9618.67 12855.6 9592.97 12889.3 9564.56C12902.4 9551.83 12916.7 9540.29 12931.9 9530.08Z" fill="#AA6550"/>
<path d="M13580.3 9485.01L13530.3 10238.2H15467.6C15599.2 10238.3 15728.2 10202.5 15841 10134.8C15968.6 10058.1 16069.4 9943.98 16129.9 9807.95C16190.3 9671.92 16207.4 9520.57 16178.7 9374.5C16150.9 9231.46 16109 9091.5 16053.8 8956.63L15079.6 9117.1L15110.8 9238.2L13580.3 9485.01Z" fill="#BFDBFE"/>
<path d="M15559.7 9174.94C15553.3 9176.8 15546.7 9178.25 15540.1 9179.28L15483.4 9189.6L15274 9224.35L14585.5 9332.96L13896.1 9438.58L13687 9468.99L13630 9476.59C13623.3 9477.52 13616.6 9478.06 13609.9 9478.22C13616.3 9475.99 13623 9474.44 13629.7 9473.61L13686.2 9463.56L13894.7 9428.54L14583.3 9319.93L15274 9213.49L15483.1 9183.08L15540.1 9175.48C15546.6 9174.61 15553.2 9174.42 15559.7 9174.94Z" fill="#263238"/>
<path d="M14568.1 10238.7C14564.6 10238.7 14579.8 10184.4 14581.7 10095.7C14582.1 10071.5 14581.1 10047.4 14578.7 10023.4C14576.3 9996.07 14572.4 9968.86 14566.7 9941.98C14553.3 9880.03 14532.1 9820 14503.7 9763.32C14474.7 9706.89 14439.1 9654.04 14397.8 9605.84L14370.7 9574.07C14361.5 9563.75 14351.4 9554.79 14342.2 9545.56C14324 9526.83 14304.7 9511.89 14287.9 9497.5C14218.6 9443.2 14169.5 9416.05 14171.1 9413.6C14183.1 9418.41 14194.7 9424.32 14205.6 9431.25C14219.1 9438.3 14232.2 9446.19 14244.7 9454.87C14259.1 9465.19 14277 9475.24 14294.1 9489.9C14313.7 9504.54 14332.3 9520.31 14350 9537.14C14359.6 9546.38 14370.1 9555.06 14379.6 9564.3L14409.2 9596.33C14451.8 9644.87 14488.2 9698.39 14517.9 9755.72C14546.6 9813.58 14567.8 9874.9 14580.8 9938.18C14586.4 9965.86 14590 9993.89 14591.7 10022.1C14593.4 10046.5 14593.4 10071 14591.7 10095.4C14591.2 10115.7 14589.4 10135.9 14586.3 10155.9C14584.8 10171 14582.1 10186 14578.4 10200.7C14576.1 10213.7 14572.6 10226.4 14568.1 10238.7Z" fill="#FAFAFA"/>
<path d="M15747.6 10182C15717.3 10181.8 15687.2 10178.3 15657.7 10171.4C15622.9 10163.4 15589.2 10151.5 15557.2 10135.8C15514.8 10114.7 15476.4 10086.2 15444 10051.7C15404.6 10009.3 15376.1 9958.08 15360.6 9902.34C15352.1 9871.35 15347.2 9839.44 15346.3 9807.3C15344.3 9773.33 15347 9739.25 15354.4 9706.03C15361.7 9670.66 15375.3 9636.89 15394.6 9606.38C15414.7 9574.02 15442.8 9547.31 15476 9528.73C15510.5 9508.65 15550 9499.21 15589.8 9501.57C15610.3 9502.99 15630.2 9508.53 15648.4 9517.86C15666.7 9527.2 15682.9 9540.13 15696 9555.88C15709.5 9571.41 15719.7 9589.59 15725.9 9609.27C15732.1 9628.94 15734.1 9649.69 15731.8 9670.19C15728.5 9690.08 15720.8 9708.98 15709.2 9725.51C15697.6 9742.04 15682.6 9755.79 15665 9765.76C15599.3 9800.18 15523.6 9810.55 15451.1 9795.09C15348.1 9779.04 15253.9 9727.47 15185 9649.32C15116 9571.17 15076.5 9471.36 15073.4 9367.17C15071.6 9336.92 15074.2 9306.57 15081 9277.03C15078.5 9306.92 15077.7 9336.93 15078.8 9366.9C15083.9 9448.62 15110.6 9527.53 15156.2 9595.52C15190.2 9645.43 15234 9687.87 15285 9720.23C15336 9752.58 15393.1 9774.18 15452.7 9783.68C15522 9798.58 15594.4 9788.99 15657.4 9756.53C15673.2 9747.63 15686.7 9735.34 15697.2 9720.54C15707.6 9705.75 15714.6 9688.83 15717.7 9671C15719.3 9652.42 15717.2 9633.7 15711.6 9615.93C15705.9 9598.15 15696.8 9581.66 15684.8 9567.41C15672.7 9553.16 15658 9541.42 15641.4 9532.87C15624.9 9524.33 15606.8 9519.13 15588.2 9517.59C15551.4 9515.09 15514.6 9523.49 15482.6 9541.76C15452.4 9559.79 15426.5 9584.11 15406.5 9613.06C15386.6 9642.02 15373.2 9674.94 15367.2 9709.56C15359.8 9741.77 15357 9774.85 15358.7 9807.85C15359.5 9838.95 15364 9869.85 15372 9899.89C15386.4 9954.16 15413.6 10004.2 15451.3 10045.7C15482.4 10079.8 15519.1 10108.2 15559.9 10129.6C15591.2 10145.6 15624.2 10158.1 15658.2 10166.8C15715.3 10179.6 15747.8 10180.1 15747.6 10182Z" fill="#FAFAFA"/>
<path d="M8062.75 1976.68H3210.97C2927.39 1976.68 2655.42 2089.34 2454.9 2289.86C2254.38 2490.38 2141.72 2762.35 2141.72 3045.93V4774.96H1095.02L2141.72 5821.67V6997.08C2141.72 7280.66 2254.38 7552.62 2454.9 7753.15C2655.42 7953.67 2927.39 8066.32 3210.97 8066.32H8062.75C8346.33 8066.32 8618.29 7953.67 8818.82 7753.15C9019.34 7552.62 9131.99 7280.66 9131.99 6997.08V3045.93C9131.99 2762.35 9019.34 2490.38 8818.82 2289.86C8618.29 2089.34 8346.33 1976.68 8062.75 1976.68Z" fill="#5750F1" fill-opacity="0.5"/>
<path d="M6080.66 2159.42C6049.97 2238.97 6102.65 2325.59 6162.11 2386.95C6221.57 2448.31 6292.71 2506.42 6311.45 2589.5C6326.92 2659.28 6301.13 2731.78 6307.37 2802.92C6313.62 2874.06 6352.99 2941.12 6375.25 3010.63C6415.71 3136.62 6399.42 3274.28 6363.31 3401.62C6337.26 3507.44 6287.5 3605.95 6217.77 3689.7C6182.65 3731.18 6139.13 3764.73 6090.07 3788.14C6041.02 3811.54 5987.56 3824.26 5933.22 3825.46C5917.86 3826.43 5902.46 3824.22 5887.98 3818.99C5873.5 3813.76 5860.25 3805.61 5849.05 3795.05C5833.82 3773.08 5825.41 3747.11 5824.88 3720.38C5762.71 3173.68 5762.71 2621.68 5824.88 2074.97" fill="#263238"/>
<path d="M6023.36 3921.31C6259.59 3910.99 6477.89 4137.16 6459.15 4372.84C6698.36 4431.22 6866.43 4694.32 6820.54 4935.97C6805.07 5015.8 6769.5 5091.83 6764.61 5172.74C6759.18 5261.25 6791.76 5347.33 6807.78 5434.21C6838.52 5592.57 6822.1 5756.47 6760.54 5905.57C6723.34 5995.44 6653.83 6088.3 6556.63 6091.02C6523.69 6089.63 6491.61 6080.16 6463.2 6063.45C6434.79 6046.73 6410.93 6023.28 6393.72 5995.17C6359.87 5938.26 6337.55 5875.25 6328.01 5809.72C6285.92 5597.4 6273.7 5379.37 6215.06 5171.11C6156.41 4962.85 6042.37 4757.59 5854.21 4651.96C5750.22 4593.32 5625.32 4565.62 5542.5 4479.55C5500.84 4432.57 5473.07 4374.94 5462.28 4313.08C5451.49 4251.23 5458.12 4187.6 5481.41 4129.29C5505.82 4071.51 5542.13 4019.52 5587.98 3976.71C5633.83 3933.9 5688.18 3901.24 5747.5 3880.85" fill="#263238"/>
<path d="M4388.28 2354.1C4385.56 2253.09 4478.69 2175.17 4572.64 2136.88C4666.58 2098.6 4771.12 2085.84 4854.75 2028.27C4929.14 1978.31 4978.83 1900.39 5041.55 1838.21C5119 1759.67 5215.96 1703.15 5322.47 1674.47C5428.98 1645.79 5541.2 1645.96 5647.62 1674.99C5754.04 1704.01 5850.81 1760.83 5928.01 1839.62C6005.21 1918.41 6060.05 2016.32 6086.9 2123.3C6123.01 2266.94 6098.31 2436.91 5985.08 2532.48C5853.67 2643.26 5659.26 2618.56 5490.1 2584.07C5320.95 2549.59 5130.88 2515.65 4990.23 2614.75C4905.52 2674.22 4856.65 2771.42 4804.79 2861.29C4752.93 2951.17 4688.03 3042.67 4590.01 3076.61C4492 3110.55 4358.68 3051.9 4354.88 2948.45" fill="#263238"/>
<path d="M4786.32 2374.73C4744.28 2379.28 4705.48 2399.43 4677.57 2431.2C4649.67 2462.97 4634.7 2504.06 4635.63 2546.33L4736.36 4827.1C4740.71 5096.44 5134.41 5247.68 5422.76 5240.89C5714.1 5234.1 5723.34 5091.28 5727.14 4834.97C5733.11 4407.06 5732.57 4246.32 5732.84 4248.76C5733.11 4251.2 6100.75 4186.85 6175.96 3705.72C6213.16 3467.06 6200.39 3075.52 6179.49 2755.4C6160.75 2467.32 5969.06 2114.35 5682.06 2145.3L4786.32 2374.73Z" fill="#FFBE9D"/>
<path d="M6096.68 3057.87C6096.83 3073.9 6090.74 3089.35 6079.69 3100.96C6068.64 3112.57 6053.5 3119.42 6037.49 3120.05C6029.74 3120.72 6021.93 3119.84 6014.52 3117.46C6007.12 3115.08 6000.26 3111.26 5994.35 3106.2C5988.43 3101.15 5983.59 3094.97 5980.08 3088.02C5976.58 3081.08 5974.5 3073.51 5973.95 3065.75C5973.73 3049.7 5979.8 3034.21 5990.86 3022.59C6001.93 3010.96 6017.1 3004.14 6033.14 3003.57C6040.89 3002.9 6048.69 3003.78 6056.1 3006.16C6063.51 3008.54 6070.37 3012.37 6076.28 3017.42C6082.19 3022.47 6087.04 3028.65 6090.54 3035.6C6094.04 3042.54 6096.13 3050.11 6096.68 3057.87Z" fill="#263238"/>
<path d="M6095.05 2960.13C6087.44 2968.27 6040.74 2932.98 5974.49 2932.98C5908.24 2932.98 5859.64 2966.64 5852.31 2958.5C5848.78 2954.97 5856.65 2940.31 5877.83 2924.83C5906.42 2904.93 5940.48 2894.39 5975.31 2894.69C6009.79 2894.49 6043.44 2905.23 6071.42 2925.37C6091.79 2941.39 6098.85 2956.6 6095.05 2960.13Z" fill="#263238"/>
<path d="M5459.96 3057.87C5460.12 3073.9 5454.02 3089.35 5442.97 3100.96C5431.92 3112.57 5416.79 3119.42 5400.77 3120.05C5393.02 3120.72 5385.22 3119.84 5377.81 3117.46C5370.41 3115.08 5363.55 3111.26 5357.63 3106.2C5351.72 3101.15 5346.87 3094.97 5343.37 3088.02C5339.87 3081.08 5337.78 3073.51 5337.24 3065.75C5337.01 3049.7 5343.08 3034.21 5354.15 3022.59C5365.21 3010.96 5380.39 3004.14 5396.43 3003.57C5404.18 3002.9 5411.98 3003.78 5419.39 3006.16C5426.79 3008.54 5433.65 3012.37 5439.57 3017.42C5445.48 3022.47 5450.33 3028.65 5453.83 3035.6C5457.33 3042.54 5459.42 3050.11 5459.96 3057.87Z" fill="#263238"/>
<path d="M5445.03 2973.98C5437.43 2982.12 5390.73 2946.82 5324.47 2946.82C5258.22 2946.82 5209.62 2980.49 5202.56 2972.35C5199.03 2968.82 5206.63 2954.15 5227.81 2938.68C5256.39 2918.73 5290.44 2908.1 5325.29 2908.27C5359.8 2908.14 5393.45 2918.98 5421.41 2939.22C5440.41 2955.78 5447.47 2970.45 5445.03 2973.98Z" fill="#263238"/>
<path d="M5685.32 3464.88C5685.32 3461.08 5726.05 3454.02 5793.93 3445.33C5810.77 3443.43 5826.79 3439.9 5829.77 3428.5C5831.02 3411 5827.05 3393.52 5818.37 3378.27L5767.87 3249.57C5698.09 3066.29 5647.31 2915.6 5654.91 2912.88C5662.52 2910.17 5724.97 3056.52 5794.75 3238.71L5843.08 3368.22C5853.6 3388.61 5856.77 3412.02 5852.04 3434.47C5849.65 3440.39 5845.98 3445.71 5841.28 3450.03C5836.59 3454.35 5830.98 3457.57 5824.89 3459.45C5816.04 3461.89 5806.91 3463.17 5797.73 3463.25C5727.14 3468.14 5685.6 3468.68 5685.32 3464.88Z" fill="#263238"/>
<path d="M5732.84 4249.03C5506.72 4252.93 5283.95 4194 5089.34 4078.79C5089.34 4078.79 5246 4408.41 5726.59 4362.25L5732.84 4249.03Z" fill="#EB996E"/>
<path d="M5657.63 3624.54C5644.85 3608.47 5628.13 3595.98 5609.1 3588.28C5590.08 3580.57 5569.38 3577.91 5549.02 3580.55C5534.4 3581.86 5520.2 3586.12 5507.27 3593.08C5494.35 3600.03 5482.96 3609.53 5473.81 3621.01C5464.98 3632.08 5459.78 3645.6 5458.9 3659.74C5458.03 3673.88 5461.53 3687.94 5468.92 3700.02C5479.55 3711.94 5493.52 3720.39 5509.02 3724.27C5524.52 3728.14 5540.82 3727.26 5555.81 3721.74C5587.07 3710.63 5615.78 3693.36 5640.25 3670.97C5647.77 3665.71 5654.22 3659.08 5659.26 3651.42C5661.73 3647.77 5663.06 3643.47 5663.06 3639.06C5663.06 3634.66 5661.73 3630.35 5659.26 3626.71" fill="#EB996E"/>
<path d="M5490.37 3511.58C5501.23 3511.58 5501.51 3582.99 5563.14 3633.77C5624.78 3684.54 5701.34 3676.67 5701.89 3688.07C5701.89 3692.69 5684.78 3702.19 5652.47 3703.01C5610.33 3703.77 5569.27 3689.64 5536.53 3663.09C5505.2 3637.46 5485.05 3600.66 5480.33 3560.46C5477.34 3528.69 5485.49 3511.58 5490.37 3511.58Z" fill="#263238"/>
<path d="M5472.18 2857.76C5465.66 2875.96 5399.41 2867.54 5321.76 2877.04C5244.1 2886.55 5181.11 2908 5170.79 2891.7C5166.18 2884.1 5177.04 2867 5202.29 2849.62C5236 2827.95 5274.21 2814.24 5314.01 2809.54C5353.81 2804.83 5394.16 2809.25 5432 2822.47C5461.59 2835.23 5475.98 2849.35 5472.18 2857.76Z" fill="#263238"/>
<path d="M6069.52 2768.43C6057.85 2783.37 6012.23 2768.43 5957.11 2768.43C5902 2768.43 5855.84 2778.75 5845.25 2763C5840.36 2755.4 5847.69 2740.47 5868.06 2726.08C5895.3 2709.03 5926.99 2700.42 5959.12 2701.34C5991.25 2702.26 6022.39 2712.66 6048.62 2731.24C6069.52 2745.63 6075.23 2761.1 6069.52 2768.43Z" fill="#263238"/>
<path d="M4451 3954.43C4517.2 3967.82 4585.64 3965.27 4650.66 3947C4715.69 3928.73 4775.44 3895.25 4824.98 3849.35C4874.52 3803.44 4912.44 3746.4 4935.6 3682.96C4958.76 3619.51 4966.51 3551.46 4958.19 3484.43C4943.26 3366.32 4879.72 3246.58 4920.72 3134.72C4975.03 2987.28 5181.65 2941.94 5236.5 2794.5C5268.27 2708.97 5239.76 2608.78 5275.87 2524.88C5309.81 2446.14 5392.9 2400.8 5473.81 2371.47C5554.72 2342.15 5641.07 2322.06 5708.95 2269.38C5776.82 2216.71 5818.91 2117.33 5775.2 2043.21C5416.6 2086.23 5064.4 2171.82 4726.04 2298.16C4647.58 2327.49 4565.31 2362.79 4518.88 2432.29C4470 2506.15 4472.45 2601.18 4476.52 2689.69C4496.61 3120.87 4430.9 3524.62 4451 3955.79" fill="#263238"/>
<path d="M4336.69 3819.21C4333.95 3818.81 4331.3 3817.98 4328.81 3816.77C4321.06 3814.07 4313.67 3810.42 4306.82 3805.91C4280.37 3788.8 4259.58 3764.23 4247.08 3735.32C4226.54 3689.6 4221.02 3638.55 4231.34 3589.51C4247.69 3525.79 4277.4 3466.28 4318.49 3414.92C4360.58 3356.27 4414.07 3296.81 4450.45 3221.06C4469.85 3182.56 4480.69 3140.32 4482.22 3097.24C4480.65 3051.52 4471.48 3006.37 4455.07 2963.66C4436.77 2917.48 4427.1 2868.33 4426.56 2818.67C4429.19 2765.52 4444.79 2713.83 4472.01 2668.11C4499.22 2622.39 4537.22 2584.03 4582.68 2556.38C4631.44 2529.77 4685.52 2514.38 4740.98 2511.31C4794.65 2508.67 4847.8 2499.56 4899.27 2484.15C4947.61 2465.85 4987.32 2430.11 5010.6 2383.96C5032.78 2338.57 5050.42 2291.09 5063.27 2242.23C5077.01 2195.35 5095.19 2149.89 5117.58 2106.47C5158.4 2024.15 5220.57 1954.29 5297.59 1904.19C5365.6 1861.43 5445.18 1840.75 5525.4 1845C5591.84 1848.43 5655.14 1874.38 5704.87 1918.58C5741.95 1951.91 5769.58 1994.43 5784.97 2041.85C5794.97 2071.53 5798.76 2102.95 5796.1 2134.16C5795.55 2145.02 5793.73 2155.77 5790.67 2166.2C5790.67 2166.2 5792.57 2155.07 5793.39 2133.89C5794.69 2103.16 5790.08 2072.47 5779.81 2043.48C5761.12 1990.12 5726.81 1943.62 5681.34 1910.01C5635.87 1876.41 5581.35 1857.26 5524.85 1855.04C5446.85 1851.61 5369.68 1872.27 5303.84 1914.23C5228.89 1963.49 5168.5 2031.93 5128.98 2112.44C5107.05 2155.88 5089.4 2201.34 5076.3 2248.2C5063.04 2297.95 5044.85 2346.25 5022 2392.38C5009.41 2416.25 4992.99 2437.9 4973.4 2456.46C4953.14 2475.22 4929.32 2489.71 4903.35 2499.09C4850.44 2515.39 4795.72 2525.06 4740.44 2527.87C4686.99 2530.68 4634.84 2545.44 4587.84 2571.04C4544.38 2597.41 4508.03 2634 4481.95 2677.63C4455.88 2721.27 4440.87 2770.62 4438.23 2821.38C4438.72 2869.52 4447.92 2917.17 4465.39 2962.03C4482.67 3006.05 4492.31 3052.7 4493.9 3099.96C4492.06 3144.78 4480.58 3188.68 4460.23 3228.66C4422.21 3306.31 4368.18 3364.42 4325.83 3423.34C4284.94 3473.25 4255.14 3531.28 4238.4 3593.58C4227.58 3640.99 4232.04 3690.6 4251.16 3735.32C4262.9 3763.8 4282.48 3788.38 4307.63 3806.18C4325.83 3815.41 4336.96 3818.13 4336.69 3819.21Z" fill="#455A64"/>
<path d="M5732.03 1725.53C5738.62 1726.02 5745.02 1727.96 5750.76 1731.23C5767.06 1738.14 5782.32 1747.28 5796.1 1758.38C5843.41 1795.09 5874.75 1848.62 5883.6 1907.83C5892.45 1967.05 5878.13 2027.4 5843.62 2076.33C5833.59 2090.92 5821.73 2104.15 5808.32 2115.7C5798.55 2123.85 5792.57 2127.38 5792.03 2126.56C5807.34 2109.21 5821.75 2091.09 5835.2 2072.26C5865.8 2024.55 5878.07 1967.36 5869.73 1911.3C5861.39 1855.23 5833.02 1804.09 5789.86 1767.34C5771.4 1752.3 5752.09 1738.34 5732.03 1725.53Z" fill="#455A64"/>
<path d="M6795.84 5020.96C6801.56 5004.27 6806.19 4987.21 6809.69 4969.91C6816.05 4922.52 6807.81 4874.3 6786.06 4831.71C6752.57 4769.19 6699.28 4719.53 6634.56 4690.52C6596.68 4672.6 6557.12 4658.51 6516.44 4648.44C6474.09 4637.57 6429.29 4628.61 6384.49 4613.95C6339.41 4601.67 6297.83 4578.98 6263.12 4547.7C6232.02 4516.57 6211.91 4476.16 6205.83 4432.58C6198.5 4392.12 6196.05 4353.84 6187.09 4319.63C6179.06 4287.97 6164.13 4258.49 6143.38 4233.28C6113.01 4196.36 6072.67 4168.93 6027.17 4154.27C5994.86 4144.5 5975.58 4144.5 5975.58 4142.87C5980.18 4142.41 5984.82 4142.41 5989.43 4142.87C6002.71 4143.78 6015.88 4145.87 6028.8 4149.11C6076.42 4162.24 6118.99 4189.4 6150.98 4227.04C6173.34 4253.07 6189.58 4283.78 6198.5 4316.91C6208.27 4352.48 6211.26 4391.31 6218.86 4430.41C6224.44 4471.62 6243.54 4509.82 6273.16 4539.01C6306.46 4568.58 6346.14 4590.04 6389.1 4601.73C6432.82 4615.85 6477.62 4625.08 6520.25 4636.22C6561.46 4646.3 6601.5 4660.68 6639.71 4679.12C6706.59 4709.74 6761.13 4762.08 6794.48 4827.64C6816.22 4872.18 6823.25 4922.47 6814.57 4971.27C6811.99 4984.29 6807.89 4996.95 6802.35 5009.01C6800.6 5013.21 6798.42 5017.21 6795.84 5020.96Z" fill="#455A64"/>
<path d="M4707.31 4170.56C4462.94 4105.4 4253.87 3867.27 4168.62 3630.24C4083.36 3393.2 4083.36 3134.44 4105.35 2883.56C4121.1 2701.91 4153.14 2509.68 4273.69 2372.83C4455.61 2166.48 4653.82 2061.13 4927.51 2069.82" fill="#263238"/>
<path d="M6127.36 4700.03L5900.64 4643.01C5925.35 4626.02 5943.37 4600.94 5951.6 4572.1C5959.83 4543.26 5957.74 4512.45 5945.71 4484.98C5931.36 4449.77 5907.61 4419.17 5877.07 4396.53C5846.52 4373.88 5810.34 4360.05 5772.48 4356.55L4739.08 4239.8C4721.01 4237.39 4702.66 4241.11 4686.96 4250.37C4671.25 4259.62 4659.11 4273.87 4652.46 4290.85C4606.67 4407.42 4605.13 4503.36 4647.85 4578.66H4642.96L4443.66 4618.3L4105.89 7597.95L6318.24 7494.5L6127.36 4700.03Z" fill="#F5F5F5"/>
<path d="M5802.08 4654.41C5788.5 4658.37 5774.6 4661.1 5760.53 4662.55C5733.38 4666.9 5694.56 4671.51 5646.23 4676.4C5393.29 4699.9 5138.3 4687.19 4888.96 4638.66C4841.17 4629.16 4802.89 4620.47 4776.55 4613.41C4762.71 4610.73 4749.16 4606.73 4736.09 4601.46C4750.11 4602.49 4764.01 4604.76 4777.63 4608.25C4804.79 4613.41 4843.07 4620.74 4890.86 4628.88C5139.95 4671.75 5393.3 4684.33 5645.41 4666.35C5693.74 4663.1 5732.84 4659.57 5759.99 4656.85C5773.93 4654.93 5788.01 4654.12 5802.08 4654.41Z" fill="#263238"/>
<path d="M4802.07 5127.94C4823.84 5082.74 4849.74 5039.66 4879.45 4999.24C4905.39 4956.26 4935.3 4915.81 4968.78 4878.41C4946.98 4923.65 4920.98 4966.74 4891.13 5007.11C4865.34 5050.12 4835.52 5090.58 4802.07 5127.94Z" fill="#E0E0E0"/>
<path d="M5515.08 5178.44C5446.07 5107.58 5383.97 5030.3 5329.63 4947.65C5365.81 4981.5 5398.71 5018.68 5427.92 5058.7C5460.78 5095.7 5489.97 5135.8 5515.08 5178.44Z" fill="#E0E0E0"/>
<path d="M5183.83 5557.21C5168.22 5508.91 5157.04 5459.29 5150.43 5408.96C5139.13 5359.48 5132.67 5309.01 5131.15 5258.27C5146.8 5306.56 5157.98 5356.18 5164.55 5406.52C5175.54 5456.06 5182 5506.5 5183.83 5557.21Z" fill="#E0E0E0"/>
<path d="M5728.22 5580.56C5689.89 5628.24 5647.95 5672.9 5602.78 5714.15C5560.83 5758.82 5515.44 5800.13 5467.02 5837.69C5505.35 5790.01 5547.28 5745.35 5592.46 5704.1C5634.59 5659.61 5679.97 5618.32 5728.22 5580.56Z" fill="#E0E0E0"/>
<path d="M4998.11 6088.3C4898.06 6028.52 4816.56 5942.14 4762.7 5838.78C4766.5 5836.33 4808.04 5901.5 4873.48 5970.19C4938.92 6038.89 5000.82 6084.77 4998.11 6088.3Z" fill="#E0E0E0"/>
<path d="M5232.7 6480.38C5232.7 6484.45 5170.79 6504.27 5099.11 6542.55C5027.43 6580.84 4975.03 6621.02 4972.31 6617.49C5006.49 6580.9 5047.31 6551.14 5092.6 6529.79C5135.66 6504.42 5183.24 6487.64 5232.7 6480.38Z" fill="#E0E0E0"/>
<path d="M5614.18 6505.63C5598 6491.92 5583.51 6476.34 5571.01 6459.2C5546.03 6429.33 5512.64 6386.7 5477.88 6338.1C5443.13 6289.5 5413.8 6244.16 5393.44 6210.49C5381.32 6193.08 5371.3 6174.31 5363.57 6154.55C5378.01 6170.05 5390.84 6186.97 5401.86 6205.06L5489.56 6329.96L5578.89 6453.23C5592.47 6469.4 5604.3 6486.96 5614.18 6505.63Z" fill="#E0E0E0"/>
<path d="M5652.47 6840.14C5599.69 6858.64 5545.07 6871.39 5489.56 6878.15C5434.65 6889.61 5378.67 6895.16 5322.57 6894.72C5376.81 6881.08 5431.86 6870.93 5487.39 6864.31C5541.89 6852.99 5597.01 6844.92 5652.47 6840.14Z" fill="#E0E0E0"/>
<path d="M5034.76 4612.32C5032.86 4612.32 5045.89 4596.03 5057.03 4567.25C5070.81 4529.59 5074.92 4489.07 5068.97 4449.41C5062.23 4409.44 5050.47 4370.49 5033.95 4333.47C5025.95 4318.32 5019.75 4302.28 5015.48 4285.68C5026.82 4298.7 5035.99 4313.46 5042.64 4329.4C5062.39 4366.19 5075.88 4406.02 5082.55 4447.24C5089.12 4489.33 5083.37 4532.43 5065.99 4571.32C5059.92 4587.81 5049.04 4602.09 5034.76 4612.32Z" fill="#E0E0E0"/>
<path d="M5448.02 4389.13C5467.38 4415.79 5481.22 4446.05 5488.72 4478.12C5496.23 4510.2 5497.25 4543.46 5491.73 4575.94C5487.66 4575.94 5487.12 4532.77 5474.9 4481.45C5462.68 4430.13 5445.03 4391.3 5448.02 4389.13Z" fill="#E0E0E0"/>
<path d="M7312 6512.15L8341.06 4704.64L8465.14 4391.03C8465.14 4391.03 8786.08 3701.38 8808.34 3630.78C8834.13 3549.32 8879.48 3542.81 8908.8 3554.21C8954.42 3572.4 8969.08 3640.28 8948.99 3710.61C8941.93 3734.77 8817.3 4113.81 8817.3 4113.81C8850.81 4084.92 8886.38 4058.52 8923.74 4034.8C9002.75 3980.5 9147.47 3983.21 9281.6 4031C9415.73 4078.79 9448.85 4104.04 9432.83 4156.71C9429.29 4166.6 9423.58 4175.57 9416.1 4182.94C9408.63 4190.32 9399.59 4195.93 9389.66 4199.34C9358.08 4212.53 9322.69 4213.31 9290.56 4201.51C9074.97 4128.2 8979.4 4225.41 8979.4 4225.41L8963.38 4266.41C8963.38 4266.41 9126.29 4214.55 9217.52 4287.86C9231.14 4298.62 9242.57 4311.89 9251.19 4326.96C9280.71 4336.6 9307.21 4353.79 9328.05 4376.81C9348.89 4399.84 9363.36 4427.91 9370.03 4458.24C9376.69 4488.58 9375.32 4520.13 9366.05 4549.77C9356.78 4579.42 9339.93 4606.12 9317.17 4627.26C9307.27 4638.54 9294.19 4646.55 9279.65 4650.23C9265.1 4653.92 9249.78 4653.1 9235.71 4647.89C9222.55 4638.93 9211.97 4626.66 9205.03 4612.32C9200.61 4605.15 9195.61 4598.34 9190.1 4591.96L9128.73 4700.57C9128.73 4700.57 8977.5 4936.79 8923.19 5047.3L8214.53 6935.17C8191.23 6997.32 8155.78 7054.2 8110.25 7102.5C8064.73 7150.79 8010.03 7189.53 7949.36 7216.45C7888.7 7243.38 7823.27 7257.94 7756.92 7259.29C7690.56 7260.65 7624.6 7248.76 7562.88 7224.34C7496.29 7198.05 7436.12 7157.76 7386.44 7106.2C7336.77 7054.64 7298.75 6993.01 7274.96 6925.48C7251.18 6857.95 7242.17 6786.1 7248.56 6714.79C7254.95 6643.48 7276.58 6574.37 7312 6512.15Z" fill="#FFBE9D"/>
<path d="M8411.92 4698.4C8448.31 4722.29 8498.54 4706 8531.12 4677.76C8563.7 4649.52 8585.42 4610.69 8616.92 4580.01C8708.42 4488.51 8861.29 4479.82 8948.99 4383.98C8961.21 4370.67 8972.07 4350.31 8961.48 4335.65C8950.89 4320.98 8931.34 4323.7 8915.05 4326.96L8493.92 4410.31" fill="#FFBE9D"/>
<path d="M8493.92 4410.31C8508.11 4403.89 8523.08 4399.32 8538.45 4396.74C8567.5 4389.41 8609.86 4379.9 8661.99 4369.59L8845.54 4330.76L8899.84 4319.63C8920.76 4311.97 8943.84 4312.75 8964.19 4321.8C8970 4326.11 8974.4 4332.05 8976.82 4338.87C8979.24 4345.69 8979.57 4353.07 8977.77 4360.08C8974.97 4371.58 8969.37 4382.22 8961.48 4391.04C8947.28 4406.74 8931.34 4420.77 8913.96 4432.85C8843.91 4481.45 8767.07 4501.27 8705.7 4533.58C8676.43 4547.42 8649.5 4565.74 8625.88 4587.89C8604.16 4608.79 8587.05 4632.69 8569.13 4653.05C8556.23 4671.02 8539.56 4685.94 8520.28 4696.78C8501 4707.61 8479.59 4714.1 8457.54 4715.77C8425.23 4715.77 8411.92 4699.75 8413.01 4699.48C8427.15 4704.33 8442.04 4706.63 8456.99 4706.27C8477.02 4702.95 8496.14 4695.53 8513.15 4684.45C8530.16 4673.37 8544.69 4658.89 8555.83 4641.92C8573.22 4618.19 8591.79 4595.35 8611.49 4573.5C8636.1 4549.1 8664.41 4528.76 8695.39 4513.22C8758.65 4479.01 8835.22 4458.92 8899.84 4412.76C8915.41 4401.7 8929.79 4389.05 8942.74 4375.02C8954.69 4361.71 8958.76 4345.69 8950.34 4341.08C8941.93 4336.46 8923.19 4338.63 8904.46 4342.43L8850.15 4352.48L8665.52 4386.42C8612.84 4395.65 8570.22 4402.71 8540.62 4407.06C8525.32 4410.58 8509.56 4411.68 8493.92 4410.31Z" fill="#EB996E"/>
<path d="M8957.68 4266.95C8968.46 4241.75 8985.02 4219.43 9006.01 4201.79C9029.51 4184.16 9058.09 4174.63 9087.46 4174.63C9124.38 4174.86 9161.04 4180.9 9196.07 4192.55C9231.86 4204.63 9268.8 4213 9306.31 4217.53C9337.79 4221.15 9369.66 4216.27 9398.62 4203.42C9408.58 4198.82 9417.33 4191.96 9424.17 4183.38C9431.01 4174.8 9435.74 4164.74 9437.99 4154C9440.05 4146.44 9440.05 4138.48 9437.99 4130.92C9436.36 4130.92 9436.36 4139.07 9432.29 4152.64C9429.31 4161.79 9424.36 4170.18 9417.79 4177.21C9411.23 4184.25 9403.2 4189.76 9394.28 4193.37C9366.64 4203.64 9336.9 4207 9307.66 4203.14C9271.24 4197.41 9235.43 4188.32 9200.69 4175.99C9164.43 4164.06 9126.45 4158.19 9088.28 4158.62C9056.22 4159.36 9025.34 4170.83 9000.58 4191.2C8984.15 4204.87 8971.53 4222.54 8963.92 4242.51C8957.13 4258.53 8956.59 4266.68 8957.68 4266.95Z" fill="#EB996E"/>
<path d="M8956.32 3683.46C8945.67 3707.75 8937.13 3732.91 8930.8 3758.67C8914.78 3810.8 8895.77 3872.7 8874.59 3941.13C8853.41 4009.55 8832.51 4070.91 8815.67 4122.77C8805.85 4147.37 8798.3 4172.82 8793.13 4198.8C8806.63 4175.93 8817.73 4151.72 8826.26 4126.57C8844.18 4080.96 8866.99 4017.97 8889.8 3946.01C8912.6 3874.06 8930.25 3810.25 8941.66 3761.65C8949.28 3736.17 8954.19 3709.96 8956.32 3683.46Z" fill="#EB996E"/>
<path d="M9015.78 4380.45C9024.07 4381.64 9032.48 4381.64 9040.76 4380.45C9051.18 4378.66 9061.86 4379.15 9072.07 4381.87C9082.29 4384.58 9091.8 4389.47 9099.95 4396.19C9104.67 4401.18 9108.02 4407.29 9109.69 4413.95C9111.35 4420.61 9111.27 4427.59 9109.45 4434.21C9105.07 4450.88 9098.59 4466.94 9090.18 4481.99C9079.3 4500.88 9075.73 4523.1 9080.13 4544.44C9083.84 4555.75 9090.14 4566.04 9098.53 4574.48C9106.92 4582.92 9117.17 4589.27 9128.46 4593.04C9139.6 4596.58 9151.34 4597.8 9162.97 4596.63C9174.59 4595.46 9185.86 4591.93 9196.07 4586.26C9215.08 4576.55 9230.7 4561.31 9240.87 4542.54C9255.56 4511.6 9265.63 4478.67 9270.74 4444.8C9274.7 4422.07 9274.7 4398.83 9270.74 4376.1C9269.89 4367.56 9266.59 4359.46 9261.23 4352.75C9259.88 4352.75 9263.41 4361.44 9264.76 4376.92C9265.92 4399.07 9264.01 4421.27 9259.06 4442.89C9252.62 4474.99 9242.04 4506.12 9227.57 4535.48C9218.72 4552.02 9204.66 4565.16 9187.57 4572.87C9170.48 4580.58 9151.32 4582.42 9133.08 4578.11C9124.13 4575.22 9115.99 4570.28 9109.29 4563.68C9102.6 4557.08 9097.54 4549 9094.52 4540.1C9090.98 4522.36 9093.97 4503.94 9102.94 4488.24C9111.38 4471.8 9117.77 4454.38 9121.95 4436.38C9123.77 4427.76 9123.35 4418.82 9120.74 4410.4C9118.12 4401.99 9113.4 4394.39 9107.01 4388.32C9097.57 4380.85 9086.52 4375.68 9074.74 4373.23C9062.96 4370.78 9050.76 4371.11 9039.13 4374.2C9031.06 4375 9023.18 4377.11 9015.78 4380.45Z" fill="#EB996E"/>
<path d="M9193.35 4570.51C9193.35 4570.51 9188.2 4577.57 9188.74 4592.77C9189.51 4603.44 9192.75 4613.78 9198.22 4622.97C9203.69 4632.17 9211.23 4639.95 9220.24 4645.72C9234.15 4653.72 9249.93 4657.94 9265.99 4657.94C9282.04 4657.94 9297.82 4653.72 9311.74 4645.72C9345.23 4626.41 9369.95 4594.88 9380.7 4557.75C9392.53 4521.39 9392.53 4482.23 9380.7 4445.88C9371.07 4416.5 9353.72 4390.24 9330.47 4369.85C9315.15 4356.14 9297.37 4345.46 9278.07 4338.36C9271.21 4335.07 9263.68 4333.39 9256.08 4333.47C9280.27 4345.19 9302.75 4360.17 9322.87 4378C9345.65 4400.22 9361.74 4428.39 9369.33 4459.29C9376.91 4490.2 9375.68 4522.62 9365.77 4552.86C9356.06 4586.22 9334.29 4614.77 9304.68 4632.96C9292.84 4639.9 9279.44 4643.74 9265.72 4644.12C9252 4644.5 9238.41 4641.41 9226.21 4635.13C9218.12 4630.41 9211.13 4624.02 9205.7 4616.39C9200.26 4608.76 9196.52 4600.06 9194.71 4590.87C9192 4578.92 9194.71 4570.51 9193.35 4570.51Z" fill="#EB996E"/>
<path d="M8850.7 4741.02C8839.95 4733.76 8827.28 4729.88 8814.31 4729.89C8781.19 4726.66 8747.93 4734.59 8719.82 4752.43L8731.5 4760.3C8735.17 4742.38 8737.71 4724.24 8739.1 4706C8748.61 4601.19 8715.21 4520.28 8711.95 4522.45C8722.4 4582.58 8726.31 4643.67 8723.63 4704.64C8722.31 4722.04 8720.04 4739.35 8716.84 4756.5L8713.58 4774.15L8728.51 4764.1C8753.95 4747.5 8783.66 4738.63 8814.04 4738.58C8836.58 4739.12 8850.15 4742.92 8850.7 4741.02Z" fill="#EB996E"/>
<path d="M9064.93 4096.98C9060.58 4096.98 9066.55 4129.56 9095.34 4154.54C9124.12 4179.52 9156.43 4181.69 9156.43 4177.08C9156.43 4172.46 9130.63 4164.59 9105.92 4142.59C9081.22 4120.6 9069.27 4095.35 9064.93 4096.98Z" fill="#EB996E"/>
<path d="M5852.31 8012.02L6928.88 8022.61L6748.32 7241.44L6808.87 7388.88C6864.68 7525 6959.72 7641.45 7081.9 7723.4C7204.08 7805.36 7347.88 7849.11 7495 7849.11C7835.49 7849.11 8070.89 7595.78 8214.8 7287.33C8551.48 6566.18 8875.95 5404.89 8875.95 5404.89L8219.69 4828.18C7744.53 5726.91 7298.15 6507.26 7298.15 6507.26C7298.15 6507.26 7169.18 6115.45 7069.53 5765.74C6969.88 5416.02 6970.7 5232.47 6817.83 5058.16C6582.42 4789.9 6247.64 4723.37 5935.94 4643L5924.26 6094L5852.31 8012.02Z" fill="#BFDBFE"/>
<path d="M4620.42 6932.73L6580.79 7312.86L6676.1 8066.05H3670.38C3588.1 8067.06 3506.52 8050.91 3430.83 8018.62C3355.15 7986.33 3287.03 7938.62 3230.82 7878.53C3174.61 7818.44 3131.55 7747.28 3104.38 7669.61C3077.21 7591.94 3066.54 7509.46 3073.03 7427.44C3116.21 6878.43 3163.18 6202.34 3199.02 5916.43C3226.17 5693.52 3315.77 5463 3420.85 5264.79C3572.63 4979.15 4078.47 4613.14 4521.86 4594.13L4605.76 6461.37" fill="#BFDBFE"/>
<g opacity="0.4">
<path d="M5852.31 8012.02L6928.88 8022.61L6748.32 7241.45L6808.87 7388.88C6864.68 7525.01 6959.72 7641.45 7081.9 7723.41C7204.08 7805.36 7347.88 7849.12 7495 7849.11C7835.48 7849.11 8070.89 7595.78 8214.8 7287.34C8551.48 6566.18 8875.95 5404.89 8875.95 5404.89L8219.68 4828.18C7744.53 5726.91 7298.15 6507.26 7298.15 6507.26C7298.15 6507.26 7169.18 6115.46 7069.53 5765.74C6969.88 5416.02 6970.7 5232.48 6817.83 5058.16C6582.42 4789.9 6247.64 4723.38 5935.93 4643.01L5924.26 6094.01L5852.31 8012.02Z" fill="#BFDBFE"/>
<path d="M4620.42 6932.73L6388.56 7256.92C6424.59 7263.59 6457.83 7280.8 6484.07 7306.37C6510.32 7331.94 6528.39 7364.72 6535.99 7400.56L6676.1 8067.68H3670.38C3588.1 8068.69 3506.52 8052.54 3430.83 8020.25C3355.15 7987.96 3287.03 7940.25 3230.82 7880.16C3174.61 7820.06 3131.55 7748.91 3104.38 7671.24C3077.21 7593.57 3066.54 7511.09 3073.03 7429.07C3116.21 6880.05 3163.18 6203.97 3199.02 5918.06C3226.17 5695.14 3315.77 5464.62 3420.85 5266.42C3572.63 4980.78 4078.47 4614.77 4521.86 4595.76L4605.76 6463" fill="#BFDBFE"/>
</g>
<path d="M4247.08 6876.79C4246.38 6870.84 4246.38 6864.83 4247.08 6858.87C4247.08 6845.57 4247.08 6828.46 4247.08 6807.56C4247.08 6761.13 4247.08 6697.05 4247.08 6617.49C4247.08 6458.11 4244.1 6237.37 4231.88 5994.9C4225.63 5873.26 4217.76 5757.59 4209.34 5652.79C4205.4 5559.75 4192.21 5467.34 4169.97 5376.92C4154.44 5316.57 4124.86 5260.74 4083.63 5214.01C4067.66 5197.7 4050.8 5182.29 4033.13 5167.85C4053.86 5178.52 4072.67 5192.56 4088.79 5209.39C4132.75 5255.79 4164.39 5312.45 4180.83 5374.21C4204.55 5465.35 4218.74 5558.71 4223.19 5652.79C4232.42 5757.86 4240.57 5873.53 4246.81 5995.17C4259.3 6239.54 4260.66 6459.2 4257.95 6619.67C4256.32 6699.49 4254.14 6764.11 4252.24 6809.73L4249.26 6861.05C4249.15 6866.36 4248.42 6871.65 4247.08 6876.79Z" fill="#263238"/>
<path d="M6542.78 7367.16C6522.11 7344.31 6498.02 7324.81 6471.37 7309.33C6439.69 7292.07 6406.05 7278.67 6371.18 7269.41C6330.73 7257.74 6283.21 7248.78 6230.81 7238.19C6021.19 7195.29 5732.03 7135.83 5411.63 7075.28C5091.24 7014.73 4799.63 6966.67 4588.66 6933L4338.59 6893.09L4270.71 6881.68C4262.71 6880.7 4254.81 6879.07 4247.09 6876.8C4255.1 6876.84 4263.09 6877.56 4270.98 6878.97L4339.4 6887.66C4398.59 6895.53 4484.39 6907.48 4590.01 6923.23C4801.53 6954.72 5093.41 7001.42 5414.08 7061.43C5734.74 7121.44 6023.91 7182.26 6232.71 7227.33C6285.11 7238.73 6332.63 7248.51 6373.35 7261C6408.61 7270.97 6442.46 7285.39 6474.09 7303.9C6494.41 7315.37 6512.74 7330.04 6528.39 7347.34C6532.57 7351.63 6536.38 7356.27 6539.8 7361.19C6541.7 7364.45 6543.05 7367.16 6542.78 7367.16Z" fill="#263238"/>
<path d="M4253.06 6876.8C4253.06 6879.24 4216.95 6887.66 4161.01 6910.47C4128.36 6923.96 4096.61 6939.56 4065.98 6957.17C4028.94 6979.25 3993.63 7004.12 3960.36 7031.56C3928.01 7059.61 3897.87 7090.11 3870.22 7122.79C3847.46 7149.74 3826.6 7178.23 3807.77 7208.05C3775.73 7259.37 3761.06 7294.12 3758.62 7293.04C3760.31 7284.29 3763.14 7275.8 3767.04 7267.78C3776.29 7245.48 3786.99 7223.8 3799.08 7202.89C3817.21 7171.9 3837.63 7142.32 3860.17 7114.38C3915.91 7046 3984.08 6988.79 4061.09 6945.76C4092.29 6928.16 4124.89 6913.17 4158.57 6900.96C4181.22 6892.51 4204.45 6885.71 4228.08 6880.6C4236.19 6878.17 4244.59 6876.89 4253.06 6876.8Z" fill="#263238"/>
<path d="M6784.43 7345.98C6782.57 7339.86 6781.2 7333.59 6780.36 7327.25C6778.19 7313.67 6775.2 7295.75 6771.67 7272.94C6764.07 7225.97 6754.02 7158.09 6742.62 7073.92C6719.81 6905.85 6692.12 6672.89 6668.77 6414.94C6645.42 6157 6631.57 5922.95 6623.97 5753.25C6620.17 5668.54 6617.99 5599.84 6616.91 5552.33C6616.91 5529.7 6616.91 5511.6 6616.91 5498.02C6616.31 5491.7 6616.31 5485.34 6616.91 5479.02C6618.38 5485.24 6619.1 5491.62 6619.08 5498.02L6622.61 5552.33C6625.6 5601.2 6629.4 5669.35 6634.28 5752.71C6644.33 5922.13 6660.08 6155.91 6683.16 6413.59C6706.24 6671.26 6732.57 6904.22 6752.94 7072.56C6762.99 7155.65 6771.4 7223.26 6777.38 7272.13C6779.82 7294.67 6781.99 7312.59 6783.62 7326.43C6784.72 7332.89 6784.99 7339.46 6784.43 7345.98Z" fill="#263238"/>
<path d="M7434.45 7054.1C7434.45 7054.1 7428.21 7048.12 7418.7 7036.18C7405.54 7018.85 7393.48 7000.71 7382.59 6981.87C7309.73 6857.51 7276.13 6714.03 7286.2 6570.25C7287.57 6548.62 7290.47 6527.12 7294.89 6505.9C7295.85 6497.98 7297.86 6490.22 7300.86 6482.82C7303.31 6482.82 7298.15 6516.49 7296.25 6570.79C7291.71 6712.53 7324.48 6852.98 7391.28 6978.07C7416.8 7025.05 7436.62 7052.47 7434.45 7054.1Z" fill="#263238"/>
<path d="M4239.21 5867.83C4239.21 5867.83 4235.68 5869.19 4229.16 5870C4219.37 5871.57 4209.48 5872.57 4199.57 5872.99C4163.15 5874.52 4126.68 5871.6 4090.96 5864.3C4037.91 5853.64 3986.13 5837.44 3936.47 5815.97C3880.26 5792.62 3820.53 5761.66 3758.08 5731.53C3699.62 5702.16 3639.09 5677.12 3576.97 5656.59C3526.57 5639.66 3474.18 5629.35 3421.12 5625.9C3371.97 5624.3 3322.85 5629.88 3275.32 5642.47C3278.23 5640.53 3281.44 5639.06 3284.82 5638.12C3293.62 5634.27 3302.69 5631.1 3311.97 5628.62C3347.36 5619.14 3383.96 5614.93 3420.58 5616.13C3474.79 5617.83 3528.51 5626.96 3580.23 5643.28C3643.15 5663.52 3704.35 5688.77 3763.24 5718.76C3825.96 5749.72 3885.15 5780.13 3940.54 5803.75C3989.3 5825.41 4040.04 5842.33 4092.05 5854.25C4140.46 5864.15 4189.81 5868.7 4239.21 5867.83Z" fill="#FAFAFA"/>
<path d="M4576.17 5801.85C4524.01 5817.73 4470.6 5829.17 4416.51 5836.06C4362.93 5847.73 4308.41 5854.55 4253.6 5856.43C4305.76 5840.55 4359.17 5829.11 4413.26 5822.22C4466.83 5810.53 4521.36 5803.72 4576.17 5801.85Z" fill="#FAFAFA"/>
<path d="M4226.99 6384.53C4214.5 6391.58 4201.3 6397.31 4187.62 6401.64C4161.83 6411.68 4124.09 6425.26 4077.11 6440.46C3954.28 6479.88 3828.91 6510.9 3701.87 6533.32C3627.48 6546.36 3556.07 6555.86 3490.9 6562.38C3433.11 6569.84 3374.7 6571.39 3316.59 6566.99C3277.17 6563.81 3238.78 6552.82 3203.64 6534.68C3194.08 6529.72 3184.99 6523.9 3176.48 6517.3C3173.35 6515.16 3170.52 6512.6 3168.07 6509.7C3168.07 6509.7 3181.1 6518.12 3205.81 6529.79C3241 6545.68 3278.84 6554.89 3317.4 6556.95C3374.8 6559.92 3432.36 6557.37 3489.27 6549.34C3554.17 6542.01 3625.03 6532.24 3699.16 6519.2C3825.6 6496.78 3950.69 6467.32 4073.86 6430.96C4121.1 6416.84 4159.11 6403.81 4185.45 6396.48C4198.98 6391.48 4212.87 6387.48 4226.99 6384.53Z" fill="#FAFAFA"/>
<path d="M4567.21 6527.62C4518.28 6535.39 4468.74 6538.57 4419.23 6537.12C4369.87 6540.24 4320.32 6538.69 4271.25 6532.51C4320.17 6524.74 4369.71 6521.56 4419.23 6523.01C4468.59 6519.89 4518.13 6521.44 4567.21 6527.62Z" fill="#FAFAFA"/>
<path d="M3169.97 7764.66C3170.28 7759.66 3171.29 7754.73 3172.95 7750C3175.67 7739.14 3179.47 7725.83 3183.81 7709.27L3191.96 7679.95C3195.49 7669.36 3200.11 7658.23 3204.45 7646.01C3214.21 7618.28 3225.45 7591.08 3238.12 7564.55L3260.11 7518.12C3267.99 7501.83 3278.03 7486.08 3287.26 7469.25C3307.74 7433.64 3330.03 7399.12 3354.06 7365.8C3464.98 7212.44 3609.61 7086.58 3776.81 6997.89C3813.18 6978.67 3850.51 6961.36 3888.68 6946.03C3906.87 6939.24 3923.7 6931.37 3940.81 6925.94L3989.96 6910.46C4018.11 6901.49 4046.76 6894.15 4075.76 6888.47C4088.52 6885.75 4100.19 6882.77 4111.05 6880.87L4141.46 6876.79L4183.28 6871.63C4188.14 6870.91 4193.08 6870.91 4197.94 6871.63C4193.31 6873.41 4188.47 6874.59 4183.55 6875.16L4142.28 6883.04L4112.41 6888.2L4077.38 6896.89C4052.4 6903.67 4023.08 6909.38 3992.94 6920.78L3944.61 6937.07C3927.78 6942.77 3910.94 6950.65 3893.29 6957.71C3855.69 6973.31 3818.9 6990.8 3783.06 7010.11C3701.41 7055.27 3624.54 7108.58 3553.62 7169.22C3483.58 7231.03 3419.91 7299.71 3363.56 7374.22C3339.12 7409.51 3314.96 7442.64 3296.49 7476.04C3286.99 7492.6 3276.95 7508.08 3269.34 7524.1L3246.54 7569.71C3231.06 7598.49 3221.56 7626.19 3211.24 7651.17C3206.62 7663.11 3201.73 7674.25 3197.93 7684.56L3188.43 7713.34L3175.13 7753.26C3173.83 7757.24 3172.1 7761.06 3169.97 7764.66Z" fill="#FAFAFA"/>
<path d="M4531.64 6930.55C4486.22 6970.01 4448.48 7017.5 4420.31 7070.66C4390.7 7128.77 4369.67 7190.87 4357.87 7255.02C4343.82 7333.93 4334.75 7413.64 4330.71 7493.69C4327.33 7574.32 4318.26 7654.62 4303.56 7733.98C4290.26 7799.03 4267.29 7861.73 4235.41 7919.97C4214.12 7959.01 4186.61 7994.32 4153.95 8024.51C4145.06 8032.76 4135.53 8040.29 4125.44 8047.04C4118.66 8051.66 4114.86 8054.1 4114.58 8053.56C4160.82 8014.98 4199.33 7967.99 4228.08 7915.08C4258.16 7857.3 4279.74 7795.48 4292.16 7731.54C4306.61 7652.69 4315.68 7572.95 4319.31 7492.87C4322.84 7412.15 4331.91 7331.78 4346.46 7252.3C4359.11 7187.25 4381.44 7124.47 4412.71 7066.04C4434.05 7026.63 4461.55 6990.89 4494.17 6960.15C4502.71 6951.96 4511.78 6944.35 4521.32 6937.34C4524.46 6934.65 4527.92 6932.37 4531.64 6930.55Z" fill="#FAFAFA"/>
<path d="M4995.12 8070.67C4991.32 8070.67 4995.12 7836.62 5005.17 7548.26C5015.21 7259.91 5025.53 7026.13 5029.33 7026.13C5033.13 7026.13 5029.33 7260.18 5019.29 7548.81C5009.24 7837.43 4998.92 8070.94 4995.12 8070.67Z" fill="#FAFAFA"/>
<path d="M5732.03 8030.48C5726.92 8019.6 5722.91 8008.23 5720.08 7996.54C5715.67 7983.17 5711.96 7969.57 5708.95 7955.82C5705.42 7939.8 5700.53 7921.6 5697.54 7901.51C5689.1 7853.61 5684.29 7805.14 5683.15 7756.52C5680.48 7637.04 5698.86 7518.02 5737.46 7404.9C5753.19 7358.83 5772.34 7313.99 5794.75 7270.77C5803.71 7252.04 5813.75 7236.29 5821.9 7222.17C5828.8 7209.88 5836.41 7198 5844.71 7186.6C5850.76 7176.24 5857.96 7166.58 5866.16 7157.82C5868.6 7159.18 5839 7201.26 5803.44 7275.39C5782.33 7318.64 5764.19 7363.27 5749.13 7408.98C5711.94 7520.93 5693.59 7638.28 5694.83 7756.25C5695.44 7804.32 5699.16 7852.29 5705.96 7899.88C5719.54 7980.8 5734.74 8029.67 5732.03 8030.48Z" fill="#FAFAFA"/>
<path d="M4480.59 5029.65C4480.59 5031.82 4437.69 5013.09 4367.1 4990.28C4183.22 4930.92 3988.35 4913.66 3796.91 4939.77C3723.6 4949.82 3678.79 4961.22 3678.25 4958.78C3687.99 4954.08 3698.31 4950.71 3708.93 4948.73C3737.34 4940.88 3766.17 4934.62 3795.28 4930C3988.18 4897.95 4186.06 4915.42 4370.36 4980.77C4398.05 4990.54 4425.23 5001.69 4451.81 5014.17C4462.01 5018.12 4471.67 5023.32 4480.59 5029.65Z" fill="#FAFAFA"/>
<path d="M6625.6 6172.47C6592.02 6174.22 6558.36 6173.68 6524.86 6170.84C6462.68 6168.4 6376.88 6165.14 6282.12 6162.97C6187.36 6160.8 6101.56 6159.44 6039.38 6158.9C6005.77 6159.97 5972.11 6158.79 5938.65 6155.37C5947.55 6153.26 5956.66 6152.17 5965.8 6152.11C5983.18 6152.11 6008.43 6149.66 6039.66 6148.85C6101.83 6146.95 6187.63 6146.41 6282.67 6148.85C6377.7 6151.29 6463.5 6156.18 6527.03 6161.34C6557.99 6163.78 6582.97 6165.96 6600.34 6168.13C6608.89 6168.67 6617.36 6170.13 6625.6 6172.47Z" fill="#FAFAFA"/>
<path d="M7161.58 6069.57C7161.58 6072.01 7127.63 6083.69 7074.69 6109.75C6936.19 6177.88 6818.86 6282.45 6735.29 6412.22C6703.25 6461.91 6687.77 6495.04 6685.6 6493.68C6687.11 6485.11 6690.05 6476.85 6694.29 6469.24C6703.8 6447.66 6714.69 6426.71 6726.87 6406.52C6766.7 6339.38 6816.71 6278.84 6875.12 6227.05C6933.37 6175.1 6999.2 6132.34 7070.34 6100.25C7091.81 6090.58 7113.84 6082.24 7136.32 6075.27C7144.46 6072.28 7152.95 6070.36 7161.58 6069.57Z" fill="#FAFAFA"/>
<path d="M6897.12 5199.35C6850.37 5197.75 6803.7 5204.27 6759.18 5218.63C6711.13 5235.4 6664.55 5256.11 6619.89 5280.53C6564.77 5311.09 6507.19 5336.97 6447.75 5357.91C6337.88 5393.12 6221.02 5400.67 6107.54 5379.91C6073.43 5373.72 6039.91 5364.63 6007.35 5352.76C5995.17 5348.94 5983.42 5343.84 5972.32 5337.55C5972.32 5334.84 6023.37 5356.29 6108.08 5370.13C6219.98 5387.61 6334.42 5378.77 6442.32 5344.34C6501.08 5323.55 6558.18 5298.32 6613.11 5268.86C6658.56 5244.73 6706.08 5224.74 6755.11 5209.12C6788.46 5198.54 6823.31 5193.49 6858.29 5194.19C6867.39 5194.45 6876.46 5195.36 6885.44 5196.9C6893.86 5197.99 6897.39 5198.8 6897.12 5199.35Z" fill="#FAFAFA"/>
<path d="M6761.63 7019.07C6751.78 7025.33 6741.2 7030.34 6730.13 7034.01C6719.81 7038.35 6707.05 7043.51 6691.85 7048.4C6676.64 7053.28 6659.53 7059.8 6640.26 7064.69C6594.79 7077.36 6548.53 7086.97 6501.78 7093.47C6444.54 7100.89 6386.8 7103.88 6329.1 7102.43C6271.41 7100.28 6213.96 7093.84 6157.22 7083.15C6111.18 7073.85 6065.82 7061.42 6021.46 7045.95C6002.19 7039.98 5985.62 7032.65 5970.96 7026.67C5956.3 7020.7 5943.81 7015 5933.49 7010.11C5922.69 7005.62 5912.4 6999.97 5902.81 6993.28C5902.81 6990.83 5948.7 7012.56 6024.72 7036.45C6069.24 7050.46 6114.58 7061.7 6160.48 7070.12C6272.79 7090.91 6387.61 7094.39 6500.97 7080.44C6547.24 7074.74 6593.13 7066.22 6638.36 7054.91C6714.93 7035.36 6760.81 7016.63 6761.63 7019.07Z" fill="#FAFAFA"/>
<path d="M7385.58 7822.77C7381.7 7820.32 7378.15 7817.4 7374.99 7814.08C7368.74 7807.83 7358.43 7799.42 7347.84 7786.93C7315.05 7751.86 7286.27 7713.24 7262.04 7671.8C7183.68 7532.96 7142 7376.43 7140.94 7217.01C7141.12 7058.7 7161.84 6901.08 7202.57 6748.09C7217.24 6689.45 7229.73 6642.2 7239.77 6609.89C7244.39 6594.96 7248.19 6582.74 7251.18 6572.69C7254.16 6562.65 7255.52 6559.66 7256.06 6559.93C7256.01 6564.45 7255.27 6568.93 7253.89 6573.24C7251.72 6583.55 7248.73 6596.04 7245.2 6611.25C7237.06 6646.27 7225.93 6692.7 7212.35 6750.54C7174.87 6903.02 7155.82 7059.45 7155.6 7216.47C7156.47 7373.34 7195.72 7527.61 7269.91 7665.83C7293.17 7707.24 7320.46 7746.25 7351.37 7782.31C7372.82 7808.38 7386.39 7821.68 7385.58 7822.77Z" fill="#FAFAFA"/>
<path d="M8373.64 6900.69C8330.26 6866.28 8281.8 6838.8 8230 6819.23C8173.34 6799.63 8115.24 6784.47 8056.23 6773.89C7982.93 6761.53 7910.4 6744.94 7839.02 6724.2C7710.11 6682.28 7592.46 6611.52 7495 6517.3C7465.61 6488.88 7438.38 6458.29 7413.55 6425.8C7404.59 6414.4 7398.61 6404.89 7394.27 6398.65C7389.92 6392.4 7388.02 6388.87 7388.57 6388.6C7399.06 6399.18 7408.86 6410.42 7417.89 6422.27C7443.95 6453.27 7471.97 6482.57 7501.79 6509.97C7599.67 6600.8 7716.13 6669.26 7843.09 6710.62C7913.74 6731.23 7985.43 6748.09 8057.86 6761.13C8117.37 6772.54 8175.85 6788.8 8232.72 6809.73C8271.13 6824.25 8307.18 6844.38 8339.7 6869.46C8348.58 6876.14 8356.93 6883.49 8364.68 6891.46C8371.47 6897.43 8374.18 6900.42 8373.64 6900.69Z" fill="#FAFAFA"/>
<path d="M8684.26 5994.63C8673.79 5987.15 8664.06 5978.7 8655.2 5969.38C8646.24 5960.96 8635.38 5950.64 8621.81 5939.24C8608.23 5927.84 8594.65 5914.26 8576.19 5901.23C8536.08 5868.87 8494.01 5839.04 8450.21 5811.9C8342.77 5745.45 8225.99 5695.48 8103.75 5663.65C8053.78 5650.79 8003.1 5640.91 7951.97 5634.05C7930.25 5630.52 7910.43 5629.16 7893.05 5627.54C7875.67 5625.91 7860.47 5624.55 7848.25 5624.01C7835.41 5623.95 7822.6 5622.77 7809.96 5620.48C7822.62 5618.52 7835.45 5617.88 7848.25 5618.58C7863.35 5617.82 7878.49 5617.82 7893.59 5618.58C7910.97 5618.58 7931.33 5619.93 7953.33 5622.92C8005 5628.57 8056.25 5637.64 8106.73 5650.07C8168.59 5665.93 8229.2 5686.25 8288.11 5710.89C8346.53 5736.36 8402.98 5766.13 8456.99 5799.95C8500.92 5827.97 8542.92 5858.91 8582.71 5892.54C8600.08 5906.39 8614.2 5919.69 8627.24 5932.72C8638.37 5942.85 8648.98 5953.54 8659 5964.76C8668.47 5973.79 8676.93 5983.8 8684.26 5994.63Z" fill="#FAFAFA"/>
<path d="M6308.46 4748.35C6292.52 4758.99 6275.15 4767.31 6256.87 4773.06C6214.04 4789.86 6170.02 4803.47 6125.18 4813.79C6080.52 4824.31 6035.15 4831.57 5989.43 4835.51C5970.53 4838.38 5951.3 4838.38 5932.41 4835.51C5932.41 4831.17 6018.48 4824.11 6122.47 4799.4C6226.46 4774.69 6306.83 4744.28 6308.46 4748.35Z" fill="#FAFAFA"/>
<path d="M7271.54 8572.44C7275.07 8584.55 7275.5 8597.35 7272.81 8609.68C7270.11 8622.01 7264.37 8633.46 7256.11 8642.99C7247.84 8652.53 7237.32 8659.84 7225.5 8664.25C7213.68 8668.67 7200.95 8670.06 7188.45 8668.28C7173.97 8666.23 7160.4 8660 7149.41 8650.36C7138.41 8640.71 7130.47 8628.07 7126.55 8613.98L7103.47 8528.72H7107C7109.35 8541.03 7108.74 8553.73 7105.22 8565.76C7101.7 8577.79 7095.37 8588.81 7086.75 8597.9C7078.13 8607 7067.46 8613.92 7055.64 8618.08C7043.82 8622.25 7031.17 8623.54 7018.75 8621.85C6983.18 8621.85 6952.5 8569.99 6942.19 8542.57C6915.34 8545.17 6888.29 8540.38 6863.97 8528.7C6839.66 8517.02 6819 8498.9 6804.25 8476.32L6644.87 8227.61L6349.73 8011.75L6528.39 7373.95L7163.47 7785.03C7188.45 7804.58 7192.26 7812.18 7231.9 7849.38L7641.89 8226.52C7595.46 8253.67 7556.09 8252.31 7491.47 8226.52C7426.85 8200.73 7143.92 8009.3 7143.92 8009.3L7271.54 8569.99" fill="#FFBE9D"/>
<path d="M6728.23 8047.86C6728.23 8047.86 6735.56 8051.12 6746.96 8058.99L6768.14 8073.65C6778.21 8079.96 6787.34 8087.64 6795.29 8096.46C6804.7 8107.26 6812.06 8119.68 6817.01 8133.12C6821.9 8147.51 6827.06 8162.17 6832.49 8177.65L6867.25 8279.74C6891.41 8352.5 6912.59 8418.21 6927.25 8466.27C6936.53 8491.76 6943.52 8518.02 6948.16 8544.74C6935.83 8520.52 6925.66 8495.26 6917.75 8469.26C6900.64 8422.01 6877.84 8356.85 6853.67 8284.35C6841.99 8248.24 6830.59 8213.76 6820 8181.99C6815.11 8166.24 6810.5 8151.31 6805.88 8137.19C6801.82 8124.75 6795.67 8113.09 6787.69 8102.71C6780.82 8094.22 6772.98 8086.57 6764.34 8079.9L6744.79 8063.34C6733.12 8054.1 6727.69 8048.67 6728.23 8047.86Z" fill="#EB996E"/>
<path d="M7110.26 8543.38C7106.21 8534.72 7103.2 8525.6 7101.3 8516.23L7080.93 8443.46C7063.55 8382.1 7040.48 8297.11 7010.88 8204.53C6981.28 8111.94 6950.33 8029.4 6913.13 7978.35C6899.26 7957.96 6881.66 7940.37 6861.27 7926.49C6846.34 7917.26 6836.84 7914.54 6837.11 7912.92C6839.62 7912.86 6842.12 7913.32 6844.44 7914.27C6851.2 7916.01 6857.75 7918.46 6863.99 7921.6C6886.53 7934.18 6906.08 7951.51 6921.28 7972.38C6961.73 8023.97 6994.32 8108.14 7024.18 8200.18C7054.05 8292.23 7075.77 8378.84 7090.44 8441.02C7097.77 8471.97 7103.2 8497.22 7106.73 8514.87C7109.33 8524.14 7110.52 8533.76 7110.26 8543.38Z" fill="#EB996E"/>
<path d="M7274.25 8581.94C7269.35 8572.95 7265.61 8563.37 7263.12 8553.43C7256.33 8531.71 7247.92 8505.37 7237.87 8474.15C7217.23 8407.08 7189.81 8314.22 7160.22 8211.59C7130.62 8108.95 7105.91 8018.81 7085.55 7948.21C7078.53 7922.05 7063.3 7898.83 7042.11 7881.96C7033.51 7876.43 7024.42 7871.7 7014.95 7867.84C7017.63 7867.2 7020.42 7867.2 7023.1 7867.84C7030.72 7869.55 7037.98 7872.59 7044.55 7876.8C7068.26 7893.09 7085.77 7916.92 7094.24 7944.41C7116.5 8011.48 7142.84 8104.34 7172.98 8206.97C7203.12 8309.61 7228.64 8403.28 7246.83 8470.89C7254.98 8502.38 7262.04 8529.26 7267.47 8552.34C7270.76 8561.94 7273.03 8571.86 7274.25 8581.94Z" fill="#EB996E"/>
<path d="M11132.5 2694.04C11132.5 2712.83 11138.1 2731.21 11148.6 2746.83C11159 2762.46 11173.8 2774.64 11191.2 2781.84C11208.6 2789.03 11227.7 2790.91 11246.1 2787.24C11264.6 2783.58 11281.5 2774.53 11294.8 2761.24C11308.1 2747.94 11317.1 2731.01 11320.8 2712.58C11324.5 2694.14 11322.6 2675.04 11315.4 2657.67C11308.2 2640.31 11296 2625.46 11280.4 2615.02C11264.7 2604.58 11246.4 2599.01 11227.6 2599.01C11202.4 2599.01 11178.2 2609.02 11160.4 2626.84C11142.6 2644.66 11132.5 2668.83 11132.5 2694.04Z" fill="#455A64"/>
<path d="M10847.2 2789.07C10899.7 2789.07 10942.2 2746.52 10942.2 2694.04C10942.2 2641.55 10899.7 2599.01 10847.2 2599.01C10794.7 2599.01 10752.1 2641.55 10752.1 2694.04C10752.1 2746.52 10794.7 2789.07 10847.2 2789.07Z" fill="#455A64"/>
<path d="M10372.8 2646.52C10363.4 2662.8 10359.1 2681.5 10360.3 2700.25C10361.5 2719.01 10368.3 2736.99 10379.7 2751.9C10391.1 2766.82 10406.7 2778.01 10424.5 2784.05C10442.3 2790.1 10461.5 2790.73 10479.7 2785.87C10497.9 2781.01 10514.2 2770.87 10526.6 2756.74C10539 2742.61 10546.9 2725.12 10549.3 2706.48C10551.8 2687.84 10548.7 2668.9 10540.3 2652.04C10532 2635.18 10518.9 2621.16 10502.6 2611.77C10491.8 2605.5 10479.9 2601.42 10467.5 2599.77C10455.1 2598.12 10442.6 2598.94 10430.5 2602.17C10418.4 2605.4 10407.1 2610.98 10397.2 2618.59C10387.3 2626.2 10379.1 2635.69 10372.8 2646.52Z" fill="#455A64"/>
<path d="M10841.2 1583.8C10834.9 1583.32 10828.5 1583.32 10822.2 1583.8L10765.7 1585.42C10753.2 1585.42 10738.6 1585.42 10723.9 1587.33L10674.2 1594.38L10616.1 1602.8L10551 1618.82C10439.3 1646.53 10333 1692.4 10236.3 1754.58C10093.2 1845.7 9972.78 1968.31 9884.31 2113.06C9795.84 2257.81 9741.63 2420.87 9725.8 2589.77C9721.54 2640.43 9720.54 2691.31 9722.82 2742.1C9724.72 2767.62 9724.18 2793.96 9727.98 2819.75C9731.78 2845.55 9735.85 2871.88 9739.65 2898.22C9759.54 3006.13 9795.22 3110.52 9845.54 3208.02C9899.13 3310.19 9967.27 3404.02 10047.8 3486.6C10133.7 3571 10232 3641.61 10339.4 3695.94C10450.6 3752.82 10570.9 3789.59 10694.9 3804.55C10726.2 3809.23 10757.9 3811.86 10789.6 3812.43C10821.5 3814.83 10853.5 3815.46 10885.5 3814.33C10949.9 3811.67 11014.1 3803.58 11077.2 3790.16C11213.4 3760.65 11342.9 3706.05 11459.2 3629.15L11447.8 3630.51L11836.9 3786.63L11859.9 3795.86L11853.4 3771.97L11738.8 3356L11736.9 3366.05C11842.6 3226.19 11913.7 3063.4 11944.7 2890.89C11959.6 2810.34 11964.7 2728.29 11959.9 2646.52C11958.9 2607.3 11955.2 2568.19 11948.7 2529.5C11945.8 2510.31 11942.9 2491.3 11939.8 2472.48C11936.5 2453.74 11930.8 2435.55 11926.2 2418.17C11861 2162.37 11707 1938.05 11491.8 1785.26C11412.3 1728.39 11325.4 1682.71 11233.6 1649.5L11175.2 1628.6L11120.9 1614.48L11070.4 1601.99C11054.1 1599 11038.3 1597.37 11023.7 1594.93C10994.3 1591.4 10969.4 1586.24 10945.7 1585.15L10888.7 1583.25H10853.7C10849.7 1582.96 10845.7 1582.96 10841.7 1583.25C10845.6 1584.48 10849.7 1585.03 10853.7 1584.88L10888.5 1587.87L10945.2 1591.67C10967.7 1593.3 10993.3 1599 11022.6 1603.34C11233.8 1640.04 11429.8 1737.26 11586.8 1883.21C11743.9 2029.15 11855.2 2217.54 11907.2 2425.51C11911.3 2443.43 11917 2461.35 11920.2 2479.81C11923.5 2498.27 11925.7 2516.74 11928.6 2535.74C11934.9 2573.73 11938.3 2612.11 11939 2650.6C11943.2 2730.49 11937.9 2810.62 11923.2 2889.26C11891.7 3057.99 11821.1 3216.99 11717.1 3353.56L11713.6 3358.18L11715.2 3363.88C11751.4 3498.19 11789.3 3636.93 11828.7 3780.12L11845.3 3765.45L11456.2 3608.79L11450.2 3606.34L11444.5 3609.87C11277.6 3720.44 11083.6 3782.99 10883.6 3790.71C10852.3 3791.8 10821.1 3791.25 10789.9 3789.08C10758.9 3788.51 10728 3785.88 10697.3 3781.2C10576.1 3766.54 10458.5 3730.6 10349.8 3675.04C10244.7 3621.87 10148.3 3552.92 10064.1 3470.58C9985.14 3390.12 9918.2 3298.67 9865.37 3199.06C9816.34 3103.36 9781.58 3001 9762.19 2895.23C9758.12 2868.08 9754.04 2843.92 9750.24 2818.39C9746.44 2792.87 9746.98 2767.35 9745.08 2742.1C9742.54 2692.32 9743.26 2642.44 9747.25 2592.76C9762.05 2426.51 9814.5 2265.8 9900.64 2122.83C9986.78 1979.87 10104.3 1858.39 10244.4 1767.61C10339.5 1704.72 10444.1 1657.59 10554.2 1628.05L10618.3 1610.95L10675.9 1601.44L10725.3 1593.3C10740.5 1591.67 10754.3 1591.13 10766.5 1590.31L10822.7 1586.24C10829 1586.07 10835.2 1585.26 10841.2 1583.8Z" fill="#455A64"/>
</svg>
