<svg width="163" height="22" viewBox="0 0 163 22" fill="none" xmlns="http://www.w3.org/2000/svg">
<path d="M111.915 8.47208C111.915 5.81333 110.254 3.90234 107.179 3.90234H97.043V17.6946H100.366V12.9587H104.271L108.093 17.6946H111.832V17.3623L108.093 12.8756C110.503 12.3771 111.915 10.6323 111.915 8.47208ZM106.764 10.1338H100.366V6.72727H106.764C107.927 6.72727 108.675 7.39196 108.675 8.47208C108.758 9.5522 108.01 10.1338 106.764 10.1338Z" fill="black"/>
<path d="M162.102 3.82227H159.028V9.05669H150.636V3.82227H147.312V17.6146H150.636V12.214H159.028V17.6146H162.102V3.82227Z" fill="black"/>
<path d="M88.1553 3.82227L84.4995 15.3712H84.3333L80.5944 3.82227H74.6953V17.6146H77.8526V6.31485H78.0188L81.6746 17.6146H86.7428L90.4817 6.31485H90.6479V17.6146H93.8882V3.82227H88.1553Z" fill="black"/>
<path d="M52.0091 9.47048C50.8459 9.3874 48.6856 9.13814 47.4393 9.05505C46.2761 8.97197 45.6115 8.55654 45.6115 7.80876C45.6115 7.06099 46.3592 6.47938 49.1842 6.47938C51.6767 6.47938 54.0032 7.06099 56.0803 7.97493V4.90075C54.0862 3.90371 51.8429 3.48828 49.018 3.48828C45.1129 3.48828 42.3711 5.15 42.3711 7.89185C42.3711 10.2183 43.9497 11.5476 47.1901 11.88C48.3533 12.0462 50.3474 12.2123 51.6767 12.2954C53.1723 12.3785 53.5877 12.877 53.5877 13.5417C53.5877 14.4557 52.5076 15.0373 49.9319 15.0373C47.2732 15.0373 44.5313 14.1233 42.5373 12.9601V16.1174C44.1159 17.1975 46.7747 18.0284 49.8488 18.0284C54.0862 18.0284 56.8281 16.3666 56.8281 13.4586C56.8281 11.2153 55.4156 9.80283 52.0091 9.47048Z" fill="black"/>
<path d="M59.0742 3.82227V17.6146H71.8695V14.7896H62.2315V11.9647H71.7033V9.13978H62.2315V6.64719H71.8695V3.82227H59.0742Z" fill="black"/>
<path d="M140.415 9.47048C139.252 9.3874 137.092 9.13814 135.846 9.05505C134.682 8.97197 134.018 8.55654 134.018 7.80876C134.018 7.06099 134.765 6.47938 137.59 6.47938C140.083 6.47938 142.409 6.9779 144.487 7.97493V4.90075C142.492 3.90371 140.249 3.48828 137.424 3.48828C133.519 3.48828 130.777 5.15 130.777 7.89185C130.777 10.2183 132.356 11.5476 135.596 11.88C136.76 12.0462 138.754 12.2123 140.083 12.2954C141.579 12.3785 141.994 12.877 141.994 13.5417C141.994 14.4557 140.914 15.0373 138.338 15.0373C135.679 15.0373 132.938 14.1233 130.944 12.9601V16.1174C132.522 17.1975 135.181 18.0284 138.255 18.0284C142.492 18.0284 145.234 16.3666 145.234 13.4586C145.234 11.2153 143.739 9.80283 140.415 9.47048Z" fill="black"/>
<path d="M125.212 3.82227V10.8846C125.212 13.5433 123.55 15.0389 121.141 15.0389C118.648 15.0389 117.07 13.6264 117.07 10.8846V3.82227H113.746V10.5522C113.746 15.5374 116.903 18.03 121.141 18.03C125.295 18.03 128.452 15.6205 128.452 10.7184V3.82227H125.212Z" fill="black"/>
<path d="M31.0742 10.635C31.0742 11.2997 30.7419 11.3828 29.911 11.3828C28.9971 11.3828 28.8309 11.2166 28.7478 10.5519C28.5816 8.80713 27.4184 7.31158 25.4244 7.22849C24.8428 7.14541 24.6766 6.97924 24.6766 6.14838C24.6766 5.4006 24.7597 5.06825 25.3413 5.06825C28.6647 5.15134 31.0742 7.89318 31.0742 10.635ZM35.9763 10.635C35.9763 5.48369 32.4867 0 24.3442 0H8.30861C7.97627 0 7.72701 0.166172 7.72701 0.498517C7.72701 0.664689 7.8101 0.830861 7.97627 0.913948C8.55787 1.41246 9.38873 1.91098 10.5519 2.49258C11.6321 3.07419 12.546 3.40653 13.3769 3.73888C13.7092 3.90505 13.8754 4.07122 13.8754 4.23739C13.8754 4.48665 13.7092 4.73591 13.2938 4.73591H0.581603C0.166172 4.65282 0 4.90208 0 5.15134C0 5.4006 0.0830862 5.56677 0.249258 5.73294C1.24629 6.81306 2.90802 8.14244 5.31751 9.63799C7.39467 10.9674 10.0534 12.3798 12.1306 13.3769C12.4629 13.543 12.6291 13.7092 12.6291 13.9585C12.6291 14.2077 12.4629 14.3739 12.0475 14.3739H6.14838C5.81603 14.3739 5.64986 14.5401 5.64986 14.7893C5.64986 14.9555 5.73294 15.1217 5.89912 15.2879C7.22849 16.5341 9.38873 17.7804 12.2137 19.0267C16.0356 20.6054 19.8576 21.6024 24.1781 21.6024C32.4036 21.6024 35.9763 15.454 35.9763 10.635ZM25.2582 18.0297C21.2701 18.0297 17.8635 14.7893 17.8635 10.635C17.8635 6.64689 21.187 3.40653 25.2582 3.40653C29.4125 3.40653 32.6529 6.64689 32.6529 10.635C32.6529 14.7062 29.4125 18.0297 25.2582 18.0297Z" fill="#FF642D"/>
</svg>
