<svg xmlns="http://www.w3.org/2000/svg" version="1.1" xmlns:xlink="http://www.w3.org/1999/xlink" xmlns:svgjs="http://svgjs.dev/svgjs" width="2000" height="414" viewBox="0 0 2000 414"><g transform="matrix(1,0,0,1,-1.2121212121212466,-0.4071660736691456)"><svg viewBox="0 0 396 82" data-background-color="#ffffff" preserveAspectRatio="xMidYMid meet" height="414" width="2000" xmlns="http://www.w3.org/2000/svg" xmlns:xlink="http://www.w3.org/1999/xlink"><g id="tight-bounds" transform="matrix(1,0,0,1,0.2400000000000091,0.08064642038857528)"><svg viewBox="0 0 395.52 81.83870715922282" height="81.83870715922282" width="395.52"><g><svg viewBox="0 0 541.8122878214426 112.1086598864472" height="81.83870715922282" width="395.52"><g transform="matrix(1,0,0,1,146.29228782144264,0)"><svg viewBox="0 0 395.52 112.1086598864472" height="112.1086598864472" width="395.52"><g id="textblocktransform"><svg viewBox="0 0 395.52 112.1086598864472" height="112.1086598864472" width="395.52" id="textblock"><g><rect width="46.07808" height="6.842297350296367" y="99.52552299446491" x="349.44192" fill="#ffffff" data-fill-palette-color="tertiary"></rect></g><g><svg viewBox="0 0 395.52 75.87291028446388" height="75.87291028446388" width="395.52"><g transform="matrix(1,0,0,1,0,0)"><svg width="395.52" viewBox="0.27 -31.54 167.34 32.1" height="75.87291028446388" data-palette-color="url(#dc7a5a4d-e82c-4bc4-8b92-b2e4f7461b20)"></svg></g></svg></g><g transform="matrix(1,0,0,1,0,93.78468345277898)"><svg viewBox="0 0 349.44192 18.323976433668218" height="18.323976433668218" width="349.44192"><g transform="matrix(1,0,0,1,8,0)"><svg width="333.44192" viewBox="2.17 -28.98 687.6700000000001 37.79" height="18.323976433668218" data-palette-color="#000000"><path d="M27.93-12.45Q28.52-12.45 28.85-12.77 29.17-13.09 29.17-13.53L29.17-13.53Q29.17-13.94 28.86-14.25 28.54-14.55 27.98-14.55L27.98-14.55 21.04-14.55Q20.48-14.55 20.17-14.25 19.85-13.94 19.85-13.53L19.85-13.53Q19.85-13.09 20.18-12.77 20.51-12.45 21.07-12.45L21.07-12.45 24.1-12.45 24.1-8.11Q23.17-5.2 20.81-3.44 18.46-1.68 14.82-1.68L14.82-1.68Q11.91-1.68 9.57-3.23 7.23-4.79 5.87-7.71 4.52-10.64 4.52-14.65L4.52-14.65Q4.52-18.24 5.71-21 6.91-23.75 9.24-25.32 11.57-26.88 14.84-26.88L14.84-26.88Q17.02-26.88 18.85-26.04 20.68-25.2 21.91-23.68 23.14-22.17 23.51-20.19L23.51-20.19Q23.61-19.65 23.93-19.35 24.24-19.04 24.68-19.04L24.68-19.04Q25.15-19.04 25.48-19.34 25.81-19.63 25.81-20.19L25.81-20.19 25.81-27.34Q25.81-27.93 25.45-28.26 25.1-28.59 24.61-28.59L24.61-28.59Q24.12-28.59 23.77-28.26 23.41-27.93 23.41-27.37L23.41-27.37 23.41-24.78Q22.75-25.98 21.45-26.93 20.14-27.88 18.41-28.43 16.67-28.98 14.77-28.98L14.77-28.98Q11.06-28.98 8.19-27.21 5.32-25.44 3.75-22.23 2.17-19.02 2.17-14.82L2.17-14.82Q2.17-10.23 3.76-6.77 5.35-3.32 8.2-1.45 11.06 0.42 14.79 0.42L14.79 0.42Q16.94 0.42 18.85-0.18 20.75-0.78 22.12-1.84 23.49-2.91 24.1-4.27L24.1-4.27 24.1-1.25Q24.1-0.56 24.45-0.18 24.8 0.2 25.29 0.2L25.29 0.2Q25.76 0.2 26.1-0.17 26.44-0.54 26.44-1.2L26.44-1.2 26.44-12.45 27.93-12.45ZM35.45-9.94Q35.45-6.74 36.84-4.41 38.23-2.08 40.73-0.83 43.23 0.42 46.51 0.42L46.51 0.42Q48.58 0.42 50.96-0.39 53.34-1.2 54.61-2.56L54.61-2.56Q55.05-3.05 55.05-3.59L55.05-3.59Q55.05-4.03 54.78-4.35 54.51-4.66 54.07-4.66L54.07-4.66Q53.59-4.66 53.07-4.25L53.07-4.25Q51.68-2.93 49.91-2.26 48.14-1.59 46.31-1.59L46.31-1.59Q42.55-1.59 40.23-3.59 37.91-5.59 37.79-9.45L37.79-9.45 53.15-9.57Q54-9.57 54.51-10.17 55.03-10.77 55.03-11.69L55.03-11.69Q55.03-14.31 53.89-16.14 52.76-17.97 50.77-18.91 48.78-19.85 46.24-19.85L46.24-19.85Q43.26-19.85 40.81-18.65 38.35-17.46 36.9-15.21 35.45-12.96 35.45-9.94L35.45-9.94ZM46.29-17.85Q50.1-17.85 51.44-15.92 52.78-13.99 52.95-11.35L52.95-11.35 37.86-11.25Q38.3-14.38 40.51-16.11 42.72-17.85 46.29-17.85L46.29-17.85ZM72.87-16.89L81.93-16.89Q82.39-16.89 82.65-17.19 82.91-17.48 82.91-17.9L82.91-17.9Q82.91-18.29 82.65-18.59 82.39-18.9 81.95-18.9L81.95-18.9 72.87-18.9 72.87-24.73Q72.87-25.27 72.7-25.55 72.53-25.83 71.99-25.83L71.99-25.83Q71.28-25.83 70.98-25.21 70.67-24.58 70.6-23.27 70.53-21.95 70.53-18.9L70.53-18.9 66.94-18.9Q66.45-18.9 66.18-18.62 65.91-18.33 65.91-17.94L65.91-17.94Q65.91-17.53 66.21-17.21 66.5-16.89 67.04-16.89L67.04-16.89 70.53-16.89 70.53-4.13Q70.53-2.93 71.39-1.88 72.26-0.83 73.71-0.21 75.17 0.42 76.83 0.42L76.83 0.42Q78.46 0.42 80.12 0.04 81.78-0.34 83.04-0.94 84.3-1.54 84.81-2.15L84.81-2.15Q84.93-2.32 84.93-2.51L84.93-2.51Q84.93-2.93 84.59-3.34 84.25-3.76 83.91-3.76L83.91-3.76Q83.74-3.76 83.64-3.66L83.64-3.66Q82.47-2.78 80.62-2.19 78.78-1.59 77.07-1.59L77.07-1.59Q75.19-1.59 74.03-2.4 72.87-3.22 72.87-4.98L72.87-4.98 72.87-16.89ZM133.44 0.12L133.8 0.59Q135.71 2.91 136.71 3.93 137.71 4.96 138.92 5.48 140.13 6.01 141.93 6.01L141.93 6.01Q142.91 6.01 144.42 5.48 145.94 4.96 146.82 4.13L146.82 4.13Q147.38 3.78 147.38 3.17L147.38 3.17Q147.38 2.76 147.08 2.43 146.79 2.1 146.4 2.1L146.4 2.1Q146.01 2.1 145.69 2.32L145.69 2.32Q143.25 3.96 141.49 3.96L141.49 3.96Q139.98 3.96 138.71 2.64L138.71 2.64 136.61 0.42Q140.47 0.32 143.22-1.77 145.96-3.86 147.34-7.17 148.72-10.47 148.72-14.21L148.72-14.21Q148.72-18.02 147.29-21.4 145.86-24.78 143.03-26.88 140.2-28.98 136.22-28.98L136.22-28.98Q132.24-28.98 129.41-26.88 126.58-24.78 125.15-21.4 123.72-18.02 123.72-14.21L123.72-14.21Q123.72-10.86 124.83-7.85 125.94-4.83 128.13-2.7 130.31-0.56 133.44 0.12L133.44 0.12ZM146.38-14.21Q146.38-10.96 145.23-8.09 144.08-5.22 141.79-3.45 139.49-1.68 136.22-1.68L136.22-1.68Q132.95-1.68 130.65-3.45 128.36-5.22 127.21-8.09 126.06-10.96 126.06-14.21L126.06-14.21Q126.06-17.5 127.24-20.4 128.41-23.29 130.7-25.09 133-26.88 136.22-26.88L136.22-26.88Q139.44-26.88 141.74-25.09 144.03-23.29 145.2-20.4 146.38-17.5 146.38-14.21L146.38-14.21ZM160.29-6.32L160.29-18.75Q160.29-19.09 160.06-19.34 159.83-19.58 159.46-19.58L159.46-19.58Q159.36-19.58 159.17-19.53L159.17-19.53 154.89-18.68Q154.46-18.58 154.24-18.33 154.02-18.09 154.02-17.75L154.02-17.75Q154.02-17.33 154.33-17.02 154.65-16.7 155.14-16.7L155.14-16.7Q155.41-16.7 155.55-16.75L155.55-16.75 157.95-17.24 157.95-6.4Q157.95-4.37 158.79-2.83 159.63-1.29 161.24-0.44 162.85 0.42 165.05 0.42L165.05 0.42Q167.35 0.42 169.47-0.63 171.59-1.68 172.67-3.27L172.67-3.27 172.79-1.15Q172.81-0.54 173.13-0.23 173.45 0.07 173.94 0.07L173.94 0.07 174.11 0.07 178.65-0.42Q179.09-0.51 179.33-0.82 179.58-1.12 179.58-1.49L179.58-1.49Q179.58-1.86 179.33-2.1 179.09-2.34 178.6-2.34L178.6-2.34 178.45-2.34 174.84-2.08 174.84-18.75Q174.84-19.09 174.61-19.34 174.38-19.58 174.01-19.58L174.01-19.58Q173.91-19.58 173.72-19.53L173.72-19.53 169.47-18.68Q169.01-18.58 168.77-18.32 168.54-18.07 168.54-17.72L168.54-17.72Q168.54-17.31 168.86-16.99 169.18-16.67 169.69-16.67L169.69-16.67Q169.91-16.67 170.13-16.75L170.13-16.75 172.5-17.24 172.5-5.64Q171.96-4.52 170.75-3.59 169.54-2.66 168.03-2.12 166.52-1.59 165.08-1.59L165.08-1.59Q162.71-1.59 161.5-2.89 160.29-4.2 160.29-6.32L160.29-6.32ZM201.5-11.96L201.5-11.47 199.72-11.35Q195.74-11.08 193.38-10.67 191.03-10.25 189.41-8.96 187.8-7.67 187.8-5.13L187.8-5.13Q187.8-2.61 189.34-1.11 190.88 0.39 193.61 0.39L193.61 0.39Q196.15 0.39 198.31-0.51 200.47-1.42 201.67-2.76L201.67-2.76Q201.96-1.03 202.82-0.43 203.67 0.17 204.92 0.17L204.92 0.17Q206.02 0.17 207.03-0.31 208.04-0.78 208.82-1.61L208.82-1.61Q209.07-1.86 209.07-2.22L209.07-2.22Q209.07-2.61 208.8-2.93 208.53-3.25 208.16-3.25L208.16-3.25Q207.85-3.25 207.58-2.95L207.58-2.95Q207.16-2.51 206.45-2.14 205.75-1.76 205.11-1.76L205.11-1.76Q204.53-1.76 204.18-2.06 203.84-2.37 203.84-3.22L203.84-3.22 203.84-10.84Q203.84-13.82 203.21-15.78 202.57-17.75 200.97-18.8 199.37-19.85 196.57-19.85L196.57-19.85Q194.08-19.85 192.15-19.19 190.22-18.53 189.15-17.36 188.07-16.19 188.07-14.72L188.07-14.72Q188.07-13.94 188.45-13.45 188.83-12.96 189.54-12.96L189.54-12.96Q190.37-12.96 190.71-13.92 191.05-14.87 191.15-16.75L191.15-16.75Q192.44-17.33 193.72-17.59 195-17.85 196.54-17.85L196.54-17.85Q199.28-17.85 200.39-16.33 201.5-14.82 201.5-11.96L201.5-11.96ZM201.5-4.61Q200.18-3.22 198.12-2.4 196.05-1.59 193.88-1.59L193.88-1.59Q192.2-1.59 191.18-2.43 190.17-3.27 190.17-5.13L190.17-5.13Q190.17-6.84 191.34-7.71 192.51-8.59 194.5-8.95 196.49-9.3 200.5-9.69L200.5-9.69 201.5-9.79 201.5-4.61ZM228.57-28.86L228.3-28.83 218.1-27.91Q217.71-27.86 217.51-27.58 217.32-27.29 217.32-26.93L217.32-26.93Q217.32-26.51 217.59-26.21 217.85-25.9 218.32-25.9L218.32-25.9 218.49-25.93 227.11-26.61 227.11-2 218.1-2Q217.61-2 217.34-1.71 217.07-1.42 217.07-1.03L217.07-1.03Q217.07-0.61 217.37-0.31 217.66 0 218.2 0L218.2 0 237.73 0Q238.19 0 238.45-0.29 238.7-0.59 238.7-1L238.7-1Q238.7-1.39 238.45-1.7 238.19-2 237.75-2L237.75-2 229.45-2 229.45-28.08Q229.45-28.44 229.21-28.65 228.96-28.86 228.57-28.86L228.57-28.86ZM257.04-26.56Q257.04-25.73 257.62-25.15 258.21-24.56 259.06-24.56L259.06-24.56Q259.92-24.56 260.49-25.15 261.06-25.73 261.06-26.56L261.06-26.56Q261.06-27.42 260.48-28 259.89-28.59 259.06-28.59L259.06-28.59Q258.23-28.59 257.63-28 257.04-27.42 257.04-26.56L257.04-26.56ZM268.8 0Q269.27 0 269.54-0.29 269.8-0.59 269.8-1L269.8-1Q269.8-1.39 269.55-1.7 269.29-2 268.83-2L268.83-2 260.7-2 260.7-19.02Q260.7-19.38 260.45-19.59 260.21-19.8 259.82-19.8L259.82-19.8Q259.62-19.8 259.55-19.78L259.55-19.78 249.83-18.43Q249.44-18.38 249.25-18.1 249.05-17.82 249.05-17.46L249.05-17.46Q249.05-17.04 249.32-16.74 249.59-16.43 250.05-16.43L250.05-16.43 250.22-16.46 258.35-17.55 258.35-2 249.27-2Q248.78-2 248.52-1.72 248.25-1.44 248.25-1.05L248.25-1.05Q248.25-0.63 248.54-0.32 248.83 0 249.37 0L249.37 0 268.8 0ZM284.77-16.89L293.83-16.89Q294.29-16.89 294.55-17.19 294.8-17.48 294.8-17.9L294.8-17.9Q294.8-18.29 294.55-18.59 294.29-18.9 293.85-18.9L293.85-18.9 284.77-18.9 284.77-24.73Q284.77-25.27 284.6-25.55 284.43-25.83 283.89-25.83L283.89-25.83Q283.18-25.83 282.88-25.21 282.57-24.58 282.5-23.27 282.42-21.95 282.42-18.9L282.42-18.9 278.83-18.9Q278.35-18.9 278.08-18.62 277.81-18.33 277.81-17.94L277.81-17.94Q277.81-17.53 278.1-17.21 278.4-16.89 278.93-16.89L278.93-16.89 282.42-16.89 282.42-4.13Q282.42-2.93 283.29-1.88 284.16-0.83 285.61-0.21 287.06 0.42 288.72 0.42L288.72 0.42Q290.36 0.42 292.02 0.04 293.68-0.34 294.94-0.94 296.19-1.54 296.71-2.15L296.71-2.15Q296.83-2.32 296.83-2.51L296.83-2.51Q296.83-2.93 296.49-3.34 296.14-3.76 295.8-3.76L295.8-3.76Q295.63-3.76 295.53-3.66L295.53-3.66Q294.36-2.78 292.52-2.19 290.68-1.59 288.97-1.59L288.97-1.59Q287.09-1.59 285.93-2.4 284.77-3.22 284.77-4.98L284.77-4.98 284.77-16.89ZM307.49-18.9Q306.37-18.9 306.37-17.87L306.37-17.87Q306.37-16.89 307.37-16.89L307.37-16.89 309.64-16.89Q310.3-15.45 312.45-10.6L312.45-10.6Q312.87-9.67 314.38-6.25 315.89-2.83 317.28 0.05L317.28 0.05 315.97 3.44Q315.7 4.15 315.05 4.83 314.4 5.52 313.52 5.94 312.65 6.37 311.77 6.37L311.77 6.37Q310.11 6.37 310.11 7.54L310.11 7.54Q310.11 8.13 310.46 8.47 310.81 8.81 311.77 8.81L311.77 8.81Q314.38 8.81 316.1 7.02 317.82 5.22 319.07 2.03L319.07 2.03 326.46-16.89 328.39-16.89Q329.42-16.89 329.42-17.9L329.42-17.9Q329.42-18.9 328.3-18.9L328.3-18.9 321.83-18.9Q320.85-18.9 320.85-17.87L320.85-17.87Q320.85-16.89 321.8-16.89L321.8-16.89 323.97-16.89 318.41-2.32 312.18-16.89 314.67-16.89Q315.62-16.89 315.62-17.87L315.62-17.87Q315.62-18.9 314.62-18.9L314.62-18.9 307.49-18.9ZM391.18-12.45Q391.77-12.45 392.1-12.77 392.43-13.09 392.43-13.53L392.43-13.53Q392.43-13.94 392.11-14.25 391.79-14.55 391.23-14.55L391.23-14.55 384.3-14.55Q383.73-14.55 383.42-14.25 383.1-13.94 383.1-13.53L383.1-13.53Q383.1-13.09 383.43-12.77 383.76-12.45 384.32-12.45L384.32-12.45 387.35-12.45 387.35-8.11Q386.42-5.2 384.06-3.44 381.71-1.68 378.07-1.68L378.07-1.68Q375.17-1.68 372.82-3.23 370.48-4.79 369.12-7.71 367.77-10.64 367.77-14.65L367.77-14.65Q367.77-18.24 368.96-21 370.16-23.75 372.49-25.32 374.82-26.88 378.1-26.88L378.1-26.88Q380.27-26.88 382.1-26.04 383.93-25.2 385.16-23.68 386.4-22.17 386.76-20.19L386.76-20.19Q386.86-19.65 387.18-19.35 387.49-19.04 387.93-19.04L387.93-19.04Q388.4-19.04 388.73-19.34 389.06-19.63 389.06-20.19L389.06-20.19 389.06-27.34Q389.06-27.93 388.7-28.26 388.35-28.59 387.86-28.59L387.86-28.59Q387.37-28.59 387.02-28.26 386.66-27.93 386.66-27.37L386.66-27.37 386.66-24.78Q386.01-25.98 384.7-26.93 383.39-27.88 381.66-28.43 379.93-28.98 378.02-28.98L378.02-28.98Q374.31-28.98 371.44-27.21 368.57-25.44 367-22.23 365.42-19.02 365.42-14.82L365.42-14.82Q365.42-10.23 367.01-6.77 368.6-3.32 371.45-1.45 374.31 0.42 378.05 0.42L378.05 0.42Q380.19 0.42 382.1-0.18 384-0.78 385.37-1.84 386.74-2.91 387.35-4.27L387.35-4.27 387.35-1.25Q387.35-0.56 387.7-0.18 388.06 0.2 388.54 0.2L388.54 0.2Q389.01 0.2 389.35-0.17 389.69-0.54 389.69-1.2L389.69-1.2 389.69-12.45 391.18-12.45ZM402.46-6.32L402.46-18.75Q402.46-19.09 402.23-19.34 401.99-19.58 401.63-19.58L401.63-19.58Q401.53-19.58 401.33-19.53L401.33-19.53 397.06-18.68Q396.62-18.58 396.4-18.33 396.18-18.09 396.18-17.75L396.18-17.75Q396.18-17.33 396.5-17.02 396.82-16.7 397.31-16.7L397.31-16.7Q397.57-16.7 397.72-16.75L397.72-16.75 400.11-17.24 400.11-6.4Q400.11-4.37 400.96-2.83 401.8-1.29 403.41-0.44 405.02 0.42 407.22 0.42L407.22 0.42Q409.51 0.42 411.64-0.63 413.76-1.68 414.84-3.27L414.84-3.27 414.96-1.15Q414.98-0.54 415.3-0.23 415.62 0.07 416.11 0.07L416.11 0.07 416.28 0.07 420.82-0.42Q421.26-0.51 421.5-0.82 421.74-1.12 421.74-1.49L421.74-1.49Q421.74-1.86 421.5-2.1 421.26-2.34 420.77-2.34L420.77-2.34 420.62-2.34 417.01-2.08 417.01-18.75Q417.01-19.09 416.78-19.34 416.54-19.58 416.18-19.58L416.18-19.58Q416.08-19.58 415.89-19.53L415.89-19.53 411.64-18.68Q411.17-18.58 410.94-18.32 410.71-18.07 410.71-17.72L410.71-17.72Q410.71-17.31 411.03-16.99 411.34-16.67 411.86-16.67L411.86-16.67Q412.08-16.67 412.3-16.75L412.3-16.75 414.66-17.24 414.66-5.64Q414.13-4.52 412.92-3.59 411.71-2.66 410.2-2.12 408.68-1.59 407.24-1.59L407.24-1.59Q404.87-1.59 403.67-2.89 402.46-4.2 402.46-6.32L402.46-6.32ZM428.97-9.94Q428.97-6.74 430.36-4.41 431.75-2.08 434.25-0.83 436.76 0.42 440.03 0.42L440.03 0.42Q442.1 0.42 444.48-0.39 446.86-1.2 448.13-2.56L448.13-2.56Q448.57-3.05 448.57-3.59L448.57-3.59Q448.57-4.03 448.3-4.35 448.04-4.66 447.6-4.66L447.6-4.66Q447.11-4.66 446.6-4.25L446.6-4.25Q445.2-2.93 443.43-2.26 441.66-1.59 439.83-1.59L439.83-1.59Q436.07-1.59 433.75-3.59 431.43-5.59 431.31-9.45L431.31-9.45 446.67-9.57Q447.52-9.57 448.04-10.17 448.55-10.77 448.55-11.69L448.55-11.69Q448.55-14.31 447.41-16.14 446.28-17.97 444.29-18.91 442.3-19.85 439.76-19.85L439.76-19.85Q436.78-19.85 434.33-18.65 431.87-17.46 430.42-15.21 428.97-12.96 428.97-9.94L428.97-9.94ZM439.81-17.85Q443.62-17.85 444.96-15.92 446.3-13.99 446.47-11.35L446.47-11.35 431.39-11.25Q431.83-14.38 434.03-16.11 436.24-17.85 439.81-17.85L439.81-17.85ZM461.07-14.31Q461.07-12.26 462.41-11.08 463.76-9.91 466.2-9.45L466.2-9.45 472.69-8.18Q474.25-7.89 474.91-7.12 475.57-6.35 475.57-5.1L475.57-5.1Q475.57-3.32 474.1-2.45 472.62-1.59 469.84-1.59L469.84-1.59Q467.76-1.59 466.05-2.22 464.34-2.86 463.35-3.98 462.36-5.1 462.36-6.47L462.36-6.47Q462.36-7.25 462.13-7.5 461.9-7.74 461.49-7.74L461.49-7.74Q461.14-7.74 460.88-7.42 460.61-7.1 460.61-6.47L460.61-6.47 460.56-0.95Q460.56-0.54 460.85-0.27 461.14 0 461.53 0L461.53 0Q461.9 0 462.16-0.26 462.41-0.51 462.41-1.03L462.41-1.03 462.41-2.49Q463.76-0.95 465.72-0.27 467.69 0.42 469.98 0.42L469.98 0.42Q473.62 0.42 475.78-0.96 477.94-2.34 477.94-5.08L477.94-5.08Q477.94-7.59 476.66-8.81 475.38-10.03 473.01-10.5L473.01-10.5 466.69-11.77Q464.95-12.16 464.27-12.85 463.59-13.55 463.59-14.67L463.59-14.67Q463.59-17.85 468.76-17.85L468.76-17.85Q471.42-17.85 473.27-17.09 475.11-16.33 475.77-14.79L475.77-14.79Q475.79-13.65 475.96-13.18 476.13-12.72 476.74-12.72L476.74-12.72Q477.23-12.72 477.45-12.94 477.67-13.16 477.72-13.62L477.72-13.62 477.77-18.53Q477.77-19.09 477.48-19.41 477.18-19.73 476.77-19.73L476.77-19.73Q476.35-19.73 476.04-19.4 475.72-19.07 475.74-18.51L475.74-18.51 475.74-17.6Q475.01-18.55 473.03-19.2 471.06-19.85 468.93-19.85L468.93-19.85Q465.59-19.85 463.33-18.58 461.07-17.31 461.07-14.31L461.07-14.31ZM496.66-16.89L505.72-16.89Q506.19-16.89 506.44-17.19 506.7-17.48 506.7-17.9L506.7-17.9Q506.7-18.29 506.44-18.59 506.19-18.9 505.75-18.9L505.75-18.9 496.66-18.9 496.66-24.73Q496.66-25.27 496.49-25.55 496.32-25.83 495.79-25.83L495.79-25.83Q495.08-25.83 494.77-25.21 494.47-24.58 494.39-23.27 494.32-21.95 494.32-18.9L494.32-18.9 490.73-18.9Q490.24-18.9 489.97-18.62 489.71-18.33 489.71-17.94L489.71-17.94Q489.71-17.53 490-17.21 490.29-16.89 490.83-16.89L490.83-16.89 494.32-16.89 494.32-4.13Q494.32-2.93 495.19-1.88 496.05-0.83 497.51-0.21 498.96 0.42 500.62 0.42L500.62 0.42Q502.25 0.42 503.92 0.04 505.58-0.34 506.83-0.94 508.09-1.54 508.6-2.15L508.6-2.15Q508.72-2.32 508.72-2.51L508.72-2.51Q508.72-2.93 508.38-3.34 508.04-3.76 507.7-3.76L507.7-3.76Q507.53-3.76 507.43-3.66L507.43-3.66Q506.26-2.78 504.42-2.19 502.57-1.59 500.86-1.59L500.86-1.59Q498.98-1.59 497.82-2.4 496.66-3.22 496.66-4.98L496.66-4.98 496.66-16.89ZM557.87-28.59L549.47-28.59Q548.91-28.59 548.58-28.27 548.25-27.95 548.25-27.51L548.25-27.51Q548.25-27.1 548.56-26.79 548.88-26.49 549.44-26.49L549.44-26.49 553.32-26.49 553.32-2.1 549.1-2.1Q548.54-2.1 548.21-1.78 547.88-1.46 547.88-1.05L547.88-1.05Q547.88-0.61 548.21-0.31 548.54 0 549.12 0L549.12 0 563.68 0Q564.26 0 564.58-0.31 564.9-0.61 564.9-1.05L564.9-1.05Q564.9-1.46 564.58-1.78 564.26-2.1 563.7-2.1L563.7-2.1 555.67-2.1 555.67-12.87 558.5-12.87Q562.48-12.87 565.03-13.32 567.58-13.77 569.27-15.47 570.95-17.16 570.95-20.68L570.95-20.68Q570.95-24.19 569.17-25.92 567.39-27.64 564.69-28.11 561.99-28.59 557.87-28.59L557.87-28.59ZM559.38-14.82L555.67-14.82 555.67-26.49 558.35-26.49Q561.55-26.49 563.6-26.2 565.65-25.9 567.13-24.61 568.61-23.32 568.61-20.58L568.61-20.58Q568.61-17.99 567.37-16.74 566.14-15.48 564.25-15.15 562.36-14.82 559.38-14.82L559.38-14.82ZM579.93-9.72Q579.93-6.67 581.23-4.37 582.52-2.08 584.86-0.83 587.21 0.42 590.28 0.42L590.28 0.42Q593.36 0.42 595.7-0.83 598.05-2.08 599.34-4.37 600.64-6.67 600.64-9.72L600.64-9.72Q600.64-12.79 599.34-15.09 598.05-17.38 595.7-18.62 593.36-19.85 590.28-19.85L590.28-19.85Q587.21-19.85 584.86-18.62 582.52-17.38 581.23-15.09 579.93-12.79 579.93-9.72L579.93-9.72ZM582.57-9.72Q582.57-12.08 583.49-13.93 584.4-15.77 586.15-16.81 587.89-17.85 590.28-17.85L590.28-17.85Q592.68-17.85 594.42-16.81 596.17-15.77 597.08-13.93 598-12.08 598-9.72L598-9.72Q598-7.32 597.08-5.48 596.17-3.64 594.42-2.61 592.68-1.59 590.28-1.59L590.28-1.59Q587.89-1.59 586.15-2.61 584.4-3.64 583.49-5.48 582.57-7.32 582.57-9.72L582.57-9.72ZM612.43-14.31Q612.43-12.26 613.77-11.08 615.11-9.91 617.55-9.45L617.55-9.45 624.05-8.18Q625.61-7.89 626.27-7.12 626.93-6.35 626.93-5.1L626.93-5.1Q626.93-3.32 625.45-2.45 623.97-1.59 621.19-1.59L621.19-1.59Q619.12-1.59 617.41-2.22 615.7-2.86 614.71-3.98 613.72-5.1 613.72-6.47L613.72-6.47Q613.72-7.25 613.49-7.5 613.26-7.74 612.84-7.74L612.84-7.74Q612.5-7.74 612.23-7.42 611.96-7.1 611.96-6.47L611.96-6.47 611.91-0.95Q611.91-0.54 612.21-0.27 612.5 0 612.89 0L612.89 0Q613.26 0 613.51-0.26 613.77-0.51 613.77-1.03L613.77-1.03 613.77-2.49Q615.11-0.95 617.08-0.27 619.04 0.42 621.34 0.42L621.34 0.42Q624.97 0.42 627.14-0.96 629.3-2.34 629.3-5.08L629.3-5.08Q629.3-7.59 628.01-8.81 626.73-10.03 624.36-10.5L624.36-10.5 618.04-11.77Q616.31-12.16 615.62-12.85 614.94-13.55 614.94-14.67L614.94-14.67Q614.94-17.85 620.12-17.85L620.12-17.85Q622.78-17.85 624.62-17.09 626.46-16.33 627.12-14.79L627.12-14.79Q627.15-13.65 627.32-13.18 627.49-12.72 628.1-12.72L628.1-12.72Q628.59-12.72 628.81-12.94 629.03-13.16 629.08-13.62L629.08-13.62 629.12-18.53Q629.12-19.09 628.83-19.41 628.54-19.73 628.12-19.73L628.12-19.73Q627.71-19.73 627.39-19.4 627.07-19.07 627.1-18.51L627.1-18.51 627.1-17.6Q626.37-18.55 624.39-19.2 622.41-19.85 620.29-19.85L620.29-19.85Q616.94-19.85 614.68-18.58 612.43-17.31 612.43-14.31L612.43-14.31ZM648.02-16.89L657.08-16.89Q657.54-16.89 657.8-17.19 658.05-17.48 658.05-17.9L658.05-17.9Q658.05-18.29 657.8-18.59 657.54-18.9 657.1-18.9L657.1-18.9 648.02-18.9 648.02-24.73Q648.02-25.27 647.85-25.55 647.68-25.83 647.14-25.83L647.14-25.83Q646.43-25.83 646.13-25.21 645.82-24.58 645.75-23.27 645.68-21.95 645.68-18.9L645.68-18.9 642.09-18.9Q641.6-18.9 641.33-18.62 641.06-18.33 641.06-17.94L641.06-17.94Q641.06-17.53 641.35-17.21 641.65-16.89 642.18-16.89L642.18-16.89 645.68-16.89 645.68-4.13Q645.68-2.93 646.54-1.88 647.41-0.83 648.86-0.21 650.31 0.42 651.97 0.42L651.97 0.42Q653.61 0.42 655.27 0.04 656.93-0.34 658.19-0.94 659.44-1.54 659.96-2.15L659.96-2.15Q660.08-2.32 660.08-2.51L660.08-2.51Q660.08-2.93 659.74-3.34 659.4-3.76 659.05-3.76L659.05-3.76Q658.88-3.76 658.79-3.66L658.79-3.66Q657.61-2.78 655.77-2.19 653.93-1.59 652.22-1.59L652.22-1.59Q650.34-1.59 649.18-2.4 648.02-3.22 648.02-4.98L648.02-4.98 648.02-16.89ZM672.97-14.31Q672.97-12.26 674.31-11.08 675.65-9.91 678.09-9.45L678.09-9.45 684.59-8.18Q686.15-7.89 686.81-7.12 687.47-6.35 687.47-5.1L687.47-5.1Q687.47-3.32 685.99-2.45 684.52-1.59 681.73-1.59L681.73-1.59Q679.66-1.59 677.95-2.22 676.24-2.86 675.25-3.98 674.26-5.1 674.26-6.47L674.26-6.47Q674.26-7.25 674.03-7.5 673.8-7.74 673.38-7.74L673.38-7.74Q673.04-7.74 672.77-7.42 672.5-7.1 672.5-6.47L672.5-6.47 672.45-0.95Q672.45-0.54 672.75-0.27 673.04 0 673.43 0L673.43 0Q673.8 0 674.05-0.26 674.31-0.51 674.31-1.03L674.31-1.03 674.31-2.49Q675.65-0.95 677.62-0.27 679.58 0.42 681.88 0.42L681.88 0.42Q685.52 0.42 687.68-0.96 689.84-2.34 689.84-5.08L689.84-5.08Q689.84-7.59 688.56-8.81 687.27-10.03 684.91-10.5L684.91-10.5 678.58-11.77Q676.85-12.16 676.17-12.85 675.48-13.55 675.48-14.67L675.48-14.67Q675.48-17.85 680.66-17.85L680.66-17.85Q683.32-17.85 685.16-17.09 687.01-16.33 687.66-14.79L687.66-14.79Q687.69-13.65 687.86-13.18 688.03-12.72 688.64-12.72L688.64-12.72Q689.13-12.72 689.35-12.94 689.57-13.16 689.62-13.62L689.62-13.62 689.67-18.53Q689.67-19.09 689.37-19.41 689.08-19.73 688.67-19.73L688.67-19.73Q688.25-19.73 687.93-19.4 687.62-19.07 687.64-18.51L687.64-18.51 687.64-17.6Q686.91-18.55 684.93-19.2 682.95-19.85 680.83-19.85L680.83-19.85Q677.48-19.85 675.23-18.58 672.97-17.31 672.97-14.31L672.97-14.31Z" opacity="1" transform="matrix(1,0,0,1,0,0)" fill="#ffffff" class="slogan-text-1" data-fill-palette-color="secondary" id="text-1"></path></svg></g></svg></g></svg></g></svg></g><g transform="matrix(1,0,0,1,0,0.8199592008173724)"><svg viewBox="0 0 110.46874148481245 110.46874148481245" height="110.46874148481245" width="110.46874148481245"><g><svg></svg></g><g id="icon-0"><svg viewBox="0 0 110.46874148481245 110.46874148481245" height="110.46874148481245" width="110.46874148481245"><g><path d="M0 55.234c0-30.505 24.729-55.234 55.234-55.234 30.505 0 55.234 24.729 55.235 55.234 0 30.505-24.729 55.234-55.235 55.235-30.505 0-55.234-24.729-55.234-55.235zM55.234 103.626c26.726 0 48.392-21.666 48.392-48.392 0-26.726-21.666-48.392-48.392-48.392-26.726 0-48.392 21.666-48.392 48.392 0 26.726 21.666 48.392 48.392 48.392z" data-fill-palette-color="tertiary" fill="#ffffff" stroke="transparent"></path></g><g transform="matrix(1,0,0,1,26.204411834608006,33.98908561532318)"><svg viewBox="0 0 58.05991781559644 42.490570254166094" height="42.490570254166094" width="58.05991781559644"><g><svg xmlns="http://www.w3.org/2000/svg" xmlns:xlink="http://www.w3.org/1999/xlink" version="1.1" x="0" y="0" viewBox="0 13.408 100 73.184" enable-background="new 0 0 100 100" xml:space="preserve" height="42.490570254166094" width="58.05991781559644" class="icon-dxe-0" data-fill-palette-color="accent" id="dxe-0"><path d="M47.827 28.983L47.81 28.997A27 27 0 0 0 45.816 30.709L45.795 30.73A27 27 0 0 0 43.978 32.634L43.971 32.643C39.944 37.305 37.5 43.37 37.5 50 37.5 54.225 38.495 58.22 40.255 61.771 43.874 60.389 46.76 57.372 47.931 53.665A16.3 16.3 0 0 1 47.5 50C47.5 46.839 48.43 43.876 50.004 41.344 50.229 40.982 50.467 40.629 50.718 40.285A17 17 0 0 1 53.135 37.63C53.211 37.562 53.283 37.49 53.362 37.424 53.575 37.24 53.8 37.068 54.022 36.895A15.5 15.5 0 0 1 55.873 35.646C56.036 35.552 56.197 35.454 56.363 35.365 56.782 35.14 57.209 34.928 57.648 34.74L57.66 34.734A16.3 16.3 0 0 1 64.092 33.411H89.842C95.451 33.411 99.998 28.933 99.998 23.411H64.092V23.408A26.44 26.44 0 0 0 47.827 28.983" fill="#ffffff" data-fill-palette-color="accent"></path><path d="M100 66.591H64.092C63.284 66.591 62.495 66.511 61.717 66.397A30.9 30.9 0 0 1 54.049 74.618 26.5 26.5 0 0 0 64.014 76.592H64A5 5 0 0 1 69 81.592V86.592z" fill="#ffffff" data-fill-palette-color="accent"></path><path d="M35.908 33.409C36.716 33.409 37.505 33.489 38.284 33.603A30.8 30.8 0 0 1 45.952 25.383 26.5 26.5 0 0 0 35.986 23.408H36A5 5 0 0 1 31 18.408V13.408L0 33.408z" fill="#ffffff" data-fill-palette-color="accent"></path><path d="M50.003 72.536A27 27 0 0 0 52.171 71.018L52.192 71.001A27 27 0 0 0 56.017 67.369C56.021 67.364 56.025 67.358 56.031 67.353A27 27 0 0 0 57.654 65.274L57.66 65.267H57.659A26.44 26.44 0 0 0 62.498 49.999C62.498 45.774 61.504 41.779 59.742 38.228 56.123 39.61 53.237 42.627 52.066 46.335 52.339 47.518 52.498 48.741 52.498 49.999 52.498 53.157 51.57 56.117 49.998 58.647A17.1 17.1 0 0 1 46.861 62.37C46.785 62.437 46.713 62.509 46.636 62.574 46.422 62.759 46.198 62.931 45.975 63.104A15.4 15.4 0 0 1 44.128 64.35C43.963 64.446 43.801 64.545 43.633 64.635A16 16 0 0 1 42.361 65.253L42.337 65.265A16.3 16.3 0 0 1 35.905 66.588H10.157C4.547 66.588 0 71.066 0 76.588H35.908V76.592C41.082 76.592 45.912 75.102 50.001 72.534 50.002 72.537 50.003 72.536 50.003 72.536" fill="#ffffff" data-fill-palette-color="accent"></path></svg></g></svg></g></svg></g></svg></g></svg></g><defs></defs><mask id="e75bbe7f-1ff2-4f3b-a363-12b02bf1a50b"><g id="SvgjsG1261"><svg viewBox="0 0 395.52 81.83870715922282" height="81.83870715922282" width="395.52"><g><svg viewBox="0 0 541.8122878214426 112.1086598864472" height="81.83870715922282" width="395.52"><g transform="matrix(1,0,0,1,146.29228782144264,0)"><svg viewBox="0 0 395.52 112.1086598864472" height="112.1086598864472" width="395.52"><g id="SvgjsG1260"><svg viewBox="0 0 395.52 112.1086598864472" height="112.1086598864472" width="395.52" id="SvgjsSvg1259"><g><rect width="46.07808" height="6.842297350296367" y="99.52552299446491" x="349.44192" fill="black"></rect></g><g><svg viewBox="0 0 395.52 75.87291028446388" height="75.87291028446388" width="395.52"><g transform="matrix(1,0,0,1,0,0)"><svg width="395.52" viewBox="0.27 -31.54 167.34 32.1" height="75.87291028446388" data-palette-color="url(#dc7a5a4d-e82c-4bc4-8b92-b2e4f7461b20)"><path d="M28.91-24.46L17.77 0.46 16.5 0.46 5-24.95Q4.39-26.29 3.31-26.97 2.22-27.64 0.27-27.81L0.27-27.81 0.27-28.54Q1.54-28.52 3.08-28.47 4.61-28.42 6.23-28.42L6.23-28.42Q8.54-28.42 10.34-28.47 12.13-28.52 13.18-28.54L13.18-28.54 13.18-27.81Q9.89-27.73 9.13-26.99 8.37-26.25 9.28-24.24L9.28-24.24 18.46-3.03 25.71-19.26Q27.64-23.56 26.66-25.71 25.68-27.86 22.53-27.81L22.53-27.81 22.53-28.54Q23.73-28.54 25.39-28.48 27.05-28.42 28.83-28.42L28.83-28.42Q29.91-28.42 30.9-28.45 31.88-28.49 33.74-28.54L33.74-28.54 33.74-27.81Q31.93-27.61 30.81-26.89 29.69-26.17 28.91-24.46L28.91-24.46ZM45.65 0.56L45.65 0.56Q42.84 0.56 40.74-0.78 38.64-2.12 37.47-4.52 36.3-6.91 36.3-10.01L36.3-10.01Q36.3-15.11 38.88-18.23 41.45-21.34 45.97-21.34L45.97-21.34Q48.46-21.34 50.3-20.02 52.15-18.7 53.15-16.6 54.15-14.5 54.1-12.18L54.1-12.18 40.23-12.18Q40.21-11.91 40.21-11.43L40.21-11.43Q40.21-5.98 41.95-3.37 43.7-0.76 46.9-0.76L46.9-0.76Q48.95-0.76 50.68-1.73 52.41-2.71 53.42-4.93L53.42-4.93 54.07-4.13Q53.12-1.78 50.89-0.61 48.65 0.56 45.65 0.56ZM45.73-20.56L45.73-20.56Q44.41-20.56 43.25-19.45 42.09-18.33 41.29-16.59 40.5-14.84 40.28-12.99L40.28-12.99 50.24-12.99Q50.31-17.19 49.2-18.87 48.09-20.56 45.73-20.56ZM57.54 0L57.54 0 57.54-0.76Q59.47-0.81 60.19-1.48 60.91-2.15 60.91-3.96L60.91-3.96 60.91-19.97 57.39-19.97 57.39-20.73 60.91-20.73 60.91-22.05Q60.91-26.2 62.89-28.87 64.86-31.54 68.77-31.54L68.77-31.54Q70.99-31.54 72.38-30.55 73.77-29.57 73.77-27.83L73.77-27.83Q73.77-26.71 73.15-25.99 72.53-25.27 71.58-25.27L71.58-25.27Q70.82-25.27 70.33-25.77 69.84-26.27 69.84-26.95L69.84-26.95Q69.84-27.81 70.38-28.58 70.92-29.35 70.92-29.93L70.92-29.93Q70.92-30.81 69.16-30.81L69.16-30.81Q66.77-30.81 65.66-28.59 64.55-26.37 64.55-21.78L64.55-21.78 64.55-20.73 69.16-20.73 69.16-19.97 64.55-19.97 64.55-3.96Q64.55-2.29 65.56-1.55 66.57-0.81 69.06-0.76L69.06-0.76 69.06 0Q68.09-0.05 66.32-0.11 64.55-0.17 62.86-0.17L62.86-0.17Q61.18-0.17 59.74-0.11 58.3-0.05 57.54 0ZM83.34 0.56L83.34 0.56Q80.39 0.56 78.04-0.84 75.7-2.25 74.35-4.71 72.99-7.18 72.99-10.35L72.99-10.35Q72.99-13.48 74.33-15.97 75.68-18.46 78.02-19.9 80.36-21.34 83.34-21.34L83.34-21.34Q86.32-21.34 88.66-19.9 91.01-18.46 92.36-15.97 93.72-13.48 93.72-10.35L93.72-10.35Q93.72-7.25 92.36-4.77 91.01-2.29 88.66-0.87 86.32 0.56 83.34 0.56ZM83.34-0.17L83.34-0.17Q85.22-0.17 86.67-1.54 88.13-2.91 88.96-5.21 89.79-7.52 89.79-10.35L89.79-10.35Q89.79-13.21 88.96-15.53 88.13-17.85 86.67-19.21 85.22-20.58 83.34-20.58L83.34-20.58Q81.49-20.58 80.03-19.21 78.58-17.85 77.75-15.53 76.92-13.21 76.92-10.35L76.92-10.35Q76.92-7.5 77.75-5.19 78.58-2.88 80.03-1.53 81.49-0.17 83.34-0.17ZM114.35 0.56L114.35 0.56Q109.71 0.56 106.25-1.21 102.8-2.98 100.89-6.21 98.99-9.45 98.99-13.82L98.99-13.82Q98.99-18.38 100.97-21.81 102.94-25.24 106.47-27.17 110-29.1 114.59-29.1L114.59-29.1Q117.15-29.1 119.25-28.52 121.35-27.93 122.88-27.33 124.4-26.73 125.21-26.73L125.21-26.73Q126.04-26.73 126.45-27.26 126.87-27.78 127.16-29L127.16-29 127.92-29Q127.87-27.98 127.82-26.72 127.77-25.46 127.76-23.57 127.75-21.68 127.75-18.68L127.75-18.68 126.97-18.68Q125.84-23.56 122.61-25.99 119.37-28.42 114.66-28.42L114.66-28.42Q109.17-28.42 106.09-24.71 103.02-21 103.02-14.36L103.02-14.36Q103.02-7.67 106.14-3.89 109.27-0.12 114.81-0.12L114.81-0.12Q119.18-0.12 121.61-2 124.04-3.88 124.04-6.81L124.04-6.81 124.04-8.23Q124.04-9.77 123.66-10.57 123.28-11.38 122.23-11.68 121.18-11.99 119.16-12.01L119.16-12.01 119.16-12.77Q119.81-12.74 121.43-12.7 123.04-12.65 125.36-12.65L125.36-12.65Q127.19-12.65 128.6-12.68 130.02-12.72 131.02-12.77L131.02-12.77 131.02-12.01Q129.58-11.94 128.9-11.69 128.21-11.45 128.02-10.74 127.82-10.03 127.82-8.54L127.82-8.54 127.82 0.42 127.07 0.42Q126.48-1.59 125.09-1.59L125.09-1.59Q124.14-1.59 122.73-1.05 121.33-0.51 119.29 0.02 117.25 0.56 114.35 0.56ZM134.95 0L134.95 0 134.95-0.76Q136.76-0.81 137.48-1.39 138.2-1.98 138.2-3.66L138.2-3.66 138.2-16.48Q138.2-17.99 137.46-18.88 136.73-19.78 134.95-20.02L134.95-20.02 134.95-20.78Q135.73-20.7 136.4-20.68 137.07-20.65 137.68-20.65L137.68-20.65Q140.17-20.65 141.83-21.22L141.83-21.22 141.83-3.66Q141.83-1.98 142.57-1.39 143.3-0.81 145.13-0.76L145.13-0.76 145.13 0Q144.4-0.05 142.94-0.11 141.49-0.17 140.05-0.17L140.05-0.17Q138.61-0.17 137.15-0.11 135.68-0.05 134.95 0ZM140.22-25.71L140.22-25.71Q139.25-25.71 138.56-26.48 137.88-27.25 137.88-28.27L137.88-28.27Q137.88-29.32 138.56-30.05 139.25-30.79 140.22-30.79L140.22-30.79Q141.15-30.79 141.83-30.05 142.52-29.32 142.52-28.27L142.52-28.27Q142.52-27.25 141.83-26.48 141.15-25.71 140.22-25.71ZM146.2 0L146.2 0 146.2-0.76Q147.15-1.2 147.95-1.56 148.74-1.93 149.57-2.53 150.4-3.13 151.5-4.28 152.6-5.44 154.18-7.5L154.18-7.5 155.72-9.47 150.28-16.99Q149.52-18.07 148.73-18.9 147.93-19.73 146.86-19.97L146.86-19.97 146.86-20.75Q147.49-20.61 148.74-20.59 149.99-20.58 151.08-20.58L151.08-20.58Q152.23-20.58 153.54-20.58 154.84-20.58 155.58-20.75L155.58-20.75 155.58-19.97Q153.87-19.85 153.79-19.13 153.72-18.41 154.4-17.46L154.4-17.46 158.38-12.01 159.95-14.21Q161.09-15.8 161.17-17.05 161.24-18.31 160.71-19.09 160.19-19.87 159.48-19.97L159.48-19.97 159.48-20.75Q160.53-20.68 161.36-20.65 162.19-20.63 163.24-20.63L163.24-20.63Q164.24-20.63 165.15-20.65 166.05-20.68 166.88-20.75L166.88-20.75 166.88-19.97Q166.07-19.7 165.29-19.19 164.51-18.68 163.52-17.6 162.53-16.53 161.09-14.5L161.09-14.5 158.85-11.38 163.85-4.52Q164.71-3.37 165.63-2.29 166.56-1.22 167.61-0.76L167.61-0.76 167.61 0Q167.07-0.05 165.85-0.11 164.63-0.17 163.51-0.17L163.51-0.17Q162.39-0.17 161.08-0.15 159.78-0.12 159.02 0L159.02 0 159.02-0.76Q160.75-0.88 160.82-1.6 160.9-2.32 160.19-3.3L160.19-3.3 156.16-8.86 153.99-5.96Q151.86-3.1 152.08-2.06 152.3-1.03 155.06-0.76L155.06-0.76 155.06 0Q154.16-0.05 152.83-0.09 151.5-0.12 150.28-0.12L150.28-0.12Q149.15-0.12 148.21-0.09 147.28-0.05 146.2 0Z" opacity="1" transform="matrix(1,0,0,1,0,0)" fill="white" class="wordmark-text-0" id="SvgjsPath1258"></path></svg></g></svg></g><g transform="matrix(1,0,0,1,0,93.78468345277898)"><svg viewBox="0 0 349.44192 18.323976433668218" height="18.323976433668218" width="349.44192"><g transform="matrix(1,0,0,1,8,0)"><svg width="333.44192" viewBox="2.17 -28.98 687.6700000000001 37.79" height="18.323976433668218" data-palette-color="#000000"><path d="M27.93-12.45Q28.52-12.45 28.85-12.77 29.17-13.09 29.17-13.53L29.17-13.53Q29.17-13.94 28.86-14.25 28.54-14.55 27.98-14.55L27.98-14.55 21.04-14.55Q20.48-14.55 20.17-14.25 19.85-13.94 19.85-13.53L19.85-13.53Q19.85-13.09 20.18-12.77 20.51-12.45 21.07-12.45L21.07-12.45 24.1-12.45 24.1-8.11Q23.17-5.2 20.81-3.44 18.46-1.68 14.82-1.68L14.82-1.68Q11.91-1.68 9.57-3.23 7.23-4.79 5.87-7.71 4.52-10.64 4.52-14.65L4.52-14.65Q4.52-18.24 5.71-21 6.91-23.75 9.24-25.32 11.57-26.88 14.84-26.88L14.84-26.88Q17.02-26.88 18.85-26.04 20.68-25.2 21.91-23.68 23.14-22.17 23.51-20.19L23.51-20.19Q23.61-19.65 23.93-19.35 24.24-19.04 24.68-19.04L24.68-19.04Q25.15-19.04 25.48-19.34 25.81-19.63 25.81-20.19L25.81-20.19 25.81-27.34Q25.81-27.93 25.45-28.26 25.1-28.59 24.61-28.59L24.61-28.59Q24.12-28.59 23.77-28.26 23.41-27.93 23.41-27.37L23.41-27.37 23.41-24.78Q22.75-25.98 21.45-26.93 20.14-27.88 18.41-28.43 16.67-28.98 14.77-28.98L14.77-28.98Q11.06-28.98 8.19-27.21 5.32-25.44 3.75-22.23 2.17-19.02 2.17-14.82L2.17-14.82Q2.17-10.23 3.76-6.77 5.35-3.32 8.2-1.45 11.06 0.42 14.79 0.42L14.79 0.42Q16.94 0.42 18.85-0.18 20.75-0.78 22.12-1.84 23.49-2.91 24.1-4.27L24.1-4.27 24.1-1.25Q24.1-0.56 24.45-0.18 24.8 0.2 25.29 0.2L25.29 0.2Q25.76 0.2 26.1-0.17 26.44-0.54 26.44-1.2L26.44-1.2 26.44-12.45 27.93-12.45ZM35.45-9.94Q35.45-6.74 36.84-4.41 38.23-2.08 40.73-0.83 43.23 0.42 46.51 0.42L46.51 0.42Q48.58 0.42 50.96-0.39 53.34-1.2 54.61-2.56L54.61-2.56Q55.05-3.05 55.05-3.59L55.05-3.59Q55.05-4.03 54.78-4.35 54.51-4.66 54.07-4.66L54.07-4.66Q53.59-4.66 53.07-4.25L53.07-4.25Q51.68-2.93 49.91-2.26 48.14-1.59 46.31-1.59L46.31-1.59Q42.55-1.59 40.23-3.59 37.91-5.59 37.79-9.45L37.79-9.45 53.15-9.57Q54-9.57 54.51-10.17 55.03-10.77 55.03-11.69L55.03-11.69Q55.03-14.31 53.89-16.14 52.76-17.97 50.77-18.91 48.78-19.85 46.24-19.85L46.24-19.85Q43.26-19.85 40.81-18.65 38.35-17.46 36.9-15.21 35.45-12.96 35.45-9.94L35.45-9.94ZM46.29-17.85Q50.1-17.85 51.44-15.92 52.78-13.99 52.95-11.35L52.95-11.35 37.86-11.25Q38.3-14.38 40.51-16.11 42.72-17.85 46.29-17.85L46.29-17.85ZM72.87-16.89L81.93-16.89Q82.39-16.89 82.65-17.19 82.91-17.48 82.91-17.9L82.91-17.9Q82.91-18.29 82.65-18.59 82.39-18.9 81.95-18.9L81.95-18.9 72.87-18.9 72.87-24.73Q72.87-25.27 72.7-25.55 72.53-25.83 71.99-25.83L71.99-25.83Q71.28-25.83 70.98-25.21 70.67-24.58 70.6-23.27 70.53-21.95 70.53-18.9L70.53-18.9 66.94-18.9Q66.45-18.9 66.18-18.62 65.91-18.33 65.91-17.94L65.91-17.94Q65.91-17.53 66.21-17.21 66.5-16.89 67.04-16.89L67.04-16.89 70.53-16.89 70.53-4.13Q70.53-2.93 71.39-1.88 72.26-0.83 73.71-0.21 75.17 0.42 76.83 0.42L76.83 0.42Q78.46 0.42 80.12 0.04 81.78-0.34 83.04-0.94 84.3-1.54 84.81-2.15L84.81-2.15Q84.93-2.32 84.93-2.51L84.93-2.51Q84.93-2.93 84.59-3.34 84.25-3.76 83.91-3.76L83.91-3.76Q83.74-3.76 83.64-3.66L83.64-3.66Q82.47-2.78 80.62-2.19 78.78-1.59 77.07-1.59L77.07-1.59Q75.19-1.59 74.03-2.4 72.87-3.22 72.87-4.98L72.87-4.98 72.87-16.89ZM133.44 0.12L133.8 0.59Q135.71 2.91 136.71 3.93 137.71 4.96 138.92 5.48 140.13 6.01 141.93 6.01L141.93 6.01Q142.91 6.01 144.42 5.48 145.94 4.96 146.82 4.13L146.82 4.13Q147.38 3.78 147.38 3.17L147.38 3.17Q147.38 2.76 147.08 2.43 146.79 2.1 146.4 2.1L146.4 2.1Q146.01 2.1 145.69 2.32L145.69 2.32Q143.25 3.96 141.49 3.96L141.49 3.96Q139.98 3.96 138.71 2.64L138.71 2.64 136.61 0.42Q140.47 0.32 143.22-1.77 145.96-3.86 147.34-7.17 148.72-10.47 148.72-14.21L148.72-14.21Q148.72-18.02 147.29-21.4 145.86-24.78 143.03-26.88 140.2-28.98 136.22-28.98L136.22-28.98Q132.24-28.98 129.41-26.88 126.58-24.78 125.15-21.4 123.72-18.02 123.72-14.21L123.72-14.21Q123.72-10.86 124.83-7.85 125.94-4.83 128.13-2.7 130.31-0.56 133.44 0.12L133.44 0.12ZM146.38-14.21Q146.38-10.96 145.23-8.09 144.08-5.22 141.79-3.45 139.49-1.68 136.22-1.68L136.22-1.68Q132.95-1.68 130.65-3.45 128.36-5.22 127.21-8.09 126.06-10.96 126.06-14.21L126.06-14.21Q126.06-17.5 127.24-20.4 128.41-23.29 130.7-25.09 133-26.88 136.22-26.88L136.22-26.88Q139.44-26.88 141.74-25.09 144.03-23.29 145.2-20.4 146.38-17.5 146.38-14.21L146.38-14.21ZM160.29-6.32L160.29-18.75Q160.29-19.09 160.06-19.34 159.83-19.58 159.46-19.58L159.46-19.58Q159.36-19.58 159.17-19.53L159.17-19.53 154.89-18.68Q154.46-18.58 154.24-18.33 154.02-18.09 154.02-17.75L154.02-17.75Q154.02-17.33 154.33-17.02 154.65-16.7 155.14-16.7L155.14-16.7Q155.41-16.7 155.55-16.75L155.55-16.75 157.95-17.24 157.95-6.4Q157.95-4.37 158.79-2.83 159.63-1.29 161.24-0.44 162.85 0.42 165.05 0.42L165.05 0.42Q167.35 0.42 169.47-0.63 171.59-1.68 172.67-3.27L172.67-3.27 172.79-1.15Q172.81-0.54 173.13-0.23 173.45 0.07 173.94 0.07L173.94 0.07 174.11 0.07 178.65-0.42Q179.09-0.51 179.33-0.82 179.58-1.12 179.58-1.49L179.58-1.49Q179.58-1.86 179.33-2.1 179.09-2.34 178.6-2.34L178.6-2.34 178.45-2.34 174.84-2.08 174.84-18.75Q174.84-19.09 174.61-19.34 174.38-19.58 174.01-19.58L174.01-19.58Q173.91-19.58 173.72-19.53L173.72-19.53 169.47-18.68Q169.01-18.58 168.77-18.32 168.54-18.07 168.54-17.72L168.54-17.72Q168.54-17.31 168.86-16.99 169.18-16.67 169.69-16.67L169.69-16.67Q169.91-16.67 170.13-16.75L170.13-16.75 172.5-17.24 172.5-5.64Q171.96-4.52 170.75-3.59 169.54-2.66 168.03-2.12 166.52-1.59 165.08-1.59L165.08-1.59Q162.71-1.59 161.5-2.89 160.29-4.2 160.29-6.32L160.29-6.32ZM201.5-11.96L201.5-11.47 199.72-11.35Q195.74-11.08 193.38-10.67 191.03-10.25 189.41-8.96 187.8-7.67 187.8-5.13L187.8-5.13Q187.8-2.61 189.34-1.11 190.88 0.39 193.61 0.39L193.61 0.39Q196.15 0.39 198.31-0.51 200.47-1.42 201.67-2.76L201.67-2.76Q201.96-1.03 202.82-0.43 203.67 0.17 204.92 0.17L204.92 0.17Q206.02 0.17 207.03-0.31 208.04-0.78 208.82-1.61L208.82-1.61Q209.07-1.86 209.07-2.22L209.07-2.22Q209.07-2.61 208.8-2.93 208.53-3.25 208.16-3.25L208.16-3.25Q207.85-3.25 207.58-2.95L207.58-2.95Q207.16-2.51 206.45-2.14 205.75-1.76 205.11-1.76L205.11-1.76Q204.53-1.76 204.18-2.06 203.84-2.37 203.84-3.22L203.84-3.22 203.84-10.84Q203.84-13.82 203.21-15.78 202.57-17.75 200.97-18.8 199.37-19.85 196.57-19.85L196.57-19.85Q194.08-19.85 192.15-19.19 190.22-18.53 189.15-17.36 188.07-16.19 188.07-14.72L188.07-14.72Q188.07-13.94 188.45-13.45 188.83-12.96 189.54-12.96L189.54-12.96Q190.37-12.96 190.71-13.92 191.05-14.87 191.15-16.75L191.15-16.75Q192.44-17.33 193.72-17.59 195-17.85 196.54-17.85L196.54-17.85Q199.28-17.85 200.39-16.33 201.5-14.82 201.5-11.96L201.5-11.96ZM201.5-4.61Q200.18-3.22 198.12-2.4 196.05-1.59 193.88-1.59L193.88-1.59Q192.2-1.59 191.18-2.43 190.17-3.27 190.17-5.13L190.17-5.13Q190.17-6.84 191.34-7.71 192.51-8.59 194.5-8.95 196.49-9.3 200.5-9.69L200.5-9.69 201.5-9.79 201.5-4.61ZM228.57-28.86L228.3-28.83 218.1-27.91Q217.71-27.86 217.51-27.58 217.32-27.29 217.32-26.93L217.32-26.93Q217.32-26.51 217.59-26.21 217.85-25.9 218.32-25.9L218.32-25.9 218.49-25.93 227.11-26.61 227.11-2 218.1-2Q217.61-2 217.34-1.71 217.07-1.42 217.07-1.03L217.07-1.03Q217.07-0.61 217.37-0.31 217.66 0 218.2 0L218.2 0 237.73 0Q238.19 0 238.45-0.29 238.7-0.59 238.7-1L238.7-1Q238.7-1.39 238.45-1.7 238.19-2 237.75-2L237.75-2 229.45-2 229.45-28.08Q229.45-28.44 229.21-28.65 228.96-28.86 228.57-28.86L228.57-28.86ZM257.04-26.56Q257.04-25.73 257.62-25.15 258.21-24.56 259.06-24.56L259.06-24.56Q259.92-24.56 260.49-25.15 261.06-25.73 261.06-26.56L261.06-26.56Q261.06-27.42 260.48-28 259.89-28.59 259.06-28.59L259.06-28.59Q258.23-28.59 257.63-28 257.04-27.42 257.04-26.56L257.04-26.56ZM268.8 0Q269.27 0 269.54-0.29 269.8-0.59 269.8-1L269.8-1Q269.8-1.39 269.55-1.7 269.29-2 268.83-2L268.83-2 260.7-2 260.7-19.02Q260.7-19.38 260.45-19.59 260.21-19.8 259.82-19.8L259.82-19.8Q259.62-19.8 259.55-19.78L259.55-19.78 249.83-18.43Q249.44-18.38 249.25-18.1 249.05-17.82 249.05-17.46L249.05-17.46Q249.05-17.04 249.32-16.74 249.59-16.43 250.05-16.43L250.05-16.43 250.22-16.46 258.35-17.55 258.35-2 249.27-2Q248.78-2 248.52-1.72 248.25-1.44 248.25-1.05L248.25-1.05Q248.25-0.63 248.54-0.32 248.83 0 249.37 0L249.37 0 268.8 0ZM284.77-16.89L293.83-16.89Q294.29-16.89 294.55-17.19 294.8-17.48 294.8-17.9L294.8-17.9Q294.8-18.29 294.55-18.59 294.29-18.9 293.85-18.9L293.85-18.9 284.77-18.9 284.77-24.73Q284.77-25.27 284.6-25.55 284.43-25.83 283.89-25.83L283.89-25.83Q283.18-25.83 282.88-25.21 282.57-24.58 282.5-23.27 282.42-21.95 282.42-18.9L282.42-18.9 278.83-18.9Q278.35-18.9 278.08-18.62 277.81-18.33 277.81-17.94L277.81-17.94Q277.81-17.53 278.1-17.21 278.4-16.89 278.93-16.89L278.93-16.89 282.42-16.89 282.42-4.13Q282.42-2.93 283.29-1.88 284.16-0.83 285.61-0.21 287.06 0.42 288.72 0.42L288.72 0.42Q290.36 0.42 292.02 0.04 293.68-0.34 294.94-0.94 296.19-1.54 296.71-2.15L296.71-2.15Q296.83-2.32 296.83-2.51L296.83-2.51Q296.83-2.93 296.49-3.34 296.14-3.76 295.8-3.76L295.8-3.76Q295.63-3.76 295.53-3.66L295.53-3.66Q294.36-2.78 292.52-2.19 290.68-1.59 288.97-1.59L288.97-1.59Q287.09-1.59 285.93-2.4 284.77-3.22 284.77-4.98L284.77-4.98 284.77-16.89ZM307.49-18.9Q306.37-18.9 306.37-17.87L306.37-17.87Q306.37-16.89 307.37-16.89L307.37-16.89 309.64-16.89Q310.3-15.45 312.45-10.6L312.45-10.6Q312.87-9.67 314.38-6.25 315.89-2.83 317.28 0.05L317.28 0.05 315.97 3.44Q315.7 4.15 315.05 4.83 314.4 5.52 313.52 5.94 312.65 6.37 311.77 6.37L311.77 6.37Q310.11 6.37 310.11 7.54L310.11 7.54Q310.11 8.13 310.46 8.47 310.81 8.81 311.77 8.81L311.77 8.81Q314.38 8.81 316.1 7.02 317.82 5.22 319.07 2.03L319.07 2.03 326.46-16.89 328.39-16.89Q329.42-16.89 329.42-17.9L329.42-17.9Q329.42-18.9 328.3-18.9L328.3-18.9 321.83-18.9Q320.85-18.9 320.85-17.87L320.85-17.87Q320.85-16.89 321.8-16.89L321.8-16.89 323.97-16.89 318.41-2.32 312.18-16.89 314.67-16.89Q315.62-16.89 315.62-17.87L315.62-17.87Q315.62-18.9 314.62-18.9L314.62-18.9 307.49-18.9ZM391.18-12.45Q391.77-12.45 392.1-12.77 392.43-13.09 392.43-13.53L392.43-13.53Q392.43-13.94 392.11-14.25 391.79-14.55 391.23-14.55L391.23-14.55 384.3-14.55Q383.73-14.55 383.42-14.25 383.1-13.94 383.1-13.53L383.1-13.53Q383.1-13.09 383.43-12.77 383.76-12.45 384.32-12.45L384.32-12.45 387.35-12.45 387.35-8.11Q386.42-5.2 384.06-3.44 381.71-1.68 378.07-1.68L378.07-1.68Q375.17-1.68 372.82-3.23 370.48-4.79 369.12-7.71 367.77-10.64 367.77-14.65L367.77-14.65Q367.77-18.24 368.96-21 370.16-23.75 372.49-25.32 374.82-26.88 378.1-26.88L378.1-26.88Q380.27-26.88 382.1-26.04 383.93-25.2 385.16-23.68 386.4-22.17 386.76-20.19L386.76-20.19Q386.86-19.65 387.18-19.35 387.49-19.04 387.93-19.04L387.93-19.04Q388.4-19.04 388.73-19.34 389.06-19.63 389.06-20.19L389.06-20.19 389.06-27.34Q389.06-27.93 388.7-28.26 388.35-28.59 387.86-28.59L387.86-28.59Q387.37-28.59 387.02-28.26 386.66-27.93 386.66-27.37L386.66-27.37 386.66-24.78Q386.01-25.98 384.7-26.93 383.39-27.88 381.66-28.43 379.93-28.98 378.02-28.98L378.02-28.98Q374.31-28.98 371.44-27.21 368.57-25.44 367-22.23 365.42-19.02 365.42-14.82L365.42-14.82Q365.42-10.23 367.01-6.77 368.6-3.32 371.45-1.45 374.31 0.42 378.05 0.42L378.05 0.42Q380.19 0.42 382.1-0.18 384-0.78 385.37-1.84 386.74-2.91 387.35-4.27L387.35-4.27 387.35-1.25Q387.35-0.56 387.7-0.18 388.06 0.2 388.54 0.2L388.54 0.2Q389.01 0.2 389.35-0.17 389.69-0.54 389.69-1.2L389.69-1.2 389.69-12.45 391.18-12.45ZM402.46-6.32L402.46-18.75Q402.46-19.09 402.23-19.34 401.99-19.58 401.63-19.58L401.63-19.58Q401.53-19.58 401.33-19.53L401.33-19.53 397.06-18.68Q396.62-18.58 396.4-18.33 396.18-18.09 396.18-17.75L396.18-17.75Q396.18-17.33 396.5-17.02 396.82-16.7 397.31-16.7L397.31-16.7Q397.57-16.7 397.72-16.75L397.72-16.75 400.11-17.24 400.11-6.4Q400.11-4.37 400.96-2.83 401.8-1.29 403.41-0.44 405.02 0.42 407.22 0.42L407.22 0.42Q409.51 0.42 411.64-0.63 413.76-1.68 414.84-3.27L414.84-3.27 414.96-1.15Q414.98-0.54 415.3-0.23 415.62 0.07 416.11 0.07L416.11 0.07 416.28 0.07 420.82-0.42Q421.26-0.51 421.5-0.82 421.74-1.12 421.74-1.49L421.74-1.49Q421.74-1.86 421.5-2.1 421.26-2.34 420.77-2.34L420.77-2.34 420.62-2.34 417.01-2.08 417.01-18.75Q417.01-19.09 416.78-19.34 416.54-19.58 416.18-19.58L416.18-19.58Q416.08-19.58 415.89-19.53L415.89-19.53 411.64-18.68Q411.17-18.58 410.94-18.32 410.71-18.07 410.71-17.72L410.71-17.72Q410.71-17.31 411.03-16.99 411.34-16.67 411.86-16.67L411.86-16.67Q412.08-16.67 412.3-16.75L412.3-16.75 414.66-17.24 414.66-5.64Q414.13-4.52 412.92-3.59 411.71-2.66 410.2-2.12 408.68-1.59 407.24-1.59L407.24-1.59Q404.87-1.59 403.67-2.89 402.46-4.2 402.46-6.32L402.46-6.32ZM428.97-9.94Q428.97-6.74 430.36-4.41 431.75-2.08 434.25-0.83 436.76 0.42 440.03 0.42L440.03 0.42Q442.1 0.42 444.48-0.39 446.86-1.2 448.13-2.56L448.13-2.56Q448.57-3.05 448.57-3.59L448.57-3.59Q448.57-4.03 448.3-4.35 448.04-4.66 447.6-4.66L447.6-4.66Q447.11-4.66 446.6-4.25L446.6-4.25Q445.2-2.93 443.43-2.26 441.66-1.59 439.83-1.59L439.83-1.59Q436.07-1.59 433.75-3.59 431.43-5.59 431.31-9.45L431.31-9.45 446.67-9.57Q447.52-9.57 448.04-10.17 448.55-10.77 448.55-11.69L448.55-11.69Q448.55-14.31 447.41-16.14 446.28-17.97 444.29-18.91 442.3-19.85 439.76-19.85L439.76-19.85Q436.78-19.85 434.33-18.65 431.87-17.46 430.42-15.21 428.97-12.96 428.97-9.94L428.97-9.94ZM439.81-17.85Q443.62-17.85 444.96-15.92 446.3-13.99 446.47-11.35L446.47-11.35 431.39-11.25Q431.83-14.38 434.03-16.11 436.24-17.85 439.81-17.85L439.81-17.85ZM461.07-14.31Q461.07-12.26 462.41-11.08 463.76-9.91 466.2-9.45L466.2-9.45 472.69-8.18Q474.25-7.89 474.91-7.12 475.57-6.35 475.57-5.1L475.57-5.1Q475.57-3.32 474.1-2.45 472.62-1.59 469.84-1.59L469.84-1.59Q467.76-1.59 466.05-2.22 464.34-2.86 463.35-3.98 462.36-5.1 462.36-6.47L462.36-6.47Q462.36-7.25 462.13-7.5 461.9-7.74 461.49-7.74L461.49-7.74Q461.14-7.74 460.88-7.42 460.61-7.1 460.61-6.47L460.61-6.47 460.56-0.95Q460.56-0.54 460.85-0.27 461.14 0 461.53 0L461.53 0Q461.9 0 462.16-0.26 462.41-0.51 462.41-1.03L462.41-1.03 462.41-2.49Q463.76-0.95 465.72-0.27 467.69 0.42 469.98 0.42L469.98 0.42Q473.62 0.42 475.78-0.96 477.94-2.34 477.94-5.08L477.94-5.08Q477.94-7.59 476.66-8.81 475.38-10.03 473.01-10.5L473.01-10.5 466.69-11.77Q464.95-12.16 464.27-12.85 463.59-13.55 463.59-14.67L463.59-14.67Q463.59-17.85 468.76-17.85L468.76-17.85Q471.42-17.85 473.27-17.09 475.11-16.33 475.77-14.79L475.77-14.79Q475.79-13.65 475.96-13.18 476.13-12.72 476.74-12.72L476.74-12.72Q477.23-12.72 477.45-12.94 477.67-13.16 477.72-13.62L477.72-13.62 477.77-18.53Q477.77-19.09 477.48-19.41 477.18-19.73 476.77-19.73L476.77-19.73Q476.35-19.73 476.04-19.4 475.72-19.07 475.74-18.51L475.74-18.51 475.74-17.6Q475.01-18.55 473.03-19.2 471.06-19.85 468.93-19.85L468.93-19.85Q465.59-19.85 463.33-18.58 461.07-17.31 461.07-14.31L461.07-14.31ZM496.66-16.89L505.72-16.89Q506.19-16.89 506.44-17.19 506.7-17.48 506.7-17.9L506.7-17.9Q506.7-18.29 506.44-18.59 506.19-18.9 505.75-18.9L505.75-18.9 496.66-18.9 496.66-24.73Q496.66-25.27 496.49-25.55 496.32-25.83 495.79-25.83L495.79-25.83Q495.08-25.83 494.77-25.21 494.47-24.58 494.39-23.27 494.32-21.95 494.32-18.9L494.32-18.9 490.73-18.9Q490.24-18.9 489.97-18.62 489.71-18.33 489.71-17.94L489.71-17.94Q489.71-17.53 490-17.21 490.29-16.89 490.83-16.89L490.83-16.89 494.32-16.89 494.32-4.13Q494.32-2.93 495.19-1.88 496.05-0.83 497.51-0.21 498.96 0.42 500.62 0.42L500.62 0.42Q502.25 0.42 503.92 0.04 505.58-0.34 506.83-0.94 508.09-1.54 508.6-2.15L508.6-2.15Q508.72-2.32 508.72-2.51L508.72-2.51Q508.72-2.93 508.38-3.34 508.04-3.76 507.7-3.76L507.7-3.76Q507.53-3.76 507.43-3.66L507.43-3.66Q506.26-2.78 504.42-2.19 502.57-1.59 500.86-1.59L500.86-1.59Q498.98-1.59 497.82-2.4 496.66-3.22 496.66-4.98L496.66-4.98 496.66-16.89ZM557.87-28.59L549.47-28.59Q548.91-28.59 548.58-28.27 548.25-27.95 548.25-27.51L548.25-27.51Q548.25-27.1 548.56-26.79 548.88-26.49 549.44-26.49L549.44-26.49 553.32-26.49 553.32-2.1 549.1-2.1Q548.54-2.1 548.21-1.78 547.88-1.46 547.88-1.05L547.88-1.05Q547.88-0.61 548.21-0.31 548.54 0 549.12 0L549.12 0 563.68 0Q564.26 0 564.58-0.31 564.9-0.61 564.9-1.05L564.9-1.05Q564.9-1.46 564.58-1.78 564.26-2.1 563.7-2.1L563.7-2.1 555.67-2.1 555.67-12.87 558.5-12.87Q562.48-12.87 565.03-13.32 567.58-13.77 569.27-15.47 570.95-17.16 570.95-20.68L570.95-20.68Q570.95-24.19 569.17-25.92 567.39-27.64 564.69-28.11 561.99-28.59 557.87-28.59L557.87-28.59ZM559.38-14.82L555.67-14.82 555.67-26.49 558.35-26.49Q561.55-26.49 563.6-26.2 565.65-25.9 567.13-24.61 568.61-23.32 568.61-20.58L568.61-20.58Q568.61-17.99 567.37-16.74 566.14-15.48 564.25-15.15 562.36-14.82 559.38-14.82L559.38-14.82ZM579.93-9.72Q579.93-6.67 581.23-4.37 582.52-2.08 584.86-0.83 587.21 0.42 590.28 0.42L590.28 0.42Q593.36 0.42 595.7-0.83 598.05-2.08 599.34-4.37 600.64-6.67 600.64-9.72L600.64-9.72Q600.64-12.79 599.34-15.09 598.05-17.38 595.7-18.62 593.36-19.85 590.28-19.85L590.28-19.85Q587.21-19.85 584.86-18.62 582.52-17.38 581.23-15.09 579.93-12.79 579.93-9.72L579.93-9.72ZM582.57-9.72Q582.57-12.08 583.49-13.93 584.4-15.77 586.15-16.81 587.89-17.85 590.28-17.85L590.28-17.85Q592.68-17.85 594.42-16.81 596.17-15.77 597.08-13.93 598-12.08 598-9.72L598-9.72Q598-7.32 597.08-5.48 596.17-3.64 594.42-2.61 592.68-1.59 590.28-1.59L590.28-1.59Q587.89-1.59 586.15-2.61 584.4-3.64 583.49-5.48 582.57-7.32 582.57-9.72L582.57-9.72ZM612.43-14.31Q612.43-12.26 613.77-11.08 615.11-9.91 617.55-9.45L617.55-9.45 624.05-8.18Q625.61-7.89 626.27-7.12 626.93-6.35 626.93-5.1L626.93-5.1Q626.93-3.32 625.45-2.45 623.97-1.59 621.19-1.59L621.19-1.59Q619.12-1.59 617.41-2.22 615.7-2.86 614.71-3.98 613.72-5.1 613.72-6.47L613.72-6.47Q613.72-7.25 613.49-7.5 613.26-7.74 612.84-7.74L612.84-7.74Q612.5-7.74 612.23-7.42 611.96-7.1 611.96-6.47L611.96-6.47 611.91-0.95Q611.91-0.54 612.21-0.27 612.5 0 612.89 0L612.89 0Q613.26 0 613.51-0.26 613.77-0.51 613.77-1.03L613.77-1.03 613.77-2.49Q615.11-0.95 617.08-0.27 619.04 0.42 621.34 0.42L621.34 0.42Q624.97 0.42 627.14-0.96 629.3-2.34 629.3-5.08L629.3-5.08Q629.3-7.59 628.01-8.81 626.73-10.03 624.36-10.5L624.36-10.5 618.04-11.77Q616.31-12.16 615.62-12.85 614.94-13.55 614.94-14.67L614.94-14.67Q614.94-17.85 620.12-17.85L620.12-17.85Q622.78-17.85 624.62-17.09 626.46-16.33 627.12-14.79L627.12-14.79Q627.15-13.65 627.32-13.18 627.49-12.72 628.1-12.72L628.1-12.72Q628.59-12.72 628.81-12.94 629.03-13.16 629.08-13.62L629.08-13.62 629.12-18.53Q629.12-19.09 628.83-19.41 628.54-19.73 628.12-19.73L628.12-19.73Q627.71-19.73 627.39-19.4 627.07-19.07 627.1-18.51L627.1-18.51 627.1-17.6Q626.37-18.55 624.39-19.2 622.41-19.85 620.29-19.85L620.29-19.85Q616.94-19.85 614.68-18.58 612.43-17.31 612.43-14.31L612.43-14.31ZM648.02-16.89L657.08-16.89Q657.54-16.89 657.8-17.19 658.05-17.48 658.05-17.9L658.05-17.9Q658.05-18.29 657.8-18.59 657.54-18.9 657.1-18.9L657.1-18.9 648.02-18.9 648.02-24.73Q648.02-25.27 647.85-25.55 647.68-25.83 647.14-25.83L647.14-25.83Q646.43-25.83 646.13-25.21 645.82-24.58 645.75-23.27 645.68-21.95 645.68-18.9L645.68-18.9 642.09-18.9Q641.6-18.9 641.33-18.62 641.06-18.33 641.06-17.94L641.06-17.94Q641.06-17.53 641.35-17.21 641.65-16.89 642.18-16.89L642.18-16.89 645.68-16.89 645.68-4.13Q645.68-2.93 646.54-1.88 647.41-0.83 648.86-0.21 650.31 0.42 651.97 0.42L651.97 0.42Q653.61 0.42 655.27 0.04 656.93-0.34 658.19-0.94 659.44-1.54 659.96-2.15L659.96-2.15Q660.08-2.32 660.08-2.51L660.08-2.51Q660.08-2.93 659.74-3.34 659.4-3.76 659.05-3.76L659.05-3.76Q658.88-3.76 658.79-3.66L658.79-3.66Q657.61-2.78 655.77-2.19 653.93-1.59 652.22-1.59L652.22-1.59Q650.34-1.59 649.18-2.4 648.02-3.22 648.02-4.98L648.02-4.98 648.02-16.89ZM672.97-14.31Q672.97-12.26 674.31-11.08 675.65-9.91 678.09-9.45L678.09-9.45 684.59-8.18Q686.15-7.89 686.81-7.12 687.47-6.35 687.47-5.1L687.47-5.1Q687.47-3.32 685.99-2.45 684.52-1.59 681.73-1.59L681.73-1.59Q679.66-1.59 677.95-2.22 676.24-2.86 675.25-3.98 674.26-5.1 674.26-6.47L674.26-6.47Q674.26-7.25 674.03-7.5 673.8-7.74 673.38-7.74L673.38-7.74Q673.04-7.74 672.77-7.42 672.5-7.1 672.5-6.47L672.5-6.47 672.45-0.95Q672.45-0.54 672.75-0.27 673.04 0 673.43 0L673.43 0Q673.8 0 674.05-0.26 674.31-0.51 674.31-1.03L674.31-1.03 674.31-2.49Q675.65-0.95 677.62-0.27 679.58 0.42 681.88 0.42L681.88 0.42Q685.52 0.42 687.68-0.96 689.84-2.34 689.84-5.08L689.84-5.08Q689.84-7.59 688.56-8.81 687.27-10.03 684.91-10.5L684.91-10.5 678.58-11.77Q676.85-12.16 676.17-12.85 675.48-13.55 675.48-14.67L675.48-14.67Q675.48-17.85 680.66-17.85L680.66-17.85Q683.32-17.85 685.16-17.09 687.01-16.33 687.66-14.79L687.66-14.79Q687.69-13.65 687.86-13.18 688.03-12.72 688.64-12.72L688.64-12.72Q689.13-12.72 689.35-12.94 689.57-13.16 689.62-13.62L689.62-13.62 689.67-18.53Q689.67-19.09 689.37-19.41 689.08-19.73 688.67-19.73L688.67-19.73Q688.25-19.73 687.93-19.4 687.62-19.07 687.64-18.51L687.64-18.51 687.64-17.6Q686.91-18.55 684.93-19.2 682.95-19.85 680.83-19.85L680.83-19.85Q677.48-19.85 675.23-18.58 672.97-17.31 672.97-14.31L672.97-14.31Z" opacity="1" transform="matrix(1,0,0,1,0,0)" fill="black" class="slogan-text-1" id="SvgjsPath1257"></path></svg></g></svg></g></svg></g></svg></g><g transform="matrix(1,0,0,1,0,0.8199592008173724)"><svg viewBox="0 0 110.46874148481245 110.46874148481245" height="110.46874148481245" width="110.46874148481245"><g><svg></svg></g><g id="SvgjsG1256"><svg viewBox="0 0 110.46874148481245 110.46874148481245" height="110.46874148481245" width="110.46874148481245"><g><path d="M0 55.234c0-30.505 24.729-55.234 55.234-55.234 30.505 0 55.234 24.729 55.235 55.234 0 30.505-24.729 55.234-55.235 55.235-30.505 0-55.234-24.729-55.234-55.235zM55.234 103.626c26.726 0 48.392-21.666 48.392-48.392 0-26.726-21.666-48.392-48.392-48.392-26.726 0-48.392 21.666-48.392 48.392 0 26.726 21.666 48.392 48.392 48.392z" fill="black" stroke="transparent"></path></g><g transform="matrix(1,0,0,1,26.204411834608006,33.98908561532318)"><svg viewBox="0 0 58.05991781559644 42.490570254166094" height="42.490570254166094" width="58.05991781559644"><g><svg xmlns="http://www.w3.org/2000/svg" xmlns:xlink="http://www.w3.org/1999/xlink" version="1.1" x="0" y="0" viewBox="0 13.408 100 73.184" enable-background="new 0 0 100 100" xml:space="preserve" height="42.490570254166094" width="58.05991781559644" class="icon-dxe-0" data-fill-palette-color="accent" id="SvgjsSvg1255"><path d="M47.827 28.983L47.81 28.997A27 27 0 0 0 45.816 30.709L45.795 30.73A27 27 0 0 0 43.978 32.634L43.971 32.643C39.944 37.305 37.5 43.37 37.5 50 37.5 54.225 38.495 58.22 40.255 61.771 43.874 60.389 46.76 57.372 47.931 53.665A16.3 16.3 0 0 1 47.5 50C47.5 46.839 48.43 43.876 50.004 41.344 50.229 40.982 50.467 40.629 50.718 40.285A17 17 0 0 1 53.135 37.63C53.211 37.562 53.283 37.49 53.362 37.424 53.575 37.24 53.8 37.068 54.022 36.895A15.5 15.5 0 0 1 55.873 35.646C56.036 35.552 56.197 35.454 56.363 35.365 56.782 35.14 57.209 34.928 57.648 34.74L57.66 34.734A16.3 16.3 0 0 1 64.092 33.411H89.842C95.451 33.411 99.998 28.933 99.998 23.411H64.092V23.408A26.44 26.44 0 0 0 47.827 28.983" fill="black"></path><path d="M100 66.591H64.092C63.284 66.591 62.495 66.511 61.717 66.397A30.9 30.9 0 0 1 54.049 74.618 26.5 26.5 0 0 0 64.014 76.592H64A5 5 0 0 1 69 81.592V86.592z" fill="black"></path><path d="M35.908 33.409C36.716 33.409 37.505 33.489 38.284 33.603A30.8 30.8 0 0 1 45.952 25.383 26.5 26.5 0 0 0 35.986 23.408H36A5 5 0 0 1 31 18.408V13.408L0 33.408z" fill="black"></path><path d="M50.003 72.536A27 27 0 0 0 52.171 71.018L52.192 71.001A27 27 0 0 0 56.017 67.369C56.021 67.364 56.025 67.358 56.031 67.353A27 27 0 0 0 57.654 65.274L57.66 65.267H57.659A26.44 26.44 0 0 0 62.498 49.999C62.498 45.774 61.504 41.779 59.742 38.228 56.123 39.61 53.237 42.627 52.066 46.335 52.339 47.518 52.498 48.741 52.498 49.999 52.498 53.157 51.57 56.117 49.998 58.647A17.1 17.1 0 0 1 46.861 62.37C46.785 62.437 46.713 62.509 46.636 62.574 46.422 62.759 46.198 62.931 45.975 63.104A15.4 15.4 0 0 1 44.128 64.35C43.963 64.446 43.801 64.545 43.633 64.635A16 16 0 0 1 42.361 65.253L42.337 65.265A16.3 16.3 0 0 1 35.905 66.588H10.157C4.547 66.588 0 71.066 0 76.588H35.908V76.592C41.082 76.592 45.912 75.102 50.001 72.534 50.002 72.537 50.003 72.536 50.003 72.536" fill="black"></path></svg></g></svg></g></svg></g></svg></g></svg></g><defs><mask></mask></defs></svg><rect width="395.52" height="81.83870715922282" fill="black" stroke="none" visibility="hidden"></rect></g></mask><linearGradient x1="0" x2="1" y1="0.548" y2="0.55" id="dc7a5a4d-e82c-4bc4-8b92-b2e4f7461b20"><stop stop-color="#ff6cab" offset="0"></stop><stop stop-color="#7366ff" offset="1"></stop></linearGradient><rect width="395.52" height="81.83870715922282" fill="#ffffff" mask="url(#e75bbe7f-1ff2-4f3b-a363-12b02bf1a50b)" data-fill-palette-color="primary"></rect></svg><rect width="395.52" height="81.83870715922282" fill="none" stroke="none" visibility="hidden"></rect></g></svg></g></svg>