<svg width="157" height="55" viewBox="0 0 157 55" fill="none" xmlns="http://www.w3.org/2000/svg">
<g clip-path="url(#clip0_500_283)">
<g clip-path="url(#clip1_500_283)">
<g clip-path="url(#clip2_500_283)">
<g clip-path="url(#clip3_500_283)">
<g clip-path="url(#clip4_500_283)">
<g clip-path="url(#clip5_500_283)">
<path d="M0.261719 27.4026C0.261719 12.4896 12.351 0.400391 27.2639 0.400391C42.1769 0.400391 54.2662 12.4896 54.2667 27.4026C54.2667 42.3156 42.1774 54.4048 27.2639 54.4053C12.351 54.4053 0.261719 42.3161 0.261719 27.4026ZM27.2639 51.06C40.3295 51.06 50.9213 40.4681 50.9213 27.4026C50.9213 14.3371 40.3295 3.74524 27.2639 3.74524C14.1984 3.74524 3.60656 14.3371 3.60656 27.4026C3.60656 40.4681 14.1984 51.06 27.2639 51.06Z" fill="white"/>
<g clip-path="url(#clip6_500_283)">
<g clip-path="url(#clip7_500_283)">
<path d="M26.646 21.4379L26.6412 21.4418C26.4448 21.5945 26.2559 21.7567 26.0752 21.9278L26.0693 21.9337C25.8887 22.1054 25.7166 22.2857 25.5535 22.4742L25.5516 22.4767C24.4085 23.8 23.7148 25.5214 23.7148 27.4033C23.7148 28.6025 23.9973 29.7364 24.4968 30.7443C25.524 30.3521 26.3432 29.4957 26.6756 28.4435C26.5955 28.1025 26.5545 27.7535 26.5532 27.4033C26.5532 26.5061 26.8172 25.6651 27.2639 24.9464C27.3278 24.8436 27.3954 24.7434 27.4666 24.6458C27.668 24.3711 27.898 24.1185 28.1526 23.8922C28.1742 23.8729 28.1946 23.8525 28.2171 23.8337C28.2775 23.7815 28.3414 23.7327 28.4044 23.6836C28.5708 23.5529 28.7464 23.4345 28.9298 23.3291C28.9761 23.3024 29.0217 23.2746 29.0689 23.2493C29.1878 23.1855 29.309 23.1253 29.4336 23.0719L29.437 23.0702C30.0138 22.8225 30.6349 22.6947 31.2626 22.6947H38.5715C40.1635 22.6947 41.4541 21.4237 41.4541 19.8563H31.2626V19.8555C29.5905 19.8539 27.9656 20.4108 26.646 21.4379Z" fill="white"/>
<path d="M41.4528 32.1098H31.2607C31.0314 32.1098 30.8074 32.087 30.5866 32.0547C30.0099 32.959 29.2722 33.7499 28.4102 34.3881C29.308 34.7555 30.2685 34.9458 31.2386 34.9484H31.2346C31.611 34.9484 31.972 35.0979 32.2381 35.3641C32.5043 35.6302 32.6538 35.9912 32.6538 36.3676V37.7868L41.4528 32.1098Z" fill="white"/>
<path d="M23.2623 22.6927C23.4917 22.6927 23.7156 22.7154 23.9367 22.7477C24.513 21.8431 25.2507 21.0522 26.1132 20.4146C25.2153 20.047 24.2547 19.8567 23.2845 19.854H23.2885C22.9121 19.854 22.5511 19.7045 22.2849 19.4383C22.0188 19.1722 21.8693 18.8112 21.8693 18.4348V17.0156L13.0703 22.6924L23.2623 22.6927Z" fill="white"/>
<path d="M27.263 33.7984C27.4751 33.665 27.6804 33.5212 27.8784 33.3676L27.8843 33.3627C28.279 33.0554 28.6426 32.7101 28.97 32.3318C28.9712 32.3304 28.9723 32.3287 28.974 32.3273C29.1371 32.1382 29.2908 31.9413 29.4347 31.7372L29.4364 31.7352C30.3312 30.4674 30.8108 28.9534 30.8096 27.4016C30.8096 26.2024 30.5274 25.0685 30.0273 24.0605C29.0001 24.4528 28.181 25.3091 27.8486 26.3616C27.9261 26.6974 27.9712 27.0445 27.9712 27.4016C27.9712 28.298 27.7078 29.1381 27.2616 29.8562C27.0167 30.2491 26.7169 30.605 26.3712 30.9129C26.3496 30.932 26.3292 30.9524 26.3073 30.9708C26.2466 31.0234 26.183 31.0722 26.1197 31.1213C25.9538 31.2517 25.7785 31.3699 25.5955 31.4749C25.5487 31.5022 25.5027 31.5303 25.455 31.5558C25.3373 31.6196 25.2168 31.6781 25.0939 31.7312L25.0871 31.7347C24.5104 31.9824 23.8892 32.1101 23.2615 32.1102H15.9532C14.3609 32.1102 13.0703 33.3812 13.0703 34.9485H23.2623V34.9497C24.7309 34.9497 26.1018 34.5268 27.2625 33.7979C27.2627 33.7987 27.263 33.7984 27.263 33.7984Z" fill="white"/>
</g>
</g>
</g>
</g>
</g>
<mask id="mask0_500_283" style="mask-type:luminance" maskUnits="userSpaceOnUse" x="0" y="0" width="266" height="55">
<g clip-path="url(#clip8_500_283)">
<g clip-path="url(#clip9_500_283)">
<g clip-path="url(#clip10_500_283)">
<g clip-path="url(#clip11_500_283)">
<path d="M0.261719 27.4026C0.261719 12.4896 12.351 0.400391 27.2639 0.400391C42.1769 0.400391 54.2662 12.4896 54.2667 27.4026C54.2667 42.3156 42.1774 54.4048 27.2639 54.4053C12.351 54.4053 0.261719 42.3161 0.261719 27.4026ZM27.2639 51.06C40.3295 51.06 50.9213 40.4681 50.9213 27.4026C50.9213 14.3371 40.3295 3.74524 27.2639 3.74524C14.1984 3.74524 3.60656 14.3371 3.60656 27.4026C3.60656 40.4681 14.1984 51.06 27.2639 51.06Z" fill="black"/>
<g clip-path="url(#clip12_500_283)">
<g clip-path="url(#clip13_500_283)">
<path d="M26.646 21.4379L26.6412 21.4418C26.4448 21.5945 26.2559 21.7567 26.0752 21.9278L26.0693 21.9337C25.8887 22.1054 25.7166 22.2857 25.5535 22.4742L25.5516 22.4767C24.4085 23.8 23.7148 25.5214 23.7148 27.4033C23.7148 28.6025 23.9973 29.7364 24.4968 30.7443C25.524 30.3521 26.3432 29.4957 26.6756 28.4435C26.5955 28.1025 26.5545 27.7535 26.5532 27.4033C26.5532 26.5061 26.8172 25.6651 27.2639 24.9464C27.3278 24.8436 27.3954 24.7434 27.4666 24.6458C27.668 24.3711 27.898 24.1185 28.1526 23.8922C28.1742 23.8729 28.1946 23.8525 28.2171 23.8337C28.2775 23.7815 28.3414 23.7327 28.4044 23.6836C28.5708 23.5529 28.7464 23.4345 28.9298 23.3291C28.9761 23.3024 29.0217 23.2746 29.0689 23.2493C29.1878 23.1855 29.309 23.1253 29.4336 23.0719L29.437 23.0702C30.0138 22.8225 30.6349 22.6947 31.2626 22.6947H38.5715C40.1635 22.6947 41.4541 21.4237 41.4541 19.8563H31.2626V19.8555C29.5905 19.8539 27.9656 20.4108 26.646 21.4379Z" fill="black"/>
<path d="M41.4528 32.1098H31.2607C31.0314 32.1098 30.8074 32.087 30.5866 32.0547C30.0099 32.959 29.2722 33.7499 28.4102 34.3881C29.308 34.7555 30.2685 34.9458 31.2386 34.9484H31.2346C31.611 34.9484 31.972 35.0979 32.2381 35.3641C32.5043 35.6302 32.6538 35.9912 32.6538 36.3676V37.7868L41.4528 32.1098Z" fill="black"/>
<path d="M23.2623 22.6927C23.4917 22.6927 23.7156 22.7154 23.9367 22.7477C24.513 21.8431 25.2507 21.0522 26.1132 20.4146C25.2153 20.047 24.2547 19.8567 23.2845 19.854H23.2885C22.9121 19.854 22.5511 19.7045 22.2849 19.4383C22.0188 19.1722 21.8693 18.8112 21.8693 18.4348V17.0156L13.0703 22.6924L23.2623 22.6927Z" fill="black"/>
<path d="M27.263 33.7984C27.4751 33.665 27.6804 33.5212 27.8784 33.3676L27.8843 33.3627C28.279 33.0554 28.6426 32.7101 28.97 32.3318C28.9712 32.3304 28.9723 32.3287 28.974 32.3273C29.1371 32.1382 29.2908 31.9413 29.4347 31.7372L29.4364 31.7352C30.3312 30.4674 30.8108 28.9534 30.8096 27.4016C30.8096 26.2024 30.5274 25.0685 30.0273 24.0605C29.0001 24.4528 28.181 25.3091 27.8486 26.3616C27.9261 26.6974 27.9712 27.0445 27.9712 27.4016C27.9712 28.298 27.7078 29.1381 27.2616 29.8562C27.0167 30.2491 26.7169 30.605 26.3712 30.9129C26.3496 30.932 26.3292 30.9524 26.3073 30.9708C26.2466 31.0234 26.183 31.0722 26.1197 31.1213C25.9538 31.2517 25.7785 31.3699 25.5955 31.4749C25.5487 31.5022 25.5027 31.5303 25.455 31.5558C25.3373 31.6196 25.2168 31.6781 25.0939 31.7312L25.0871 31.7347C24.5104 31.9824 23.8892 32.1101 23.2615 32.1102H15.9532C14.3609 32.1102 13.0703 33.3812 13.0703 34.9485H23.2623V34.9497C24.7309 34.9497 26.1018 34.5268 27.2625 33.7979C27.2627 33.7987 27.263 33.7984 27.263 33.7984Z" fill="black"/>
</g>
</g>
</g>
</g>
</g>
</g>
</mask>
<g mask="url(#mask0_500_283)">
<path d="M265.137 0H0.261719V54.8065H265.137V0Z" fill="url(#paint0_linear_500_283)"/>
</g>
</g>
</g>
</g>
<path d="M64.1863 32L62.5629 13.3118H66.3338L66.9857 24.5605C67.0113 24.9184 67.0241 25.3147 67.0241 25.7493C67.0326 26.1839 67.0326 26.6142 67.0241 27.0403C67.0156 27.4664 66.9943 27.8456 66.9602 28.178H67.0752C67.1945 27.7945 67.3266 27.4025 67.4715 27.002C67.6164 26.6015 67.774 26.1967 67.9444 25.7876C68.1149 25.3701 68.2938 24.961 68.4813 24.5605L73.9778 13.3118H78.0172L68.4557 32H64.1863ZM82.4527 32.2557C81.3364 32.2557 80.3521 32.0554 79.5 31.6549C78.6563 31.2458 77.9959 30.6323 77.5186 29.8142C77.0414 28.9961 76.8028 27.9692 76.8028 26.7335C76.8028 25.5405 76.9732 24.3901 77.3141 23.2822C77.655 22.1659 78.162 21.1688 78.8353 20.2911C79.517 19.4134 80.3521 18.7188 81.3407 18.2075C82.3377 17.6962 83.4881 17.4406 84.792 17.4406C86.3941 17.4406 87.5914 17.807 88.3839 18.5399C89.1849 19.2642 89.5855 20.1974 89.5855 21.3393C89.5855 22.0892 89.415 22.7709 89.0742 23.3845C88.7418 23.9981 88.2348 24.5264 87.553 24.9695C86.8713 25.4042 86.0148 25.7408 84.9837 25.9794C83.9526 26.2095 82.7425 26.3245 81.3534 26.3245H80.7015C80.693 26.4268 80.6845 26.5162 80.676 26.5929C80.676 26.6696 80.676 26.7549 80.676 26.8486C80.676 27.6156 80.8975 28.2249 81.3407 28.6765C81.7838 29.1282 82.4101 29.354 83.2197 29.354C83.9696 29.354 84.6514 29.2688 85.2649 29.0983C85.8785 28.9279 86.6028 28.6467 87.438 28.2547V31.1563C86.6881 31.5228 85.9254 31.7997 85.1499 31.9872C84.3744 32.1662 83.4754 32.2557 82.4527 32.2557ZM81.1233 23.7296H81.6986C82.6871 23.7296 83.4881 23.6231 84.1017 23.4101C84.7238 23.197 85.1754 22.9158 85.4567 22.5664C85.7464 22.217 85.8913 21.8378 85.8913 21.4287C85.8913 21.0197 85.772 20.7172 85.5334 20.5212C85.3033 20.3167 84.9752 20.2144 84.5491 20.2144C84.0719 20.2144 83.5989 20.3635 83.1302 20.6618C82.6615 20.9601 82.2482 21.3734 81.8903 21.9017C81.5324 22.4301 81.2767 23.0394 81.1233 23.7296ZM89.6749 38.2891C89.2659 38.2891 88.8611 38.255 88.4606 38.1868C88.0515 38.1271 87.7149 38.0547 87.4508 37.9695V34.8761C87.7235 34.9698 87.9748 35.038 88.2049 35.0806C88.435 35.1232 88.6736 35.1445 88.9208 35.1445C89.4406 35.1445 89.8965 34.9698 90.2885 34.6204C90.6805 34.2796 90.9575 33.7299 91.1194 32.9715L93.727 20.6362H91.6435L92.0269 18.7827L94.3662 17.709L94.5963 16.6353C94.7837 15.766 95.0309 15.0332 95.3377 14.4366C95.653 13.8401 96.0279 13.3629 96.4625 13.005C96.8971 12.6385 97.3957 12.3744 97.9581 12.2125C98.5291 12.0505 99.1639 11.9696 99.8627 11.9696C100.451 11.9696 100.992 12.025 101.486 12.1358C101.989 12.2465 102.449 12.3999 102.867 12.5959L101.844 15.4593C101.597 15.3485 101.337 15.2547 101.064 15.178C100.792 15.1013 100.485 15.063 100.144 15.063C99.6582 15.063 99.2662 15.2334 98.9679 15.5743C98.6697 15.9152 98.4694 16.3626 98.3671 16.9165L98.2138 17.709H101.013L100.387 20.6362H97.5746L94.8263 33.5467C94.6474 34.4159 94.3577 35.2084 93.9571 35.9243C93.5651 36.6486 93.0197 37.2238 92.3209 37.6499C91.6307 38.076 90.7487 38.2891 89.6749 38.2891ZM106.638 32.2557C105.564 32.2557 104.614 32.0341 103.787 31.591C102.969 31.1478 102.326 30.5172 101.857 29.6991C101.397 28.8725 101.167 27.8925 101.167 26.7591C101.167 25.745 101.265 24.7778 101.461 23.8575C101.665 22.9286 101.968 22.0764 102.368 21.3009C102.777 20.5169 103.284 19.8394 103.889 19.2685C104.503 18.689 105.214 18.2416 106.024 17.9263C106.834 17.6025 107.745 17.4406 108.759 17.4406C109.867 17.4406 110.826 17.6664 111.636 18.118C112.445 18.5612 113.071 19.2046 113.515 20.0482C113.958 20.8919 114.179 21.9102 114.179 23.1033C114.179 24.0748 114.081 25.0122 113.885 25.9155C113.698 26.8102 113.408 27.6454 113.016 28.4209C112.624 29.1878 112.13 29.861 111.533 30.4405C110.937 31.0115 110.229 31.4589 109.411 31.7827C108.602 32.098 107.677 32.2557 106.638 32.2557ZM106.957 29.1239C107.383 29.1239 107.771 29.0174 108.12 28.8043C108.47 28.5828 108.781 28.2802 109.053 27.8968C109.326 27.5048 109.552 27.0574 109.731 26.5546C109.918 26.0433 110.059 25.4936 110.153 24.9056C110.255 24.3176 110.306 23.7168 110.306 23.1033C110.306 22.6175 110.246 22.1872 110.127 21.8122C110.016 21.4287 109.825 21.1305 109.552 20.9174C109.288 20.6959 108.93 20.5851 108.478 20.5851C108.01 20.5851 107.588 20.7172 107.213 20.9814C106.846 21.237 106.527 21.5821 106.254 22.0168C105.981 22.4514 105.756 22.9371 105.577 23.474C105.398 24.0108 105.261 24.5648 105.168 25.1357C105.082 25.6982 105.04 26.2393 105.04 26.7591C105.04 27.5346 105.197 28.1226 105.513 28.5231C105.828 28.9236 106.309 29.1239 106.957 29.1239ZM123.817 32.2557C121.644 32.2557 119.949 31.6378 118.73 30.4022C117.511 29.158 116.902 27.3514 116.902 24.9823C116.902 23.7126 117.051 22.4854 117.349 21.3009C117.648 20.1164 118.091 19.0256 118.679 18.0286C119.267 17.023 120 16.1453 120.877 15.3953C121.764 14.6454 122.786 14.0617 123.945 13.6441C125.104 13.2266 126.404 13.0178 127.844 13.0178C128.807 13.0178 129.71 13.12 130.554 13.3246C131.398 13.5291 132.241 13.8486 133.085 14.2832L131.615 17.4917C130.993 17.1508 130.362 16.8781 129.723 16.6736C129.092 16.4691 128.406 16.3668 127.665 16.3668C126.515 16.3668 125.513 16.614 124.661 17.1082C123.817 17.594 123.114 18.2416 122.552 19.0512C121.989 19.8522 121.568 20.7427 121.286 21.7228C121.014 22.7028 120.877 23.687 120.877 24.6755C120.877 25.5959 121.005 26.3756 121.261 27.0148C121.517 27.6454 121.921 28.1226 122.475 28.4464C123.038 28.7703 123.762 28.9322 124.648 28.9322C125.083 28.9322 125.462 28.9023 125.786 28.8427C126.11 28.783 126.455 28.7106 126.821 28.6254L127.665 24.8034H124.252L124.968 21.5054H132.164L130.094 31.2458C129.241 31.5356 128.338 31.7784 127.384 31.9744C126.429 32.1619 125.241 32.2557 123.817 32.2557ZM133.877 32L136.907 17.709H140.754L137.725 32H133.877ZM139.451 15.9322C138.905 15.9322 138.445 15.8129 138.07 15.5743C137.704 15.3357 137.52 14.9309 137.52 14.3599C137.52 13.8657 137.61 13.4524 137.789 13.12C137.976 12.7877 138.245 12.5363 138.594 12.3659C138.944 12.1954 139.361 12.1102 139.847 12.1102C140.358 12.1102 140.801 12.221 141.176 12.4425C141.56 12.6641 141.751 13.0646 141.751 13.6441C141.751 14.3259 141.564 14.8798 141.189 15.3059C140.814 15.7234 140.235 15.9322 139.451 15.9322ZM139.898 32L146.021 24.6755L143.145 17.709H147.248L148.718 21.9784L151.837 17.709H156.362L150.393 24.8801L153.511 32H149.344L147.747 27.6283L144.372 32H139.898Z" fill="white"/>
<path d="M64.1863 32L62.5629 13.3118H66.3338L66.9857 24.5605C67.0113 24.9184 67.0241 25.3147 67.0241 25.7493C67.0326 26.1839 67.0326 26.6142 67.0241 27.0403C67.0156 27.4664 66.9943 27.8456 66.9602 28.178H67.0752C67.1945 27.7945 67.3266 27.4025 67.4715 27.002C67.6164 26.6015 67.774 26.1967 67.9444 25.7876C68.1149 25.3701 68.2938 24.961 68.4813 24.5605L73.9778 13.3118H78.0172L68.4557 32H64.1863ZM82.4527 32.2557C81.3364 32.2557 80.3521 32.0554 79.5 31.6549C78.6563 31.2458 77.9959 30.6323 77.5186 29.8142C77.0414 28.9961 76.8028 27.9692 76.8028 26.7335C76.8028 25.5405 76.9732 24.3901 77.3141 23.2822C77.655 22.1659 78.162 21.1688 78.8353 20.2911C79.517 19.4134 80.3521 18.7188 81.3407 18.2075C82.3377 17.6962 83.4881 17.4406 84.792 17.4406C86.3941 17.4406 87.5914 17.807 88.3839 18.5399C89.1849 19.2642 89.5855 20.1974 89.5855 21.3393C89.5855 22.0892 89.415 22.7709 89.0742 23.3845C88.7418 23.9981 88.2348 24.5264 87.553 24.9695C86.8713 25.4042 86.0148 25.7408 84.9837 25.9794C83.9526 26.2095 82.7425 26.3245 81.3534 26.3245H80.7015C80.693 26.4268 80.6845 26.5162 80.676 26.5929C80.676 26.6696 80.676 26.7549 80.676 26.8486C80.676 27.6156 80.8975 28.2249 81.3407 28.6765C81.7838 29.1282 82.4101 29.354 83.2197 29.354C83.9696 29.354 84.6514 29.2688 85.2649 29.0983C85.8785 28.9279 86.6028 28.6467 87.438 28.2547V31.1563C86.6881 31.5228 85.9254 31.7997 85.1499 31.9872C84.3744 32.1662 83.4754 32.2557 82.4527 32.2557ZM81.1233 23.7296H81.6986C82.6871 23.7296 83.4881 23.6231 84.1017 23.4101C84.7238 23.197 85.1754 22.9158 85.4567 22.5664C85.7464 22.217 85.8913 21.8378 85.8913 21.4287C85.8913 21.0197 85.772 20.7172 85.5334 20.5212C85.3033 20.3167 84.9752 20.2144 84.5491 20.2144C84.0719 20.2144 83.5989 20.3635 83.1302 20.6618C82.6615 20.9601 82.2482 21.3734 81.8903 21.9017C81.5324 22.4301 81.2767 23.0394 81.1233 23.7296ZM89.6749 38.2891C89.2659 38.2891 88.8611 38.255 88.4606 38.1868C88.0515 38.1271 87.7149 38.0547 87.4508 37.9695V34.8761C87.7235 34.9698 87.9748 35.038 88.2049 35.0806C88.435 35.1232 88.6736 35.1445 88.9208 35.1445C89.4406 35.1445 89.8965 34.9698 90.2885 34.6204C90.6805 34.2796 90.9575 33.7299 91.1194 32.9715L93.727 20.6362H91.6435L92.0269 18.7827L94.3662 17.709L94.5963 16.6353C94.7837 15.766 95.0309 15.0332 95.3377 14.4366C95.653 13.8401 96.0279 13.3629 96.4625 13.005C96.8971 12.6385 97.3957 12.3744 97.9581 12.2125C98.5291 12.0505 99.1639 11.9696 99.8627 11.9696C100.451 11.9696 100.992 12.025 101.486 12.1358C101.989 12.2465 102.449 12.3999 102.867 12.5959L101.844 15.4593C101.597 15.3485 101.337 15.2547 101.064 15.178C100.792 15.1013 100.485 15.063 100.144 15.063C99.6582 15.063 99.2662 15.2334 98.9679 15.5743C98.6697 15.9152 98.4694 16.3626 98.3671 16.9165L98.2138 17.709H101.013L100.387 20.6362H97.5746L94.8263 33.5467C94.6474 34.4159 94.3577 35.2084 93.9571 35.9243C93.5651 36.6486 93.0197 37.2238 92.3209 37.6499C91.6307 38.076 90.7487 38.2891 89.6749 38.2891ZM106.638 32.2557C105.564 32.2557 104.614 32.0341 103.787 31.591C102.969 31.1478 102.326 30.5172 101.857 29.6991C101.397 28.8725 101.167 27.8925 101.167 26.7591C101.167 25.745 101.265 24.7778 101.461 23.8575C101.665 22.9286 101.968 22.0764 102.368 21.3009C102.777 20.5169 103.284 19.8394 103.889 19.2685C104.503 18.689 105.214 18.2416 106.024 17.9263C106.834 17.6025 107.745 17.4406 108.759 17.4406C109.867 17.4406 110.826 17.6664 111.636 18.118C112.445 18.5612 113.071 19.2046 113.515 20.0482C113.958 20.8919 114.179 21.9102 114.179 23.1033C114.179 24.0748 114.081 25.0122 113.885 25.9155C113.698 26.8102 113.408 27.6454 113.016 28.4209C112.624 29.1878 112.13 29.861 111.533 30.4405C110.937 31.0115 110.229 31.4589 109.411 31.7827C108.602 32.098 107.677 32.2557 106.638 32.2557ZM106.957 29.1239C107.383 29.1239 107.771 29.0174 108.12 28.8043C108.47 28.5828 108.781 28.2802 109.053 27.8968C109.326 27.5048 109.552 27.0574 109.731 26.5546C109.918 26.0433 110.059 25.4936 110.153 24.9056C110.255 24.3176 110.306 23.7168 110.306 23.1033C110.306 22.6175 110.246 22.1872 110.127 21.8122C110.016 21.4287 109.825 21.1305 109.552 20.9174C109.288 20.6959 108.93 20.5851 108.478 20.5851C108.01 20.5851 107.588 20.7172 107.213 20.9814C106.846 21.237 106.527 21.5821 106.254 22.0168C105.981 22.4514 105.756 22.9371 105.577 23.474C105.398 24.0108 105.261 24.5648 105.168 25.1357C105.082 25.6982 105.04 26.2393 105.04 26.7591C105.04 27.5346 105.197 28.1226 105.513 28.5231C105.828 28.9236 106.309 29.1239 106.957 29.1239ZM123.817 32.2557C121.644 32.2557 119.949 31.6378 118.73 30.4022C117.511 29.158 116.902 27.3514 116.902 24.9823C116.902 23.7126 117.051 22.4854 117.349 21.3009C117.648 20.1164 118.091 19.0256 118.679 18.0286C119.267 17.023 120 16.1453 120.877 15.3953C121.764 14.6454 122.786 14.0617 123.945 13.6441C125.104 13.2266 126.404 13.0178 127.844 13.0178C128.807 13.0178 129.71 13.12 130.554 13.3246C131.398 13.5291 132.241 13.8486 133.085 14.2832L131.615 17.4917C130.993 17.1508 130.362 16.8781 129.723 16.6736C129.092 16.4691 128.406 16.3668 127.665 16.3668C126.515 16.3668 125.513 16.614 124.661 17.1082C123.817 17.594 123.114 18.2416 122.552 19.0512C121.989 19.8522 121.568 20.7427 121.286 21.7228C121.014 22.7028 120.877 23.687 120.877 24.6755C120.877 25.5959 121.005 26.3756 121.261 27.0148C121.517 27.6454 121.921 28.1226 122.475 28.4464C123.038 28.7703 123.762 28.9322 124.648 28.9322C125.083 28.9322 125.462 28.9023 125.786 28.8427C126.11 28.783 126.455 28.7106 126.821 28.6254L127.665 24.8034H124.252L124.968 21.5054H132.164L130.094 31.2458C129.241 31.5356 128.338 31.7784 127.384 31.9744C126.429 32.1619 125.241 32.2557 123.817 32.2557ZM133.877 32L136.907 17.709H140.754L137.725 32H133.877ZM139.451 15.9322C138.905 15.9322 138.445 15.8129 138.07 15.5743C137.704 15.3357 137.52 14.9309 137.52 14.3599C137.52 13.8657 137.61 13.4524 137.789 13.12C137.976 12.7877 138.245 12.5363 138.594 12.3659C138.944 12.1954 139.361 12.1102 139.847 12.1102C140.358 12.1102 140.801 12.221 141.176 12.4425C141.56 12.6641 141.751 13.0646 141.751 13.6441C141.751 14.3259 141.564 14.8798 141.189 15.3059C140.814 15.7234 140.235 15.9322 139.451 15.9322ZM139.898 32L146.021 24.6755L143.145 17.709H147.248L148.718 21.9784L151.837 17.709H156.362L150.393 24.8801L153.511 32H149.344L147.747 27.6283L144.372 32H139.898Z" fill="white"/>
<path d="M64.0454 45.8442H66.0278V48.4351C65.7658 48.5216 65.4935 48.5911 65.2109 48.6436C64.9284 48.6937 64.6082 48.7188 64.2505 48.7188C63.7537 48.7188 63.3322 48.6208 62.9858 48.4248C62.6395 48.2288 62.3763 47.9395 62.1963 47.5566C62.0163 47.1738 61.9263 46.7033 61.9263 46.145C61.9263 45.6209 62.0265 45.1675 62.2271 44.7847C62.4299 44.4019 62.7249 44.1056 63.1123 43.896C63.502 43.6864 63.9771 43.5815 64.5376 43.5815C64.8019 43.5815 65.0628 43.61 65.3203 43.667C65.5778 43.724 65.8114 43.798 66.021 43.8892L65.6689 44.7368C65.5163 44.6593 65.342 44.5944 65.146 44.542C64.95 44.4896 64.745 44.4634 64.5308 44.4634C64.2231 44.4634 63.9554 44.534 63.7275 44.6753C63.502 44.8166 63.3265 45.0148 63.2012 45.27C63.0781 45.5229 63.0166 45.8215 63.0166 46.1655C63.0166 46.4914 63.061 46.7808 63.1499 47.0337C63.2388 47.2843 63.3789 47.4814 63.5703 47.625C63.7617 47.7663 64.0112 47.8369 64.3188 47.8369C64.4692 47.8369 64.5957 47.8301 64.6982 47.8164C64.8031 47.8005 64.901 47.7845 64.9922 47.7686V46.7261H64.0454V45.8442ZM70.0986 48.6504H67.2207V43.6533H70.0986V44.5215H68.2803V45.6187H69.9722V46.4868H68.2803V47.7754H70.0986V48.6504ZM73.0723 48.6504H72.0127V44.5352H70.6558V43.6533H74.4292V44.5352H73.0723V48.6504ZM81.5522 46.145C81.5522 46.5164 81.5078 46.8571 81.4189 47.167C81.3324 47.4746 81.1979 47.7412 81.0156 47.9668C80.8333 48.1924 80.6021 48.369 80.3218 48.4966L81.5249 49.8398H80.168L79.252 48.7188C79.236 48.7188 79.2223 48.7188 79.2109 48.7188C79.1995 48.7188 79.187 48.7188 79.1733 48.7188C78.7655 48.7188 78.4123 48.6584 78.1138 48.5376C77.8153 48.4146 77.568 48.2391 77.3721 48.0112C77.1784 47.7834 77.0337 47.5111 76.938 47.1943C76.8423 46.8776 76.7944 46.5256 76.7944 46.1382C76.7944 45.6209 76.8787 45.1709 77.0474 44.7881C77.2183 44.403 77.4803 44.1045 77.8335 43.8926C78.1867 43.6807 78.6356 43.5747 79.1802 43.5747C79.7225 43.5747 80.168 43.6807 80.5166 43.8926C80.8675 44.1045 81.1273 44.403 81.2959 44.7881C81.4668 45.1732 81.5522 45.6255 81.5522 46.145ZM77.9053 46.145C77.9053 46.4937 77.9486 46.7944 78.0352 47.0474C78.124 47.298 78.2619 47.4917 78.4487 47.6284C78.6356 47.7629 78.8771 47.8301 79.1733 47.8301C79.4741 47.8301 79.7179 47.7629 79.9048 47.6284C80.0916 47.4917 80.2272 47.298 80.3115 47.0474C80.3981 46.7944 80.4414 46.4937 80.4414 46.145C80.4414 45.6209 80.3434 45.2085 80.1475 44.9077C79.9515 44.6069 79.6291 44.4565 79.1802 44.4565C78.8817 44.4565 78.6379 44.5249 78.4487 44.6616C78.2619 44.7961 78.124 44.9897 78.0352 45.2427C77.9486 45.4933 77.9053 45.7941 77.9053 46.145ZM86.6553 43.6533V46.8867C86.6553 47.2308 86.5789 47.5418 86.4263 47.8198C86.2759 48.0955 86.0469 48.3143 85.7393 48.4761C85.4339 48.6379 85.0488 48.7188 84.584 48.7188C83.9232 48.7188 83.4196 48.5501 83.0732 48.2129C82.7269 47.8757 82.5537 47.429 82.5537 46.873V43.6533H83.6099V46.7124C83.6099 47.1248 83.6942 47.4142 83.8628 47.5806C84.0314 47.7469 84.2809 47.8301 84.6113 47.8301C84.8438 47.8301 85.0317 47.7902 85.1753 47.7104C85.3211 47.6307 85.4282 47.5076 85.4966 47.3413C85.5649 47.175 85.5991 46.9631 85.5991 46.7056V43.6533H86.6553ZM90.938 48.6504L90.5757 47.4609H88.7539L88.3916 48.6504H87.25L89.0137 43.6328H90.3091L92.0796 48.6504H90.938ZM90.3228 46.5723L89.9604 45.4102C89.9377 45.3327 89.9069 45.2336 89.8682 45.1128C89.8317 44.9897 89.7941 44.8656 89.7554 44.7402C89.7189 44.6126 89.6893 44.5021 89.6665 44.4087C89.6437 44.5021 89.6118 44.6183 89.5708 44.7573C89.5321 44.894 89.4945 45.0239 89.458 45.147C89.4215 45.27 89.3953 45.3577 89.3794 45.4102L89.0205 46.5723H90.3228ZM92.7119 48.6504V43.6533H93.7715V47.7754H95.7983V48.6504H92.7119ZM96.6699 48.6504V43.6533H97.7295V48.6504H96.6699ZM100.915 48.6504H99.8555V44.5352H98.4985V43.6533H102.272V44.5352H100.915V48.6504ZM104.596 45.7109L105.639 43.6533H106.78L105.123 46.7056V48.6504H104.07V46.7397L102.412 43.6533H103.561L104.596 45.7109ZM111.125 45.8442H113.107V48.4351C112.845 48.5216 112.573 48.5911 112.29 48.6436C112.007 48.6937 111.687 48.7188 111.33 48.7188C110.833 48.7188 110.411 48.6208 110.065 48.4248C109.719 48.2288 109.455 47.9395 109.275 47.5566C109.095 47.1738 109.005 46.7033 109.005 46.145C109.005 45.6209 109.106 45.1675 109.306 44.7847C109.509 44.4019 109.804 44.1056 110.191 43.896C110.581 43.6864 111.056 43.5815 111.617 43.5815C111.881 43.5815 112.142 43.61 112.399 43.667C112.657 43.724 112.89 43.798 113.1 43.8892L112.748 44.7368C112.595 44.6593 112.421 44.5944 112.225 44.542C112.029 44.4896 111.824 44.4634 111.61 44.4634C111.302 44.4634 111.035 44.534 110.807 44.6753C110.581 44.8166 110.406 45.0148 110.28 45.27C110.157 45.5229 110.096 45.8215 110.096 46.1655C110.096 46.4914 110.14 46.7808 110.229 47.0337C110.318 47.2843 110.458 47.4814 110.649 47.625C110.841 47.7663 111.09 47.8369 111.398 47.8369C111.548 47.8369 111.675 47.8301 111.777 47.8164C111.882 47.8005 111.98 47.7845 112.071 47.7686V46.7261H111.125V45.8442ZM118.367 43.6533V46.8867C118.367 47.2308 118.291 47.5418 118.138 47.8198C117.988 48.0955 117.759 48.3143 117.451 48.4761C117.146 48.6379 116.761 48.7188 116.296 48.7188C115.635 48.7188 115.132 48.5501 114.785 48.2129C114.439 47.8757 114.266 47.429 114.266 46.873V43.6533H115.322V46.7124C115.322 47.1248 115.406 47.4142 115.575 47.5806C115.743 47.7469 115.993 47.8301 116.323 47.8301C116.556 47.8301 116.744 47.7902 116.887 47.7104C117.033 47.6307 117.14 47.5076 117.208 47.3413C117.277 47.175 117.311 46.9631 117.311 46.7056V43.6533H118.367ZM122.469 48.6504H119.591V43.6533H122.469V44.5215H120.65V45.6187H122.342V46.4868H120.65V47.7754H122.469V48.6504ZM126.464 47.2627C126.464 47.5589 126.393 47.8164 126.249 48.0352C126.105 48.2539 125.896 48.4225 125.62 48.541C125.347 48.6595 125.014 48.7188 124.622 48.7188C124.449 48.7188 124.279 48.7074 124.113 48.6846C123.949 48.6618 123.79 48.6287 123.638 48.5854C123.487 48.5399 123.344 48.484 123.207 48.418V47.4336C123.444 47.5384 123.69 47.633 123.945 47.7173C124.201 47.8016 124.453 47.8438 124.704 47.8438C124.877 47.8438 125.016 47.821 125.121 47.7754C125.228 47.7298 125.306 47.6672 125.354 47.5874C125.401 47.5076 125.425 47.4165 125.425 47.314C125.425 47.1886 125.383 47.0815 125.299 46.9927C125.215 46.9038 125.098 46.8206 124.95 46.7432C124.804 46.6657 124.639 46.5825 124.455 46.4937C124.338 46.439 124.212 46.3729 124.075 46.2954C123.938 46.2157 123.809 46.1188 123.686 46.0049C123.562 45.891 123.461 45.7531 123.381 45.5913C123.304 45.4272 123.265 45.2313 123.265 45.0034C123.265 44.7049 123.333 44.4497 123.47 44.2378C123.607 44.0259 123.802 43.8641 124.055 43.7524C124.31 43.6385 124.611 43.5815 124.957 43.5815C125.217 43.5815 125.464 43.6123 125.699 43.6738C125.936 43.7331 126.183 43.8197 126.44 43.9336L126.099 44.7573C125.868 44.6639 125.662 44.5921 125.48 44.542C125.298 44.4896 125.112 44.4634 124.923 44.4634C124.791 44.4634 124.678 44.485 124.584 44.5283C124.491 44.5693 124.42 44.6286 124.373 44.7061C124.325 44.7812 124.301 44.869 124.301 44.9692C124.301 45.0877 124.335 45.188 124.403 45.27C124.474 45.3498 124.579 45.4272 124.718 45.5024C124.859 45.5776 125.035 45.6654 125.244 45.7656C125.499 45.8864 125.717 46.0129 125.897 46.145C126.079 46.2749 126.219 46.4287 126.317 46.6064C126.415 46.7819 126.464 47.0007 126.464 47.2627ZM129.298 48.6504H128.238V44.5352H126.881V43.6533H130.655V44.5352H129.298V48.6504ZM134.838 43.6533C135.483 43.6533 135.954 43.7923 136.25 44.0703C136.546 44.346 136.694 44.7266 136.694 45.2119C136.694 45.4307 136.661 45.6403 136.595 45.8408C136.529 46.0391 136.421 46.2157 136.271 46.3706C136.122 46.5256 135.924 46.6486 135.676 46.7397C135.427 46.8286 135.121 46.873 134.756 46.873H134.302V48.6504H133.242V43.6533H134.838ZM134.784 44.5215H134.302V46.0049H134.65C134.849 46.0049 135.021 45.9787 135.167 45.9263C135.312 45.8739 135.425 45.7918 135.505 45.6802C135.585 45.5685 135.625 45.425 135.625 45.2495C135.625 45.0034 135.556 44.8211 135.419 44.7026C135.283 44.5819 135.071 44.5215 134.784 44.5215ZM142.173 46.145C142.173 46.5301 142.125 46.881 142.03 47.1978C141.934 47.5122 141.788 47.7834 141.592 48.0112C141.399 48.2391 141.153 48.4146 140.854 48.5376C140.556 48.6584 140.202 48.7188 139.794 48.7188C139.387 48.7188 139.033 48.6584 138.735 48.5376C138.436 48.4146 138.189 48.2391 137.993 48.0112C137.799 47.7834 137.655 47.5111 137.559 47.1943C137.463 46.8776 137.416 46.5256 137.416 46.1382C137.416 45.6209 137.5 45.1709 137.668 44.7881C137.839 44.403 138.101 44.1045 138.455 43.8926C138.808 43.6807 139.257 43.5747 139.801 43.5747C140.344 43.5747 140.789 43.6807 141.138 43.8926C141.489 44.1045 141.748 44.403 141.917 44.7881C142.088 45.1732 142.173 45.6255 142.173 46.145ZM138.526 46.145C138.526 46.4937 138.57 46.7944 138.656 47.0474C138.745 47.298 138.883 47.4917 139.07 47.6284C139.257 47.7629 139.498 47.8301 139.794 47.8301C140.095 47.8301 140.339 47.7629 140.526 47.6284C140.713 47.4917 140.848 47.298 140.933 47.0474C141.019 46.7944 141.062 46.4937 141.062 46.145C141.062 45.6209 140.965 45.2085 140.769 44.9077C140.573 44.6069 140.25 44.4565 139.801 44.4565C139.503 44.4565 139.259 44.5249 139.07 44.6616C138.883 44.7961 138.745 44.9897 138.656 45.2427C138.57 45.4933 138.526 45.7941 138.526 46.145ZM146.159 47.2627C146.159 47.5589 146.087 47.8164 145.943 48.0352C145.8 48.2539 145.59 48.4225 145.314 48.541C145.041 48.6595 144.708 48.7188 144.316 48.7188C144.143 48.7188 143.973 48.7074 143.807 48.6846C143.643 48.6618 143.485 48.6287 143.332 48.5854C143.182 48.5399 143.038 48.484 142.901 48.418V47.4336C143.138 47.5384 143.384 47.633 143.64 47.7173C143.895 47.8016 144.148 47.8438 144.398 47.8438C144.572 47.8438 144.711 47.821 144.815 47.7754C144.923 47.7298 145 47.6672 145.048 47.5874C145.096 47.5076 145.12 47.4165 145.12 47.314C145.12 47.1886 145.077 47.0815 144.993 46.9927C144.909 46.9038 144.793 46.8206 144.645 46.7432C144.499 46.6657 144.333 46.5825 144.149 46.4937C144.033 46.439 143.906 46.3729 143.77 46.2954C143.633 46.2157 143.503 46.1188 143.38 46.0049C143.257 45.891 143.155 45.7531 143.076 45.5913C142.998 45.4272 142.959 45.2313 142.959 45.0034C142.959 44.7049 143.028 44.4497 143.165 44.2378C143.301 44.0259 143.496 43.8641 143.749 43.7524C144.004 43.6385 144.305 43.5815 144.651 43.5815C144.911 43.5815 145.158 43.6123 145.393 43.6738C145.63 43.7331 145.877 43.8197 146.135 43.9336L145.793 44.7573C145.563 44.6639 145.357 44.5921 145.174 44.542C144.992 44.4896 144.806 44.4634 144.617 44.4634C144.485 44.4634 144.372 44.485 144.279 44.5283C144.185 44.5693 144.115 44.6286 144.067 44.7061C144.019 44.7812 143.995 44.869 143.995 44.9692C143.995 45.0877 144.029 45.188 144.098 45.27C144.168 45.3498 144.273 45.4272 144.412 45.5024C144.553 45.5776 144.729 45.6654 144.938 45.7656C145.194 45.8864 145.411 46.0129 145.591 46.145C145.774 46.2749 145.914 46.4287 146.012 46.6064C146.11 46.7819 146.159 47.0007 146.159 47.2627ZM148.992 48.6504H147.933V44.5352H146.576V43.6533H150.349V44.5352H148.992V48.6504ZM154.068 47.2627C154.068 47.5589 153.996 47.8164 153.853 48.0352C153.709 48.2539 153.499 48.4225 153.224 48.541C152.95 48.6595 152.618 48.7188 152.226 48.7188C152.052 48.7188 151.883 48.7074 151.716 48.6846C151.552 48.6618 151.394 48.6287 151.241 48.5854C151.091 48.5399 150.947 48.484 150.811 48.418V47.4336C151.048 47.5384 151.294 47.633 151.549 47.7173C151.804 47.8016 152.057 47.8438 152.308 47.8438C152.481 47.8438 152.62 47.821 152.725 47.7754C152.832 47.7298 152.909 47.6672 152.957 47.5874C153.005 47.5076 153.029 47.4165 153.029 47.314C153.029 47.1886 152.987 47.0815 152.902 46.9927C152.818 46.9038 152.702 46.8206 152.554 46.7432C152.408 46.6657 152.243 46.5825 152.058 46.4937C151.942 46.439 151.815 46.3729 151.679 46.2954C151.542 46.2157 151.412 46.1188 151.289 46.0049C151.166 45.891 151.065 45.7531 150.985 45.5913C150.907 45.4272 150.869 45.2313 150.869 45.0034C150.869 44.7049 150.937 44.4497 151.074 44.2378C151.21 44.0259 151.405 43.8641 151.658 43.7524C151.913 43.6385 152.214 43.5815 152.561 43.5815C152.82 43.5815 153.068 43.6123 153.302 43.6738C153.539 43.7331 153.786 43.8197 154.044 43.9336L153.702 44.7573C153.472 44.6639 153.266 44.5921 153.083 44.542C152.901 44.4896 152.715 44.4634 152.526 44.4634C152.394 44.4634 152.281 44.485 152.188 44.5283C152.095 44.5693 152.024 44.6286 151.976 44.7061C151.928 44.7812 151.904 44.869 151.904 44.9692C151.904 45.0877 151.938 45.188 152.007 45.27C152.077 45.3498 152.182 45.4272 152.321 45.5024C152.463 45.5776 152.638 45.6654 152.848 45.7656C153.103 45.8864 153.32 46.0129 153.5 46.145C153.683 46.2749 153.823 46.4287 153.921 46.6064C154.019 46.7819 154.068 47.0007 154.068 47.2627Z" fill="white"/>
<defs>
<linearGradient id="paint0_linear_500_283" x1="0.261719" y1="30.034" x2="265.114" y2="32.594" gradientUnits="userSpaceOnUse">
<stop stop-color="#FF6CAB"/>
<stop offset="1" stop-color="#7366FF"/>
</linearGradient>
<clipPath id="clip0_500_283">
<rect width="54.9756" height="54.9145" fill="white"/>
</clipPath>
<clipPath id="clip1_500_283">
<rect width="265.715" height="54.9145" fill="white" transform="translate(-0.160156 -0.0546875)"/>
</clipPath>
<clipPath id="clip2_500_283">
<rect width="264.876" height="54.8065" fill="white" transform="translate(0.261719)"/>
</clipPath>
<clipPath id="clip3_500_283">
<rect width="264.876" height="54.8065" fill="white" transform="translate(0.261719)"/>
</clipPath>
<clipPath id="clip4_500_283">
<rect width="54.0048" height="54.0048" fill="white" transform="translate(0.261719 0.400391)"/>
</clipPath>
<clipPath id="clip5_500_283">
<rect width="54.0048" height="54.0048" fill="white" transform="translate(0.261719 0.400391)"/>
</clipPath>
<clipPath id="clip6_500_283">
<rect width="28.3837" height="20.7723" fill="white" transform="translate(13.0703 17.0156)"/>
</clipPath>
<clipPath id="clip7_500_283">
<rect width="28.3837" height="20.7723" fill="white" transform="translate(13.0703 17.0156)"/>
</clipPath>
<clipPath id="clip8_500_283">
<rect width="264.876" height="54.8065" fill="white" transform="translate(0.261719)"/>
</clipPath>
<clipPath id="clip9_500_283">
<rect width="264.876" height="54.8065" fill="white" transform="translate(0.261719)"/>
</clipPath>
<clipPath id="clip10_500_283">
<rect width="54.0048" height="54.0048" fill="white" transform="translate(0.261719 0.400391)"/>
</clipPath>
<clipPath id="clip11_500_283">
<rect width="54.0048" height="54.0048" fill="white" transform="translate(0.261719 0.400391)"/>
</clipPath>
<clipPath id="clip12_500_283">
<rect width="28.3837" height="20.7723" fill="white" transform="translate(13.0703 17.0156)"/>
</clipPath>
<clipPath id="clip13_500_283">
<rect width="28.3837" height="20.7723" fill="white" transform="translate(13.0703 17.0156)"/>
</clipPath>
</defs>
</svg>
