<svg width="79" height="22" viewBox="0 0 79 22" fill="none" xmlns="http://www.w3.org/2000/svg">
<path d="M0.496094 5.26313H5.13079L7.82127 12.1563L10.551 5.26313H15.0679L8.27296 21.6024H3.73645L5.60212 17.2819L0.496094 5.26313ZM19.7615 4.98819C16.2855 4.98819 14.086 8.11072 14.086 11.2136C14.086 14.7093 16.5015 17.4783 19.7026 17.4783C22.0985 17.4783 23.0019 16.0251 23.0019 16.0251V17.1641H27.0474V5.26313H23.0019V6.34325C22.9822 6.34325 21.9807 4.98819 19.7615 4.98819ZM20.6256 8.81771C22.236 8.81771 23.0608 10.0942 23.0608 11.2332C23.0608 12.4705 22.177 13.6881 20.6256 13.6881C19.3491 13.6881 18.1904 12.6472 18.1904 11.2922C18.1904 9.91746 19.1134 8.81771 20.6256 8.81771ZM28.4221 17.1641V0H32.6444V6.38253C32.6444 6.38253 33.646 4.98819 35.7473 4.98819C38.3199 4.98819 39.8321 6.91277 39.8321 9.64252V17.1641H35.6294V10.6637C35.6294 9.74072 35.1974 8.83734 34.1958 8.83734C33.1746 8.83734 32.6444 9.74072 32.6444 10.6637V17.1641H28.4221ZM47.0394 4.98819C43.0528 4.98819 40.6766 8.01252 40.6766 11.2725C40.6766 14.9646 43.5438 17.4979 47.0591 17.4979C50.4566 17.4979 53.422 15.0824 53.422 11.3314C53.422 7.22698 50.2994 4.98819 47.0394 4.98819ZM47.0787 8.83734C48.4927 8.83734 49.455 10.0157 49.455 11.2529C49.455 12.3134 48.5516 13.6291 47.0787 13.6291C45.7237 13.6291 44.7221 12.549 44.7221 11.2332C44.7221 9.99602 45.5469 8.83734 47.0787 8.83734ZM60.4526 4.98819C56.4659 4.98819 54.0897 8.01252 54.0897 11.2725C54.0897 14.9646 56.9569 17.4979 60.4722 17.4979C63.8697 17.4979 66.8351 15.0824 66.8351 11.3314C66.8351 7.22698 63.7322 4.98819 60.4526 4.98819ZM60.4918 8.83734C61.9058 8.83734 62.8681 10.0157 62.8681 11.2529C62.8681 12.3134 61.9647 13.6291 60.4918 13.6291C59.1368 13.6291 58.1352 12.549 58.1352 11.2332C58.1352 9.99602 58.9797 8.83734 60.4918 8.83734ZM70.1736 11.8028C71.7251 11.8028 72.982 13.0596 72.982 14.6111C72.982 16.1625 71.7251 17.4194 70.1736 17.4194C68.6222 17.4194 67.3653 16.1625 67.3653 14.6111C67.3653 13.0596 68.6222 11.8028 70.1736 11.8028ZM73.905 10.7816H68.8579L73.3354 0H78.3629L73.905 10.7816Z" fill="#5F01D1"/>
</svg>
